<svg version="1.1" xmlns="http://www.w3.org/2000/svg" xmlns:xlink="http://www.w3.org/1999/xlink" width="559" height="397" viewBox="0 0 559 397"><g><g><g/><path d="M254.16383,193.93979l4.55975,3.81546l-1.60307,6.22511l-8.20485,-4.06038l9.2206,-8.87293l18.40275,-9.49417l3.88632,10.74763l-0.44787,19.76496l3.08343,16.76957l-19.54806,-9.22892l-21.237,-7.14733l-3.49522,-2.9667l1.88889,-20.0812l15.74044,-12.30632l24.05626,-16.89303l9.14278,13.20195l4.1941,5.55941l10.43735,5.21947l3.39254,18.78919l-5.42271,5.36217l-8.55503,20.08328l-6.04193,15.9943l-8.07056,5.46936l-23.81559,-13.30531l-17.00742,7.5036l-14.11877,-16.19336l0.44141,-9.12061l-0.12272,-16.16575l-2.44725,-31.8847l16.93765,-19.7856l9.00139,3.28393l23.06461,-7.88464l13.48185,-7.83268l10.72769,10.47557l15.21885,0.71839l9.44995,2.63798l2.15896,39.2914l12.73036,15.78466l-1.26441,12.58436l-12.09211,1.08446l-3.2924,16.57111l-17.01265,17.49189l-3.8605,-1.2533l-18.02883,7.65315l-18.78057,3.37501l-11.38949,-1.96124l-24.36214,-4.91617l-1.94338,-18.17018l-12.03594,-14.30053l9.42742,-20.58363l2.62832,-12.57109l-3.21835,-1.67378l-13.83407,-11.74926l12.41799,-25.9622l1.99167,-21.52526l14.04341,0.88755l18.88592,-9.1723l14.57698,-2.97851l11.3773,-4.46177l16.38116,14.8267l6.67266,15.62725l19.11905,-6.70408l16.77055,5.22908l11.99309,33.23817l6.13771,22.92005l4.02902,7.67214l-2.86845,28.02905l-10.65177,0.30741l-14.10175,2.02272l-13.78093,18.12185l-16.27066,24.89396l-12.57038,-1.54376l-15.07376,-0.74504l-7.78056,12.26151l-22.20893,-12.31112l-13.33642,1.57975l-12.88281,-6.44876l-7.90352,-19.80643l-4.09077,-17.73394l-8.31971,-26.60425l-1.00057,7.31254l2.45534,-16.84842l-0.80136,-9.28312l-5.25508,-9.56427l-0.01353,-8.2572l14.99158,-14.86759l2.40062,-9.72233l12.7442,-22.03183l4.16495,-2.42914l14.10024,-8.80998l18.2472,-9.16663l18.30209,-5.1838l7.17243,-0.02351l13.74396,17.85829l24.45391,14.07161l15.45376,-6.58942l13.76997,8.54742l-0.33133,13.52442l6.99382,11.75828l12.0394,30.96425l15.146,13.73256l-7.27509,17.45568l-13.04486,3.42683l-11.21569,19.76273l12.49619,5.23189l-12.47609,10.42876l-3.95405,20.452l-36.58521,11.4698l-10.55011,-0.29093l-13.26529,-2.68006l-13.91734,1.81632l-16.30843,-7.57382l-16.57707,4.49916l-16.53923,14.78654l-0.66189,-8.03407l-2.53529,-10.42164l-3.69389,-24.69185l-20.79783,-17.97276l-25.90361,-12.80245l-0.28402,-9.45472l13.48384,-12.71478l0.10842,-15.73864l-5.47415,-12.9448l-13.5698,-21.94293l6.89135,-5.98169l28.77519,-2.86433l13.64083,-18.91129l6.90206,-9.3905l-0.26349,-1.98044l8.06204,-8.36871l11.14535,-19.59295l8.78273,4.51202l22.71782,14.88135l9.71408,-13.40221l18.78194,3.16603l13.27731,0.86116l20.61261,8.90032l24.46792,4.6899l18.55787,9.41257l0.73441,7.90784l-6.09912,16.4882l8.71967,-2.24781l10.71047,19.45823l2.23577,9.32618l0.04894,15.92382l-1.55257,24.17585l-4.51377,12.48037l-10.88293,14.19982l1.91214,12.52411l-2.56322,28.73862l-14.5973,6.55084l-21.19193,-2.15083l-19.86179,6.11944l-6.56484,20.86498l-26.6634,-5.8959l-13.03294,-13.21378l-12.49172,5.57915l-19.50948,9.23188l-2.81867,5.29069l-16.38605,-3.51867l-14.99545,-8.51973l-6.51642,-5.95467l-1.90485,-15.97465l-15.92028,-11.50626l-8.50201,-14.7952l-1.91509,-24.95714l-8.83933,-17.72591l-12.58058,0.25091l2.38108,-5.48414l-1.2663,-26.07167l6.31751,-29.69503l16.42292,-7.85095l-9.56901,-17.84667l6.19885,-6.21407l17.1229,-7.10649l3.54998,-7.71379l-3.30688,-4.86568l21.34878,1.63897l16.12817,-21.2967l11.52305,-4.90815l2.51901,10.23355l20.20824,-3.55162l14.59881,-0.6656l17.3808,6.54417l23.56403,7.39292l7.1201,0.29738l6.31628,-18.50692l10.32602,7.2624l36.69149,16.23148l4.13475,12.4595l7.19628,22.77052l0.6068,4.859l28.25179,11.23362l-8.34928,10.73435l-8.16597,14.5499l11.37352,5.87921l-11.65371,36.51168l13.17407,10.24653l-5.81649,14.90253l-24.76185,3.54247l10.08281,8.32052l-12.42165,13.12137l-11.50915,17.00079l-30.76176,2.07504l-8.8768,12.6295l-10.30947,17.45665l-8.89375,18.93701l-19.92008,-5.94698l-12.53877,-7.6274l-14.88621,-9.30983l-18.66418,16.19027l-7.87918,7.3643l-14.68934,2.74765l-21.59585,-15.34477l-16.41255,-11.26439l-8.23375,-8.54986l4.70397,1.33577l-11.12658,-33.19657l-4.53522,-4.1282l-20.63911,-15.99815l7.15305,-22.64474l-9.32809,-4.86838l-17.20647,-7.78533l3.3899,-15.46782l-0.26967,-14.71305l-3.3512,-19.40262l22.76092,-26.93961l0.3223,-12.67131l1.25429,-10.41315l16.98772,-3.49757l-1.34988,-21.50445l7.34407,3.0499l1.2671,-6.2125l8.90185,-8.44356l21.13224,-9.12428l13.33169,-12.20072l15.24952,-7.18933l4.92272,-0.50278l23.04827,-0.31551l15.77983,-2.13132l10.83781,10.20697l25.31896,2.37879l6.55762,9.69679l14.44142,-10.7043l3.6737,-16.24969l18.17491,18.125l17.53324,23.80863l12.69304,20.62711l24.2075,13.03724l6.51533,18.61042l7.40895,11.72367l0.9595,12.44752l-6.70663,13.41567l-5.45399,7.88869l8.16605,2.35909l-6.04343,28.87212l5.82017,11.82802l3.04846,14.82876l4.97274,10.7845l-7.16779,4.93104l-12.54474,7.99779l-27.71648,12.3815l-8.15404,12.57676l-16.33207,4.029l-16.95675,15.21466l-5.181,18.60894l-14.2671,26.23806l-11.84213,-3.73143l-18.21459,1.5622l-14.93283,-4.62061l-7.45257,3.71824l-25.91276,-7.29765l-11.43848,-0.14223l-15.82983,-1.71123l-12.50797,-6.32958l-12.57462,-0.92541l-19.39859,-3.81168l-9.24823,-6.83723l-7.80517,-14.51436l-12.14512,-1.20739l2.81522,-22.67277l9.94074,-1.96113l-17.27403,-18.15259l-18.58579,-11.36338l-3.08768,-1.6924l-14.51996,-41.54565l4.74056,-20.71645l-1.88126,-14.20922l-1.53316,-5.26289l13.52592,-2.63185l4.39968,-14.39237l15.00064,-39.61165l17.12612,-23.74991l-8.84534,-6.53116l-7.52477,-12.52276l11.10566,-8.69048l14.26692,1.41068l7.11153,-3.41235l18.02797,-4.51438l12.6209,-18.13658l3.91165,-4.01917l17.35441,9.05624l15.87275,-12.4476l26.46012,-4.00299l16.64546,2.66939l3.72218,16.92177l12.70025,13.84826l13.10024,-7.1715l21.11043,-10.49119l17.21939,-3.642l11.12587,11.27814l13.03446,21.73686l3.86705,20.87585l10.07574,5.17271l32.09652,1.90009l14.93951,13.80592l-1.54808,20.29667l3.30336,15.8606l-0.50561,18.17415l-4.67675,15.19616l3.50314,-0.32845l9.18484,0.56767l-8.63745,28.87427l-2.7444,21.3341l1.98207,9.78796l2.74881,10.04674l-5.68797,8.29495l-0.31091,9.18455l-8.4961,17.00266l-31.92125,1.82608l-10.14377,27.76233l-5.40425,1.68421l-4.60018,12.61652l-18.49653,23.64134l-9.74981,14.63019M323.11424,372l-2.89866,-2.26527l-15.00853,-10.87324l-4.19784,6.47946l-11.61494,-8.09318l-15.61929,12.28696l-15.68376,-4.3797l-17.37002,-6.09462l-22.91075,-6.5336l-14.34227,2.34091l-13.53166,-14.43278l-10.14089,-1.44809l-3.30964,17.62164l-25.03734,-9.37793l-11.8936,-14.01057l-10.82123,-17.171l11.82499,-23.53269l-15.33198,2.19092l-8.99735,-3.82296l-6.98555,-24.44357l-10.41013,-18.28069l-4.43098,-5.69011l-3.94444,-27.05523l11.92072,-8.42186l-1.27738,-17.01024l-11.13624,-12.54686l2.38855,-2.25581l6.72746,-23.35589l7.04089,-29.46148l8.8063,-18.94445l10.12027,-7.88683l10.42961,-11.10425l-8.25291,-20.80629l8.91146,-13.9859l16.88128,-5.88483l21.75782,-3.56377l7.814,-10.68426l3.375,-4.50196M297.05686,25l3.41038,20.64479l27.07869,-16.63909l4.51052,-3.15802l13.54699,-0.84768M349.82192,25l19.0406,16.24328l22.54852,6.00477l0.8681,9.77521l2.44974,22.80502l16.64737,14.10039l23.79588,6.76786l4.90109,10.30566l0.43226,7.65035l2.53592,9.71133l11.3872,5.03795l-1.13554,19.36741l8.49463,15.00975l6.10722,6.42751l7.02388,5.54656l-9.82512,16.79744l-3.10554,21.98425l-5.57956,20.0119l0.63589,18.97695l-10.99821,2.72688l-2.35478,13.46517l1.02732,19.9771l-1.18359,14.26641l-23.57659,2.27401l-20.65114,18.57736l4.40107,18.0425l0.54396,5.29377l-29.22655,12.13152l-11.37618,7.72168M337.71451,372l-8.78567,-3.23872l-12.57595,-8.48381l-11.85179,10.63099l-0.7084,1.09155M239.20901,372l-11.98682,-4.78353l-9.61618,4.78353M190.12974,372l-11.01629,-3.77927l0.32233,-5.44394l4.6987,5.98227l-29.98996,-12.71069l-16.1841,-23.86244l1.17889,-24.85712l3.02149,-15.67412l-22.39279,0.7179l-18.02447,14.12039l-19.16929,-15.84997l-3.83756,-26.96141l0.45877,-24.3129l5.89224,-15.10289l9.63534,-22.86773l-2.33216,-0.4107l1.55796,-15.83877l-2.7642,-12.58234l-11.417,-8.83947l-1.47699,-20.18495l-3.22995,-19.62536l8.43192,-21.76761l20.3412,-4.95131l24.53564,-3.03884l12.43261,-26.23511l-3.89116,-13.60604l0.26851,-19.01946l20.33279,8.01767l23.8256,-3.51461l-3.71532,-14.8012M375.44126,25l18.65072,5.39593l25.27791,13.06177l-8.03301,9.3449l8.7335,11.50583l24.63094,12.68154l21.2423,24.96805l-3.38594,-3.54585l-0.22999,1.1083l-11.1602,10.2908l-0.00168,17.35135l10.42122,7.97708l18.17592,0.79672l12.20131,21.15561l0.36056,16.99377l0.98489,6.50455l3.27687,20.14599l-10.2501,19.05255l-8.59552,14.68666l-19.3076,14.49104l-3.29263,10.07383l-2.83962,20.82163l13.16848,23.19181l0.59431,5.78393l-7.11102,14.31873l-26.66701,8.3367l-21.65252,15.15514l-1.01276,15.37712l-3.04287,-0.21094l-13.24214,1.89078l-17.9122,8.29468M127.61856,372l-12.60559,-24.30289l3.53446,-19.69727l2.46849,-23.15881l-21.46756,-5.79703l-16.74697,-0.97915l-15.38079,-8.80283l-10.26801,-1.50634l-0.79421,-27.12066l14.72466,-32.05833l-3.7423,-2.65059l-2.732,-9.39082l1.4714,-13.09755l2.18773,-24.74621l-2.10206,-12.59742l4.35416,-10.10741l-10.31348,-23.07545l-2.76673,-5.1337l3.45276,-7.39069l9.31898,-14.64827l21.8296,-12.19664l15.87245,-13.49362l8.49042,-17.79484l3.22423,-26.76458l-2.49067,-10.4889M410.702,25l3.91609,7.80094l0.06856,9.75314l18.70976,12.96037l16.95519,2.47057l13.50055,17.43609l9.66896,22.05764l-2.93129,17.79767l-2.31023,5.88342l12.93077,-16.63916l11.1726,18.36894l6.10542,2.13318l3.22391,22.52572l-0.44158,13.76407l3.63788,18.73797l0.13177,22.53035l-3.06292,21.08781l-0.38474,18.527l-1.78988,4.8722l-2.60562,7.55287l-8.23412,16.40952l-16.45808,5.67625l2.07765,29.36922l3.25374,19.02439l-12.11447,18.1887l-18.7081,12.33235l-10.21933,-9.36569l-14.05884,23.29399l-2.62319,2.45047M123.06636,372l-5.86947,-9.54693l-9.84063,-1.03576l-5.74725,-3.84384l-18.03347,-16.49192l2.11509,-22.95108l0.40751,-6.64331l-13.48226,-10.7043l-6.39486,-1.71632l2.42831,-0.63269l-1.92911,-17.6536l-20.2422,-15.08834l-7.14677,-10.96495l-1.30741,-19.88871l-3.7493,-28.45484l-1.80585,-14.56725l2.02284,-19.3581l0.26074,-5.39813l0.73602,-12.90504l14.36062,-21.22532l21.28337,-15.33742l1.08084,-18.56324l-7.10691,-1.05307l8.02428,-15.04776l4.40811,-8.80559l1.446,-11.89748l-3.28921,-18.37196l18.63501,-18.85305M407.58467,25l4.96704,7.6363l16.92735,-1.42259l5.14335,-6.21372M449.39497,25l9.03971,24.36408l20.8901,30.20666l11.37354,21.10627l10.40076,0.37424l15.91275,-4.05423l16.98818,14.11218M534,112.17335l-17.50125,11.42771l-8.38404,14.62139l-3.79465,18.5927l5.97614,9.88944l3.22827,25.63945l-3.05307,6.97875l-2.41174,24.52463l-4.823,22.1295l10.69282,14.31294l19.62273,24.4441l-3.95479,10.00188l-19.7287,-0.10639l-17.47444,19.40223l-5.32767,16.65639l-22.25059,20.26087l-11.25667,13.11236l-8.10116,7.03371l-0.72906,0.905M93.41871,372l2.03771,-2.49493l-18.13087,-13.76786l-12.13879,-7.00741l-9.80405,-15.3301l2.59997,-11.13069l-5.92962,-9.52851l-10.2228,-6.01908l9.71008,6.38903l16.51899,-16.79345l-21.59137,-10.1094l-21.46795,-15.89646M25,148.03329l20.71201,-14.26683l19.79956,-19.43494l-19.25958,-20.93207l-12.02411,-9.50839l12.87015,-5.85323l8.46732,-10.06669l-1.616,-14.23101l8.40084,-6.41765l17.73971,-21.14762l1.07014,-1.17484M480.41058,25l5.69954,8.64821l12.01368,33.07987l-6.09576,5.87428l-1.36781,3.9748l33.25966,10.77804l10.0801,7.51373M534,144.59406l-12.09711,14.07044l1.61141,0.05832l10.4857,7.15905M534,195.7089l-8.54689,3.87519l-2.73151,17.21994l10.77703,27.40041l0.50137,1.57673M534,301.52807l-27.02222,-0.45608l-25.76209,5.11546l16.25729,11.93763l2.2566,19.36935l-18.54959,19.8307l-6.56591,14.67487M87.2341,372l-5.2063,-4.37347l-15.13612,-8.6574l-10.68563,-12.33385l-1.17135,-14.91093l-9.57526,-11.05897l-20.45943,-0.98592M25,305.16977l0.7153,-0.11844l4.51628,-19.16612l-5.23159,-15.78081M25,118.79454l3.54591,-7.41892l-3.54591,-8.21722M25,54.51688l17.62975,-12.49778l8.94343,-14.16345l-1.02905,0.01831l2.1614,-2.87395M507.16173,25l8.97831,19.19835l4.78442,5.6145l-11.15876,16.21068l14.80187,8.3541l9.43243,4.9814M534,138.46042l-2.26437,3.83483l2.26437,4.0109M534,313.14251l-11.80373,8.73836l-3.61778,-1.48269l11.04826,18.5388l-7.7325,14.07202l-17.15548,18.991M51.84048,372l6.9575,-11.70674l-13.40986,-19.58353l-9.0436,-9.36472l-11.34452,-4.23055M25,48.25327l13.25058,-21.52949l0.51792,-1.72378M514.0216,25l16.13039,4.23988l3.84801,6.92207M534,350.0621l-17.35046,8.87896l-10.52313,13.05895M25.73847,372l-0.08607,-2.29632l3.79394,-18.06559l-4.44634,-2.75074M25,47.12842l0.91227,-1.06766l-0.91227,-20.98869" fill="none" stroke="rgb(0,0,0)" stroke-width="2" data-clipped="true"/></g></g></svg>