<svg version="1.1" xmlns="http://www.w3.org/2000/svg" xmlns:xlink="http://www.w3.org/1999/xlink" width="559" height="397" viewBox="0 0 559 397"><g><g><g/><path d="M270.8821,196.93337l2.36754,3.22562l-3.60807,3.79389l-6.83957,-4.70678l4.65605,-9.90244l14.7836,-5.97633l9.23284,10.58032l-0.813,17.11258l-6.56568,12.53105l-16.89197,-3.01093l-15.57724,-8.30886l-4.77155,-10.39515l2.52954,-16.79741l11.96149,-11.85051l17.64938,-9.46598l13.06716,5.59725l9.91178,7.13716l9.115,10.07655l2.84457,16.30168l-4.18563,11.49376l-8.76355,15.00822l-10.44186,10.87201l-12.49439,3.85027l-18.03341,-6.20377l-14.53159,-2.2086l-11.41414,-13.05417l-3.55994,-12.31086l-0.63072,-15.46612l1.68141,-20.61714l11.23374,-15.16306l10.72459,-5.13485l17.13499,-6.48138l14.49392,-3.64212l13.38508,5.57649l14.00764,4.82749l10.38521,7.73431l5.71278,22.16357l6.91558,15.0086l-0.57023,14.21273l-6.90804,9.83367l-6.19855,14.19963l-12.95405,12.95135l-9.88046,4.43806l-15.75105,5.26022l-16.35914,1.36465l-13.53991,-2.88121l-17.24435,-6.14137l-8.14509,-12.70385l-9.95014,-12.93033l-0.4821,-16.23464l-0.66439,-14.06767l-0.45563,-10.38169l-1.96305,-13.48562l9.1874,-17.55922l7.31967,-14.73342l12.93237,-5.3168l15.64171,-6.94336l14.73548,-2.75915l13.76746,-1.18509l15.21085,7.57852l11.11977,9.78645l14.35949,3.74303l12.13397,9.34402l8.81149,20.20912l4.93668,17.37736l2.2665,12.44351l-2.08831,19.5011l-6.69298,9.4531l-9.66017,9.286l-11.12128,13.8012l-13.31093,14.79936l-13.05515,4.0296l-14.63367,2.57875l-12.4628,5.28479l-17.49971,-5.10332l-14.09109,-2.07129l-13.28806,-6.56086l-10.61662,-12.74605l-8.09403,-13.35793l-8.15627,-17.52981l-4.03955,-6.54246l-1.158,-15.45862l-0.55811,-13.03155l-0.37674,-13.02506l3.12121,-12.16652l9.90929,-13.78012l6.94737,-11.04888l11.77174,-14.16566l9.79051,-5.99764l14.00007,-6.72508l15.92985,-5.2603l16.16055,-2.23621l12.22392,1.20035l14.17365,9.01895l17.306,9.21453l13.34619,3.4148l11.7209,9.90524l5.59727,12.67046l6.78211,12.87465l7.06768,20.13991l6.61206,14.48617l-2.74923,15.87109l-6.30528,10.83297l-7.16614,16.1158l-0.32719,10.43514l-10.30014,11.40782l-8.47167,13.8741l-20.78095,9.57193l-12.48784,4.17579l-13.98286,1.94448l-14.5384,2.04738l-15.47244,-2.70584l-15.44262,0.01488l-15.08648,2.15656l-9.01195,-7.14371l-8.91774,-9.23349l-8.40017,-15.32648l-13.27659,-13.96589l-13.85287,-12.97178l-3.64275,-12.42428l2.51529,-13.97701l-0.7275,-15.24311l-1.24959,-14.27924l-2.66539,-17.21296l5.8033,-11.26777l14.69138,-9.60313l10.60306,-14.43157l9.31193,-10.2114l7.72974,-6.58997l11.37676,-7.65491l13.02848,-10.31301l12.60476,-0.61918l17.66298,4.3344l13.16245,-4.1455l16.152,2.96016l13.89113,3.46091l15.92315,7.49519l16.58321,7.18195l13.69953,9.8687l6.54181,10.26421l3.09537,14.02697l7.08947,8.13521l6.55283,16.14747l2.32988,12.91633l0.27102,15.33153l-1.58414,18.1492l-3.88942,13.85837l-7.33532,14.06902l-4.0499,12.94255l-6.68679,17.89351l-11.85048,9.35508l-15.00438,5.39065l-15.27078,7.22958l-11.23291,11.23918l-18.66064,0.74951l-14.20063,-3.01956l-14.1344,2.27162l-16.53797,2.29533l-10.53782,-0.30351l-14.90963,-4.55731l-13.93304,-7.42956l-10.35446,-7.59583l-7.99583,-12.04924l-12.00388,-11.35869l-8.45897,-13.24935l-5.12126,-17.4032l-6.41795,-15.3715l-6.55992,-9.46032l-0.16694,-11.65099l-0.23527,-18.86034l3.59623,-20.02231l8.28041,-12.18202l0.36753,-15.2773l6.92209,-10.71737l11.719,-10.39034l7.90852,-9.85086l6.33494,-8.00805l15.61232,-4.80508l14.37895,-11.76811l13.2334,-4.99407l10.42615,1.38968l16.76843,-2.26075l14.87023,-0.10139l15.75459,3.55687l17.68808,4.98171l11.62143,3.6071l10.8708,-1.891l11.67786,8.05014l20.15311,12.0704l8.03619,11.57018l8.22213,15.86946l4.97747,10.24457l13.57991,12.95225l-0.21082,13.14868l-1.23947,14.72168l4.44647,11.82518l-4.67687,22.47234l2.85592,13.20306l-4.82748,14.56572l-12.45663,10.23854l-1.32478,11.41126l-10.07693,12.48559l-10.60939,13.14139l-18.07108,7.16763l-11.13045,9.97832l-12.19908,10.72991l-12.16948,10.2623l-16.35517,0.58186l-14.02237,-1.0576l-14.95566,-2.71455l-16.26814,5.07956l-12.39773,0.94338l-14.53214,-1.70676l-16.58843,-9.00994l-14.33284,-8.55493l-10.9347,-8.51803l-5.78786,-5.91963l-10.56214,-18.6944l-7.46139,-9.26229l-12.18841,-13.97743l-1.59154,-16.77748l-6.34943,-10.97938l-8.08184,-12.27207l0.11154,-15.11301l-0.12218,-14.90878l-0.15687,-16.48783l9.94912,-18.94822l3.14292,-13.71763l4.42973,-12.56163l10.81856,-9.68759l5.3005,-15.38997l9.11957,-6.20294l7.72751,-8.70038l11.02397,-8.68264l15.83174,-8.06518l13.57963,-8.23016l14.6109,-5.54115l11.28295,-2.23902l17.7491,-1.17762l15.27913,-0.80376l13.51495,4.4918l18.40439,2.76094l11.63115,6.27601l14.02891,0.11739l9.84648,-0.91581l14.36564,11.88546l13.53604,14.64807l11.17114,14.26031l14.42726,12.26545l7.46505,14.76916l6.91647,12.85389l3.77178,13.49635l0.1712,14.13097l-0.35037,12.41119l3.41627,10.59381l-2.5007,19.82454l0.65709,13.80829l-1.2603,14.66893l-1.51967,12.98626l-6.63762,10.58468l-9.36096,11.20021l-15.4411,12.19314l-9.38226,11.65412l-12.90791,8.00524l-13.73578,11.1582l-10.17452,11.54657l-13.78895,13.36121l-13.31511,2.05956l-15.8138,2.99333l-14.86491,-0.08601l-12.36476,1.87316l-18.79605,-2.90341l-13.68095,-1.35436l-15.03813,-2.82608l-13.62485,-5.33615l-13.30543,-4.32966l-15.25524,-6.1685l-11.22409,-8.0101l-10.1497,-11.41699l-11.0205,-7.46607l-5.11798,-15.54507l-1.88706,-8.88383l-10.55405,-14.984l-10.17215,-13.01267l-3.91186,-9.95769l-6.99504,-24.04495l0.61312,-16.94012l-0.77375,-14.73094l0.26313,-11.58742l6.40831,-10.55532l4.12479,-14.44523l8.67884,-22.93488l10.25346,-17.05677l2.01676,-10.63146l3.22782,-12.20828l10.40837,-10.30174l12.15132,-6.15361l10.24365,-7.1411l14.55502,-6.78505l13.11782,-10.74106l10.45784,-5.01252l15.42599,0.38252l15.12405,-6.22828l18.93967,-2.40787l15.57787,0.80309l11.05372,6.65012l14.06697,6.46298l14.0174,0.01869l16.53762,-0.29108l14.84363,2.90735l12.31202,8.87775l12.49592,13.25487l8.76367,13.64744l10.3207,8.82493l17.32378,8.26858l10.65151,12.92982l4.16964,15.64182l5.07377,14.48415l2.93568,15.60241l0.6483,14.80623l2.64031,9.57057l3.75355,9.9701l-3.31153,19.82699l-2.12404,17.13902l-1.33187,12.9821l-1.89999,12.85712l-5.64593,11.96069l-4.55752,11.91344l-8.15099,14.20962l-17.00434,8.44469l-10.08885,16.92093l-9.04861,7.2507l-9.32184,10.40394l-14.64894,13.54478l-14.31886,13.10092l-14.40018,-0.38914l-14.52849,-0.75374l-10.99504,4.46653l-13.73023,-1.43296l-15.20606,4.816l-15.23889,-1.82366l-15.76346,-3.25925l-17.55714,-4.24139l-14.37299,-1.96837l-13.81874,-8.59487l-12.30086,-4.84335l-9.52286,1.05745l-16.61816,-9.02795l-11.52765,-11.29077l-10.58324,-12.99422l-2.08658,-15.7597l-10.86914,-7.30989l-7.96376,-9.84069l-6.52845,-17.39069l-6.95593,-15.56087l-4.08995,-11.42954l-3.11751,-19.04163l3.2152,-12.67295l-0.55564,-15.70396l-3.16537,-14.12645l2.35222,-10.45362l4.66298,-17.63208l5.55628,-19.52909l6.93195,-15.5802l8.12276,-11.38144l8.93135,-12.08876l3.09659,-14.99554l9.68843,-12.10275l13.0362,-8.71567l15.25834,-7.29426l10.88118,-9.11648l11.51915,-8.63048l4.66012,-3.36737M308.93967,25l2.94899,2.7105l14.61596,-2.7105M335.31274,25l6.38621,1.1411l15.10493,3.40526l15.41267,10.2397l16.13967,7.28113l8.15201,9.24591l8.20486,14.39234l12.59868,11.93612l14.49715,9.91077l7.29756,11.61679l5.08039,11.11621l5.11841,12.20107l7.4771,10.88638l2.37975,16.12245l4.97096,14.79834l3.37026,11.9435l2.91186,11.70547l-3.72789,15.62512l-2.16691,17.37362l-3.79588,16.57067l-2.38977,16.03342l-7.17485,10.14494l-4.88498,13.58642l-4.39884,15.50261l-5.82759,13.11457l-14.2417,8.49141l-13.81116,13.66306l-5.64263,12.93401l-7.48458,7.91624l-18.29203,9.67449l-13.55052,8.42687M190.44921,372l-3.81004,-1.53122l-8.49009,-6.56158l-6.58307,-3.23547l-18.21568,-10.35334l-12.93515,-14.8124l-6.37487,-15.6995l-5.17369,-13.00443l-13.41732,-7.75698l-11.26953,-3.50197l-11.01091,-14.28357l-4.99676,-18.45404l-2.80053,-17.78534l-0.19243,-14.77998l1.83986,-17.62359l-1.58453,-9.89927l0.51038,-15.2961l-0.25183,-14.1377l-2.52527,-12.7542l1.65925,-16.56355l1.76342,-16.17772l6.51637,-16.67864l11.33423,-10.53384l13.44376,-9.52338l9.85611,-17.19892l4.76848,-12.36836l6.77039,-13.77097l14.26623,-3.84679l15.95718,-7.30146l4.66375,-11.56568M384.85342,25l6.1531,2.66637l16.92623,9.98562l4.91889,9.27451l10.28879,10.57486l15.31802,11.49668l13.60345,16.24466l4.46859,6.76032l4.96831,8.76963l0.54229,12.30903l3.7765,15.06368l6.73553,12.05374l8.75076,9.75762l5.97849,16.99017l1.15744,15.64294l0.66738,12.04368l0.75641,16.7864l-4.65406,16.35282l-4.77756,14.73032l-9.19248,14.50835l-4.29745,12.76898l-4.79823,16.25656l0.13185,16.78381l-4.8561,10.38704l-8.12382,12.971l-15.48385,10.46494l-14.26519,12.37284l-7.57663,11.95042l-8.73583,5.99563l-10.3772,5.03737M149.77639,372l-15.6189,-8.34273l-11.67992,-15.29839l-5.4776,-13.97788l-5.33402,-15.6331l-13.11554,-10.00799l-10.90254,-8.70665l-9.83216,-11.76134l-7.43744,-9.5143l-3.50772,-18.67067l2.53963,-20.59027l-3.22234,-10.51791l-2.201,-12.97241l-0.06366,-14.32502l0.86291,-18.39312l0.04708,-14.13699l2.96463,-13.19385l-1.47282,-17.58134l1.80579,-11.17223l4.60897,-11.74433l7.2725,-14.01248l12.22746,-12.86154l10.73639,-12.97403l8.72456,-14.09276l7.42099,-16.79847l5.67188,-11.78072l12.84526,-5.50985l5.00667,-2.42964M415.51082,25l1.3525,1.50614l7.57829,9.61311l13.62809,11.22119l12.55209,8.03446l10.85533,13.66915l9.00032,15.6715l4.07059,14.54851l3.71737,10.72554l8.42971,3.17378l7.21233,15.59259l4.82976,10.14637l3.19599,17.39859l1.28092,14.46778l2.05397,16.27171l0.18566,17.62163l-1.57438,17.10762l-1.28888,16.16174l-2.41802,11.31452l-3.33375,12.10719l-5.91231,15.00674l-9.37981,11.052l-3.52315,19.03228l-3.68566,15.13523l-9.58131,14.50901l-12.40121,12.10133l-9.94912,4.15004l-11.75709,15.07417l-5.08746,4.58607M124.93222,372l-8.69888,-5.33895l-9.04466,-8.12822l-12.86704,-12.96637l-5.38089,-15.62162l-5.47205,-10.32611l-9.7778,-12.08207l-6.76666,-9.26462l-3.13358,-9.16069l-4.06922,-15.31714l-9.84558,-14.62328l-4.68627,-13.34902l-2.04234,-16.5739l-2.27287,-19.63499l-0.97464,-14.84645l0.98022,-16.51505l0.98884,-11.62201l1.77155,-14.15634l7.12131,-16.93461l10.13093,-14.7325l3.69421,-15.66269l1.42274,-9.34352l7.24612,-13.94675l6.53038,-11.47638l6.02174,-12.21924l4.87391,-14.10666l14.22592,-15.14498l5.2149,-3.90584M439.24683,25l1.44764,0.6477l9.81114,3.43514l10.57689,8.48167l9.24089,16.23957l12.84577,18.54557l9.02959,15.70882l8.16628,8.79425l9.5417,7.51741l9.60867,14.27288l-3.45578,13.48951l-0.61474,14.59671l0.39371,16.10131l3.19837,13.16102l1.64495,18.68962l-1.13901,12.21257l-1.51435,18.29244l-2.94848,17.3998l1.85809,14.58526l4.38128,17.97764l-4.39291,12.78756l-10.44116,9.07045l-10.20504,15.62121l-6.51234,14.39855l-12.91319,15.35305l-9.58433,12.53689l-8.96057,10.06366l-6.29556,7.01975M96.58427,372l-9.11311,-8.11905l-10.67578,-9.79287l-9.41526,-13.05817l-4.6315,-11.94042l-7.10982,-11.69737l-8.09718,-10.76121l-0.64248,-6.69919l2.26111,-14.98502l-10.44756,-12.85028l-10.49488,-15.49979l-3.2178,-9.33228M25,151.91218l3.18981,-5.37064l9.41961,-14.51404l9.63648,-16.15096l-3.40266,-16.49405l-0.35107,-12.31131l8.82916,-10.79981l7.80377,-11.99526l4.78554,-13.14466l8.74,-10.10001l12.4384,-14.86982l1.07527,-1.16163M476.83894,25l2.73958,1.49321l11.67254,16.47843l9.66195,19.6105l2.89048,10.44804l4.04638,10.06002l15.58766,12.67051l10.56247,13.11603M534,156.36417l-0.44823,1.73334l0.44823,2.28276M534,290.5556l-2.10481,4.04l-14.87256,8.92139l-13.03628,10.6752l1.08274,12.80349l-4.26854,15.11631l-11.97052,14.97808l-8.98645,14.90993M74.07286,372l-2.11442,-1.79448l-10.00514,-11.78679l-6.27182,-13.0193l-8.75325,-11.99149l-15.87777,-8.95773l-6.05046,-10.3821M25,307.63578l1.59813,-5.711l-1.59813,-13.03767M25,75.64151l4.43939,-9.60587l14.71866,-15.57649l8.35467,-13.1875l5.32854,-7.95655l3.3613,-4.31511M503.54444,25l9.99821,17.10897l7.01899,10.14236l1.02896,14.10203l9.60045,11.6191l2.80895,3.52936M534,318.13133l-4.61032,6.70325l-5.80091,8.15068l-1.15056,14.86295l-8.11973,13.0343l-9.24904,11.11749M51.82202,372l-1.24011,-4.60368l-10.36289,-14.76562l-8.42579,-11.49495l-6.79323,-6.83698M25,50.91726l6.68801,-11.4196l6.83047,-14.49765M524.87936,25l0.28874,0.21465l7.98503,12.29555l0.84687,0.72823M534,360.56822l-4.09577,5.06234l-7.02429,6.36943" fill="none" stroke="rgb(0,0,0)" stroke-width="2" data-clipped="true"/></g></g></svg>