<svg version="1.1" xmlns="http://www.w3.org/2000/svg" xmlns:xlink="http://www.w3.org/1999/xlink" width="559" height="397" viewBox="0 0 559 397"><g><g><g/><path d="M262.52296,195.43658l3.46365,3.52054l-2.60557,5.0095l-7.52221,-4.38358l6.93833,-9.38769l16.59318,-7.73525l6.55958,10.66398l-0.63043,18.43877l-1.74112,14.65031l-18.22001,-6.11993l-18.40712,-7.72809l-4.13339,-6.68092l2.20922,-18.4393l13.85096,-12.07842l20.85282,-13.17951l11.10497,9.3996l7.05294,6.34829l9.77618,7.64801l3.11855,17.54544l-4.80417,8.42797l-8.65929,17.54575l-8.2419,13.43315l-10.28248,4.65981l-20.9245,-9.75454l-15.76951,2.6475l-12.76645,-14.62377l-1.55926,-10.71574l-0.37672,-15.81594l-0.38292,-26.25092l14.0857,-17.47433l9.86299,-0.92546l20.0998,-7.18301l13.98789,-5.7374l12.05639,8.02603l14.61325,2.77294l9.91758,5.18615l3.93587,30.72748l9.82297,15.39663l-0.91732,13.39854l-9.50007,5.45906l-4.74547,15.38537l-14.98335,15.22162l-6.87048,1.59238l-16.88994,6.45668l-17.56985,2.36983l-12.4647,-2.42123l-20.80325,-5.52877l-5.04424,-15.43701l-10.99304,-13.61543l4.47266,-18.40914l0.98197,-13.31938l-1.83699,-6.02774l-7.89856,-12.61744l10.80269,-21.76071l4.65567,-18.12934l13.48789,-2.21462l17.26381,-8.05783l14.65623,-2.86883l12.57238,-2.82343l15.79601,11.20261l8.89622,12.70685l16.73927,-1.48052l14.45226,7.28655l10.40229,26.72364l5.5372,20.14871l3.14776,10.05783l-2.47838,23.76508l-8.67238,4.88025l-11.88096,5.65436l-12.45111,15.96152l-14.7908,19.84666l-12.81277,1.24292l-14.85371,0.91686l-10.12168,8.77315l-19.85432,-8.70722l-13.71376,-0.24577l-13.08543,-6.50481l-9.26007,-16.27624l-6.0924,-15.54593l-8.23799,-22.06703l-2.52006,0.38504l0.64867,-16.15352l-0.67974,-11.15734l-2.81591,-11.29466l1.55384,-10.21186l12.45044,-14.32386l4.674,-10.38561l12.25797,-18.09875l6.97773,-4.21339l14.05015,-7.76753l17.08853,-7.21346l17.23132,-3.71001l9.69818,0.58842l13.95881,13.43862l20.87996,11.64307l14.39997,-1.58731l12.74544,9.22633l2.63297,13.09744l6.88797,12.31646l9.55354,25.55208l10.87903,14.10936l-5.01216,16.66338l-9.67507,7.1299l-9.19092,17.93926l6.0845,7.83352l-11.38812,10.91829l-6.21286,17.16305l-28.68308,10.52087l-11.51897,1.94243l-13.62407,-0.36779l-14.22787,1.93185l-15.89044,-5.13983l-16.00985,2.25702l-15.81285,8.47155l-4.83692,-7.58889l-5.72651,-9.82756l-6.04703,-20.00917l-17.03721,-15.96933l-19.87824,-12.88712l-1.96338,-10.9395l7.99957,-13.34589l-0.30954,-15.49087l-3.36187,-13.61202l-8.11759,-19.57794l6.34733,-8.62473l21.73328,-6.23373l12.12195,-16.67143l8.107,-9.80095l3.73312,-4.28521l9.7194,-8.01181l12.08691,-14.95298l10.69374,1.94642l20.1904,9.60788l11.43826,-8.77385l17.46697,3.06309l13.58422,2.16104l18.26788,8.19775l20.52557,5.93592l16.1287,9.64063l3.63811,9.08602l-1.50188,15.25759l7.90457,2.9437l8.63165,17.80285l2.28283,11.12126l0.15998,15.62768l-1.56836,21.16253l-4.20159,13.16937l-9.10913,14.13442l-1.06888,12.73333l-4.625,23.31607l-13.22389,7.95296l-18.09816,1.61991l-17.56628,6.67451l-8.89887,16.05208l-22.66202,-2.5732l-13.61679,-8.11667l-13.31306,3.92539l-18.02372,5.76361l-6.67824,2.49359l-15.64784,-4.03799l-14.46424,-7.97465l-8.43544,-6.77525l-4.95034,-14.01194l-13.96208,-11.43247l-8.48049,-14.02228l-3.51818,-21.18017l-7.62864,-16.54871l-9.57025,-4.60471l1.10707,-8.56757l-0.75078,-22.466l4.95687,-24.85867l12.35167,-10.01649l-4.60074,-16.56198l6.56047,-8.46572l14.42095,-8.74842l5.72925,-8.78232l1.51403,-6.43686l18.48055,-1.58305l15.25356,-16.5324l12.37822,-4.95111l6.47258,5.81162l18.48834,-2.90618l14.73452,-0.38349l16.5677,5.05052l20.62606,6.18732l9.37076,1.95224l8.59354,-10.19896l11.00194,7.65627l28.4223,14.15094l6.08547,12.01484l7.7092,19.31999l2.79213,7.55179l20.91585,12.09293l-4.28005,11.94152l-4.70272,14.63579l7.91,8.8522l-8.16529,29.49201l8.015,11.7248l-5.32199,14.73413l-18.60924,6.89051l4.37902,9.86589l-11.24929,12.80348l-11.05927,15.07109l-24.41642,4.62134l-10.00362,11.30391l-11.25428,14.09328l-10.53161,14.59966l-18.13762,-2.68256l-13.28057,-4.3425l-14.92094,-6.01219l-17.46616,10.63491l-10.13846,4.15384l-14.61074,0.52044l-19.09214,-12.17736l-15.3727,-9.90966l-9.58423,-8.53394l-0.54194,-2.29193l-10.84436,-25.94549l-5.9983,-6.69524l-16.41376,-14.98779l2.78075,-19.71111l-7.83876,-7.92388l-12.64416,-10.0287l1.75072,-15.29042l-0.19592,-14.81091l-1.75404,-17.94523l16.35502,-22.94392l1.73261,-13.19447l2.84201,-11.48739l13.90314,-6.59258l1.97531,-18.44721l8.23182,-1.57652l4.49731,-7.45644l9.96291,-8.5631l18.48199,-8.59473l13.45566,-10.21544l14.93021,-6.36524l8.10283,-1.3709l20.39869,-0.74656l15.52948,-1.46754l12.17638,7.34938l21.86168,2.56987l9.09439,7.9864l14.23517,-5.29345l6.76009,-8.58275l16.27028,15.00523l15.53464,19.22835l11.93209,17.44371l19.31738,12.65134l6.99019,16.68979l7.16271,12.28878l2.36564,12.97194l-3.26772,13.77332l-2.90218,10.14994l5.79116,6.47645l-4.27206,24.34833l3.23863,12.81815l0.89408,14.74885l1.72653,11.88538l-6.9027,7.75786l-10.95285,9.599l-21.57879,12.28732l-8.76815,12.11544l-14.61999,6.01712l-15.34626,13.18643l-7.67776,15.07776l-14.02803,19.79963l-12.57862,-0.83594l-17.0142,2.27777l-14.89887,-2.35331l-9.90866,2.7957l-22.35441,-5.10053l-12.55971,-0.7483l-15.43398,-2.26865l-13.06641,-5.83287l-12.94002,-2.62754l-17.32692,-4.99009l-10.23616,-7.42366l-8.97744,-12.96568l-11.58281,-4.33673l-1.15138,-19.10892l4.02684,-5.42248l-13.91404,-16.5683l-14.37897,-12.18802l-3.49977,-5.82505l-10.7575,-32.7953l2.67684,-18.82829l-1.32751,-14.47008l-0.63501,-8.42516l9.96712,-6.59359l4.26224,-14.4188l11.83974,-31.27326l13.68979,-20.40334l-3.41429,-8.58131l-2.14848,-12.36552l10.75701,-9.49611l13.20912,-2.37147l8.67759,-5.27672l16.29149,-5.64971l12.86936,-14.43882l7.18474,-4.51585l16.3902,4.71938l15.4984,-9.33794l22.6999,-3.20543l16.11167,1.73624l7.38795,11.78594l13.38361,10.15562l13.55882,-3.57641l18.82402,-5.39113l16.03151,-0.36733l11.71894,10.07794l12.76519,17.49587l6.31536,17.26165l10.19822,6.99882l24.71015,5.08434l12.79551,13.36787l1.31078,17.96924l4.18856,15.17237l1.21503,16.88828l-2.01423,15.0012l3.07172,4.62106l6.46919,5.26888l-5.97449,24.35063l-2.43422,19.23656l0.3251,11.38503l0.42441,11.45193l-5.66695,10.12782l-2.43421,10.549l-8.32355,15.60614l-24.4628,5.13539l-10.11631,22.34163l-7.22643,4.46745l-6.96101,11.51023l-16.57274,18.59306l-14.15387,17.36365M337.35864,372l-11.54246,-4.82531l-14.76851,-5.81349l-7.59644,5.473l-12.67258,-4.76307l-15.41268,8.55148l-15.46133,-3.10168l-16.56674,-4.67694l-20.23395,-5.3875l-14.35763,0.18627l-13.6752,-11.51383l-11.22088,-3.14572l-6.41625,9.33954l-20.82775,-9.20294l-11.71062,-12.65067l-10.70224,-15.08261l4.86921,-19.6462l-13.10056,-2.55949l-8.48055,-6.83182l-6.757,-20.91713l-8.68303,-16.92078l-4.26046,-8.55982l-3.53097,-23.04843l7.56796,-10.54741l-0.91651,-16.3571l-7.15081,-13.33665l2.37038,-6.35472l5.69522,-20.49399l6.29858,-24.49528l7.86912,-17.26232l9.12152,-9.63413l9.68048,-11.59651l-2.57816,-17.90091l9.29994,-13.04432l14.95874,-7.30025l18.50808,-5.42902l9.34759,-9.90037l8.27773,-8.2499M301.12953,25l5.04842,11.67764l23.00843,-10.07557l7.69132,-0.60769l16.29106,1.15582l17.37077,13.36446l19.34409,6.64295l4.51005,9.51056l5.3273,18.59868l14.62303,13.01826l19.14651,8.33932l6.09933,10.96123l2.75632,9.38328l3.82716,10.9562l9.43215,7.96216l0.6221,17.74493l6.7328,14.90404l4.73874,9.18551l4.96787,8.62602l-6.7765,16.21128l-2.63623,19.67893l-4.68772,18.29128l-0.87694,17.50519l-9.08653,6.43591l-3.61988,13.52579l-1.68576,17.73986l-3.50559,13.69049l-18.90914,5.38271l-17.23115,16.12021l-0.62078,15.48825l-3.47031,6.60501l-23.75929,10.90301l-12.31482,8.07428M328.08431,372l-9.81807,-3.25732l-5.11629,3.25732M190.06622,372l-7.18992,-2.65525l-4.08388,-6.00276l-0.94218,1.3734l-24.10282,-11.53201l-14.55963,-19.33742l-2.59799,-20.27831l-1.0761,-14.33927l-17.90505,-3.51954l-14.647,5.30921l-15.0901,-15.06677l-4.41716,-22.70772l-1.17088,-21.04912l2.84991,-14.94143l5.7376,-20.24566l-1.95835,-5.15498l1.03417,-15.56744l-1.50802,-13.36002l-6.97114,-10.79684l0.09113,-18.37425l-0.73327,-17.90154l7.47415,-19.22313l15.83771,-7.74258l18.9897,-6.28111l11.14436,-21.71701l0.43866,-12.9872l3.51945,-16.39521l17.29951,2.08544l19.89139,-5.40804l-0.21321,-13.18344M381.02031,25l11.52894,4.03115l21.10207,11.52369l-1.55706,9.3097l9.51115,11.04034l19.97448,12.08911l17.42288,20.60635l0.54132,1.60723l2.36916,4.93897l-5.30895,11.29991l1.88741,16.20752l8.57837,10.01541l13.46334,5.27717l9.0899,19.07289l0.759,16.31836l0.82613,9.27412l2.01664,18.4662l-7.45208,17.70269l-6.68654,14.70849l-14.25004,14.4997l-3.79504,11.42141l-3.81893,18.5391l6.65016,19.98781l-2.13089,8.08548l-7.61742,13.64486l-21.07543,9.40082l-17.95886,13.76399l-4.2947,13.66377l-5.88935,2.89235l-12.9695,4.02709l-7.37177,3.58433M140.80802,372l-9.76709,-3.87656l-12.29567,-20.09544l-0.97157,-16.83757l-1.43277,-19.39595l-17.29155,-7.90251l-13.82475,-4.8429l-12.60647,-10.28208l-8.85272,-5.51032l-2.15096,-22.89566l8.63215,-26.3243l-3.48232,-6.58425l-2.4665,-11.18162l0.70387,-13.71128l1.52532,-21.56967l-1.02749,-13.36721l3.6594,-11.65063l-5.89315,-20.32839l-0.48047,-8.15297l4.03086,-9.56751l8.29574,-14.33038l17.02853,-12.52909l13.30442,-13.23383l8.60749,-15.9438l5.32261,-21.78153l1.21774,-12.70505l14.44669,-1.24748l3.69726,-1.15203M412.69615,25l3.04456,4.65354l3.82343,9.68313l16.16892,12.09078l14.75364,5.25252l12.17794,15.55262l9.33464,18.86457l0.56965,16.17309l0.70357,8.30448l10.68024,-6.73269l9.19246,16.98076l5.46759,6.13977l3.20995,19.96216l0.41967,14.11593l2.84593,17.50484l0.15872,20.07599l-2.31865,19.09771l-0.83681,17.34437l-2.10395,8.09336l-2.96968,9.83003l-7.07321,15.70813l-12.91895,8.36412l-0.72275,24.20075l-0.21596,17.07981l-10.84789,16.34885l-15.55466,12.21684l-10.08422,-2.60783l-12.90797,19.18408l-3.84365,3.51827M125.11552,372l-2.95505,-4.10084l-10.36568,-3.85998l-7.39595,-5.98603l-15.45026,-14.72915l-1.6329,-19.28635l-2.53227,-8.48471l-11.63003,-11.39319l-6.58076,-5.49047l-0.35264,-4.89669l-2.99917,-16.48537l-15.04389,-14.85581l-5.91652,-12.15699l-1.67487,-18.2313l-3.01109,-24.04492l-1.39024,-14.70685l1.50153,-17.93657l0.62479,-8.51007l1.25379,-13.53069l10.74097,-19.07997l15.70715,-15.03496l2.38752,-17.11297l-2.84208,-5.1983l7.6352,-14.49725l5.46925,-10.14098l3.73387,-12.05836l0.79235,-16.23931l18.22931,-18.81891l0.38982,-0.13303M419.09574,25l0.89507,1.17462l15.09597,2.25609l8.99658,-3.2248l11.1097,5.95322l9.18598,20.42496l16.86793,24.37611l10.20157,18.40754l9.28352,4.58424l12.72722,1.73159l13.65705,14.49044l-10.83714,12.69278l-4.49939,14.60905l-1.70047,17.347l4.58725,11.52523l2.43661,22.16453l-2.09604,9.59566l-1.96304,21.40853l-3.88574,19.76465l6.27545,14.4491l12.00201,21.21087l-4.17385,11.39472l-15.08493,4.48203l-13.83974,17.51172l-5.92001,15.52747l-17.58189,17.80696l-10.4205,12.82462l-8.53087,8.54869l-3.44884,3.96237M97.36106,372l-14.96271,-12.19092l-11.40729,-8.40014l-9.60965,-14.19413l-1.01577,-11.53556l-6.51972,-10.61294l-9.15999,-8.39014l4.5338,-0.15508l9.39005,-15.88924l-16.01946,-11.47984l-16.91185,-16.38708l-0.67847,-1.44158M25,148.39302l1.56287,-1.08353l15.09784,-14.4125l14.71802,-17.79295l-11.33112,-18.71306l-6.18759,-10.90985l10.84965,-8.32652l8.13555,-11.03098l1.58477,-13.68783l8.57042,-8.25883l15.08906,-18.00872l1.0715,-1.16824M479.64814,25l9.03245,13.30993l10.83782,26.34518l-1.60264,8.16116l1.33929,7.01741l24.42366,11.72427l10.32129,9.34139M534,147.77481l-6.27267,10.6062l1.75923,4.8853l4.51344,4.86354M534,203.30693l-2.85148,2.15382l-2.27785,16.47772l5.12933,18.2512M534,298.40677l-21.9998,3.88772l-19.39919,7.89533l8.67001,12.37056l-1.00597,17.24283l-15.26005,17.40439l-7.54204,14.7924M80.10461,372l-10.67955,-7.41267l-10.34539,-12.06032l-3.72158,-13.96512l-9.16426,-11.52523l-21.19383,-4.69587M25,304.17436l1.15672,-0.68631l1.28971,-17.48359l-2.44643,-7.431M25,112.60152l0.77613,-1.85953l-0.77613,-4.01315M25,61.46429l18.3939,-15.22517l8.64905,-13.67547l2.14974,-3.96912l2.74616,-3.59453M505.53975,25l9.3016,18.15366l5.90171,7.87843l-5.0649,15.15635l12.20116,9.9866l6.12069,4.9113M534,314.89183l-8.20703,8.46589l-4.70934,3.334l4.94885,16.70088l-7.92611,13.55316l-13.18072,15.05424M53.21127,372l1.47868,-8.15521l-11.88638,-17.17458l-8.73469,-10.42983l-9.06888,-5.63025M25,49.64362l9.96929,-16.53291l3.02082,-8.11072M522.74363,25l4.91641,2.22726l6.33996,10.51992M534,356.40138l-1.12949,0.97498l-15.8258,10.56063l-3.27919,4.06302" fill="none" stroke="rgb(0,0,0)" stroke-width="2" data-clipped="true"/></g></g></svg>