<?xml version="1.0" encoding="UTF-8" standalone="no"?>
<svg
   xml:space="preserve"
   width="9.0002565cm"
   height="8.6850004cm"
   style="shape-rendering:geometricPrecision"
   viewBox="-272 -263 342.60565 330.68348"
   version="1.1"
   id="svg1"
   sodipodi:docname="Archimedean_spiral_8revolution.svg"
   inkscape:version="1.3.2 (091e20e, 2023-11-25)"
   xmlns:inkscape="http://www.inkscape.org/namespaces/inkscape"
   xmlns:sodipodi="http://sodipodi.sourceforge.net/DTD/sodipodi-0.dtd"
   xmlns="http://www.w3.org/2000/svg"
   xmlns:svg="http://www.w3.org/2000/svg"><sodipodi:namedview
   id="namedview1"
   pagecolor="#ffffff"
   bordercolor="#000000"
   borderopacity="0.25"
   inkscape:showpageshadow="2"
   inkscape:pageopacity="0.0"
   inkscape:pagecheckerboard="0"
   inkscape:deskcolor="#d1d1d1"
   inkscape:document-units="cm"
   inkscape:zoom="1.4351015"
   inkscape:cx="209.39285"
   inkscape:cy="174.55211"
   inkscape:window-width="1320"
   inkscape:window-height="776"
   inkscape:window-x="170"
   inkscape:window-y="702"
   inkscape:window-maximized="0"
   inkscape:current-layer="svg1" /><defs
   id="defs1" />
 <g
   id="g1"
   transform="translate(-1.4844638,-2.2333608)">
  <path
   style="fill:none;stroke:#000000;stroke-width:0.612195"
   d="m -104.66672,-101.37344 c 1.22629,0 2.33841,-1.47733 1.83943,-3.17613 -0.49898,-1.69881 -2.68091,-3.39761 -5.5183,-3.17613 -2.83738,0.22148 -6.13144,2.51168 -7.35773,6.35226 -1.22629,3.840574 -0.15647,9.085427 3.67887,12.704521 3.83534,3.619094 10.38114,5.3179 16.554889,3.17613 6.173746,-2.14177 11.649738,-8.199501 12.876027,-15.880651 1.226288,-7.68115 -2.025463,-16.69353 -9.197162,-22.23292 -7.171699,-5.53938 -18.081374,-7.23818 -27.591484,-3.17613 -9.51011,4.06206 -17.16804,13.88732 -18.39433,25.40905 -1.22628,11.521726 4.2074,24.301634 14.71546,31.761303 10.50806,7.45967 25.781615,9.158476 38.628083,3.176131 12.846469,-5.982345 22.686333,-19.575133 23.912621,-34.937434 1.226288,-15.3623 -6.389334,-31.90974 -20.233756,-41.2897 -13.844421,-9.37996 -33.481848,-11.07876 -49.664678,-3.17613 -16.18283,7.90263 -28.20463,25.26295 -29.43091,44.46583 -1.22629,19.202877 8.57127,39.517841 25.75205,50.818087 17.18078,11.300245 41.182076,12.999052 60.701268,3.17613 19.519191,-9.82292 33.722926,-30.950764 34.949215,-53.994217 1.226288,-23.04346 -10.753207,-47.12595 -31.270351,-60.34648 -20.517144,-13.22053 -48.882312,-14.91934 -71.737862,-3.17613 -22.85555,11.74321 -39.24122,36.63858 -40.46751,63.52261 -1.22629,26.884028 12.93514,54.734049 36.78864,69.874868 23.85351,15.140823 56.582548,16.83963 82.774462,3.176135 26.191916,-13.663499 44.759521,-42.326399 45.985809,-73.051003 1.226288,-30.72461 -15.117081,-62.34215 -42.306944,-79.40326 -27.189867,-17.06111 -64.282777,-18.75992 -93.811047,-3.17613 -29.52828,15.58378 -50.27782,48.01421 -51.50411,82.57939 -1.22629,34.56518 17.29901,69.950259 47.82524,88.931654 30.52623,18.9813953 71.983009,20.6802024 104.847646,3.1761291 C -18.458549,-26.76973 4.4729313,-62.967685 5.6992196,-101.37344 6.9255078,-139.7792 -13.78173,-178.9318 -47.644319,-199.83349 c -33.862589,-20.90168 -79.683241,-22.60049 -115.884241,-3.17613 -36.201,19.42436 -61.31441,59.38985 -62.5407,101.63618 -1.22629,42.246331 21.66289,85.166461 58.86184,107.9884344 37.19895,22.8219736 87.383471,24.5207806 126.92083,3.176129 39.53736055,-21.3446454 66.83271,-65.0776564 68.058998,-111.1645634 1.226288,-46.08691 -23.8448193,-92.77457 -64.380133,-117.51683 -40.535311,-24.74226 -95.083705,-26.44107 -137.957425,-3.17613 -42.87373,23.26493 -72.35101,70.76547 -73.5773,120.69296 -1.22629,49.927482 26.02676,100.38266845 69.89843,127.045221 43.87168,26.662546 102.783943,28.361353 148.994024,3.176129 46.21008,-25.1852245 77.869304,-76.453292 79.095593,-130.22135 1.226288,-53.76806 -28.208695,-107.99078 -75.416728,-136.57361 -47.208034,-28.58284 -110.484169,-30.28165 -160.030619,-3.17614 -49.54644,27.10551 -83.3876,82.14111 -84.61389,139.74975 -1.22628,57.608634 30.39063,115.598876 80.93503,146.102001 50.54439,30.503125 118.184405,32.201932 171.067209,3.176129 52.882804,-29.025797 88.905898,-87.828924 90.132186,-149.27813"
   id="path1" />
 </g>
<plotdata
   application="axidraw"
   model="2"
   layer="-2"
   node="0"
   last_path="0"
   node_after_path="0"
   last_known_x="0"
   last_known_y="0"
   paused_x="0"
   paused_y="0"
   randseed="0"
   row="0"
   id="1726685192" /></svg>
