<?xml version="1.0" standalone="no"?><!DOCTYPE svg PUBLIC "-//W3C//DTD SVG 1.1//EN" "http://www.w3.org/Graphics/SVG/1.1/DTD/svg11.dtd"><svg xmlns="http://www.w3.org/2000/svg" viewBox="0 0 500 500" version="1.1"><clipPath id="box"><rect x="0" y="0" width="500" height="500" style="fill:none;stroke:none;" /></clipPath><g clip-path="url(#box)"><rect x="0.00" y="0.00" width="500.00" height="500.00" style="fill:#FFFFFF;stroke:none;" /><path d="M250.00 250.00 L250.00 250.00 L250.29 250.00 L250.59 249.99 L250.88 249.97 L251.17 249.95 L251.46 249.93 L251.75 249.89 L252.04 249.86 L252.33 249.81 L252.61 249.76 L252.90 249.71 L253.18 249.65 L253.46 249.58 L253.74 249.51 L254.02 249.43 L254.30 249.35 L254.57 249.26 L254.85 249.17 L255.12 249.07 L255.39 248.96 L255.65 248.85 L255.92 248.74 L256.18 248.62 L256.44 248.49 L256.70 248.36 L256.95 248.23 L257.20 248.08 L257.45 247.94 L257.70 247.79 L257.94 247.63 L258.18 247.47 L258.42 247.30 L258.66 247.13 L258.89 246.96 L259.12 246.77 L259.34 246.59 L259.57 246.40 L259.78 246.21 L260.00 246.01 L260.21 245.80 L260.42 245.59 L260.62 245.38 L260.82 245.17 L261.02 244.95 L261.22 244.72 L261.40 244.49 L261.59 244.26 L261.77 244.02 L261.95 243.78 L262.12 243.53 L262.29 243.29 L262.46 243.03 L262.62 242.78 L262.77 242.52 L262.92 242.25 L263.07 241.99 L263.21 241.72 L263.35 241.44 L263.49 241.16 L263.62 240.88 L263.74 240.60 L263.86 240.31 L263.97 240.02 L264.08 239.73 L264.19 239.43 L264.29 239.14 L264.39 238.84 L264.48 238.53 L264.56 238.22 L264.64 237.92 L264.72 237.60 L264.79 237.29 L264.85 236.97 L264.91 236.66 L264.97 236.34 L265.01 236.01 L265.06 235.69 L265.10 235.36 L265.13 235.03 L265.16 234.70 L265.18 234.37 L265.20 234.04 L265.21 233.70 L265.21 233.37 L265.21 233.03 L265.21 232.69 L265.20 232.35 L265.18 232.01 L265.16 231.66 L265.13 231.32 L265.10 230.98 L265.06 230.63 L265.01 230.29 L264.96 229.94 L264.90 229.59 L264.84 229.24 L264.78 228.90 L264.70 228.55 L264.62 228.20 L264.54 227.85 L264.45 227.50 L264.35 227.15 L264.25 226.80 L264.14 226.45 L264.03 226.11 L263.91 225.76 L263.78 225.41 L263.65 225.06 L263.51 224.72 L263.37 224.37 L263.22 224.02 L263.07 223.68 L262.91 223.34 L262.74 222.99 L262.57 222.65 L262.39 222.31 L262.21 221.97 L262.02 221.63 L261.82 221.30 L261.62 220.96 L261.42 220.63 L261.21 220.30 L260.99 219.97 L260.77 219.64 L260.54 219.31 L260.30 218.99 L260.07 218.66 L259.82 218.34 L259.57 218.03 L259.31 217.71 L259.05 217.40 L258.78 217.09 L258.51 216.78 L258.23 216.47 L257.95 216.17 L257.66 215.87 L257.37 215.57 L257.07 215.27 L256.76 214.98 L256.45 214.69 L256.14 214.41 L255.82 214.12 L255.49 213.84 L255.16 213.57 L254.83 213.29 L254.49 213.03 L254.14 212.76 L253.79 212.50 L253.44 212.24 L253.08 211.98 L252.71 211.73 L252.34 211.49 L251.97 211.24 L251.59 211.00 L251.21 210.77 L250.82 210.54 L250.43 210.31 L250.03 210.09 L249.63 209.87 L249.23 209.66 L248.82 209.45 L248.40 209.24 L247.98 209.05 L247.56 208.85 L247.13 208.66 L246.70 208.47 L246.27 208.29 L245.83 208.12 L245.39 207.95 L244.94 207.78 L244.49 207.62 L244.04 207.47 L243.58 207.32 L243.12 207.17 L242.66 207.03 L242.19 206.90 L241.72 206.77 L241.25 206.64 L240.77 206.53 L240.29 206.41 L239.81 206.31 L239.32 206.21 L238.83 206.11 L238.34 206.02 L237.84 205.94 L237.35 205.86 L236.85 205.79 L236.34 205.72 L235.84 205.66 L235.33 205.61 L234.82 205.56 L234.31 205.52 L233.79 205.48 L233.27 205.46 L232.75 205.43 L232.23 205.42 L231.71 205.40 L231.19 205.40 L230.66 205.40 L230.13 205.41 L229.60 205.43 L229.07 205.45 L228.54 205.48 L228.00 205.51 L227.47 205.55 L226.93 205.60 L226.39 205.65 L225.85 205.71 L225.31 205.78 L224.77 205.86 L224.23 205.94 L223.69 206.02 L223.14 206.12 L222.60 206.22 L222.06 206.33 L221.51 206.44 L220.97 206.56 L220.42 206.69 L219.88 206.83 L219.33 206.97 L218.79 207.12 L218.24 207.28 L217.70 207.44 L217.15 207.61 L216.61 207.78 L216.07 207.97 L215.52 208.16 L214.98 208.35 L214.44 208.56 L213.90 208.77 L213.36 208.99 L212.82 209.21 L212.28 209.44 L211.74 209.68 L211.21 209.93 L210.67 210.18 L210.14 210.44 L209.61 210.71 L209.08 210.98 L208.55 211.26 L208.02 211.55 L207.50 211.84 L206.98 212.14 L206.46 212.45 L205.94 212.77 L205.42 213.09 L204.91 213.42 L204.39 213.75 L203.88 214.09 L203.38 214.44 L202.87 214.80 L202.37 215.16 L201.87 215.53 L201.38 215.90 L200.89 216.28 L200.40 216.67 L199.91 217.07 L199.43 217.47 L198.94 217.88 L198.47 218.29 L197.99 218.71 L197.52 219.14 L197.06 219.58 L196.60 220.02 L196.14 220.46 L195.68 220.92 L195.23 221.38 L194.78 221.84 L194.34 222.31 L193.90 222.79 L193.47 223.28 L193.04 223.77 L192.61 224.26 L192.19 224.77 L191.78 225.27 L191.36 225.79 L190.96 226.31 L190.56 226.83 L190.16 227.37 L189.77 227.90 L189.38 228.45 L189.00 229.00 L188.62 229.55 L188.25 230.11 L187.88 230.68 L187.52 231.25 L187.17 231.82 L186.82 232.40 L186.47 232.99 L186.13 233.58 L185.80 234.18 L185.47 234.78 L185.15 235.39 L184.84 236.00 L184.53 236.62 L184.23 237.24 L183.93 237.87 L183.64 238.50 L183.35 239.14 L183.08 239.78 L182.81 240.42 L182.54 241.07 L182.28 241.73 L182.03 242.38 L181.79 243.05 L181.55 243.71 L181.32 244.38 L181.09 245.06 L180.87 245.74 L180.66 246.42 L180.46 247.11 L180.26 247.80 L180.07 248.49 L179.89 249.19 L179.72 249.89 L179.55 250.59 L179.39 251.30 L179.23 252.01 L179.09 252.72 L178.95 253.44 L178.82 254.16 L178.70 254.89 L178.58 255.61 L178.47 256.34 L178.37 257.07 L178.28 257.81 L178.20 258.54 L178.12 259.28 L178.05 260.02 L177.99 260.77 L177.94 261.51 L177.89 262.26 L177.85 263.01 L177.83 263.76 L177.81 264.51 L177.79 265.27 L177.79 266.03 L177.79 266.79 L177.80 267.55 L177.82 268.31 L177.85 269.07 L177.89 269.83 L177.93 270.60 L177.99 271.37 L178.05 272.13 L178.12 272.90 L178.20 273.67 L178.28 274.44 L178.38 275.21 L178.48 275.98 L178.59 276.75 L178.71 277.52 L178.84 278.29 L178.98 279.06 L179.13 279.83 L179.28 280.60 L179.44 281.37 L179.62 282.14 L179.80 282.91 L179.99 283.68 L180.18 284.45 L180.39 285.22 L180.60 285.99 L180.83 286.75 L181.06 287.52 L181.30 288.28 L181.55 289.05 L181.81 289.81 L182.07 290.57 L182.35 291.33 L182.63 292.09 L182.92 292.84 L183.23 293.60 L183.54 294.35 L183.85 295.10 L184.18 295.85 L184.51 296.59 L184.86 297.34 L185.21 298.08 L185.57 298.82 L185.94 299.55 L186.32 300.29 L186.70 301.02 L187.10 301.75 L187.50 302.47 L187.91 303.19 L188.33 303.91 L188.76 304.63 L189.20 305.34 L189.64 306.05 L190.09 306.76 L190.56 307.46 L191.03 308.16 L191.50 308.85 L191.99 309.54 L192.48 310.23 L192.98 310.91 L193.49 311.59 L194.01 312.26 L194.54 312.93 L195.07 313.60 L195.61 314.26 L196.16 314.91 L196.72 315.56 L197.29 316.21 L197.86 316.85 L198.44 317.49 L199.03 318.12 L199.62 318.75 L200.23 319.37 L200.84 319.98 L201.46 320.59 L202.08 321.20 L202.72 321.79 L203.36 322.39 L204.01 322.98 L204.66 323.56 L205.32 324.13 L205.99 324.70 L206.67 325.26 L207.35 325.82 L208.04 326.37 L208.74 326.92 L209.44 327.45 L210.15 327.98 L210.87 328.51 L211.59 329.03 L212.32 329.54 L213.06 330.04 L213.80 330.54 L214.55 331.03 L215.31 331.51 L216.07 331.98 L216.84 332.45 L217.61 332.91 L218.39 333.37 L219.18 333.81 L219.97 334.25 L220.77 334.68 L221.57 335.10 L222.38 335.52 L223.19 335.93 L224.01 336.33 L224.84 336.72 L225.67 337.10 L226.51 337.48 L227.35 337.84 L228.19 338.20 L229.04 338.55 L229.90 338.89 L230.76 339.23 L231.62 339.55 L232.49 339.87 L233.37 340.18 L234.25 340.47 L235.13 340.76 L236.02 341.05 L236.91 341.32 L237.80 341.58 L238.70 341.84 L239.61 342.08 L240.51 342.32 L241.43 342.55 L242.34 342.76 L243.26 342.97 L244.18 343.17 L245.10 343.36 L246.03 343.54 L246.96 343.72 L247.90 343.88 L248.83 344.03 L249.78 344.17 L250.72 344.31 L251.66 344.43 L252.61 344.54 L253.56 344.65 L254.51 344.74 L255.47 344.83 L256.43 344.90 L257.39 344.97 L258.35 345.02 L259.31 345.07 L260.27 345.10 L261.24 345.13 L262.21 345.15 L263.18 345.15 L264.15 345.15 L265.12 345.13 L266.09 345.11 L267.07 345.07 L268.04 345.03 L269.02 344.97 L269.99 344.91 L270.97 344.83 L271.94 344.74 L272.92 344.65 L273.90 344.54 L274.88 344.42 L275.86 344.30 L276.83 344.16 L277.81 344.01 L278.79 343.85 L279.76 343.69 L280.74 343.51 L281.72 343.32 L282.69 343.12 L283.66 342.91 L284.64 342.69 L285.61 342.46 L286.58 342.22 L287.55 341.97 L288.52 341.71 L289.48 341.44 L290.45 341.15 L291.41 340.86 L292.37 340.56 L293.33 340.25 L294.29 339.92 L295.24 339.59 L296.19 339.25 L297.14 338.89 L298.09 338.53 L299.03 338.15 L299.98 337.77 L300.91 337.38 L301.85 336.97 L302.78 336.56 L303.71 336.13 L304.64 335.70 L305.56 335.25 L306.48 334.79 L307.40 334.33 L308.31 333.85 L309.22 333.37 L310.12 332.87 L311.02 332.37 L311.92 331.85 L312.81 331.33 L313.70 330.79 L314.58 330.25 L315.46 329.70 L316.33 329.13 L317.20 328.56 L318.06 327.98 L318.92 327.39 L319.77 326.78 L320.62 326.17 L321.47 325.55 L322.30 324.92 L323.13 324.28 L323.96 323.63 L324.78 322.98 L325.59 322.31 L326.40 321.63 L327.20 320.95 L328.00 320.25 L328.79 319.55 L329.57 318.84 L330.35 318.12 L331.12 317.39 L331.88 316.65 L332.64 315.90 L333.39 315.15 L334.13 314.38 L334.87 313.61 L335.60 312.83 L336.32 312.04 L337.03 311.24 L337.74 310.44 L338.44 309.62 L339.13 308.80 L339.82 307.97 L340.49 307.14 L341.16 306.29 L341.82 305.44 L342.47 304.58 L343.12 303.71 L343.75 302.83 L344.38 301.95 L345.00 301.06 L345.61 300.16 L346.21 299.26 L346.80 298.34 L347.39 297.43 L347.96 296.50 L348.53 295.57 L349.09 294.63 L349.63 293.68 L350.17 292.73 L350.70 291.77 L351.22 290.80 L351.73 289.83 L352.24 288.85 L352.73 287.87 L353.21 286.88 L353.68 285.88 L354.15 284.88 L354.60 283.87 L355.04 282.86 L355.48 281.84 L355.90 280.82 L356.31 279.79 L356.72 278.75 L357.11 277.71 L357.49 276.67 L357.87 275.62 L358.23 274.56 L358.58 273.50 L358.92 272.44 L359.25 271.37 L359.57 270.30 L359.88 269.22 L360.18 268.14 L360.47 267.06 L360.74 265.97 L361.01 264.87 L361.26 263.78 L361.51 262.68 L361.74 261.57 L361.96 260.46 L362.17 259.35 L362.37 258.24 L362.56 257.12 L362.74 256.00 L362.91 254.88 L363.06 253.75 L363.20 252.63 L363.33 251.49 L363.46 250.36 L363.56 249.23 L363.66 248.09 L363.75 246.95 L363.82 245.81 L363.88 244.66 L363.93 243.52 L363.97 242.37 L364.00 241.23 L364.02 240.08 L364.02 238.93 L364.01 237.78 L364.00 236.62 L363.96 235.47 L363.92 234.32 L363.87 233.16 L363.80 232.01 L363.72 230.85 L363.63 229.70 L363.53 228.54 L363.42 227.39 L363.29 226.23 L363.15 225.08 L363.00 223.92 L362.84 222.77 L362.67 221.61 L362.48 220.46 L362.28 219.31 L362.07 218.16 L361.85 217.01 L361.62 215.86 L361.38 214.71 L361.12 213.57 L360.85 212.43 L360.57 211.28 L360.28 210.14 L359.97 209.01 L359.66 207.87 L359.33 206.74 L358.99 205.61 L358.64 204.48 L358.27 203.35 L357.90 202.23 L357.51 201.11 L357.11 199.99 L356.70 198.88 L356.28 197.77 L355.84 196.66 L355.40 195.55 L354.94 194.45 L354.47 193.36 L353.99 192.27 L353.50 191.18 L353.00 190.09 L352.48 189.01 L351.96 187.94 L351.42 186.87 L350.87 185.80 L350.31 184.74 L349.74 183.68 L349.15 182.63 L348.56 181.58 L347.96 180.54 L347.34 179.50 L346.71 178.47 L346.07 177.45 L345.42 176.43 L344.76 175.41 L344.09 174.40 L343.41 173.40 L342.72 172.41 L342.02 171.42 L341.30 170.43 L340.58 169.46 L339.84 168.49 L339.10 167.52 L338.34 166.57 L337.58 165.62 L336.80 164.68 L336.02 163.74 L335.22 162.81 L334.41 161.89 L333.60 160.98 L332.77 160.07 L331.93 159.18 L331.09 158.29 L330.23 157.40 L329.37 156.53 L328.49 155.66 L327.61 154.81 L326.71 153.96 L325.81 153.12 L324.90 152.28 L323.98 151.46 L323.05 150.65 L322.11 149.84 L321.16 149.04 L320.20 148.26 L319.24 147.48 L318.26 146.71 L317.28 145.95 L316.29 145.20 L315.29 144.45 L314.28 143.72 L313.27 143.00 L312.24 142.29 L311.21 141.59 L310.17 140.89 L309.12 140.21 L308.07 139.54 L307.00 138.88 L305.93 138.23 L304.86 137.59 L303.77 136.95 L302.68 136.33 L301.58 135.73 L300.47 135.13 L299.36 134.54 L298.24 133.96 L297.11 133.40 L295.98 132.84 L294.84 132.30 L293.69 131.76 L292.54 131.24 L291.38 130.73 L290.22 130.23 L289.05 129.75 L287.87 129.27 L286.69 128.81 L285.50 128.36 L284.31 127.91 L283.11 127.49 L281.91 127.07 L280.70 126.66 L279.49 126.27 L278.27 125.89 L277.05 125.52 L275.82 125.16 L274.59 124.82 L273.36 124.49 L272.12 124.17 L270.87 123.86 L269.62 123.56 L268.37 123.28 L267.12 123.01 L265.86 122.75 L264.59 122.51 L263.33 122.28 L262.06 122.06 L260.79 121.85 L259.51 121.65 L258.23 121.47 L256.95 121.30 L255.67 121.15 L254.39 121.01 L253.10 120.88 L251.81 120.76 L250.52 120.66 L249.22 120.56 L247.93 120.49 L246.63 120.42 L245.33 120.37 L244.03 120.33 L242.73 120.31 L241.42 120.29 L240.12 120.29 L238.82 120.31 L237.51 120.34 L236.21 120.38 L234.90 120.43 L233.59 120.50 L232.29 120.58 L230.98 120.67 L229.67 120.78 L228.37 120.90 L227.06 121.03 L225.76 121.18 L224.45 121.34 L223.15 121.51 L221.85 121.70 L220.54 121.90 L219.24 122.11 L217.94 122.34 L216.65 122.58 L215.35 122.84 L214.06 123.10 L212.76 123.38 L211.47 123.67 L210.19 123.98 L208.90 124.30 L207.62 124.63 L206.34 124.98 L205.06 125.34 L203.78 125.71 L202.51 126.10 L201.24 126.50 L199.97 126.91 L198.71 127.33 L197.45 127.77 L196.20 128.22 L194.95 128.69 L193.70 129.16 L192.46 129.65 L191.22 130.16 L189.98 130.67 L188.75 131.20 L187.53 131.74 L186.30 132.29 L185.09 132.86 L183.88 133.44 L182.67 134.03 L181.47 134.64 L180.27 135.25 L179.08 135.88 L177.90 136.52 L176.72 137.18 L175.55 137.84 L174.38 138.52 L173.22 139.21 L172.07 139.92 L170.92 140.63 L169.78 141.36 L168.65 142.10 L167.52 142.85 L166.40 143.61 L165.29 144.38 L164.18 145.17 L163.08 145.97 L161.99 146.78 L160.91 147.60 L159.83 148.43 L158.76 149.27 L157.70 150.13 L156.65 151.00 L155.60 151.87 L154.57 152.76 L153.54 153.66 L152.52 154.57 L151.51 155.49 L150.51 156.42 L149.52 157.37 L148.53 158.32 L147.56 159.28 L146.59 160.26 L145.64 161.24 L144.69 162.23 L143.75 163.24 L142.83 164.25 L141.91 165.28 L141.00 166.31 L140.10 167.36 L139.21 168.41 L138.34 169.47 L137.47 170.55 L136.61 171.63 L135.76 172.72 L134.93 173.82 L134.10 174.93 L133.29 176.05 L132.48 177.17 L131.69 178.31 L130.91 179.46 L130.14 180.61 L129.38 181.77 L128.63 182.94 L127.89 184.12 L127.17 185.30 L126.45 186.50 L125.75 187.70 L125.06 188.91 L124.38 190.13 L123.72 191.35 L123.06 192.58 L122.42 193.82 L121.79 195.07 L121.17 196.32 L120.57 197.58 L119.97 198.85 L119.39 200.13 L118.82 201.41 L118.27 202.69 L117.73 203.99 L117.20 205.28 L116.68 206.59 L116.18 207.90 L115.68 209.22 L115.21 210.54 L114.74 211.87 L114.29 213.20 L113.85 214.54 L113.42 215.89 L113.01 217.23 L112.61 218.59 L112.23 219.95 L111.86 221.31 L111.50 222.68 L111.15 224.05 L110.82 225.42 L110.51 226.80 L110.20 228.19 L109.91 229.58 L109.64 230.97 L109.38 232.36 L109.13 233.76 L108.90 235.16 L108.68 236.57 L108.47 237.97 L108.28 239.38 L108.10 240.80 L107.94 242.21 L107.79 243.63 L107.65 245.05 L107.53 246.47 L107.43 247.89 L107.33 249.32 L107.26 250.75 L107.19 252.17 L107.15 253.60 L107.11 255.03 L107.09 256.47 L107.08 257.90 L107.09 259.33 L107.12 260.77 L107.15 262.20 L107.21 263.64 L107.27 265.07 L107.36 266.51 L107.45 267.94 L107.56 269.38 L107.69 270.81 L107.83 272.25 L107.98 273.68 L108.15 275.11 L108.33 276.54 L108.53 277.97 L108.74 279.40 L108.97 280.83 L109.21 282.26 L109.46 283.68 L109.73 285.10 L110.02 286.52 L110.32 287.94 L110.63 289.36 L110.96 290.77 L111.30 292.18 L111.66 293.59 L112.03 294.99 L112.41 296.39 L112.81 297.79 L113.23 299.19 L113.66 300.58 L114.10 301.97 L114.55 303.35 L115.03 304.73 L115.51 306.11 L116.01 307.48 L116.52 308.84 L117.05 310.21 L117.59 311.56 L118.15 312.92 L118.71 314.27 L119.30 315.61 L119.89 316.95 L120.50 318.28 L121.13 319.61 L121.77 320.93 L122.42 322.24 L123.08 323.55 L123.76 324.85 L124.45 326.15 L125.16 327.44 L125.88 328.73 L126.61 330.00 L127.35 331.27 L128.11 332.54 L128.88 333.79 L129.67 335.04 L130.46 336.28 L131.27 337.52 L132.10 338.75 L132.93 339.97 L133.78 341.18 L134.64 342.38 L135.51 343.57 L136.40 344.76 L137.30 345.94 L138.21 347.11 L139.13 348.27 L140.06 349.42 L141.01 350.57 L141.97 351.70 L142.94 352.83 L143.92 353.94 L144.91 355.05 L145.92 356.15 L146.94 357.23 L147.97 358.31 L149.00 359.38 L150.06 360.44 L151.12 361.48 L152.19 362.52 L153.27 363.55 L154.37 364.56 L155.47 365.57 L156.59 366.56 L157.72 367.55 L158.85 368.52 L160.00 369.48 L161.16 370.44 L162.32 371.38 L163.50 372.30 L164.69 373.22 L165.88 374.13 L167.09 375.02 L168.31 375.90 L169.53 376.77 L170.77 377.63 L172.01 378.48 L173.26 379.31 L174.53 380.13 L175.80 380.94 L177.07 381.74 L178.36 382.52 L179.66 383.29 L180.96 384.05 L182.28 384.80 L183.60 385.53 L184.92 386.25 L186.26 386.96 L187.61 387.65 L188.96 388.33 L190.32 389.00 L191.68 389.65 L193.06 390.30 L194.44 390.92 L195.82 391.54 L197.22 392.13 L198.62 392.72 L200.02 393.29 L201.44 393.85 L202.86 394.39 L204.28 394.92 L205.71 395.44 L207.15 395.94 L208.59 396.43 L210.04 396.90 L211.50 397.36 L212.96 397.80 L214.42 398.23 L215.89 398.65 L217.36 399.05 L218.84 399.43 L220.32 399.80 L221.81 400.16 L223.30 400.50 L224.80 400.83 L226.30 401.14 L227.80 401.44 L229.30 401.72 L230.81 401.98 L232.33 402.23 L233.84 402.47 L235.36 402.69 L236.88 402.90 L238.41 403.09 L239.94 403.26 L241.46 403.42 L243.00 403.57 L244.53 403.70 L246.07 403.81 L247.60 403.91 L249.14 403.99 L250.68 404.06 L252.22 404.11 L253.77 404.15 L255.31 404.17 L256.85 404.18 L258.40 404.17 L259.94 404.14 L261.49 404.10 L263.04 404.04 L264.58 403.97 L266.13 403.88 L267.67 403.78 L269.22 403.66 L270.76 403.53 L272.31 403.38 L273.85 403.21 L275.39 403.03 L276.93 402.83 L278.47 402.62 L280.01 402.39 L281.54 402.15 L283.08 401.89 L284.61 401.61 L286.14 401.32 L287.67 401.02 L289.19 400.70 L290.71 400.36 L292.23 400.01 L293.75 399.64 L295.26 399.26 L296.77 398.86 L298.28 398.45 L299.78 398.02 L301.28 397.57 L302.77 397.11 L304.26 396.64 L305.75 396.15 L307.23 395.64 L308.71 395.12 L310.18 394.59 L311.65 394.04 L313.12 393.47 L314.57 392.90 L316.03 392.30 L317.47 391.69 L318.91 391.07 L320.35 390.43 L321.78 389.77 L323.20 389.11 L324.62 388.42 L326.03 387.73 L327.44 387.01 L328.84 386.29 L330.23 385.55 L331.61 384.79 L332.99 384.02 L334.36 383.24 L335.72 382.44 L337.08 381.63 L338.42 380.81 L339.76 379.97 L341.09 379.11 L342.42 378.25 L343.73 377.37 L345.04 376.48 L346.34 375.57 L347.63 374.65 L348.91 373.71 L350.18 372.77 L351.44 371.81 L352.70 370.84 L353.94 369.85 L355.17 368.85 L356.40 367.84 L357.61 366.82 L358.82 365.78 L360.02 364.73 L361.20 363.67 L362.38 362.59 L363.54 361.51 L364.69 360.41 L365.84 359.30 L366.97 358.18 L368.09 357.04 L369.20 355.90 L370.30 354.74 L371.39 353.57 L372.47 352.39 L373.53 351.20 L374.59 350.00 L375.63 348.79 L376.66 347.57 L377.68 346.33 L378.68 345.09 L379.68 343.83 L380.66 342.56 L381.63 341.29 L382.58 340.00 L383.53 338.70 L384.46 337.40 L385.38 336.08 L386.28 334.76 L387.18 333.42 L388.06 332.07 L388.92 330.72 L389.77 329.36 L390.61 327.98 L391.44 326.60 L392.25 325.21 L393.05 323.82 L393.84 322.41 L394.61 320.99 L395.36 319.57 L396.11 318.14 L396.83 316.70 L397.55 315.25 L398.25 313.80 L398.94 312.33 L399.61 310.86 L400.26 309.39 L400.91 307.90 L401.53 306.41 L402.15 304.91 L402.74 303.41 L403.33 301.90 L403.89 300.38 L404.45 298.86 L404.98 297.33 L405.51 295.79 L406.01 294.25 L406.51 292.70 L406.98 291.15 L407.44 289.59 L407.89 288.03 L408.32 286.46 L408.73 284.89 L409.13 283.31 L409.51 281.73 L409.88 280.15 L410.23 278.56 L410.57 276.96 L410.89 275.36 L411.19 273.76 L411.48 272.16 L411.75 270.55 L412.00 268.94 L412.24 267.32 L412.47 265.71 L412.67 264.09 L412.86 262.46 L413.04 260.84 L413.20 259.21 L413.34 257.58 L413.46 255.95 L413.57 254.31 L413.67 252.68 L413.74 251.04 L413.80 249.41 L413.85 247.77 L413.87 246.13 L413.88 244.49 L413.88 242.85 L413.86 241.20 L413.82 239.56 L413.76 237.92 L413.69 236.28 L413.60 234.64 L413.50 233.00 L413.38 231.36 L413.24 229.72 L413.08 228.08 L412.91 226.44 L412.73 224.80 L412.52 223.17 L412.30 221.53 L412.06 219.90 L411.81 218.27 L411.54 216.64 L411.25 215.02 L410.95 213.39 L410.63 211.77 L410.30 210.16 L409.95 208.54 L409.58 206.93 L409.19 205.32 L408.79 203.71 L408.38 202.11 L407.94 200.51 L407.49 198.92 L407.03 197.33 L406.55 195.74 L406.05 194.16 L405.54 192.58 L405.01 191.01 L404.46 189.44 L403.90 187.88 L403.32 186.33 L402.73 184.77 L402.12 183.23 L401.49 181.69 L400.85 180.15 L400.20 178.62 L399.53 177.10 L398.84 175.58 L398.14 174.07 L397.42 172.57 L396.69 171.07 L395.94 169.58 L395.18 168.10 L394.40 166.63 L393.60 165.16 L392.80 163.70 L391.97 162.25 L391.13 160.80 L390.28 159.36 L389.41 157.94 L388.53 156.52 L387.63 155.10 L386.72 153.70 L385.80 152.31 L384.86 150.92 L383.91 149.54 L382.94 148.18 L381.96 146.82 L380.96 145.47 L379.95 144.13 L378.93 142.80 L377.89 141.48 L376.84 140.18 L375.78 138.88 L374.70 137.59 L373.61 136.31 L372.50 135.04 L371.39 133.79 L370.26 132.54 L369.12 131.31 L367.96 130.08 L366.79 128.87 L365.61 127.67 L364.42 126.48 L363.22 125.30 L362.00 124.14 L360.77 122.98 L359.53 121.84 L358.28 120.71 L357.01 119.59 L355.74 118.49 L354.45 117.39 L353.15 116.31 L351.84 115.25 L350.52 114.19 L349.19 113.15 L347.84 112.12 L346.49 111.11 L345.13 110.10 L343.75 109.12 L342.37 108.14 L340.97 107.18 L339.57 106.23 L338.15 105.30 L336.73 104.38 L335.30 103.47 L333.85 102.58 L332.40 101.71 L330.94 100.84 L329.47 99.99 L327.99 99.16 L326.50 98.34 L325.00 97.54 L323.50 96.75 L321.98 95.97 L320.46 95.21 L318.93 94.47 L317.39 93.74 L315.84 93.02 L314.29 92.32 L312.73 91.64 L311.16 90.97 L309.59 90.32 L308.01 89.68 L306.42 89.06 L304.82 88.46 L303.22 87.87 L301.61 87.30 L300.00 86.74 L298.38 86.20 L296.75 85.67 L295.12 85.16 L293.48 84.67 L291.84 84.19 L290.19 83.73 L288.54 83.29 L286.88 82.86 L285.22 82.45 L283.55 82.06 L281.88 81.68 L280.20 81.32 L278.52 80.97 L276.84 80.65 L275.15 80.34 L273.46 80.04 L271.77 79.77 L270.07 79.51 L268.37 79.26 L266.66 79.04 L264.96 78.83 L263.25 78.64 L261.54 78.46 L259.83 78.31 L258.11 78.16 L256.39 78.04 L254.68 77.94 L252.96 77.85 L251.23 77.78 L249.51 77.72 L247.79 77.68 L246.06 77.66 L244.34 77.66 L242.61 77.68 L240.89 77.71 L239.16 77.76 L237.44 77.83 L235.71 77.91 L233.99 78.01 L232.26 78.13 L230.54 78.27 L228.82 78.42 L227.10 78.59 L225.38 78.78 L223.66 78.99 L221.94 79.21 L220.23 79.45 L218.51 79.71 L216.80 79.98 L215.09 80.27 L213.39 80.58 L211.68 80.91 L209.98 81.25 L208.29 81.61 L206.59 81.99 L204.90 82.38 L203.21 82.80 L201.53 83.22 L199.85 83.67 L198.18 84.13 L196.50 84.61 L194.84 85.11 L193.18 85.62 L191.52 86.15 L189.87 86.70 L188.22 87.26 L186.58 87.84 L184.94 88.44 L183.31 89.05 L181.68 89.68 L180.06 90.33 L178.45 90.99 L176.84 91.67 L175.24 92.37 L173.65 93.08 L172.06 93.81 L170.48 94.55 L168.91 95.31 L167.34 96.09 L165.79 96.88 L164.23 97.69 L162.69 98.51 L161.16 99.35 L159.63 100.20 L158.11 101.07 L156.60 101.96 L155.10 102.86 L153.61 103.78 L152.12 104.71 L150.65 105.65 L149.18 106.62 L147.72 107.59 L146.28 108.58 L144.84 109.59 L143.41 110.61 L141.99 111.64 L140.58 112.69 L139.19 113.76 L137.80 114.84 L136.42 115.93 L135.06 117.04 L133.70 118.16 L132.36 119.29 L131.02 120.44 L129.70 121.60 L128.39 122.77 L127.09 123.96 L125.80 125.16 L124.53 126.38 L123.26 127.61 L122.01 128.85 L120.77 130.10 L119.54 131.37 L118.33 132.65 L117.13 133.94 L115.94 135.24 L114.76 136.56 L113.60 137.89 L112.45 139.23 L111.31 140.58 L110.18 141.94 L109.07 143.32 L107.98 144.71 L106.89 146.10 L105.82 147.51 L104.77 148.93 L103.72 150.36 L102.70 151.81 L101.68 153.26 L100.68 154.72 L99.70 156.19 L98.73 157.68 L97.77 159.17 L96.83 160.67 L95.91 162.19 L95.00 163.71 L94.10 165.24 L93.22 166.78 L92.35 168.34 L91.50 169.89 L90.67 171.46 L89.85 173.04 L89.05 174.63 L88.26 176.22 L87.49 177.82 L86.73 179.43 L85.99 181.05 L85.27 182.68 L84.56 184.31 L83.87 185.95 L83.19 187.60 L82.54 189.26 L81.89 190.92 L81.27 192.59 L80.66 194.26 L80.07 195.95 L79.49 197.64 L78.93 199.33 L78.39 201.03 L77.87 202.74 L77.36 204.45 L76.87 206.17 L76.39 207.89 L75.94 209.62 L75.50 211.35 L75.07 213.09 L74.67 214.83 L74.28 216.58 L73.91 218.33 L73.56 220.08 L73.23 221.84 L72.91 223.60 L72.61 225.37 L72.33 227.14 L72.06 228.91 L71.82 230.69 L71.59 232.47 L71.38 234.25 L71.18 236.03 L71.01 237.82 L70.85 239.60 L70.71 241.39 L70.59 243.19 L70.48 244.98 L70.40 246.77 L70.33 248.57 L70.28 250.37 L70.25 252.16 L70.24 253.96 L70.24 255.76 L70.26 257.56 L70.30 259.36 L70.36 261.16 L70.44 262.96 L70.53 264.76 L70.64 266.55 L70.77 268.35 L70.92 270.15 L71.09 271.94 L71.27 273.74 L71.48 275.53 L71.70 277.32 L71.94 279.11 L72.19 280.89 L72.47 282.68 L72.76 284.46 L73.07 286.24 L73.40 288.02 L73.75 289.79 L74.11 291.56 L74.49 293.33 L74.89 295.09 L75.31 296.85 L75.74 298.61 L76.20 300.36 L76.67 302.11 L77.16 303.85 L77.66 305.59 L78.19 307.33 L78.73 309.06 L79.28 310.78 L79.86 312.50 L80.45 314.21 L81.06 315.92 L81.69 317.62 L82.34 319.32 L83.00 321.01 L83.68 322.69 L84.37 324.37 L85.09 326.04 L85.81 327.70 L86.56 329.36 L87.32 331.01 L88.10 332.65 L88.90 334.29 L89.71 335.91 L90.54 337.53 L91.39 339.14 L92.25 340.75 L93.13 342.34 L94.03 343.93 L94.94 345.51 L95.86 347.07 L96.81 348.63 L97.76 350.18 L98.74 351.73 L99.73 353.26 L100.73 354.78 L101.75 356.29 L102.79 357.79 L103.84 359.28 L104.91 360.77 L105.99 362.24 L107.09 363.70 L108.20 365.15 L109.32 366.59 L110.46 368.02 L111.62 369.43 L112.79 370.84 L113.97 372.23 L115.17 373.62 L116.38 374.99 L117.61 376.35 L118.85 377.69 L120.10 379.03 L121.37 380.35 L122.65 381.66 L123.95 382.96 L125.25 384.24 L126.57 385.51 L127.91 386.77 L129.25 388.02 L130.61 389.25 L131.98 390.47 L133.37 391.67 L134.76 392.86 L136.17 394.04 L137.59 395.21 L139.03 396.36 L140.47 397.49 L141.93 398.61 L143.39 399.72 L144.87 400.81 L146.36 401.89 L147.86 402.95 L149.38 404.00 L150.90 405.03 L152.43 406.05 L153.98 407.06 L155.53 408.04 L157.09 409.02 L158.67 409.97 L160.25 410.91 L161.85 411.84 L163.45 412.75 L165.06 413.64 L166.69 414.52 L168.32 415.38 L169.96 416.23 L171.61 417.06 L173.26 417.87 L174.93 418.67 L176.60 419.45 L178.29 420.21 L179.98 420.95 L181.67 421.68 L183.38 422.40 L185.09 423.09 L186.81 423.77 L188.54 424.43 L190.27 425.08 L192.02 425.70 L193.76 426.31 L195.52 426.90 L197.28 427.48 L199.04 428.04 L200.82 428.58 L202.59 429.10 L204.38 429.60 L206.17 430.09 L207.96 430.56 L209.76 431.01 L211.56 431.44 L213.37 431.85 L215.18 432.25 L217.00 432.63 L218.82 432.99 L220.65 433.33 L222.48 433.66 L224.31 433.96 L226.14 434.25 L227.98 434.52 L229.83 434.77 L231.67 435.00 L233.52 435.21 L235.37 435.41 L237.22 435.59 L239.07 435.74 L240.93 435.88 L242.79 436.01 L244.65 436.11 L246.51 436.19 L248.37 436.26 L250.23 436.30 L252.09 436.33 L253.96 436.34 L255.82 436.33 L257.69 436.30 L259.55 436.26 L261.42 436.19 L263.28 436.11 L265.14 436.00 L267.01 435.88 L268.87 435.74 L270.73 435.58 L272.59 435.40 L274.45 435.21 L276.30 434.99 L278.16 434.76 L280.01 434.51 L281.86 434.24 L283.71 433.95 L285.55 433.64 L287.40 433.31 L289.24 432.97 L291.07 432.60 L292.90 432.22 L294.73 431.82 L296.56 431.40 L298.38 430.97 L300.20 430.51 L302.01 430.04 L303.82 429.54 L305.63 429.03 L307.42 428.51 L309.22 427.96 L311.01 427.39 L312.79 426.81 L314.57 426.21 L316.34 425.59 L318.11 424.96 L319.87 424.30 L321.62 423.63 L323.37 422.94 L325.11 422.23 L326.85 421.51 L328.57 420.77 L330.29 420.01 L332.01 419.23 L333.71 418.44 L335.41 417.62 L337.10 416.80 L338.78 415.95 L340.45 415.09 L342.12 414.21 L343.78 413.31 L345.42 412.40 L347.06 411.47 L348.69 410.52 L350.31 409.56 L351.92 408.58 L353.52 407.58 L355.12 406.57 L356.70 405.55 L358.27 404.50 L359.83 403.44 L361.38 402.37 L362.92 401.28 L364.45 400.17 L365.97 399.05 L367.48 397.91 L368.98 396.76 L370.46 395.59 L371.94 394.40 L373.40 393.21 L374.85 391.99 L376.29 390.77 L377.72 389.52 L379.13 388.27 L380.53 387.00 L381.92 385.71 L383.30 384.41 L384.66 383.10 L386.01 381.77 L387.35 380.43 L388.68 379.07 L389.99 377.71 L391.28 376.32 L392.57 374.93 L393.84 373.52 L395.10 372.10 L396.34 370.67 L397.57 369.22 L398.78 367.76 L399.98 366.29 L401.16 364.81 L402.33 363.31 L403.49 361.81 L404.63 360.29 L405.76 358.76 L406.87 357.22 L407.96 355.66 L409.04 354.10 L410.10 352.52 L411.15 350.93 L412.19 349.34 L413.20 347.73 L414.20 346.11 L415.19 344.48 L416.16 342.84 L417.11 341.20 L418.04 339.54 L418.96 337.87 L419.87 336.19 L420.75 334.50 L421.62 332.81 L422.47 331.10 L423.31 329.39 L424.13 327.67 L424.93 325.94 L425.71 324.20 L426.48 322.45 L427.23 320.70 L427.96 318.93 L428.68 317.16 L429.37 315.39 L430.05 313.60 L430.71 311.81 L431.36 310.01 L431.98 308.20 L432.59 306.39 L433.18 304.57 L433.75 302.75 L434.30 300.92 L434.84 299.08 L435.35 297.24 L435.85 295.39 L436.33 293.54 L436.79 291.68 L437.24 289.82 L437.66 287.95 L438.06 286.08 L438.45 284.21 L438.82 282.33 L439.17 280.44 L439.50 278.55 L439.81 276.66 L440.10 274.77 L440.38 272.87 L440.63 270.97 L440.87 269.06 L441.08 267.16 L441.28 265.25 L441.46 263.34 L441.62 261.43 L441.76 259.51 L441.88 257.59 L441.98 255.68 L442.06 253.76 L442.13 251.84 L442.17 249.91 L442.20 247.99 L442.20 246.07 L442.19 244.15 L442.15 242.22 L442.10 240.30 L442.03 238.38 L441.94 236.46 L441.83 234.54 L441.70 232.61 L441.55 230.69 L441.38 228.78 L441.20 226.86 L440.99 224.94 L440.77 223.03 L440.52 221.12 L440.26 219.21 L439.97 217.30 L439.67 215.40 L439.35 213.50 L439.01 211.60 L438.65 209.70 L438.27 207.81 L437.88 205.92 L437.46 204.04 L437.02 202.16 L436.57 200.28 L436.10 198.41 L435.60 196.54 L435.09 194.68 L434.56 192.82 L434.02 190.96 L433.45 189.12 L432.86 187.27 L432.26 185.44 L431.64 183.61 L431.00 181.78 L430.34 179.96 L429.66 178.15 L428.97 176.34 L428.25 174.54 L427.52 172.75 L426.77 170.97 L426.00 169.19 L425.22 167.42 L424.41 165.65 L423.59 163.90 L422.75 162.15 L421.89 160.41 L421.02 158.68 L420.13 156.96 L419.22 155.25 L418.29 153.54 L417.35 151.85 L416.39 150.16 L415.41 148.48 L414.42 146.82 L413.40 145.16 L412.38 143.51 L411.33 141.88 L410.27 140.25 L409.19 138.63 L408.10 137.03 L406.99 135.43 L405.86 133.85 L404.72 132.27 L403.56 130.71 L402.39 129.16 L401.20 127.62 L399.99 126.09 L398.77 124.58 L397.54 123.08 L396.28 121.58 L395.02 120.11 L393.74 118.64 L392.44 117.19 L391.13 115.74 L389.80 114.32 L388.46 112.90 L387.11 111.50 L385.74 110.11 L384.36 108.74 L382.96 107.38 L381.55 106.03 L380.13 104.70 L378.69 103.38 L377.24 102.07 L375.77 100.78 L374.30 99.51 L372.81 98.24 L371.30 97.00 L369.79 95.77 L368.26 94.55 L366.72 93.35 L365.17 92.16 L363.60 90.99 L362.03 89.84 L360.44 88.70 L358.84 87.57 L357.23 86.47 L355.60 85.37 L353.97 84.30 L352.32 83.24 L350.67 82.19 L349.00 81.17 L347.32 80.16 L345.64 79.16 L343.94 78.19 L342.23 77.23 L340.52 76.29 L338.79 75.36 L337.05 74.45 L335.31 73.56 L333.55 72.69 L331.79 71.83 L330.02 70.99 L328.24 70.17 L326.45 69.37 L324.65 68.58 L322.84 67.81 L321.03 67.06 L319.21 66.33 L317.38 65.62 L315.54 64.92 L313.70 64.25 L311.85 63.59 L309.99 62.95 L308.13 62.33 L306.26 61.72 L304.38 61.14 L302.50 60.57 L300.61 60.03 L298.71 59.50 L296.81 58.99 L294.91 58.50 L293.00 58.03 L291.08 57.58 L289.16 57.14 L287.24 56.73 L285.31 56.34 L283.38 55.96 L281.44 55.61 L279.50 55.27 L277.56 54.95 L275.61 54.65 L273.66 54.38 L271.70 54.12 L269.75 53.88 L267.79 53.66 L265.83 53.46 L263.86 53.28 L261.90 53.12 L259.93 52.98 L257.96 52.86 L255.99 52.75 L254.02 52.67 L252.04 52.61 L250.07 52.57 L248.09 52.55 L246.12 52.54 L244.14 52.56 L242.17 52.60 L240.19 52.65 L238.22 52.73 L236.24 52.83 L234.27 52.94 L232.30 53.08 L230.33 53.23 L228.36 53.41 L226.39 53.60 L224.42 53.82 L222.46 54.05 L220.49 54.31 L218.53 54.58 L216.58 54.87 L214.62 55.19 L212.67 55.52 L210.72 55.87 L208.77 56.24 L206.83 56.63 L204.89 57.04 L202.96 57.48 L201.03 57.92 L199.10 58.39 L197.18 58.88 L195.26 59.39 L193.35 59.92 L191.44 60.46 L189.54 61.03 L187.64 61.61 L185.75 62.22 L183.87 62.84 L181.99 63.48 L180.12 64.14 L178.25 64.82 L176.39 65.52 L174.54 66.23 L172.69 66.97 L170.85 67.72 L169.02 68.50 L167.20 69.29 L165.38 70.10 L163.57 70.92 L161.77 71.77 L159.98 72.63 L158.20 73.51 L156.42 74.41 L154.66 75.33 L152.90 76.27 L151.15 77.22 L149.42 78.19 L147.69 79.18 L145.97 80.18 L144.26 81.21 L142.56 82.25 L140.87 83.30 L139.19 84.38 L137.52 85.47 L135.87 86.58 L134.22 87.70 L132.58 88.84 L130.96 90.00 L129.35 91.17 L127.75 92.37 L126.16 93.57 L124.58 94.79 L123.02 96.03 L121.46 97.29 L119.92 98.56 L118.40 99.84 L116.88 101.14 L115.38 102.46 L113.89 103.79 L112.41 105.14 L110.95 106.50 L109.50 107.88 L108.06 109.27 L106.64 110.67 L105.23 112.09 L103.84 113.52 L102.46 114.97 L101.10 116.43 L99.75 117.91 L98.41 119.40 L97.09 120.90 L95.78 122.42 L94.49 123.95 L93.21 125.49 L91.95 127.05 L90.71 128.62 L89.48 130.20 L88.26 131.79 L87.07 133.40 L85.88 135.01 L84.72 136.64 L83.57 138.29 L82.43 139.94 L81.32 141.60 L80.21 143.28 L79.13 144.97 L78.06 146.67 L77.01 148.38 L75.98 150.10 L74.96 151.83 L73.96 153.57 L72.98 155.32 L72.02 157.08 L71.07 158.85 L70.14 160.63 L69.23 162.42 L68.34 164.22 L67.46 166.03 L66.61 167.85 L65.77 169.67 L64.94 171.51 L64.14 173.35 L63.36 175.20 L62.59 177.06 L61.84 178.93 L61.12 180.81 L60.40 182.69 L59.71 184.58 L59.04 186.47 L58.39 188.38 L57.75 190.29 L57.14 192.21 L56.54 194.13 L55.96 196.06 L55.41 197.99 L54.87 199.94 L54.35 201.88 L53.85 203.83 L53.37 205.79 L52.91 207.75 L52.47 209.72 L52.04 211.69 L51.64 213.67 L51.26 215.65 L50.90 217.63 L50.56 219.62 L50.23 221.61 L49.93 223.61 L49.65 225.61 L49.39 227.61 L49.14 229.61 L48.92 231.62 L48.72 233.63 L48.54 235.64 L48.37 237.66 L48.23 239.67 L48.11 241.69 L48.01 243.71 L47.93 245.73 L47.86 247.75 L47.82 249.77 L47.80 251.79 L47.80 253.81 L47.82 255.83 L47.86 257.86 L47.92 259.88 L48.00 261.90 L48.10 263.92 L48.22 265.94 L48.36 267.96 L48.52 269.98 L48.71 272.00 L48.91 274.01 L49.13 276.03 L49.37 278.04 L49.63 280.05 L49.92 282.05 L50.22 284.06 L50.54 286.06 L50.88 288.06 L51.25 290.05 L51.63 292.04 L52.03 294.03 L52.45 296.01 L52.90 297.99 L53.36 299.97 L53.84 301.94 L54.34 303.91 L54.87 305.87 L55.41 307.83 L55.97 309.78 L56.55 311.72 L57.15 313.66 L57.77 315.60 L58.41 317.53 L59.07 319.45 L59.74 321.36 L60.44 323.27 L61.16 325.18 L61.89 327.07 L62.65 328.96 L63.42 330.84 L64.21 332.71 L65.02 334.58 L65.85 336.44 L66.70 338.28 L67.57 340.13 L68.45 341.96 L69.36 343.78 L70.28 345.60 L71.22 347.40 L72.18 349.20 L73.15 350.99 L74.15 352.76 L75.16 354.53 L76.19 356.29 L77.24 358.04 L78.31 359.77 L79.39 361.50 L80.49 363.22 L81.61 364.92 L82.74 366.61 L83.89 368.30 L85.06 369.97 L86.25 371.63 L87.45 373.28 L88.67 374.91 L89.91 376.54 L91.16 378.15 L92.43 379.75 L93.71 381.33 L95.01 382.91 L96.33 384.47 L97.66 386.02 L99.01 387.55 L100.37 389.08 L101.75 390.58 L103.14 392.08 L104.55 393.56 L105.97 395.03 L107.41 396.48 L108.86 397.92 L110.33 399.34 L111.81 400.75 L113.31 402.14 L114.82 403.52 L116.34 404.89 L117.88 406.24 L119.43 407.57 L121.00 408.89 L122.58 410.20 L124.17 411.48 L125.77 412.75 L127.39 414.01 L129.02 415.25 L130.66 416.47 L132.32 417.68 L133.99 418.87 L135.67 420.05 L137.36 421.20 L139.06 422.34 L140.77 423.47 L142.50 424.57 L144.24 425.66 L145.99 426.74 L147.74 427.79 L149.51 428.83 L151.29 429.85 L153.09 430.85 L154.89 431.83 L156.70 432.80 L158.52 433.75 L160.35 434.68 L162.19 435.59 L164.04 436.48 L165.89 437.36 L167.76 438.21 L169.64 439.05 L171.52 439.87 L173.41 440.67 L175.32 441.45 L177.22 442.21 L179.14 442.95 L181.06 443.68 L183.00 444.38 L184.93 445.07 L186.88 445.74 L188.83 446.38 L190.79 447.01 L192.76 447.62 L194.73 448.21 L196.71 448.77 L198.69 449.32 L200.68 449.85 L202.68 450.36 L204.68 450.85 L206.68 451.32 L208.69 451.77 L210.71 452.20 L212.72 452.61 L214.75 452.99 L216.78 453.36 L218.81 453.71 L220.84 454.04 L222.88 454.35 L224.92 454.63 L226.97 454.90 L229.01 455.15 L231.06 455.37 L233.12 455.58 L235.17 455.76 L237.23 455.93 L239.29 456.07 L241.35 456.19 L243.41 456.29 L245.47 456.38 L247.53 456.44 L249.60 456.48 L251.66 456.50 L253.73 456.50 L255.79 456.48 L257.86 456.43 L259.92 456.37 L261.99 456.29 L264.05 456.18 L266.12 456.06 L268.18 455.91 L270.24 455.75 L272.30 455.56 L274.36 455.35 L276.41 455.12 L278.47 454.87 L280.52 454.61 L282.56 454.32 L284.61 454.00 L286.65 453.67 L288.69 453.32 L290.73 452.95 L292.76 452.56 L294.79 452.15 L296.82 451.71 L298.84 451.26 L300.85 450.79 L302.87 450.29 L304.87 449.78 L306.87 449.24 L308.87 448.69 L310.86 448.12 L312.85 447.52 L314.83 446.91 L316.80 446.27 L318.77 445.62 L320.73 444.95 L322.69 444.25 L324.64 443.54 L326.58 442.81 L328.51 442.06 L330.44 441.29 L332.36 440.50 L334.27 439.69 L336.17 438.86 L338.06 438.01 L339.95 437.14 L341.83 436.26 L343.70 435.35 L345.56 434.43 L347.41 433.49 L349.25 432.52 L351.09 431.54 L352.91 430.55 L354.72 429.53 L356.52 428.50 L358.32 427.44 L360.10 426.37 L361.87 425.28 L363.63 424.18 L365.38 423.05 L367.12 421.91 L368.85 420.75 L370.57 419.58 L372.27 418.38 L373.96 417.17 L375.64 415.94 L377.31 414.70 L378.97 413.44 L380.61 412.16 L382.24 410.86 L383.86 409.55 L385.47 408.23 L387.06 406.88 L388.64 405.52 L390.20 404.15 L391.75 402.76 L393.29 401.35 L394.81 399.93 L396.32 398.49 L397.82 397.04 L399.30 395.57 L400.77 394.08 L402.22 392.59 L403.65 391.07 L405.08 389.55 L406.48 388.01 L407.87 386.45 L409.25 384.88 L410.61 383.30 L411.95 381.70 L413.28 380.09 L414.59 378.47 L415.89 376.83 L417.17 375.18 L418.43 373.51 L419.68 371.84 L420.91 370.15 L422.12 368.45 L423.32 366.74 L424.50 365.01 L425.66 363.27 L426.80 361.52 L427.93 359.76 L429.04 357.99 L430.13 356.21 L431.21 354.41 L432.26 352.61 L433.30 350.79 L434.32 348.97 L435.33 347.13 L436.31 345.28 L437.27 343.43 L438.22 341.56 L439.15 339.68 L440.06 337.80 L440.95 335.90 L441.82 334.00 L442.67 332.08 L443.51 330.16 L444.32 328.23 L445.12 326.29 L445.89 324.35 L446.65 322.39 L447.39 320.43 L448.10 318.46 L448.80 316.49 L449.48 314.50 L450.14 312.51 L450.78 310.51 L451.40 308.51 L451.99 306.50 L452.57 304.48 L453.13 302.46 L453.67 300.43 L454.19 298.40 L454.68 296.36 L455.16 294.32 L455.62 292.27 L456.05 290.21 L456.47 288.16 L456.86 286.09 L457.24 284.03 L457.59 281.96 L457.92 279.88 L458.24 277.80 L458.53 275.72 L458.80 273.64 L459.05 271.55 L459.28 269.46 L459.48 267.37 L459.67 265.28 L459.84 263.18 L459.98 261.09 L460.11 258.99 L460.21 256.89 L460.29 254.78 L460.35 252.68 L460.39 250.58 L460.41 248.47 L460.41 246.37 L460.39 244.26 L460.34 242.16 L460.28 240.06 L460.19 237.95 L460.09 235.85 L459.96 233.75 L459.81 231.65 L459.64 229.55 L459.45 227.45 L459.23 225.35 L459.00 223.26 L458.75 221.17 L458.47 219.08 L458.17 216.99 L457.86 214.91 L457.52 212.83 L457.16 210.75 L456.78 208.67 L456.38 206.60 L455.96 204.54 L455.52 202.47 L455.05 200.42 L454.57 198.36 L454.07 196.31 L453.54 194.27 L453.00 192.23 L452.43 190.20 L451.85 188.17 L451.24 186.15 L450.61 184.13 L449.97 182.12 L449.30 180.11 L448.61 178.12 L447.91 176.13 L447.18 174.14 L446.43 172.17 L445.67 170.20 L444.88 168.24 L444.07 166.28 L443.25 164.34 L442.40 162.40 L441.54 160.47 L440.65 158.55 L439.75 156.63 L438.83 154.73 L437.89 152.84 L436.93 150.95 L435.95 149.08 L434.95 147.21 L433.93 145.36 L432.90 143.51 L431.84 141.67 L430.77 139.85 L429.68 138.04 L428.57 136.23 L427.44 134.44 L426.30 132.66 L425.13 130.89 L423.95 129.13 L422.75 127.38 L421.54 125.65 L420.30 123.92 L419.05 122.21 L417.79 120.52 L416.50 118.83 L415.20 117.16 L413.88 115.50 L412.54 113.85 L411.19 112.22 L409.82 110.60 L408.44 108.99 L407.04 107.40 L405.62 105.82 L404.19 104.26 L402.74 102.70 L401.27 101.17 L399.79 99.65 L398.30 98.14 L396.79 96.65 L395.26 95.17 L393.72 93.71 L392.17 92.26 L390.60 90.83 L389.02 89.42 L387.42 88.02 L385.81 86.64 L384.18 85.27 L382.54 83.92 L380.89 82.58 L379.22 81.26 L377.54 79.96 L375.85 78.68 L374.14 77.41 L372.42 76.16 L370.69 74.92 L368.94 73.71 L367.19 72.51 L365.42 71.32 L363.64 70.16 L361.85 69.01 L360.04 67.89 L358.23 66.77 L356.40 65.68 L354.56 64.61 L352.72 63.55 L350.86 62.51 L348.99 61.49 L347.11 60.49 L345.22 59.51 L343.32 58.55 L341.41 57.61 L339.49 56.68 L337.56 55.78 L335.62 54.89 L333.68 54.02 L331.72 53.18 L329.76 52.35 L327.78 51.54 L325.80 50.75 L323.82 49.98 L321.82 49.23 L319.82 48.50 L317.80 47.79 L315.79 47.10 L313.76 46.44 L311.73 45.79 L309.69 45.16 L307.64 44.55 L305.59 43.96 L303.53 43.40 L301.47 42.85 L299.40 42.32 L297.33 41.82 L295.25 41.33 L293.16 40.87 L291.07 40.43 L288.98 40.01 L286.88 39.60 L284.78 39.22 L282.67 38.87 L280.56 38.53 L278.45 38.21 L276.33 37.92 L274.21 37.64 L272.09 37.39 L269.97 37.15 L267.84 36.94 L265.71 36.75 L263.58 36.59 L261.44 36.44 L259.31 36.31 L257.17 36.21 L255.03 36.13 L252.90 36.06 L250.76 36.02 L248.62 36.01 L246.48 36.01 L244.34 36.03 L242.20 36.08 L240.06 36.15 L237.92 36.23 L235.78 36.34 L233.64 36.47 L231.51 36.63 L229.37 36.80 L227.24 37.00 L225.11 37.21 L222.98 37.45 L220.85 37.71 L218.72 37.99 L216.60 38.29 L214.48 38.62 L212.37 38.96 L210.26 39.33 L208.15 39.71 L206.04 40.12 L203.94 40.55 L201.84 41.00 L199.75 41.47 L197.66 41.96 L195.58 42.48 L193.50 43.01 L191.43 43.56 L189.36 44.14 L187.30 44.74 L185.24 45.35 L183.19 45.99 L181.15 46.65 L179.11 47.33 L177.08 48.03 L175.06 48.75 L173.04 49.48 L171.03 50.24 L169.03 51.02 L167.04 51.82 L165.05 52.64 L163.07 53.48 L161.10 54.34 L159.14 55.22 L157.19 56.12 L155.25 57.04 L153.31 57.98 L151.39 58.94 L149.47 59.91 L147.57 60.91 L145.67 61.92 L143.78 62.96 L141.91 64.01 L140.04 65.08 L138.19 66.17 L136.34 67.28 L134.51 68.41 L132.69 69.56 L130.88 70.72 L129.08 71.90 L127.29 73.11 L125.52 74.32 L123.76 75.56 L122.01 76.81 L120.27 78.09 L118.54 79.38 L116.83 80.68 L115.13 82.01 L113.44 83.35 L111.77 84.70 L110.11 86.08 L108.46 87.47 L106.83 88.88 L105.21 90.30 L103.61 91.74 L102.02 93.20 L100.45 94.67 L98.88 96.16 L97.34 97.66 L95.81 99.18 L94.29 100.72 L92.79 102.27 L91.31 103.83 L89.84 105.41 L88.39 107.01 L86.95 108.62 L85.53 110.24 L84.12 111.88 L82.73 113.53 L81.36 115.20 L80.00 116.88 L78.66 118.57 L77.34 120.28 L76.04 122.00 L74.75 123.74 L73.48 125.48 L72.22 127.24 L70.99 129.02 L69.77 130.80 L68.57 132.60 L67.39 134.41 L66.22 136.23 L65.08 138.06 L63.95 139.90 L62.84 141.76 L61.75 143.63 L60.68 145.50 L59.62 147.39 L58.59 149.29 L57.57 151.20 L56.58 153.12 L55.60 155.05 L54.64 156.99 L53.70 158.94 L52.78 160.90 L51.88 162.87 L51.00 164.85 L50.14 166.83 L49.30 168.83 L48.48 170.83 L47.68 172.84 L46.90 174.86 L46.14 176.89 L45.40 178.93 L44.68 180.97 L43.98 183.02 L43.30 185.08 L42.64 187.14 L42.00 189.21 L41.39 191.29 L40.79 193.37 L40.21 195.46 L39.66 197.56 L39.13 199.66 L38.61 201.77 L38.12 203.88 L37.65 206.00 L37.20 208.12 L36.77 210.24 L36.37 212.37 L35.98 214.51 L35.62 216.65 L35.27 218.79 L34.95 220.94 L34.65 223.09 L34.37 225.24 L34.12 227.39 L33.88 229.55 L33.67 231.71 L33.48 233.88 L33.31 236.04 L33.16 238.21 L33.03 240.37 L32.92 242.54 L32.84 244.71 L32.78 246.89 L32.74 249.06 L32.72 251.23 L32.72 253.40 L32.75 255.58 L32.79 257.75 L32.86 259.92 L32.95 262.09 L33.06 264.27 L33.20 266.44 L33.35 268.60 L33.53 270.77 L33.73 272.94 L33.95 275.10 L34.19 277.26 L34.45 279.42 L34.74 281.58 L35.05 283.73 L35.38 285.88 L35.73 288.03 L36.10 290.18 L36.49 292.32 L36.90 294.46 L37.34 296.59 L37.80 298.72 L38.28 300.84 L38.78 302.96 L39.30 305.08 L39.84 307.18 L40.40 309.29 L40.99 311.39 L41.59 313.48 L42.22 315.57 L42.86 317.65 L43.53 319.72 L44.22 321.79 L44.93 323.85 L45.66 325.90 L46.41 327.95 L47.18 329.99 L47.98 332.02 L48.79 334.05 L49.62 336.06 L50.47 338.07 L51.35 340.07 L52.24 342.06 L53.15 344.04 L54.08 346.01 L55.04 347.97 L56.01 349.93 L57.00 351.87 L58.01 353.81 L59.04 355.73 L60.09 357.64 L61.16 359.55 L62.25 361.44 L63.36 363.32 L64.48 365.19 L65.63 367.05 L66.79 368.90 L67.97 370.74 L69.17 372.56 L70.39 374.38 L71.63 376.18 L72.88 377.97 L74.16 379.74 L75.45 381.51 L76.75 383.26 L78.08 385.00 L79.42 386.72 L80.78 388.43 L82.16 390.13 L83.56 391.81 L84.97 393.48 L86.40 395.14 L87.84 396.78 L89.30 398.41 L90.78 400.02 L92.28 401.62 L93.79 403.20 L95.31 404.77 L96.86 406.32 L98.41 407.86 L99.99 409.38 L101.57 410.89 L103.18 412.38 L104.80 413.85 L106.43 415.31 L108.08 416.75 L109.74 418.18 L111.42 419.59 L113.11 420.98 L114.81 422.36 L116.53 423.71 L118.26 425.06 L120.01 426.38 L121.77 427.69 L123.54 428.98 L125.32 430.25 L127.12 431.50 L128.93 432.74 L130.76 433.95 L132.59 435.15 L134.44 436.33 L136.30 437.50 L138.17 438.64 L140.05 439.77 L141.94 440.87 L143.85 441.96 L145.77 443.03 L147.69 444.08 L149.63 445.11 L151.58 446.12 L153.53 447.11 L155.50 448.08 L157.48 449.03 L159.47 449.97 L161.46 450.88 L163.47 451.77 L165.48 452.64 L167.51 453.50 L169.54 454.33 L171.58 455.14 L173.63 455.93 L175.69 456.70 L177.75 457.46 L179.82 458.19 L181.90 458.89 L183.99 459.58 L186.08 460.25 L188.18 460.90 L190.29 461.52 L192.40 462.13 L194.52 462.71 L196.65 463.27 L198.78 463.81 L200.91 464.33 L203.06 464.83 L205.20 465.31 L207.36 465.77 L209.51 466.20 L211.67 466.61 L213.84 467.00 L216.01 467.37 L218.18 467.72 L220.35 468.05 L222.53 468.35 L224.72 468.63 L226.90 468.89 L229.09 469.13 L231.28 469.35 L233.47 469.54 L235.67 469.71 L237.87 469.87 L240.06 469.99 L242.26 470.10 L244.47 470.19 L246.67 470.25 L248.87 470.29 L251.07 470.31 L253.28 470.31 L255.48 470.28 L257.68 470.23 L259.89 470.16 L262.09 470.07 L264.29 469.96 L266.49 469.82 L268.69 469.67 L270.89 469.49 L273.08 469.28 L275.27 469.06 L277.47 468.82 L279.66 468.55 L281.84 468.26 L284.03 467.95 L286.21 467.62 L288.38 467.26 L290.56 466.88 L292.73 466.49 L294.90 466.07 L297.06 465.62 L299.22 465.16 L301.37 464.67 L303.52 464.17 L305.66 463.64 L307.80 463.09 L309.93 462.52 L312.06 461.93 L314.18 461.31 L316.30 460.68 L318.41 460.02 L320.51 459.34 L322.60 458.65 L324.69 457.93 L326.77 457.19 L328.85 456.43 L330.92 455.64 L332.98 454.84 L335.03 454.02 L337.07 453.17 L339.10 452.31 L341.13 451.43 L343.15 450.52 L345.16 449.60 L347.15 448.65 L349.14 447.68 L351.12 446.70 L353.10 445.69 L355.06 444.67 L357.01 443.63 L358.95 442.56 L360.87 441.48 L362.79 440.38 L364.70 439.25 L366.60 438.11 L368.48 436.95 L370.35 435.77 L372.22 434.57 L374.07 433.36 L375.90 432.12 L377.73 430.87 L379.54 429.60 L381.34 428.31 L383.13 427.00 L384.90 425.67 L386.66 424.33 L388.41 422.97 L390.15 421.59 L391.87 420.19 L393.57 418.78 L395.27 417.35 L396.94 415.90 L398.61 414.44 L400.26 412.96 L401.89 411.46 L403.51 409.95 L405.11 408.41 L406.70 406.87 L408.28 405.31 L409.83 403.73 L411.38 402.13 L412.90 400.52 L414.41 398.90 L415.91 397.26 L417.38 395.61 L418.85 393.94 L420.29 392.25 L421.72 390.55 L423.13 388.84 L424.52 387.11 L425.90 385.37 L427.26 383.62 L428.60 381.85 L429.92 380.07 L431.23 378.27 L432.52 376.46 L433.79 374.64 L435.04 372.81 L436.27 370.96 L437.49 369.10 L438.68 367.23 L439.86 365.34 L441.02 363.45 L442.16 361.54 L443.28 359.62 L444.38 357.69 L445.47 355.75 L446.53 353.80 L447.57 351.84 L448.60 349.87 L449.60 347.88 L450.59 345.89 L451.55 343.89 L452.50 341.87 L453.42 339.85 L454.33 337.82 L455.21 335.78 L456.07 333.73 L456.92 331.67 L457.74 329.60 L458.54 327.53 L459.32 325.44 L460.08 323.35 L460.82 321.25 L461.54 319.15 L462.24 317.03 L462.92 314.91 L463.57 312.79 L464.20 310.65 L464.82 308.51 L465.41 306.36 L465.98 304.21 L466.53 302.05 L467.05 299.89 L467.56 297.72 L468.04 295.55 L468.50 293.37 L468.94 291.18 L469.36 288.99 L469.76 286.80 L470.13 284.61 L470.48 282.40 L470.81 280.20 L471.12 277.99 L471.41 275.78 L471.67 273.57 L471.91 271.35 L472.13 269.13 L472.33 266.91 L472.50 264.69 L472.66 262.47 L472.79 260.24 L472.90 258.01 L472.98 255.78 L473.05 253.55 L473.09 251.32 L473.11 249.09 L473.10 246.86 L473.08 244.63 L473.03 242.40 L472.96 240.17 L472.87 237.94 L472.75 235.71 L472.62 233.48 L472.46 231.25 L472.28 229.03 L472.07 226.80 L471.85 224.58 L471.60 222.36 L471.33 220.15 L471.03 217.93 L470.72 215.72 L470.38 213.51 L470.02 211.31 L469.64 209.11 L469.24 206.91 L468.81 204.72 L468.37 202.53 L467.90 200.34 L467.41 198.16 L466.89 195.99 L466.36 193.81 L465.80 191.65 L465.22 189.49 L464.62 187.34 L464.00 185.19 L463.36 183.05 L462.70 180.91 L462.01 178.78 L461.30 176.66 L460.58 174.54 L459.83 172.44 L459.06 170.34 L458.27 168.24 L457.45 166.16 L456.62 164.08 L455.77 162.01 L454.89 159.95 L454.00 157.90 L453.08 155.86 L452.14 153.83 L451.19 151.80 L450.21 149.79 L449.21 147.78 L448.20 145.79 L447.16 143.80 L446.10 141.83 L445.02 139.87 L443.93 137.91 L442.81 135.97 L441.68 134.04 L440.52 132.12 L439.35 130.21 L438.15 128.32 L436.94 126.43 L435.71 124.56 L434.46 122.70 L433.19 120.85 L431.90 119.02 L430.60 117.19 L429.27 115.38 L427.93 113.59 L426.57 111.80 L425.19 110.04 L423.80 108.28 L422.39 106.54 L420.96 104.81 L419.51 103.10 L418.04 101.40 L416.56 99.72 L415.06 98.05 L413.55 96.39 L412.01 94.75 L410.47 93.13 L408.90 91.52 L407.32 89.93 L405.72 88.35 L404.11 86.79 L402.48 85.24 L400.84 83.72 L399.18 82.20 L397.50 80.71 L395.81 79.23 L394.11 77.77 L392.39 76.32 L390.66 74.89 L388.91 73.48 L387.15 72.09 L385.37 70.71 L383.58 69.36 L381.78 68.02 L379.96 66.69 L378.13 65.39 L376.29 64.10 L374.43 62.84 L372.56 61.59 L370.68 60.36 L368.79 59.15 L366.88 57.96 L364.96 56.78 L363.03 55.63 L361.09 54.49 L359.14 53.38 L357.17 52.28 L355.20 51.21 L353.21 50.15 L351.22 49.11 L349.21 48.10 L347.19 47.10 L345.17 46.12 L343.13 45.17 L341.08 44.23 L339.03 43.32 L336.96 42.42 L334.89 41.55 L332.81 40.69 L330.71 39.86 L328.61 39.05 L326.51 38.26 L324.39 37.49 L322.27 36.74 L320.14 36.01 L318.00 35.31 L315.85 34.62 L313.70 33.96 L311.54 33.32 L309.37 32.70 L307.20 32.10 L305.02 31.52 L302.84 30.97 L300.65 30.43 L298.46 29.92 L296.26 29.43 L294.05 28.96 L291.84 28.52 L289.63 28.10 L287.41 27.70 L285.19 27.32 L282.96 26.96 L280.73 26.63 L278.50 26.31 L276.26 26.02 L274.02 25.76 L271.78 25.51 L269.54 25.29 L267.29 25.09 L265.04 24.91 L262.79 24.76 L260.54 24.62 L258.28 24.51 L256.03 24.43 L253.77 24.36 L251.52 24.32 L249.26 24.30 L247.00 24.30 L244.75 24.33 L242.49 24.37 L240.23 24.45 L237.98 24.54 L235.72 24.65 L233.47 24.79 L231.22 24.95 L228.96 25.14 L226.72 25.34 L224.47 25.57 L222.22 25.82 L219.98 26.09 L217.74 26.39 L215.50 26.71 L213.27 27.05 L211.04 27.41 L208.81 27.80 L206.59 28.20 L204.37 28.63 L202.16 29.09 L199.95 29.56 L197.74 30.06 L195.54 30.58 L193.34 31.12 L191.15 31.68 L188.97 32.26 L186.79 32.87 L184.62 33.50 L182.45 34.15 L180.29 34.82 L178.14 35.51 L175.99 36.22 L173.85 36.96 L171.72 37.72 L169.60 38.50 L167.48 39.30 L165.37 40.12 L163.27 40.96 L161.18 41.82 L159.10 42.71 L157.02 43.61 L154.96 44.54 L152.90 45.49 L150.85 46.45 L148.81 47.44 L146.79 48.45 L144.77 49.48 L142.76 50.53 L140.76 51.59 L138.78 52.68 L136.80 53.79 L134.84 54.92 L132.89 56.07 L130.94 57.24 L129.01 58.42 L127.10 59.63 L125.19 60.85 L123.30 62.10 L121.41 63.36 L119.55 64.65 L117.69 65.95 L115.85 67.27 L114.02 68.60 L112.20 69.96 L110.40 71.34 L108.61 72.73 L106.83 74.14 L105.07 75.57 L103.32 77.01 L101.59 78.48 L99.87 79.96 L98.17 81.46 L96.48 82.97 L94.81 84.51 L93.15 86.05 L91.51 87.62 L89.88 89.20 L88.27 90.80 L86.68 92.42 L85.10 94.05 L83.54 95.69 L81.99 97.35 L80.46 99.03 L78.95 100.72 L77.45 102.43 L75.97 104.16 L74.51 105.89 L73.07 107.65 L71.64 109.41 L70.23 111.19 L68.84 112.99 L67.47 114.80 L66.11 116.62 L64.78 118.46 L63.46 120.31 L62.16 122.17 L60.87 124.05 L59.61 125.94 L58.37 127.84 L57.14 129.75 L55.94 131.68 L54.75 133.62 L53.58 135.57 L52.44 137.53 L51.31 139.51 L50.20 141.49 L49.11 143.49 L48.04 145.49 L46.99 147.51 L45.97 149.54 L44.96 151.58 L43.97 153.63 L43.00 155.69 L42.06 157.76 L41.13 159.83 L40.23 161.92 L39.34 164.02 L38.48 166.12 L37.64 168.24 L36.81 170.36 L36.01 172.49 L35.24 174.63 L34.48 176.78 L33.74 178.93 L33.03 181.09 L32.34 183.26 L31.67 185.44 L31.02 187.62 L30.39 189.81 L29.78 192.00 L29.20 194.20 L28.64 196.41 L28.10 198.62 L27.58 200.84 L27.09 203.07 L26.61 205.29 L26.16 207.53 L25.74 209.77 L25.33 212.01 L24.95 214.25 L24.59 216.50 L24.25 218.76 L23.93 221.01 L23.64 223.27 L23.37 225.54 L23.12 227.80 L22.89 230.07 L22.69 232.34 L22.51 234.62 L22.35 236.89 L22.22 239.17 L22.11 241.45 L22.02 243.72 L21.95 246.00 L21.91 248.28 L21.89 250.57 L21.89 252.85 L21.92 255.13 L21.96 257.41 L22.03 259.69 L22.13 261.97 L22.24 264.25 L22.38 266.53 L22.54 268.80 L22.73 271.08 L22.94 273.35 L23.17 275.62 L23.42 277.89 L23.70 280.16 L23.99 282.42 L24.32 284.68 L24.66 286.94 L25.02 289.19 L25.41 291.44 L25.82 293.69 L26.26 295.93 L26.71 298.17 L27.19 300.40 L27.69 302.63 L28.22 304.86 L28.76 307.08 L29.33 309.29 L29.92 311.50 L30.53 313.70 L31.17 315.89 L31.82 318.08 L32.50 320.27 L33.20 322.44 L33.92 324.61 L34.66 326.77 L35.43 328.93 L36.22 331.08 L37.02 333.21 L37.85 335.35 L38.70 337.47 L39.57 339.58 L40.47 341.69 L41.38 343.78 L42.32 345.87 L43.27 347.95 L44.25 350.02 L45.25 352.08 L46.27 354.13 L47.30 356.17 L48.36 358.19 L49.44 360.21 L50.54 362.22 L51.66 364.22 L52.80 366.20 L53.96 368.17 L55.14 370.14 L56.34 372.09 L57.56 374.02 L58.79 375.95 L60.05 377.86 L61.33 379.77 L62.62 381.65 L63.94 383.53 L65.27 385.39 L66.62 387.24 L67.99 389.08 L69.38 390.90 L70.79 392.71 L72.21 394.50 L73.66 396.28 L75.12 398.05 L76.59 399.80 L78.09 401.53 L79.60 403.25 L81.13 404.96 L82.68 406.65 L84.25 408.33 L85.83 409.99 L87.42 411.63 L89.04 413.26 L90.67 414.87 L92.32 416.46 L93.98 418.04 L95.66 419.61 L97.35 421.15 L99.06 422.68 L100.79 424.19 L102.53 425.69 L104.28 427.16 L106.05 428.62 L107.84 430.06 L109.64 431.49 L111.45 432.89 L113.28 434.28 L115.12 435.65 L116.97 437.00 L118.84 438.33 L120.72 439.65 L122.62 440.94 L124.53 442.22 L126.45 443.48 L128.38 444.71 L130.33 445.93 L132.28 447.13 L134.25 448.31 L136.24 449.47 L138.23 450.61 L140.23 451.73 L142.25 452.83 L144.28 453.91 L146.32 454.97 L148.36 456.01 L150.42 457.03 L152.49 458.03 L154.57 459.00 L156.66 459.96 L158.76 460.90 L160.87 461.81 L162.98 462.71 L165.11 463.58 L167.25 464.43 L169.39 465.26 L171.54 466.07 L173.70 466.85 L175.87 467.62 L178.04 468.36 L180.23 469.09 L182.42 469.79 L184.61 470.46 L186.82 471.12 L189.03 471.75 L191.25 472.37 L193.47 472.96 L195.70 473.52 L197.93 474.07 L200.17 474.59 L202.42 475.09 L204.67 475.57 L206.93 476.03 L209.19 476.46 L211.45 476.87 L213.72 477.26 L215.99 477.62 L218.27 477.97 L220.55 478.29 L222.83 478.58 L225.11 478.86 L227.40 479.11 L229.69 479.34 L231.99 479.54 L234.28 479.73 L236.58 479.88 L238.88 480.02 L241.18 480.13 L243.48 480.23 L245.78 480.29 L248.08 480.34 L250.39 480.36 L252.69 480.36 L255.00 480.33 L257.30 480.29 L259.60 480.21 L261.90 480.12 L264.21 480.00 L266.51 479.86 L268.80 479.70 L271.10 479.52 L273.40 479.31 L275.69 479.07 L277.98 478.82 L280.27 478.54 L282.56 478.24 L284.84 477.92 L287.12 477.57 L289.40 477.20 L291.67 476.81 L293.94 476.40 L296.20 475.96 L298.46 475.50 L300.72 475.02 L302.97 474.51 L305.21 473.98 L307.45 473.43 L309.69 472.86 L311.92 472.27 L314.14 471.65 L316.36 471.01 L318.57 470.35 L320.77 469.67 L322.97 468.96 L325.16 468.23 L327.34 467.48 L329.52 466.71 L331.69 465.92 L333.85 465.10 L336.00 464.27 L338.14 463.41 L340.28 462.53 L342.40 461.63 L344.52 460.70 L346.63 459.76 L348.73 458.80 L350.82 457.81 L352.90 456.80 L354.96 455.78 L357.02 454.73 L359.07 453.66 L361.11 452.57 L363.14 451.46 L365.15 450.33 L367.16 449.18 L369.15 448.01 L371.13 446.82 L373.10 445.61 L375.06 444.38 L377.00 443.14 L378.93 441.87 L380.85 440.58 L382.76 439.27 L384.65 437.95 L386.54 436.60 L388.40 435.24 L390.26 433.85 L392.10 432.45 L393.92 431.03 L395.73 429.60 L397.53 428.14 L399.31 426.67 L401.08 425.17 L402.83 423.66 L404.57 422.14 L406.29 420.59 L408.00 419.03 L409.69 417.45 L411.37 415.86 L413.03 414.24 L414.67 412.62 L416.30 410.97 L417.91 409.31 L419.51 407.63 L421.08 405.94 L422.64 404.23 L424.19 402.50 L425.71 400.76 L427.22 399.00 L428.71 397.23 L430.19 395.45 L431.64 393.65 L433.08 391.83 L434.50 390.00 L435.90 388.16 L437.29 386.30 L438.65 384.43 L440.00 382.54 L441.32 380.64 L442.63 378.73 L443.92 376.80 L445.19 374.87 L446.44 372.91 L447.67 370.95 L448.88 368.98 L450.07 366.99 L451.24 364.99 L452.40 362.98 L453.53 360.95 L454.64 358.92 L455.73 356.87 L456.80 354.82 L457.85 352.75 L458.88 350.67 L459.88 348.58 L460.87 346.48 L461.84 344.38 L462.78 342.26 L463.71 340.13 L464.61 337.99 L465.49 335.85 L466.35 333.69 L467.19 331.53 L468.01 329.36 L468.80 327.18 L469.58 324.99 L470.33 322.80 L471.06 320.59 L471.76 318.38 L472.45 316.17 L473.11 313.94 L473.75 311.71 L474.37 309.47 L474.97 307.23 L475.54 304.98 L476.09 302.73 L476.62 300.47 L477.13 298.20 L477.61 295.93 L478.07 293.65 L478.51 291.37 L478.92 289.09 L479.32 286.80 L479.69 284.51 L480.03 282.21 L480.36 279.91 L480.66 277.60 L480.93 275.30 L481.19 272.99 L481.42 270.68 L481.63 268.36 L481.81 266.05 L481.97 263.73 L482.11 261.41 L482.23 259.09 L482.32 256.77 L482.39 254.44 L482.44 252.12 L482.46 249.79 L482.46 247.47 L482.43 245.14 L482.39 242.82 L482.32 240.50 L482.22 238.17 L482.10 235.85 L481.96 233.53 L481.80 231.21 L481.61 228.89 L481.40 226.57 L481.17 224.26 L480.91 221.95 L480.64 219.64 L480.33 217.33 L480.01 215.03 L479.66 212.73 L479.29 210.43 L478.89 208.14 L478.48 205.85 L478.04 203.56 L477.57 201.28 L477.09 199.01 L476.58 196.74 L476.05 194.47 L475.49 192.21 L474.91 189.95 L474.32 187.70 L473.69 185.46 L473.05 183.22 L472.38 180.99 L471.69 178.77 L470.98 176.55 L470.25 174.34 L469.49 172.14 L468.72 169.94 L467.92 167.75 L467.09 165.58 L466.25 163.40 L465.39 161.24 L464.50 159.09 L463.59 156.94 L462.66 154.80 L461.71 152.68 L460.74 150.56 L459.74 148.45 L458.73 146.35 L457.69 144.27 L456.64 142.19 L455.56 140.12 L454.46 138.07 L453.34 136.02 L452.21 133.99 L451.05 131.96 L449.87 129.95 L448.67 127.95 L447.45 125.97 L446.21 123.99 L444.95 122.03 L443.67 120.08 L442.37 118.14 L441.05 116.22 L439.72 114.31 L438.36 112.41 L436.98 110.52 L435.59 108.65 L434.18 106.80 L432.75 104.95 L431.30 103.13 L429.83 101.31 L428.34 99.51 L426.84 97.73 L425.32 95.96 L423.78 94.21 L422.22 92.47 L420.64 90.75 L419.05 89.04 L417.44 87.35 L415.82 85.67 L414.17 84.01 L412.51 82.37 L410.84 80.75 L409.15 79.14 L407.44 77.54 L405.71 75.97 L403.97 74.41 L402.22 72.87 L400.45 71.35 L398.66 69.84 L396.86 68.36 L395.05 66.89 L393.21 65.44 L391.37 64.00 L389.51 62.59 L387.64 61.19 L385.75 59.82 L383.85 58.46 L381.93 57.12 L380.00 55.80 L378.06 54.50 L376.11 53.22 L374.14 51.95 L372.16 50.71 L370.17 49.49 L368.16 48.29 L366.14 47.11 L364.12 45.94 L362.08 44.80 L360.02 43.68 L357.96 42.58 L355.89 41.50 L353.80 40.44 L351.71 39.40 L349.60 38.38 L347.49 37.39 L345.36 36.41 L343.22 35.46 L341.08 34.52 L338.92 33.61 L336.76 32.72 L334.59 31.85 L332.41 31.01 L330.22 30.18 L328.02 29.38 L325.81 28.60 L323.60 27.84 L321.38 27.10 L319.15 26.39 L316.91 25.70 L314.67 25.03 L312.42 24.38 L310.16 23.76 L307.90 23.15 L305.63 22.58 L303.36 22.02 L301.08 21.48 L298.79 20.97 L296.50 20.48 L294.21 20.02 L291.91 19.58 L289.60 19.16 L287.30 18.76 L284.98 18.39 L282.67 18.04 L280.35 17.71 L278.02 17.41 L275.70 17.12 L273.37 16.87 L271.04 16.63 L268.70 16.42 L266.37 16.23 L264.03 16.07 L261.69 15.93 L259.35 15.81 L257.01 15.72 L254.67 15.65 L252.32 15.60 L249.98 15.58 L247.63 15.58 L245.29 15.60 L242.95 15.65 L240.60 15.72 L238.26 15.81 L235.92 15.93 L233.58 16.07 L231.24 16.23 L228.90 16.42 L226.56 16.63 L224.23 16.86 L221.90 17.12 L219.57 17.40 L217.24 17.71 L214.92 18.03 L212.60 18.38 L210.28 18.76 L207.97 19.15 L205.66 19.57 L203.36 20.02 L201.06 20.48 L198.76 20.97 L196.47 21.49 L194.19 22.02 L191.91 22.58 L189.63 23.16 L187.36 23.76 L185.10 24.39 L182.85 25.04 L180.60 25.71 L178.35 26.40 L176.12 27.12 L173.89 27.86 L171.67 28.62 L169.45 29.40 L167.25 30.21 L165.05 31.03 L162.86 31.88 L160.68 32.76 L158.50 33.65 L156.34 34.56 L154.19 35.50 L152.04 36.46 L149.91 37.44 L147.78 38.44 L145.66 39.46 L143.56 40.50 L141.46 41.57 L139.38 42.65 L137.31 43.76 L135.24 44.89 L133.19 46.03 L131.15 47.20 L129.12 48.39 L127.11 49.60 L125.10 50.83 L123.11 52.08 L121.13 53.35 L119.17 54.63 L117.21 55.94 L115.27 57.27 L113.34 58.62 L111.43 59.98 L109.53 61.37 L107.64 62.77 L105.77 64.20 L103.91 65.64 L102.07 67.10 L100.24 68.58 L98.43 70.08 L96.63 71.59 L94.84 73.13 L93.07 74.68 L91.32 76.25 L89.58 77.84 L87.86 79.44 L86.16 81.06 L84.47 82.70 L82.79 84.36 L81.14 86.03 L79.50 87.72 L77.87 89.42 L76.27 91.14 L74.68 92.88 L73.11 94.63 L71.55 96.40 L70.02 98.19 L68.50 99.99 L67.00 101.80 L65.52 103.63 L64.05 105.48 L62.61 107.34 L61.18 109.21 L59.77 111.10 L58.39 113.00 L57.02 114.92 L55.67 116.85 L54.33 118.79 L53.02 120.75 L51.73 122.72 L50.46 124.70 L49.20 126.70 L47.97 128.70 L46.76 130.72 L45.57 132.76 L44.39 134.80 L43.24 136.86 L42.11 138.93 L41.00 141.00 L39.91 143.09 L38.84 145.20 L37.79 147.31 L36.77 149.43 L35.76 151.56 L34.78 153.70 L33.81 155.86 L32.87 158.02 L31.95 160.19 L31.05 162.37 L30.18 164.56 L29.32 166.76 L28.49 168.97 L27.68 171.18 L26.89 173.40 L26.13 175.64 L25.38 177.88 L24.66 180.12 L23.97 182.37 L23.29 184.64 L22.64 186.90 L22.01 189.18 L21.40 191.46 L20.81 193.74 L20.25 196.03 L19.71 198.33 L19.19 200.64 L18.70 202.94 L18.23 205.26 L17.78 207.57 L17.36 209.90 L16.96 212.22 L16.58 214.55 L16.23 216.89 L15.90 219.23 L15.59 221.57 L15.30 223.91 L15.04 226.26 L14.81 228.61 L14.59 230.96 L14.40 233.31 L14.24 235.67 L14.09 238.03 L13.98 240.39 L13.88 242.75 L13.81 245.11 L13.76 247.47 L13.73 249.83 L13.73 252.20 L13.76 254.56 L13.80 256.92 L13.87 259.28 L13.96 261.64 L14.08 264.01 L14.22 266.36 L14.39 268.72 L14.57 271.08 L14.78 273.43 L15.02 275.79 L15.28 278.13 L15.56 280.48 L15.87 282.83 L16.19 285.17 L16.55 287.51 L16.92 289.84 L17.32 292.17 L17.74 294.50 L18.19 296.82 L18.66 299.14 L19.15 301.45 L19.66 303.76 L20.20 306.06 L20.76 308.36 L21.35 310.65 L21.95 312.94 L22.58 315.22 L23.24 317.49 L23.91 319.76 L24.61 322.02 L25.33 324.28 L26.08 326.52 L26.84 328.76 L27.63 330.99 L28.44 333.22 L29.27 335.43 L30.13 337.64 L31.00 339.84 L31.90 342.03 L32.82 344.21 L33.77 346.38 L34.73 348.54 L35.72 350.70 L36.73 352.84 L37.75 354.97 L38.80 357.09 L39.88 359.20 L40.97 361.31 L42.08 363.40 L43.22 365.47 L44.37 367.54 L45.55 369.60 L46.75 371.64 L47.96 373.67 L49.20 375.69 L50.46 377.70 L51.74 379.70 L53.03 381.68 L54.35 383.65 L55.69 385.61 L57.04 387.55 L58.42 389.48 L59.82 391.39 L61.23 393.29 L62.66 395.18 L64.12 397.05 L65.59 398.91 L67.08 400.76 L68.59 402.59 L70.11 404.40 L71.66 406.20 L73.22 407.98 L74.80 409.75 L76.40 411.50 L78.01 413.23 L79.65 414.95 L81.30 416.66 L82.96 418.34 L84.65 420.01 L86.35 421.67 L88.07 423.30 L89.80 424.92 L91.55 426.52 L93.32 428.11 L95.10 429.67 L96.89 431.22 L98.71 432.75 L100.54 434.26 L102.38 435.76 L104.24 437.23 L106.11 438.69 L108.00 440.13 L109.90 441.55 L111.81 442.95 L113.74 444.33 L115.69 445.69 L117.65 447.03 L119.62 448.36 L121.60 449.66 L123.60 450.94 L125.61 452.21 L127.63 453.45 L129.67 454.67 L131.71 455.87 L133.77 457.06 L135.84 458.22 L137.93 459.36 L140.02 460.48 L142.13 461.58 L144.24 462.66 L146.37 463.71 L148.51 464.75 L150.65 465.76 L152.81 466.75 L154.98 467.73 L157.16 468.68 L159.35 469.60 L161.54 470.51 L163.75 471.39 L165.96 472.25 L168.19 473.09 L170.42 473.91 L172.66 474.70 L174.90 475.48 L177.16 476.23 L179.42 476.95 L181.69 477.66 L183.97 478.34 L186.25 479.00 L188.54 479.64 L190.84 480.25 L193.14 480.84 L195.45 481.41 L197.77 481.95 L200.08 482.47 L202.41 482.97 L204.74 483.45 L207.07 483.90 L209.41 484.33 L211.76 484.73 L214.11 485.11 L216.46 485.47 L218.81 485.81 L221.17 486.12 L223.53 486.40 L225.90 486.67 L228.26 486.91 L230.63 487.12 L233.00 487.32 L235.38 487.48 L237.75 487.63 L240.13 487.75 L242.51 487.85 L244.88 487.92 L247.26 487.97 L249.64 488.00 L252.02 488.00 L254.40 487.98 L256.78 487.93 L259.16 487.87 L261.54 487.77 L263.92 487.66 L266.30 487.52 L268.67 487.35 L271.04 487.16 L273.42 486.95 L275.78 486.72 L278.15 486.46 L280.52 486.17 L282.88 485.87 L285.24 485.54 L287.59 485.18 L289.94 484.81 L292.29 484.41 L294.64 483.98 L296.98 483.53 L299.31 483.06 L301.64 482.57 L303.97 482.05 L306.29 481.51 L308.60 480.95 L310.91 480.36 L313.21 479.75 L315.51 479.12 L317.80 478.46 L320.09 477.78 L322.36 477.08 L324.63 476.35 L326.90 475.61 L329.15 474.83 L331.40 474.04 L333.64 473.23 L335.87 472.39 L338.10 471.53 L340.31 470.65 L342.52 469.74 L344.71 468.82 L346.90 467.87 L349.08 466.90 L351.25 465.90 L353.41 464.89 L355.56 463.86 L357.69 462.80 L359.82 461.72 L361.94 460.62 L364.04 459.50 L366.14 458.36 L368.22 457.20 L370.29 456.01 L372.35 454.81 L374.40 453.58 L376.43 452.34 L378.46 451.07 L380.47 449.79 L382.46 448.48 L384.45 447.16 L386.42 445.81 L388.38 444.44 L390.32 443.06 L392.25 441.65 L394.16 440.23 L396.07 438.79 L397.95 437.33 L399.83 435.85 L401.68 434.35 L403.53 432.83 L405.35 431.29 L407.16 429.74 L408.96 428.16 L410.74 426.57 L412.51 424.96 L414.26 423.34 L415.99 421.69 L417.70 420.03 L419.40 418.36 L421.09 416.66 L422.75 414.95 L424.40 413.22 L426.03 411.47 L427.64 409.71 L429.24 407.94 L430.82 406.14 L432.38 404.33 L433.92 402.51 L435.44 400.67 L436.95 398.81 L438.44 396.94 L439.91 395.06 L441.35 393.16 L442.78 391.24 L444.20 389.31 L445.59 387.37 L446.96 385.41 L448.31 383.44 L449.65 381.46 L450.96 379.46 L452.25 377.45 L453.53 375.43 L454.78 373.39 L456.01 371.34 L457.22 369.28 L458.41 367.21 L459.59 365.12 L460.74 363.03 L461.86 360.92 L462.97 358.80 L464.06 356.67 L465.12 354.53 L466.17 352.37 L467.19 350.21 L468.19 348.04 L469.17 345.86 L470.13 343.66 L471.06 341.46 L471.97 339.25 L472.86 337.03 L473.73 334.80 L474.58 332.56 L475.40 330.32 L476.21 328.06 L476.98 325.80 L477.74 323.53 L478.47 321.25 L479.19 318.97 L479.87 316.67 L480.54 314.37 L481.18 312.07 L481.80 309.76 L482.40 307.44 L482.97 305.11 L483.52 302.78 L484.04 300.45 L484.55 298.11 L485.03 295.76 L485.48 293.41 L485.91 291.05 L486.32 288.69 L486.71 286.33 L487.07 283.96 L487.41 281.59 L487.72 279.22 L488.01 276.84 L488.28 274.46 L488.52 272.08 L488.74 269.69 L488.93 267.30 L489.11 264.91 L489.25 262.52 L489.38 260.13 L489.48 257.74 L489.55 255.34 L489.60 252.95 L489.63 250.55 L489.63 248.15 L489.61 245.76 L489.57 243.36 L489.50 240.97 L489.41 238.57 L489.29 236.18 L489.15 233.78 L488.99 231.39 L488.80 229.00 L488.59 226.61 L488.35 224.23 L488.09 221.85 L487.81 219.46 L487.50 217.09 L487.17 214.71 L486.82 212.34 L486.44 209.97 L486.04 207.61 L485.61 205.25 L485.16 202.89 L484.69 200.54 L484.19 198.19 L483.67 195.85 L483.13 193.52 L482.56 191.19 L481.97 188.86 L481.36 186.54 L480.72 184.23 L480.06 181.92 L479.38 179.62 L478.67 177.33 L477.94 175.04 L477.19 172.76 L476.42 170.49 L475.62 168.23 L474.80 165.97 L473.96 163.73 L473.09 161.49 L472.21 159.26 L471.30 157.04 L470.37 154.82 L469.41 152.62 L468.44 150.43 L467.44 148.24 L466.42 146.07 L465.38 143.91 L464.32 141.75 L463.23 139.61 L462.13 137.48 L461.00 135.36 L459.85 133.25 L458.68 131.15 L457.49 129.07 L456.28 126.99 L455.05 124.93 L453.80 122.88 L452.52 120.84 L451.23 118.82 L449.92 116.81 L448.58 114.81 L447.23 112.83 L445.85 110.86 L444.46 108.90 L443.05 106.96 L441.62 105.03 L440.16 103.11 L438.69 101.21 L437.20 99.32 L435.70 97.45 L434.17 95.60 L432.62 93.76 L431.06 91.93 L429.48 90.12 L427.88 88.33 L426.26 86.55 L424.62 84.79 L422.97 83.05 L421.30 81.32 L419.61 79.61 L417.90 77.91 L416.18 76.24 L414.44 74.58 L412.69 72.93 L410.91 71.31 L409.12 69.70 L407.32 68.11 L405.50 66.54 L403.66 64.99 L401.81 63.45 L399.95 61.93 L398.06 60.44 L396.17 58.96 L394.25 57.50 L392.33 56.06 L390.39 54.64 L388.43 53.23 L386.46 51.85 L384.48 50.49 L382.48 49.15 L380.47 47.82 L378.45 46.52 L376.41 45.24 L374.37 43.97 L372.30 42.73 L370.23 41.51 L368.14 40.31 L366.05 39.13 L363.94 37.97 L361.81 36.84 L359.68 35.72 L357.54 34.63 L355.38 33.55 L353.22 32.50 L351.04 31.47 L348.86 30.46 L346.66 29.48 L344.45 28.51 L342.24 27.57 L340.01 26.65 L337.78 25.75 L335.53 24.88 L333.28 24.02 L331.02 23.19 L328.75 22.38 L326.47 21.60 L324.19 20.84 L321.90 20.10 L319.60 19.38 L317.29 18.69 L314.98 18.02 L312.66 17.37 L310.33 16.74 L308.00 16.14 L305.66 15.57 L303.31 15.01 L300.96 14.48 L298.61 13.97 L296.24 13.49 L293.88 13.03 L291.51 12.59 L289.13 12.18 L286.76 11.79 L284.37 11.43 L281.99 11.08 L279.60 10.77 L277.20 10.47 L274.81 10.20 L272.41 9.96 L270.01 9.74 L267.61 9.54 L265.20 9.37 L262.80 9.22 L260.39 9.09 L257.98 8.99 L255.57 8.91 L253.16 8.86 L250.75 8.83 L248.33 8.83 L245.92 8.84 L243.51 8.89 L241.10 8.95 L238.69 9.05 L236.28 9.16 L233.87 9.30 L231.46 9.47 L229.06 9.65 L226.66 9.87 L224.26 10.10 L221.86 10.36 L219.46 10.65 L217.07 10.95 L214.68 11.29 L212.29 11.64 L209.91 12.02 L207.53 12.42 L205.15 12.85 L202.78 13.30 L200.41 13.78 L198.05 14.28 L195.70 14.80 L193.34 15.34 L191.00 15.91 L188.66 16.51 L186.32 17.12 L184.00 17.76 L181.67 18.42 L179.36 19.11 L177.05 19.82 L174.75 20.55 L172.46 21.31 L170.17 22.08 L167.89 22.88 L165.62 23.71 L163.36 24.55 L161.11 25.42 L158.86 26.31 L156.62 27.23 L154.40 28.16 L152.18 29.12 L149.97 30.10 L147.78 31.11 L145.59 32.13 L143.41 33.18 L141.24 34.25 L139.09 35.34 L136.94 36.45 L134.81 37.58 L132.68 38.73 L130.57 39.91 L128.47 41.11 L126.38 42.32 L124.31 43.56 L122.25 44.82 L120.20 46.10 L118.16 47.40 L116.13 48.72 L114.12 50.06 L112.13 51.43 L110.14 52.81 L108.17 54.21 L106.21 55.63 L104.27 57.07 L102.34 58.53 L100.43 60.01 L98.53 61.50 L96.65 63.02 L94.78 64.56 L92.93 66.11 L91.09 67.68 L89.27 69.28 L87.47 70.89 L85.68 72.51 L83.90 74.16 L82.15 75.82 L80.41 77.50 L78.68 79.20 L76.98 80.91 L75.29 82.65 L73.62 84.40 L71.96 86.16 L70.33 87.94 L68.71 89.74 L67.11 91.56 L65.53 93.39 L63.96 95.24 L62.42 97.10 L60.89 98.98 L59.38 100.87 L57.89 102.78 L56.42 104.70 L54.97 106.64 L53.54 108.59 L52.13 110.55 L50.74 112.54 L49.36 114.53 L48.01 116.54 L46.68 118.56 L45.37 120.59 L44.08 122.64 L42.80 124.70 L41.55 126.78 L40.32 128.86 L39.12 130.96 L37.93 133.07 L36.76 135.19 L35.62 137.33 L34.49 139.47 L33.39 141.63 L32.31 143.80 L31.25 145.97 L30.21 148.16 L29.19 150.36 L28.20 152.57 L27.23 154.79 L26.28 157.02 L25.35 159.26 L24.45 161.51 L23.57 163.76 L22.71 166.03 L21.87 168.30 L21.06 170.58 L20.26 172.87 L19.50 175.17 L18.75 177.48 L18.03 179.79 L17.33 182.11 L16.65 184.44 L16.00 186.78 L15.37 189.12 L14.76 191.46 L14.18 193.82 L13.62 196.18 L13.09 198.54 L12.58 200.91 L12.09 203.28 L11.62 205.66 L11.18 208.05 L10.77 210.44 L10.37 212.83 L10.01 215.23 L9.66 217.63 L9.34 220.03 L9.04 222.44 L8.77 224.85 L8.52 227.26 L8.30 229.68 L8.10 232.09 L7.92 234.51 L7.77 236.93 L7.64 239.36 L7.54 241.78 L7.46 244.20 L7.41 246.63 L7.38 249.06 " style="fill:none;stroke:#0080cc;stroke-width:1;" /></g></svg>