<?xml version="1.0" encoding="UTF-8" standalone="no"?>
<svg version="1.1" xmlns="http://www.w3.org/2000/svg" width="699px" height="1000px" x="0" y="0" viewBox="0 0 699 1000"><g><rect fill="#ffffff" x="0" y="0" width="699" height="1000"/></g><g><circle cx="349.5" cy="500" r="0.36764705882352894" fill="#000000" fill-opacity="1"/><circle cx="343.00480947161674" cy="511.25" r="0.04084967320261451" fill="#000000" fill-opacity="1"/><circle cx="355.99519052838326" cy="511.25" r="1.3807189542483658" fill="#000000" fill-opacity="1"/><circle cx="355.99519052838326" cy="488.75" r="0.2696078431372548" fill="#000000" fill-opacity="1"/><circle cx="343.00480947161674" cy="488.75" r="4.583333333333333" fill="#000000" fill-opacity="1"/><circle cx="336.5096189432334" cy="500" r="0.2042483660130709" fill="#000000" fill-opacity="1"/><circle cx="336.5096189432334" cy="522.5" r="0.10620915032679673" fill="#000000" fill-opacity="1"/><circle cx="349.5" cy="522.5" r="3.341503267973856" fill="#000000" fill-opacity="1"/><circle cx="362.4903810567666" cy="522.5" r="0.9232026143790845" fill="#000000" fill-opacity="1"/><circle cx="362.4903810567666" cy="477.5" r="0.59640522875817" fill="#000000" fill-opacity="1"/><circle cx="349.5" cy="477.5" r="2.0669934640522873" fill="#000000" fill-opacity="1"/><circle cx="336.5096189432334" cy="477.5" r="0.4656862745098031" fill="#000000" fill-opacity="1"/><circle cx="330.01442841485016" cy="488.75" r="0.433006535947712" fill="#000000" fill-opacity="1"/><circle cx="323.51923788646684" cy="500" r="3.9624183006535945" fill="#000000" fill-opacity="1"/><circle cx="330.01442841485016" cy="533.75" r="3.733660130718954" fill="#000000" fill-opacity="1"/><circle cx="343.00480947161674" cy="533.75" r="4.419934640522875" fill="#000000" fill-opacity="1"/><circle cx="355.99519052838326" cy="533.75" r="3.8643790849673194" fill="#000000" fill-opacity="1"/><circle cx="368.98557158514984" cy="533.75" r="5.008169934640522" fill="#000000" fill-opacity="1"/><circle cx="375.48076211353316" cy="522.5" r="4.74673202614379" fill="#000000" fill-opacity="1"/><circle cx="388.47114317029974" cy="500" r="0.10620915032679673" fill="#000000" fill-opacity="1"/><circle cx="355.99519052838326" cy="466.25" r="0.9885620915032676" fill="#000000" fill-opacity="1"/><circle cx="343.00480947161674" cy="466.25" r="2.0996732026143796" fill="#000000" fill-opacity="1"/><circle cx="323.51923788646684" cy="545" r="2.3284313725490198" fill="#000000" fill-opacity="1"/><circle cx="336.5096189432334" cy="545" r="2.1323529411764706" fill="#000000" fill-opacity="1"/><circle cx="349.5" cy="545" r="2.4591503267973858" fill="#000000" fill-opacity="1"/><circle cx="362.4903810567666" cy="545" r="3.8643790849673194" fill="#000000" fill-opacity="1"/><circle cx="375.48076211353316" cy="545" r="3.602941176470587" fill="#000000" fill-opacity="1"/><circle cx="381.9759526419164" cy="533.75" r="3.570261437908496" fill="#000000" fill-opacity="1"/><circle cx="388.47114317029974" cy="522.5" r="0.59640522875817" fill="#000000" fill-opacity="1"/><circle cx="394.966333698683" cy="511.25" r="2.9493464052287583" fill="#000000" fill-opacity="1"/><circle cx="401.4615242270663" cy="500" r="4.779411764705882" fill="#000000" fill-opacity="1"/><circle cx="394.966333698683" cy="488.75" r="3.0800653594771235" fill="#000000" fill-opacity="1"/><circle cx="388.47114317029974" cy="477.5" r="3.112745098039216" fill="#000000" fill-opacity="1"/><circle cx="381.9759526419164" cy="466.25" r="2.916666666666667" fill="#000000" fill-opacity="1"/><circle cx="375.48076211353316" cy="455" r="3.700980392156862" fill="#000000" fill-opacity="1"/><circle cx="362.4903810567666" cy="455" r="1.9689542483660125" fill="#000000" fill-opacity="1"/><circle cx="349.5" cy="455" r="0.23692810457516367" fill="#000000" fill-opacity="1"/><circle cx="317.0240473580836" cy="466.25" r="0.4656862745098031" fill="#000000" fill-opacity="1"/><circle cx="310.52885682970026" cy="522.5" r="2.2303921568627447" fill="#000000" fill-opacity="1"/><circle cx="317.0240473580836" cy="533.75" r="1.805555555555556" fill="#000000" fill-opacity="1"/><circle cx="317.0240473580836" cy="556.25" r="1.0866013071895426" fill="#000000" fill-opacity="1"/><circle cx="343.00480947161674" cy="556.25" r="2.655228758169935" fill="#000000" fill-opacity="1"/><circle cx="355.99519052838326" cy="556.25" r="1.8382352941176472" fill="#000000" fill-opacity="1"/><circle cx="368.98557158514984" cy="556.25" r="2.2630718954248357" fill="#000000" fill-opacity="1"/><circle cx="381.9759526419164" cy="556.25" r="2.197712418300654" fill="#000000" fill-opacity="1"/><circle cx="388.47114317029974" cy="545" r="0.04084967320261451" fill="#000000" fill-opacity="1"/><circle cx="407.9567147554496" cy="511.25" r="3.831699346405229" fill="#000000" fill-opacity="1"/><circle cx="414.4519052838329" cy="500" r="5.563725490196077" fill="#000000" fill-opacity="1"/><circle cx="407.9567147554496" cy="488.75" r="6.772875816993464" fill="#000000" fill-opacity="1"/><circle cx="401.4615242270663" cy="477.5" r="7.295751633986927" fill="#000000" fill-opacity="1"/><circle cx="394.966333698683" cy="466.25" r="6.772875816993464" fill="#000000" fill-opacity="1"/><circle cx="388.47114317029974" cy="455" r="5.367647058823529" fill="#000000" fill-opacity="1"/><circle cx="381.9759526419164" cy="443.75" r="5.759803921568627" fill="#000000" fill-opacity="1"/><circle cx="368.98557158514984" cy="443.75" r="6.478758169934641" fill="#000000" fill-opacity="1"/><circle cx="355.99519052838326" cy="443.75" r="1.609477124183007" fill="#000000" fill-opacity="1"/><circle cx="343.00480947161674" cy="443.75" r="0.2042483660130709" fill="#000000" fill-opacity="1"/><circle cx="304.033666301317" cy="466.25" r="3.700980392156862" fill="#000000" fill-opacity="1"/><circle cx="297.5384757729337" cy="522.5" r="1.609477124183007" fill="#000000" fill-opacity="1"/><circle cx="304.033666301317" cy="533.75" r="2.655228758169935" fill="#000000" fill-opacity="1"/><circle cx="310.52885682970026" cy="545" r="1.9689542483660125" fill="#000000" fill-opacity="1"/><circle cx="310.52885682970026" cy="567.5" r="0.7271241830065354" fill="#000000" fill-opacity="1"/><circle cx="362.4903810567666" cy="567.5" r="2.1650326797385615" fill="#000000" fill-opacity="1"/><circle cx="375.48076211353316" cy="567.5" r="3.8970588235294112" fill="#000000" fill-opacity="1"/><circle cx="388.47114317029974" cy="567.5" r="2.0343137254901955" fill="#000000" fill-opacity="1"/><circle cx="394.966333698683" cy="556.25" r="4.0931372549019605" fill="#000000" fill-opacity="1"/><circle cx="414.4519052838329" cy="522.5" r="1.0539215686274515" fill="#000000" fill-opacity="1"/><circle cx="420.94709581221616" cy="511.25" r="1.0539215686274515" fill="#000000" fill-opacity="1"/><circle cx="427.4422863405995" cy="500" r="5.138888888888888" fill="#000000" fill-opacity="1"/><circle cx="420.94709581221616" cy="488.75" r="7.034313725490195" fill="#000000" fill-opacity="1"/><circle cx="414.4519052838329" cy="477.5" r="1.9689542483660125" fill="#000000" fill-opacity="1"/><circle cx="407.9567147554496" cy="466.25" r="2.426470588235294" fill="#000000" fill-opacity="1"/><circle cx="401.4615242270663" cy="455" r="0.6290849673202612" fill="#000000" fill-opacity="1"/><circle cx="388.47114317029974" cy="432.5" r="0.4656862745098031" fill="#000000" fill-opacity="1"/><circle cx="375.48076211353316" cy="432.5" r="3.3741830065359477" fill="#000000" fill-opacity="1"/><circle cx="362.4903810567666" cy="432.5" r="4.681372549019606" fill="#000000" fill-opacity="1"/><circle cx="349.5" cy="432.5" r="5.4983660130718945" fill="#000000" fill-opacity="1"/><circle cx="336.5096189432334" cy="432.5" r="0.04084967320261451" fill="#000000" fill-opacity="1"/><circle cx="291.0432852445504" cy="533.75" r="2.883986928104575" fill="#000000" fill-opacity="1"/><circle cx="297.5384757729337" cy="545" r="2.7859477124183" fill="#000000" fill-opacity="1"/><circle cx="304.033666301317" cy="556.25" r="1.2173202614379077" fill="#000000" fill-opacity="1"/><circle cx="304.033666301317" cy="578.75" r="0.6944444444444442" fill="#000000" fill-opacity="1"/><circle cx="317.0240473580836" cy="578.75" r="0.04084967320261451" fill="#000000" fill-opacity="1"/><circle cx="343.00480947161674" cy="578.75" r="0.07352941176470562" fill="#000000" fill-opacity="1"/><circle cx="355.99519052838326" cy="578.75" r="0.3022875816993459" fill="#000000" fill-opacity="1"/><circle cx="368.98557158514984" cy="578.75" r="1.511437908496731" fill="#000000" fill-opacity="1"/><circle cx="381.9759526419164" cy="578.75" r="0.8905228758169934" fill="#000000" fill-opacity="1"/><circle cx="407.9567147554496" cy="556.25" r="0.33496732026143783" fill="#000000" fill-opacity="1"/><circle cx="414.4519052838329" cy="545" r="2.1650326797385615" fill="#000000" fill-opacity="1"/><circle cx="420.94709581221616" cy="533.75" r="1.2499999999999998" fill="#000000" fill-opacity="1"/><circle cx="427.4422863405995" cy="522.5" r="0.8905228758169934" fill="#000000" fill-opacity="1"/><circle cx="433.93747686898274" cy="511.25" r="1.2499999999999998" fill="#000000" fill-opacity="1"/><circle cx="440.43266739736606" cy="500" r="2.883986928104575" fill="#000000" fill-opacity="1"/><circle cx="433.93747686898274" cy="488.75" r="4.0931372549019605" fill="#000000" fill-opacity="1"/><circle cx="427.4422863405995" cy="477.5" r="0.2696078431372548" fill="#000000" fill-opacity="1"/><circle cx="420.94709581221616" cy="466.25" r="2.916666666666667" fill="#000000" fill-opacity="1"/><circle cx="414.4519052838329" cy="455" r="1.7075163398692812" fill="#000000" fill-opacity="1"/><circle cx="401.4615242270663" cy="432.5" r="0.00816993464052257" fill="#000000" fill-opacity="1"/><circle cx="381.9759526419164" cy="421.25" r="1.9035947712418302" fill="#000000" fill-opacity="1"/><circle cx="368.98557158514984" cy="421.25" r="3.570261437908496" fill="#000000" fill-opacity="1"/><circle cx="355.99519052838326" cy="421.25" r="6.217320261437908" fill="#000000" fill-opacity="1"/><circle cx="343.00480947161674" cy="421.25" r="3.6356209150326797" fill="#000000" fill-opacity="1"/><circle cx="297.5384757729337" cy="432.5" r="0.3022875816993459" fill="#000000" fill-opacity="1"/><circle cx="271.5577136594005" cy="522.5" r="0.07352941176470562" fill="#000000" fill-opacity="1"/><circle cx="278.05290418778384" cy="533.75" r="3.1454248366013076" fill="#000000" fill-opacity="1"/><circle cx="284.5480947161671" cy="545" r="3.112745098039216" fill="#000000" fill-opacity="1"/><circle cx="291.0432852445504" cy="556.25" r="3.537581699346405" fill="#000000" fill-opacity="1"/><circle cx="297.5384757729337" cy="567.5" r="1.8382352941176472" fill="#000000" fill-opacity="1"/><circle cx="297.5384757729337" cy="590" r="0.07352941176470562" fill="#000000" fill-opacity="1"/><circle cx="323.51923788646684" cy="590" r="0.04084967320261451" fill="#000000" fill-opacity="1"/><circle cx="362.4903810567666" cy="590" r="0.6944444444444442" fill="#000000" fill-opacity="1"/><circle cx="375.48076211353316" cy="590" r="2.197712418300654" fill="#000000" fill-opacity="1"/><circle cx="414.4519052838329" cy="567.5" r="0.6290849673202612" fill="#000000" fill-opacity="1"/><circle cx="420.94709581221616" cy="556.25" r="0.4656862745098031" fill="#000000" fill-opacity="1"/><circle cx="427.4422863405995" cy="545" r="1.7401960784313721" fill="#000000" fill-opacity="1"/><circle cx="433.93747686898274" cy="533.75" r="0.4656862745098031" fill="#000000" fill-opacity="1"/><circle cx="440.43266739736606" cy="522.5" r="0.6617647058823523" fill="#000000" fill-opacity="1"/><circle cx="446.9278579257493" cy="511.25" r="0.4656862745098031" fill="#000000" fill-opacity="1"/><circle cx="453.42304845413264" cy="500" r="0.6290849673202612" fill="#000000" fill-opacity="1"/><circle cx="446.9278579257493" cy="488.75" r="1.1846405228758168" fill="#000000" fill-opacity="1"/><circle cx="440.43266739736606" cy="477.5" r="1.2173202614379077" fill="#000000" fill-opacity="1"/><circle cx="375.48076211353316" cy="410" r="2.3937908496732025" fill="#000000" fill-opacity="1"/><circle cx="362.4903810567666" cy="410" r="0.8905228758169934" fill="#000000" fill-opacity="1"/><circle cx="349.5" cy="410" r="5.204248366013071" fill="#000000" fill-opacity="1"/><circle cx="336.5096189432334" cy="410" r="3.8970588235294112" fill="#000000" fill-opacity="1"/><circle cx="323.51923788646684" cy="410" r="2.0343137254901955" fill="#000000" fill-opacity="1"/><circle cx="310.52885682970026" cy="410" r="1.2826797385620916" fill="#000000" fill-opacity="1"/><circle cx="297.5384757729337" cy="410" r="1.8382352941176472" fill="#000000" fill-opacity="1"/><circle cx="291.0432852445504" cy="421.25" r="0.2042483660130709" fill="#000000" fill-opacity="1"/><circle cx="284.5480947161671" cy="432.5" r="0.4656862745098031" fill="#000000" fill-opacity="1"/><circle cx="258.56733260263394" cy="522.5" r="2.753267973856209" fill="#000000" fill-opacity="1"/><circle cx="265.06252313101726" cy="533.75" r="5.040849673202614" fill="#000000" fill-opacity="1"/><circle cx="271.5577136594005" cy="545" r="5.59640522875817" fill="#000000" fill-opacity="1"/><circle cx="278.05290418778384" cy="556.25" r="3.2107843137254903" fill="#000000" fill-opacity="1"/><circle cx="284.5480947161671" cy="567.5" r="1.2826797385620916" fill="#000000" fill-opacity="1"/><circle cx="291.0432852445504" cy="578.75" r="1.0539215686274515" fill="#000000" fill-opacity="1"/><circle cx="368.98557158514984" cy="601.25" r="1.4460784313725488" fill="#000000" fill-opacity="1"/><circle cx="381.9759526419164" cy="601.25" r="1.609477124183007" fill="#000000" fill-opacity="1"/><circle cx="407.9567147554496" cy="601.25" r="0.10620915032679673" fill="#000000" fill-opacity="1"/><circle cx="440.43266739736606" cy="545" r="0.7598039215686272" fill="#000000" fill-opacity="1"/><circle cx="446.9278579257493" cy="533.75" r="2.655228758169935" fill="#000000" fill-opacity="1"/><circle cx="453.42304845413264" cy="522.5" r="1.1192810457516336" fill="#000000" fill-opacity="1"/><circle cx="459.9182389825159" cy="511.25" r="2.1323529411764706" fill="#000000" fill-opacity="1"/><circle cx="466.4134295108992" cy="500" r="0.3022875816993459" fill="#000000" fill-opacity="1"/><circle cx="440.43266739736606" cy="455" r="1.642156862745098" fill="#000000" fill-opacity="1"/><circle cx="433.93747686898274" cy="443.75" r="1.0212418300653594" fill="#000000" fill-opacity="1"/><circle cx="394.966333698683" cy="398.75" r="0.07352941176470562" fill="#000000" fill-opacity="1"/><circle cx="381.9759526419164" cy="398.75" r="0.07352941176470562" fill="#000000" fill-opacity="1"/><circle cx="355.99519052838326" cy="398.75" r="4.223856209150327" fill="#000000" fill-opacity="1"/><circle cx="343.00480947161674" cy="398.75" r="5.988562091503267" fill="#000000" fill-opacity="1"/><circle cx="330.01442841485016" cy="398.75" r="6.086601307189542" fill="#000000" fill-opacity="1"/><circle cx="317.0240473580836" cy="398.75" r="3.0800653594771235" fill="#000000" fill-opacity="1"/><circle cx="304.033666301317" cy="398.75" r="6.249999999999998" fill="#000000" fill-opacity="1"/><circle cx="291.0432852445504" cy="398.75" r="2.687908496732026" fill="#000000" fill-opacity="1"/><circle cx="245.57695154586736" cy="522.5" r="3.570261437908496" fill="#000000" fill-opacity="1"/><circle cx="252.07214207425068" cy="533.75" r="6.511437908496732" fill="#000000" fill-opacity="1"/><circle cx="258.56733260263394" cy="545" r="5.792483660130718" fill="#000000" fill-opacity="1"/><circle cx="265.06252313101726" cy="556.25" r="4.191176470588235" fill="#000000" fill-opacity="1"/><circle cx="271.5577136594005" cy="567.5" r="3.0473856209150325" fill="#000000" fill-opacity="1"/><circle cx="278.05290418778384" cy="578.75" r="2.7859477124183" fill="#000000" fill-opacity="1"/><circle cx="284.5480947161671" cy="590" r="0.36764705882352894" fill="#000000" fill-opacity="1"/><circle cx="284.5480947161671" cy="612.5" r="0.23692810457516367" fill="#000000" fill-opacity="1"/><circle cx="375.48076211353316" cy="612.5" r="0.8578431372549014" fill="#000000" fill-opacity="1"/><circle cx="388.47114317029974" cy="612.5" r="3.1781045751633985" fill="#000000" fill-opacity="1"/><circle cx="401.4615242270663" cy="612.5" r="3.4068627450980387" fill="#000000" fill-opacity="1"/><circle cx="414.4519052838329" cy="612.5" r="0.433006535947712" fill="#000000" fill-opacity="1"/><circle cx="433.93747686898274" cy="578.75" r="1.0866013071895426" fill="#000000" fill-opacity="1"/><circle cx="446.9278579257493" cy="556.25" r="0.04084967320261451" fill="#000000" fill-opacity="1"/><circle cx="453.42304845413264" cy="545" r="1.9362745098039214" fill="#000000" fill-opacity="1"/><circle cx="459.9182389825159" cy="533.75" r="0.00816993464052257" fill="#000000" fill-opacity="1"/><circle cx="433.93747686898274" cy="421.25" r="0.9232026143790845" fill="#000000" fill-opacity="1"/><circle cx="414.4519052838329" cy="387.5" r="0.04084967320261451" fill="#000000" fill-opacity="1"/><circle cx="401.4615242270663" cy="387.5" r="0.17156862745097978" fill="#000000" fill-opacity="1"/><circle cx="388.47114317029974" cy="387.5" r="2.7205882352941173" fill="#000000" fill-opacity="1"/><circle cx="375.48076211353316" cy="387.5" r="5.727124183006536" fill="#000000" fill-opacity="1"/><circle cx="362.4903810567666" cy="387.5" r="2.7205882352941173" fill="#000000" fill-opacity="1"/><circle cx="349.5" cy="387.5" r="6.348039215686274" fill="#000000" fill-opacity="1"/><circle cx="336.5096189432334" cy="387.5" r="6.021241830065359" fill="#000000" fill-opacity="1"/><circle cx="323.51923788646684" cy="387.5" r="4.28921568627451" fill="#000000" fill-opacity="1"/><circle cx="310.52885682970026" cy="387.5" r="3.1454248366013076" fill="#000000" fill-opacity="1"/><circle cx="297.5384757729337" cy="387.5" r="5.334967320261437" fill="#000000" fill-opacity="1"/><circle cx="284.5480947161671" cy="387.5" r="4.321895424836601" fill="#000000" fill-opacity="1"/><circle cx="232.58657048910078" cy="522.5" r="3.8970588235294112" fill="#000000" fill-opacity="1"/><circle cx="239.0817610174841" cy="533.75" r="5.40032679738562" fill="#000000" fill-opacity="1"/><circle cx="245.57695154586736" cy="545" r="0.8578431372549014" fill="#000000" fill-opacity="1"/><circle cx="252.07214207425068" cy="556.25" r="1.511437908496731" fill="#000000" fill-opacity="1"/><circle cx="258.56733260263394" cy="567.5" r="3.537581699346405" fill="#000000" fill-opacity="1"/><circle cx="265.06252313101726" cy="578.75" r="4.060457516339869" fill="#000000" fill-opacity="1"/><circle cx="271.5577136594005" cy="590" r="1.8382352941176472" fill="#000000" fill-opacity="1"/><circle cx="278.05290418778384" cy="601.25" r="1.0539215686274515" fill="#000000" fill-opacity="1"/><circle cx="278.05290418778384" cy="623.75" r="1.3480392156862746" fill="#000000" fill-opacity="1"/><circle cx="368.98557158514984" cy="623.75" r="0.33496732026143783" fill="#000000" fill-opacity="1"/><circle cx="381.9759526419164" cy="623.75" r="5.59640522875817" fill="#000000" fill-opacity="1"/><circle cx="394.966333698683" cy="623.75" r="5.204248366013071" fill="#000000" fill-opacity="1"/><circle cx="407.9567147554496" cy="623.75" r="4.256535947712417" fill="#000000" fill-opacity="1"/><circle cx="420.94709581221616" cy="623.75" r="2.426470588235294" fill="#000000" fill-opacity="1"/><circle cx="440.43266739736606" cy="590" r="2.0669934640522873" fill="#000000" fill-opacity="1"/><circle cx="446.9278579257493" cy="578.75" r="1.805555555555556" fill="#000000" fill-opacity="1"/><circle cx="453.42304845413264" cy="567.5" r="0.8251633986928103" fill="#000000" fill-opacity="1"/><circle cx="459.9182389825159" cy="556.25" r="0.00816993464052257" fill="#000000" fill-opacity="1"/><circle cx="466.4134295108992" cy="545" r="0.00816993464052257" fill="#000000" fill-opacity="1"/><circle cx="407.9567147554496" cy="376.25" r="0.13888888888888867" fill="#000000" fill-opacity="1"/><circle cx="394.966333698683" cy="376.25" r="5.008169934640522" fill="#000000" fill-opacity="1"/><circle cx="381.9759526419164" cy="376.25" r="5.334967320261437" fill="#000000" fill-opacity="1"/><circle cx="368.98557158514984" cy="376.25" r="5.59640522875817" fill="#000000" fill-opacity="1"/><circle cx="355.99519052838326" cy="376.25" r="4.583333333333333" fill="#000000" fill-opacity="1"/><circle cx="343.00480947161674" cy="376.25" r="5.138888888888888" fill="#000000" fill-opacity="1"/><circle cx="330.01442841485016" cy="376.25" r="3.9950980392156854" fill="#000000" fill-opacity="1"/><circle cx="317.0240473580836" cy="376.25" r="3.6356209150326797" fill="#000000" fill-opacity="1"/><circle cx="304.033666301317" cy="376.25" r="1.3807189542483658" fill="#000000" fill-opacity="1"/><circle cx="291.0432852445504" cy="376.25" r="4.191176470588235" fill="#000000" fill-opacity="1"/><circle cx="278.05290418778384" cy="376.25" r="5.59640522875817" fill="#000000" fill-opacity="1"/><circle cx="271.5577136594005" cy="387.5" r="4.158496732026143" fill="#000000" fill-opacity="1"/><circle cx="265.06252313101726" cy="398.75" r="1.2173202614379077" fill="#000000" fill-opacity="1"/><circle cx="219.59618943233423" cy="522.5" r="3.668300653594771" fill="#000000" fill-opacity="1"/><circle cx="226.09137996071752" cy="533.75" r="5.302287581699344" fill="#000000" fill-opacity="1"/><circle cx="232.58657048910078" cy="545" r="5.008169934640522" fill="#000000" fill-opacity="1"/><circle cx="239.0817610174841" cy="556.25" r="2.3611111111111116" fill="#000000" fill-opacity="1"/><circle cx="245.57695154586736" cy="567.5" r="3.112745098039216" fill="#000000" fill-opacity="1"/><circle cx="252.07214207425068" cy="578.75" r="2.655228758169935" fill="#000000" fill-opacity="1"/><circle cx="258.56733260263394" cy="590" r="5.138888888888888" fill="#000000" fill-opacity="1"/><circle cx="265.06252313101726" cy="601.25" r="4.321895424836601" fill="#000000" fill-opacity="1"/><circle cx="271.5577136594005" cy="612.5" r="2.5898692810457518" fill="#000000" fill-opacity="1"/><circle cx="271.5577136594005" cy="635" r="2.1650326797385615" fill="#000000" fill-opacity="1"/><circle cx="284.5480947161671" cy="635" r="0.3022875816993459" fill="#000000" fill-opacity="1"/><circle cx="297.5384757729337" cy="635" r="0.00816993464052257" fill="#000000" fill-opacity="1"/><circle cx="362.4903810567666" cy="635" r="0.6944444444444442" fill="#000000" fill-opacity="1"/><circle cx="375.48076211353316" cy="635" r="4.125816993464052" fill="#000000" fill-opacity="1"/><circle cx="388.47114317029974" cy="635" r="3.8970588235294112" fill="#000000" fill-opacity="1"/><circle cx="401.4615242270663" cy="635" r="0.9885620915032676" fill="#000000" fill-opacity="1"/><circle cx="414.4519052838329" cy="635" r="1.7728758169934633" fill="#000000" fill-opacity="1"/><circle cx="427.4422863405995" cy="635" r="2.2630718954248357" fill="#000000" fill-opacity="1"/><circle cx="440.43266739736606" cy="612.5" r="0.7271241830065354" fill="#000000" fill-opacity="1"/><circle cx="446.9278579257493" cy="601.25" r="3.112745098039216" fill="#000000" fill-opacity="1"/><circle cx="453.42304845413264" cy="590" r="0.23692810457516367" fill="#000000" fill-opacity="1"/><circle cx="459.9182389825159" cy="578.75" r="0.23692810457516367" fill="#000000" fill-opacity="1"/><circle cx="492.3941916244323" cy="477.5" r="2.0996732026143796" fill="#000000" fill-opacity="1"/><circle cx="485.89900109604906" cy="466.25" r="0.2696078431372548" fill="#000000" fill-opacity="1"/><circle cx="388.47114317029974" cy="365" r="4.94281045751634" fill="#000000" fill-opacity="1"/><circle cx="375.48076211353316" cy="365" r="6.67483660130719" fill="#000000" fill-opacity="1"/><circle cx="362.4903810567666" cy="365" r="1.0212418300653594" fill="#000000" fill-opacity="1"/><circle cx="336.5096189432334" cy="365" r="3.6356209150326797" fill="#000000" fill-opacity="1"/><circle cx="323.51923788646684" cy="365" r="4.844771241830064" fill="#000000" fill-opacity="1"/><circle cx="310.52885682970026" cy="365" r="1.3480392156862746" fill="#000000" fill-opacity="1"/><circle cx="297.5384757729337" cy="365" r="3.9950980392156854" fill="#000000" fill-opacity="1"/><circle cx="284.5480947161671" cy="365" r="5.923202614379085" fill="#000000" fill-opacity="1"/><circle cx="271.5577136594005" cy="365" r="5.008169934640522" fill="#000000" fill-opacity="1"/><circle cx="265.06252313101726" cy="376.25" r="6.119281045751634" fill="#000000" fill-opacity="1"/><circle cx="258.56733260263394" cy="387.5" r="2.7205882352941173" fill="#000000" fill-opacity="1"/><circle cx="206.60580837556765" cy="522.5" r="0.36764705882352894" fill="#000000" fill-opacity="1"/><circle cx="213.10099890395094" cy="533.75" r="4.354575163398692" fill="#000000" fill-opacity="1"/><circle cx="219.59618943233423" cy="545" r="5.204248366013071" fill="#000000" fill-opacity="1"/><circle cx="226.09137996071752" cy="556.25" r="5.138888888888888" fill="#000000" fill-opacity="1"/><circle cx="232.58657048910078" cy="567.5" r="5.857843137254902" fill="#000000" fill-opacity="1"/><circle cx="239.0817610174841" cy="578.75" r="4.877450980392156" fill="#000000" fill-opacity="1"/><circle cx="245.57695154586736" cy="590" r="5.138888888888888" fill="#000000" fill-opacity="1"/><circle cx="252.07214207425068" cy="601.25" r="5.171568627450981" fill="#000000" fill-opacity="1"/><circle cx="258.56733260263394" cy="612.5" r="4.583333333333333" fill="#000000" fill-opacity="1"/><circle cx="265.06252313101726" cy="623.75" r="3.602941176470587" fill="#000000" fill-opacity="1"/><circle cx="265.06252313101726" cy="646.25" r="3.439542483660131" fill="#000000" fill-opacity="1"/><circle cx="278.05290418778384" cy="646.25" r="1.3153594771241828" fill="#000000" fill-opacity="1"/><circle cx="355.99519052838326" cy="646.25" r="3.733660130718954" fill="#000000" fill-opacity="1"/><circle cx="368.98557158514984" cy="646.25" r="7.5" fill="#000000" fill-opacity="1"/><circle cx="381.9759526419164" cy="646.25" r="7.197712418300653" fill="#000000" fill-opacity="1"/><circle cx="394.966333698683" cy="646.25" r="2.9820261437908493" fill="#000000" fill-opacity="1"/><circle cx="407.9567147554496" cy="646.25" r="3.700980392156862" fill="#000000" fill-opacity="1"/><circle cx="420.94709581221616" cy="646.25" r="1.8382352941176472" fill="#000000" fill-opacity="1"/><circle cx="433.93747686898274" cy="646.25" r="1.413398692810457" fill="#000000" fill-opacity="1"/><circle cx="440.43266739736606" cy="635" r="2.0996732026143796" fill="#000000" fill-opacity="1"/><circle cx="446.9278579257493" cy="623.75" r="0.6944444444444442" fill="#000000" fill-opacity="1"/><circle cx="453.42304845413264" cy="612.5" r="1.5441176470588238" fill="#000000" fill-opacity="1"/><circle cx="459.9182389825159" cy="601.25" r="5.302287581699344" fill="#000000" fill-opacity="1"/><circle cx="466.4134295108992" cy="590" r="2.7205882352941173" fill="#000000" fill-opacity="1"/><circle cx="505.38457268119896" cy="477.5" r="0.07352941176470562" fill="#000000" fill-opacity="1"/><circle cx="485.89900109604906" cy="443.75" r="0.2696078431372548" fill="#000000" fill-opacity="1"/><circle cx="433.93747686898274" cy="353.75" r="0.07352941176470562" fill="#000000" fill-opacity="1"/><circle cx="381.9759526419164" cy="353.75" r="2.5898692810457518" fill="#000000" fill-opacity="1"/><circle cx="368.98557158514984" cy="353.75" r="1.1846405228758168" fill="#000000" fill-opacity="1"/><circle cx="355.99519052838326" cy="353.75" r="0.23692810457516367" fill="#000000" fill-opacity="1"/><circle cx="343.00480947161674" cy="353.75" r="1.2826797385620916" fill="#000000" fill-opacity="1"/><circle cx="330.01442841485016" cy="353.75" r="6.282679738562091" fill="#000000" fill-opacity="1"/><circle cx="317.0240473580836" cy="353.75" r="0.23692810457516367" fill="#000000" fill-opacity="1"/><circle cx="291.0432852445504" cy="353.75" r="1.3807189542483658" fill="#000000" fill-opacity="1"/><circle cx="278.05290418778384" cy="353.75" r="3.1454248366013076" fill="#000000" fill-opacity="1"/><circle cx="265.06252313101726" cy="353.75" r="3.014705882352941" fill="#000000" fill-opacity="1"/><circle cx="258.56733260263394" cy="365" r="4.779411764705882" fill="#000000" fill-opacity="1"/><circle cx="252.07214207425068" cy="376.25" r="4.060457516339869" fill="#000000" fill-opacity="1"/><circle cx="187.12023679041778" cy="511.25" r="0.07352941176470562" fill="#000000" fill-opacity="1"/><circle cx="200.11061784718436" cy="533.75" r="1.0539215686274515" fill="#000000" fill-opacity="1"/><circle cx="206.60580837556765" cy="545" r="3.733660130718954" fill="#000000" fill-opacity="1"/><circle cx="213.10099890395094" cy="556.25" r="5.269607843137255" fill="#000000" fill-opacity="1"/><circle cx="219.59618943233423" cy="567.5" r="5.204248366013071" fill="#000000" fill-opacity="1"/><circle cx="226.09137996071752" cy="578.75" r="5.694444444444444" fill="#000000" fill-opacity="1"/><circle cx="232.58657048910078" cy="590" r="5.923202614379085" fill="#000000" fill-opacity="1"/><circle cx="239.0817610174841" cy="601.25" r="6.348039215686274" fill="#000000" fill-opacity="1"/><circle cx="245.57695154586736" cy="612.5" r="5.629084967320261" fill="#000000" fill-opacity="1"/><circle cx="252.07214207425068" cy="623.75" r="5.040849673202614" fill="#000000" fill-opacity="1"/><circle cx="258.56733260263394" cy="635" r="5.40032679738562" fill="#000000" fill-opacity="1"/><circle cx="258.56733260263394" cy="657.5" r="4.027777777777778" fill="#000000" fill-opacity="1"/><circle cx="271.5577136594005" cy="657.5" r="2.851307189542484" fill="#000000" fill-opacity="1"/><circle cx="284.5480947161671" cy="657.5" r="0.13888888888888867" fill="#000000" fill-opacity="1"/><circle cx="349.5" cy="657.5" r="1.7401960784313721" fill="#000000" fill-opacity="1"/><circle cx="362.4903810567666" cy="657.5" r="2.3937908496732025" fill="#000000" fill-opacity="1"/><circle cx="375.48076211353316" cy="657.5" r="3.3741830065359477" fill="#000000" fill-opacity="1"/><circle cx="388.47114317029974" cy="657.5" r="2.3611111111111116" fill="#000000" fill-opacity="1"/><circle cx="401.4615242270663" cy="657.5" r="4.321895424836601" fill="#000000" fill-opacity="1"/><circle cx="427.4422863405995" cy="657.5" r="1.805555555555556" fill="#000000" fill-opacity="1"/><circle cx="440.43266739736606" cy="657.5" r="1.0866013071895426" fill="#000000" fill-opacity="1"/><circle cx="446.9278579257493" cy="646.25" r="0.36764705882352894" fill="#000000" fill-opacity="1"/><circle cx="453.42304845413264" cy="635" r="1.9035947712418302" fill="#000000" fill-opacity="1"/><circle cx="459.9182389825159" cy="623.75" r="3.1454248366013076" fill="#000000" fill-opacity="1"/><circle cx="466.4134295108992" cy="612.5" r="3.831699346405229" fill="#000000" fill-opacity="1"/><circle cx="472.9086200392825" cy="601.25" r="1.1192810457516336" fill="#000000" fill-opacity="1"/><circle cx="485.89900109604906" cy="578.75" r="1.2826797385620916" fill="#000000" fill-opacity="1"/><circle cx="518.3749537379655" cy="477.5" r="2.295751633986928" fill="#000000" fill-opacity="1"/><circle cx="511.8797632095822" cy="466.25" r="3.112745098039216" fill="#000000" fill-opacity="1"/><circle cx="505.38457268119896" cy="455" r="0.17156862745097978" fill="#000000" fill-opacity="1"/><circle cx="498.88938215281564" cy="443.75" r="3.341503267973856" fill="#000000" fill-opacity="1"/><circle cx="492.3941916244323" cy="432.5" r="1.7401960784313721" fill="#000000" fill-opacity="1"/><circle cx="453.42304845413264" cy="365" r="0.9558823529411755" fill="#000000" fill-opacity="1"/><circle cx="446.9278579257493" cy="353.75" r="0.8905228758169934" fill="#000000" fill-opacity="1"/><circle cx="388.47114317029974" cy="342.5" r="0.07352941176470562" fill="#000000" fill-opacity="1"/><circle cx="375.48076211353316" cy="342.5" r="4.714052287581698" fill="#000000" fill-opacity="1"/><circle cx="362.4903810567666" cy="342.5" r="4.191176470588235" fill="#000000" fill-opacity="1"/><circle cx="349.5" cy="342.5" r="3.7663398692810452" fill="#000000" fill-opacity="1"/><circle cx="336.5096189432334" cy="342.5" r="3.8970588235294112" fill="#000000" fill-opacity="1"/><circle cx="323.51923788646684" cy="342.5" r="4.517973856209149" fill="#000000" fill-opacity="1"/><circle cx="310.52885682970026" cy="342.5" r="0.3022875816993459" fill="#000000" fill-opacity="1"/><circle cx="271.5577136594005" cy="342.5" r="0.3022875816993459" fill="#000000" fill-opacity="1"/><circle cx="258.56733260263394" cy="342.5" r="1.5441176470588238" fill="#000000" fill-opacity="1"/><circle cx="252.07214207425068" cy="353.75" r="5.531045751633986" fill="#000000" fill-opacity="1"/><circle cx="245.57695154586736" cy="365" r="3.7663398692810452" fill="#000000" fill-opacity="1"/><circle cx="174.1298557336512" cy="511.25" r="0.33496732026143783" fill="#000000" fill-opacity="1"/><circle cx="187.12023679041778" cy="533.75" r="0.10620915032679673" fill="#000000" fill-opacity="1"/><circle cx="193.61542731880107" cy="545" r="0.3022875816993459" fill="#000000" fill-opacity="1"/><circle cx="206.60580837556765" cy="567.5" r="2.5898692810457518" fill="#000000" fill-opacity="1"/><circle cx="213.10099890395094" cy="578.75" r="4.223856209150327" fill="#000000" fill-opacity="1"/><circle cx="219.59618943233423" cy="590" r="3.9950980392156854" fill="#000000" fill-opacity="1"/><circle cx="226.09137996071752" cy="601.25" r="5.792483660130718" fill="#000000" fill-opacity="1"/><circle cx="232.58657048910078" cy="612.5" r="6.282679738562091" fill="#000000" fill-opacity="1"/><circle cx="239.0817610174841" cy="623.75" r="5.40032679738562" fill="#000000" fill-opacity="1"/><circle cx="245.57695154586736" cy="635" r="4.616013071895424" fill="#000000" fill-opacity="1"/><circle cx="252.07214207425068" cy="646.25" r="4.321895424836601" fill="#000000" fill-opacity="1"/><circle cx="252.07214207425068" cy="668.75" r="4.517973856209149" fill="#000000" fill-opacity="1"/><circle cx="265.06252313101726" cy="668.75" r="4.419934640522875" fill="#000000" fill-opacity="1"/><circle cx="278.05290418778384" cy="668.75" r="2.883986928104575" fill="#000000" fill-opacity="1"/><circle cx="343.00480947161674" cy="668.75" r="0.13888888888888867" fill="#000000" fill-opacity="1"/><circle cx="355.99519052838326" cy="668.75" r="1.0866013071895426" fill="#000000" fill-opacity="1"/><circle cx="368.98557158514984" cy="668.75" r="1.1519607843137256" fill="#000000" fill-opacity="1"/><circle cx="394.966333698683" cy="668.75" r="7.066993464052288" fill="#000000" fill-opacity="1"/><circle cx="407.9567147554496" cy="668.75" r="4.844771241830064" fill="#000000" fill-opacity="1"/><circle cx="420.94709581221616" cy="668.75" r="3.1781045751633985" fill="#000000" fill-opacity="1"/><circle cx="433.93747686898274" cy="668.75" r="2.9493464052287583" fill="#000000" fill-opacity="1"/><circle cx="446.9278579257493" cy="668.75" r="0.9232026143790845" fill="#000000" fill-opacity="1"/><circle cx="453.42304845413264" cy="657.5" r="5.563725490196077" fill="#000000" fill-opacity="1"/><circle cx="466.4134295108992" cy="635" r="2.524509803921568" fill="#000000" fill-opacity="1"/><circle cx="472.9086200392825" cy="623.75" r="1.8709150326797384" fill="#000000" fill-opacity="1"/><circle cx="479.4038105676658" cy="612.5" r="0.6290849673202612" fill="#000000" fill-opacity="1"/><circle cx="485.89900109604906" cy="601.25" r="0.10620915032679673" fill="#000000" fill-opacity="1"/><circle cx="492.3941916244323" cy="590" r="0.59640522875817" fill="#000000" fill-opacity="1"/><circle cx="531.3653347947321" cy="477.5" r="2.2303921568627447" fill="#000000" fill-opacity="1"/><circle cx="524.8701442663488" cy="466.25" r="3.3741830065359477" fill="#000000" fill-opacity="1"/><circle cx="518.3749537379655" cy="455" r="3.3741830065359477" fill="#000000" fill-opacity="1"/><circle cx="511.8797632095822" cy="443.75" r="5.661764705882353" fill="#000000" fill-opacity="1"/><circle cx="505.38457268119896" cy="432.5" r="6.315359477124184" fill="#000000" fill-opacity="1"/><circle cx="498.88938215281564" cy="421.25" r="2.622549019607843" fill="#000000" fill-opacity="1"/><circle cx="492.3941916244323" cy="410" r="0.8251633986928103" fill="#000000" fill-opacity="1"/><circle cx="466.4134295108992" cy="365" r="2.4918300653594767" fill="#000000" fill-opacity="1"/><circle cx="459.9182389825159" cy="353.75" r="0.4983660130718959" fill="#000000" fill-opacity="1"/><circle cx="420.94709581221616" cy="331.25" r="1.576797385620915" fill="#000000" fill-opacity="1"/><circle cx="394.966333698683" cy="331.25" r="0.2042483660130709" fill="#000000" fill-opacity="1"/><circle cx="381.9759526419164" cy="331.25" r="5.629084967320261" fill="#000000" fill-opacity="1"/><circle cx="368.98557158514984" cy="331.25" r="6.053921568627451" fill="#000000" fill-opacity="1"/><circle cx="355.99519052838326" cy="331.25" r="4.419934640522875" fill="#000000" fill-opacity="1"/><circle cx="343.00480947161674" cy="331.25" r="1.6748366013071891" fill="#000000" fill-opacity="1"/><circle cx="330.01442841485016" cy="331.25" r="4.681372549019606" fill="#000000" fill-opacity="1"/><circle cx="245.57695154586736" cy="342.5" r="3.341503267973856" fill="#000000" fill-opacity="1"/><circle cx="239.0817610174841" cy="353.75" r="4.550653594771242" fill="#000000" fill-opacity="1"/><circle cx="232.58657048910078" cy="365" r="0.8905228758169934" fill="#000000" fill-opacity="1"/><circle cx="180.6250462620345" cy="545" r="0.10620915032679673" fill="#000000" fill-opacity="1"/><circle cx="187.12023679041778" cy="556.25" r="0.3022875816993459" fill="#000000" fill-opacity="1"/><circle cx="206.60580837556765" cy="590" r="0.00816993464052257" fill="#000000" fill-opacity="1"/><circle cx="213.10099890395094" cy="601.25" r="2.2303921568627447" fill="#000000" fill-opacity="1"/><circle cx="219.59618943233423" cy="612.5" r="5.629084967320261" fill="#000000" fill-opacity="1"/><circle cx="226.09137996071752" cy="623.75" r="5.955882352941176" fill="#000000" fill-opacity="1"/><circle cx="232.58657048910078" cy="635" r="4.94281045751634" fill="#000000" fill-opacity="1"/><circle cx="239.0817610174841" cy="646.25" r="4.060457516339869" fill="#000000" fill-opacity="1"/><circle cx="245.57695154586736" cy="657.5" r="4.256535947712417" fill="#000000" fill-opacity="1"/><circle cx="245.57695154586736" cy="680" r="2.1650326797385615" fill="#000000" fill-opacity="1"/><circle cx="258.56733260263394" cy="680" r="4.877450980392156" fill="#000000" fill-opacity="1"/><circle cx="271.5577136594005" cy="680" r="3.6356209150326797" fill="#000000" fill-opacity="1"/><circle cx="284.5480947161671" cy="680" r="2.851307189542484" fill="#000000" fill-opacity="1"/><circle cx="297.5384757729337" cy="680" r="0.07352941176470562" fill="#000000" fill-opacity="1"/><circle cx="362.4903810567666" cy="680" r="1.9362745098039214" fill="#000000" fill-opacity="1"/><circle cx="375.48076211353316" cy="680" r="1.6748366013071891" fill="#000000" fill-opacity="1"/><circle cx="388.47114317029974" cy="680" r="1.1192810457516336" fill="#000000" fill-opacity="1"/><circle cx="401.4615242270663" cy="680" r="7.5" fill="#000000" fill-opacity="1"/><circle cx="414.4519052838329" cy="680" r="0.7924836601307192" fill="#000000" fill-opacity="1"/><circle cx="427.4422863405995" cy="680" r="3.504901960784313" fill="#000000" fill-opacity="1"/><circle cx="440.43266739736606" cy="680" r="2.8186274509803915" fill="#000000" fill-opacity="1"/><circle cx="453.42304845413264" cy="680" r="1.3480392156862746" fill="#000000" fill-opacity="1"/><circle cx="459.9182389825159" cy="668.75" r="2.1323529411764706" fill="#000000" fill-opacity="1"/><circle cx="466.4134295108992" cy="657.5" r="1.2826797385620916" fill="#000000" fill-opacity="1"/><circle cx="472.9086200392825" cy="646.25" r="0.6944444444444442" fill="#000000" fill-opacity="1"/><circle cx="479.4038105676658" cy="635" r="3.3741830065359477" fill="#000000" fill-opacity="1"/><circle cx="485.89900109604906" cy="623.75" r="0.7924836601307192" fill="#000000" fill-opacity="1"/><circle cx="498.88938215281564" cy="601.25" r="6.282679738562091" fill="#000000" fill-opacity="1"/><circle cx="505.38457268119896" cy="590" r="1.7728758169934633" fill="#000000" fill-opacity="1"/><circle cx="524.8701442663488" cy="443.75" r="2.753267973856209" fill="#000000" fill-opacity="1"/><circle cx="518.3749537379655" cy="432.5" r="4.321895424836601" fill="#000000" fill-opacity="1"/><circle cx="511.8797632095822" cy="421.25" r="1.9035947712418302" fill="#000000" fill-opacity="1"/><circle cx="505.38457268119896" cy="410" r="0.00816993464052257" fill="#000000" fill-opacity="1"/><circle cx="485.89900109604906" cy="376.25" r="3.4068627450980387" fill="#000000" fill-opacity="1"/><circle cx="479.4038105676658" cy="365" r="2.295751633986928" fill="#000000" fill-opacity="1"/><circle cx="401.4615242270663" cy="320" r="1.642156862745098" fill="#000000" fill-opacity="1"/><circle cx="388.47114317029974" cy="320" r="3.2434640522875817" fill="#000000" fill-opacity="1"/><circle cx="375.48076211353316" cy="320" r="1.642156862745098" fill="#000000" fill-opacity="1"/><circle cx="362.4903810567666" cy="320" r="0.2696078431372548" fill="#000000" fill-opacity="1"/><circle cx="349.5" cy="320" r="2.3611111111111116" fill="#000000" fill-opacity="1"/><circle cx="336.5096189432334" cy="320" r="3.504901960784313" fill="#000000" fill-opacity="1"/><circle cx="239.0817610174841" cy="331.25" r="3.1454248366013076" fill="#000000" fill-opacity="1"/><circle cx="232.58657048910078" cy="342.5" r="5.759803921568627" fill="#000000" fill-opacity="1"/><circle cx="226.09137996071752" cy="353.75" r="4.28921568627451" fill="#000000" fill-opacity="1"/><circle cx="219.59618943233423" cy="365" r="0.00816993464052257" fill="#000000" fill-opacity="1"/><circle cx="167.6346652052679" cy="545" r="0.33496732026143783" fill="#000000" fill-opacity="1"/><circle cx="174.1298557336512" cy="556.25" r="0.8578431372549014" fill="#000000" fill-opacity="1"/><circle cx="180.6250462620345" cy="567.5" r="0.2042483660130709" fill="#000000" fill-opacity="1"/><circle cx="193.61542731880107" cy="590" r="3.929738562091503" fill="#000000" fill-opacity="1"/><circle cx="200.11061784718436" cy="601.25" r="2.687908496732026" fill="#000000" fill-opacity="1"/><circle cx="213.10099890395094" cy="623.75" r="0.3022875816993459" fill="#000000" fill-opacity="1"/><circle cx="219.59618943233423" cy="635" r="1.2173202614379077" fill="#000000" fill-opacity="1"/><circle cx="226.09137996071752" cy="646.25" r="2.9820261437908493" fill="#000000" fill-opacity="1"/><circle cx="232.58657048910078" cy="657.5" r="3.9624183006535945" fill="#000000" fill-opacity="1"/><circle cx="239.0817610174841" cy="668.75" r="1.9035947712418302" fill="#000000" fill-opacity="1"/><circle cx="239.0817610174841" cy="691.25" r="0.2042483660130709" fill="#000000" fill-opacity="1"/><circle cx="252.07214207425068" cy="691.25" r="2.3937908496732025" fill="#000000" fill-opacity="1"/><circle cx="265.06252313101726" cy="691.25" r="4.94281045751634" fill="#000000" fill-opacity="1"/><circle cx="278.05290418778384" cy="691.25" r="3.2761437908496727" fill="#000000" fill-opacity="1"/><circle cx="291.0432852445504" cy="691.25" r="1.1192810457516336" fill="#000000" fill-opacity="1"/><circle cx="304.033666301317" cy="691.25" r="0.00816993464052257" fill="#000000" fill-opacity="1"/><circle cx="343.00480947161674" cy="691.25" r="0.6617647058823523" fill="#000000" fill-opacity="1"/><circle cx="355.99519052838326" cy="691.25" r="3.9950980392156854" fill="#000000" fill-opacity="1"/><circle cx="368.98557158514984" cy="691.25" r="3.831699346405229" fill="#000000" fill-opacity="1"/><circle cx="381.9759526419164" cy="691.25" r="1.2826797385620916" fill="#000000" fill-opacity="1"/><circle cx="394.966333698683" cy="691.25" r="7.295751633986927" fill="#000000" fill-opacity="1"/><circle cx="407.9567147554496" cy="691.25" r="3.537581699346405" fill="#000000" fill-opacity="1"/><circle cx="420.94709581221616" cy="691.25" r="2.1323529411764706" fill="#000000" fill-opacity="1"/><circle cx="433.93747686898274" cy="691.25" r="0.9885620915032676" fill="#000000" fill-opacity="1"/><circle cx="459.9182389825159" cy="691.25" r="3.929738562091503" fill="#000000" fill-opacity="1"/><circle cx="472.9086200392825" cy="668.75" r="0.6290849673202612" fill="#000000" fill-opacity="1"/><circle cx="479.4038105676658" cy="657.5" r="4.28921568627451" fill="#000000" fill-opacity="1"/><circle cx="485.89900109604906" cy="646.25" r="1.805555555555556" fill="#000000" fill-opacity="1"/><circle cx="505.38457268119896" cy="612.5" r="0.40032679738562005" fill="#000000" fill-opacity="1"/><circle cx="511.8797632095822" cy="601.25" r="2.0669934640522873" fill="#000000" fill-opacity="1"/><circle cx="505.38457268119896" cy="387.5" r="0.9885620915032676" fill="#000000" fill-opacity="1"/><circle cx="498.88938215281564" cy="376.25" r="2.197712418300654" fill="#000000" fill-opacity="1"/><circle cx="492.3941916244323" cy="365" r="0.9558823529411755" fill="#000000" fill-opacity="1"/><circle cx="381.9759526419164" cy="308.75" r="1.8709150326797384" fill="#000000" fill-opacity="1"/><circle cx="368.98557158514984" cy="308.75" r="1.4460784313725488" fill="#000000" fill-opacity="1"/><circle cx="355.99519052838326" cy="308.75" r="2.0996732026143796" fill="#000000" fill-opacity="1"/><circle cx="343.00480947161674" cy="308.75" r="0.6944444444444442" fill="#000000" fill-opacity="1"/><circle cx="304.033666301317" cy="308.75" r="1.6748366013071891" fill="#000000" fill-opacity="1"/><circle cx="232.58657048910078" cy="320" r="1.1519607843137256" fill="#000000" fill-opacity="1"/><circle cx="226.09137996071752" cy="331.25" r="0.433006535947712" fill="#000000" fill-opacity="1"/><circle cx="219.59618943233423" cy="342.5" r="5.759803921568627" fill="#000000" fill-opacity="1"/><circle cx="213.10099890395094" cy="353.75" r="3.2761437908496727" fill="#000000" fill-opacity="1"/><circle cx="206.60580837556765" cy="365" r="0.07352941176470562" fill="#000000" fill-opacity="1"/><circle cx="148.14909362011804" cy="533.75" r="0.23692810457516367" fill="#000000" fill-opacity="1"/><circle cx="161.13947467688462" cy="556.25" r="0.00816993464052257" fill="#000000" fill-opacity="1"/><circle cx="167.6346652052679" cy="567.5" r="1.0539215686274515" fill="#000000" fill-opacity="1"/><circle cx="187.12023679041778" cy="601.25" r="1.2173202614379077" fill="#000000" fill-opacity="1"/><circle cx="193.61542731880107" cy="612.5" r="2.1323529411764706" fill="#000000" fill-opacity="1"/><circle cx="226.09137996071752" cy="668.75" r="1.9689542483660125" fill="#000000" fill-opacity="1"/><circle cx="232.58657048910078" cy="680" r="0.2042483660130709" fill="#000000" fill-opacity="1"/><circle cx="245.57695154586736" cy="702.5" r="0.433006535947712" fill="#000000" fill-opacity="1"/><circle cx="258.56733260263394" cy="702.5" r="3.504901960784313" fill="#000000" fill-opacity="1"/><circle cx="271.5577136594005" cy="702.5" r="5.236928104575163" fill="#000000" fill-opacity="1"/><circle cx="284.5480947161671" cy="702.5" r="2.3937908496732025" fill="#000000" fill-opacity="1"/><circle cx="297.5384757729337" cy="702.5" r="1.0212418300653594" fill="#000000" fill-opacity="1"/><circle cx="310.52885682970026" cy="702.5" r="0.00816993464052257" fill="#000000" fill-opacity="1"/><circle cx="336.5096189432334" cy="702.5" r="0.59640522875817" fill="#000000" fill-opacity="1"/><circle cx="349.5" cy="702.5" r="7.165032679738562" fill="#000000" fill-opacity="1"/><circle cx="362.4903810567666" cy="702.5" r="2.2303921568627447" fill="#000000" fill-opacity="1"/><circle cx="375.48076211353316" cy="702.5" r="0.5637254901960781" fill="#000000" fill-opacity="1"/><circle cx="388.47114317029974" cy="702.5" r="4.74673202614379" fill="#000000" fill-opacity="1"/><circle cx="401.4615242270663" cy="702.5" r="2.197712418300654" fill="#000000" fill-opacity="1"/><circle cx="414.4519052838329" cy="702.5" r="0.8251633986928103" fill="#000000" fill-opacity="1"/><circle cx="453.42304845413264" cy="702.5" r="0.07352941176470562" fill="#000000" fill-opacity="1"/><circle cx="472.9086200392825" cy="691.25" r="0.7271241830065354" fill="#000000" fill-opacity="1"/><circle cx="479.4038105676658" cy="680" r="2.55718954248366" fill="#000000" fill-opacity="1"/><circle cx="414.4519052838329" cy="297.5" r="0.23692810457516367" fill="#000000" fill-opacity="1"/><circle cx="375.48076211353316" cy="297.5" r="2.295751633986928" fill="#000000" fill-opacity="1"/><circle cx="362.4903810567666" cy="297.5" r="2.5898692810457518" fill="#000000" fill-opacity="1"/><circle cx="219.59618943233423" cy="320" r="5.433006535947713" fill="#000000" fill-opacity="1"/><circle cx="213.10099890395094" cy="331.25" r="2.2630718954248357" fill="#000000" fill-opacity="1"/><circle cx="206.60580837556765" cy="342.5" r="5.106209150326796" fill="#000000" fill-opacity="1"/><circle cx="200.11061784718436" cy="353.75" r="0.8578431372549014" fill="#000000" fill-opacity="1"/><circle cx="193.61542731880107" cy="365" r="0.36764705882352894" fill="#000000" fill-opacity="1"/><circle cx="135.15871256335146" cy="533.75" r="0.6290849673202612" fill="#000000" fill-opacity="1"/><circle cx="141.65390309173475" cy="545" r="1.511437908496731" fill="#000000" fill-opacity="1"/><circle cx="213.10099890395094" cy="668.75" r="0.6290849673202612" fill="#000000" fill-opacity="1"/><circle cx="219.59618943233423" cy="680" r="1.0212418300653594" fill="#000000" fill-opacity="1"/><circle cx="226.09137996071752" cy="713.75" r="1.609477124183007" fill="#000000" fill-opacity="1"/><circle cx="252.07214207425068" cy="713.75" r="1.0212418300653594" fill="#000000" fill-opacity="1"/><circle cx="265.06252313101726" cy="713.75" r="3.439542483660131" fill="#000000" fill-opacity="1"/><circle cx="278.05290418778384" cy="713.75" r="4.812091503267974" fill="#000000" fill-opacity="1"/><circle cx="291.0432852445504" cy="713.75" r="2.3611111111111116" fill="#000000" fill-opacity="1"/><circle cx="330.01442841485016" cy="713.75" r="0.40032679738562005" fill="#000000" fill-opacity="1"/><circle cx="343.00480947161674" cy="713.75" r="1.4460784313725488" fill="#000000" fill-opacity="1"/><circle cx="355.99519052838326" cy="713.75" r="0.00816993464052257" fill="#000000" fill-opacity="1"/><circle cx="381.9759526419164" cy="713.75" r="0.3022875816993459" fill="#000000" fill-opacity="1"/><circle cx="394.966333698683" cy="713.75" r="0.4656862745098031" fill="#000000" fill-opacity="1"/><circle cx="407.9567147554496" cy="713.75" r="0.6290849673202612" fill="#000000" fill-opacity="1"/><circle cx="485.89900109604906" cy="691.25" r="4.191176470588235" fill="#000000" fill-opacity="1"/><circle cx="524.8701442663488" cy="376.25" r="0.7924836601307192" fill="#000000" fill-opacity="1"/><circle cx="518.3749537379655" cy="365" r="3.929738562091503" fill="#000000" fill-opacity="1"/><circle cx="511.8797632095822" cy="353.75" r="3.504901960784313" fill="#000000" fill-opacity="1"/><circle cx="394.966333698683" cy="286.25" r="0.33496732026143783" fill="#000000" fill-opacity="1"/><circle cx="381.9759526419164" cy="286.25" r="3.439542483660131" fill="#000000" fill-opacity="1"/><circle cx="368.98557158514984" cy="286.25" r="4.28921568627451" fill="#000000" fill-opacity="1"/><circle cx="355.99519052838326" cy="286.25" r="2.5898692810457518" fill="#000000" fill-opacity="1"/><circle cx="304.033666301317" cy="286.25" r="1.1846405228758168" fill="#000000" fill-opacity="1"/><circle cx="291.0432852445504" cy="286.25" r="0.07352941176470562" fill="#000000" fill-opacity="1"/><circle cx="278.05290418778384" cy="286.25" r="0.00816993464052257" fill="#000000" fill-opacity="1"/><circle cx="206.60580837556765" cy="320" r="3.700980392156862" fill="#000000" fill-opacity="1"/><circle cx="200.11061784718436" cy="331.25" r="2.7859477124183" fill="#000000" fill-opacity="1"/><circle cx="193.61542731880107" cy="342.5" r="3.799019607843137" fill="#000000" fill-opacity="1"/><circle cx="122.16833150658488" cy="533.75" r="0.40032679738562005" fill="#000000" fill-opacity="1"/><circle cx="128.66352203496817" cy="545" r="0.10620915032679673" fill="#000000" fill-opacity="1"/><circle cx="135.15871256335146" cy="556.25" r="0.10620915032679673" fill="#000000" fill-opacity="1"/><circle cx="200.11061784718436" cy="668.75" r="1.8382352941176472" fill="#000000" fill-opacity="1"/><circle cx="206.60580837556765" cy="680" r="3.2761437908496727" fill="#000000" fill-opacity="1"/><circle cx="219.59618943233423" cy="725" r="3.668300653594771" fill="#000000" fill-opacity="1"/><circle cx="232.58657048910078" cy="725" r="4.583333333333333" fill="#000000" fill-opacity="1"/><circle cx="245.57695154586736" cy="725" r="0.13888888888888867" fill="#000000" fill-opacity="1"/><circle cx="258.56733260263394" cy="725" r="0.4656862745098031" fill="#000000" fill-opacity="1"/><circle cx="271.5577136594005" cy="725" r="4.877450980392156" fill="#000000" fill-opacity="1"/><circle cx="284.5480947161671" cy="725" r="4.354575163398692" fill="#000000" fill-opacity="1"/><circle cx="297.5384757729337" cy="725" r="1.7401960784313721" fill="#000000" fill-opacity="1"/><circle cx="401.4615242270663" cy="725" r="0.9232026143790845" fill="#000000" fill-opacity="1"/><circle cx="531.3653347947321" cy="365" r="2.4591503267973858" fill="#000000" fill-opacity="1"/><circle cx="524.8701442663488" cy="353.75" r="7.13235294117647" fill="#000000" fill-opacity="1"/><circle cx="518.3749537379655" cy="342.5" r="0.8905228758169934" fill="#000000" fill-opacity="1"/><circle cx="479.4038105676658" cy="275" r="1.2826797385620916" fill="#000000" fill-opacity="1"/><circle cx="388.47114317029974" cy="275" r="4.94281045751634" fill="#000000" fill-opacity="1"/><circle cx="375.48076211353316" cy="275" r="2.916666666666667" fill="#000000" fill-opacity="1"/><circle cx="362.4903810567666" cy="275" r="5.138888888888888" fill="#000000" fill-opacity="1"/><circle cx="349.5" cy="275" r="1.3807189542483658" fill="#000000" fill-opacity="1"/><circle cx="310.52885682970026" cy="275" r="0.6290849673202612" fill="#000000" fill-opacity="1"/><circle cx="297.5384757729337" cy="275" r="0.5637254901960781" fill="#000000" fill-opacity="1"/><circle cx="193.61542731880107" cy="320" r="1.9362745098039214" fill="#000000" fill-opacity="1"/><circle cx="187.12023679041778" cy="331.25" r="2.9493464052287583" fill="#000000" fill-opacity="1"/><circle cx="213.10099890395094" cy="713.75" r="0.8578431372549014" fill="#000000" fill-opacity="1"/><circle cx="213.10099890395094" cy="736.25" r="4.452614379084966" fill="#000000" fill-opacity="1"/><circle cx="239.0817610174841" cy="736.25" r="0.4983660130718959" fill="#000000" fill-opacity="1"/><circle cx="265.06252313101726" cy="736.25" r="1.609477124183007" fill="#000000" fill-opacity="1"/><circle cx="278.05290418778384" cy="736.25" r="4.74673202614379" fill="#000000" fill-opacity="1"/><circle cx="291.0432852445504" cy="736.25" r="4.648692810457516" fill="#000000" fill-opacity="1"/><circle cx="304.033666301317" cy="736.25" r="1.642156862745098" fill="#000000" fill-opacity="1"/><circle cx="394.966333698683" cy="736.25" r="0.36764705882352894" fill="#000000" fill-opacity="1"/><circle cx="492.3941916244323" cy="725" r="0.4983660130718959" fill="#000000" fill-opacity="1"/><circle cx="498.88938215281564" cy="713.75" r="4.387254901960784" fill="#000000" fill-opacity="1"/><circle cx="505.38457268119896" cy="702.5" r="0.00816993464052257" fill="#000000" fill-opacity="1"/><circle cx="511.8797632095822" cy="691.25" r="0.13888888888888867" fill="#000000" fill-opacity="1"/><circle cx="524.8701442663488" cy="668.75" r="1.576797385620915" fill="#000000" fill-opacity="1"/><circle cx="531.3653347947321" cy="657.5" r="2.197712418300654" fill="#000000" fill-opacity="1"/><circle cx="537.8605253231153" cy="646.25" r="1.7401960784313721" fill="#000000" fill-opacity="1"/><circle cx="544.3557158514986" cy="365" r="0.2696078431372548" fill="#000000" fill-opacity="1"/><circle cx="498.88938215281564" cy="286.25" r="2.622549019607843" fill="#000000" fill-opacity="1"/><circle cx="492.3941916244323" cy="275" r="2.0343137254901955" fill="#000000" fill-opacity="1"/><circle cx="472.9086200392825" cy="263.75" r="0.433006535947712" fill="#000000" fill-opacity="1"/><circle cx="459.9182389825159" cy="263.75" r="1.8709150326797384" fill="#000000" fill-opacity="1"/><circle cx="407.9567147554496" cy="263.75" r="0.40032679738562005" fill="#000000" fill-opacity="1"/><circle cx="394.966333698683" cy="263.75" r="1.642156862745098" fill="#000000" fill-opacity="1"/><circle cx="381.9759526419164" cy="263.75" r="6.086601307189542" fill="#000000" fill-opacity="1"/><circle cx="368.98557158514984" cy="263.75" r="1.2826797385620916" fill="#000000" fill-opacity="1"/><circle cx="355.99519052838326" cy="263.75" r="5.563725490196077" fill="#000000" fill-opacity="1"/><circle cx="343.00480947161674" cy="263.75" r="5.890522875816993" fill="#000000" fill-opacity="1"/><circle cx="304.033666301317" cy="263.75" r="0.36764705882352894" fill="#000000" fill-opacity="1"/><circle cx="278.05290418778384" cy="263.75" r="0.4656862745098031" fill="#000000" fill-opacity="1"/><circle cx="180.6250462620345" cy="320" r="0.17156862745097978" fill="#000000" fill-opacity="1"/><circle cx="206.60580837556765" cy="725" r="2.55718954248366" fill="#000000" fill-opacity="1"/><circle cx="206.60580837556765" cy="747.5" r="0.07352941176470562" fill="#000000" fill-opacity="1"/><circle cx="219.59618943233423" cy="747.5" r="3.2761437908496727" fill="#000000" fill-opacity="1"/><circle cx="232.58657048910078" cy="747.5" r="2.655228758169935" fill="#000000" fill-opacity="1"/><circle cx="258.56733260263394" cy="747.5" r="3.1454248366013076" fill="#000000" fill-opacity="1"/><circle cx="284.5480947161671" cy="747.5" r="4.975490196078431" fill="#000000" fill-opacity="1"/><circle cx="297.5384757729337" cy="747.5" r="4.158496732026143" fill="#000000" fill-opacity="1"/><circle cx="310.52885682970026" cy="747.5" r="2.4918300653594767" fill="#000000" fill-opacity="1"/><circle cx="323.51923788646684" cy="747.5" r="0.00816993464052257" fill="#000000" fill-opacity="1"/><circle cx="362.4903810567666" cy="747.5" r="0.36764705882352894" fill="#000000" fill-opacity="1"/><circle cx="388.47114317029974" cy="747.5" r="1.9362745098039214" fill="#000000" fill-opacity="1"/><circle cx="401.4615242270663" cy="747.5" r="0.00816993464052257" fill="#000000" fill-opacity="1"/><circle cx="492.3941916244323" cy="747.5" r="0.36764705882352894" fill="#000000" fill-opacity="1"/><circle cx="505.38457268119896" cy="725" r="0.13888888888888867" fill="#000000" fill-opacity="1"/><circle cx="511.8797632095822" cy="713.75" r="1.9362745098039214" fill="#000000" fill-opacity="1"/><circle cx="557.3460969082653" cy="365" r="7.491830065359477" fill="#000000" fill-opacity="1"/><circle cx="550.850906379882" cy="353.75" r="7.13235294117647" fill="#000000" fill-opacity="1"/><circle cx="544.3557158514986" cy="342.5" r="0.8578431372549014" fill="#000000" fill-opacity="1"/><circle cx="537.8605253231153" cy="331.25" r="2.8186274509803915" fill="#000000" fill-opacity="1"/><circle cx="524.8701442663488" cy="308.75" r="1.1192810457516336" fill="#000000" fill-opacity="1"/><circle cx="518.3749537379655" cy="297.5" r="1.8382352941176472" fill="#000000" fill-opacity="1"/><circle cx="511.8797632095822" cy="286.25" r="1.2826797385620916" fill="#000000" fill-opacity="1"/><circle cx="505.38457268119896" cy="275" r="0.00816993464052257" fill="#000000" fill-opacity="1"/><circle cx="498.88938215281564" cy="263.75" r="1.2173202614379077" fill="#000000" fill-opacity="1"/><circle cx="401.4615242270663" cy="252.5" r="0.8578431372549014" fill="#000000" fill-opacity="1"/><circle cx="388.47114317029974" cy="252.5" r="5.531045751633986" fill="#000000" fill-opacity="1"/><circle cx="375.48076211353316" cy="252.5" r="1.3153594771241828" fill="#000000" fill-opacity="1"/><circle cx="362.4903810567666" cy="252.5" r="0.33496732026143783" fill="#000000" fill-opacity="1"/><circle cx="310.52885682970026" cy="252.5" r="0.00816993464052257" fill="#000000" fill-opacity="1"/><circle cx="174.1298557336512" cy="308.75" r="1.0212418300653594" fill="#000000" fill-opacity="1"/><circle cx="96.18756939305172" cy="556.25" r="1.609477124183007" fill="#000000" fill-opacity="1"/><circle cx="102.68275992143501" cy="567.5" r="0.3022875816993459" fill="#000000" fill-opacity="1"/><circle cx="193.61542731880107" cy="725" r="0.2696078431372548" fill="#000000" fill-opacity="1"/><circle cx="200.11061784718436" cy="736.25" r="1.6748366013071891" fill="#000000" fill-opacity="1"/><circle cx="213.10099890395094" cy="758.75" r="7.5" fill="#000000" fill-opacity="1"/><circle cx="226.09137996071752" cy="758.75" r="1.3807189542483658" fill="#000000" fill-opacity="1"/><circle cx="265.06252313101726" cy="758.75" r="2.295751633986928" fill="#000000" fill-opacity="1"/><circle cx="291.0432852445504" cy="758.75" r="4.583333333333333" fill="#000000" fill-opacity="1"/><circle cx="304.033666301317" cy="758.75" r="3.668300653594771" fill="#000000" fill-opacity="1"/><circle cx="317.0240473580836" cy="758.75" r="2.622549019607843" fill="#000000" fill-opacity="1"/><circle cx="330.01442841485016" cy="758.75" r="1.9362745098039214" fill="#000000" fill-opacity="1"/><circle cx="343.00480947161674" cy="758.75" r="0.7924836601307192" fill="#000000" fill-opacity="1"/><circle cx="355.99519052838326" cy="758.75" r="0.433006535947712" fill="#000000" fill-opacity="1"/><circle cx="368.98557158514984" cy="758.75" r="6.315359477124184" fill="#000000" fill-opacity="1"/><circle cx="381.9759526419164" cy="758.75" r="2.3937908496732025" fill="#000000" fill-opacity="1"/><circle cx="485.89900109604906" cy="758.75" r="0.00816993464052257" fill="#000000" fill-opacity="1"/><circle cx="505.38457268119896" cy="747.5" r="1.0539215686274515" fill="#000000" fill-opacity="1"/><circle cx="511.8797632095822" cy="736.25" r="0.8578431372549014" fill="#000000" fill-opacity="1"/><circle cx="518.3749537379655" cy="725" r="5.073529411764706" fill="#000000" fill-opacity="1"/><circle cx="550.850906379882" cy="331.25" r="2.524509803921568" fill="#000000" fill-opacity="1"/><circle cx="544.3557158514986" cy="320" r="3.7663398692810452" fill="#000000" fill-opacity="1"/><circle cx="518.3749537379655" cy="275" r="2.883986928104575" fill="#000000" fill-opacity="1"/><circle cx="446.9278579257493" cy="241.25" r="0.13888888888888867" fill="#000000" fill-opacity="1"/><circle cx="394.966333698683" cy="241.25" r="0.59640522875817" fill="#000000" fill-opacity="1"/><circle cx="381.9759526419164" cy="241.25" r="4.583333333333333" fill="#000000" fill-opacity="1"/><circle cx="355.99519052838326" cy="241.25" r="4.28921568627451" fill="#000000" fill-opacity="1"/><circle cx="304.033666301317" cy="241.25" r="1.9689542483660125" fill="#000000" fill-opacity="1"/><circle cx="161.13947467688462" cy="308.75" r="1.511437908496731" fill="#000000" fill-opacity="1"/><circle cx="154.64428414850133" cy="320" r="0.10620915032679673" fill="#000000" fill-opacity="1"/><circle cx="83.19718833628514" cy="556.25" r="0.17156862745097978" fill="#000000" fill-opacity="1"/><circle cx="89.69237886466846" cy="567.5" r="0.13888888888888867" fill="#000000" fill-opacity="1"/><circle cx="193.61542731880107" cy="747.5" r="3.6356209150326797" fill="#000000" fill-opacity="1"/><circle cx="206.60580837556765" cy="770" r="0.9232026143790845" fill="#000000" fill-opacity="1"/><circle cx="297.5384757729337" cy="770" r="0.8905228758169934" fill="#000000" fill-opacity="1"/><circle cx="310.52885682970026" cy="770" r="2.197712418300654" fill="#000000" fill-opacity="1"/><circle cx="323.51923788646684" cy="770" r="1.9362745098039214" fill="#000000" fill-opacity="1"/><circle cx="336.5096189432334" cy="770" r="2.7205882352941173" fill="#000000" fill-opacity="1"/><circle cx="349.5" cy="770" r="2.4918300653594767" fill="#000000" fill-opacity="1"/><circle cx="362.4903810567666" cy="770" r="2.7205882352941173" fill="#000000" fill-opacity="1"/><circle cx="375.48076211353316" cy="770" r="1.6748366013071891" fill="#000000" fill-opacity="1"/><circle cx="492.3941916244323" cy="770" r="0.6290849673202612" fill="#000000" fill-opacity="1"/><circle cx="583.3268590217984" cy="365" r="3.6356209150326797" fill="#000000" fill-opacity="1"/><circle cx="576.8316684934151" cy="353.75" r="5.59640522875817" fill="#000000" fill-opacity="1"/><circle cx="570.3364779650318" cy="342.5" r="2.197712418300654" fill="#000000" fill-opacity="1"/><circle cx="563.8412874366486" cy="331.25" r="0.33496732026143783" fill="#000000" fill-opacity="1"/><circle cx="466.4134295108992" cy="230" r="0.40032679738562005" fill="#000000" fill-opacity="1"/><circle cx="440.43266739736606" cy="230" r="2.0996732026143796" fill="#000000" fill-opacity="1"/><circle cx="388.47114317029974" cy="230" r="0.00816993464052257" fill="#000000" fill-opacity="1"/><circle cx="349.5" cy="230" r="4.714052287581698" fill="#000000" fill-opacity="1"/><circle cx="297.5384757729337" cy="230" r="0.9885620915032676" fill="#000000" fill-opacity="1"/><circle cx="154.64428414850133" cy="297.5" r="3.0800653594771235" fill="#000000" fill-opacity="1"/><circle cx="122.16833150658488" cy="353.75" r="0.33496732026143783" fill="#000000" fill-opacity="1"/><circle cx="76.70199780790188" cy="567.5" r="0.17156862745097978" fill="#000000" fill-opacity="1"/><circle cx="180.6250462620345" cy="747.5" r="3.831699346405229" fill="#000000" fill-opacity="1"/><circle cx="317.0240473580836" cy="781.25" r="0.6617647058823523" fill="#000000" fill-opacity="1"/><circle cx="330.01442841485016" cy="781.25" r="0.8578431372549014" fill="#000000" fill-opacity="1"/><circle cx="343.00480947161674" cy="781.25" r="1.1846405228758168" fill="#000000" fill-opacity="1"/><circle cx="355.99519052838326" cy="781.25" r="0.9558823529411755" fill="#000000" fill-opacity="1"/><circle cx="472.9086200392825" cy="781.25" r="0.4656862745098031" fill="#000000" fill-opacity="1"/><circle cx="537.8605253231153" cy="736.25" r="1.0539215686274515" fill="#000000" fill-opacity="1"/><circle cx="570.3364779650318" cy="680" r="0.10620915032679673" fill="#000000" fill-opacity="1"/><circle cx="596.317240078565" cy="365" r="3.570261437908496" fill="#000000" fill-opacity="1"/><circle cx="589.8220495501816" cy="353.75" r="0.7271241830065354" fill="#000000" fill-opacity="1"/><circle cx="576.8316684934151" cy="331.25" r="5.563725490196077" fill="#000000" fill-opacity="1"/><circle cx="446.9278579257493" cy="218.75" r="0.3022875816993459" fill="#000000" fill-opacity="1"/><circle cx="291.0432852445504" cy="218.75" r="1.9362745098039214" fill="#000000" fill-opacity="1"/><circle cx="148.14909362011804" cy="286.25" r="3.8643790849673194" fill="#000000" fill-opacity="1"/><circle cx="167.6346652052679" cy="747.5" r="0.2696078431372548" fill="#000000" fill-opacity="1"/><circle cx="323.51923788646684" cy="792.5" r="0.2696078431372548" fill="#000000" fill-opacity="1"/><circle cx="336.5096189432334" cy="792.5" r="1.0539215686274515" fill="#000000" fill-opacity="1"/><circle cx="349.5" cy="792.5" r="0.9558823529411755" fill="#000000" fill-opacity="1"/><circle cx="550.850906379882" cy="736.25" r="4.060457516339869" fill="#000000" fill-opacity="1"/><circle cx="576.8316684934151" cy="691.25" r="0.2696078431372548" fill="#000000" fill-opacity="1"/><circle cx="583.3268590217984" cy="320" r="0.07352941176470562" fill="#000000" fill-opacity="1"/><circle cx="284.5480947161671" cy="207.5" r="0.13888888888888867" fill="#000000" fill-opacity="1"/><circle cx="271.5577136594005" cy="207.5" r="1.2173202614379077" fill="#000000" fill-opacity="1"/><circle cx="141.65390309173475" cy="275" r="0.6944444444444442" fill="#000000" fill-opacity="1"/><circle cx="330.01442841485016" cy="803.75" r="0.2042483660130709" fill="#000000" fill-opacity="1"/><circle cx="576.8316684934151" cy="713.75" r="1.2173202614379077" fill="#000000" fill-opacity="1"/><circle cx="128.66352203496817" cy="275" r="3.112745098039216" fill="#000000" fill-opacity="1"/><circle cx="323.51923788646684" cy="815" r="1.1846405228758168" fill="#000000" fill-opacity="1"/><circle cx="557.3460969082653" cy="770" r="0.40032679738562005" fill="#000000" fill-opacity="1"/><circle cx="589.8220495501816" cy="713.75" r="0.17156862745097978" fill="#000000" fill-opacity="1"/><circle cx="245.57695154586736" cy="185" r="0.10620915032679673" fill="#000000" fill-opacity="1"/><circle cx="115.67314097820159" cy="275" r="0.2042483660130709" fill="#000000" fill-opacity="1"/><circle cx="109.1779504498183" cy="286.25" r="3.668300653594771" fill="#000000" fill-opacity="1"/><circle cx="102.68275992143501" cy="297.5" r="3.472222222222222" fill="#000000" fill-opacity="1"/><circle cx="89.69237886466846" cy="320" r="0.433006535947712" fill="#000000" fill-opacity="1"/><circle cx="141.65390309173475" cy="770" r="0.5637254901960781" fill="#000000" fill-opacity="1"/><circle cx="317.0240473580836" cy="826.25" r="3.831699346405229" fill="#000000" fill-opacity="1"/><circle cx="563.8412874366486" cy="781.25" r="0.40032679738562005" fill="#000000" fill-opacity="1"/><circle cx="252.07214207425068" cy="173.75" r="0.8251633986928103" fill="#000000" fill-opacity="1"/><circle cx="89.69237886466846" cy="297.5" r="4.550653594771242" fill="#000000" fill-opacity="1"/><circle cx="83.19718833628514" cy="308.75" r="2.4591503267973858" fill="#000000" fill-opacity="1"/><circle cx="76.70199780790188" cy="320" r="5.923202614379085" fill="#000000" fill-opacity="1"/><circle cx="70.20680727951856" cy="331.25" r="0.531045751633987" fill="#000000" fill-opacity="1"/><circle cx="297.5384757729337" cy="837.5" r="1.8382352941176472" fill="#000000" fill-opacity="1"/><circle cx="310.52885682970026" cy="837.5" r="1.9035947712418302" fill="#000000" fill-opacity="1"/><circle cx="323.51923788646684" cy="837.5" r="0.8251633986928103" fill="#000000" fill-opacity="1"/><circle cx="349.5" cy="162.5" r="0.17156862745097978" fill="#000000" fill-opacity="1"/><circle cx="245.57695154586736" cy="162.5" r="0.9232026143790845" fill="#000000" fill-opacity="1"/><circle cx="232.58657048910078" cy="162.5" r="0.04084967320261451" fill="#000000" fill-opacity="1"/><circle cx="76.70199780790188" cy="297.5" r="2.8186274509803915" fill="#000000" fill-opacity="1"/><circle cx="70.20680727951856" cy="308.75" r="4.158496732026143" fill="#000000" fill-opacity="1"/><circle cx="63.711616751135296" cy="320" r="3.2434640522875817" fill="#000000" fill-opacity="1"/><circle cx="291.0432852445504" cy="848.75" r="1.9362745098039214" fill="#000000" fill-opacity="1"/><circle cx="304.033666301317" cy="848.75" r="4.0931372549019605" fill="#000000" fill-opacity="1"/><circle cx="317.0240473580836" cy="848.75" r="5.988562091503267" fill="#000000" fill-opacity="1"/><circle cx="330.01442841485016" cy="848.75" r="2.3284313725490198" fill="#000000" fill-opacity="1"/><circle cx="343.00480947161674" cy="848.75" r="1.3480392156862746" fill="#000000" fill-opacity="1"/><circle cx="355.99519052838326" cy="848.75" r="0.07352941176470562" fill="#000000" fill-opacity="1"/><circle cx="368.98557158514984" cy="848.75" r="0.00816993464052257" fill="#000000" fill-opacity="1"/><circle cx="226.09137996071752" cy="151.25" r="0.3022875816993459" fill="#000000" fill-opacity="1"/><circle cx="63.711616751135296" cy="297.5" r="2.295751633986928" fill="#000000" fill-opacity="1"/><circle cx="57.21642622275198" cy="308.75" r="0.8578431372549014" fill="#000000" fill-opacity="1"/><circle cx="50.721235694368715" cy="320" r="1.8709150326797384" fill="#000000" fill-opacity="1"/><circle cx="310.52885682970026" cy="860" r="0.7271241830065354" fill="#000000" fill-opacity="1"/><circle cx="323.51923788646684" cy="860" r="0.9558823529411755" fill="#000000" fill-opacity="1"/><circle cx="336.5096189432334" cy="860" r="0.4983660130718959" fill="#000000" fill-opacity="1"/></g></svg>