<?xml version="1.0" encoding="UTF-8"?>
<svg xmlns="http://www.w3.org/2000/svg" xmlns:xlink="http://www.w3.org/1999/xlink" width="10cm" height="10cm" viewBox="0 0 10 10">
<path fill="none" stroke-width="1" stroke-linecap="butt" stroke-linejoin="miter" stroke="rgb(0%, 0%, 0%)" stroke-opacity="1" stroke-miterlimit="4" d="M 0 521.015625 L 13.359375 597.890625 " transform="matrix(0.0166667, 0, 0, 0.0166667, 0, 0)"/>
<path fill="none" stroke-width="1" stroke-linecap="butt" stroke-linejoin="miter" stroke="rgb(0%, 0%, 0%)" stroke-opacity="1" stroke-miterlimit="4" d="M 0.234375 426.5625 L 8.4375 461.71875 L 15.9375 496.875 L 22.96875 532.265625 L 34.921875 596.953125 " transform="matrix(0.0166667, 0, 0, 0.0166667, 0, 0)"/>
<path fill="none" stroke-width="1" stroke-linecap="butt" stroke-linejoin="miter" stroke="rgb(0%, 0%, 0%)" stroke-opacity="1" stroke-miterlimit="4" d="M 0 343.359375 L 7.265625 372.421875 L 27.890625 450.703125 L 36.328125 485.859375 L 45.234375 526.875 L 59.296875 597.421875 " transform="matrix(0.0166667, 0, 0, 0.0166667, 0, 0)"/>
<path fill="none" stroke-width="1" stroke-linecap="butt" stroke-linejoin="miter" stroke="rgb(0%, 0%, 0%)" stroke-opacity="1" stroke-miterlimit="4" d="M 0.234375 241.640625 L 9.375 291.796875 L 17.8125 330 L 28.359375 370.546875 L 49.453125 442.734375 L 60.46875 483.046875 L 71.015625 526.875 L 86.25 597.1875 " transform="matrix(0.0166667, 0, 0, 0.0166667, 0, 0)"/>
<path fill="none" stroke-width="1" stroke-linecap="butt" stroke-linejoin="miter" stroke="rgb(0%, 0%, 0%)" stroke-opacity="1" stroke-miterlimit="4" d="M 0.234375 126.09375 L 24.140625 258.984375 L 30 288.28125 L 36.796875 317.578125 L 43.59375 343.828125 L 51.09375 369.609375 L 77.34375 449.296875 L 88.828125 486.796875 L 100.546875 530.15625 L 116.953125 597.1875 " transform="matrix(0.0166667, 0, 0, 0.0166667, 0, 0)"/>
<path fill="none" stroke-width="1" stroke-linecap="butt" stroke-linejoin="miter" stroke="rgb(0%, 0%, 0%)" stroke-opacity="1" stroke-miterlimit="4" d="M 0.234375 34.453125 L 11.484375 81.09375 L 19.921875 119.296875 L 27.421875 157.5 L 41.25 231.328125 L 48.28125 266.484375 L 54.84375 295.78125 L 61.640625 322.03125 L 69.375 347.8125 L 78.046875 373.359375 L 86.484375 395.859375 L 109.6875 454.453125 L 121.875 488.203125 L 133.59375 525.46875 L 154.453125 597.65625 " transform="matrix(0.0166667, 0, 0, 0.0166667, 0, 0)"/>
<path fill="none" stroke-width="1" stroke-linecap="butt" stroke-linejoin="miter" stroke="rgb(0%, 0%, 0%)" stroke-opacity="1" stroke-miterlimit="4" d="M 12.421875 0.703125 L 28.828125 61.40625 L 38.90625 102.1875 L 48.75 146.015625 L 64.921875 225.46875 L 72.421875 260.625 L 81.09375 295.546875 L 86.015625 312.890625 L 90.46875 327.1875 L 95.390625 341.484375 L 100.78125 355.546875 L 106.40625 369.375 L 112.5 382.96875 L 124.453125 407.109375 L 152.109375 460.546875 L 159.84375 476.71875 L 168.515625 495.9375 L 182.109375 529.21875 L 208.59375 599.296875 " transform="matrix(0.0166667, 0, 0, 0.0166667, 0, 0)"/>
<path fill="none" stroke-width="1" stroke-linecap="butt" stroke-linejoin="miter" stroke="rgb(0%, 0%, 0%)" stroke-opacity="1" stroke-miterlimit="4" d="M 2.8125 2.34375 L 19.21875 66.328125 L 27.65625 101.25 L 37.03125 145.3125 L 52.96875 227.8125 L 59.0625 257.109375 L 67.265625 292.265625 L 75.234375 321.09375 L 83.671875 346.875 L 94.21875 374.765625 L 102.421875 394.21875 L 129.375 454.453125 L 142.96875 487.734375 L 150.234375 507.421875 L 157.03125 527.34375 L 180.234375 598.59375 " transform="matrix(0.0166667, 0, 0, 0.0166667, 0, 0)"/>
<path fill="none" stroke-width="1" stroke-linecap="butt" stroke-linejoin="miter" stroke="rgb(0%, 0%, 0%)" stroke-opacity="1" stroke-miterlimit="4" d="M 33.75 1.171875 L 53.4375 67.265625 L 65.15625 110.625 L 75.703125 154.453125 L 95.390625 242.34375 L 101.25 265.546875 L 107.578125 288.75 L 114.84375 311.484375 L 123.28125 333.984375 L 131.953125 353.203125 L 142.03125 371.71875 L 149.765625 384.375 L 160.3125 399.140625 L 171.5625 413.203125 L 183.28125 426.796875 L 197.8125 441.796875 L 215.15625 458.4375 L 237.421875 478.59375 L 255.703125 494.296875 L 271.875 507.421875 L 283.828125 516.5625 L 296.25 524.765625 L 306.796875 530.859375 L 317.578125 536.25 L 328.828125 540.234375 L 337.734375 542.109375 L 346.640625 542.8125 L 352.5 542.578125 L 358.59375 541.640625 L 364.21875 540.234375 L 369.84375 538.125 L 375.234375 535.3125 L 380.390625 532.265625 L 385.3125 528.75 L 389.765625 524.765625 L 393.984375 520.546875 L 399.84375 513.75 L 403.59375 509.0625 L 408.515625 501.5625 L 413.203125 493.828125 L 417.421875 485.859375 L 425.859375 466.640625 L 433.359375 446.953125 L 439.921875 427.03125 L 447.65625 401.25 L 465 340.546875 L 472.03125 317.578125 L 478.59375 297.65625 L 490.78125 263.90625 L 513.046875 208.125 L 520.546875 188.4375 L 527.34375 168.75 L 533.90625 148.59375 L 541.875 119.765625 L 549.375 87.65625 L 556.875 52.5 L 566.25 2.34375 " transform="matrix(0.0166667, 0, 0, 0.0166667, 0, 0)"/>
<path fill="none" stroke-width="1" stroke-linecap="butt" stroke-linejoin="miter" stroke="rgb(0%, 0%, 0%)" stroke-opacity="1" stroke-miterlimit="4" d="M 22.734375 0.9375 L 41.484375 67.265625 L 51.796875 108.046875 L 61.40625 149.0625 L 79.21875 234.140625 L 88.359375 272.109375 L 92.8125 289.453125 L 97.96875 306.796875 L 102.65625 320.859375 L 107.8125 334.921875 L 113.4375 348.984375 L 118.359375 359.765625 L 124.921875 373.359375 L 130.78125 383.90625 L 138.28125 396.796875 L 146.015625 409.6875 L 180.46875 462.421875 L 197.578125 490.78125 L 213.28125 519.609375 L 241.171875 576.09375 L 254.0625 600 " transform="matrix(0.0166667, 0, 0, 0.0166667, 0, 0)"/>
<path fill="none" stroke-width="1" stroke-linecap="butt" stroke-linejoin="miter" stroke="rgb(0%, 0%, 0%)" stroke-opacity="1" stroke-miterlimit="4" d="M 55.078125 1.171875 L 79.6875 75.234375 L 91.171875 112.5 L 101.25 150.234375 L 122.109375 234.609375 L 131.015625 266.484375 L 136.40625 283.59375 L 141.328125 297.65625 L 146.953125 311.71875 L 151.875 322.5 L 160.078125 338.4375 L 164.765625 346.171875 L 169.921875 353.671875 L 175.3125 360.9375 L 181.171875 367.734375 L 187.5 374.0625 L 192.1875 378.046875 L 199.21875 383.4375 L 204.375 386.71875 L 209.53125 389.53125 L 214.921875 392.109375 L 223.359375 395.15625 L 229.21875 396.328125 L 235.3125 397.265625 L 241.171875 397.265625 L 247.265625 397.03125 L 255.9375 395.15625 L 261.796875 393.515625 L 270 389.765625 L 277.96875 385.546875 L 285.234375 380.390625 L 292.5 375 L 301.40625 367.03125 L 312.1875 356.484375 L 322.734375 345.703125 L 363.28125 301.640625 L 410.15625 251.015625 L 429.84375 228.28125 L 438.984375 216.5625 L 446.015625 206.71875 L 452.8125 196.875 L 458.90625 186.5625 L 468.984375 168.046875 L 474.140625 157.265625 L 478.828125 146.25 L 486.328125 126.5625 L 493.828125 103.828125 L 501.5625 74.765625 L 508.59375 45.703125 L 518.4375 1.640625 " transform="matrix(0.0166667, 0, 0, 0.0166667, 0, 0)"/>
<path fill="none" stroke-width="1" stroke-linecap="butt" stroke-linejoin="miter" stroke="rgb(0%, 0%, 0%)" stroke-opacity="1" stroke-miterlimit="4" d="M 43.125 1.40625 L 64.6875 70.078125 L 76.171875 110.625 L 85.78125 148.359375 L 106.171875 236.015625 L 115.3125 270.703125 L 120.703125 288.046875 L 126.328125 305.15625 L 132.890625 321.796875 L 139.21875 335.390625 L 144.609375 346.171875 L 150.703125 356.484375 L 157.265625 366.5625 L 162.421875 373.828125 L 168.046875 380.859375 L 176.25 389.765625 L 182.578125 396.09375 L 189.375 401.953125 L 196.40625 407.578125 L 203.671875 412.734375 L 211.40625 417.421875 L 219.609375 421.40625 L 228.046875 424.6875 L 233.671875 426.328125 L 242.578125 427.734375 L 248.671875 428.203125 L 254.53125 427.96875 L 263.4375 426.5625 L 269.0625 424.6875 L 277.5 421.171875 L 285 416.484375 L 292.265625 411.09375 L 299.0625 405 L 307.265625 396.328125 L 316.875 384.84375 L 326.015625 372.890625 L 358.59375 326.25 L 374.765625 304.453125 L 391.40625 283.125 L 431.015625 234.140625 L 443.4375 217.5 L 453.515625 202.5 L 464.296875 184.453125 L 473.90625 165.703125 L 482.34375 146.484375 L 490.546875 123.984375 L 497.8125 101.015625 L 504.609375 75 L 510.9375 48.75 L 521.25 1.875 " transform="matrix(0.0166667, 0, 0, 0.0166667, 0, 0)"/>
<path fill="none" stroke-width="1" stroke-linecap="butt" stroke-linejoin="miter" stroke="rgb(0%, 0%, 0%)" stroke-opacity="1" stroke-miterlimit="4" d="M 37.03125 0 L 57.1875 66.09375 L 69.375 109.453125 L 79.921875 153.046875 L 98.4375 235.078125 L 103.59375 255.46875 L 108.984375 275.625 L 115.078125 295.78125 L 121.875 315.703125 L 128.671875 332.34375 L 136.40625 348.515625 L 143.671875 361.640625 L 150 371.953125 L 156.796875 381.796875 L 164.0625 391.171875 L 172.03125 400.3125 L 180.234375 409.21875 L 188.90625 417.421875 L 198.046875 425.15625 L 207.65625 432.421875 L 217.5 438.984375 L 228.046875 444.84375 L 238.828125 450 L 247.265625 453.046875 L 255.9375 455.390625 L 264.84375 456.796875 L 270.9375 457.03125 L 279.84375 456.09375 L 285.703125 454.6875 L 291.328125 452.578125 L 299.296875 448.59375 L 306.796875 443.4375 L 313.359375 437.34375 L 319.6875 431.015625 L 327.1875 421.640625 L 335.625 409.21875 L 345 393.75 L 377.578125 333.046875 L 394.21875 304.453125 L 412.03125 276.796875 L 449.296875 222.1875 L 458.90625 206.953125 L 466.40625 194.0625 L 476.25 175.546875 L 484.6875 156.328125 L 492.421875 136.640625 L 498.984375 116.71875 L 504.84375 96.5625 L 510.703125 73.359375 L 517.5 44.0625 L 526.875 0.234375 " transform="matrix(0.0166667, 0, 0, 0.0166667, 0, 0)"/>
<path fill="none" stroke-width="1" stroke-linecap="butt" stroke-linejoin="miter" stroke="rgb(0%, 0%, 0%)" stroke-opacity="1" stroke-miterlimit="4" d="M 28.828125 2.34375 L 48.75 71.484375 L 58.828125 109.21875 L 68.4375 150 L 87.421875 238.125 L 96.796875 275.859375 L 101.71875 293.203125 L 108.046875 313.125 L 114.375 330 L 121.40625 346.640625 L 129.140625 362.8125 L 136.40625 376.171875 L 145.78125 391.40625 L 155.859375 406.40625 L 170.15625 425.625 L 205.78125 470.15625 L 222.1875 491.484375 L 237.890625 513.515625 L 269.765625 560.625 L 280.3125 575.390625 L 289.6875 587.109375 L 300 597.890625 " transform="matrix(0.0166667, 0, 0, 0.0166667, 0, 0)"/>
<path fill="none" stroke-width="1" stroke-linecap="butt" stroke-linejoin="miter" stroke="rgb(0%, 0%, 0%)" stroke-opacity="1" stroke-miterlimit="4" d="M 34.6875 0 L 56.015625 71.953125 L 66.328125 109.453125 L 76.171875 150.234375 L 96.5625 240.9375 L 101.71875 261.328125 L 107.34375 281.71875 L 113.4375 301.640625 L 120.46875 321.5625 L 128.671875 340.78125 L 136.640625 356.953125 L 144.140625 370.078125 L 150.703125 380.15625 L 159.375 392.34375 L 168.75 403.828125 L 178.828125 415.078125 L 189.375 425.625 L 200.390625 435.9375 L 212.109375 445.546875 L 224.0625 454.453125 L 236.484375 462.890625 L 246.796875 468.984375 L 257.578125 474.140625 L 265.78125 477.65625 L 277.265625 481.171875 L 286.171875 483.046875 L 295.078125 483.515625 L 301.171875 483.28125 L 307.03125 482.34375 L 315.703125 479.765625 L 323.671875 475.546875 L 328.59375 472.265625 L 333.28125 468.515625 L 337.734375 464.296875 L 341.71875 459.84375 L 348.984375 450.46875 L 357.1875 437.8125 L 365.625 422.109375 L 375.9375 400.3125 L 401.71875 339.609375 L 416.71875 306.796875 L 424.6875 290.625 L 434.765625 272.34375 L 461.71875 225.46875 L 473.203125 204.375 L 482.8125 185.625 L 492.421875 163.828125 L 497.8125 149.765625 L 503.90625 132.890625 L 509.0625 115.546875 L 513.984375 98.203125 L 523.125 60.234375 L 535.546875 1.640625 " transform="matrix(0.0166667, 0, 0, 0.0166667, 0, 0)"/>
<path fill="none" stroke-width="1" stroke-linecap="butt" stroke-linejoin="miter" stroke="rgb(0%, 0%, 0%)" stroke-opacity="1" stroke-miterlimit="4" d="M 33.515625 0.46875 L 53.203125 66.5625 L 64.453125 107.109375 L 75 150.9375 L 95.15625 241.640625 L 100.3125 262.03125 L 105.703125 282.1875 L 112.96875 305.15625 L 121.171875 327.65625 L 128.4375 344.296875 L 138.046875 362.8125 L 145.546875 375.703125 L 153.984375 388.125 L 163.125 400.3125 L 174.609375 413.90625 L 186.796875 427.03125 L 199.921875 439.6875 L 213.28125 451.640625 L 227.109375 463.125 L 241.40625 473.90625 L 253.828125 482.578125 L 266.484375 490.3125 L 277.265625 495.9375 L 288.28125 500.625 L 296.953125 503.203125 L 308.671875 505.546875 L 317.578125 506.25 L 323.671875 506.015625 L 329.53125 505.078125 L 337.96875 502.265625 L 346.171875 498.28125 L 351.09375 495 L 355.78125 491.25 L 360 487.03125 L 364.21875 482.578125 L 367.96875 477.890625 L 373.125 470.625 L 380.859375 457.734375 L 388.828125 441.5625 L 394.6875 427.96875 L 401.25 411.09375 L 427.734375 337.734375 L 435 318.046875 L 441.796875 301.40625 L 449.0625 284.765625 L 456.5625 268.59375 L 481.640625 217.5 L 490.78125 198.515625 L 500.390625 176.484375 L 507.890625 156.796875 L 517.265625 128.203125 L 521.25 113.90625 L 526.640625 93.515625 L 534.609375 58.359375 L 545.859375 2.578125 " transform="matrix(0.0166667, 0, 0, 0.0166667, 0, 0)"/>
<path fill="none" stroke-width="1" stroke-linecap="butt" stroke-linejoin="miter" stroke="rgb(0%, 0%, 0%)" stroke-opacity="1" stroke-miterlimit="4" d="M 30.9375 1.40625 L 50.390625 67.5 L 61.40625 108.046875 L 70.546875 146.015625 L 91.875 242.578125 L 96.796875 262.96875 L 102.1875 283.359375 L 109.453125 306.328125 L 117.65625 328.828125 L 125.859375 348.046875 L 135.46875 366.796875 L 144.609375 382.265625 L 154.6875 397.265625 L 165.46875 411.5625 L 176.953125 425.390625 L 190.78125 441.328125 L 237.65625 491.953125 L 273.75 532.03125 L 292.5 551.484375 L 301.171875 559.921875 L 310.3125 567.65625 L 319.921875 574.6875 L 327.65625 579.375 L 335.859375 583.125 L 344.296875 585.9375 L 350.15625 587.34375 L 359.0625 588.046875 L 365.15625 587.8125 L 374.0625 586.40625 L 379.6875 584.765625 L 388.125 581.484375 L 393.515625 578.671875 L 401.015625 573.75 L 408.28125 568.359375 L 414.84375 562.265625 L 421.171875 555.9375 L 427.03125 548.90625 L 432.1875 541.875 L 438.75 531.796875 L 443.203125 523.828125 L 448.828125 513.28125 L 453.75 502.265625 L 458.203125 491.25 L 462.421875 480 L 467.109375 465.703125 L 475.546875 436.875 L 482.34375 410.625 L 500.859375 334.921875 L 511.875 294.375 L 522.65625 260.15625 L 546.09375 188.90625 L 552.421875 168.75 L 558.75 145.78125 L 565.3125 119.53125 L 573.046875 84.375 L 579.609375 48.984375 L 588.046875 1.640625 " transform="matrix(0.0166667, 0, 0, 0.0166667, 0, 0)"/>
<path fill="none" stroke-width="1" stroke-linecap="butt" stroke-linejoin="miter" stroke="rgb(0%, 0%, 0%)" stroke-opacity="1" stroke-miterlimit="4" d="M 33.046875 0.46875 L 53.4375 69.609375 L 63.75 107.109375 L 73.59375 148.125 L 94.453125 241.640625 L 100.078125 265.078125 L 105.703125 285.234375 L 112.96875 308.203125 L 120.234375 327.890625 L 128.671875 347.109375 L 138.515625 365.625 L 147.890625 381.09375 L 156.328125 393.28125 L 165.46875 405.234375 L 177.1875 418.828125 L 189.609375 431.953125 L 202.5 444.609375 L 217.96875 458.90625 L 233.90625 472.5 L 250.078125 485.625 L 264.609375 496.40625 L 277.03125 504.609375 L 290.15625 512.34375 L 300.9375 517.5 L 312.1875 521.484375 L 321.09375 523.359375 L 330 524.0625 L 335.859375 523.828125 L 341.953125 522.890625 L 347.578125 521.484375 L 353.4375 519.609375 L 358.828125 517.03125 L 363.984375 513.984375 L 368.90625 510.703125 L 373.359375 506.71875 L 381.5625 498.046875 L 385.3125 493.125 L 390.46875 485.859375 L 395.15625 478.125 L 399.375 470.15625 L 407.109375 453.984375 L 413.671875 437.109375 L 420.703125 417.421875 L 446.484375 337.5 L 459.375 300.703125 L 472.734375 267.1875 L 496.875 212.34375 L 505.078125 193.125 L 513.75 170.625 L 520.78125 150.703125 L 529.21875 122.109375 L 537.421875 90 L 546.09375 48.984375 L 555.234375 1.875 " transform="matrix(0.0166667, 0, 0, 0.0166667, 0, 0)"/>
<path fill="none" stroke-width="1" stroke-linecap="butt" stroke-linejoin="miter" stroke="rgb(0%, 0%, 0%)" stroke-opacity="1" stroke-miterlimit="4" d="M 32.109375 1.640625 L 52.265625 70.78125 L 62.578125 108.28125 L 71.484375 146.25 L 92.34375 240 L 97.96875 263.203125 L 103.59375 283.59375 L 111.5625 309.375 L 118.828125 329.0625 L 123.515625 340.078125 L 128.671875 350.859375 L 138.515625 369.609375 L 147.890625 384.84375 L 158.203125 399.609375 L 171.328125 416.015625 L 185.15625 431.71875 L 201.796875 449.296875 L 222.890625 470.390625 L 259.453125 506.015625 L 281.484375 526.40625 L 292.734375 536.25 L 302.34375 543.515625 L 312.1875 550.3125 L 322.5 556.171875 L 330.9375 559.6875 L 339.375 562.5 L 348.28125 564.140625 L 357.1875 564.84375 L 363.28125 564.609375 L 369.140625 563.671875 L 375 562.265625 L 383.4375 558.984375 L 388.59375 556.171875 L 393.75 553.125 L 398.671875 549.375 L 405.46875 543.515625 L 409.453125 539.296875 L 415.546875 532.5 L 420.703125 525.234375 L 425.625 517.734375 L 431.71875 507.1875 L 435.703125 499.21875 L 444.140625 480 L 451.171875 460.3125 L 459.140625 434.53125 L 467.34375 405.46875 L 485.390625 335.859375 L 497.34375 295.546875 L 509.53125 258.515625 L 533.671875 190.78125 L 541.171875 168.046875 L 547.265625 147.890625 L 554.0625 121.640625 L 561.328125 89.53125 L 569.0625 51.328125 L 578.203125 1.171875 " transform="matrix(0.0166667, 0, 0, 0.0166667, 0, 0)"/>
<path fill="none" stroke-width="1" stroke-linecap="butt" stroke-linejoin="miter" stroke="rgb(0%, 0%, 0%)" stroke-opacity="1" stroke-miterlimit="4" d="M 18.046875 0.703125 L 36.328125 67.265625 L 46.40625 108.046875 L 55.078125 146.015625 L 73.359375 234.140625 L 81.328125 269.296875 L 90 301.171875 L 94.453125 315.46875 L 99.140625 329.765625 L 104.296875 343.828125 L 110.15625 357.65625 L 116.484375 371.25 L 123.046875 384.609375 L 135.9375 408.28125 L 166.171875 460.3125 L 176.015625 478.828125 L 184.21875 494.765625 L 195.46875 519.375 L 220.3125 577.265625 L 230.15625 599.0625 " transform="matrix(0.0166667, 0, 0, 0.0166667, 0, 0)"/>
<path fill="none" stroke-width="1" stroke-linecap="butt" stroke-linejoin="miter" stroke="rgb(0%, 0%, 0%)" stroke-opacity="1" stroke-miterlimit="4" d="M 76.40625 0.46875 L 104.296875 73.359375 L 115.3125 104.53125 L 120.9375 121.640625 L 127.96875 144.609375 L 148.359375 216.796875 L 156.796875 245.390625 L 161.484375 259.6875 L 166.640625 273.75 L 172.03125 287.8125 L 177.1875 298.59375 L 183.984375 311.953125 L 192.1875 324.609375 L 197.578125 331.640625 L 201.5625 336.328125 L 210.46875 344.53125 L 215.15625 348.046875 L 220.3125 351.328125 L 228.28125 355.3125 L 233.90625 357.1875 L 239.765625 358.59375 L 248.671875 359.296875 L 254.765625 359.0625 L 263.671875 357.890625 L 272.34375 355.546875 L 280.78125 352.265625 L 288.75 348.28125 L 299.0625 342.1875 L 306.5625 337.265625 L 318.75 328.359375 L 332.8125 317.109375 L 351.09375 301.40625 L 371.25 283.59375 L 390.9375 265.078125 L 405.703125 250.3125 L 418.125 237.1875 L 429.84375 223.59375 L 439.21875 211.875 L 451.171875 194.53125 L 457.5 184.453125 L 463.59375 173.90625 L 472.734375 155.15625 L 481.875 132.890625 L 489.609375 110.15625 L 498.046875 81.328125 L 505.78125 49.453125 L 516.328125 2.578125 " transform="matrix(0.0166667, 0, 0, 0.0166667, 0, 0)"/>
<path fill="none" stroke-width="1" stroke-linecap="butt" stroke-linejoin="miter" stroke="rgb(0%, 0%, 0%)" stroke-opacity="1" stroke-miterlimit="4" d="M 29.53125 1.40625 L 49.6875 70.546875 L 60.46875 111.09375 L 70.078125 151.875 L 89.296875 239.765625 L 98.671875 277.734375 L 105.46875 300.703125 L 112.265625 320.625 L 120 340.078125 L 127.5 356.484375 L 134.53125 369.609375 L 142.03125 382.734375 L 150.234375 395.15625 L 160.78125 409.921875 L 175.546875 428.671875 L 210.234375 470.15625 L 227.34375 491.015625 L 240.234375 507.65625 L 268.828125 546.09375 L 279.84375 560.390625 L 291.5625 573.984375 L 302.109375 584.765625 L 311.25 592.5 L 316.171875 596.015625 L 321.328125 599.0625 " transform="matrix(0.0166667, 0, 0, 0.0166667, 0, 0)"/>
<path fill="none" stroke-width="1" stroke-linecap="butt" stroke-linejoin="miter" stroke="rgb(0%, 0%, 0%)" stroke-opacity="1" stroke-miterlimit="4" d="M 396.796875 600 L 404.296875 594.609375 L 408.984375 591.09375 L 420 581.015625 L 430.078125 569.765625 L 435.703125 562.734375 L 441.09375 555.46875 L 450.46875 540.234375 L 458.90625 524.296875 L 467.34375 505.078125 L 474.609375 485.390625 L 481.640625 462.421875 L 488.671875 436.40625 L 495.234375 410.15625 L 511.640625 340.078125 L 523.59375 293.671875 L 533.671875 258.984375 L 557.8125 181.640625 L 562.734375 164.53125 L 568.828125 141.328125 L 575.15625 114.84375 L 581.71875 82.734375 L 587.8125 50.15625 L 595.78125 2.8125 " transform="matrix(0.0166667, 0, 0, 0.0166667, 0, 0)"/>
<path fill="none" stroke-width="1" stroke-linecap="butt" stroke-linejoin="miter" stroke="rgb(0%, 0%, 0%)" stroke-opacity="1" stroke-miterlimit="4" d="M 98.671875 1.875 L 108.28125 23.90625 L 132.1875 75.703125 L 145.078125 105.9375 L 152.578125 125.625 L 160.546875 148.125 L 180.46875 207.890625 L 189.375 233.4375 L 199.21875 258.515625 L 204.140625 269.53125 L 208.359375 277.5 L 215.859375 290.625 L 222.65625 300.234375 L 230.625 309.375 L 237.421875 315.234375 L 242.109375 318.75 L 247.265625 321.796875 L 255.703125 325.3125 L 264.375 327.421875 L 273.28125 328.125 L 282.421875 327.421875 L 291.09375 325.546875 L 299.765625 322.96875 L 307.96875 319.453125 L 316.171875 315.46875 L 326.484375 309.609375 L 339.140625 301.40625 L 348.984375 294.609375 L 363.28125 283.828125 L 375 274.21875 L 388.59375 262.5 L 401.71875 250.3125 L 412.5 239.765625 L 422.8125 228.75 L 432.421875 217.265625 L 441.5625 205.546875 L 453.515625 188.203125 L 459.609375 177.890625 L 465.234375 167.34375 L 474.140625 148.359375 L 482.8125 125.859375 L 490.3125 103.125 L 497.578125 77.109375 L 505.546875 45 L 515.390625 1.171875 " transform="matrix(0.0166667, 0, 0, 0.0166667, 0, 0)"/>
<path fill="none" stroke-width="1" stroke-linecap="butt" stroke-linejoin="miter" stroke="rgb(0%, 0%, 0%)" stroke-opacity="1" stroke-miterlimit="4" d="M 431.953125 597.65625 L 441.328125 585.9375 L 451.40625 571.171875 L 459.375 558.28125 L 466.40625 545.15625 L 474.140625 528.75 L 479.765625 514.921875 L 486.09375 498.046875 L 492.421875 478.125 L 498.046875 457.734375 L 504.609375 431.71875 L 524.765625 340.78125 L 534.609375 300 L 545.625 259.453125 L 568.59375 181.875 L 574.21875 161.484375 L 579.140625 141.09375 L 583.828125 120.703125 L 589.453125 94.21875 L 594.375 67.734375 L 600 35.15625 " transform="matrix(0.0166667, 0, 0, 0.0166667, 0, 0)"/>
<path fill="none" stroke-width="1" stroke-linecap="butt" stroke-linejoin="miter" stroke="rgb(0%, 0%, 0%)" stroke-opacity="1" stroke-miterlimit="4" d="M 120.9375 2.109375 L 133.59375 25.78125 L 166.875 82.96875 L 182.34375 112.03125 L 190.3125 127.96875 L 199.21875 147.1875 L 221.71875 199.453125 L 230.390625 218.671875 L 239.765625 237.421875 L 248.671875 252.890625 L 255.46875 262.96875 L 263.203125 272.109375 L 269.765625 278.203125 L 277.03125 283.59375 L 284.765625 288.046875 L 293.4375 291.09375 L 302.109375 292.5 L 308.203125 292.734375 L 314.0625 292.265625 L 322.96875 290.859375 L 328.828125 289.21875 L 337.265625 286.40625 L 345.46875 282.65625 L 353.671875 278.671875 L 363.984375 272.578125 L 374.0625 266.015625 L 383.671875 258.984375 L 395.390625 249.609375 L 404.296875 241.640625 L 412.96875 233.203125 L 421.40625 224.765625 L 429.375 215.859375 L 437.109375 206.484375 L 444.140625 196.875 L 453.984375 181.875 L 464.296875 163.359375 L 472.96875 144.375 L 481.640625 121.875 L 488.203125 101.953125 L 495.46875 75.9375 L 502.734375 46.875 L 513.28125 0 " transform="matrix(0.0166667, 0, 0, 0.0166667, 0, 0)"/>
<path fill="none" stroke-width="1" stroke-linecap="butt" stroke-linejoin="miter" stroke="rgb(0%, 0%, 0%)" stroke-opacity="1" stroke-miterlimit="4" d="M 110.390625 1.875 L 120.9375 23.4375 L 150 79.453125 L 164.0625 109.21875 L 177.890625 142.5 L 202.03125 207.1875 L 210.9375 229.453125 L 219.375 248.671875 L 224.765625 259.21875 L 229.21875 267.1875 L 235.78125 277.265625 L 243.046875 286.875 L 249.140625 293.4375 L 255.9375 299.296875 L 263.671875 303.984375 L 271.875 307.734375 L 280.546875 309.84375 L 289.453125 310.546875 L 295.546875 310.3125 L 304.453125 308.90625 L 313.125 306.5625 L 321.5625 303.28125 L 329.765625 299.53125 L 340.3125 293.90625 L 350.625 287.8125 L 363.046875 279.375 L 375 270.46875 L 386.71875 261.09375 L 395.625 253.125 L 406.640625 243.046875 L 417.1875 232.265625 L 425.390625 223.359375 L 433.125 214.21875 L 442.265625 202.5 L 453.984375 184.921875 L 464.296875 166.640625 L 473.203125 147.65625 L 482.109375 125.390625 L 489.375 102.65625 L 497.578125 73.59375 L 505.3125 41.484375 L 514.453125 0.703125 " transform="matrix(0.0166667, 0, 0, 0.0166667, 0, 0)"/>
<path fill="none" stroke-width="1" stroke-linecap="butt" stroke-linejoin="miter" stroke="rgb(0%, 0%, 0%)" stroke-opacity="1" stroke-miterlimit="4" d="M 457.734375 598.125 L 466.640625 582.421875 L 473.90625 569.296875 L 480.46875 555.9375 L 486.796875 542.109375 L 492.421875 528.28125 L 497.578125 514.21875 L 503.203125 497.109375 L 507.421875 482.8125 L 513.515625 459.609375 L 519.140625 436.171875 L 539.53125 339.375 L 548.203125 301.40625 L 558.75 260.625 L 577.96875 191.25 L 585 165.234375 L 593.203125 130.078125 L 599.765625 97.734375 " transform="matrix(0.0166667, 0, 0, 0.0166667, 0, 0)"/>
<path fill="none" stroke-width="1" stroke-linecap="butt" stroke-linejoin="miter" stroke="rgb(0%, 0%, 0%)" stroke-opacity="1" stroke-miterlimit="4" d="M 143.203125 0.703125 L 151.171875 13.359375 L 161.71875 27.890625 L 172.96875 41.953125 L 186.5625 57.890625 L 205.078125 77.578125 L 267.421875 142.5 L 282.1875 157.265625 L 292.96875 167.8125 L 302.109375 175.78125 L 311.484375 183.046875 L 321.328125 189.84375 L 329.296875 194.296875 L 337.5 197.8125 L 346.171875 200.390625 L 352.03125 201.328125 L 360.9375 201.796875 L 370.078125 201.09375 L 375.9375 199.6875 L 381.5625 197.8125 L 389.765625 194.296875 L 394.921875 191.25 L 400.078125 187.96875 L 409.453125 180.46875 L 417.890625 172.03125 L 425.390625 162.65625 L 433.828125 150.234375 L 439.6875 139.921875 L 446.484375 126.328125 L 452.34375 112.5 L 458.4375 95.625 L 464.0625 78.515625 L 469.921875 58.359375 L 476.015625 35.15625 L 484.921875 0.234375 " transform="matrix(0.0166667, 0, 0, 0.0166667, 0, 0)"/>
<path fill="none" stroke-width="1" stroke-linecap="butt" stroke-linejoin="miter" stroke="rgb(0%, 0%, 0%)" stroke-opacity="1" stroke-miterlimit="4" d="M 131.953125 0.703125 L 141.09375 16.171875 L 150.9375 31.40625 L 159.375 43.59375 L 190.546875 87.65625 L 208.828125 115.3125 L 225.9375 143.4375 L 250.546875 188.203125 L 259.6875 203.671875 L 267.65625 216.328125 L 276.09375 228.75 L 283.828125 237.890625 L 289.921875 244.453125 L 296.71875 250.546875 L 303.984375 255.46875 L 312.1875 259.6875 L 317.8125 261.796875 L 323.671875 263.203125 L 332.578125 263.90625 L 338.4375 263.90625 L 344.53125 263.203125 L 350.390625 262.03125 L 359.0625 259.21875 L 367.265625 255.9375 L 375.46875 251.953125 L 383.203125 247.5 L 390.703125 242.578125 L 397.96875 237.1875 L 405 231.5625 L 413.90625 223.59375 L 420.234375 217.265625 L 428.4375 208.59375 L 434.296875 201.5625 L 439.6875 194.53125 L 446.71875 184.6875 L 456.09375 169.21875 L 464.296875 153.28125 L 472.734375 134.0625 L 480 114.375 L 486.328125 94.21875 L 493.359375 68.203125 L 500.625 39.140625 L 509.296875 1.171875 " transform="matrix(0.0166667, 0, 0, 0.0166667, 0, 0)"/>
<path fill="none" stroke-width="1" stroke-linecap="butt" stroke-linejoin="miter" stroke="rgb(0%, 0%, 0%)" stroke-opacity="1" stroke-miterlimit="4" d="M 481.40625 597.890625 L 495.46875 567.890625 L 505.546875 543.046875 L 514.453125 517.5 L 522.890625 488.671875 L 528.984375 465.46875 L 535.546875 436.171875 L 555 339.140625 L 564.609375 295.078125 L 572.34375 263.203125 L 591.328125 190.546875 L 600 155.625 " transform="matrix(0.0166667, 0, 0, 0.0166667, 0, 0)"/>
<path fill="none" stroke-width="1" stroke-linecap="butt" stroke-linejoin="miter" stroke="rgb(0%, 0%, 0%)" stroke-opacity="1" stroke-miterlimit="4" d="M 168.046875 1.875 L 178.125 13.125 L 186.796875 21.328125 L 198.515625 30.703125 L 208.59375 37.265625 L 219.140625 42.65625 L 227.578125 45.9375 L 233.4375 47.34375 L 239.296875 48.515625 L 248.203125 49.21875 L 257.34375 48.515625 L 266.015625 46.40625 L 274.453125 43.125 L 279.609375 40.3125 L 284.765625 37.03125 L 291.796875 31.640625 L 300.703125 23.4375 L 310.78125 12.421875 L 320.15625 0.703125 " transform="matrix(0.0166667, 0, 0, 0.0166667, 0, 0)"/>
<path fill="none" stroke-width="1" stroke-linecap="butt" stroke-linejoin="miter" stroke="rgb(0%, 0%, 0%)" stroke-opacity="1" stroke-miterlimit="4" d="M 154.6875 2.34375 L 161.71875 11.953125 L 167.578125 18.984375 L 175.546875 27.890625 L 181.640625 34.21875 L 195 46.40625 L 204.375 53.90625 L 211.640625 59.296875 L 219.375 63.984375 L 229.6875 70.078125 L 237.65625 74.0625 L 243.28125 76.40625 L 251.71875 79.21875 L 257.578125 80.859375 L 266.484375 82.265625 L 272.578125 82.5 L 278.4375 82.03125 L 284.296875 81.09375 L 290.15625 79.453125 L 295.78125 77.109375 L 300.9375 74.296875 L 306.09375 71.015625 L 310.78125 67.265625 L 315.234375 63.28125 L 319.21875 59.0625 L 325.078125 52.265625 L 333.984375 40.078125 L 343.59375 24.84375 L 356.484375 1.171875 " transform="matrix(0.0166667, 0, 0, 0.0166667, 0, 0)"/>
<path fill="none" stroke-width="1" stroke-linecap="butt" stroke-linejoin="miter" stroke="rgb(0%, 0%, 0%)" stroke-opacity="1" stroke-miterlimit="4" d="M 148.359375 1.171875 L 155.15625 11.015625 L 164.0625 22.96875 L 171.796875 32.109375 L 182.109375 43.125 L 192.65625 53.671875 L 203.671875 63.984375 L 215.15625 73.59375 L 227.109375 82.734375 L 239.296875 91.40625 L 249.375 97.734375 L 262.5 105 L 270.703125 108.984375 L 278.90625 112.265625 L 287.578125 115.078125 L 296.484375 116.953125 L 305.390625 117.65625 L 314.296875 117.1875 L 320.15625 116.015625 L 326.015625 114.140625 L 331.40625 111.5625 L 336.5625 108.515625 L 343.59375 103.125 L 348.046875 98.90625 L 354.140625 92.34375 L 359.53125 85.078125 L 364.453125 77.578125 L 370.546875 67.265625 L 375.9375 56.484375 L 385.78125 34.6875 L 399.140625 1.171875 " transform="matrix(0.0166667, 0, 0, 0.0166667, 0, 0)"/>
<path fill="none" stroke-width="1" stroke-linecap="butt" stroke-linejoin="miter" stroke="rgb(0%, 0%, 0%)" stroke-opacity="1" stroke-miterlimit="4" d="M 145.078125 0 L 155.15625 15 L 164.0625 26.953125 L 173.671875 38.4375 L 185.859375 51.5625 L 200.859375 66.5625 L 216.09375 80.859375 L 234.140625 96.5625 L 250.546875 109.921875 L 264.84375 120.703125 L 277.03125 129.375 L 287.34375 135.703125 L 300.46875 142.96875 L 311.484375 147.65625 L 319.921875 150.46875 L 328.828125 152.34375 L 337.734375 153.046875 L 346.640625 152.34375 L 352.5 151.171875 L 361.171875 148.359375 L 368.90625 144.140625 L 376.171875 138.75 L 382.734375 132.65625 L 388.828125 125.859375 L 394.21875 118.59375 L 400.546875 108.515625 L 406.171875 97.96875 L 411.328125 86.953125 L 416.015625 75.9375 L 421.40625 61.875 L 427.265625 45 L 440.625 2.109375 " transform="matrix(0.0166667, 0, 0, 0.0166667, 0, 0)"/>
<path fill="none" stroke-width="1" stroke-linecap="butt" stroke-linejoin="miter" stroke="rgb(0%, 0%, 0%)" stroke-opacity="1" stroke-miterlimit="4" d="M 139.21875 2.109375 L 150.46875 19.921875 L 162.65625 37.03125 L 175.78125 53.4375 L 206.25 90.46875 L 222.890625 111.5625 L 242.578125 138.046875 L 273.984375 182.109375 L 283.125 194.0625 L 292.734375 205.546875 L 300.9375 214.21875 L 307.5 220.3125 L 314.765625 225.9375 L 322.265625 230.625 L 330.46875 234.375 L 336.328125 236.25 L 342.1875 237.421875 L 351.09375 238.125 L 356.953125 237.890625 L 363.046875 237.1875 L 368.90625 235.78125 L 374.53125 233.90625 L 380.15625 231.796875 L 388.359375 227.8125 L 396.09375 223.359375 L 401.015625 219.84375 L 412.734375 210.703125 L 423.515625 200.15625 L 429.375 193.59375 L 435.234375 186.5625 L 440.390625 179.296875 L 445.3125 171.796875 L 453.046875 158.671875 L 461.015625 142.734375 L 468.046875 126.09375 L 475.078125 106.40625 L 482.109375 83.4375 L 487.734375 63.046875 L 494.296875 37.03125 L 502.5 1.875 " transform="matrix(0.0166667, 0, 0, 0.0166667, 0, 0)"/>
<path fill="none" stroke-width="1" stroke-linecap="butt" stroke-linejoin="miter" stroke="rgb(0%, 0%, 0%)" stroke-opacity="1" stroke-miterlimit="4" d="M 145.078125 2.34375 L 155.15625 17.34375 L 166.171875 31.640625 L 177.890625 45.234375 L 192.1875 60.703125 L 209.0625 77.8125 L 232.96875 100.546875 L 257.34375 122.8125 L 275.390625 138.515625 L 287.109375 147.890625 L 299.0625 156.796875 L 309.375 163.125 L 317.34375 167.34375 L 325.546875 170.859375 L 337.03125 174.375 L 345.9375 176.015625 L 351.796875 176.484375 L 360.9375 175.78125 L 369.609375 173.90625 L 378.046875 170.859375 L 386.015625 166.40625 L 393.28125 161.25 L 401.953125 153.046875 L 409.6875 143.90625 L 416.484375 134.0625 L 422.578125 123.515625 L 427.96875 112.96875 L 434.0625 99.140625 L 439.453125 85.078125 L 445.3125 68.203125 L 451.40625 48.046875 L 464.296875 1.875 " transform="matrix(0.0166667, 0, 0, 0.0166667, 0, 0)"/>
<path fill="none" stroke-width="1" stroke-linecap="butt" stroke-linejoin="miter" stroke="rgb(0%, 0%, 0%)" stroke-opacity="1" stroke-miterlimit="4" d="M 503.90625 598.59375 L 516.09375 567.890625 L 525.234375 542.578125 L 534.140625 513.984375 L 541.171875 487.734375 L 547.265625 461.484375 L 552.65625 435 L 570 343.828125 L 577.734375 305.625 L 587.109375 264.609375 L 600 212.109375 " transform="matrix(0.0166667, 0, 0, 0.0166667, 0, 0)"/>
<path fill="none" stroke-width="1" stroke-linecap="butt" stroke-linejoin="miter" stroke="rgb(0%, 0%, 0%)" stroke-opacity="1" stroke-miterlimit="4" d="M 194.765625 0.703125 L 204.375 7.5 L 209.765625 10.546875 L 215.15625 12.890625 L 220.78125 15 L 226.640625 16.640625 L 232.5 17.578125 L 238.359375 18.046875 L 244.453125 18.046875 L 250.3125 17.34375 L 256.171875 15.9375 L 262.03125 14.0625 L 267.65625 11.953125 L 272.8125 9.140625 L 278.203125 6.09375 L 285.46875 1.171875 " transform="matrix(0.0166667, 0, 0, 0.0166667, 0, 0)"/>
<path fill="none" stroke-width="1" stroke-linecap="butt" stroke-linejoin="miter" stroke="rgb(0%, 0%, 0%)" stroke-opacity="1" stroke-miterlimit="4" d="M 150 0.9375 L 156.796875 10.78125 L 164.296875 20.15625 L 172.03125 29.296875 L 180.234375 38.203125 L 188.671875 46.640625 L 197.578125 54.84375 L 206.71875 62.578125 L 216.09375 69.84375 L 225.9375 76.640625 L 233.4375 81.5625 L 243.984375 87.421875 L 251.953125 91.40625 L 260.390625 94.6875 L 269.0625 97.265625 L 277.96875 98.90625 L 283.828125 99.375 L 289.921875 99.140625 L 295.78125 98.203125 L 301.640625 96.796875 L 310.078125 93.515625 L 315.234375 90.703125 L 320.390625 87.421875 L 325.078125 83.671875 L 331.40625 77.34375 L 337.265625 70.546875 L 342.65625 63.28125 L 347.578125 55.78125 L 352.265625 48.046875 L 363.515625 26.953125 L 374.765625 2.34375 " transform="matrix(0.0166667, 0, 0, 0.0166667, 0, 0)"/>
<path fill="none" stroke-width="1" stroke-linecap="butt" stroke-linejoin="miter" stroke="rgb(0%, 0%, 0%)" stroke-opacity="1" stroke-miterlimit="4" d="M 146.015625 0.234375 L 154.453125 12.65625 L 163.59375 24.609375 L 173.203125 36.09375 L 185.390625 49.21875 L 195.9375 60 L 209.296875 72.1875 L 222.890625 83.90625 L 236.953125 95.15625 L 248.90625 104.0625 L 261.328125 112.5 L 271.640625 118.828125 L 282.1875 124.453125 L 293.203125 129.140625 L 301.640625 131.953125 L 310.546875 133.828125 L 319.453125 134.53125 L 328.359375 133.828125 L 334.21875 132.421875 L 342.890625 129.609375 L 348.28125 127.03125 L 353.203125 123.75 L 360.46875 118.125 L 366.796875 111.796875 L 372.421875 105 L 377.578125 97.5 L 383.90625 87.1875 L 389.296875 76.640625 L 394.453125 65.859375 L 400.3125 52.03125 L 405.703125 37.96875 L 418.59375 1.171875 " transform="matrix(0.0166667, 0, 0, 0.0166667, 0, 0)"/>
<path fill="none" stroke-width="1" stroke-linecap="butt" stroke-linejoin="miter" stroke="rgb(0%, 0%, 0%)" stroke-opacity="1" stroke-miterlimit="4" d="M 526.171875 597.890625 L 538.125 563.90625 L 546.09375 538.125 L 553.359375 512.109375 L 559.6875 486.09375 L 564.375 465.46875 L 569.53125 438.984375 L 589.453125 329.765625 L 599.53125 279.84375 " transform="matrix(0.0166667, 0, 0, 0.0166667, 0, 0)"/>
<path fill="none" stroke-width="1" stroke-linecap="butt" stroke-linejoin="miter" stroke="rgb(0%, 0%, 0%)" stroke-opacity="1" stroke-miterlimit="4" d="M 547.5 599.296875 L 556.40625 570.46875 L 563.203125 547.5 L 568.59375 527.34375 L 575.15625 501.09375 L 581.25 471.5625 L 586.40625 445.078125 L 599.765625 368.203125 " transform="matrix(0.0166667, 0, 0, 0.0166667, 0, 0)"/>
<path fill="none" stroke-width="1" stroke-linecap="butt" stroke-linejoin="miter" stroke="rgb(0%, 0%, 0%)" stroke-opacity="1" stroke-miterlimit="4" d="M 568.828125 599.53125 L 578.4375 564.84375 L 586.171875 536.015625 L 593.4375 503.671875 L 599.53125 474.375 " transform="matrix(0.0166667, 0, 0, 0.0166667, 0, 0)"/>
<path fill="none" stroke-width="1" stroke-linecap="butt" stroke-linejoin="miter" stroke="rgb(0%, 0%, 0%)" stroke-opacity="1" stroke-miterlimit="4" d="M 590.15625 599.53125 L 599.765625 561.5625 " transform="matrix(0.0166667, 0, 0, 0.0166667, 0, 0)"/>
</svg>
