<?xml version="1.0" standalone="no"?>
<svg id="SvgjsSvg1001" width="600" height="600" xmlns="http://www.w3.org/2000/svg" version="1.1" xmlns:xlink="http://www.w3.org/1999/xlink" xmlns:svgjs="http://svgjs.com/svgjs" class="svg-paper" viewBox="0 0 600 600"><title id="SvgjsTitle2933">x=cos((x-x))|y=(x-sin(y))|dTest=0.0|sd=0.3|sm=0.2|ts=0.05 | generated with FlowLines</title><g id="SvgjsG2934"><polyline id="SvgjsPolyline2935" points="0,521.08 13.37,597.92" fill="none" stroke="#000000" stroke-width="1"/><polyline id="SvgjsPolyline2936" points="0.34,426.57 8.52,461.63 16.05,496.83 22.97,532.16 34.93,597.07" fill="none" stroke="#000000" stroke-width="1"/><polyline id="SvgjsPolyline2937" points="0.08,343.31 7.21,372.45 27.78,450.79 36.24,485.78 45.16,526.83 59.23,597.44" fill="none" stroke="#000000" stroke-width="1"/><polyline id="SvgjsPolyline2938" points="0.13,241.75 9.47,291.89 17.88,329.97 28.39,370.63 49.38,442.63 60.41,483.16 70.92,526.91 86.29,597.25" fill="none" stroke="#000000" stroke-width="1"/><polyline id="SvgjsPolyline2939" points="0.34,126.05 24.14,258.94 30.06,288.35 36.72,317.6 43.52,343.72 51.13,369.63 77.46,449.4 88.83,486.7 100.47,530.16 116.86,597.19" fill="none" stroke="#000000" stroke-width="1"/><polyline id="SvgjsPolyline2940" points="0.3,34.5 11.53,81.17 19.84,119.27 27.44,157.53 41.22,231.25 48.29,266.55 54.88,295.81 61.62,321.96 69.33,347.83 78.05,373.38 86.53,395.83 109.72,454.41 121.88,488.29 133.64,525.48 154.34,597.56" fill="none" stroke="#000000" stroke-width="1"/><polyline id="SvgjsPolyline2941" points="12.38,0.61 28.75,61.45 39.02,102.17 48.85,146.08 64.96,225.46 72.53,260.66 81.13,295.61 86.03,312.93 90.51,327.25 95.38,341.43 100.69,355.46 106.43,369.32 112.59,383 124.51,407.22 152.14,460.48 159.96,476.69 168.57,495.84 182.14,529.19 208.68,599.33" fill="none" stroke="#000000" stroke-width="1"/><polyline id="SvgjsPolyline2942" points="2.84,2.39 19.22,66.33 27.56,101.35 36.96,145.35 53.03,227.8 59.11,257.18 67.28,292.24 75.24,321.16 83.57,346.84 94.22,374.88 102.43,394.21 129.47,454.41 143,487.77 150.26,507.48 157.11,527.33 180.27,598.66" fill="none" stroke="#000000" stroke-width="1"/><polyline id="SvgjsPolyline2943" points="33.7,1.18 53.37,67.32 65.27,110.71 75.8,154.46 95.41,242.3 101.17,265.6 107.55,288.73 114.83,311.6 123.33,334.04 131.99,353.17 141.95,371.65 149.88,384.38 160.25,399.09 171.45,413.18 183.34,426.69 197.89,441.83 215.16,458.49 237.4,478.63 255.61,494.26 271.93,507.48 283.93,516.47 296.35,524.87 306.71,530.94 317.51,536.14 328.83,540.12 337.62,542.01 346.58,542.74 352.58,542.49 358.51,541.63 364.32,540.13 369.94,538.05 375.33,535.41 380.44,532.28 385.27,528.72 389.82,524.8 394.07,520.58 399.96,513.77 403.58,508.99 408.59,501.51 413.16,493.76 417.36,485.8 425.96,466.65 433.36,447 439.94,427.06 447.7,401.2 465.04,340.63 472.06,317.68 478.6,297.73 490.85,263.88 512.99,208.11 520.47,188.49 527.45,168.68 533.83,148.67 541.87,119.78 549.49,87.67 556.77,52.41 566.2,2.29" fill="none" stroke="#000000" stroke-width="1"/><polyline id="SvgjsPolyline2944" points="22.69,0.95 41.39,67.37 51.9,108.03 61.29,148.97 79.32,234.08 88.26,272.04 92.91,289.43 98.02,306.69 102.71,320.93 107.86,335.02 113.51,348.91 118.42,359.87 125.03,373.33 130.69,383.91 138.18,396.91 146.03,409.68 180.45,462.45 197.55,490.67 213.28,519.68 241.27,576.12 254.04,599.9" fill="none" stroke="#000000" stroke-width="1"/><polyline id="SvgjsPolyline2945" points="55.01,1.21 79.71,75.2 91.06,112.5 101.21,150.16 122.14,234.6 130.94,266.41 136.35,283.57 141.33,297.72 146.87,311.66 151.78,322.61 160.13,338.55 164.81,346.24 169.87,353.68 175.33,360.83 181.24,367.62 187.59,373.99 192.09,377.96 199.24,383.42 204.27,386.69 209.51,389.6 214.95,392.13 223.45,395.08 229.3,396.41 235.25,397.18 241.24,397.36 247.23,396.95 256.05,395.24 261.77,393.44 270.04,389.88 277.89,385.48 285.34,380.44 292.45,374.92 301.48,367.02 312.24,356.57 322.62,345.75 363.17,301.53 410.22,251.06 429.78,228.32 439.02,216.5 446.05,206.78 452.73,196.81 459.02,186.59 469.02,168.13 474.17,157.29 478.92,146.27 486.36,126.63 493.72,103.8 501.66,74.87 508.67,45.7 518.36,1.75" fill="none" stroke="#000000" stroke-width="1"/><polyline id="SvgjsPolyline2946" points="43.23,1.42 64.72,70.13 76.23,110.53 85.76,148.34 106.2,235.99 115.38,270.8 120.59,288.02 126.4,305.06 132.97,321.82 139.15,335.48 144.63,346.16 150.63,356.55 157.19,366.59 162.49,373.86 168.13,380.88 176.19,389.77 182.63,396.05 189.39,402 196.41,407.62 203.78,412.79 211.5,417.41 219.56,421.41 227.96,424.63 233.73,426.28 242.58,427.85 248.57,428.22 254.56,428 263.43,426.51 269.17,424.76 277.39,421.13 285.09,416.48 292.26,411.05 298.95,405.03 307.25,396.36 316.86,384.85 325.91,372.88 358.69,326.25 374.67,304.49 391.29,283.22 430.92,234.24 443.44,217.39 453.52,202.48 464.3,184.46 473.89,165.78 482.29,146.54 490.57,124.02 497.71,101.1 504.7,75.03 510.97,48.76 521.24,1.87" fill="none" stroke="#000000" stroke-width="1"/><polyline id="SvgjsPolyline2947" points="37.14,0.02 57.19,66.04 69.26,109.39 79.92,153.11 98.47,235.03 103.49,255.43 108.95,275.7 115.04,295.8 121.96,315.62 128.74,332.3 136.45,348.56 143.67,361.7 150,371.9 156.82,381.77 164.14,391.28 171.93,400.4 180.19,409.11 188.89,417.37 198.02,425.16 207.57,432.42 217.56,439.06 228.02,444.94 238.9,449.99 247.34,453.12 256.03,455.44 264.93,456.74 270.92,456.93 279.87,456.07 285.71,454.69 291.36,452.67 299.36,448.58 306.73,443.43 313.47,437.46 319.64,430.92 327.14,421.55 335.62,409.18 344.9,393.76 377.63,333.02 394.13,304.45 411.95,276.68 449.3,222.26 458.91,207.04 466.46,194.08 476.17,175.46 484.79,156.32 492.35,136.73 498.98,116.8 504.84,96.64 510.82,73.4 517.57,44.17 526.98,0.16" fill="none" stroke="#000000" stroke-width="1"/><polyline id="SvgjsPolyline2948" points="28.84,2.32 48.84,71.49 58.79,109.2 68.39,150.09 87.53,238.02 96.87,275.89 101.77,293.21 108.16,313.21 114.35,330.11 121.31,346.71 129.13,362.92 136.32,376.08 145.71,391.44 155.84,406.31 170.21,425.53 205.77,470.08 222.11,491.57 237.83,513.53 269.8,560.71 280.35,575.3 289.73,587 299.96,597.96" fill="none" stroke="#000000" stroke-width="1"/><polyline id="SvgjsPolyline2949" points="34.64,0.01 56.11,71.87 66.36,109.5 76.23,150.32 96.62,241.05 101.69,261.43 107.23,281.69 113.44,301.75 120.52,321.52 128.69,340.86 136.72,356.97 144.18,369.98 150.67,380.07 159.42,392.25 168.83,403.93 178.85,415.08 189.43,425.72 200.49,435.85 212.02,445.45 223.99,454.47 236.45,462.83 246.8,468.9 257.54,474.23 265.89,477.6 277.33,481.21 286.15,482.97 295.12,483.61 301.11,483.3 307.03,482.34 315.61,479.67 323.64,475.62 328.61,472.27 333.27,468.49 337.62,464.36 341.68,459.94 349.07,450.49 357.18,437.88 365.74,422.05 375.92,400.32 401.67,339.55 416.64,306.81 424.73,290.73 434.68,272.24 461.66,225.46 473.27,204.46 482.72,185.71 492.43,163.76 497.87,149.79 503.79,132.79 509.12,115.6 513.94,98.25 523.1,60.35 535.45,1.63" fill="none" stroke="#000000" stroke-width="1"/><polyline id="SvgjsPolyline2950" points="33.6,0.47 53.29,66.6 64.38,107.11 74.93,150.85 95.22,241.61 100.27,262 105.79,282.26 112.92,305.17 121.22,327.69 128.4,344.19 137.97,362.88 145.64,375.77 154,388.22 163.01,400.21 174.6,413.98 186.91,427.11 199.83,439.64 213.25,451.63 227.13,463.09 241.47,473.97 253.81,482.49 266.6,490.33 277.22,495.92 288.26,500.6 296.84,503.3 308.6,505.66 317.57,506.3 323.56,505.98 329.48,505.03 338.07,502.37 346.1,498.33 351.07,494.98 355.73,491.19 360.07,487.05 364.12,482.62 367.89,477.96 373.1,470.62 380.79,457.75 388.81,441.64 394.77,427.88 401.36,411.13 427.63,337.68 435.08,318.05 441.84,301.37 449,284.85 456.54,268.51 481.75,217.39 490.75,198.41 500.28,176.39 507.8,156.79 512.68,142.6 517.16,128.29 521.29,113.87 526.56,93.54 534.56,58.44 545.86,2.57" fill="none" stroke="#000000" stroke-width="1"/><polyline id="SvgjsPolyline2951" points="31.05,1.33 50.48,67.53 61.4,108.09 70.47,146.02 91.84,242.68 96.84,263.08 102.3,283.35 109.35,306.29 117.54,328.85 125.86,348.13 135.41,366.83 144.6,382.3 154.67,397.22 165.51,411.59 176.95,425.48 190.85,441.22 237.71,491.87 273.83,532.01 292.43,551.58 301.11,559.86 310.23,567.66 319.92,574.73 327.64,579.36 335.77,583.19 344.31,586.02 350.18,587.26 359.14,588.03 365.13,587.79 374.01,586.35 379.78,584.72 388.13,581.38 393.47,578.64 401.09,573.86 408.24,568.4 414.92,562.37 421.15,555.88 426.93,548.98 432.29,541.76 438.83,531.7 443.31,523.89 448.78,513.21 453.74,502.28 458.25,491.17 462.4,479.91 467.14,465.67 475.54,436.88 482.32,410.74 500.94,335 511.97,294.48 522.55,260.07 546.21,188.9 552.37,168.82 558.84,145.71 565.36,119.51 572.95,84.32 579.66,48.95 587.96,1.68" fill="none" stroke="#000000" stroke-width="1"/><polyline id="SvgjsPolyline2952" points="32.96,0.52 53.42,69.55 63.65,107.18 73.5,148.01 94.4,241.71 100.18,265 105.77,285.24 113,308.12 120.3,327.81 128.73,347.04 138.43,365.66 147.81,381.02 156.36,393.34 165.52,405.22 177.22,418.9 189.56,432.01 202.4,444.62 217.89,458.8 233.82,472.47 250.19,485.62 264.65,496.35 277.1,504.71 290.06,512.26 300.89,517.41 312.2,521.4 320.98,523.33 329.94,524.09 335.94,523.83 341.86,522.92 347.69,521.51 353.38,519.62 358.84,517.12 364.01,514.09 368.88,510.59 373.44,506.69 381.66,497.96 385.37,493.24 390.49,485.84 395.14,478.14 399.41,470.22 407.02,453.91 413.73,437.21 420.79,417.43 446.44,337.45 459.36,300.65 472.72,267.23 496.96,212.34 505.16,193.01 513.85,170.64 520.72,150.79 529.31,122.05 537.37,90.05 546.19,48.99 555.35,1.87" fill="none" stroke="#000000" stroke-width="1"/><polyline id="SvgjsPolyline2953" points="32.03,1.62 52.36,70.69 62.49,108.35 71.59,146.27 92.36,239.99 98.07,263.3 103.57,283.57 111.63,309.34 118.92,329.03 123.58,340.09 128.62,350.97 138.46,369.52 147.92,384.83 158.27,399.55 171.32,416 185.19,431.78 201.71,449.18 222.92,470.4 259.43,506 281.37,526.46 292.76,536.22 302.23,543.59 312.14,550.35 322.61,556.21 330.86,559.78 339.46,562.43 348.28,564.21 357.25,564.89 363.24,564.6 369.17,563.7 374.98,562.22 383.37,558.98 388.69,556.21 393.77,553.02 398.6,549.46 405.36,543.53 409.57,539.25 415.43,532.42 420.8,525.2 425.72,517.67 431.66,507.24 435.71,499.21 444.05,479.94 451.21,460.2 459.24,434.42 467.23,405.51 485.5,335.87 497.24,295.54 509.51,258.52 533.78,190.74 541.24,167.93 547.21,147.79 554.08,121.69 561.42,89.51 569.01,51.26 578.1,1.08" fill="none" stroke="#000000" stroke-width="1"/><polyline id="SvgjsPolyline2954" points="17.93,0.78 36.23,67.31 46.52,108.03 55.1,146.07 73.41,234.19 81.44,269.28 89.96,301.16 94.35,315.5 99.15,329.71 104.41,343.76 110.15,357.62 116.37,371.27 123.05,384.7 136.01,408.38 166.16,460.26 176.13,478.74 184.21,494.82 195.57,519.31 220.29,577.26 230.19,599.12" fill="none" stroke="#000000" stroke-width="1"/><polyline id="SvgjsPolyline2955" points="76.31,0.58 104.25,73.4 115.34,104.48 120.94,121.58 127.95,144.54 148.25,216.74 156.81,245.49 161.48,259.74 166.54,273.86 172.13,287.78 177.1,298.7 184.09,311.97 192.17,324.6 197.67,331.73 201.63,336.23 210.36,344.45 215.14,348.07 220.21,351.29 228.29,355.22 233.97,357.16 239.81,358.5 248.76,359.36 254.76,359.17 263.65,357.85 272.32,355.44 280.7,352.17 288.79,348.22 299.15,342.17 306.65,337.2 318.75,328.34 332.81,317.1 351.06,301.51 371.17,283.5 390.87,265.04 405.77,250.24 418.12,237.14 429.91,223.55 439.22,211.78 451.28,194.6 457.6,184.4 463.5,173.95 472.78,155.12 481.89,132.92 489.65,110.21 497.94,81.38 505.85,49.35 516.3,2.5" fill="none" stroke="#000000" stroke-width="1"/><polyline id="SvgjsPolyline2956" points="29.57,1.29 49.68,70.43 60.43,111.02 70.03,151.91 89.27,239.83 98.73,277.66 105.48,300.69 112.24,320.57 119.98,340.09 127.52,356.43 134.5,369.71 142.09,382.65 150.26,395.23 160.73,409.86 175.54,428.74 210.3,470.07 227.36,491 240.24,507.59 268.88,546.1 279.89,560.34 291.52,574.07 302.04,584.76 311.21,592.49 316.11,595.95 321.24,599.07" fill="none" stroke="#000000" stroke-width="1"/><polyline id="SvgjsPolyline2957" points="396.82,599.9 404.18,594.72 408.88,591 419.98,580.91 430.1,569.85 435.71,562.82 440.99,555.52 450.55,540.28 458.9,524.34 467.29,505.09 474.51,485.38 481.66,462.47 488.74,436.41 495.17,410.19 511.53,340.07 523.49,293.59 533.58,259.03 557.81,181.74 562.78,164.44 568.89,141.24 575.06,114.95 581.74,82.63 587.73,50.18 595.85,2.87" fill="none" stroke="#000000" stroke-width="1"/><polyline id="SvgjsPolyline2958" points="98.58,1.89 108.2,23.87 132.1,75.62 145.01,105.99 152.57,125.58 160.66,148.18 180.49,207.97 189.35,233.48 199.26,258.59 204.22,269.51 208.27,277.55 215.79,290.53 222.7,300.33 230.61,309.34 237.31,315.34 242.17,318.85 247.35,321.89 255.63,325.39 264.37,327.47 273.34,328.11 282.31,327.4 291.11,325.58 299.69,322.86 308.01,319.44 316.1,315.49 326.55,309.6 339.18,301.5 348.99,294.6 363.34,283.73 374.99,274.28 388.62,262.53 401.83,250.3 412.47,239.73 422.7,228.76 432.45,217.36 441.63,205.51 453.43,188.14 459.56,177.83 465.26,167.26 474.17,148.26 482.91,125.9 490.37,103.1 497.64,77.1 505.48,45.04 515.28,1.12" fill="none" stroke="#000000" stroke-width="1"/><polyline id="SvgjsPolyline2959" points="432.03,597.74 441.22,585.89 451.47,571.09 459.29,558.3 466.44,545.11 474.13,528.84 479.85,514.97 486,498.06 492.35,478.04 497.99,457.81 504.52,431.62 524.8,340.85 534.63,300.02 545.67,259.5 568.63,181.83 574.14,161.56 579.24,141.19 583.92,120.72 589.38,94.28 594.35,67.74 599.97,35.22" fill="none" stroke="#000000" stroke-width="1"/><polyline id="SvgjsPolyline2960" points="120.88,2.02 133.52,25.88 166.79,82.88 182.45,111.92 190.39,128.07 199.18,147.15 221.72,199.5 230.33,218.66 239.68,237.46 248.74,253 255.58,262.86 263.3,272.04 269.8,278.26 276.98,283.67 284.86,288 293.33,291 302.19,292.53 308.19,292.74 314.17,292.36 323.04,290.83 328.83,289.28 337.32,286.31 345.57,282.71 353.59,278.62 363.94,272.56 373.96,265.95 383.66,258.89 395.36,249.5 404.38,241.59 413.08,233.32 421.44,224.72 429.43,215.76 437.01,206.47 444.17,196.83 454.04,181.79 464.23,163.43 473.05,144.38 481.66,121.98 488.17,102.02 495.48,76.03 502.67,46.9 513.23,0.08" fill="none" stroke="#000000" stroke-width="1"/><polyline id="SvgjsPolyline2961" points="110.5,1.9 121,23.48 149.99,79.41 164.07,109.26 177.89,142.49 202.13,207.09 210.95,229.41 219.45,248.61 224.84,259.33 229.23,267.19 235.68,277.31 242.98,286.82 249.15,293.37 256.01,299.19 263.58,304.05 271.81,307.66 280.53,309.84 289.49,310.54 295.48,310.26 304.37,308.85 313.04,306.47 321.48,303.35 329.68,299.64 340.28,294.01 350.54,287.79 362.96,279.38 374.99,270.42 386.66,261 395.73,253.15 406.73,242.95 417.3,232.31 425.41,223.46 433.17,214.31 442.32,202.43 454.01,184.99 464.31,166.69 473.26,147.7 482.01,125.36 489.49,102.55 497.53,73.65 505.3,41.58 514.45,0.59" fill="none" stroke="#000000" stroke-width="1"/><polyline id="SvgjsPolyline2962" points="457.68,598.04 466.75,582.49 473.89,569.3 480.57,555.87 486.74,542.2 492.4,528.3 497.56,514.22 503.16,497.11 507.39,482.73 513.52,459.52 519.05,436.17 539.6,339.33 548.27,301.3 558.67,260.61 578.05,191.27 584.92,165.16 593.16,130.11 599.76,97.78" fill="none" stroke="#000000" stroke-width="1"/><polyline id="SvgjsPolyline2963" points="143.11,0.62 151.19,13.25 161.67,27.89 172.87,41.98 186.63,57.83 205.03,77.59 267.48,142.4 282.22,157.36 293.06,167.73 302.05,175.67 311.45,183.13 321.39,189.84 329.27,194.19 337.53,197.74 346.15,200.3 352.06,201.35 361.04,201.85 369.99,201 375.85,199.72 381.56,197.9 389.79,194.27 395.02,191.33 400.02,188.02 409.35,180.48 417.79,171.95 425.38,162.66 433.78,150.24 439.74,139.83 446.37,126.38 452.23,112.57 458.47,95.69 464.03,78.57 469.9,58.41 476.07,35.22 484.81,0.29" fill="none" stroke="#000000" stroke-width="1"/><polyline id="SvgjsPolyline2964" points="132.02,0.67 141.12,16.2 150.86,31.33 159.34,43.71 190.62,87.73 208.84,115.24 225.83,143.53 250.63,188.09 259.63,203.68 267.57,216.4 276.17,228.69 283.75,237.99 289.96,244.5 296.72,250.43 304.1,255.58 312.1,259.68 317.74,261.71 323.57,263.11 332.52,264.02 338.51,263.86 344.47,263.14 350.34,261.93 358.96,259.33 367.3,255.96 375.36,251.96 383.15,247.46 390.68,242.52 397.95,237.22 404.96,231.58 413.92,223.6 420.34,217.29 428.49,208.48 434.27,201.59 439.78,194.48 446.68,184.66 456.06,169.3 464.33,153.32 472.72,134.07 479.95,114.36 486.28,94.33 493.43,68.3 500.55,39.16 509.2,1.13" fill="none" stroke="#000000" stroke-width="1"/><polyline id="SvgjsPolyline2965" points="481.5,597.93 495.41,568 505.62,543.01 514.53,517.53 523,488.75 528.89,465.48 535.47,436.22 554.98,339.16 564.54,295.19 572.3,263.11 591.33,190.57 599.9,155.6" fill="none" stroke="#000000" stroke-width="1"/><polyline id="SvgjsPolyline2966" points="168.15,1.81 178.09,13.03 186.75,21.34 198.44,30.73 208.51,37.25 219.2,42.68 227.62,45.85 233.4,47.45 239.3,48.57 248.26,49.23 257.23,48.55 265.98,46.5 274.34,43.17 279.63,40.35 284.68,37.12 291.84,31.66 300.66,23.53 310.78,12.47 320.19,0.79" fill="none" stroke="#000000" stroke-width="1"/><polyline id="SvgjsPolyline2967" points="154.62,2.35 161.78,11.97 167.47,18.94 175.47,27.89 181.75,34.33 195.05,46.46 204.43,53.93 211.75,59.18 219.3,64.06 229.69,70.07 237.76,74.06 243.28,76.4 251.79,79.32 257.6,80.8 266.49,82.18 272.48,82.43 278.47,82.07 284.38,81.08 290.15,79.44 295.71,77.18 301,74.36 306.01,71.05 310.72,67.34 315.16,63.3 319.33,59 325.17,52.15 333.98,40.02 343.48,24.73 356.46,1.06" fill="none" stroke="#000000" stroke-width="1"/><polyline id="SvgjsPolyline2968" points="148.28,1.15 155.08,11.04 164.17,22.96 171.89,32.15 182.04,43.2 192.67,53.77 203.74,63.89 215.21,73.56 227.07,82.74 239.33,91.38 249.47,97.8 262.58,105.08 270.69,108.99 279.02,112.38 287.6,115.1 296.4,116.95 305.36,117.7 314.34,117.12 320.21,115.93 325.92,114.07 331.38,111.59 336.54,108.55 343.7,103.1 348.08,99 354.1,92.31 359.54,85.15 364.5,77.64 370.51,67.26 375.98,56.58 385.79,34.68 399.04,1.2" fill="none" stroke="#000000" stroke-width="1"/><polyline id="SvgjsPolyline2969" points="145.01,0.02 155.08,14.94 164.15,26.88 173.77,38.39 185.92,51.67 200.75,66.54 216.12,80.84 234.21,96.61 250.46,109.91 264.78,120.82 277.08,129.4 287.26,135.75 300.44,142.9 311.44,147.7 319.99,150.48 328.79,152.34 337.76,153.07 346.73,152.46 352.6,151.26 361.09,148.29 369.01,144.04 376.27,138.73 382.85,132.59 388.79,125.83 394.16,118.61 400.55,108.46 406.24,97.9 411.35,87.04 416.01,75.99 421.35,61.97 427.23,44.96 440.64,2" fill="none" stroke="#000000" stroke-width="1"/><polyline id="SvgjsPolyline2970" points="139.16,2.2 150.47,19.89 162.73,36.94 175.67,53.47 206.18,90.53 222.98,111.67 242.67,138.15 273.97,182.15 283.06,194.09 292.68,205.59 300.95,214.28 307.61,220.33 314.73,225.83 322.38,230.57 330.54,234.34 336.25,236.19 342.11,237.45 351.07,238.19 357.06,237.93 363.01,237.12 368.85,235.79 374.58,234 380.17,231.82 388.27,227.9 396.02,223.33 400.98,219.96 412.72,210.63 423.49,200.2 429.48,193.48 435.13,186.48 440.44,179.21 445.42,171.71 453,158.78 461.02,142.67 468.03,126.09 475.14,106.33 482.21,83.4 487.72,63.14 494.23,36.93 502.4,1.87" fill="none" stroke="#000000" stroke-width="1"/><polyline id="SvgjsPolyline2971" points="145.15,2.42 155.25,17.31 166.19,31.6 177.83,45.33 192.09,60.74 209.02,77.76 232.91,100.52 257.25,122.8 275.36,138.55 287.04,147.96 299.17,156.79 309.32,163.17 317.27,167.38 325.54,170.93 337.03,174.39 345.87,176.01 351.86,176.41 360.83,175.89 369.62,174 378.03,170.81 385.91,166.47 393.19,161.19 401.94,152.99 409.68,143.83 416.51,133.97 422.58,123.62 428,112.91 434.05,99.19 439.44,85.19 445.28,68.17 451.47,48.1 464.32,1.85" fill="none" stroke="#000000" stroke-width="1"/><polyline id="SvgjsPolyline2972" points="503.88,598.63 516.09,567.97 525.21,542.56 534.13,513.92 541.08,487.83 547.21,461.53 552.74,435.11 570.11,343.74 577.82,305.52 587.02,264.53 599.93,212.1" fill="none" stroke="#000000" stroke-width="1"/><polyline id="SvgjsPolyline2973" points="194.65,0.69 204.48,7.55 209.72,10.47 215.16,12.99 220.79,15.07 226.58,16.64 232.49,17.67 238.47,18.12 244.46,17.98 250.42,17.24 256.27,15.94 261.99,14.12 267.54,11.84 272.91,9.17 278.1,6.17 285.57,1.15" fill="none" stroke="#000000" stroke-width="1"/><polyline id="SvgjsPolyline2974" points="150,0.89 156.89,10.71 164.23,20.21 171.98,29.36 180.13,38.17 188.64,46.63 197.49,54.74 206.66,62.48 216.14,69.83 225.95,76.74 233.53,81.59 243.97,87.5 252.07,91.42 260.43,94.75 269.04,97.34 277.89,98.96 283.87,99.37 289.87,99.16 295.8,98.28 301.59,96.72 309.98,93.48 315.29,90.68 320.29,87.37 324.98,83.64 331.46,77.4 337.35,70.59 342.72,63.38 347.69,55.87 352.31,48.15 363.48,26.91 374.88,2.44" fill="none" stroke="#000000" stroke-width="1"/><polyline id="SvgjsPolyline2975" points="146.13,0.19 154.54,12.61 163.58,24.58 173.2,36.08 185.4,49.32 196.03,59.9 209.24,72.13 222.88,83.87 236.92,95.13 248.95,104.09 261.34,112.54 271.57,118.81 282.15,124.47 293.16,129.24 301.72,132.01 310.52,133.86 319.49,134.53 328.45,133.79 334.29,132.45 342.8,129.53 348.2,126.93 353.31,123.78 360.37,118.22 366.74,111.86 372.47,104.93 377.65,97.57 383.85,87.3 389.41,76.66 394.47,65.78 400.26,51.95 405.63,37.94 418.53,1.14" fill="none" stroke="#000000" stroke-width="1"/><polyline id="SvgjsPolyline2976" points="526.24,597.99 538.04,563.98 546.15,538.23 553.4,512.22 559.8,485.99 564.28,465.48 569.57,439 589.38,329.78 599.43,279.78" fill="none" stroke="#000000" stroke-width="1"/><polyline id="SvgjsPolyline2977" points="547.53,599.18 556.46,570.54 563.21,547.51 568.68,527.24 575.05,501 581.34,471.67 586.43,445.15 599.69,368.29" fill="none" stroke="#000000" stroke-width="1"/><polyline id="SvgjsPolyline2978" points="568.85,599.62 578.55,564.95 586.09,535.91 593.51,503.76 599.48,474.36" fill="none" stroke="#000000" stroke-width="1"/><polyline id="SvgjsPolyline2979" points="590.18,599.43 599.79,561.63" fill="none" stroke="#000000" stroke-width="1"/></g></svg>