<?xml version="1.0" standalone="no"?>
<svg id="SvgjsSvg1001" width="600" height="600" xmlns="http://www.w3.org/2000/svg" version="1.1" xmlns:xlink="http://www.w3.org/1999/xlink" xmlns:svgjs="http://svgjs.com/svgjs" class="svg-paper" viewBox="0 0 600 600"><title id="SvgjsTitle2522">x=cos(sqrt(x*x + y*y))|y=sin(max(x,cos(max(y/x,y))*min(x,y)))|dTest=0.0|sd=0.4|sm=0.2|ts=0.05 | generated with FlowLines</title><g id="SvgjsG2523"><polyline id="SvgjsPolyline2524" points="0,521.08 8.1,517.15 13.68,514.94 22.31,512.42 28.23,511.47 34.22,511.31 40.16,512.11 43.05,512.91 48.56,515.27 51.15,516.79 55.97,520.35 60.36,524.43 64.42,528.85 71.94,538.2 90.06,562.11 95.8,569.05 99.9,573.42 104.36,577.43 109.33,580.78 112.03,582.07 114.89,582.99 117.84,583.49 120.84,583.51 123.8,583.07 126.68,582.21 132.03,579.53 134.49,577.81 138.98,573.84 142.92,569.32 146.33,564.39 149.19,559.12 151.45,553.56 153.01,547.77 153.63,541.81 153.37,538.83 152.36,536.02 149.86,534.95 147.87,536.96" fill="none" stroke="#000000" stroke-width="1"/><polyline id="SvgjsPolyline2525" points="1.13,541.24 7.02,540.12 12.99,539.52 18.98,539.47 21.97,539.75 27.85,540.92 30.71,541.82 38.88,545.57 46.34,550.59 55.48,558.36 64.13,566.68 82.89,586.09 89.59,592.09 97.05,597.1 102.6,599.35 105.53,599.98" fill="none" stroke="#000000" stroke-width="1"/><polyline id="SvgjsPolyline2526" points="0.6,498.04 20.15,484.12 40.25,471.02 48.01,466.45 53.37,463.76 56.18,462.72 59.13,462.27 61.93,463.21 63.96,465.4 66.7,470.72 83.46,515.7 89.46,529.45 94.79,540.2 99.14,548.07 103.91,555.7 109.35,562.86 113.56,567.14 118.45,570.59 121.19,571.81 124.09,572.53 127.09,572.69 130.05,572.27 132.9,571.33 138.05,568.29 140.34,566.35 144.34,561.9 146.07,559.45 148.99,554.21 151.12,548.6 151.84,545.69 152.26,542.72 152.27,539.73 151.5,536.85" fill="none" stroke="#000000" stroke-width="1"/><polyline id="SvgjsPolyline2527" points="2.29,506.28 12.66,500.23 20.72,496.23 29.1,492.97 34.91,491.48 40.87,490.92 43.86,491.13 49.63,492.71 55.14,495.05 57.63,496.72 62.08,500.74 67.71,507.75 72.6,515.3 90.87,546.32 95.75,553.88 100.98,561.2 106.84,568.03 111.31,572.02 116.42,575.14 119.24,576.17 122.18,576.72 125.18,576.74 128.13,576.23 130.97,575.27 136.17,572.3 138.5,570.42 142.68,566.12 147.73,558.69 150.27,553.25 151.26,550.42 152.59,544.58 152.81,541.59 152.56,538.61 151.34,535.92" fill="none" stroke="#000000" stroke-width="1"/><polyline id="SvgjsPolyline2528" points="139.01,599.96 142.75,595.27 147.96,587.93 153.94,577.54 156.4,572.07 158.44,566.43 160.02,560.64 161.1,554.74 161.68,545.77 161.18,539.79 159.56,534.03 158.02,531.47 155.68,529.64 152.75,529.49 150.18,530.98 148.31,533.31 147.17,536.07 147.21,538.99" fill="none" stroke="#000000" stroke-width="1"/><polyline id="SvgjsPolyline2529" points="0.89,559.41 6.87,559.72 15.68,561.56 21.35,563.5 29.34,567.62 36.77,572.69 46.15,580.18 55,588.28 65.65,598.84" fill="none" stroke="#000000" stroke-width="1"/><polyline id="SvgjsPolyline2530" points="0.52,471.88 8.82,463.21 14.72,456.42 20.19,449.28 25.05,441.7 29.07,433.66 31.19,428.05 33.5,419.36 34.81,410.46 35.31,398.47 34.56,383.49 32.56,365.61 26.14,321.07 23.6,300.22 21.59,276.31 20.9,261.32 20.87,252.33" fill="none" stroke="#000000" stroke-width="1"/><polyline id="SvgjsPolyline2531" points="1.71,493.12 30.1,470.99 36.89,465.08 43.1,458.58 46.52,453.66 48.94,448.18 49.72,445.28 51,436.38 50.7,427.4 48.93,415.53 45.87,400.85 33.17,345.28 29.64,327.63 27.07,312.85 24.93,298.01 23.26,283.1 22.06,268.15 21.32,253.17" fill="none" stroke="#000000" stroke-width="1"/><polyline id="SvgjsPolyline2532" points="300.42,205.75 264.42,206.01 252.44,206.67 243.5,207.75 234.74,209.78 229.15,211.95 223.99,214.98 219.46,218.9 215.68,223.56 212.63,228.72 210.17,234.19 207.34,242.73 205.23,251.48 203.16,263.3 198.31,305.01 196.91,313.9 195.08,322.71 191.71,334.23 188.4,342.59 184.39,350.65 179.74,358.35 172.67,368.04 162.74,379.28 151.96,389.7 138.25,401.36 119.16,415.9 99.5,429.66 76.89,444.42 69.07,448.87 66.28,449.96 63.44,449.54 61.76,447.09 57.79,435.77 44.69,389.6 39.42,369.27 33.88,345.92 28.53,319.46 24.88,295.74 22.71,274.85 21.69,259.89 21.42,250.9" fill="none" stroke="#000000" stroke-width="1"/><polyline id="SvgjsPolyline2533" points="275.86,210.09 278.51,211.48 284.2,213.35 290.11,214.4 296.09,214.79 299.07,214.55 301.78,213.31 303.73,211.07 304.27,208.17 302.77,205.75 263.77,206.04 251.79,206.75 242.87,207.91 234.15,210.1 228.62,212.43 223.57,215.65 221.3,217.6 217.32,222.09 214.11,227.15 211.54,232.57 209.49,238.21 207.15,246.89 205.43,255.73 203.8,267.61 200.54,306.48 198.56,321.34 196.71,330.15 194.22,338.79 191.01,347.2 187.09,355.3 184.1,360.5 179.14,368 173.67,375.15 167.81,381.98 159.52,390.65 150.85,398.94 114.67,430.49 103.79,440.81 97.77,447.49 94.16,452.29 91.04,457.41 88.56,462.87 86.64,468.55 85.29,474.39 84.62,483.36 84.89,489.35 85.59,495.31 87.94,507.07 92.22,521.44 95.4,529.86 98.99,538.11 105.96,551.38 109.23,556.41 112.91,561.15 117.18,565.35 119.61,567.12 122.25,568.53 125.09,569.47 128.07,569.82 131.05,569.54 133.92,568.69 136.61,567.36 139.08,565.67 143.41,561.53 146.92,556.67 148.37,554.05 150.65,548.5 151.43,545.61 151.9,542.65 151.93,539.65 151.11,536.8" fill="none" stroke="#000000" stroke-width="1"/><polyline id="SvgjsPolyline2534" points="162.73,599.5 168.7,599.66" fill="none" stroke="#000000" stroke-width="1"/><polyline id="SvgjsPolyline2535" points="153.65,599.19 168.31,584.15 174.83,577.96 180.06,575.04 182.99,574.77 185.46,576.41 187.23,578.83 196.35,597.73" fill="none" stroke="#000000" stroke-width="1"/><polyline id="SvgjsPolyline2536" points="154.57,598.19 181.52,569.99 183.06,567.42 183.8,564.52 183.97,558.53 183.34,552.57 181.81,543.7 180.41,537.87 178.64,532.14 176.36,526.59 173.32,521.43 171.38,519.14 169.09,517.21 166.42,515.86 163.48,515.29 160.5,515.55 157.67,516.51 155.08,518.01 150.71,522.1 147.45,527.12 146.27,529.88 145.43,532.76 145,535.72 145.23,538.7" fill="none" stroke="#000000" stroke-width="1"/><polyline id="SvgjsPolyline2537" points="0.21,578.54 5.89,580.46 11.34,582.96 16.56,585.92 26.4,592.78 33.3,598.55" fill="none" stroke="#000000" stroke-width="1"/><polyline id="SvgjsPolyline2538" points="1.42,438.98 6.48,431.54 11.01,423.77 13.68,418.39 17.11,410.07 19.8,401.49 21.19,395.65 22.28,389.75 23.41,380.83 24.11,368.85 24.08,353.85 19.95,281.97 19.58,263.98 19.65,257.98 20.12,252" fill="none" stroke="#000000" stroke-width="1"/><polyline id="SvgjsPolyline2539" points="269.74,206.19 260.84,207.44 257.99,208.38 255.43,209.95 253.74,212.41 253.27,215.36 253.75,218.31 254.84,221.11 256.34,223.7 260.17,228.31 262.38,230.34 267.21,233.88 275.21,237.99 283.78,240.69 289.69,241.73 298.67,242.14 304.61,241.32 310.3,239.45 315.54,236.54 317.92,234.72 322.07,230.4 325.23,225.32 327.23,219.67 327.78,216.72 327.93,210.74 326.87,204.84 325.91,202 323.17,196.67 321.41,194.24 317.18,190 312.11,186.83 309.31,185.75 306.39,185.06 291.44,183.96 285.55,182.86 279.76,181.27 268.59,176.92 257.97,171.34 245.43,163.13 231.31,151.96 215.79,137.82 196.74,118.69 186.58,107.65 178.92,98.43 172.07,88.58 167.84,80.64 164.66,72.23 162.69,63.45 161.93,54.49 162.39,45.51 164.33,36.74 166.76,31.26 168.41,28.76 170.38,26.5 172.64,24.54 175.16,22.9 177.85,21.59 183.56,19.76 192.44,18.33 207.41,17.49 297.41,17.26" fill="none" stroke="#000000" stroke-width="1"/><polyline id="SvgjsPolyline2540" points="303.11,205.69 291.2,204.59 279.4,202.43 270.7,200.1 259.4,196.09 248.5,191.08 238.04,185.19 230.47,180.34 220.81,173.22 211.62,165.5 200.63,155.29 153.59,109.01 145.41,100.23 140.11,92.97 137.37,87.63 135.51,81.94 134.92,79 134.35,73.03 134.65,64.04 135.97,55.14 138.17,46.42 141.44,38.04 144.44,32.85 146.25,30.46 150.55,26.29 155.63,23.12 161.21,20.94 167.04,19.53 172.97,18.64 190.93,17.54 298.93,17.26" fill="none" stroke="#000000" stroke-width="1"/><polyline id="SvgjsPolyline2541" points="301.77,213.01 303.63,210.7 303.96,207.78 302.17,205.73 266.17,205.45 254.19,204.82 242.25,203.62 230.42,201.65 221.67,199.53 210.29,195.72 202,192.23 194.04,188.04 188.95,184.86 184.05,181.41 177.02,175.79 168.16,167.7 146.89,146.54 135.63,136.64 125.81,129.76 120.52,126.94 114.92,124.8 109.03,123.71 106.03,123.72 103.07,124.15 97.45,126.21 92.36,129.37 78.34,140.66 73.48,144.18 65.74,148.76 60.41,150.93" fill="none" stroke="#000000" stroke-width="1"/><polyline id="SvgjsPolyline2542" points="261.61,205.86 234.62,206.71 225.65,207.43 216.72,208.57 207.9,210.34 202.14,211.99 191.02,216.49 183.21,220.95 178.37,224.5 173.84,228.43 165.56,237.11 148.08,257.68 141.69,264.02 137.1,267.88 129.64,272.9 124.29,275.62 118.69,277.75 112.89,279.28 106.96,280.17 97.97,280.39 89.04,279.35 80.29,277.24 74.61,275.33 66.3,271.87 58.24,267.87 37.15,256.42 28.92,252.78 23.23,250.94" fill="none" stroke="#000000" stroke-width="1"/><polyline id="SvgjsPolyline2543" points="257.96,206.07 240,207.19 231.09,208.44 225.23,209.72 219.49,211.48 213.98,213.85 206.39,218.66 199.86,224.83 194.34,231.93 188.1,242.18 172.39,271.19 165.73,281.17 159.99,288.09 155.75,292.34 151.18,296.22 143.76,301.31 138.48,304.16 132.97,306.52 124.35,309.08 115.45,310.38 109.46,310.5 103.48,310.02 97.58,308.95 91.81,307.31 86.23,305.12 80.87,302.42 73.31,297.54 64.16,289.8 55.86,281.14 38.32,260.61 33.94,256.52 28.97,253.18" fill="none" stroke="#000000" stroke-width="1"/><polyline id="SvgjsPolyline2544" points="254.51,206.36 239.59,207.9 233.71,209.08 227.96,210.79 222.46,213.18 219.86,214.67 217.38,216.35 212.87,220.3 207.26,227.32 204.21,232.49 201.58,237.88 197.18,249.04 187.84,277.55 182.48,291.55 178.64,299.69 174.36,307.61 167.78,317.64 162.09,324.61 155.77,331 151.22,334.92 143.94,340.2 136.17,344.73 130.74,347.28 122.27,350.33 116.45,351.77 107.54,352.93 101.54,352.94 92.63,351.73 86.87,350.07 81.34,347.75 73.59,343.19 68.84,339.53 62.35,333.31 56.57,326.41 51.45,319.01 46.92,311.24 42.93,303.17 39.44,294.88 36.37,286.42 27.52,257.76 26.38,254.98 24.86,252.41" fill="none" stroke="#000000" stroke-width="1"/><polyline id="SvgjsPolyline2545" points="246.05,207.21 240.12,208.12 234.27,209.46 228.61,211.42 223.27,214.16 220.8,215.85 216.33,219.84 212.56,224.5 209.43,229.62 205.71,237.81 201.97,249.2 199.03,260.84 191.94,293.06 189.6,301.76 186.84,310.32 183.53,318.69 179.6,326.78 175,334.52 169.77,341.84 163.95,348.7 155.38,357.09 146.12,364.72 138.8,369.95 128.49,376.09 120.38,379.98 111.96,383.14 103.23,385.33 94.29,386.22 88.3,385.89 82.43,384.68 79.59,383.73 74.17,381.18 69.18,377.84 62.58,371.74 56.93,364.74 52.04,357.19 46.44,346.58 41.66,335.57 37.55,324.3 34.02,312.84 31.02,301.22 28.55,289.48 26.06,274.68 23.55,256.86 22.26,251.03" fill="none" stroke="#000000" stroke-width="1"/><polyline id="SvgjsPolyline2546" points="301.69,205.76 262.69,206.06 253.71,206.54 244.76,207.48 235.94,209.24 230.25,211.15 224.9,213.84 220.09,217.41 215.98,221.78 212.6,226.73 209.85,232.06 206.62,240.45 204.15,249.11 202.19,257.89 195.32,299.32 193.52,308.14 191.29,316.86 188.5,325.41 185.08,333.73 180.99,341.75 176.25,349.39 169.03,358.97 158.82,369.95 147.6,379.9 135.59,388.89 122.91,396.89 109.53,403.66 103.95,405.86 98.23,407.64 89.39,409.32 83.41,409.68 77.46,408.93 71.84,406.87 66.83,403.59 62.51,399.44 57.11,392.25 52.64,384.44 47.61,373.55 42.28,359.53 37.7,345.25 32.99,327.88 29.69,313.25 26.97,298.5 25.23,286.63 23.54,271.72 21.71,250.8" fill="none" stroke="#000000" stroke-width="1"/><polyline id="SvgjsPolyline2547" points="272.1,205.9 263.11,206.28 254.16,207.19 248.28,208.37 242.63,210.38 240.01,211.83 237.61,213.63 235.53,215.79 233.8,218.24 231.45,223.74 230.34,229.63 230.18,235.63 231.15,244.57 233.12,253.34 235.05,259.02 238.76,267.22 241.74,272.42 246.91,279.78 252.87,286.53 257.24,290.63 261.92,294.38 266.89,297.74 272.13,300.66 277.61,303.09 283.31,304.98 289.17,306.24 295.14,306.77 304.13,306.45 310.09,305.74 315.94,304.44 321.65,302.59 327.15,300.21 332.43,297.36 339.82,292.24 344.37,288.33 350.56,281.8 354.22,277.05 357.48,272.01 360.32,266.73 362.72,261.23 364.65,255.55 366.11,249.74 367.1,243.82 367.6,237.84 367.63,231.84 367.21,225.86 366.36,219.92 365.08,214.06 363.42,208.3 360.22,199.89 354.75,189.22 347.99,179.31 344.15,174.7 340,170.37 335.54,166.36 330.78,162.71 323.09,158.06 314.78,154.61 306.01,152.65 294.04,151.96 285.18,150.44 279.41,148.78 273.8,146.67 263.04,141.37 250.44,133.25 243.26,127.81 234.08,120.08 227.46,114 218.96,105.53 210.9,96.64 205.23,89.65 199.99,82.33 195.34,74.63 192.63,69.28 189.3,60.92 186.96,52.24 186.07,46.31 185.82,40.32 186.45,34.36 187.22,31.46 188.37,28.69 189.96,26.15 192,23.96 194.42,22.19 197.1,20.84 202.83,19.12 208.76,18.21 217.74,17.59" fill="none" stroke="#000000" stroke-width="1"/><polyline id="SvgjsPolyline2548" points="266.39,206.02 254.41,206.77 248.46,207.55 242.6,208.81 236.93,210.77 234.25,212.11 229.39,215.61 227.3,217.76 223.9,222.69 222.57,225.38 220.56,231.03 218.8,239.85 218.29,245.82 218.2,251.82 218.74,260.8 219.52,266.75 220.6,272.65 222.75,281.39 225.36,290 228.43,298.46 231.99,306.73 235.99,314.79 240.44,322.61 245.42,330.1 249.11,334.83 253.21,339.21 255.46,341.19 260.41,344.58 265.9,346.94 268.86,347.43 271.85,347.31 274.76,346.62 277.53,345.47 282.65,342.35 289.86,336.96 292.63,335.99 301.57,336.16 307.54,335.61 313.41,334.37 321.87,331.34 329.83,327.16 337.23,322.04 344.06,316.19 350.32,309.72 357.72,300.29 364.01,290.07 369.07,279.2 371.98,270.69 374.62,258.99 375.61,250.04 375.62,238.05 374.16,226.15 372.17,217.37 369.44,208.8 366.03,200.48 360.47,189.84 355.59,182.29 350.1,175.16 344.02,168.53 337.33,162.51 332.53,158.92 327.46,155.71 322.13,152.96 316.56,150.74 307.83,148.57 292.88,147.53 284.05,145.85 275.5,143.05 264.65,137.94 256.93,133.33 249.52,128.22 242.39,122.72 235.52,116.91 222.48,104.51 216.33,97.93 210.49,91.09 205.04,83.93 201.69,78.95 197.18,71.17 194.59,65.76 192.38,60.18 190.62,54.45 189.35,48.58 188.67,42.63 188.75,36.63 189.18,33.66 189.95,30.77 191.13,28.01 192.79,25.51 194.9,23.4 197.39,21.72 200.11,20.47 205.89,18.89" fill="none" stroke="#000000" stroke-width="1"/><polyline id="SvgjsPolyline2549" points="243.05,208.24 237.26,209.79 231.73,212.12 226.73,215.41 222.52,219.67 219.19,224.65 216.66,230.09 214.78,235.78 212.88,244.58 211.82,253.51 211.4,262.5 211.51,271.5 212.07,280.48 213.79,295.38 219.74,333.92 220.97,348.86 220.76,357.86 220.04,363.81 218.76,369.67 215.71,378.13 212.97,383.47 208.03,390.98 204.31,395.69 198.34,402.42 187.75,413.04 155,443.89 146.71,452.57 138.92,461.7 131.87,471.41 127.27,479.14 123.42,487.27 120.48,495.77 119.08,501.6 117.88,510.52 117.75,519.51 118.25,525.49 119.86,534.34 121.55,540.09 123.83,545.64 126.88,550.79 128.82,553.08 131.1,555.02 133.77,556.36 136.73,556.8 139.66,556.23 142.31,554.85 144.6,552.91 146.52,550.62 149.33,545.34 150.16,542.45 150.41,539.47" fill="none" stroke="#000000" stroke-width="1"/><polyline id="SvgjsPolyline2550" points="291.35,513.06 288.77,511.89 283.09,512.92 280.36,512.07 277.58,511.64 275.11,510.4 269.82,513.23 264.76,516.45 255.2,523.65 252.71,522.13 248.7,517.67 246.16,516.1 243.2,515.76 240.28,516.4 234.94,519.11 230.08,522.63 223.32,528.56 217.02,534.98 211.37,541.98 208.38,547.17 206.37,552.82 205.76,555.76 205.2,561.73 205.48,570.72 206.7,579.63 208.97,588.33 213.39,599.48" fill="none" stroke="#000000" stroke-width="1"/><polyline id="SvgjsPolyline2551" points="300.63,511.24 297.88,510.41 295.01,510.28 292.05,510.74 289.18,510.26 283.41,511.66 280.71,510.71 277.9,510.47 275.54,509.03 267.63,513.32 262.65,516.67 257.93,520.36 255.37,521.84 252.92,520.22 248.86,515.81 246.26,514.34 243.29,514.07 240.37,514.72 237.61,515.88 232.45,518.94 215.54,531.37 212.85,532.71 209.91,533.23 207.03,532.45 204.56,530.76 202.46,528.63 198.88,523.82 190.63,511.29 186.87,506.62 184.73,504.52 182.37,502.67 179.77,501.19 176.95,500.17 173.99,499.69 171,499.76 168.05,500.32 165.21,501.28 162.51,502.58 157.54,505.93 153.19,510.05 151.25,512.34 147.88,517.29 146.45,519.93 144.19,525.49 142.84,531.32 142.59,534.31 142.73,537.31 143.5,540.19 145.58,542.14 148,540.91 148.62,538.12" fill="none" stroke="#000000" stroke-width="1"/><polyline id="SvgjsPolyline2552" points="0.41,391.27 5.13,380.25 8.78,368.82 11.46,357.13 13.3,345.27 14.49,333.33 15.23,321.35 16.82,267.38 17.45,258.4 18.45,252.49" fill="none" stroke="#000000" stroke-width="1"/><polyline id="SvgjsPolyline2553" points="260,206.84 254.11,207.97 251.25,208.88 248.54,210.15 246.09,211.89 244.11,214.14 242.73,216.79 241.95,219.68 241.68,222.67 241.83,225.66 243.12,231.51 245.39,237.06 248.41,242.24 252.04,247.02 256.19,251.35 263,257.23 267.94,260.63 275.9,264.8 281.52,266.91 290.26,269.03 296.22,269.7 302.21,269.77 311.13,268.63 316.91,267.02 322.46,264.76 327.71,261.87 332.59,258.37 339.02,252.1 344.17,244.74 347.86,236.54 349.43,230.75 350.46,221.82 349.95,212.85 348.81,206.96 347.09,201.22 343.49,192.98 338.77,185.32 335.05,180.62 330.88,176.3 326.29,172.45 321.3,169.13 315.94,166.44 310.27,164.49 307.34,163.83 304.37,163.38 292.4,162.67 283.58,160.93 275.05,158.09 266.85,154.37 259.01,149.97 249.03,143.3 239.54,135.96 228.23,126.12 215.31,113.59 205.11,102.58 195.71,90.91 189.11,80.89 186.27,75.61 183.79,70.14 181.74,64.5 180.15,58.72 179.06,52.82 178.52,46.85 178.98,37.88 180.47,32.07 181.71,29.35 183.35,26.83 185.38,24.63 187.76,22.82 190.4,21.39 193.19,20.3 199.02,18.89 207.96,17.88 222.95,17.36 297.95,17.26" fill="none" stroke="#000000" stroke-width="1"/><polyline id="SvgjsPolyline2554" points="495.44,94.86 493.42,97.01 490.47,97.32 487.65,96.35 485.2,94.63 483.18,92.41 481.65,89.84 480.74,86.98 480.74,84 482.23,81.43 484.99,80.36 487.95,80.73 490.65,82.02 492.99,83.88 494.97,86.14 496.55,88.68 497.7,91.45 498.32,94.38 498.2,97.37 497.03,100.12 494.69,101.96 491.78,102.59 488.8,102.26 485.98,101.27 480.96,98.02 478.78,95.96 475.11,91.22 472.47,85.84 471.59,82.98 471.07,80.02 470.96,77.03 471.33,74.05 472.24,71.2 473.75,68.61 475.8,66.44 478.31,64.8 481.12,63.75 484.07,63.26 487.07,63.27 492.93,64.47 498.43,66.84 503.52,70.02 510.38,75.83 514.5,80.19 520.05,87.28 524.9,94.85 529.11,102.8 532.67,111.07 535.59,119.58 537.81,128.3 539.26,137.18 539.86,146.15 539.72,152.15 539.1,158.12 537.95,164 535.14,172.54 532.5,177.93 529.23,182.95 527.36,185.3 523.17,189.59 520.87,191.52 515.91,194.88 513.27,196.31 507.74,198.62 499,200.71 493.02,201.22 487.03,201.06 481.08,200.29 475.23,198.98 469.51,197.17 463.94,194.95 453.28,189.45 440.82,181.12 431.42,173.66 420.2,163.7 379.53,123.77 366.37,111.49 352.62,99.88 345.41,94.49 337.91,89.52 327.35,83.84 321.79,81.57 316.06,79.81 307.2,78.31 295.22,77.64 289.32,76.59 283.53,75 277.91,72.93 272.46,70.42 267.2,67.53 259.72,62.54 250.55,54.81 244.37,48.27 238.99,41.07 235.87,35.94 233.33,30.51 232.54,27.62 232.36,24.64 233.31,21.82 235.5,19.82 238.27,18.7 241.21,18.08 247.18,17.53" fill="none" stroke="#000000" stroke-width="1"/><polyline id="SvgjsPolyline2555" points="495.03,95.62 492.57,97.23 489.6,97.09 486.88,95.85 484.56,93.96 482.69,91.62 481.34,88.94 480.69,86.02 481.14,83.07 483.22,80.96 486.15,80.5 489.03,81.29 491.58,82.85 493.77,84.9 495.56,87.3 496.94,89.96 497.83,92.82 498.07,95.81 497.36,98.71 495.4,100.95 492.59,101.95 489.61,101.84 486.74,100.98 484.08,99.59 481.66,97.84 479.46,95.79 475.81,91.04 473.24,85.63 472.44,82.74 472.04,79.77 472.09,76.78 472.69,73.84 473.9,71.1 475.74,68.74 478.11,66.91 480.85,65.71 483.79,65.13 486.79,65.09 489.76,65.51 495.44,67.4 500.68,70.3 505.48,73.9 509.85,78.01 515.68,84.86 519.12,89.77 523.65,97.55 527.45,105.7 530.49,114.17 532.74,122.88 533.75,128.79 534.44,137.76 534.28,143.76 532.97,152.65 530.19,161.2 527.45,166.53 525.81,169.04 521.99,173.66 519.82,175.74 517.5,177.64 512.46,180.88 509.76,182.2 504.12,184.23 501.21,184.94 495.27,185.77 486.28,185.65 480.35,184.77 474.53,183.34 468.84,181.43 463.31,179.11 455.31,174.99 450.17,171.89 442.73,166.83 435.57,161.37 426.39,153.65 413.2,141.41 368.96,96.56 353.91,81.91 340.47,69.94 328.53,60.88 320.81,56.26 312.49,52.86 306.61,51.67 297.63,51.22 288.75,49.77 280.17,47.09 274.68,44.68 266.87,40.21 261.95,36.79 257.28,33.02 253.09,28.73 251.3,26.33 249.92,23.67 249.73,20.74 251.79,18.74 254.67,17.93 263.64,17.33 296.64,17.26" fill="none" stroke="#000000" stroke-width="1"/><polyline id="SvgjsPolyline2556" points="300.85,205.72 285.85,205.67 276.87,205.17 267.93,204.16 259.07,202.59 247.46,199.56 238.98,196.55 230.76,192.89 222.85,188.61 212.83,182.02 201.12,172.65 192.28,164.54 164.47,137.19 151.03,125.22 136.83,114.17 114.58,98.88 112.32,96.9 110.55,94.5 109.81,91.61 109.94,88.62 111.13,82.74 116.12,65.45 120.98,51.26 124.54,43 129.02,35.2 132.78,30.53 137.27,26.57 142.41,23.49 148,21.31 153.81,19.85 159.74,18.9 165.7,18.28 177.68,17.64 210.68,17.27" fill="none" stroke="#000000" stroke-width="1"/><polyline id="SvgjsPolyline2557" points="263.95,205.73 224.95,205.28 200.98,204.18 183.09,202.22 174.25,200.54 165.51,198.42 156.99,195.53 151.51,193.08 146.26,190.18 138.91,185 130.07,176.89 112.14,156.71 107.96,152.41 101.15,146.54 96.06,143.38 90.44,141.32 87.47,140.91 84.47,140.98 81.52,141.51 75.9,143.58 62.51,150.32" fill="none" stroke="#000000" stroke-width="1"/><polyline id="SvgjsPolyline2558" points="0.17,61.34 14.81,64.64 32.24,69.13 43.74,72.53 55.1,76.4 63.45,79.75 71.51,83.75 76.54,87.01 81.02,90.99 84.54,95.83 86.8,101.38 88.17,110.26 88.25,113.26 87.65,119.22 87.02,122.15 85.14,127.85 82.49,133.23 80.88,135.76 77.11,140.41 74.95,142.49 70.19,146.14" fill="none" stroke="#000000" stroke-width="1"/><polyline id="SvgjsPolyline2559" points="264.25,205.75 183.25,205.71 138.26,205.35 117.28,204.36 111.32,203.67 105.44,202.53 99.75,200.65 94.53,197.71 92.19,195.83 88.13,191.42 84.77,186.46 81.89,181.2 70.26,156.83 66.77,151.98 64.23,150.51" fill="none" stroke="#000000" stroke-width="1"/><polyline id="SvgjsPolyline2560" points="0.66,65.65 11.12,71.52 16.05,74.93 23.06,80.58 31.65,88.95 37.51,95.78 41.11,100.58 46.02,108.12 48.94,113.36 53.89,124.28 58.67,138.49 60.57,147.28 60.65,150.27" fill="none" stroke="#000000" stroke-width="1"/><polyline id="SvgjsPolyline2561" points="263.35,205.78 227.35,206.17 203.38,207.26 194.41,208.09 185.5,209.33 176.69,211.17 170.94,212.85 165.33,214.98 159.93,217.6 154.8,220.7 149.95,224.23 140.87,232.08 121.59,250.97 117.01,254.84 112.17,258.39 107.04,261.5 101.62,264.07 95.95,266.02 90.1,267.31 84.13,267.94 78.13,267.94 72.16,267.37 63.34,265.6 51.92,261.95 32.46,254.06 23.97,251.1" fill="none" stroke="#000000" stroke-width="1"/><polyline id="SvgjsPolyline2562" points="236.75,208.14 228,210.21 219.69,213.63 217.09,215.14 212.29,218.72 210.1,220.77 206.16,225.29 201.22,232.81 197.14,240.83 193.6,249.1 184.88,271.46 178.67,285.11 174.28,292.96 171,297.99 163.54,307.38 159.35,311.67 154.86,315.65 150.08,319.27 145.03,322.52 139.74,325.34 134.23,327.71 128.54,329.59 122.7,330.95 116.75,331.74 110.76,331.93 101.79,331.22 95.88,330.18 90.12,328.52 84.55,326.28 79.23,323.51 71.78,318.47 67.19,314.61 62.9,310.42 55.23,301.21 50.21,293.74 45.7,285.95 32.14,259.2 28.62,254.36 26.35,252.4 23.73,251.28" fill="none" stroke="#000000" stroke-width="1"/><polyline id="SvgjsPolyline2563" points="280.05,205.78 259.06,206.44 247.18,208.03 241.4,209.63 235.97,212.16 233.49,213.85 229.29,218.12 226.24,223.27 224.23,228.91 223.06,234.79 222.55,240.77 222.57,246.77 223.47,255.72 224.58,261.61 226.94,270.3 228.94,275.95 232.56,284.19 236.87,292.09 241.85,299.58 247.49,306.59 251.64,310.92 258.5,316.73 263.55,319.98 268.88,322.72 274.49,324.84 280.35,326.07 283.34,326.26 286.33,326.02 289.24,325.31 294.87,323.28 300.86,323.37 306.84,322.95 312.75,321.9 318.52,320.26 324.1,318.07 332.06,313.88 339.45,308.76 346.23,302.84 352.35,296.24 357.77,289.06 362.44,281.38 366.3,273.25 369.31,264.77 371.41,256.03 372.59,247.11 372.83,238.12 372.18,229.14 370.65,220.28 368.33,211.59 365.24,203.14 362.79,197.66 358.55,189.72 351.88,179.75 346.15,172.82 341.97,168.52 337.51,164.5 332.78,160.82 327.76,157.54 322.47,154.71 314.07,151.49 305.26,149.72 293.28,149.06 284.44,147.43 275.88,144.68 265,139.62 259.8,136.63 252.28,131.7 240.37,122.58 226.98,110.56 216.52,99.81 206.89,88.31 203.35,83.47 198.51,75.89 193.14,65.17 191.03,59.55 189.36,53.79 188.21,47.9 187.66,41.93 187.92,35.94 188.45,32.99 189.33,30.13 190.64,27.43 192.42,25.02 194.64,23.01 197.19,21.44" fill="none" stroke="#000000" stroke-width="1"/><polyline id="SvgjsPolyline2564" points="487.05,96.11 484.69,94.27 482.75,91.99 481.31,89.36 480.51,86.47 480.66,83.49 482.3,81.02 485.1,80.04 488.06,80.45 490.76,81.73 493.12,83.57 495.14,85.79 496.78,88.3 498.03,91.02 498.81,93.92 498.98,96.91 498.3,99.82 496.51,102.21 493.85,103.55 490.88,103.83 487.93,103.31 485.13,102.24 482.52,100.76 480.11,98.98 475.9,94.73 472.51,89.78 471.17,87.1 469.27,81.42 468.78,78.46 468.66,75.46 468.96,72.48 469.73,69.58 471,66.87 472.78,64.46 475,62.45 477.58,60.92 480.39,59.9 483.34,59.37 489.32,59.57 495.12,61.09 500.58,63.57 505.67,66.73 512.66,72.39 518.94,78.84 524.59,85.83 529.69,93.25 534.28,100.99 538.39,108.99 543.15,120.01 546.17,128.48 549.47,140.02 551.34,148.82 552.66,157.72 553.38,166.69 553.42,175.69 553.03,181.67 551.78,190.58 550.47,196.44 547.71,205 545.33,210.5 540.9,218.34 537.4,223.2 533.45,227.71 526.75,233.71 521.81,237.12 516.55,240 511.02,242.32 505.28,244.05 499.39,245.17 493.41,245.67 487.41,245.56 481.46,244.86 475.59,243.61 469.86,241.84 464.3,239.59 456.3,235.47 448.75,230.58 443.96,226.97 434.87,219.14 424.28,208.52 414.23,197.39 388.69,167.91 374.31,152.61 365.65,144.31 358.88,138.38 351.83,132.78 344.46,127.62 336.74,123 331.38,120.31 325.85,117.99 320.15,116.11 311.35,114.25 299.38,113.55 293.42,112.9 287.54,111.69 278.98,108.94 270.77,105.26 262.95,100.81 255.5,95.76 246.16,88.24 239.6,82.09 233.45,75.51 227.79,68.51 222.71,61.09 218.35,53.22 215.94,47.73 214.07,42.03 212.74,36.18 212.27,30.22 212.7,27.25 213.81,24.47 215.69,22.15 218.16,20.47 220.94,19.35 226.81,18.15 232.78,17.63" fill="none" stroke="#000000" stroke-width="1"/><polyline id="SvgjsPolyline2565" points="253.31,206.81 244.41,208.14 235.81,210.73 230.53,213.56 228.14,215.37 224.02,219.72 220.85,224.81 219.59,227.53 217.63,233.2 215.77,242 214.78,253.95 215.08,265.94 216.43,277.86 218.67,289.65 221.64,301.27 226.12,315.59 232.19,332.53 248.43,374.49 249.74,377.18" fill="none" stroke="#000000" stroke-width="1"/><polyline id="SvgjsPolyline2566" points="286.48,412.19 277.12,419.67 275.02,417.77 273.72,415.07 271.18,406.45 270.14,400.54 269.63,394.56 269.95,385.58 271.68,376.76 273.64,371.09 276.04,365.59 278.85,360.29 282.12,355.26 285.86,350.57 288.07,348.56 290.92,347.95 293.87,348.39 296.45,347.21 299.28,346.48 305.26,346.16 311.15,345.04 316.86,343.2 324.97,339.32 332.52,334.42 341.71,326.73 349.98,318.03 357.31,308.54 363.67,298.37 368.98,287.61 372.19,279.21 375.36,267.64 377.16,255.79 377.59,246.8 376.92,234.82 374.89,223 372.53,214.32 369.48,205.86 365.79,197.65 361.49,189.75 356.6,182.2 351.12,175.06 345.06,168.41 338.41,162.34 333.65,158.7 328.62,155.43 323.33,152.6 317.8,150.28 312.06,148.55 306.16,147.46 294.18,146.8 285.32,145.3 276.72,142.64 265.81,137.68 260.58,134.73 253.03,129.84 241.09,120.77 227.69,108.76 215.26,95.74 205.92,84.02 199.43,73.93 196.63,68.63 194.19,63.15 192.15,57.5 190.58,51.71 189.25,42.82 189.27,36.83 189.67,33.86 190.39,30.95 191.53,28.17 193.14,25.65 195.23,23.5 197.69,21.79" fill="none" stroke="#000000" stroke-width="1"/><polyline id="SvgjsPolyline2567" points="257.01,206.48 248.07,207.47 239.3,209.45 233.74,211.69 231.13,213.17 226.46,216.92 222.71,221.59 221.18,224.17 218.77,229.66 216.4,238.33 214.93,250.23 214.77,259.23 215.55,271.2 217.31,283.07 219.89,294.78 223.13,306.34 227.84,320.58 234.05,337.47 242.87,359.79 247.86,373.94 247.86,376.89 246.5,379.54 244.65,381.9 235.97,390.16 222.12,401.67 182.19,433.39 164.07,449.11 155.47,457.49 147.38,466.35 141.79,473.39 136.72,480.83 132.33,488.68 129.86,494.15 127.8,499.78 125.59,508.5 124.72,514.44 124.38,523.42 124.81,529.41 125.8,535.32 127.44,541.09 128.55,543.88 131.58,549.04 133.66,551.19 136.22,552.73 139.16,553.21 142.04,552.47 144.54,550.82 146.58,548.63 148.18,546.1 149.34,543.34 149.96,540.41 149.44,537.55" fill="none" stroke="#000000" stroke-width="1"/><polyline id="SvgjsPolyline2568" points="297.04,534.15 292.25,533.95 286.66,535.81" fill="none" stroke="#000000" stroke-width="1"/><polyline id="SvgjsPolyline2569" points="247.9,550.76 246.19,548.32 243.27,543.09 238.82,539.16 235.89,539 233.31,540.48 231.18,542.59 227.82,547.55 225.3,552.99 223.51,558.71 222.4,564.6 221.96,570.59 222.15,576.58 223.01,582.51 224.78,588.23 226.53,590.62 229.13,589.87 230.58,587.25 231.54,584.41 232.21,581.49 232.86,575.53 232.78,572.53 231.98,569.69" fill="none" stroke="#000000" stroke-width="1"/><polyline id="SvgjsPolyline2570" points="411.7,562.98 411.4,560 410.5,557.14 408.98,554.56 407.13,556.6 406.91,559.57 407.34,562.54 409.4,568.16 410.99,570.7 413.22,572.7 415.93,571.66 417.48,569.11 418.34,566.24 418.78,563.28 418.91,557.28 418.3,551.32 417.13,545.44 414.41,536.86 412.02,531.36 409.25,526.04 404.5,518.4 399.12,511.19 395.22,506.62 386.68,498.2 381.96,494.51 376.8,491.46 371.14,489.51 365.18,488.93 299.18,489.87 296.73,488.34 290.93,488.51 282.35,489.74 279.62,488.62 277.14,487.06 274.41,487.59 271.66,488.78 261.08,494.43 258.33,495.46 255.72,494.1 251.34,490.01 248.76,488.49 245.89,487.64 233.93,486.76 231.03,486 228.28,484.82 223.34,481.44 212.49,471.08 207.71,467.47 202.29,464.93 199.38,464.23 196.39,463.94 190.43,464.45 184.66,466.07 179.15,468.45 171.39,472.99 164.18,478.37 157.55,484.44 151.54,491.14 146.28,498.44 141.92,506.31 138.65,514.68 136.64,523.45 136.17,532.42 136.98,538.36 137.87,541.22 139.28,543.86 141.48,545.85 144.39,546.09 146.85,544.45 148.47,541.94 149.14,539.05" fill="none" stroke="#000000" stroke-width="1"/><polyline id="SvgjsPolyline2571" points="413.93,571.63 416.02,569.56 417.09,566.77 417.81,560.83 417.52,554.84 416.55,548.92 415.04,543.12 413.03,537.46 409.22,529.32 404.57,521.61 401.08,516.74 395.29,509.85 391.05,505.6 386.46,501.74 381.42,498.5 375.82,496.39 372.85,495.96 366.87,496.27 349.01,498.5 301.52,505.06 292.74,504.36 289.8,504.98 287.23,503.98 284.35,504.83 281.98,503.41 279.12,503.23 276.74,501.59 268.68,505.53 258.66,512.13 255.87,511.42 251.61,507.21 249.19,505.45 246.31,504.63 243.32,504.72 240.39,505.34 231.87,508.22 226.01,509.46 223.02,509.32 220.14,508.49 217.5,507.08 212.69,503.49 200.29,490.46 195.68,486.64 193.11,485.09 190.36,483.9 187.46,483.12 184.49,482.78 178.53,483.34 175.63,484.12 170.1,486.43 164.95,489.49 160.18,493.13 155.8,497.22 151.83,501.72 148.31,506.58 145.3,511.76 142.84,517.24 141.02,522.95 139.93,528.84 139.75,534.83 140.13,537.81 140.97,540.68 142.6,543.17 145.35,543.94 147.69,542.19 148.83,539.46" fill="none" stroke="#000000" stroke-width="1"/><polyline id="SvgjsPolyline2572" points="484.68,80.22 487.65,80.47 490.39,81.66 492.79,83.46 494.83,85.65 496.5,88.14 497.76,90.86 498.54,93.76 498.69,96.75 497.93,99.64 496.03,101.93 493.29,103.11 490.31,103.22 487.39,102.56 484.64,101.36 479.75,97.9 475.71,93.48 472.57,88.38 471.38,85.63 469.89,79.83 469.68,76.84 469.91,73.85 470.62,70.94 471.87,68.21 473.65,65.8 475.9,63.83 478.52,62.38 481.37,61.47 484.34,61.06 490.31,61.54 496.03,63.33 501.38,66.03 508.68,71.28 513.1,75.33 519.12,82.01 524.5,89.23 530.75,99.47 534.8,107.5 539.35,118.6 542.93,130.05 544.93,138.82 546.28,147.72 546.9,156.7 546.72,165.69 546.09,171.66 545.02,177.56 543.49,183.36 541.45,189 538.89,194.43 535.81,199.57 532.2,204.36 528.08,208.72 523.5,212.59 518.5,215.9 513.15,218.61 501.79,222.44 495.9,223.55 489.92,224.01 483.93,223.85 477.97,223.1 472.12,221.8 466.4,219.99 458.12,216.47 452.83,213.65 447.71,210.52 440.36,205.33 431.08,197.73 420.12,187.49 384.85,150.65 367.68,133.89 353.98,122.22 346.76,116.85 339.24,111.91 328.67,106.23 323.15,103.9 317.46,101.99 308.68,100.06 290.74,98.7 284.87,97.51 276.3,94.78 268.1,91.06 260.32,86.56 252.95,81.4 246,75.68 239.5,69.45 233.5,62.75 228.08,55.57 224.86,50.51 220.76,42.5 218.72,36.86 217.59,30.98 217.61,27.99 218.28,25.07 219.81,22.51 222.12,20.61 224.85,19.38 227.74,18.6 236.68,17.59 257.67,17.26" fill="none" stroke="#000000" stroke-width="1"/><polyline id="SvgjsPolyline2573" points="481.47,88.46 481.05,85.5 482,82.68 484.56,81.22 487.53,81.44 490.23,82.71 492.54,84.62 494.41,86.96 495.81,89.61 496.62,92.49 496.57,95.48 495.13,98.08 492.42,99.27 489.44,99.08 486.65,98 484.15,96.35 481.97,94.29 480.12,91.93 478.64,89.33 477.56,86.53 477.01,83.58 477.11,80.59 478.08,77.76 480.03,75.5 482.7,74.17 485.67,73.79 488.64,74.18 491.48,75.13 494.15,76.5 496.63,78.18 501.05,82.23 503,84.51 506.38,89.46 510.18,97.6 511.77,103.38 512.49,109.33 512.12,115.31 511.44,118.23 509.35,123.85 507.95,126.5 506.19,128.93 504.1,131.07 501.71,132.88 499.07,134.31 496.27,135.36 493.35,136.05 487.37,136.43 484.38,136.2 478.5,135.04 472.81,133.13 467.35,130.65 462.12,127.72 457.11,124.42 447.72,116.96 437.05,106.42 427.52,94.85 419.17,82.39 413.51,71.82 409.02,60.7 407.32,54.94 406.05,49.08 405.08,40.14 405.34,31.15 406.24,25.22 407.69,19.4 410.84,10.98 413.52,5.61 416.59,0.46" fill="none" stroke="#000000" stroke-width="1"/><polyline id="SvgjsPolyline2574" points="493.8,96.69 490.9,97.26 488.04,96.42 485.54,94.77 483.48,92.6 481.91,90.05 480.96,87.21 480.94,84.22 482.47,81.68 485.26,80.71 488.2,81.21 490.85,82.6 493.12,84.56 494.98,86.91 496.42,89.54 497.34,92.39 497.59,95.37 496.81,98.25 494.69,100.33 491.8,101.07 488.84,100.71 486.05,99.63 483.49,98.05 481.2,96.12 477.41,91.49 474.81,86.1 474.05,83.2 473.74,80.21 473.98,77.23 474.88,74.37 476.49,71.85 478.76,69.9 481.48,68.67 484.43,68.13 487.42,68.21 490.37,68.77 495.93,71 500.97,74.24 505.5,78.17 511.42,84.94 516.36,92.45 520.37,100.5 523.42,108.97 524.88,114.78 526.11,123.69 526.18,129.69 524.96,138.59 523.13,144.3 520.38,149.62 516.71,154.36 512.19,158.29 509.66,159.91 504.21,162.39 501.34,163.25 495.43,164.26 492.43,164.43 486.44,164.17 480.5,163.36 474.64,162.08 466.13,159.16 455.38,153.85 445.28,147.37 435.76,140.08 426.71,132.21 415.93,121.77 405.63,110.87 393.81,97.3 384.39,85.62 375.46,73.58 367.22,61.04 362.8,53.21 358.98,45.06 356.03,36.56 354.73,30.71 354.04,21.75 354.5,15.77 355.69,9.89 358.62,1.39" fill="none" stroke="#000000" stroke-width="1"/><polyline id="SvgjsPolyline2575" points="480.72,85.63 481.4,82.73 483.69,80.86 486.66,80.66 489.49,81.62 491.97,83.28 494.08,85.42 495.78,87.88 497.05,90.6 497.79,93.5 497.79,96.49 496.7,99.27 494.36,101.1 491.43,101.65 488.47,101.2 485.69,100.08 483.14,98.51 478.77,94.42 475.43,89.45 473.28,83.86 472.77,80.91 472.72,77.91 473.23,74.96 474.37,72.19 476.17,69.8 478.54,67.97 481.3,66.81 484.25,66.28 487.25,66.32 493.07,67.7 495.82,68.88 500.98,71.94 505.66,75.68 509.91,79.92 513.74,84.53 517.2,89.44 520.28,94.58 524.24,102.66 527.38,111.09 528.99,116.87 530.18,122.75 530.91,128.7 531.04,137.7 529.8,146.6 528.09,152.35 526.95,155.12 525.62,157.81 522.34,162.82 518.28,167.24 513.54,170.91 510.96,172.43 508.26,173.73 502.59,175.67 496.69,176.75 493.7,176.98 487.7,176.89 481.76,176.12 475.91,174.77 470.21,172.91 459.28,167.99 454.05,165.04 446.49,160.16 434.55,151.09 421.07,139.17 404.04,122.26 379.62,95.81 354.08,66.34 341.17,49.78 337.79,44.82 333.19,37.09 330.53,31.72 328.54,26.06 327.57,20.15 327.56,17.15 327.89,14.17 329.44,8.38 333.33,0.28" fill="none" stroke="#000000" stroke-width="1"/><polyline id="SvgjsPolyline2576" points="0.85,61.44 27.17,67.46 64.92,77.24 73.78,78.79 79.77,78.78 82.69,78.14 85.46,76.97 87.97,75.35 90.23,73.37 94.28,68.95 99.38,61.55 111.12,40.62 114.55,35.7 118.49,31.18 123.04,27.28 125.54,25.62 130.9,22.93 136.58,21.02 142.44,19.72 151.36,18.54 172.33,17.51 298.33,17.26" fill="none" stroke="#000000" stroke-width="1"/><polyline id="SvgjsPolyline2577" points="201.3,206.07 174.31,206.86 156.38,208.32 144.55,210.35 138.77,211.92 133.14,214 125.19,218.2 117.98,223.56 111.28,229.58 96.54,244.53 89.75,250.43 82.23,255.36 76.77,257.84 73.93,258.78 68.07,260.05 65.08,260.37 59.09,260.43 53.13,259.78 47.25,258.58 41.47,256.96 24.41,251.22" fill="none" stroke="#000000" stroke-width="1"/><polyline id="SvgjsPolyline2578" points="262.57,205.75 142.57,206.11 121.59,206.92 109.67,208.32 103.83,209.69 98.23,211.83 95.59,213.24 90.72,216.74 86.3,220.79 82.24,225.21 71.36,239.55 65.46,246.33 60.91,250.23 55.74,253.26 50.04,255.07 47.07,255.48 41.08,255.38 35.17,254.34 23.65,250.98" fill="none" stroke="#000000" stroke-width="1"/><polyline id="SvgjsPolyline2579" points="170.97,205.75 89.97,205.57 77.99,204.92 75.04,204.4 72.18,203.49 66.99,200.51 64.73,198.54 62.87,196.19 60.21,190.82 57.74,182.18 56.12,173.32 54.82,161.4 54.77,158.4 55.13,155.43" fill="none" stroke="#000000" stroke-width="1"/><polyline id="SvgjsPolyline2580" points="0.11,89.68 14.45,105.02 23.82,116.73 30.55,126.66 41.24,144.74 44.65,149.67 46.69,151.87 49.17,153.52 52.08,153.98 54.89,153.31" fill="none" stroke="#000000" stroke-width="1"/><polyline id="SvgjsPolyline2581" points="481.52,83.84 483.58,81.73 486.53,81.42 489.34,82.42 491.77,84.17 493.75,86.42 495.24,89.01 496.15,91.87 496.18,94.86 494.72,97.44 491.95,98.48 488.99,98.1 486.28,96.83 483.91,95 481.9,92.78 480.28,90.26 479.13,87.49 478.55,84.55 478.76,81.57 480.08,78.89 482.49,77.14 485.42,76.58 488.38,76.98 491.18,78.04 493.76,79.57 498.21,83.57 500.1,85.9 503.19,91.03 505.32,96.64 505.96,99.57 506.23,105.54 505.73,108.5 504.71,111.32 503.12,113.85 500.98,115.95 498.41,117.48 495.57,118.43 492.6,118.84 489.61,118.79 483.74,117.61 478.18,115.36 472.98,112.37 468.15,108.82 461.56,102.7 457.61,98.18 452.37,90.87 449.37,85.68 445.46,77.57 443.36,71.96 441.78,66.17 440.81,60.25 440.5,54.26 440.91,48.28 442.98,39.54 445.31,34.01 450.14,26.44 456.36,19.95 463.68,14.74 471.85,10.99 480.57,8.79 489.53,8.19 498.48,9.1 504.32,10.45 510.02,12.31 515.56,14.62 520.93,17.3 528.66,21.89 533.63,25.26 545.47,34.47 556.67,44.44 567.45,54.87 599.1,86.86" fill="none" stroke="#000000" stroke-width="1"/><polyline id="SvgjsPolyline2582" points="482.9,82.25 485.75,81.49 488.64,82.21 491.16,83.82 493.24,85.98 494.82,88.53 495.82,91.35 495.95,94.34 494.55,96.95 491.78,97.96 488.83,97.49 486.17,96.13 483.88,94.2 481.99,91.87 480.55,89.24 479.68,86.38 479.58,83.39 480.65,80.61 483.01,78.81 485.96,78.38 488.89,78.98 491.59,80.28 494.01,82.05 496.15,84.15 499.58,89.05 501.8,94.61 502.36,97.56 502.47,100.55 501.99,103.51 500.8,106.26 498.84,108.52 496.28,110.04 493.38,110.8 490.39,110.88 487.42,110.44 484.55,109.58 479.16,106.96 474.28,103.49 469.9,99.39 466.03,94.81 462.69,89.82 459.93,84.5 457.82,78.89 457.03,75.99 456.1,70.07 456.12,64.08 457.23,58.19 458.22,55.36 461.08,50.1 465.02,45.59 469.87,42.07 475.35,39.66 481.2,38.38 490.18,37.92 496.13,38.63 501.94,40.11 510.28,43.48 518.12,47.89 527.86,54.89 536.9,62.78 545.39,71.26 553.45,80.14 561.2,89.3 587.3,122.21 598.72,136.12" fill="none" stroke="#000000" stroke-width="1"/><polyline id="SvgjsPolyline2583" points="495.14,89.45 495.87,92.36 495.51,95.32 493.39,97.37 490.43,97.64 487.6,96.69 485.13,95.01 483.05,92.85 481.42,90.33 480.34,87.54 479.98,84.57 480.76,81.69 482.98,79.72 485.91,79.22 488.83,79.86 491.49,81.23 493.85,83.08 495.89,85.27 499,90.38 500.02,93.2 500.61,96.14 500.65,99.14 499.96,102.05 498.38,104.58 495.96,106.34 493.09,107.17 490.1,107.21 487.16,106.64 484.34,105.62 481.67,104.25 476.8,100.77 472.55,96.54 470.66,94.21 467.38,89.19 464.84,83.76 463.14,78.01 462.46,72.06 463.01,66.1 464.99,60.45 466.54,57.88 468.44,55.57 470.66,53.55 473.15,51.88 475.84,50.56 478.69,49.62 484.62,48.79 490.59,49.18 493.53,49.77 499.25,51.58 507.32,55.54 514.79,60.55 521.7,66.32 530.17,74.81 536.04,81.63 543.36,91.14 550.18,101.01 556.6,111.15 567.12,129.32 589.79,171.63 598.63,187.31" fill="none" stroke="#000000" stroke-width="1"/><polyline id="SvgjsPolyline2584" points="495.5,90.7 495.81,93.68 494.64,96.4 491.92,97.56 488.98,97.13 486.32,95.75 484.06,93.79 482.24,91.41 480.92,88.72 480.27,85.8 480.63,82.83 482.48,80.52 485.33,79.7 488.28,80.17 490.98,81.47 493.35,83.3 495.38,85.5 497.07,87.98 498.4,90.67 499.3,93.52 499.69,96.5 499.39,99.47 498.15,102.19 495.92,104.17 493.09,105.12 490.1,105.16 487.17,104.53 481.78,101.94 477.09,98.2 475.02,96.03 471.44,91.23 468.66,85.92 466.82,80.21 466.13,74.27 466.31,71.27 466.89,68.33 467.9,65.51 469.36,62.89 471.24,60.56 473.5,58.59 476.06,57.04 478.85,55.93 481.76,55.25 484.75,54.97 490.72,55.46 496.49,57.06 501.97,59.5 509.59,64.28 516.52,70.01 522.86,76.39 528.68,83.25 535.74,92.96 542.09,103.13 547.83,113.67 553.01,124.49 557.67,135.55 561.85,146.8 566.4,161.09 571.58,181.44 575.96,205.03 578.48,225.88 579.77,246.83 579.99,264.83 579.33,285.82 577.95,306.77 574.72,345.64 573.87,360.61 573.71,375.61 574.63,390.58 575.88,399.49 577.77,408.29 579.4,414.06 582.44,422.53 584.86,428.02 589.03,435.99 593.83,443.6 599.18,450.84" fill="none" stroke="#000000" stroke-width="1"/><polyline id="SvgjsPolyline2585" points="480.61,87.42 480.38,84.43 481.44,81.65 483.94,80.07 486.91,79.99 489.74,80.97 492.25,82.59 494.43,84.66 496.25,87.04 497.71,89.66 498.75,92.47 499.3,95.41 499.18,98.4 498.14,101.21 496.04,103.32 493.25,104.38 490.26,104.46 487.33,103.84 484.55,102.71 479.55,99.42 475.31,95.19 471.86,90.29 469.27,84.88 467.73,79.09 467.43,76.11 467.51,73.11 467.99,70.16 468.93,67.31 470.34,64.67 472.22,62.33 474.49,60.38 477.09,58.89 479.91,57.86 482.85,57.3 485.84,57.14 491.78,57.9 497.48,59.77 502.85,62.44 507.87,65.71 512.57,69.44 519.07,75.66 523.06,80.14 530.35,89.67 536.81,99.78 543.84,113.03 549.8,126.79 554.72,140.95 558.59,155.44 561.33,170.18 562.81,185.1 562.98,197.1 562.45,206.08 561.31,215.01 559.49,223.82 556.04,235.31 552.79,243.7 548.8,251.76 544.04,259.4 538.52,266.5 532.25,272.95 525.26,278.61 520.23,281.87 512.19,285.9 506.55,287.95 497.79,289.99 491.83,290.62 485.83,290.65 479.86,290.09 473.97,288.94 465.42,286.17 459.96,283.68 452.23,279.08 447.4,275.53 440.65,269.57 432.53,260.75 423.5,248.78 415.3,236.22 393.31,200.44 386.64,190.46 379.62,180.73 370.25,169.02 362.19,160.14 353.56,151.8 346.66,146.02 339.37,140.74 334.28,137.57 326.29,133.45 320.72,131.22 314.99,129.46 309.11,128.24 303.15,127.61 294.16,127.24 288.22,126.37 279.53,124.07 271.17,120.74 260.6,115.08 250.66,108.36 241.3,100.86 230.4,90.56 224.32,83.93 218.66,76.93 213.51,69.55 208.98,61.78 205.24,53.6 203.28,47.93 201.86,42.1 201.19,36.15 201.65,30.18 202.54,27.32 204.02,24.72 206.09,22.55 208.6,20.93 214.26,18.98 220.18,18.06 226.17,17.62" fill="none" stroke="#000000" stroke-width="1"/><polyline id="SvgjsPolyline2586" points="496.34,87.32 497.75,89.97 498.74,92.8 499.19,95.76 498.94,98.74 497.71,101.46 495.43,103.38 492.56,104.2 489.57,104.1 486.68,103.34 481.41,100.5 476.91,96.55 473.2,91.84 470.34,86.57 468.5,80.87 468.03,77.91 467.91,74.92 468.2,71.93 468.94,69.03 470.15,66.29 471.85,63.82 473.99,61.72 476.49,60.08 479.26,58.91 482.17,58.23 485.16,57.98 488.15,58.12 494.01,59.37 496.83,60.39 502.22,63.03 509.64,68.1 516.34,74.1 524.3,83.08 531.29,92.83 537.43,103.13 544.04,116.59 548.51,127.73 553.06,142.02 556.41,156.63 558.14,168.5 558.93,180.47 558.65,192.47 557.65,201.41 556.58,207.31 554.32,216.02 552.36,221.69 548.69,229.9 545.76,235.14 542.43,240.12 536.7,247.06 530.13,253.2 525.31,256.77 520.18,259.88 514.78,262.49 509.15,264.55 500.41,266.71 494.48,267.61 485.49,267.83 479.53,267.24 473.64,266.06 467.9,264.34 462.33,262.11 456.97,259.42 451.84,256.31 446.94,252.85 440.02,247.09 431.52,238.63 421.8,227.21 389.61,183.86 376.36,167.57 368.3,158.69 359.78,150.23 350.73,142.36 343.55,136.94 335.98,132.06 330.72,129.19 322.49,125.56 316.79,123.69 307.98,121.86 293.02,120.92 287.11,119.94 281.3,118.44 272.87,115.3 264.81,111.3 254.64,104.94 247.43,99.56 238.34,91.73 231.93,85.41 225.91,78.72 222.15,74.05 216.95,66.71 212.39,58.95 209.78,53.55 207.58,47.97 205.91,42.21 204.94,36.29 204.83,33.3 205.08,30.31 205.81,27.4 207.16,24.73 209.15,22.5 211.64,20.83 214.4,19.67 220.24,18.35" fill="none" stroke="#000000" stroke-width="1"/><polyline id="SvgjsPolyline2587" points="411.34,565.03 411.71,562.08 411.22,559.12 410.18,556.31 407.83,554.53 406.63,557.19 406.55,560.19 407.79,566.04 410.24,571.51 411.92,573.99 414.02,576.13 416.84,577.08 419.43,575.67 421.18,573.24 422.35,570.48 423.69,564.64 424.19,558.67 423.74,549.69 422.66,543.79 419.99,535.2 416.27,527.01 411.77,519.23 406.67,511.81 399.23,502.4 389.16,491.28 380.56,482.92 373.67,477.13 368.77,473.68 355.51,466.67 348,461.72 343.35,457.94 336.95,451.62 331.21,444.68 324.38,434.82 300,393.56" fill="none" stroke="#000000" stroke-width="1"/><polyline id="SvgjsPolyline2588" points="407.41,555.35 406.7,558.23 406.86,561.22 408.45,567 411.34,572.24 413.43,574.39 416.35,574.7 418.54,572.71 419.89,570.04 420.74,567.16 421.53,561.22 421.3,552.23 420.37,546.31 418.86,540.5 415.65,532.1 410,521.53 403.24,511.62 393.68,500.06 387.43,493.59 383.02,489.52 378.38,485.73 373.41,482.36 368.05,479.69 350.75,474.75 342.32,471.59 334.25,467.63 326.69,462.75 319.81,456.96 313.66,450.4 308.19,443.25 301.68,433.18 298.91,432.94 295.18,428.85 292.5,428.27" fill="none" stroke="#000000" stroke-width="1"/><polyline id="SvgjsPolyline2589" points="293.61,443.72 290.81,443.97 288.21,442.82 286.27,440.54 283.82,439.35 273.17,444.87 270.37,444.46 268.28,442.32 257.5,427.92 254.41,422.77 245.86,406.94 244.12,404.49 242.06,402.32 239.54,400.72 236.62,400.09 233.64,400.41 230.79,401.31 225.4,403.95 217.77,408.72 203.09,419.13 188.76,430.02 174.78,441.36 161.37,453.36 152.92,461.88 145.08,470.96 138.08,480.7 133.59,488.5 129.92,496.71 128.01,502.4 126.56,508.22 125.61,514.14 125.14,523.12 125.5,529.11 126.42,535.03 128,540.82 130.44,546.29 132.11,548.78 134.21,550.92 136.8,552.39 139.76,552.75 142.6,551.87 145.03,550.11 146.98,547.85 148.49,545.26 149.53,542.45 149.94,539.49" fill="none" stroke="#000000" stroke-width="1"/><polyline id="SvgjsPolyline2590" points="294.16,371.14 303.11,370.83 308.91,369.33 311.67,368.16 316.89,365.22 324.13,359.89 328.65,355.94 335.07,349.64 344.98,338.38 353.97,326.37 361.96,313.68 367.53,303.06 372.23,292.02 375.95,280.62 378.54,268.9 379.9,256.99 379.97,244.99 378.75,233.06 377.01,224.23 374.6,215.56 371.55,207.1 367.89,198.88 362.1,188.37 357.1,180.89 351.54,173.82 345.42,167.22 338.74,161.2 333.95,157.58 328.91,154.33 323.62,151.51 318.09,149.19 312.35,147.44 306.46,146.34 294.48,145.67 285.61,144.21 279.84,142.58 274.21,140.5 263.44,135.23 255.77,130.52 248.41,125.34 241.33,119.78 234.51,113.91 221.59,101.39 215.53,94.73 209.81,87.78 206.23,82.97 201.31,75.44 197.04,67.52 194.65,62.02 192.66,56.36 191.15,50.55 190.18,44.64 189.9,38.65 190.59,32.7 191.45,29.82 192.75,27.13 194.54,24.73 196.78,22.74 199.36,21.21 205.02,19.27 213.92,17.96" fill="none" stroke="#000000" stroke-width="1"/><polyline id="SvgjsPolyline2591" points="308.27,599.84 310.6,597.95 312.6,595.72 314.22,593.19 315.39,590.44 316.07,587.52 316.22,584.53 315.2,578.62 312.22,567 310.25,561.34 307.78,555.87 304.86,550.63 301.41,545.73 299.25,543.8 296.38,543.26" fill="none" stroke="#000000" stroke-width="1"/><polyline id="SvgjsPolyline2592" points="267.78,555.39 264.76,560.56 263.55,563.31 261.57,568.97 260.28,574.82 259.94,580.8 260.13,583.8 261.21,589.69 262.08,592.56" fill="none" stroke="#000000" stroke-width="1"/><polyline id="SvgjsPolyline2593" points="406.86,560.26 408.27,566.08 409.5,568.81 411.09,571.35 413.21,573.47 416.11,573.16 417.98,570.86 419.08,568.07 419.72,565.14 420.17,559.16 419.86,553.18 418.95,547.25 417.48,541.43 415.49,535.77 413.05,530.29 408.72,522.41 405.48,517.36 400.15,510.11 394.34,503.24 390.2,498.89 383.57,492.81 378.79,489.19 373.6,486.19 367.96,484.19 341.22,480.49 332.39,478.78 323.65,476.64 312.26,472.86 304.07,469.15 298.32,468.16 292.83,466.1 290.12,465.71 287.82,464.11 284.9,464.57 282.39,462.99 280.16,461.02 277.42,461.63 266.61,466.83 263.78,467.52 261.29,465.9 257.04,461.67 254.66,459.85 246.86,455.37 242.07,451.76 231.83,440.81 227.41,436.77 224.92,435.1 222.22,433.8 219.34,432.96 216.36,432.62 213.37,432.71 207.5,433.91 199.14,437.23 188.67,443.08 178.76,449.84 167.03,459.19 156.15,469.5 148.25,478.53 141.33,488.32 138.35,493.53 135.74,498.93 133.56,504.52 131.86,510.27 130.66,516.15 130.01,522.11 129.94,528.11 130.51,534.08 131.84,539.92 134.24,545.4 136.06,547.78 138.48,549.53 141.4,550.01 144.2,549 146.45,547.04 148.14,544.56 149.25,541.79 149.57,538.82" fill="none" stroke="#000000" stroke-width="1"/><polyline id="SvgjsPolyline2594" points="408.12,555.31 407.2,558.08 407.4,561.07 408.16,563.97 409.37,566.71 412.12,566.87 413.09,564.07 413.2,561.08 412.23,555.16 410.27,549.5 407.48,544.19 403.77,539.49 401.45,537.6 398.68,536.48 395.72,536.82 393.2,538.42 389.2,542.88 386.27,548.1 384.25,553.75 382.87,559.58 382.08,565.53 381.87,571.52 382.25,577.51 383.22,583.43 384.72,589.23 387.89,597.65" fill="none" stroke="#000000" stroke-width="1"/><polyline id="SvgjsPolyline2595" points="408.45,554.95 407.19,557.51 407.24,560.51 407.88,563.43 408.96,566.23 410.5,568.8 413.28,568.37 414.5,565.66 414.92,562.7 414.62,556.71 412.58,547.96 409.18,539.63 404.62,531.89 398.88,524.97 394.27,521.15 391.65,519.69 388.79,518.77 385.81,518.61 382.88,519.25 380.16,520.5 375.14,523.78 365.88,531.4 363.21,532.74 360.26,532.68 351.7,529.91 342.91,527.99 334.01,526.62 322.08,525.33 301.13,523.93 298.43,524.96 295.76,524.33 292.8,524.25 287.04,525.75" fill="none" stroke="#000000" stroke-width="1"/><polyline id="SvgjsPolyline2596" points="484.04,81.04 487.01,81 489.79,82.09 492.2,83.86 494.21,86.09 495.79,88.63 496.88,91.42 497.33,94.39 496.81,97.33 494.9,99.6 492.07,100.5 489.1,100.21 486.3,99.14 483.76,97.55 481.49,95.6 479.5,93.35 476.43,88.21 475.43,85.39 474.85,82.45 474.82,79.45 475.44,76.52 476.83,73.87 478.97,71.79 481.65,70.47 484.6,69.92 487.59,70.03 490.52,70.67 493.33,71.71 496,73.08 500.91,76.51 507.24,82.89 512.45,90.22 515.32,95.49 517.7,100.99 520.32,109.6 521.62,118.49 521.62,124.49 520.79,130.43 520.03,133.33 517.72,138.85 514.33,143.79 509.93,147.85 504.73,150.82 499.02,152.64 496.07,153.13 490.08,153.38 484.11,152.77 478.26,151.44 472.58,149.54 467.07,147.16 456.62,141.28 451.65,137.91 444.51,132.44 437.69,126.57 431.18,120.36 418.95,107.16 407.76,93.06 402.6,85.69 397.78,78.09 390.74,64.85 386.36,53.69 383.48,42.05 382.58,36.11 382.23,30.13 382.8,21.15 384.66,12.35 386.55,6.66 388.88,1.14" fill="none" stroke="#000000" stroke-width="1"/><polyline id="SvgjsPolyline2597" points="483.25,81.68 486.17,81.19 489.03,82.05 491.52,83.7 493.6,85.86 495.21,88.39 496.3,91.18 496.68,94.15 495.91,97.03 493.61,98.89 490.65,99.21 487.76,98.44 485.15,96.98 482.84,95.06 480.87,92.81 479.25,90.29 478.02,87.55 477.28,84.65 477.16,81.65 477.85,78.74 479.53,76.28 482.06,74.69 484.98,74.09 487.97,74.33 490.84,75.18 493.54,76.48 496.05,78.11 500.52,82.11 502.48,84.38 505.88,89.31 508.59,94.67 510.55,100.33 511.66,106.22 511.85,109.21 511.34,115.18 510.56,118.08 509.39,120.84 507.81,123.38 505.82,125.62 503.47,127.49 500.85,128.94 498.03,129.95 495.09,130.56 489.11,130.71 486.13,130.33 480.32,128.87 474.74,126.67 469.43,123.89 464.37,120.66 459.57,117.06 450.69,109 446.61,104.61 440.91,97.64 435.77,90.25 432.68,85.11 427.42,74.33 425.34,68.71 423.68,62.94 422.13,54.09 421.86,45.1 423.01,36.18 425.57,27.56 429.43,19.45 432.65,14.39 436.22,9.56 440.1,4.98 444.35,0.76" fill="none" stroke="#000000" stroke-width="1"/><polyline id="SvgjsPolyline2598" points="0.86,44.84 13.58,32.1 20.54,26.42 23.09,24.85 28.53,22.31 34.26,20.56 40.15,19.4 52.08,18.18 70.07,17.53 178.07,17.26" fill="none" stroke="#000000" stroke-width="1"/><polyline id="SvgjsPolyline2599" points="2.47,58.84 8.46,58.52 14.36,57.46 17.23,56.58 22.68,54.09 29.97,48.84 45.11,34.29 52.04,28.55 59.84,24.09 65.45,21.99 71.26,20.49 83.13,18.75 101.09,17.73 131.09,17.32 191.09,17.26" fill="none" stroke="#000000" stroke-width="1"/><polyline id="SvgjsPolyline2600" points="2,61.13 16.82,63.47 28.76,64.59 37.75,64.31 43.62,63.13 49.19,60.91 54.25,57.7 63.11,49.62 73.07,38.41 79.41,32.03 86.62,26.67 91.96,23.93 100.49,21.09 109.32,19.41 124.26,18.06 142.25,17.49" fill="none" stroke="#000000" stroke-width="1"/><polyline id="SvgjsPolyline2601" points="32.42,204.07 31.7,222.05 29.94,239.96 28.69,245.82 27.58,248.6 25.52,250.64" fill="none" stroke="#000000" stroke-width="1"/><polyline id="SvgjsPolyline2602" points="233.48,205.75 92.48,205.84 77.49,206.31 71.58,207.26 68.77,208.32 66.24,209.92 64.06,211.98 62.2,214.33 59.16,219.49 48.93,241.2 45.66,246.22 43.68,248.47 41.38,250.39 38.75,251.83 35.88,252.66 32.89,252.85 29.91,252.54" fill="none" stroke="#000000" stroke-width="1"/><polyline id="SvgjsPolyline2603" points="33.12,206.74 34.27,191.78 35.66,179.87 37.24,171.01 39.09,165.31 40.47,162.65 42.28,160.26 44.53,158.28 49.82,155.49 58.15,152.13" fill="none" stroke="#000000" stroke-width="1"/><polyline id="SvgjsPolyline2604" points="0.16,120.99 7.94,130.12 20.79,146.73 24.86,151.13 27.11,153.11 29.57,154.84 32.24,156.19 35.11,157.05 38.09,157.39 41.08,157.27 46.96,156.12" fill="none" stroke="#000000" stroke-width="1"/><polyline id="SvgjsPolyline2605" points="534.15,0.36 546.1,9.42 557.42,19.27 570.46,31.68 598.12,59.17" fill="none" stroke="#000000" stroke-width="1"/><polyline id="SvgjsPolyline2606" points="485.2,79.43 488.15,79.85 490.88,81.09 493.29,82.87 495.38,85.02 497.14,87.44 498.55,90.09 499.59,92.9 500.18,95.84 500.18,98.83 499.42,101.73 497.69,104.17 495.16,105.74 492.23,106.36 489.24,106.19 486.34,105.45 480.98,102.78 476.28,99.06 472.25,94.63 468.9,89.65 466.33,84.24 464.65,78.49 464.07,72.53 464.83,66.59 465.78,63.75 467.13,61.07 468.88,58.63 470.98,56.5 473.39,54.72 476.05,53.33 478.88,52.34 484.8,51.49 490.78,51.95 496.58,53.45 502.12,55.75 507.36,58.65 512.32,62.03 519.26,67.76 523.58,71.92 529.67,78.54 537.15,87.92 544.01,97.77 551.86,110.55 559.05,123.71 570.75,148.04 592.01,197.68 599.56,214.02" fill="none" stroke="#000000" stroke-width="1"/><polyline id="SvgjsPolyline2607" points="499.45,95.16 499.45,98.15 498.59,101.02 496.69,103.32 494,104.61 491.03,104.92 488.07,104.47 485.24,103.47 480.12,100.38 475.72,96.31 472.08,91.55 469.25,86.27 467.38,80.57 466.69,74.63 466.88,71.63 467.49,68.7 468.53,65.89 470.04,63.3 471.98,61.01 474.29,59.11 476.91,57.65 479.73,56.65 482.68,56.08 488.66,56.1 491.62,56.61 497.34,58.39 505.32,62.52 510.24,65.95 514.85,69.79 523.26,78.34 532.47,90.17 540.47,102.86 547.43,116.14 554.55,132.66 560.4,149.68 564.3,164.16 567.79,181.82 569.62,196.7 570.39,211.68 570.01,226.67 569.18,235.63 567.31,247.48 564.53,259.15 561.8,267.73 557.32,278.86 553.43,286.97 548.94,294.77 541.97,304.53 535.99,311.25 529.35,317.32 522.06,322.59 516.86,325.58 508.61,329.16 499.94,331.53 494,332.38 485.01,332.53 479.05,331.89 470.29,329.85 464.65,327.82 456.58,323.83 451.52,320.61 444.47,315.03 438.1,308.68 432.41,301.71 425.83,291.68 418.91,278.38 414.08,267.4 398.2,228.52 393.19,217.61 386.33,204.28 378.68,191.37 370.16,179.03 360.68,167.42 352.33,158.8 345.59,152.84 338.41,147.42 330.76,142.69 322.64,138.81 314.1,136 308.22,134.83 293.26,133.84 284.42,132.21 275.86,129.44 265,124.35 259.81,121.34 252.32,116.35 240.52,107.1 233.83,101.08 227.43,94.76 217.52,83.5 212.14,76.29 207.32,68.69 203.2,60.7 200.91,55.15 199.07,49.44 197.76,43.59 197.15,37.62 197.57,31.65 198.36,28.76 199.65,26.06 201.51,23.71 203.85,21.84 206.51,20.47 209.34,19.49 215.22,18.33 221.2,17.76 230.19,17.41" fill="none" stroke="#000000" stroke-width="1"/><polyline id="SvgjsPolyline2608" points="499.78,98.12 499.05,101.02 497.33,103.46 494.76,104.98 491.82,105.5 488.84,105.23 485.97,104.39 480.7,101.54 476.14,97.65 472.29,93.06 469.2,87.92 466.97,82.36 465.78,76.49 465.65,73.49 466.5,67.57 467.55,64.76 469.03,62.16 470.92,59.83 473.18,57.87 475.74,56.31 478.52,55.18 481.43,54.47 484.41,54.16 490.39,54.57 493.32,55.21 498.98,57.18 504.33,59.88 509.38,63.13 514.12,66.8 518.59,70.8 522.81,75.06 528.72,81.85 534.17,89.01 539.23,96.45 548.32,111.98 554.98,125.42 562.01,141.99 568.11,158.92 574.18,179.02 578.59,196.47 582.4,214.06 593.91,276 596.59,287.69 599.8,299.26" fill="none" stroke="#000000" stroke-width="1"/><polyline id="SvgjsPolyline2609" points="468.49,86.18 466.58,80.5 466.03,77.55 465.9,71.57 466.39,68.61 467.3,65.76 468.65,63.08 470.43,60.67 472.59,58.59 475.07,56.91 477.8,55.66 480.68,54.84 486.65,54.39 489.63,54.67 495.46,56.08 501,58.36 508.73,62.95 515.79,68.53 522.24,74.8 528.17,81.57 535.37,91.16 540.31,98.68 546.36,109.04 554.42,125.13 562.46,144.53 569.19,164.42 574.75,184.67 578.67,202.23 582.4,222.9 585.02,240.71 590.02,279.38 592.78,297.17 595.81,311.86 599.8,326.32" fill="none" stroke="#000000" stroke-width="1"/><polyline id="SvgjsPolyline2610" points="473.76,94.3 470.47,89.29 468.02,83.82 466.6,78 466.46,72.02 466.97,69.06 467.9,66.21 469.28,63.55 471.1,61.17 473.31,59.15 475.84,57.54 478.6,56.38 481.51,55.66 484.49,55.34 490.47,55.78 496.25,57.36 501.73,59.78 506.89,62.84 514.04,68.29 520.57,74.49 526.53,81.22 535.43,93.29 540.23,100.91 544.65,108.74 552.52,124.93 559.17,141.65 565.48,161.67 569.66,179.18 572.69,196.92 574.52,214.82 575.08,229.81 574.73,244.8 573.43,259.74 571.14,274.56 567.82,289.19 563.41,303.52 559.06,314.7 552.6,328.23 546.6,338.62 539.67,348.41 531.68,357.36 524.93,363.3 517.5,368.38 509.44,372.35 500.86,375.02 491.95,376.28 482.96,376.13 474.09,374.66 465.5,372.02 459.97,369.68 454.64,366.92 449.53,363.78 444.66,360.28 437.84,354.41 431.66,347.87 424.51,338.24 421.42,333.1 417.39,325.06 415.07,319.53 412.1,311.04 408.16,296.56 400.64,261.36 397.05,246.8 392.73,232.44 387.49,218.38 379.87,202.08 372.36,189.1 363.76,176.82 354,165.44 345.3,157.18 338.23,151.62 330.65,146.76 322.59,142.78 314.07,139.9 308.19,138.69 293.24,137.69 284.4,136.06 278.65,134.33 273.06,132.15 262.37,126.73 257.25,123.59 249.86,118.47 242.76,112.93 235.94,107.06 223.14,94.42 213.47,82.95 208.28,75.61 205.13,70.5 201.01,62.5 198.72,56.96 196.87,51.25 195.53,45.41 194.83,39.45 195.05,33.46 195.65,30.52 196.69,27.72 198.26,25.16 200.35,23.02 202.84,21.36 208.45,19.28 214.36,18.24 220.33,17.73" fill="none" stroke="#000000" stroke-width="1"/><polyline id="SvgjsPolyline2611" points="466,76.28 466.19,70.3 466.88,67.38 468,64.6 469.55,62.04 471.52,59.78 473.85,57.89 476.46,56.43 479.28,55.39 482.21,54.78 488.2,54.7 494.08,55.86 496.92,56.81 502.38,59.28 507.53,62.37 514.67,67.83 521.2,74.02 529.08,83.06 534.46,90.28 541.02,100.32 546.96,110.75 552.34,121.47 559.48,137.99 566.52,157.77 572.28,177.97 576.84,198.46 580.32,219.17 582.84,240.02 584.41,257.95 587.3,299.85 589.48,320.73 591.39,332.58 593.3,341.37 596.57,352.92 599.53,361.41" fill="none" stroke="#000000" stroke-width="1"/><polyline id="SvgjsPolyline2612" points="468.98,63.67 470.74,61.25 472.91,59.18 475.4,57.51 478.13,56.29 481.03,55.5 484,55.12 489.98,55.45 492.91,56.07 498.58,58.02 503.93,60.72 508.97,63.98 513.7,67.67 518.14,71.7 526.29,80.51 535.27,92.51 543.14,105.28 551.33,121.3 558.32,137.88 564.2,154.89 569,172.24 572.74,189.84 575.42,207.64 577.02,225.56 577.52,240.55 577.13,258.55 575.66,276.48 573.15,294.31 569.66,311.96 565.22,329.4 559.87,346.59 553.6,363.46 546.49,379.99 539.75,393.39 532.03,406.24 524.87,415.87 520.87,420.34 516.51,424.46 509.23,429.73 503.87,432.42 501.06,433.46 498.18,434.28 492.26,435.25 483.28,435.12 477.36,434.14 471.56,432.6 460.4,428.21 449.84,422.53 437.44,414.09 426.01,404.4 419.67,398.01 415.7,393.52 408.46,383.95 402.35,373.63 398.66,365.43 395.79,356.9 393.76,348.14 392.49,339.23 391.85,330.25 391.71,318.25 392.58,279.27 391.97,264.28 390.73,252.35 388.05,237.59 384.07,223.14 379.92,211.88 373.55,198.31 365.9,185.41 356.96,173.38 350.96,166.67 346.68,162.46 342.19,158.49 335.01,153.07 329.92,149.89 324.61,147.11 316.23,143.84 307.46,141.87 295.49,141.18 286.59,139.86 277.95,137.36 272.38,135.14 266.97,132.55 261.72,129.65 254.13,124.82 242.15,115.79 228.77,103.76 218.45,92.88 212.71,85.95 207.41,78.68 202.67,71.03 199.9,65.71 197.48,60.22 194.65,51.68 193.4,45.82 192.78,39.85 193.06,33.87 193.68,30.93 194.71,28.12 196.25,25.55 198.29,23.36 200.75,21.64 206.31,19.45 215.19,18.01" fill="none" stroke="#000000" stroke-width="1"/><polyline id="SvgjsPolyline2613" points="539.43,98.07 545.49,108.43 550.97,119.1 555.93,130.03 560.41,141.16 564.43,152.46 568.83,166.8 572.58,181.32 575.12,193.05 577.27,204.86 579.42,219.7 581.73,243.59 582.89,267.56 583.89,321.55 584.54,333.53 585.68,345.47 587.53,357.33 590.29,369 594.14,380.36 598.95,391.35" fill="none" stroke="#000000" stroke-width="1"/><polyline id="SvgjsPolyline2614" points="576.07,208.01 577.85,225.92 578.63,243.9 578.44,261.89 577.33,279.86 575,300.72 572.25,318.51 568.4,339.16 561.24,374.44 558.18,392.17 556.77,404.09 556.17,413.07 556.01,422.07 556.26,428.06 557.79,439.95 559.91,448.7 562.88,457.19 568.04,468.02 574.32,478.24 581.46,487.87 589.25,497 599.66,507.8" fill="none" stroke="#000000" stroke-width="1"/><polyline id="SvgjsPolyline2615" points="411.32,565.51 411.91,562.61 411.58,559.63 410.74,556.75 409.45,554.05 406.69,553.3 405.35,555.93 404.98,558.9 405.49,564.87 408.03,573.49 412.09,581.51 415.6,586.36 417.64,588.57 419.9,590.54 422.45,592.12 425.32,592.97 428.29,592.67 430.94,591.3 433.18,589.31 435.05,586.97 440.06,579.49 447.93,566.72 453.56,556.13 457.03,547.83 458.74,542.08 459.7,536.17 459.69,530.17 458.59,524.28 456.52,518.66 453.75,513.34 448.72,505.88 443.07,498.88 435.01,489.98 390.46,445.45 382.27,436.68 374.42,427.6 367.11,418.09 360.66,407.97 356.71,399.89 353.87,391.36 352.74,385.47 352.31,376.49 352.81,370.52 354.53,361.69 359.04,347.39 371.05,316.66 375.97,302.49 379.91,288.02 382.55,273.26 383.39,264.3 383.61,258.3 383.21,246.31 382.16,237.38 381.11,231.47 379.02,222.72 377.28,216.98 374.19,208.53 370.54,200.3 366.34,192.35 361.6,184.69 356.34,177.39 350.55,170.5 344.23,164.11 339.7,160.17 334.93,156.53 329.91,153.25 324.64,150.39 319.13,148.01 313.42,146.18 307.55,144.98 292.59,143.97 283.77,142.25 278.04,140.47 272.46,138.26 261.79,132.78 254.19,127.97 246.9,122.69 233.13,111.11 224.5,102.78 218.34,96.22 212.49,89.37 207.06,82.2 202.14,74.67 197.89,66.74 194.46,58.42 192.71,52.68 191.48,46.81 190.86,40.85 191.09,34.86 192.59,29.07 194,26.42 195.91,24.12 198.25,22.25 200.89,20.83 203.7,19.8 209.56,18.53 215.52,17.88 236.51,17.29" fill="none" stroke="#000000" stroke-width="1"/><polyline id="SvgjsPolyline2616" points="411.57,564.36 411.68,561.38 411.05,558.45 409.91,555.68 407.83,553.53 406.14,555.86 405.73,558.83 405.88,561.82 407.15,567.68 409.33,573.26 410.72,575.92 414.14,580.84 416.23,582.99 418.68,584.72 421.56,585.48 424.43,584.67 426.74,582.78 428.55,580.4 431.19,575.01 433.25,569.38 434.89,563.61 436.32,554.74 436.46,548.74 435.32,539.83 433.73,534.04 430.32,525.72 427.51,520.42 422.7,512.82 417.38,505.56 411.7,498.58 397.55,483.07 370.08,455.38 362.01,446.51 354.33,437.29 336.8,412.94 333.58,407.88 329.78,399.74 328.37,393.92 328.1,390.93 328.52,384.96 329.99,379.15 332.19,373.57 337.76,362.94 356.45,332.18 365.01,316.35 368.83,308.2 372.27,299.88 375.26,291.4 377.73,282.74 379.62,273.95 381.16,262.05 381.53,253.06 381.21,244.07 380.2,235.13 378.51,226.29 376.17,217.6 373.21,209.1 369.65,200.84 365.52,192.85 360.83,185.16 357.4,180.24 351.81,173.19 345.66,166.62 338.96,160.62 334.17,157.01 329.13,153.76 323.84,150.94 315.46,147.66 306.68,145.74 294.71,145.06 285.83,143.63 277.22,141.04 266.27,136.14 261.04,133.2 253.47,128.34 241.51,119.29 230.27,109.36 217.71,96.48 208.2,84.88 203.11,77.47 200.04,72.31 194.92,61.47 192.96,55.8 191.47,49.99 190.53,44.06 190.31,38.07 191.09,32.13 192.02,29.28 193.4,26.63 195.28,24.3 197.6,22.4 200.22,20.95 203.02,19.89" fill="none" stroke="#000000" stroke-width="1"/><polyline id="SvgjsPolyline2617" points="294.13,576.91 293.69,579.84 295.03,585.61" fill="none" stroke="#000000" stroke-width="1"/><polyline id="SvgjsPolyline2618" points="333.94,598 335.9,592.34 336.93,586.43 337.08,583.44 336.58,577.47 334.88,568.63 332.46,559.96 328.93,551.7 325.71,546.64 321.72,542.17 319.45,540.21 314.49,536.85 309.12,534.17 300.64,531.17 297.68,530.93 294.92,530.13 289.29,529.97 286.55,530.2" fill="none" stroke="#000000" stroke-width="1"/><polyline id="SvgjsPolyline2619" points="368.7,569.12 365.75,563.92 359.49,550.29 356.4,545.16 352.41,540.69 350.12,538.76 345.07,535.52 336.81,531.98 328.15,529.54 316.36,527.33 298.67,525.26 296.32,523.85 294.12,521.85 288.27,523.08" fill="none" stroke="#000000" stroke-width="1"/><polyline id="SvgjsPolyline2620" points="361.63,597.43 364.75,585.85 365.7,576.91 365.53,570.92 365.08,567.95 362.56,559.32 359.22,550.97 356.23,545.77 354.4,543.4 352.34,541.21 347.67,537.46 345.11,535.9 339.7,533.31" fill="none" stroke="#000000" stroke-width="1"/><polyline id="SvgjsPolyline2621" points="1.84,14.06 7.68,15.43 13.63,16.19 31.61,17.01 181.6,17.26" fill="none" stroke="#000000" stroke-width="1"/><polyline id="SvgjsPolyline2622" points="1.95,205.7 4.95,205.47 7.73,204.37 9.92,202.34 13.28,197.37 15.81,191.93 22.17,175.1 25.05,169.85 28.87,165.23 31.17,163.31 36.34,160.29 56.04,153.05" fill="none" stroke="#000000" stroke-width="1"/><polyline id="SvgjsPolyline2623" points="1.44,207.7 3.61,209.76 5.25,212.27 6.54,214.98 8.49,220.65 13.95,240.92 16.24,246.46 18.11,248.76" fill="none" stroke="#000000" stroke-width="1"/><polyline id="SvgjsPolyline2624" points="0.2,154.96 5.25,158.19 10.82,160.38 16.73,161.39 22.72,161.4 31.63,160.2 40.4,158.15 49.02,155.58 57.4,152.4" fill="none" stroke="#000000" stroke-width="1"/><polyline id="SvgjsPolyline2625" points="569.39,1.45 597.99,32.21" fill="none" stroke="#000000" stroke-width="1"/><polyline id="SvgjsPolyline2626" points="470.04,88.34 467.77,82.79 466.57,76.92 466.72,70.94 467.39,68.02 468.5,65.23 470.06,62.68 472.05,60.43 474.4,58.58 477.04,57.16 479.88,56.19 482.83,55.65 488.81,55.71 494.66,57.01 500.23,59.23 505.48,62.14 512.75,67.43 517.23,71.42 523.46,77.91 527.32,82.5 532.72,89.7 540.79,102.34 549.16,118.27 556.23,134.81 562.11,151.82 566.82,169.19 570.33,186.85 572.59,204.7 573.45,219.67 573.43,231.67 572.47,246.64 570.91,258.53 568.61,270.31 564.63,284.77 560.51,296.03 555.49,306.93 549.51,317.33 544.34,324.69 536.46,333.73 529.76,339.74 522.39,344.89 514.39,349 505.88,351.88 494.06,353.92 485.07,354.09 476.16,352.92 467.49,350.51 459.22,346.99 451.45,342.45 444.27,337.03 437.75,330.83 431.94,323.97 428.46,319.08 423.82,311.37 421.08,306.03 417.44,297.8 412.31,283.71 401.71,249.31 397.89,237.93 392.54,223.92 386.39,210.24 377.82,194.42 369.61,181.87 360.36,170.07 352.15,161.33 345.48,155.28 338.36,149.78 330.76,144.98 322.67,141.04 314.14,138.18 308.27,136.98 293.31,135.99 284.47,134.36 275.9,131.6 265.04,126.52 254.82,120.25 242.83,111.24 231.64,101.26 221.26,90.43 211.92,78.71 205.48,68.59 200.32,57.76 197.52,49.21 195.98,40.36 195.96,34.37 196.4,31.4 197.27,28.53 198.65,25.87 200.57,23.58 202.95,21.76" fill="none" stroke="#000000" stroke-width="1"/><polyline id="SvgjsPolyline2627" points="490.89,55.7 493.81,56.4 499.43,58.48 507.26,62.9 514.39,68.38 522.94,76.79 530.55,86.06 537.38,95.92 544.97,108.85 551.64,122.29 557.46,136.11 562.49,150.24 566.77,164.62 570.29,179.2 573.05,193.94 575.04,208.8 576.39,226.75 576.62,241.75 576.04,256.73 574.24,274.64 571.83,289.44 568.59,304.09 564.5,318.52 559.53,332.67 553.61,346.45 548.1,357.1 541.78,367.3 534.48,376.82 528.24,383.29 521.25,388.95 516.16,392.12 510.82,394.87 505.28,397.15 496.56,399.31 487.59,399.92 478.63,399.07 472.77,397.81 467.04,396.05 461.46,393.85 456.04,391.27 445.77,385.08 436.33,377.68 427.83,369.22 420.44,359.77 415.72,352.12 412.98,346.78 409.51,338.48 406.75,329.91 404.63,321.17 402.14,306.38 398.71,276.58 396.65,261.72 393.84,246.99 390.05,232.48 385.17,218.3 379.13,204.57 371.94,191.41 363.58,178.97 356.01,169.66 347.64,161.07 338.4,153.42 330.88,148.49 322.85,144.43 314.36,141.47 305.52,139.83 293.54,139.19 287.62,138.27 278.94,135.9 270.6,132.52 260.05,126.83 250.09,120.13 240.67,112.7 229.57,102.62 219.25,91.74 209.94,79.98 205.03,72.45 202.11,67.2 199.54,61.79 197.35,56.2 195.62,50.46 194.41,44.58 193.89,38.61 194.33,32.64 195.07,29.73 196.28,26.99 198.01,24.55 200.23,22.54 202.81,21.01" fill="none" stroke="#000000" stroke-width="1"/><polyline id="SvgjsPolyline2628" points="496.99,103.4 494.36,104.81 491.4,105.21 488.43,104.84 485.58,103.92 480.38,100.95 478.06,99.06 473.94,94.7 470.58,89.74 468.06,84.3 466.53,78.51 466.21,75.52 466.65,69.56 467.48,66.68 468.76,63.97 470.47,61.51 472.59,59.39 475.05,57.67 477.75,56.38 480.63,55.54 483.6,55.11 489.58,55.34 495.4,56.76 503.58,60.47 511.05,65.48 517.86,71.36 524.08,77.86 531.59,87.21 538.34,97.13 544.43,107.47 549.92,118.14 554.86,129.08 559.3,140.22 564.16,154.41 568.29,168.83 571.07,180.51 573.89,195.24 575.62,207.11 577.13,222.03 577.91,237.01 577.96,252.01 577.3,266.99 575.95,281.93 574.41,293.83 571.93,308.62 569.54,320.38 566.1,334.98 562.21,349.47 553.33,378.12 536.78,426.36 531.79,443.65 529.87,452.44 528.98,458.38 528.53,464.36 528.61,470.35 529.89,479.25 532.58,487.83 536.45,495.95 542.88,506.08 550.23,515.56 560.15,526.8 597.97,565.35" fill="none" stroke="#000000" stroke-width="1"/><polyline id="SvgjsPolyline2629" points="562.79,150.27 566.31,161.75 569.37,173.35 571.96,185.07 574.08,196.88 576.66,217.71 577.48,229.68 577.84,241.68 577.72,253.68 577.13,265.66 576.1,277.62 574.63,289.53 572.75,301.38 570.47,313.16 567.82,324.86 564.02,339.37 558.8,356.59 553.94,370.79 548.63,384.82 542.88,398.67 537.93,409.6 531.2,423 525.22,433.41 520.21,440.88 514.48,447.81 510.07,451.88 505.23,455.42 499.98,458.3 494.26,460.06 488.29,460.6 482.32,460.06 476.48,458.72 470.8,456.79 465.28,454.43 459.92,451.74 452.11,447.26 444.58,442.34 437.28,437.07 423.42,425.61 412.69,415.12 402.95,403.73 397.72,396.41 394.56,391.31 389.19,380.58 386.15,372.12 384.04,363.37 382.85,354.45 382.5,345.46 383.28,330.49 387.65,294.76 388.7,282.8 389.1,273.81 389.09,264.82 388.03,249.86 385.55,235.07 381.6,220.61 376.21,206.62 372.31,198.51 367.92,190.65 359.53,178.23 351.83,169.02 343.24,160.65 333.72,153.37 328.59,150.25 323.23,147.56 314.79,144.47 305.97,142.71 293.99,142.07 288.06,141.19 279.37,138.87 273.76,136.76 268.31,134.25 260.43,129.91 255.37,126.68 243.31,117.77 229.82,105.86 219.39,95.09 213.55,88.24 208.13,81.06 203.23,73.51 200.33,68.26 196.63,60.06 194.68,54.38 193.21,48.57 192.31,42.64 192.18,36.65 192.49,33.67 193.15,30.74 194.24,27.95 195.82,25.41 197.91,23.26 200.38,21.57 203.11,20.32 205.97,19.42 211.86,18.33" fill="none" stroke="#000000" stroke-width="1"/><polyline id="SvgjsPolyline2630" points="563.98,152.98 567.44,164.47 570.44,176.08 573,187.81 575.12,199.62 576.79,211.5 578.03,223.44 578.83,235.41 579.24,250.4 578.63,274.39 576.95,295.32 574.06,319.15 568.08,360.72 566.15,378.61 565.48,393.59 566.21,408.57 567.52,417.47 569.59,426.23 572.44,434.76 576.04,443.01 580.32,450.92 585.21,458.47 590.6,465.68 598.41,474.79" fill="none" stroke="#000000" stroke-width="1"/><polyline id="SvgjsPolyline2631" points="451.62,598.48 461.64,591.87 466.95,589.09 472.51,586.83 481.23,584.66 490.2,584.14 499.13,585.2 504.95,586.64 510.63,588.57 521.54,593.55 531.85,599.69" fill="none" stroke="#000000" stroke-width="1"/><polyline id="SvgjsPolyline2632" points="407.44,558.26 407.74,561.24 408.67,564.09 410.89,566.05 411.87,563.31 411.69,560.32 410.95,557.41 409.75,554.66 407.96,552.26 405.56,553.76 404.63,556.59 404.52,562.58 404.94,565.55 406.38,571.37 409.75,579.7 414.39,587.4 418.19,592.04 422.7,595.99 425.29,597.48 428.16,598.35 431.15,598.24 433.93,597.15 436.36,595.4 448.45,582.07 454.72,575.62 461.42,569.61 466.25,566.06 471.48,563.12 477.02,560.82 482.8,559.25 488.77,558.77 494.74,559.29 503.45,561.52 511.78,564.92 519.77,569.06 529.98,575.36 539.74,582.33 549.1,589.85 560.17,599.96" fill="none" stroke="#000000" stroke-width="1"/><polyline id="SvgjsPolyline2633" points="406.71,552.95 405.23,555.49 404.76,558.45 405.14,564.42 406.52,570.26 409.9,578.59 414.63,586.23 418.6,590.73 420.88,592.67 423.43,594.24 426.28,595.16 429.26,595.03 432.01,593.85 434.36,591.99 436.35,589.75 463.24,553.67 468.93,546.7 473.14,542.43 478.07,539.03 483.67,536.89 486.61,536.32 489.6,536.26 495.49,537.33 503.84,540.66 511.73,544.98 521.82,551.49 533.96,560.3 545.68,569.65 557,579.49 567.83,589.87 576.03,598.62" fill="none" stroke="#000000" stroke-width="1"/><polyline id="SvgjsPolyline2634" points="410.51,566.27 411.81,563.75 411.73,560.76 411.05,557.84 409.91,555.07 408.19,552.62 405.81,554.13 404.95,556.98 404.98,562.96 405.46,565.92 407.05,571.71 409.32,577.26 412.19,582.52 415.68,587.4 417.68,589.63 422.33,593.4 425.07,594.6 428.05,594.86 430.91,593.99 433.38,592.31 437.3,587.78 453.08,565.87 464.85,548.49 474.54,533.32 478.92,525.46 479.84,522.61 479.84,519.62 478.98,516.75 476.21,511.44 474.51,508.96 470.63,504.39 466.44,500.09 455.46,489.88 417.44,455.89 404.48,443.4 394.12,432.55 384.41,421.12 377.36,411.42 371.29,401.08 367.66,392.85 365.8,387.14 364.01,378.33 363.45,369.35 364.03,360.38 365.48,351.5 367.54,342.74 377.66,308.19 381.89,290.7 383.44,281.84 384.53,272.9 385.14,257.92 384.73,248.93 383.72,239.99 382.1,231.14 379.89,222.42 376.05,211.05 372.52,202.78 368.45,194.75 363.87,187.01 358.77,179.59 355.08,174.86 347.01,165.98 337.99,158.08 333.11,154.59 327.98,151.48 319.85,147.65 311.24,145.04 305.32,144.09 296.33,143.7 290.37,143.04 284.5,141.82 278.75,140.1 273.16,137.94 265.07,134.01 257.33,129.42 249.91,124.32 242.79,118.82 233.7,110.99 225.05,102.67 218.88,96.12 213.02,89.29 207.57,82.13 202.64,74.6 198.37,66.68 195.97,61.19 193.97,55.53 192.45,49.73 191.49,43.81 191.24,37.82 191.47,34.83 192.01,31.88 192.95,29.03 194.36,26.39 196.26,24.08 198.61,22.21 201.25,20.8 206.98,19.04 212.91,18.14 218.89,17.68 236.88,17.29" fill="none" stroke="#000000" stroke-width="1"/><polyline id="SvgjsPolyline2635" points="597.24,0.26 599.05,2.65" fill="none" stroke="#000000" stroke-width="1"/><polyline id="SvgjsPolyline2636" points="573.2,299.86 569.78,317.53 565.57,335.03 560.66,352.35 554.16,372.32 545.84,394.83 537.9,414.26 530.67,430.75 514.16,466.08 509.39,477.09 507.35,482.73 505.69,488.5 504.96,494.44 505.11,497.44 505.66,500.38 506.6,503.23 509.33,508.56 512.78,513.47 518.63,520.31 531.35,533.04 559.92,559.58 574.99,574.2 587.33,587.31 596.87,598.87" fill="none" stroke="#000000" stroke-width="1"/><polyline id="SvgjsPolyline2637" points="578.2,243.24 578.01,258.24 577.13,273.21 575.6,288.13 572.98,305.94 569.59,323.61 564.84,344.07 549.71,399.02 545.42,416.5 543.75,425.34 542.61,434.27 542.21,443.26 542.45,449.25 543.17,455.21 544.37,461.08 547.07,469.66 550.71,477.89 556.72,488.27 563.68,498.04 573.26,509.58 583.48,520.55 598.37,535.37" fill="none" stroke="#000000" stroke-width="1"/><polyline id="SvgjsPolyline2638" points="566.21,161.32 570.65,178.76 574.5,199.4 576.92,220.26 577.89,241.23 577.43,262.22 575.6,283.14 571.93,306.85 567.48,327.37 563.67,341.88 558.49,359.12 553.71,373.34 547.48,390.22 541.92,404.15 533.59,423.43 525.96,439.73 519.2,453.12 510.29,468.76 506.89,473.7 502.95,478.22 500.64,480.13 498.04,481.63 495.2,482.57 492.23,482.95 486.27,482.36 480.47,480.85 474.85,478.75 466.81,474.72 459.09,470.09 449.16,463.36 439.53,456.2 430.18,448.67 421.12,440.81 412.38,432.58 406.09,426.15 400.06,419.47 394.38,412.49 389.13,405.18 385.93,400.11 383.02,394.86 379.32,386.66 376.54,378.11 374.8,369.28 374.11,360.31 374.33,351.32 376.19,336.44 383.25,301.14 385.6,286.33 386.53,277.38 387.03,268.39 386.72,253.4 384.89,238.52 383.03,229.72 380.62,221.05 377.66,212.55 374.17,204.25 367.21,190.97 364.04,185.88 358.86,178.52 351.18,169.31 342.58,160.95 337.92,157.17 333.02,153.72 327.87,150.63 322.49,147.99 314.01,144.98 305.17,143.35 293.2,142.7 287.28,141.74 278.61,139.33 267.59,134.61 262.32,131.74 254.7,126.95 242.68,117.99 231.4,108.11 218.82,95.24 212.99,88.39 207.58,81.2 202.69,73.64 199.8,68.38 196.13,60.17 194.19,54.49 192.74,48.67 191.86,42.74 191.73,36.75 192.05,33.77 192.71,30.84 193.8,28.05 195.37,25.5 197.45,23.34 199.91,21.64 202.63,20.38 205.49,19.47 211.38,18.36" fill="none" stroke="#000000" stroke-width="1"/></g></svg>