<?xml version="1.0" standalone="yes"?>
<svg xmlns="http://www.w3.org/2000/svg" width="978" height="1021">
<path style="stroke:#000000; fill:none;" d="M964 12L964 49L960 51L951 51L950 51L945 51L925 51L900 50L899 50L885 50L868 50L867 50L862 50L857 50L843 51L823 50L822 50L819 51L818 51C803.432 47.5318 785.951 50 771 50L678 50L516 50C491.29 50 461.024 45.2805 437 51L399 50L326 50L92 50L91 51L92 90L91 129L90 130L55 129C50.0782 145.651 54 168.614 54 186C54 194.901 52.4694 205.439 55 214L55 215L53.9606 243L54 269C51.2255 278.386 51.2255 295.614 54 305L52 338L52 339L52 352L52 353L53 398L53 399L52 446L53 472L52 476L52 481L52 483L52 490L52 495L52.0039 518L52.9213 556L53 585L53 586C51.8387 591.341 53.3442 596.577 52.8302 602C51.3274 617.857 48.461 640.644 53 656C49.9664 666.263 50.5237 683.599 53 694L53 695L52 727L52 787L53 832C48.1605 848.373 52 870.906 52 888L52 1006L50 1008L12 1008L11 1007L11 860L11 814L11 793L12 780L12 768L11 764C15.8395 747.627 12 725.094 12 708L12 589L12 225C12 178.197 9.71546 130.656 12.9105 84C13.6983 72.496 10.784 60.3555 13 49L12 46L12 45L13 13L14 12L51 12L58 12L70 12L75 12L81 12L88 12L91 13L92 13C99.0496 11.0618 111.905 10.9029 119 13L144 12L156 12L177 12L182 12C193.152 15.2964 212.694 14.6916 224 12L232 12L254 12L255 12C262.917 14.3403 276.083 14.3403 284 12L321 13L395 13L427 14L444 14L476 13L539 13L573 12C586.976 15.3272 603.66 13 618 13C641.432 13 665.716 14.9871 689 13.7909C702.816 13.0811 722.8 10.1346 736 14L737 14L754 14L763 14L764 14L767 13L768 13L789 13L798 13C811.86 16.2997 829.952 14.7755 844 13M849 14L963 14M270 35L270 26L278 27L277 35L277 35M291 35L282 34L284 30L283 26L291 25M321 25L327 25L328 25L329 25M334 25L334 35M344 25L349 26L351 28L352 32L348 36L343 36L340 31L344 25M369 34L378 34C375.476 31.085 368.777 28.2374 374 25L376 25M382 25L382 32L382 33L382 34L382 35M404 29L405 25L412 27L404 33L404 34L404 35M416 35C419.896 35.5999 422.002 35.5895 424 32C420.555 30.2604 416.133 27.8892 421 25L423 26M454 30L454 26L455 25C458.582 25.5681 459.943 26.5083 461 30L454 32L454 35L455 36L463 33L461 30M477 35L468 34L468 26L476 25M484 35L484 26L485 25L486 25L487 25M515 30C511.707 30.0688 510.946 29.1413 510 26L518 25M533 36L526 36L525 35L525 26L533 25M565 26L571 26L572 25L573 25M579 25L579 32L579 33L579 34L579 35M599 30L593 26L601 25M624 29L625 25L631 29L624 33L624 34L624 35M651 25L654 32L647 34L647 35L647 36M657 25L663 25L664 25L665 25M714 34L706 34L706 27L714 26L714 26M732 30L732 26L733 25L740 27L732 33L732 34L732 35M296 26C296.021 31.8393 296.394 35.3409 303 35L304 35M325 26L325 35M364 26L364 35M390 26L389 30L390 35M397 26L397 35M480 26L484 26M493 26L496 33L496 34L496 35M499 26L502 33L505 26M538 26L546 34L546 26M587 26L586 30L587 35M636 26L636 35L643 36M662 26L662 32M672 26L677 26L680 30L680 32L675 37L670 34L670 28L672 26M686 26L686 36M694 26L693 32L688 28M699 26L699 34M749 26L754 26L757 29L757 33L754 36L753 36L748 36L746 29L749 26M761 26L761 35L768 36M770 26L774 32L774 33L774 34M777 26L774 30M783 26L783 33L783 34L783 35M791 26L792 33L792 34L791 35M805 36L796 35L796 27L804 26M811 26L819 30L812 37L811 26M823 36L823 27L831 28L830 35M316 31L311 31L315 27L318 33L318 34L319 35M570 27L570 35M651 27L649 32M841 33L837 32L839 27L844 35M356 36L357 28L363 34M499 29L496 32M538 29L538 36M271 30L274 31M284 30L288 30M384 30L389 30M469 30L474 30M527 30L531 30M581 31L586 30M593 30L595 36L602 35M798 30L801 31M510 31L510 35L518 36M784 31L790 31M824 31L828 31M312 32L310 35M654 32L656 35M502 33L502 35M837 33L835 36M964 51L963 90C966.021 100.22 966.021 119.78 963 130C967.675 145.816 964 167.49 964 184L964 266C964 278.419 966.523 294.083 963 306C965.638 314.923 965.152 328.963 963 338L964 352L964 353L963 386L963 453L962 482L963 519L963 596L963 628L961 656C964.523 667.917 962 683.581 962 696L962 779C962 795.51 965.675 817.184 961 833C966.033 850.027 963.335 877.391 961.286 895C960.61 900.802 962.658 906.337 961 912L962 916L962 926C957.757 943.821 961 965.692 961 984C961 991.6 962.647 1001.17 959 1008L947 1008L943 1007L936 1007L920 1008L917 1007L916 1007L912 1007L850 1008C840.823 1005.29 824.177 1005.29 815 1008L814 1008L787 1006L786 1006L775 1008L768 1008L741 1007L692 1008L691 1008C666.139 1002.08 637.43 1013.22 613 1006L612 1006L552 1008L531 1008C509.929 1002.98 483.662 1007 462 1007C454.886 1007 446.818 1009.01 440 1007L439 1007L426 1008C418.082 1005.66 404.918 1005.66 397 1008L358 1007L302 1007L273 1008L272 1008L267 1006L233 1008C225.719 1005.85 214.281 1005.85 207 1008L201 1008L184 1007L183 1007L178 1007C170.294 1009.28 157.706 1009.28 150 1007L149 1007L108 1008L90 1006C81.0919 1010.29 61.4453 1009.79 52 1007M450 66L457 70L456 75L455 76L449 77L446 70L450 66M462 66L464 77L469 74L469 67M474 66L478 68L478 76M478 67L482 66M493 71L489 72L487 67L495 66M540 66L540 76M551 72L556 73L552 78L551 78L546 74C546.45 68.0459 549.196 66.1102 555 67L555 67M574 77L575 72L575 66L581 68L580 76L580 76M595 76L586 75L586 68L595 66M599 76C602.896 76.5999 605.002 76.5895 607 73C603.555 71.2604 599.133 68.8892 604 66L606 67M501 77L501 68L509 68L509 77L509 77M526 76L526 68L533 67M560 67C560.12 71.9749 560.88 75.4796 566 77L567 68M588 71L592 71M487 72L489 77L496 76M502 72L507 72M527 72L531 72M575 72L579 72M268 87L267 480L269 482L382 482C398.51 482 420.184 478.325 436 483L437 483L473 482L546 482L584 481L585 481L600 482L611 482L613 480L614 471L613 465M92 90L127 89L131 90L156 89L163 90L168 90L173 90L179 90L192 90C199.435 87.8024 208.278 89 216 89L260 89L367 89C382.341 89 402.297 85.6539 417 90L440 91C455.005 86.5231 480.862 86.4379 496 90L544 90L569 90L570 90C581.051 86.7333 602.949 86.7333 614 90L644 89L709 89L739 89L740 89L750 89L757 89L765 89L766 89L788 91C804.372 86.1603 826.906 90 844 90L963 90M614 90L613 138L614 142L614 150L613 166L613 167L613 178L613 202L613 255L614 279C609.617 297.412 613 320.082 613 339L613 460M440 91L440 656L961 656M788 91L787 108C791.735 127.889 788 152.558 788 173L788 305L793 305L794 305L798 305L804 305L805 305L812 305L813 305C822.386 307.774 839.614 307.774 849 305L850 305L872 305C880.698 307.571 894.191 307.097 903 305L906 306L907 306L914 306L918 305L963 306M813 101L812 107C813.792 110.537 813.718 112.08 811 115L807 109L812 107M873 101L874 107L873 114M901 101L901 107L894 109L898 115L902 113L902 108M644 102L646 110L646 111L646 112L646 113M836 102L835 108L831 107L832 115L837 112L836 108M331 103L333 113M349 103L350 108L354 107L355 114M379 103L377 107C378.919 110.792 378.691 112.728 375 115L372 109L377 107M170 104L176 106L177 113M201 104L201 113L196 115L193 110L199 107M695 104L695 114M122 105L123 113M141 105L142 112L143 113L144 113M150 113L149 107L156 106M524 105L527 115L529 115L531 113L531 110L526 108M724 105L724 113L719 115L717 109L722 107M207 113L210 106L212 107M218 106L223 112L218 115L215 111L218 106M227 113L230 106L233 114L233 114M384 114C384.127 110.097 384.599 108.085 388 106L390 107L390 107M673 114L678 113L675 106L676 106L678 106M729 114C729.049 109.825 729.029 106.24 734 107M875 107L879 108L879 113M134 113L129 112L132 107L134 108M160 107L166 108L161 112M308 107L314 112L309 115L306 109L308 107M325 114L321 114L321 107L323 107M339 107L344 108L339 113L339 113M396 107L400 107L402 109L402 113L397 115L394 110L396 107M406 114L406 108L407 107L411 107L412 114M508 114C502.494 113.751 501.678 108.698 507 107L507 107M513 107L515 114L516 114L518 107L518 107M656 113L652 114L650 112C651.057 108.508 652.418 107.568 656 107L656 107M667 107L669 109L664 115L661 110L667 107M684 108L690 109C689.269 112.468 688.703 114.277 685 114L689 111M696 107L700 107L701 114M739 107L746 111L741 115L739 107M749 114L749 108L750 107L754 107L755 113M820 107L826 109L821 115L818 109L820 107M857 114L853 114L850 109L857 107M862 107L868 109C867.142 112.91 865.448 115.036 862 112L867 111M907 112L907 108L912 107M918 107L924 110L924 112L921 115L919 115L916 109L918 107M928 114L932 107L934 114M171 108L171 114M188 114L182 112L182 110L189 108L189 108M366 114C361.502 112.889 360.386 108.139 366 109M712 115L708 115C706.639 111.767 706.67 110.637 709 108L711 109M848 114L844 115L842 110L844 108L850 109L850 109M889 114C884.024 113.774 883.074 109.599 888 108L888 108M349 109L349 114M540 115C535.227 113.549 534.699 109.887 540 109L540 109M164 112L167 114M91 128C97.0114 131.208 105.479 130.552 112 129L136 129L186 130L285 130L331 130L355 129C372.485 134.169 396.739 130 415 130L543 130L963 130M91 131L91 249C91 266.094 94.8396 288.627 90 305L104 305L122 306L140 306L145 306L153 306L154 306L160 306C167.794 303.696 179.111 304.122 187 306L188 306L196 306C218.548 300.632 246.814 305 270 305C281.541 305 295.92 302.725 307 306L308 306L314 306C335.071 300.984 361.338 305 383 305C393.955 305 407.478 302.89 418 306L419 306L422 305L476 306L478 306L482 305L488 305L519 306L520 306L530 306L537 305L547 305L548 305L565 305L569 306C580.882 302.488 605.118 302.488 617 306L618 306L640 305L676 306L680 305L681 306L682 306L685 305L703 306L704 306L723 305L749 305L757 305L758 305L765 305L784 305L785 306L786 306L787 306M294 189L290 181L294 177L352 145L354 149L359 158L379 191L390.219 212L416 256L410 262C392.413 268.437 373.132 281.007 358 292L354 293L349 293C333.529 281.195 312.408 267.38 294 261L290 253L308.309 223L333 180L341 183L340 187L315 228L308 246L314 241C327.13 235.532 342.164 227.211 353 218L392 241L399 245L399 241C395.778 236.564 391.62 231.633 393 226L393 226M354 145C375.06 153.814 398.895 168.086 417 182L412 193L412 193M351 147L333 180M868 176L844 192L842 188L845 180L868 175L874 174L878 171L879 147L894 153L897 153L902 156L906 156L917 160L922 164L927 170L940 190L946 200L923 208C918.055 202.303 909.874 199.334 910 191L909 189M878 280L877 275L878 267L847 274L841 277L837 276L833 279L828 275L809 248L808 241L808 207L808 206L808 199L811 194L823 179L823 177L836 161L856 154L878 148M665 233L670 232L667 210L682 214L684 216L700 220L701 188L699 167L701 163L701 158L699 154L701 152L704 153L708 158L719 166L723 167C728.6 173.27 737.055 180.159 745 183L745 182L745 181L746 180M526 153L532 156L572 177L587 188L586 252L581 257C563.329 264.615 543.566 276.691 528 288L524 288L467 254L467 189L502 166.576L525 154L527 167C524.167 178.901 526 192.799 526 205C526 210.554 525.143 215.633 529 220L585 187M706 153L716 156L719 158L732 161L735 163L738 163L742 169L738 173M665 173L657 169L660 166L664 166L669 162L676 161L692 157L699 154M78 160L73 161L71 156L77 155M525 158L499 200M533 158L556 199M692 158L683 165L689 167M834 163L837 166M74 164L75 164L78 166L76 172L73 172L71 170L71 166L74 164M696 185L670 175L683 165M739 165L736 167L730 167M341 182L352 166L357 169L364 181L371 179M666 167L668 167M671 167L674 167M694 167L699 167M705 167L712 167M179 168L181 172L200 208C209.687 220.696 222.186 239.794 227 255L238 275L233 274M353 168L353 218M916 168L914 171M743 170L748 175L760 194L745 184M179 171L175 175L133.775 247L118 275L124 273M661 173L662 178L651 188L649 188L642 193L642 189L657 170M840 171L844 179M877 172L881 176L885 177L909 195M669 174L665 178L662 178M874 174L867 194L865 196L862 203L850 233L844 248L844 254L834 272L835 273L836 274L837 275M178 175L178 180M71 176L72 182L78 181M881 176L882 180C893.971 189.197 912.649 206.381 919 220L936 237L945 246L947 201M910 176L906 179L907 182M656 177L654 180M735 177L731 181L730 181M292 179L295 181L300 181M413 179L408 181M887 179L885 181M891 181L896 179M900 180L902 180L906 179M306 181L315 181M321 181L326 181M378 181L385 181M390 181L402 181M661 182L662 190L664 193L665 204M666 182L677 209L677 210L676 211L675 212M365 183L391 227M289 184L289 252M178 186L178 190M72 188L78 189L74 195L69 188L68 188L67 188M727 187L724 191M417 188C417 208.309 421.745 235.565 416 255M469 188L521 218L527 222L528 221L529 221L529 221M701 188L719 194L721 196L731 200L734 200L741 203L748 206L756 204L758 202L766 201L761 195M652 189L652 192L650 196M749 191L750 195M845 192L841 196L839 225L837 227L837 229L838 237L842 246L842 247L843 248L844 249M640 193L637 198L666 209M297 194L299 197L300 200M840 196L837 206M409 197L405 205M178 198L178 204M811 198L818 201L824 203L829 205L835 225L835 226L836 227L837 228M829 205L837 199M637 200L637 206L644 216L647 207M78 201L76 208L73 202M767 202L769 206L769 242L761 250L745 272L751 247C753.174 242.759 753.572 240.402 750 237L750 237M767 204C760.944 213.743 756.918 227.718 755 239L756 239L758 240M757 205C754.5 209.945 751.671 209.759 748 206L748 206M913 205L913 210M303 206L305 208L307 213M560 206L576.694 234L586 248M744 206L740 209L730 211L727 213L701 221L689 238L692 244L695 248L699 258C714.39 242.61 730.541 222.546 749 211M636 207L637 244L660 275L667 268L661 262M495 208C487.815 221.641 473.926 236.824 471 252L471 253L471 254L470 255M922 209L922 212L919 217M178 210L178 214M402 210L400 212L399 215L398 216M836 212L835 215M78 219L73 220L71 218L71 214L78 213M643 216L646 229L648 232L649 238L640 241L638 241M526 218L524 220M67 220L70 219M681 219L687 233M310 220L313 223L316 227M178 221L178 227M524 221L482 247L478 248L471 252L470 252L469 252L468 252M529 221L557 238L581 252L582 252L583 252L584 253M918 221C915.184 233.17 911.487 249.92 904 260L919 280C927.774 273.27 939.073 258.358 943 248L910 257M700 222L715 243M526 223L526 284L526 285L526 286L526 287M71 230L73 225C76.2875 226.379 78.4974 227.746 76 231L75 226M641 226L641 229M832 228L830 239L829 239L828 240L827 240M729 229L731 231L733 232L736 232M762 230L762 232M671 233L675 254L679 252L684 245L688 238M178 234L182 243L183 243L184 244M660 234L657 236L654 236M740 234L742 234L746 236M71 236L70 240L78 242M837 238L835 242L832 274L832 275L832 276L831 277M650 239L652 248L654 256L660 271M765 239L765 242L761 241M178 240L175 243M832 240L835 242M818 242L823 241M716 244C720.453 251.127 729.708 269.683 739 264M810 245L814 244M168 247L172 245M310 245C316.706 248.579 324.431 243.976 329 251L330 252M397 245L379 248L365 246L329 246M400 246L402 247M945 246L943 248M188 247L191 249L194 250L195 250M379 248L378 252M77 249L74 252L66 252M754 253L758 250L761 250M161 251L159 252L156 254L155 254M475 251L486 252L521 253M579 251C566.946 257.433 543.609 253 530 253M198 253L200 253L204 256M649 253L654 256M678 253L696 257M675 254L675 258L667 267M845 255L847 261L837 274M293 257L413 257M142 262L150 258M78 259C77.6358 263.704 75.7702 265.691 72 262L72 262M208 259L213 261M701 259L701 264M879 266L890 261L896 262L901 260L902 260L903 260L904 260M847 261C858.238 261 875.996 257.661 886 263M335 262L338 267M372 262L369 267M216 264L221 266M129 269L131 269L133 267L136 266M225 269L230 271M734 269L740 278L744 272M670 270L674 272M701 270L701 273M77 271L75 274L67 274M341 271L345 279M728 272L724 274M365 273L363 276L362 279M661 275L667 279L673 277L680 277L724 279L725 279L736 280L737 279L738 279L739 278M117 276L120 279L124 278L132 278L137 278L199 279L200 279C210.208 275.982 225.579 277.065 236 279L237 278L238 277L239 276M668 279L672 282L689 288L695 288L699 291L703 291L711 289L735 280M834 279L857 288L860 290L875 295L880 295L886 292L902 287L920 280M714 282L712 283M347 283L351 289L351 290L352 291M701 284L701 290M358 286L356 291M878 287L878 294M54 305L90 305M91 306L91 359L91 383L91 387C88.9109 394.068 88.9109 404.933 91 412L91 436L90 440L90 451C94.1021 468.23 91 489.302 91 507L91 620L91 686C91 697.282 92.6212 709.99 90 721L90 722L91 779L91 786L90 790L91 803L91 821L91 826L91 832L92 833L90 833M788 307L788 396L787 441L788 478L788 549L788 582L787 608L787 659L787 825L787 894L787 925C783.372 937.274 786.047 953.383 786.911 966C787.815 979.214 787 992.754 787 1006M346 463L348 469L312 449L308 445L289 434L290 429C302.189 411.932 316.792 389.688 324 370L332 359L338 348L339 344L352 322L356 325C363.363 326.261 370.668 332.063 377 335.939C389.923 343.849 407.413 349.966 417 362L417 408L415 430L416 436L354 473L357 463L357 463M809 394L810 391L826 380L827 376L878 334L877 325L887 325L892 328L913 334L924 343L946 374L945 383L945 395L931 406L918 412L917 407L925 382L893 358.255L875 348L829 382L837 408L833 408L816 400L810 395L809 423L823 443L834 454L847 436L846 431L852 436C858.103 436 875.958 439.979 878 433L883 431L912 415L912 424L927 413L931 406M291 366L288 363L289 359L325 337.576L350 324M356 325L372.22 355L415 430M839 344L835 339L851 333L854 331L857 331L860 329L863 329L866 327L874 325L875 325L876 325L877 325M526 397L502 382L469 363L469 362L508 338.576L530 327L587 362C587 381.434 582.502 407.399 588 426L583 429C571.069 439.077 555.461 445.964 542 453.861C536.807 456.908 531.131 462.47 525 460L527 456C524.66 448.083 524.66 434.917 527 427L527 413L526 397C545.967 387.557 567.176 374.058 585 361M698 363L694 364L666 384C675.16 388.827 688.684 394.094 699 395L698 363L700 361L699 342L694 342L685 352L684 353L675 361L667 351L651 364L649 364L641 369C644.373 358.434 654.344 347.817 662 340L667 337L680 332L684 332L697 329L702 328L705 332L720 341L732 351L733 350L734 349L735 348M704 328L726 334L737 338L742 342L746 347L765 373L766 382L760 395L765 399L767 383M700 329L700 341M696 330L684 340L680 341L668 351M526 334L526 339M877 335C878.587 339.56 878.272 343.744 876 348M879 337L911 364.41L927 380L945 375M918 337L914 342M77 339L70 345L77 346M665 339L669 341M808 390L808 375L811 370L835 339M178 340L181 345C186.327 357.362 193.906 369.448 200.822 381C203.585 385.616 209.046 391.003 205 396L209 397L223 421L238 445L238 450L200 451L178 450L176 446L149 394L146 399L134.432 417L119 446L126 443M675 340L678 342M742 379L729 368L728 367L703 342L709 340M690 341L693 341M700 341L702 341M729 341L734 341M738 342L738 344M178 343L176 345L177 348L177 349M526 343L526 349M662 343L664 346M176 346C166.675 358.23 154.662 376.37 150 391L151 392L150 393L149 394M911 347L908 355L908 356L909 357M655 349L656 354M842 349L845 353L842 359L842 360L842 361L842 362M878 349L877 368C879.403 376.128 879.403 389.872 877 398L877 411L877 432M73 351L78 353L76 359L70 356L70 354L73 351M733 352L739 358L763 376L743 385C746.439 388.046 748.569 389.872 753 388L750 385M745 352L747 357M846 353L850 352M899 354L902 352L907 352M526 354L526 357M178 355L178 360M729 357L727 359M290 358L292 360L296 360M300 360L307 360M312 360L318 360M323 360L326 360M333 360L339 360M343 360L350 360M356 360L363 360M366 360L369 360M380 360L383 360M389 360L396 360M401 360L409 360M675 361L659 378M700 361L705 362L739 385L740 384L741 384L742 384M71 364L70 369L78 370M468 364L468 426L472 430L525 460M499 377L521 365L522 366L526 364L529 368L551 378M287 365L287 384L287 385L287 412L288 416L287 427L287 428L288 429L288 430M652 365L652 367M522 366L513 384M177 367L178 372M412 367L409 371M529 369L538 385M666 384L661 384L648 378C643.286 377.303 638.249 376.448 638 371L640 370M293 371L295 375M751 372L752 375M650 373L649 377M810 374L822 379M946 374L949 374M67 375L71 376L78 376L73 382L71 376M636 375L637 380L637 400L643 395L638 380M406 377L404 380M151 392L155 390L177 378C185.646 381.166 198.116 387.899 204 395M647 380L647 389L654 381M927 380L925 382M299 381L301 384M827 381L828 381M933 383L944 394M661 384L646 395M700 396L722 389L726 389L734 386L735 386L736 385L737 385M755 385L754 392L751 390M497 386L498 408L509 391L509 391M553 386L553 400L552 407L553 412L548 414L545 418L527 427M77 387L74 394L72 389M400 387L398 391M304 390L305 392M543 392L549 404L550 405L551 406L552 407M755 392L758 395L760 396M204 395L189 397C177.982 394.377 163.102 394.939 152 397M209 396L209 397M944 396C947.273 402.134 946.954 412.39 945 419L946 423L929 444L929 446L919 457L886 468L883 468L880 470L874 469L869 466L837 456L836 456L834 454M642 397L646 402L647 408L640 406L637 401L636 418L640 423L643 423M698 401C701.755 413.703 701.067 437.116 698 450L675 432L687 415L695 402L700 397L734 443L740 438M759 397L757 406L765 400C768.293 406.842 767.36 413.9 763 420L758 418M78 405L71 405L70 404L70 400L77 399M147 400L149 399M207 400L204 402L180 446L208 431L217 437M308 399L312 404L313 405M147 400L147 430C153.178 435.342 167.682 447.286 176 446M393 400L391 402L390 405L390 406M208 401L208 431M816 401L832 418L833 419L842 424L842 420L839 411L838 409M67 405L69 405M639 407L639 408M756 407L752 414L753 418L750 430L755 427M498 408L498 412L506 418L510 419L521 426M648 409L650 414L672 429M762 409L764 415L765 416M316 410L317 412M70 415C71.9432 411.93 73.306 411.447 76 414L76 415M917 411L913 416M386 412L383 417M503 413L509 413L521 413M527 413L534 412L537 413L548 414M842 412L877 431M493 413L491 414M727 429L751 413M826 413L824 416L820 416M927 413L932 415M638 418L648 414M650 414L654 430L648 427M558 415L561 416L564 418M825 416L827 418L830 419L831 419M320 418L322 421M811 420L815 418M939 418L944 419M481 420L485 419M569 421L573 423M763 421L745 446L745 439L748 430M77 423L70 427L69 426L68 426M469 427L471 425L475 423M641 424L654 442L658 448L659 443L656 433L655 431M378 425L376 429M843 425L845 430M911 425L908 430L907 437L920 455M325 426L326 428M578 426L582 428M147 430L143 433M879 437L879 456L897 437L901 436L905 432L906 431L907 430L908 430M291 432L330 434C341.817 430.507 363.017 431.147 375 434C387.716 431.639 402.227 432.386 415 434M697 450L693 453L683 453L679 451L661 451L675 432M668 454L672 456L675 458L691 461L696 465L702 466L719 460L723 460L736 454L721 452L717 453L701 451L724 433M70 434L72 439L77 434L77 434M330 434L332 439M851 435L848 437M902 435L907 437M132 439L134 439L136 437L139 436M660 436L664 439M879 437L896 436M371 439L369 441L367 445M222 440L228 443M857 440L875 457L876 457L877 457L878 456M734 443L740 453L744 446M72 444L78 446L75 452L73 452L70 446L72 444M335 444L338 449M670 444L674 447M730 445L725 448M119 446L118 450C134.098 454.758 156.193 451 173 451L174 450L174 448M233 446L237 447M658 448L661 451M174 450L178 450M364 450L361 456M699 465L699 452L699 451L700 451L701 451M739 452L737 454M341 454L343 458M717 454L714 457L711 458M878 458L878 459M878 464L878 469M349 470L351 471M53 482L267 482L268 501C264.807 511.801 267 525.752 267 537L267 609C267 683.243 262.74 758.914 267 833L290 832L299 832L306 833L333 832C340.494 834.215 352.506 834.215 360 832L365 832C381.929 837.004 405.322 833 423 833L547 833L591 833C598.234 833 606.352 834.199 613 831L613 597L613 481M614 482L962 482M210 486L211 486M26 494L28 500L35 492L36 499M291 541L288 534L332 506L353 496L356 500L369 505L415 534L417 539L417 558L417 580L416 607L412 609L399 617L395 621L355 642L351 646L348 640L345 635M925 520L929 525L929 527L945 549L941 552L924 556L924 563L920 568L907 610L850 610C843.814 599.323 838.805 583.222 837 571L832 564L831 555L824 554L810 549L832 514L838 511L876 497L880 497L884 498L895 503L902 504L912 508L919 511L924 520L922 555L878 521L880 512L879 498M352 498C346.958 506.63 336.752 519.042 336 529L352 520L353 520L370 531L371 527L356 500M526 507L528 502L585 534L586 535L588 539C585.085 554.7 587 572.054 587 588C587 593.964 588.967 602.71 583 606L579 602M522 574L524 571L469 539L473 534L526 504M706 505C715.202 506.378 727.618 510.311 735 516L740 516L738 522L741 533L746 538L750 554L743 557L731 561L728 563L701 570L700.985 532L701 509L699 505L703 504L708 510L714 516L711 517M672 534L676 539L660 544L651 546L643 552L642 552L638 549L638 545L646 535L661 515L665 515L671 512L675 512L690 506L696 506L697 505L698 505L699 505M36 507L37 514L31 514L27 516L26 508M694 508L684 516L679 517C674.613 525.017 662.375 530.718 655 536L655 530M31 510L31 514M839 510C844.97 513.186 854.568 512.901 861 511L874 512M915 510L904 511L900 512L880 512M179 513L179 517L192.204 537L226 594L227 598C232.117 605.043 239.092 614.182 240 623L236 625L212 625L186 624L140 625L134 625L133 625L121 625L118 622L118 621L119 617L138 584L179 517M526 514L526 517M733 514L728 516M685 515L697 517M716 515L728 525L735 522L736 522L737 522L738 522M670 516L672 516M675 516L678 516M703 516L708 516M720 516L724 516M740 517L743 522L748 526L755 535L756 538L763 550L759 553L750 555M659 518L663 522M832 520L832 554M32 523L30 529L28 529L26 527L28 521L35 522L36 522L37 521M832 554L878 521M726 524L703 532M730 525L741 533M178 526L178 531M527 526L526 529L527 532M33 529L36 529M335 529L330 535L309 574L289 606C283.338 586.843 288 560.017 288 540M372 530L375 536L395 567C396.794 560.931 397.006 552.633 394 547L389 551M746 530L746 532M25 534L37 536L34 541L26 541M413 533L410 535L405 534M291 534L298 534M302 534L310 534M314 534L321 534M316 550L310 546L310 545L327 534L328 534L330 536M378 538L381 534L388 534M393 534L400 534M761 590L754 594L753 588L755 585L757 580L761 589L765 591L764 595L759 601L749 603L744 616L744 620L740 627L722 603L700 572L691 583L687 591L667 617L665 610L662 605L656 587L656 582L651 570L651 566L647 555L651 554L678 563L681 565L686 565L686 561L684 554L682 551L679 540L694 534L697 534M586 536L525 573C529.099 586.868 526 605.535 526 620C526 626.34 524.952 633.288 528 639L583 606M654 536L651 544L651 545L651 546M380 537L386 540L394 546M415 537L412 542M527 538L527 542M746 539L761 549M178 540L179 545M468 540L468 570L468 571L467 574L468 605L472 609L526 639M639 546L650 540M677 540L679 540M750 541L750 545L752 548M31 549L35 546L37 552L33 556L29 556L27 547L27 547M309 547L307 568L303 562M295 548L298 553M408 548L407 551L405 554M178 550L179 557L172 561L153 573L178 588L202 574C206.975 581.841 199.113 598.809 207 604L208 604L209 605L210 605M637 550L637 554L643 566L645 564M764 550L766 555L762 560L757 577L757 578L757 579L757 580M809 550L810 597L832 626L832 611L831 577L832 566M527 551L527 557M645 551L648 554M946 551L945 561L945 562C947.089 569.067 947.089 579.933 945 587L945 588L944 595L932 613L931 616L920 628L908 611M835 553L846 554L851 554L858 556L864 556L903 555.001L920 554M78 555C77.2731 559.505 75.1603 560.515 72 557M325 555L352 572L357 570L382 555M636 555C636 565.017 632.392 583.927 639 592L642 592M751 556L752 560L756 560M767 556L766 587L765 588L766 589L766 590M178 558L202 573M402 560L401 562L397 566M752 560L755 567L758 574M27 561L30 562L36 561M526 563L526 566M686 565L691 567L693 569L700 571M925 565L924 592L921 621L921 622L922 623L923 624M71 572L74 566L75 566L78 568L78 572L69 573L68 574L67 574M643 566L649 589L648 589L646 590M395 567L397 575L416 603M688 567L691 581M26 569L27 576L35 576L36 576L37 576M31 571L31 575M352 572L353 608L345 608L344 608L338 610L330 608L329 608L326 609L309 609L308 609L290 609L296 613L329 633.011L347 643M529 574L534 576M152 575L152 603L178 618L179 589M308 575L309 592L313 596L329 605L330 606L330 607L330 608M396 576L396 594L377 607C381.836 609.581 386.752 609.249 392 608L394 608L411 608M513 579L516 577L519 576M761 577L758 581M829 579L831 577M641 578L640 583M539 579L543 581M69 581L77 582L75 587L69 587M927 581C929.329 584.702 929.432 586.348 927 590L926 591L925 592M501 586L509 582M827 584L827 591L828 592M548 585L550 585L554 587M763 586L765 588M664 614L657 611C654.752 604.09 649.656 595.174 652 588L655 588M930 588L934 591M694 589L700 614L701 615L701 616L701 617M820 590L825 589M490 592L495 590M559 591L564 593M636 592L642 600L644 605L653 615L659 622L663 628L671 629C674.97 633.174 683.535 635.988 689 634L684 628L679 627L672 628M810 593L815 592M71 593L73 599L78 593L78 593M938 593L943 595M751 594L749 601L749 602L749 603M480 599L485 596M570 596L575 599M727 602L733 601L747 596L748 596L749 596L750 596M36 609L28 610L28 601L36 602L36 602M758 601C755.398 607.186 749.948 616.737 744 620M469 606L474 602M647 602L651 605M722 603L718 606L712 607L709 609L703 611L702 611L701 611L700 611M149 604L151 604M180 617L203 604M32 605L31 607M146 606L141 609M289 606L289 608M354 609L364 608L368 610L373 609L374 609L375 608L376 608M215 609L220 611M849 609L835 628L834 629L833 627M368 610L353 619L353 613M338 611L352 618M741 611L736 615M131 615L136 612M371 612L368 617M658 612L658 616L660 621M679 626L674 621L681 617L690 614L699 612M332 613L333 616L335 619M224 614L226 614L229 616L230 617M26 615L27 623L34 624L36 615M31 617L31 622M667 617L667 621L662 625M119 623L124 619L125 619M233 620L238 623M729 620L722 627L715 630L714 631L713 632L712 632M668 622L670 621L674 621M365 622L364 625L362 628M338 623L340 626L341 629M700 623L702 628L715 629M26 628L34 629L35 628L36 628L37 628M686 628L700 628M723 628L736 628L737 628L738 628L739 627M835 628L840 631C850.907 628.975 867.319 627.843 878 631L920 629M34 629L29 635L37 636M733 629C726.865 633.681 714.751 637.701 707 637L702 640L698 640L691 637L690 637L689 636L688 635M912 631L892 638L879 643L878 632M920 631L920 632M843 632L848 634L874 643L875 643L876 643L877 643M700 634L701 639M358 635L357 637L355 639L355 642M26 636L28 636M26 641L33 641L34 642L35 642L36 641M35 642L27 649M29 648L32 650L37 649M25 655L36 655M53 656L315 656L397 656L439 657M440 658L440 893L440 965L439 1000L440 1007M344 687C345.342 681.767 348.055 675.486 353 673L355 679L361 689L343 687L339 692L345 695L376 718L365 693L362 690M356 675L387 693L390 697L396 698L416 710L417 707M876 695C867.458 695 854.482 697.988 847 694L851 691L869 685L873 685L875 683L879 683L880 675L891 678L918 688L912 699L918 707L920 715L920 719L923 725L922 730L926 734L925 739L929 743L932 755L935 759L935 767L917 762L909 784L908 788L914 797C919.086 793.075 926.646 784.691 926 778L910 789M340 693L331 706L317 730L321 708L326 695L328 686L332 686L335 682L348 676M819 726L835 706L835 711L833 718L831 721L829 731L819 727L809 724C816.075 711.543 826.273 696.512 837 687L841 687L848 685L851 683L876 676L877 676L878 676L879 676M526 687L526 680L550 693L586 715L586 781L582 786C563.09 793.915 546.004 812.412 526 817L525 783L527 781L527 775L525 771L526 748L543 740L542 751L539 762L533 780L527 775M584 714L573 722L569 723L564 728L552 733L548 727L544 727L541 723L515 709L510 704L506 704L504 708L493 723L489 727L468 714C484.388 701.496 505.972 688.924 525 681M666 698L664 694L669 691L675 690L677 688L687 686L690 684L697 684L703 682C708.015 686.796 715.581 695.215 723 694L724 694L725 694L726 694M705 682C714.782 683.318 727.613 686.793 736 692L730 694M702 683L701 749L706 754L706 756C715.967 766.854 729.712 783.252 735 797L741 807L746 804L749 798L748 793L750 790L749 788L752 784C753.078 779.341 753.899 773.343 759 772L759 772M879 683L887 685L898 689L900 691L905 692L912 695M78 692L70 690L70 687L77 685L77 685M697 685L692 688L681 696L661 710L651 719L639 725L640 721L661 694L664 694M879 685L881 696L876 701L848 721L832 732L841 760L835 762L820 768L823 774C830.462 774.624 838.174 782.509 844 787M333 686L339 686L340 687L341 688M334 688L338 692M919 688L928 700L946 728L936 732L934 758M179 690L206 738C215.218 750.907 227.223 768.908 232 784L240 799L240 800L241 800L242 801M837 690L840 695L847 694M179 691L178 698L178 699L178 700M298 710L307 711L295 725L289 733L287 710L291 709C298.357 702.746 312.225 692.668 322 692L323 691L324 691L325 690M366 692L387 696M715 692L711 694M736 692L740 693L749 705C754.755 711.267 762.74 719.701 765 728L762 731C757.977 731.366 755.31 731.957 754 736L754 737L755 738L755 739M322 693L307 711M526 693L526 703M671 694L678 694M689 694L693 694M696 694L698 694M705 694L707 694M906 694L902 696L895 696L882 696M840 695L854 716M72 696L78 698L75 704L73 704L70 698L72 696M239 801L235 802C226.158 799.386 215.195 801 206 801L149 801C139.691 801 126.332 803.446 118 799L118 794L158 727C161.094 717.291 168.984 703.413 176 696M721 696L733 706L745 713L749 718L750 719L749 720L749 721M741 696L738 701M393 698L378 717M840 698L838 700L836 705M879 698L883 702L886 703L900 715L912 699M393 701L396 705L396 707L403 710L404 710L405 710M668 701L669 703M658 704L657 706L656 709L656 710M513 706L526 708C536.673 708.029 553.385 709.433 562 716L565 726M734 706L731 710M918 707L934 727M70 708L69 712L77 714M178 708L177 712M674 708L676 712M412 709L409 711M745 709L746 712M504 710L504 715L502 719L502 725L500 734L497 742L506 741M417 711L415 716C417.908 721.449 417.407 728.092 416 734L417 758L411 764L408 763M398 712L405 731L411 723M557 713L556 717L548 726M587 713L586 714M901 714L922 730M900 715L879 748L899 756L903 756L911 760L913 760M468 716L467 721L469 784L473 781M679 716L683 721M727 716L724 720M178 718L178 725M373 718L347 728L344 728L341 730L338 730L320 736L313 741C316.888 752.172 314.053 766.266 315.17 778C315.865 785.311 317.54 792.688 313 799C306.332 795.887 295.614 791.588 292 785L288 783L289 779C286.226 769.614 286.226 752.386 289 743L289 734L305 738L313 741M378 719L382 723L387 731L389 731L417 763L416 771L416 772L415 781L408 768L404 762C397.833 753.364 388.879 741.533 387 731M751 719L763 727M857 719L878 749M67 720L70 722L72 727L78 724L76 720L71 720M293 720L294 724M376 720L369 770L367 774L367 782L373 779L375 779L379 776L387 774L393 770L401 767M651 725L650 731L638 727L637 733C634.205 742.456 633.342 764.272 638 773L642 771M720 725L717 729M543 726L531 731L522 734L519 736L516 736L511 740L500 734M638 726L638 727M686 726L690 733L696 740M751 726L751 727M809 726L810 776L821 792L836 808L843 797C849.116 800.801 859.763 805.894 867 805C862.843 797.286 849.833 787.588 843 796M485 772L488 770L480 740L490 727L499 732M564 728L567 732L569 738L569 741L572 746L571 752L573 757L567 762L565 768L539 795L537 790L533 781M817 728L819 757L827 735L827 735M547 729L546 733M766 729L769 732L767 740L764 748L761 759L762 760L762 761L762 762M947 729L946 773L942 780L919 810L881 822L876 822L868 818L852 814L849 812L837 809M177 730L178 737L168 735L159 745L158 748L152 756L153 757L156 756L170 749L168 764L168 776L164 782L158 787L177 791L181 789L189 792L191 788C195.213 784.646 198.31 778.497 204 781L205 781L206 782L207 782M317 730L315 732L314 736L314 737M405 731L407 737L411 748L412 755M650 731L654 734C668.519 737.328 687.062 742.646 700 750M830 732L832 732M926 734L933 732L934 732L935 732L936 732M71 733L75 740L77 734M552 733L549 736L545 738L544 739L543 740M638 733L644 747L644 752L649 764L649 768L660 791L662 791M703 748L712 746L739 736L751 733L752 733L753 733L754 733M713 734L712 736M556 736L570 752M168 738L171 748L175 748L177 752L194 767L198 748L206 760L206 770L202 768L195 767L188 772L168 779L181 788M179 738L198 745L198 746L198 748M647 738L646 741M925 739L921 751L919 754L918 759L917 760L917 761L917 762M512 740L525 747M767 740L768.17 762L767.971 771.748L761 773L761 773M312 741L308 749L298 766C302.656 770.317 305.887 776.756 307 783L293 784M708 741L706 743M193 742L189 745L176 747M481 742L494 744L525 771M289 743L299 763M315 743L333 756.339L366 784L367 792L372 806L391 785L375 785L369 782M496 743L496 744M77 751L72 752L69 747L77 745M757 745L758 748M495 747C495 759.927 491.818 777.808 496 790L500 790L504 787L525 783M844 759L852 756L864 752L873 749L874 749L875 749L876 749M878 749L877 754L877 755L877 788C868.163 788 855.916 785.776 848 790M70 750L66 752M700 751L696 758L662 803L658 791M706 752L708 752M713 754L727 759M689 755L692 755M152 756L148 763L167 778M641 757L640 762M681 758L685 757M70 762L71 758C74.5657 758.573 77.0681 759.096 77 763L75 759M701 758L701 761M818 758L817 768L820 768M674 760L677 759M759 760L757 771M729 761L734 762M840 761L849 787M536 777L567 762M665 763L669 763M739 764L742 765M411 765L408 768M653 767L655 767L659 765M150 766L154 778L148 781M298 766L290 779M701 767L701 771M746 767L751 768M765 767L765 769M935 767L940 770M565 768L567 770L571 772M817 768L815 770L811 772M646 769L648 769M935 769L929 777L928 778L927 779M69 771L70 775L76 770L77 776M194 770L193 779L190 787M206 771L205 773L201 777M405 772L397 780M489 772L491 777L494 786M638 773L641 777L643 782L657 801L658 802L659 803L660 803M479 776L482 775M575 775L578 777M823 775L838 795M766 776L750 798M155 779L157 783L157 786M531 779L527 781M701 779L701 784M581 780L585 783M415 781L409 789C397.747 793.12 383.93 808.457 372 808L367 813L353 821L346 819L331 809L327 808L316 799L315 798M648 781L651 784M755 783L760 784M73 782L75 782L78 785L78 787L72 790L70 788L70 785L73 782M364 782L353 786L339 784L308 784M139 786L144 784M392 784L396 785L412 784M211 785L213 785L217 787M310 785L310 789L315 797M469 785L525 818M353 786L322 799L327 802L343 805C350.573 802.918 362.712 806.27 370 809M747 788L749 788M878 789L907 788M129 792L132 790L135 789M502 789L506 792L537 795M222 790L228 793M701 792L702 796M739 795L743 792M877 792L876 809L867 804M905 792L900 795L896 799L887 806C894.889 807.167 908.745 801.785 915 797M119 797L124 795M232 795L236 798M70 796L72 802C75.5752 800.963 77.0616 799.777 77 796M668 796L673 800M735 797L732 799M914 798L918 802L921 807M318 801L322 799M702 802L701 806L685 807L687 810M676 803L678 803M702 807L726 805L727 804L728 803L729 803M662 804L668 808L672 806L677 807L684 806M343 805L344 808M726 805L730 807L737 806L738 807L739 808L740 808M372 806L372 808M64 807L78 807M360 807L359 811M879 821L878 811L886 807M669 808L673 811L692 815C695.639 817.162 698.436 818.791 702 816L702 813M738 808L731 811L712 818L708 818L701 820M713 813L716 812M347 813L349 816L349 819M355 816L355 817M53 832L79 832L80 832L87 832L94 832L97 833L107 833L116 833L117 833L135 833L141 833L149 833L150 833L160 832L164 832L165 832L168 833L173 833C180.494 830.785 192.506 830.785 200 833C214.251 828.788 241.541 829.558 256 833L266 832M613 1006L613 833L705 833L749 832C763.146 836.181 782.243 833 797 833L860 833C870.976 833 883.288 834.55 894 832C914.482 836.876 939.945 833 961 833M267 833L267 947C267 964.698 270.102 985.77 266 1003L267 1004L267 1005L267 1006M91 834L90 864L91 886M78 856L70 854L70 851L76 850M323 892L317 891L307 889L318 878L329 875L336 876L351 850L355 853C375.68 858.969 399.045 876.119 417 888L416 893L416 899C420.988 915.876 418.198 942.609 416 960L409 966C388.008 972.175 371.842 993.21 350 997L347 991M313 957L299 942L289 957L288 933L288 887L292 883L350 851M838 869L836 865L872 853L877 852L878 852L903 860L906 860L911 863L920 868L918 871M879 853L879 874C869.352 883.227 856.393 893.857 844 899L844 895M356 855L365 873L360 873L356 870L351 870L345 872L344 872L343 872M643 892C644.812 895.113 644.812 895.887 643 899L641 895L644 891L644 889L666 866L691 858L695 859L700 859L705 858L710 861L717 863L722 862L742 869L757 890L753 893L746 889L742 885L732 879L725 889L728 893L729 899L731 902L731 905L734 913L716 918L713 920L710 920L707 922L701 923L682 951C676.373 956.157 662.175 972.727 666 980L660 982L659 976L654 969L650 967L648 962L636 948L637 942L647 958L647 959L647 960L647 961M694 859L692 863L669 881L676 890L696 889M700 859L700 922M71 860L78 865C74.1727 866.803 72.1482 866.937 69 864L71 860M525 999C505.587 991.892 483.73 977.154 467 965L468 894L472 890C489.793 883.525 508.211 870.448 524 860L528 860L540 868L565 882L585 893L586 962L582 966L526 998L526 979L522 974L514 974C506.571 967.158 496.775 954.744 487 952L485 941L482 937C482.082 927.073 481.077 911.232 487 903L491 907L521 923L522 922L521 917L519 915L514 900L536 883C546.405 885.012 557.7 894.62 566 901L569 901L582 892M526 861L526 865M710 862L713 866L731 879M718 863L725 867L731 870L743 882L742 883L742 884L742 885M178 864L178 874M661 870L663 875L669 871L680 866L683 866L688 864M851 960L847 959L849 965L835 985L809 952L809 948L808 901L836 865M740 868L736 873M921 868L945 901L947 946L937 963L934 965C930.06 972.92 924.014 980.611 917 986L908 989L880 998L876 997L872 998L836 986M121 971L117 971L135 941L148.579 916L176 869L180 869C191.722 886.715 205.733 908.03 213 928L238 969L242 977M69 873L70 877L77 877M365 873L369 877L392 920L400 928L405 910L406 908M526 873L526 881L521 882L517 885L505 890L502 890L494 893L487 900L487 901L487 902L487 903M368 876L373 875L400 896L399 902L402 911M842 874L848 885L848 886L848 887L847 888M367 875L338 892L353 925L386 932L392 920M663 875L648 892L653 892L668 881M878 875L892 887L903 895C908.205 897.476 914.599 901.127 916 907L916 908L916 909L917 910M915 875L913 878M336 877C325.836 894.232 308.468 915.473 304 935L299 941M178 879L178 885M527 882L535 883M743 882C745.561 883.662 745.315 884.292 744 887L745 887L747 886M871 882L873 884L875 884L878 883M910 882L908 884L910 886L911 889M66 883L70 885L70 888L72 890L75 890L77 885L70 884M850 884L852 883M859 883L861 883M890 885L892 883L896 883M901 883L907 884M290 886L294 888M414 886L409 888M748 886L750 889M298 887L301 887M399 888L404 887M307 889L304 894L300 908L298 930L301 938M703 889L725 889M178 890L178 896M676 890L676 894L671 906L669 913L687 919L697 923L698 924L699 925L700 925M757 891C758.049 894.869 756.455 895.587 753 894L753 894M90 892L91 904L91 909L91 916L91 917L91 922L91 923L91 929L90 955L90 1006M331 892L338 892M469 893L485 904M648 893L646 895M912 894L913 896M77 896C76.2258 900.701 72.6507 902.098 71 897L71 897M293 896L298 905L298 906L299 907L300 908M760 896L761 898L760 899L757 897L757 897M640 897L638 901L641 906L645 906L669 914M639 898L642 900M761 899L767 906L764 904M411 900L409 903M489 904L514 900M642 900L640 902M843 900L831 910L809 903M566 901L565 905L568 909C568 919.96 565.954 930.155 565 941C564.542 946.207 562.987 950.009 567 954L569 954M637 901L634 905L636 913L638 915L638 919L637 928L640 925L638 919M763 901L766 902M178 902L180 908L184 908L191 921L195 922L201 928L202 924L189 907L185 907M399 902L395 912M762 903L753 908L749 908L743 910L735 914M945 903L933 907L924 912L923 918L921 920L923 931L923 931M563 952L553 965L544 968L526 976L526 927L536 919L562 905L565 905M918 905L921 908L925 911M76 912L72 913L69 908L77 906M566 907L554 932L555 959M640 907L639 913L638 914M191 921L177 933L181 949L169 957L168 957L156 950L152 945L151 938L155 928L157 918L161 916L164 912L178 908M735 914L736 920L741 935L745 938L756 941C756.589 933.795 758.591 925.779 763 920L766 908C771.44 918.194 767.404 934.642 768 946L746 974L741 983L734 985L729 983C730.536 985.632 731.089 985.83 734 985M840 908L839 910M831 910L834 919L837 915M70 911L65 913M668 915L667 922L665 928L662 936L656 939L643 943L642 943L641 943L640 944M919 915L920 920L921 921M162 917L161 923L162 930L156 943L156 944L155 945L154 946M834 919L840 937L844 954L843 954L841 954M70 925L71 920L76 920L75 926L74 921M763 922L763 943L764 944L766 944M521 923L524 927L512 953L512 954L515 958L515 960L522 974M352 924L330 948L337 961L322 963C313.661 960.535 299.339 960.535 291 963L330 986.281L349 996M528 925L536 927L540 929L553 932M640 925L644 930L646 940M700 925L719 951L740 977L741 978L742 979L743 980M524 927L526 927M919 927L919 931L916 937L916 940L914 950L918 947M637 928L637 942M832 928L831 932M202 929L197 947L193 949L191 953L186 955L183 955L178 957L176 959L172 960L169 957M162 930L176 933M400 930L416 958M70 933L73 939L77 933M387 933L385 955M304 935L330 949M399 936L399 941L397 944L397 953L392 961L387 962L383 967L368 972L364 979M662 936L678 948M742 936L720 952M829 936L824 944L823 944L822 944M925 936L928 941L929 942L930 942M926 940L922 943M485 941L489 943L512 953M754 942L749 963L753 960L757 953L760 944L757 942M762 942L760 944M647 943L649 947L649 950L654 966L654 967L654 968L654 969M827 943L830 945M934 943L938 944M72 944L74 950L77 944M819 945L816 946M943 946L946 947M809 948L813 947M181 949L192 948M196 949L204 954M834 949L838 951M155 950L151 953M912 950L907 965L913 974L920 983M682 951L700 966L704 964L717 954M487 952L484 955L479 957M844 954L846 958M66 955L70 956L78 957L73 962L70 956M207 956L210 958L213 959M906 956L905 957M573 957L577 959M139 961L141 959L144 958L145 958M288 958L291 963M468 963L470 963L472 961L475 960M897 962L901 960M217 962L220 964L223 965L224 965M338 962L385 963M393 962L411 962M580 962L583 964M322 963L332 973L340 976L347 976L340 964M749 963L745 970L745 971L746 972L747 973M126 968L134 964M650 966L653 964M849 965L892 966L897 966L907 965M76 966L76 974L72 974L70 972L70 968L76 966M750 966L750 968M699 967L700 982L715 982L718 984L729 983M228 968L231 970M860 969L864 970M884 973L888 970M118 972L118 977L143 976L149 977L160 977C171.587 974.241 189.413 974.241 201 977C211.507 974.499 225.415 975.035 236 977L237 976L238 975L239 974M235 973L238 975M741 977L743 976L744 973L745 973M867 973L876 981M348 977L352 978L363 974L364 974L365 974L366 974M659 976L662 977M876 979L880 976M341 978L343 984L344 985L345 986M739 978L737 980L733 981L732 982M67 979L71 981L77 982L75 986L72 986L70 982M665 979L663 982M667 980L666 984M668 981L675 983L673 986L668 985M671 982L671 985M687 982L699 983L698 990L679 984L687 982M676 983L679 984M361 984L360 986M677 984L677 988L688 993L692 993C695.238 994.6 697.109 995.341 700 993L699 990M719 984L715 987L701 990M876 986L876 989M675 987L676 987M700 995L704 996L717 991L730 987M356 991L355 995M876 994L876 997"/>
</svg>
