<?xml version="1.0" standalone="yes"?>
<svg xmlns="http://www.w3.org/2000/svg" width="528" height="362">
<path style="stroke:#000000; fill:none;" d="M126 77C166.019 50.0248 218.527 47.877 265 48L269 54L275 60L271 62L266 59L261 61L267 69L272 66L277 73L281 76L287 74L295 84L301 82L305 85L313 84L322 86L334 90L327 76L316 74L324 81L325 81L326 81L327 80M257 48L266 58M267 48L275 50C281.387 48.112 289.964 48.0953 296 51C303.079 49.0537 319.558 51.0158 325.907 54.9383C330.443 57.7411 333.456 62.87 338 66C342.969 65.0253 346.175 66.8889 350 70L357 70C354.35 62.7803 348.892 58.4931 341 59L329 55M228 50L252 74L258 72L265 81L272 79L277 87L284 88L285 82L281 79L275 81M236 50L248 60L252 61L257 60L258 60L259 60L260 60M247 50L256 59M218 51L227 55L233 61L243 79L253 78L257 84C249.465 88.0201 237.466 85.9823 229 86L225 79L219 82L215 80L209 83L211 89L220 87L219 82M275 51C280.667 55.5164 287.952 60.7458 290 68L296 75L301 82M209 52L217 56L224 67L233 67M249 52L244 55M296 52L305 63L299 64L313 84M200 53C205.784 57.3451 212.502 60.7909 215 68L225 78M316 53L319 58L304 57M228 54L230 54M236 54L238 53M255 54L259 54M265 54L267 54M274 54L276 54M282 55L290 55L299 64M306 54L308 56M212 55L209 57M218 55L221 55M292 55L297 56M193 56L202 58L203 58L204 57M195 58L189 61L192 65L188 67L189 72L193 72L197 78L199 84L206 82C204.697 77.6498 202.356 76.9344 198 77L198 77M228 59L223 62M341 59L343 65M219 60L214 62M234 60L236 60M242 61L246 60M314 60L320 68L326 66L332 71L338 69L344 75L351 74C359.218 81.0185 360.659 87.9908 372 91L371 86L376 80L380 80L378 73C386.932 74.5922 395.321 80.7923 403 85.3997C421.339 96.4025 440.781 108.907 456 124M320 60L326 65M93 102C120.286 83.9447 155.568 63.7307 189 61M199 61L205 64L215 80M210 61L206 63M276 61L289 69M280 61L283 61M325 61L330 62M252 62L258 72M289 63L293 62M355 62L366 68L378 73M201 63L195 66L202 73L202 74L202 75L202 76M271 63L272 66M357 63L355 65M306 64L314 65M192 65L194 65M313 65L309 72L308 71L307 71M309 66L311 68M338 66L339 69M342 66L339 69M65 140C93.2245 105.628 139.139 92.2261 178 75L175 71L188 67M238 68L243 67M248 68L253 67M258 68L262 67M219 69L223 68M277 69L281 68M366 68L369 75L363 74L366 81L358 79M210 69L214 69M229 69C231.251 73.5505 233.359 79.1894 239 79L240 79L241 79M267 69L272 79M320 69L322 73M78 120C105.026 96.1252 139.856 80.9176 174 70M202 70L206 69M286 70L287 73M296 70L301 70M350 70L351 73M194 71L196 71M358 71L363 74M230 72L224 74M312 72L316 74M332 72L339 82L344 78C350.318 84.3926 353.688 94.2834 364 94L377 101C377.869 95.3668 381.367 91.8693 387 91L387 85L410 98.0617L465 139M367 72L365 74M194 77L189 80L186 74L188 73M220 73L214 76M233 73L238 73M242 74L248 73M262 74L266 73M187 80L183 81C181.191 77.0161 181.384 74.7728 186 74L186 74M211 74L205 77M272 75L276 74M178 75L181 75M252 75L253 78M290 76L295 76M328 75L332 76M344 75L344 78M281 76L281 79M370 76L375 80M301 77L307 77M338 79L341 79M256 80L261 79M313 79L317 79M182 80C171.284 86.5942 157.442 88.7222 146 94.2585C109.352 111.991 73.2292 133.301 49 167M228 81L233 80M380 80L386 85M191 81L196 84L197 84M206 81L209 84M237 81L238 84M245 81L246 85M265 81L265 85L275 87M286 81L290 81M185 82L187 86C174.729 91.4326 161.359 94.3978 149 99.8619C108.507 117.765 63.3441 146.905 42 187M339 82L334 84M367 82L371 85M322 83L322 86M338 83L347 88L348 89L349 89L350 89M351 83L357 85M192 84L187 86M295 84L295 88L306 89L327 95L326 90M377 84L375 86M201 85L203 90L209 89M258 86L264 86M285 86L294 89M305 86L306 89M377 86L382 91M220 87L228 87M202 89C193.454 93.7369 182.277 94.4628 173 97.6952C153.446 104.509 134.537 113.266 117 124.319C111.165 127.996 93.0043 136.279 95 144L94 140M317 89L317 92M344 89L349 98L357 97L356 94M334 90L343 94M364 91L364 94M387 91L400 98L399 92M373 92L377 95M241 94L249 93M255 93L268 94M275 94L286 95M383 94L383 97L380 96M219 97L227 95M327 95L338 99L337 94M189 99L198 96M292 96L306 98M393 97L393 102L387 101L388 107L381 105L381 110L372 108L375 107M349 98L349 102L360 107L357 98M384 98L386 100M400 98L411 105L410 99M200 102L212 99M369 99L369 104L361 101M170 105L184 100M261 100L271 100M311 100C383.43 109.761 433.063 161.299 460 226M339 100L348 103M281 101L290 102M377 101L381 105M393 102L401 108L397 112L401 117L408 119L409 114L402 108M403 102L404 109M297 104C340.576 107.468 390.795 131.305 418.536 165C433.039 182.615 440.462 202.233 451 222M369 104L372 107M87 146L90 147C78.9882 150.827 70.6907 159.65 63 168L67 170C106.056 143.432 145.936 121.998 190 105M212 106L221 105M411 105L422 112L421 105M258 106L269 107M97 143C116.169 129.311 142.924 112.481 166 107M238 108L247 107M275 107L287 108M360 107L373 113L374 110M388 107L395 112L396 112L397 112M398 107L398 109M204 108L185 114M414 109L414 112L409 114M294 110L304 112M381 110L388 115L385 120L373 113M391 111C391.878 117.005 395.429 120.065 401 122L401 117M202 115L214 112M422 112L426 119L427 116M431 112L431 119L436 124L435 129L429 127L427 132L434 138L441 135L446 139L447 132L437 124M254 113L263 113M415 113L415 116L412 114M269 114L282 115M311 114C349.759 122.021 390.997 140.979 416.536 172C427.899 185.801 434.806 201.851 442 218M385 114L385 116M389 115L390 116M179 116C144.294 131.384 109.345 147.675 79 171M215 118L224 116M288 116L305 119M415 116L418 120L429 127M174 124L196 117M428 117L430 119M408 119L417 125L418 120M426 119L426 121M257 120L276 121M395 120L398 121M202 121L190 125M386 121L396 123M224 123L233 122M283 122L294 123M311 122L324 125M401 122L404 126L414 132L409 137L394 125M411 122L412 127M201 128L212 125M300 125L312 128M417 125L421 129L419 134L423 138L420 148C438.586 167.42 460.545 187.653 482 204M404 126L402 131M61 221C65.0715 205.403 92.2365 192.505 105 184C149.801 154.147 211.521 117.515 268 128L274 134L274 138L272 140L266 141C268.91 145.566 271.51 148.892 277 150C278.871 146.424 278.871 144.576 277 141L274 140M269 127L282 131C288.944 129.303 299.855 132.507 306 136C314 134.148 327.155 139.822 334 144L343 148L347 147L352 152L360 155L360 160L355 161C356.357 178.047 362.041 195.951 357 213M330 127L347 133M149 136L167 128M164 136L181 129M421 129L426 132M258 130L264 140L254 139L223 165M320 130L332 134M436 130L437 135M250 131L254 134L254 139M181 135L191 132M241 132L250 143M282 132L287 141L279 141M414 132L418 134M448 133L456 139L455 146L446 139M294 134L299 140L298 145L302 146L308 139L306 137M353 135C375.962 144.421 399.244 158.936 414.255 179C422.841 190.477 427.83 203.715 435 216M413 135L410 137M430 136L429 141L432 146L430 150L439 157L441 152L438 148L440 144L438 136M341 137L355 142M412 138L421 144M423 138L428 141M129 147L145 139M140 148L157 139M160 145L172 139M316 139L318 145L327 148L332 152L334 144L334 144M436 139L437 139M457 139L471 152M229 142L224 147L223 147L218 142L226 140C232.506 143.477 240.082 143.318 243.972 151.004C245.896 154.805 244.92 159.103 247 163L265 141M287 141L296 159L303 153L298 153M308 141C319.547 151.122 326.67 168.526 327 184M326 141L327 148M93 142L88 145M296 233L292 237L293 238L297 229L302 232C296.378 239.669 288.318 246.12 280 250.688C275.024 253.421 268.867 254.799 265 259C231.027 259 202.376 253.844 182.547 223C169.517 202.732 166.651 159.577 194 149L198 153L204 145L218 142M277 142L274 146L284 157L276 147M250 143L258 149M267 143L260 150M289 143L298 143M448 143L450 151L448 156L450 159L448 164L457 170L454 170M418 144L420 148M440 144L447 148M93 145L91 145M237 145L219 160M268 145L254 156M273 145L271 147M298 145L292 151M423 145L429 150M193 149L201 146M211 146L204 157M284 146L287 149L286 150L284 146M288 146L286 148M302 146L296 150M316 146L317 146M432 146L437 148M462 146L462 151L465 158L466 155M224 147L215 155M263 151L270 147M301 147L309 153L296 168L291 161L287 164L280 160L279 161L279 159M363 147C391.263 163.496 413.014 181.74 425 213L417 213L411 224C399.68 221.641 390.651 230.242 381 233C381.373 214.938 388.748 193.674 382 176L383 170C390.253 172.031 399.525 180.869 402 188L406 190L407 195L411 197L416 212M456 147L455 154L458 158L456 162L465 172L463 177L470 183L472 178L470 174L472 169C469.404 166.715 466.609 163.596 464 167L464 168M271 148C267.343 151.343 261.602 153.564 263 159C258.51 163.49 248.273 170.175 250 177C254.601 172.399 264.462 165.863 264 159M141 155L152 149M284 149L281 152M335 149L344 154L343 149M458 149L462 151M110 157L124 150M184 155L180 151L187 153M302 150L302 152M133 151L123 157M170 168C171.586 161.308 173.66 154.389 180 151M276 151C273.106 155.094 272.885 157.001 276 161L277 162L278 161M288.333 152L288.667 153L288.333 152M325 151L332 177M451 151L454 154M352 152C348.957 154.609 347.709 155.651 344 154L344 154M441 152L447 156M262 158C265.043 155.391 266.291 154.349 270 156L271 156L272 156M332 153L340 191M186 154C188.428 161.159 183.236 168.024 181.665 175C179.273 185.622 179.616 196.487 182.49 207C190.8 237.402 226.932 256.257 257 251.561C270.977 249.378 280.378 242.238 292 235M198 154C167.959 196.197 203.542 247.067 252 244.961C274.693 243.974 287.574 229.176 301 213L305 217L301 223L306 228L314 212L309 208L305.356 196L304 175L309 169L308 168L304 171L300 165M272 154L273 155M285 154L291 157L292 156L291 155L290 156L293 157M340 154L345 191M352 154L352 158L355 161M162 171C164.648 164.094 165.718 156.677 174 155M303 155L295 166M310 155L306 160L310 156M360 155C366.853 156.406 377.594 163.636 382 169M258 156L260 158M269 156L265 160M467 156L477 165M282 157L282 159M348 157L350.539 170L352 194M122 166L135 158M304 158L306 160M349 158L352 158M440 158L448 164M459 158L464 163M156 172L158 163L166 159M182 159L186 163M259 159L248 171L247 163M287 161L290 158M294 161L295 160M312 160L303 168M451 159L455 162M464 159L464 160M117 160L104 168M298 160L294 164M368 160L368 166L363 168L360 161M471 160L470 166M267 161C270.451 164.18 272.509 166.06 277 164L277 162M313 162L307 165M102 162L93 169M301 166L306 162M433 162C435.423 171.343 443.174 177.078 450 183.129C460.718 192.63 470.592 203.308 482 212M149 176L150 167L158 163M240 169C224.65 169.498 224.346 184.243 233 193C225.941 194.72 219.337 189.514 220.306 182C221.397 173.534 227.374 164.74 236 163L248 175M277 163C278.484 166.269 278.088 167.058 276 170C278.465 179.036 281.733 186.678 278.073 196C273.325 208.095 263.188 217.415 250 218.826C230.604 220.903 211.311 203.883 215 184M307 163L307 164M314 163L314 165L309 169M274 167L276 165M287 165L292 164M294 165L288 167L288 167M364 165L365 166M376 165L375 171L382 176M308 166L308 168M315 166L309 171M457 166L457 167M142 181L148 167L149 167L150 167M274 167L276 171M369 167L375 171M281 168C284.336 176.134 286.629 183.056 285.907 192C283.203 225.475 240.1 235.003 218.09 213.826C208.914 204.997 207.051 194.038 208 182M296 168C298.211 181.061 300.925 193.045 295.743 206C281.322 242.051 230.461 248.765 205.326 219.961C192.25 204.976 194.375 189.853 197 172M363 168L364 204M476 168L476 172L481 177M64 169C62.8043 171.242 62.7581 171.196 65 170M290 169C292.897 190.513 293.108 213.326 271 225.651C244.062 240.669 191.021 221.144 202 184M316 169C318.097 184.574 318.201 195.494 315 211M472 169L475 172M135 186C135.321 178.535 136.117 172.363 144 170M369 170C371.014 195.518 369.791 217.969 364 243L373 239L376 175M63 173L61 174L60 173L62 171L62 171M113 171L100 179M304 171L304 173M456 171L462 177M248 172L249 173M316 172L309 180L308 181L307 182L306 183M466 172L469 174M60 173L54 182L57 182M310 173L312 175M97 174L80 185M84 175L65 188M129 188L133 175L134 175L135 175L136 175M477 175L476 180L483 187M71 176L64 181M317 176C311.502 181.946 309.182 193.414 315 200L316 201L317 202M390 176C389.879 181.444 388.808 187.121 395 189L396 182M250 177C251.825 189.41 248.287 197.401 234 194M121 197C121.939 190.036 123.19 181.282 130 178M473 178L475 180M384 180L389 182M445 180C451.326 196.691 467.857 205.958 480 218M333 181L334 186M54 182C49.6681 187.677 45.3798 193.695 45 201L54 192M114 203L116 187L124 182M470 183L481 194M94 184L79 194M477 184L476 189M108 207L113 188L114 187L115 187L116 187M328 187L328 194M313 188L318 188M390 189L388 226M401 189C400.875 192.878 400.498 195.072 397 197L396 190M71 191L64 197M102 198L111 235L106 237L96 201L110 191M406 196L401 212L402 213L411 209L411 204M396 198L396 218L400 213M401 198L403 204M72 199L62 209M306 199C303.549 203.222 303.981 205.224 307 209L308 210L309 209M311 199L311 202L316 206M104 237L100 238C95.1768 227.689 89.6054 214.484 93 203L94 202L96 201M352 201L352 205M452 201L470 225M44 202L43 207M52 202L44 219M98 238L87 238L80 211L92 204M404 204L410 208M462 204L480 226M304 206L301 213M311 206L315 210M87 208L93 237M308 210L305 216M364 210L362 221M412 210L415 210M85 238L79 236C78.1459 227.478 72.9694 219.152 78 211L80 211M425 214L427 225L409.791 246.004L395 260L396 267C398.614 265.515 400.784 263.519 403 266L403 266M51 215L48 235M300 215L304 219M399 219L415 215M420 215L421 219L423 215M69 220C65.0081 225.55 65.5309 230.882 72 234L72 216L73 216L74 215M397 218L392 225M297 220L301 224L298 229M420 220L412 236C401.637 240.846 394.15 252.653 384 258.743C357.51 274.637 325.38 280 295 280M435 222L436 230L440 223M361 223L361 225M294 224L298 228M349 224L349 226M428 226L429 230L434 224M446 224C425.449 295.891 337.418 307.926 275 303M113 225L119 236L133 237L127 227M159 251C222.918 266.754 287.734 285.697 353 264.806C362.379 261.803 372.852 257.658 381 252.113C388.294 247.149 395.102 239.678 403 236L412 226L413 227L413 229M53 226L56 237M58 226L62 236M120 227L126 235M420 227L421 230M452 228C431.054 278.311 383.127 308 329 308M300 229L301 230M306 229L303 231M459 229C448.318 247.302 439.552 265.199 425 281M466 229C459.347 244.981 450.254 261.804 439 275M473 229L453 266M137 230C139.353 235.029 141.789 240.155 148 239L157 241L176 245L187 248L182 242M429 230C424.501 243.565 411.017 251.944 403 263M478 230L467 253M354 231L354 233M385 232C390.05 234.475 394.813 232.461 400 231M435 231C433.912 239.139 426.523 247.224 421 253L419 247M144 232L148 239M347 233L346 236M72 234L78 237M111 234L117 236M380 234L373 239M153 235L157 240M160 235L166 243M374 236L376 238M429 236L429 240M170 237L176 244M340 237L340 239M404 237L404 240M413 237L413 239M420 237L421 241M134 238L140 239M359 238L357 246L364 243M393 238L378 242M352 239L348 249L356 247M286 240L290 244M67 241L77 248M345 241C341.983 247.373 340.419 253.057 333 255L337 245M115 242L123 245M79 243L90 248M104 243L114 247M282 243L286 247M191 244C197.095 250.298 204.767 255.537 214 253M396 244L396 247M94 245L102 249M370 247L382 246M404 246L404 250M330 247L326 256L332 256M412 247L414 251M188 249L195 251M314 250C311.467 255.561 308.809 260.641 302 259C293.52 263.081 273.222 263.558 265 259M321 250C319.633 254.598 317.734 257.639 313 259L312 259L311 259M388 250L388 254M341 253L348 250M361 252L370 252M396 253L396 256M305 254L303 258M382 254L382 258M421 254C355.626 319.374 251.533 300.431 172 275M404 255L403 259M412 256L412 261M135 257L148 261M319 258L325 257M388 258C388.742 262.397 390.539 262.304 394 260L394 260M172 260L180 262M153 261C171.006 270.488 194.247 274.037 214 278.424C262.851 289.274 312.011 299.168 361 282.999C372.924 279.064 385.963 274.742 396 267M131 262L143 266M390 263C378.849 270.939 365.019 274.967 352 278.709C302.339 292.983 246.34 282.729 198 267M186 264L192 266M154 270L165 272M282 279L287 279M218 293L237 297M245 298L269 302M229 301L265 307M271 308L275 308M277 309L320 309"/>
</svg>
