<svg version="1.1" xmlns="http://www.w3.org/2000/svg" xmlns:xlink="http://www.w3.org/1999/xlink" width="559" height="397" viewBox="0 0 559 397"><g><g><g/><path d="M262.97912,195.52036l1.93136,2.22972l-1.43647,3.04559l-6.0217,-0.1585l5.28486,-6.9091l11.8428,-5.2664l3.27673,7.08795l2.4744,13.33362l-8.474,9.14663l-20.81416,-13.22132l-1.24807,-10.56662l17.91801,-20.18258l16.42244,3.33724l6.4628,11.87938l5.31476,10.81948l-1.77298,18.0882l-6.3576,9.64701l-13.18181,3.71928l-20.21812,-11.39914l-10.99889,-7.53705l-1.99342,-8.71189l2.5976,-23.09718l13.80781,-7.52429l20.90341,-11.3183l12.29054,6.31391l6.42975,8.60158l9.18634,6.29855l5.72355,17.45719l-6.06316,8.80067l-8.55459,16.22243l-7.10962,14.68223l-10.33726,5.03997l-20.32614,-9.42878l-16.93404,2.63132l-10.97831,-15.32805l-1.66893,-7.92397l-1.83225,-17.03734l4.64205,-28.41019l13.0499,-10.02239l14.94347,-1.37842l19.83181,-12.32928l11.28846,7.98902l13.2161,3.54722l11.36739,2.76485l-0.43957,18.95679l12.87819,21.23342l-7.12219,9.33258l-4.23558,9.95777l-5.96071,18.37616l-14.76967,7.46238l-9.78586,6.29735l-16.24008,-0.68648l-16.39524,2.07516l-11.77375,-4.70264l-11.13565,-12.81431l-10.70385,-14.69273l1.70079,-17.47156l-0.12665,-14.1487l-1.62169,-14.88067l11.97866,-23.73087l7.31624,-7.19198l18.40244,-4.52326l12.62726,-4.83669l12.59104,2.14115l16.58718,3.41791l8.31505,8.50344l14.09104,1.86736l10.20045,29.98962l7.26501,15.45443l3.74894,17.24671l-0.26129,11.28671l-14.07805,5.24691l-7.49734,14.55008l-18.76939,14.39584l-6.41853,1.67588l-17.15173,6.58635l-16.08346,2.22582l-12.24467,-4.9309l-20.30807,-4.87345l-4.66577,-10.31892l-10.10985,-18.78367l-1.01267,-12.99383l-2.37574,-16.72975l-0.33905,-10.57289l1.3161,-3.74036l0.467,-17.57062l7.91713,-25.3169l4.36612,-10.91172l17.80183,-2.21476l12.76937,-7.1007l16.94957,-2.36771l14.54908,-3.63311l13.0805,17.27428l11.50072,7.4578l13.59862,0.24293l14.49926,12.30251l10.01269,26.84004l4.56813,17.11246l0.75676,12.2719l-2.38417,20.93468l-8.75545,3.81633l-13.55316,7.66381l-12.64818,17.80757l-12.85965,16.16486l-13.57319,-0.70041l-15.49473,3.09184l-11.79213,6.31968l-16.04764,-11.4641l-13.76149,-0.20404l-13.74261,-7.27946l-10.53152,-15.55467l-2.25133,-21.6678l-6.53973,-11.12972l-2.81263,-8.25544l3.98535,-14.45339l-4.75443,-7.85216l1.46354,-10.5793l6.41377,-12.48616l2.50904,-13.44285l11.81422,-17.51548l11.04164,-6.13296l9.98808,-5.5391l16.67881,-10.57842l17.81207,-5.97377l10.53813,-1.88448l15.0072,15.25871l17.1652,9.75848l14.21617,7.309l13.80383,6.98988l3.69571,11.80374l8.11902,19.8509l9.27127,19.44185l5.46268,16.37109l-9.48474,17.77257l-8.18452,11.24219l-5.37419,8.98426l-8.9069,7.072l-9.96794,12.33174l-15.89637,15.43033l-15.88293,3.54662l-12.95728,-0.09029l-11.0563,8.54866l-17.7902,-11.20959l-15.38261,3.16999l-14.34611,-2.63091l-3.06264,-4.24224l-13.63861,-20.70366l-8.10693,-16.0462l-15.31975,-19.47139l-1.58204,-2.86414l2.51514,-13.28082l3.98715,-13.8075l-7.11719,-14.27895l-1.87037,-8.77488l7.39632,-11.10783l19.66983,-8.47268l4.12829,-16.72831l13.28702,-13.44636l1.15095,-8.18299l16.54968,-5.60988l15.61956,-8.42076l16.21539,3.10545l13.36228,0.09567l14.40462,6.8484l12.64629,8.99114l29.87377,7.33438l8.29785,0.1354l12.43914,13.18788l-5.51921,12.08107l3.76082,14.447l13.42386,21.10641l7.77499,11.49338l-2.41475,18.59483l-14.55055,5.49683l-8.23298,17.47161l6.96266,12.11134l-3.3114,12.24386l-14.30598,14.85697l-19.21543,9.03238l-20.20039,6.92112l-13.29759,3.19214l-15.34082,-4.13135l-12.65901,1.70839l-14.69895,-2.90871l-17.55922,7.80412l-12.24598,-1.38441l-3.76492,-6.54199l-8.18494,-10.6601l-6.40829,-18.76565l-19.44329,-13.86541l-15.6611,-13.62521l-0.09764,-14.53895l3.77063,-11.4726l0.4678,-14.22692l-1.05547,-18.17066l-6.57455,-18.98242l4.8356,-6.49968l18.16949,-11.56793l15.00305,-11.71694l7.37588,-11.76325l4.65811,-2.0315l6.91745,-8.6716l15.00467,-14.04223l12.47701,-0.58964l16.47375,10.51002l9.22351,-7.84367l20.52997,3.41485l17.88368,5.08807l12.40624,4.83105l23.38918,2.01757l14.40452,11.11358l8.80228,8.90824l-1.1732,16.38013l3.17496,-0.34031l9.63729,18.52482l4.12797,13.37969l1.38901,11.04229l-0.8462,22.9188l-5.26137,12.45555l-9.97085,16.89537l1.65893,15.39275l-4.66887,16.59244l-8.61125,15.01692l-18.65142,0.24221l-19.49019,5.92593l-8.81437,13.00974l-21.53244,2.62431l-18.03799,-7.13134l-9.31569,2.1711l-19.84918,3.01453l-9.35174,4.9736l-12.56024,-3.13891l-11.3345,-5.07466l-10.12816,-7.55853l-3.58918,-15.69969l-13.44504,-9.37023l-11.39336,-13.43749l-5.96312,-21.75822l-7.27878,-17.44803l-7.05474,-5.84754l-0.55057,-9.31087l0.42545,-21.33894l3.13097,-23.10924l11.08854,-11.67263l-0.16816,-16.32177l8.07499,-7.09041l11.35597,-8.60885l7.99122,-13.14166l3.41355,-0.5215l17.56429,-4.66986l18.32074,-14.69757l3.84188,-1.35351l14.35982,6.64519l17.96889,-5.09413l9.11071,4.46201l22.18221,4.21532l16.88437,4.41379l10.87538,-3.29397l9.32929,2.76289l21.94256,11.02199l11.96503,6.89968l4.84462,18.47798l7.45516,7.77902l18.04433,13.25787l-6.93243,12.36206l0.21042,11.3132l2.60501,8.19474l-3.87702,29.66483l6.03554,20.14675l-6.82448,10.51408l-9.36532,7.56012l-9.42086,9.97445l-3.26443,15.78403l-20.41919,12.44053l-17.92618,1.76961l-7.4186,14.99472l-9.54517,14.23278l-15.9541,2.78706l-22.55736,-6.20598l-12.49758,-2.38852l-15.51632,-0.66422l-10.88414,8.78301l-11.0616,-0.76243l-19.54086,-6.38019l-16.91956,-9.21906l-12.1813,-7.93668l3.73245,-12.12262l-12.80549,-17.16659l-9.73988,-7.01632l-11.69674,-23.09386l8.72461,-16.00432l-11.80815,-7.48861l-9.14034,-5.43048l6.12491,-14.04113l-5.73578,-17.71884l13.17394,-24.16925l3.1486,-14.3408l-5.45452,-11.80156l18.26698,-9.04748l6.53811,-9.15624l9.55344,-8.78823l-1.40249,-10.86314l14.6084,-0.37489l16.35653,-12.69731l16.56302,-11.86948l10.44256,1.38425l16.7949,1.63857l15.73984,-0.6145l10.90757,2.28676l21.55442,1.57041l13.34096,8.88667l6.70037,-3.55485l11.60685,-7.52682l16.07212,10.85794l22.63899,17.33542l7.53134,11.4675l9.57022,20.57815l0.65443,11.24625l14.95174,7.6038l1.43353,17.67715l-2.47901,15.24399l2.53095,3.33782l-2.22882,23.92835l2.0776,15.69647l-0.50534,15.97887l-12.125,7.99811l-1.85863,4.65414l-8.73443,18.40891l-9.00567,12.92984l-19.71112,9.93995l-17.79268,5.27727l-9.40974,13.1003l-9.50575,16.90902l-9.81589,9.29685l-24.35387,-3.04813l-9.89117,-2.83126l-14.8578,-6.83521l-18.3066,12.39311l-9.70629,0.86316l-16.19824,-0.11095l-15.58577,-13.94829l-18.16709,-8.07371l-8.38744,-9.37855l-3.59838,-1.50881l-9.27267,-23.48516l-3.46922,-8.0327l-12.91631,-15.65295l-2.71702,-16.61191l-3.80699,-13.04846l-15.87211,-6.31453l1.08226,-16.67212l-1.30225,-13.95156l-0.82621,-15.82418l12.27511,-22.60398l6.98358,-15.59175l3.44632,-17.10998l9.58879,-4.59194l5.73008,-18.68683l4.10817,-3.52037l5.41147,-4.97473l7.1087,-8.84038l17.49292,-6.10158l13.8339,-10.03273l19.08119,-10.26895l8.76722,-3.92724l15.12587,-1.98281l16.35582,3.5815l10.7708,0.03249l18.62257,5.83909l16.4333,4.60152l9.55979,1.68303l11.87492,-7.93637l13.05516,2.76844l16.93403,16.05776l11.69039,24.57412l16.41037,13.53146l12.47718,8.71986l5.73783,16.886l6.60431,15.83921l1.19845,12.55482l-3.8115,16.30769l-1.35838,2.49059l-0.11787,11.33787l2.05917,26.91577l4.33155,8.22725l-2.13797,12.60149l-4.18096,13.21318l-5.92291,6.79742l-13.32442,13.64686l-17.96049,11.75585l-10.19032,11.23727l-12.2988,3.70942l-17.86534,12.96629l-10.17753,22.63772l-11.49263,8.55937l-12.73191,-0.68094l-20.5725,-0.40964l-7.94466,-2.49355l-14.89142,4.31176l-22.22838,-3.69591l-9.12511,-3.47686l-15.91667,-3.14072l-14.66818,-6.39569l-17.673,-5.73097l-7.35127,-6.93729l-12.02756,-5.02339l-13.44019,-10.11282l-0.65021,-16.43298l0.62881,-8.74999l-7.88497,-12.98484l-11.46358,-14.65544l-5.96261,-8.29694l-10.07108,-19.84932l-4.62123,-25.23289l3.48797,-13.60528l-5.67749,-12.53789l10.45444,-4.88779l3.82171,-13.80816l14.0856,-29.57124l12.04753,-20.85334l-3.02747,-9.08445l-0.09023,-13.6101l10.78132,-4.44881l9.06118,-2.67484l9.82585,-5.99101l16.77297,-7.22721l12.85014,-10.2438l8.62268,-8.02903l16.57208,1.08598l14.16297,-8.52451l24.59739,0.0382l13.6928,3.34604l7.03525,10.1247l17.74328,7.08362l10.06453,-4.22925l19.50143,-3.55711l11.03993,-1.61648l14.23111,13.4994l12.03342,16.57384l9.71992,18.31824l12.12586,9.02737l20.78886,5.83034l10.11349,14.79879l4.79353,19.85682l-4.10274,14.71175l2.53672,11.32051l-3.08418,12.24417l7.84277,-0.28601l-4.80595,26.27629l-1.06159,23.73628l3.79957,4.76722l-1.25037,17.20421l-2.00921,10.84581l-0.83906,7.10629l-17.13201,11.30243l-21.6178,10.0446l-9.2727,17.73362l-7.76158,2.00836l-14.13612,15.13541l-9.80646,18.39041l-16.15005,13.33496l-18.14444,-0.59973l-13.57215,-2.62171l-12.82432,2.17442l-7.96274,-1.08585l-15.08077,3.33696l-21.55382,-4.27107l-17.01301,-5.29659l-14.49633,-2.87085l-12.84515,-2.97333l-8.25434,-6.04704l-14.68901,-2.57258l-11.37875,-4.41061l-15.24163,-11.37841l-12.04562,-10.10619l3.48654,-16.45634l-3.28913,-4.21784l-11.61954,-10.853l-7.35369,-22.87962l-9.09321,-3.59197l-8.26088,-19.41968l-2.23907,-22.60084l4.04975,-14.31264l-4.40075,-20.1098l0.65925,-3.8868l7.21715,-7.63866l8.02246,-19.85888l4.989,-29.48913l12.31208,-18.36965l8.60633,-8.89941l-6.47505,-13.31052l7.77457,-11.9239l16.27374,-6.37636l15.29592,-7.45796l8.38373,-8.42881l12.88459,-10.7578l8.82721,-7.27183M211.91138,25l11.06063,8.62379l20.82955,-2.18208l11.02973,-6.44171M265.56735,25l9.90057,4.44876l9.31498,-4.44876M292.62761,25l11.31376,11.59271l8.24511,7.25129l14.9633,-6.22961l14.98847,-2.53872l14.83252,7.38971l18.07758,12.18287l5.34906,12.65116l9.53669,14.99727l10.71801,9.98518l23.88788,5.8632l4.58145,14.83158l4.8758,15.97342l7.76574,12.74805l-0.10615,17.14481l2.17076,16.30057l3.02213,9.45662l5.27577,1.81123l1.39823,17.36898l-7.1965,21.82102l-1.01041,13.95771l-2.10262,16.36672l-2.40863,5.69304l-7.59669,13.72583l-5.01781,12.54345l-11.03339,8.13067l-18.71006,11.9723l-4.57169,15.04937l-12.33239,14.01285l-9.65013,9.41729l-14.96061,24.44976l-3.40774,1.0797M333.66205,372l-7.2607,-6.47346l-15.31516,-2.5819l-8.77333,3.51287l-9.05688,5.54249M261.35283,372l-2.52466,-1.20742l-17.23304,-7.63583l-16.16136,-1.40265l-18.74126,-1.183l-11.0948,-8.44977l-9.70551,-3.55465l-8.3901,2.14579l-18.84221,-5.71142l-13.89307,-8.49079l-12.55406,-15.44948l2.02431,-24.04889l-7.86777,-0.79876l-10.78394,-5.34895l-8.0368,-16.43383l-5.34205,-23.48865l-7.20941,-6.81474l-2.94058,-22.22373l5.07254,-12.21572l1.11616,-11.94295l-7.25067,-18.36615l1.37227,-6.08639l5.23342,-14.77859l5.74966,-24.25418l7.10315,-20.788l8.30139,-13.01913l10.25772,-7.60514l4.45692,-16.52046l2.29226,-17.94237l12.01535,-7.54841l19.90518,-3.0795l12.6952,-13.53439l7.10546,-6.68876l1.66314,-2.5331M307.62945,25l10.16192,7.97122l9.64891,-7.97122M342.14384,25l0.3972,0.12289l17.88059,5.248l20.09635,12.58146l14.19979,5.64017l0.98805,10.1605l9.9163,21.01659l18.11108,13.9772l13.25952,7.33995l2.71386,6.92006l4.35256,13.60249l6.54492,9.05563l5.52843,9.63834l-0.16351,19.44544l7.64265,11.84346l7.10818,10.52825l-0.32881,10.24529l-5.82711,16.31973l-6.0007,21.55691l-1.14147,16.92612l-3.97244,13.62653l-7.36764,7.01709l-3.86209,17.40048l0.40308,17.21128l-8.38045,4.85816l-23.40894,16.2188l-11.66241,15.43949l3.31088,9.816l-10.98251,6.44365l-25.05437,12.30377l-6.15479,4.49627M336.96916,372l-10.01332,-1.82445l-14.31757,-0.79089l-1.56067,2.61535M188.09351,372l-7.98289,-8.48873l0.49146,-0.32269l-11.01451,-1.61039l-29.31599,-19.25137l-7.67888,-16.24815l6.1352,-20.84398l-9.37731,-9.10242l-21.01492,1.31466l-11.04283,-3.42941l-7.90456,-26.61349l-1.81224,-21.66637l-0.82107,-8.69618l2.11856,-23.86089l4.23703,-6.78665l-1.63056,-16.19751l-2.45434,-11.94601l-2.37081,-8.49106l-2.2942,-14.90846l1.9964,-21.98358l3.62597,-21.89222l14.08334,-11.67852l15.03667,-0.42466l16.26159,-22.31949l0.663,-13.10866l3.50395,-15.42492l14.46672,0.15491l23.7557,-7.01343l0.34562,-16.16034M371.14802,25l2.7301,2.17654l24.47002,8.022l16.14862,12.6856l-5.73596,8.2564l13.69381,15.30226l22.37478,18.32916l11.62531,8.30681l-5.19709,1.82219l5.38072,3.63935l-1.39941,15.46987l4.35821,9.92753l12.17143,12.44178l7.83947,14.70693l9.91195,16.36343l-3.36603,11.96821l2.0794,12.77967l-4.83163,17.93594l-9.83553,19.51125l-9.94242,15.247l-7.63354,9.3137l-1.53872,13.02493l2.97923,22.76134l1.67335,10.61766l-8.68929,14.52229l-17.17788,9.11518l-16.45304,11.03614l-5.12141,13.47745l-5.46752,6.34283l-23.561,8.98148l-8.16607,2.91511M169.18926,372l-0.95197,-1.23235l-23.98885,-6.18789l-13.975,-22.62373l-0.95911,-15.20846l-0.66538,-19.58235l-15.67272,-8.995l-13.76297,1.01771l-18.84299,-5.32235l-9.26889,-17.23241l-1.87964,-21.58201l6.39982,-21.14667l1.07135,-17.63141l0.675,-8.58646l-0.55402,-12.79768l2.12151,-15.17552l-4.19616,-13.05007l0.56609,-12.67584l-7.19038,-14.26976l3.96131,-14.623l8.32402,-18.76209l20.01344,-8.34475l13.17269,-11.67173l12.28844,-20.27835l-2.31657,-9.27311l1.19498,-16.79114l17.4871,-5.34888l20.11944,0.48346l7.09106,-10.10815M400.44024,25l12.41973,9.0072l1.87477,15.96388l9.68011,5.43827l19.18393,10.87675l18.54316,17.77162l-0.56519,10.89922l0.7162,9.24267l0.74436,11.61404l3.66072,9.82082l6.29547,10.13622l17.73327,6.45702l0.25439,20.62157l3.92409,11.14661l2.51708,15.09285l-2.41591,18.98949l-3.72076,17.34757l-0.5495,14.64407l-17.39403,9.17766l-6.24648,15.84678l-3.03829,11.47044l-0.52981,22.29545l-1.58466,14.84574l-0.00523,11.45026l-16.72621,7.53561l-18.21577,14.00457l-11.56424,14.41161l-1.95347,2.84344l-14.59694,8.04858M134.02628,372l-8.88558,-3.30088l-6.49316,-21.37048l-4.42981,-15.57175l-3.46935,-19.49015l-14.09582,-3.30216l-14.08963,-9.70066l-9.92054,-8.98298l-7.98778,-4.93396l-3.19504,-20.88335l5.06591,-25.27759l-1.0195,-8.17014l-10.07375,-12.55619l5.27385,-10.01607l4.50199,-22.30754l-5.50538,-18.21634l3.83033,-7.22771l0.09322,-20.8563l-0.8526,-13.97795l3.07615,-7.01225l8.01822,-13.29522l11.14845,-11.77995l12.56287,-12.42257l12.45123,-16.63947l3.11262,-21.02856l4.55801,-12.83407l7.05073,-5.84573M414.35446,25l2.31831,9.89582l13.58349,12.129l13.97642,4.90464l11.48269,12.05391l9.37213,17.52252l9.44065,14.43911l0.21881,16.25263l3.04321,3.36996l12.53548,2.31348l1.93547,9.77963l8.79876,15.26233l3.23523,17.19295l-0.94251,13.66882l-1.62412,18.99505l2.2256,21.23102l0.50339,16.50701l-3.23428,15.22168l-6.68948,3.06879l-0.40648,17.48258l-13.08232,10.74133l-4.27208,17.96746l-0.13345,22.73803l-10.58437,9.97983l-7.68634,18.7573l-12.08222,3.25638l-11.50397,6.5447l-12.0548,15.724M129.37673,372l-12.35812,-6.49784l-6.90782,-7.33628l-13.53058,-14.6703l-4.12842,-18.87239l-8.20995,-8.48715l-5.30792,-9.78698l-11.6488,-6.9304l-2.65169,-5.93478l0.43485,-13.13214l-13.51088,-18.38192l-4.4266,-14.51715l2.02508,-10.71864l-5.41876,-24.31111l-3.29888,-15.92479l2.50476,-19.49749l4.92996,-6.55133l-1.84534,-15.60512l4.01639,-18.81371l15.26621,-13.88317l0.8594,-15.15554l0.40086,-8.29829l8.80679,-14.54974l8.26314,-10.22391l5.04663,-10.56123l0.3716,-17.31048l16.58486,-19.11711l7.0568,-1.63625l0.3363,-0.29475M420.62836,25l4.63252,6.92777l17.35027,3.51704l0.27563,-0.3216l17.56439,10.27504l11.83703,23.67739l12.65725,18.71952l4.68536,12.41246l13.85871,4.78262l12.4361,0.67484l-5.04926,17.01671l-5.39105,15.7393l-1.59335,16.1919l7.40811,15.12311l-0.96825,17.34266l1.54747,13.48195l-2.17742,18.68124l-6.10658,22.22091l4.02115,14.1072l6.52589,14.88754l1.67069,18.49313l-13.27693,6.21051l-12.68749,14.6715l-5.08216,19.48381l-14.94539,14.53513l-12.0558,13.02499l-15.68932,2.04967l1.00195,13.07368M108.77147,372l-2.85468,-2.79355l-5.87121,-2.26067l-14.41987,-10.93059l-8.1124,-12.61203l-9.13276,-4.22443l0.8551,-21.24927l-7.80151,-9.36942l-0.99775,-9.19972l-0.06391,-1.72468l-0.30688,-15.00717l-18.56267,-7.55035l-10.87169,-17.06832l-4.77058,-20.99023l-0.03458,-25.78507l2.07411,-11.91713l-2.59804,-22.83174l0.25885,-6.98985l3.2665,-13.80613l10.56596,-12.08696l19.50494,-17.9399l0.61292,-19.744l-1.34784,-11.99534l0.84218,-4.20339l7.62341,-17.61509l-1.36577,-5.48984l8.55766,-19.10136l7.84481,-17.11056l9.48886,-5.4032M451.21155,25l0.67221,0.12279l0.27045,-0.12279M459.1432,25l4.30286,5.37802l9.21167,23.46313l17.43759,28.73678l7.01261,10.71164l9.77934,0.26558l19.18853,10.66189l7.9242,11.31753M534,122.29459l-10.60807,7.30779l-5.84493,17.18646l-0.75105,12.34723l4.63859,13.21726l5.7675,20.64727l-5.56982,10.9612l-4.50609,24.61216l0.88317,14.23265l7.14515,22.87507l8.84554,12.14807M534,289.40547l-6.83221,7.7434l-19.9312,1.55772l-9.68251,15.28164l-6.05819,14.89132l-16.71462,18.98059l-9.74801,13.26172l-3.26176,10.87814M93.95773,372l-17.5457,-12.28797l-12.2368,-10.06447l-7.28744,-13.85882l-1.93682,-10.61516l-9.65145,-10.93425l-7.17276,-4.26487l6.1124,-8.23743l8.27771,-15.68476l-17.52,-12.22321l-9.99689,-12.16302M25,211.3369l0.21966,-0.15991l-0.21966,-0.56322M25,147.43418l3.60775,-1.75039l10.49801,-16.66898l11.75096,-15.21768l-11.36091,-21.56591l-5.59171,-8.05819l12.02957,-9.57434l10.70879,-13.03636l2.75518,-12.15378l6.19444,-8.45444l14.56396,-15.95412M479.68759,25l6.3665,10.05189l13.24831,26.51826l0.26549,10.07036l-1.41709,7.60025l22.88474,10.37123l12.96445,10.88394M534,147.42306l-5.45179,7.98678l1.48293,6.23772l3.96886,6.16857M534,203.78416l-0.13849,0.10168l-4.12622,17.27552l3.20194,17.6626l1.06277,3.82353M534,298.30749l-17.53746,3.60697l-21.88931,6.68785l7.02555,11.61425l-1.7841,17.89998l-13.9495,18.01889l-8.43187,15.86457M81.83487,372l-11.51209,-7.44167l-10.41567,-11.33532l-2.74346,-17.68361l-9.38846,-11.36918l-22.77518,-3.50063M25,306.56427l5.34108,-2.82799l-0.23785,-17.96634l-5.10323,-15.6027M25,119.92722l5.73506,-13.76167l-5.73506,-13.48819M25,67.30243l6.08932,-4.71605l18.12232,-15.47287l4.33299,-9.02423l9.3384,-11.53078l1.02571,-1.55849M494.81951,25l11.6302,12.55158l6.61154,17.31305l-6.67476,8.55261l9.67245,14.55974l17.72359,13.12951l0.21748,0.25257M534,304.14004l-12.67109,6.37416l-12.81664,8.60754l7.47327,9.82289l-5.34348,16.22177l-15.29527,18.86369l-3.038,7.9699M65.36606,372l-11.8322,-11.38837l-1.89586,-13.77231l-7.83665,-11.04557l-17.8624,-6.15813l-0.93895,-1.27445M25,53.7344l14.63792,-17.84728l5.63048,-10.88712M514.95076,25l8.09476,17.82295l5.7477,6.60042l-0.70345,15.35477l5.91023,4.04212M534,331.52633l-2.65466,3.09129l1.33169,4.64689l-8.51366,12.19094l-8.73213,13.86714l-6.93068,6.67741M48.4007,372l-7.65443,-21.60414l-7.61393,-8.60674l-8.13234,-7.9786M25,44.54417l3.48727,-7.02234l4.5681,-12.52183M519.90413,25l14.09587,8.69322M534,354.21372l-10.56393,5.34381l-10.93261,12.44246M28.37177,372l-2.08069,-6.04086l-1.29108,-4.95532M534,367.07311l-3.67301,1.32471l-3.26576,3.60218" fill="none" stroke="rgb(0,0,0)" stroke-width="2" data-clipped="true"/></g></g></svg>