<svg version="1.1" xmlns="http://www.w3.org/2000/svg" xmlns:xlink="http://www.w3.org/1999/xlink" width="559" height="397" viewBox="0 0 559 397"><g><g><g/><path d="M256.29117,194.32051l2.38435,2.34534l-0.76375,3.5979l-6.80066,1.12517l6.80638,-6.88568l13.15234,-6.27959l1.33122,7.03476l4.37429,13.63758l-6.39721,10.66094l-24.06403,-15.02922l-1.2405,-8.68683l21.0579,-23.66268l16.93483,5.35175l3.94982,13.31105l5.38276,9.43106l-0.87482,19.47179l-4.33638,9.51537l-12.47364,4.24454l-22.67677,-13.73037l-11.60775,-5.83654l-1.71906,-6.24542l1.82312,-26.57034l15.11168,-6.2096l23.57634,-13.81639l11.19945,8.23574l3.79915,8.98204l9.36463,3.8999l6.77521,18.53573l-7.31596,6.40467l-8.62437,17.69886l-4.96248,17.17309l-8.586,5.75669l-22.50102,-12.27597l-18.47374,6.67016l-11.51534,-16.82829l-0.31632,-5.4181l-2.59204,-17.82881l4.45951,-34.10723l14.47755,-9.35324l15.81526,1.26264l21.90598,-15.87217l9.80716,10.65121l12.97167,2.58959l11.38402,-0.09259l-3.72623,21.38691l16.60963,23.87828l-9.59156,7.05963l-3.80565,8.31072l-4.67979,20.9546l-15.79817,6.92693l-8.02304,6.82459l-16.7285,-1.27953l-17.09392,4.26765l-11.22437,-3.66322l-11.32456,-13.6988l-12.02096,-15.33628l3.84106,-18.62556l-0.31195,-13.79544l-3.97529,-15.06569l13.62671,-28.09644l5.88634,-5.92343l20.49413,-3.43536l11.8478,-5.30056l11.61477,2.95983l17.40774,3.25373l6.38406,8.98719l15.3439,-1.5004l11.02666,36.93019l8.22998,15.94637l4.72315,18.15677l0.54379,9.85916l-17.42676,1.78459l-6.9778,15.49632l-21.7243,16.22949l-3.65179,-0.42444l-18.18619,7.74345l-16.50746,3.00038l-11.26203,-5.66072l-22.97872,-4.29457l-1.77894,-10.76834l-10.33147,-21.65932l1.29253,-12.82737l-1.85174,-17.5956l-0.29891,-8.79504l0.71964,0.66711l-1.70745,-19.07288l7.60054,-30.54709l1.67196,-11.22789l19.7298,-0.07684l12.16695,-8.06991l17.75511,-2.67177l14.39062,-5.69215l12.58687,22.36243l10.86843,7.48757l14.51508,-3.61509l16.66891,12.43576l11.42443,32.15632l4.93823,18.12869l0.79082,11.17861l-2.41358,23.3721l-10.18296,-0.29544l-15.83585,5.60653l-13.631,20.51752l-13.14897,19.0917l-13.55653,-3.51684l-15.86121,2.88472l-10.50923,8.54404l-16.5187,-15.20736l-13.58487,1.66661l-14.02762,-7.20439l-10.18411,-17.86603l0.59879,-25.64263l-6.34127,-10.27467l-2.15249,-5.82206l6.27914,-14.26874l-7.06092,-4.99985l0.55841,-8.99213l6.45734,-12.02898l0.04709,-13.91391l12.24818,-20.31926l10.48317,-5.22065l8.48765,-5.33079l17.51155,-13.40065l18.94098,-8.00922l8.78891,-3.34599l15.26232,19.61909l18.67652,10.94136l15.10301,6.62184l15.22418,5.39792l1.89184,11.4953l8.99819,22.27196l11.59159,21.37525l7.27674,16.92508l-12.62558,18.91133l-9.80406,9.96556l-4.91967,7.16616l-8.99332,5.00346l-9.70816,13.01805l-17.35938,18.12372l-16.83071,2.34819l-12.3762,-1.81264l-9.5157,11.25558l-18.90718,-15.4164l-15.66292,5.69354l-14.49539,-1.48641l0.86992,-2.86286l-14.50296,-25.11395l-7.44382,-17.90312l-18.32653,-22.12946l0.04332,1.55468l4.86125,-12.73938l5.97283,-13.33807l-10.5292,-14.01205l-4.12215,-6.47104l7.95352,-10.04693l24.30146,-6.80342l1.79109,-18.93057l13.96149,-15.0135l-3.56549,-8.4132l17.58346,-5.65057l16.00787,-10.47587l16.70969,4.74214l12.72588,-0.39669l14.337,8.14744l12.16356,10.27426l36.69867,7.13844l7.02655,-3.68137l13.46268,13.94235l-10.95211,11.84857l2.83804,14.73359l17.21693,23.75505l10.19207,10.1263l-3.17717,20.03169l-19.27806,1.79133l-9.57101,18.78303l12.5199,11.62968l-1.10969,12.28153l-15.82675,16.51035l-22.11725,9.01734l-23.0178,6.79897l-12.98915,2.37536l-15.60537,-7.03839l-11.73112,2.00049l-14.59333,-3.59441l-18.72887,12.26022l-11.54257,0.22289l-0.03622,-6.21799l-6.69779,-11.26607l-4.77991,-21.97317l-23.68187,-14.56115l-19.10946,-13.77259l1.90212,-14.70723l6.50179,-10.18347l1.03979,-13.92602l-1.93624,-19.45246l-10.49518,-20.71181l4.67421,-3.47321l22.5797,-10.91482l17.44199,-11.5708l6.12964,-12.17491l1.77247,0.82941l4.47517,-9.1553l15.43683,-17.41763l11.64363,0.63214l17.09456,15.36241l6.91157,-11.1521l22.81958,3.79567l19.30305,5.34425l11.92797,4.22519l27.69636,-0.42459l15.60114,11.65986l8.32295,7.9947l-5.00696,17.95984l1.77515,-5.85378l11.56317,20.24949l4.62343,12.84026l1.58084,9.46666l-0.75196,26.09837l-6.14614,11.55944l-11.97549,17.98719l5.03389,16.19349l-3.14592,18.27497l-8.04608,16.55554l-21.55328,-3.56729l-22.25755,5.01706l-6.92786,15.6158l-24.44199,1.80001l-19.35523,-11.1042l-7.04876,2.69004l-21.80057,4.64577l-7.20852,8.15461l-11.90183,-2.45815l-10.48032,-4.45695l-9.17362,-7.26807l-0.48209,-18.0549l-14.81613,-8.64796l-12.54329,-13.86994l-5.59405,-25.12738l-8.13187,-18.78793l-8.54548,-2.33276l-0.18656,-7.0605l0.4253,-23.87373l3.46271,-26.42076l13.86903,-10.57112l-2.59723,-17.33143l8.27456,-4.74447l12.24767,-7.28687l6.97441,-14.12214l0.06904,2.99198l19.45658,-3.4257l20.17128,-18.12073l-0.35951,-0.13124l14.19255,10.34946l19.16163,-6.81741l6.76672,5.8261l25.16287,4.75342l17.92949,4.32249l9.78481,-7.14821l7.96805,0.69036l26.04865,11.6601l12.56977,5.35228l3.15095,21.08926l7.40723,5.7085l22.87631,13.05253l-11.4137,11.55217l-0.71301,9.92074l3.35321,5.47692l-5.005,35.54278l9.58185,22.31029l-7.73028,9.00067l-10.62258,5.12158l-10.0717,8.83439l-0.86887,17.37175l-24.35441,13.15996l-20.39289,-1.25193l-5.27694,17.84129l-7.92005,17.39504l-16.63387,2.02514l-25.69831,-9.88649l-11.51508,-3.84831l-15.72326,-0.73495l-9.30145,13.1866l-9.69315,0.50514l-21.78501,-6.69992l-18.41036,-10.04563l-12.1419,-7.66092l9.70755,-12.9788l-13.93404,-19.55182l-10.18255,-4.91296l-13.50703,-27.05843l14.46138,-16.83979l-14.93428,-4.69778l-11.86879,-1.67215l8.82222,-13.66005l-8.46511,-18.81954l17.33292,-27.93798l2.63727,-14.34164l-10.04345,-11.02337l22.56209,-7.47409l5.57644,-7.9983l9.27895,-7.9155l-6.52568,-11.30748l15.48146,2.84066l17.58376,-14.98747l17.59482,-14.43916l8.81833,3.47929l17.57616,3.18045l16.03736,-0.63861l9.2846,2.75674l24.27621,1.09399l12.93557,10.69152l3.86686,-7.3494l11.03083,-13.50306l17.64,11.67969l27.24964,20.23574l6.56791,11.55772l9.93838,23.90451l-1.98706,10.49116l18.61966,5.10635l0.31125,18.9901l-4.53008,15.43341l3.13164,-1.31532l-2.88043,27.50209l3.79632,16.03868l0.81656,16.56474l-14.83342,5.59003l0.13114,1.17184l-8.936,20.75354l-8.79574,13.46547l-23.30817,9.71518l-20.19721,3.67066l-8.09067,15.14803l-7.91336,21.04107l-8.0978,10.97404l-28.26576,-5.69663l-7.89912,-4.76544l-14.80093,-9.73527l-19.64543,17.82098l-7.68837,2.30941l-16.92641,1.56277l-16.28226,-17.21251l-20.17072,-8.41776l-6.81183,-9.70705l-0.49385,1.8094l-8.8741,-28.50268l-1.23006,-6.46323l-14.97587,-16.77862l-1.24996,-17.82488l-3.35606,-12.59943l-20.84797,-2.99728l2.27337,-17.38685l-1.68703,-13.53154l-1.64323,-16.17142l16.08208,-25.74562l8.0701,-16.0741l2.53321,-18.4065l10.57319,-1.14696l4.6426,-21.20125l1.88009,-0.34175l3.25446,-2.79935l5.2265,-8.67605l19.41055,-5.34474l13.98777,-11.38416l21.09045,-12.27775l6.46629,-3.98332l15.24441,-1.86l16.90398,5.32247l9.0846,-0.25604l20.13851,7.26723l17.19584,4.93883l7.75463,0.27336l11.23479,-13.7513l13.1807,0.70559l18.95612,18.81373l12.00773,30.27759l19.05193,14.40115l14.02066,7.29455l5.0948,18.40669l6.84588,16.67365l-0.16102,11.86334l-6.59605,16.96248l-2.57102,-2.47776l-0.23778,9.87144l3.40654,31.70296l7.17837,5.62047l-1.30019,11.8838l-3.599,12.93592l-5.49916,4.20382l-15.35069,14.09455l-21.36344,11.79709l-10.0448,11.46587l-12.59777,1.3625l-20.0372,14.79422l-8.96895,28.83809l-10.55594,9.65908l-12.09019,-2.72506l-22.9214,-1.77671l-5.1531,-4.11488l-14.84619,5.99705l-25.14258,-4.62955l-6.87923,-3.74464l-16.52423,-2.70713l-14.96727,-6.71382l-19.41703,-5.25469l-5.25926,-6.44164l-12.14542,-3.2915l-14.50582,-9.98149l2.97779,-18.43393l4.3105,-7.3249l-8.09792,-12.94687l-13.62367,-15.0276l-6.45971,-5.91851l-12.76567,-21.93727l-5.70155,-29.37354l5.07935,-13.04874l-8.32539,-11.56304l13.69035,-0.91606l3.84484,-13.52148l17.66891,-35.75919l14.28944,-23.77429l-7.31788,-7.56662l-3.67976,-14.21731l11.09884,-1.7493l8.28537,0.3368l8.9904,-4.73928l18.39374,-6.93538l12.62476,-11.65175l6.4772,-9.0675l17.42699,3.1585l13.92604,-10.84505l28.45814,0.58494l13.16821,4.6541l3.87676,13.58333l18.94931,8.77075l8.33164,-7.61171l21.72584,-7.19978l10.11048,-4.99211l14.85491,15.68515l12.09839,19.53272l9.22031,21.5504l12.98677,8.15441l25.5469,3.32874l11.06327,15.57652l4.10315,22.39397l-7.84215,14.97348l1.97985,10.0564l-5.34992,11.22952l10.49543,-6.38255l-6.66168,30.78546l-0.86966,27.26083l6.48007,0.7857l-0.05608,18.32836l-0.59947,9.6055l1.53867,4.59549l-20.7947,10.73975l-26.62511,9.29043l-8.92297,20.40595l-6.42246,-1.2223l-14.999,17.57558l-8.62954,22.58189l-17.24491,15.97913l-19.81571,-3.03302l-13.23915,-5.34996l-12.0641,1.89161l-5.17795,-2.13694l-15.11191,4.59525l-24.19164,-5.5157l-17.90043,-6.41547l-14.49074,-2.49214l-12.33945,-2.12121l-6.11792,-5.92696l-15.3755,-0.58621l-11.03151,-2.70761l-16.76876,-12.03889l-12.65968,-9.86564l8.68692,-18.39823l-1.22726,-0.94396l-13.34439,-9.95248l-7.84941,-26.55082l-10.78075,0.64731l-10.12635,-21.36099l-2.21746,-25.71009l6.05861,-14.04873l-6.30286,-22.1538l0.25202,0.52245l8.90974,-4.81257l9.52367,-22.04895l4.77712,-35.70392l14.54735,-20.35233l8.89849,-7.35094l-12.65146,-13.82259l6.89006,-12.21417l18.41206,-4.81453l16.70018,-6.72687l6.71661,-8.51217l12.74996,-12.22354l2.99853,-3.07979M210.79627,25l7.45944,9.21392l23.31894,-1.68216l10.0863,-7.53175M264.61432,25l9.36172,5.94179l8.64699,-5.94179M291.33946,25l10.54002,15.06289l5.66555,8.93848l15.198,-10.43863l15.40315,-5.76189l15.39624,7.66439l20.19056,13.92175l2.6597,14.14805l8.84702,17.0302l10.85857,9.64066l29.68441,3.52973l3.07079,15.78016l3.92249,17.11046l8.42894,12.36556l-2.11371,18.33208l1.5659,17.00293l3.26004,7.31685l6.92395,-3.44794l2.00708,18.31529l-9.51472,24.57417l-0.34792,13.63487l-1.37896,17.11951l-1.32109,2.33013l-8.11335,13.77033l-4.05051,12.34831l-12.0417,6.44096l-22.38325,12.12494l-2.21141,16.77144l-12.72854,15.68927l-8.65819,9.65212l-13.22815,26.03294M327.40361,372l-4.9044,-7.33893l-15.69434,-5.34397l-6.4109,3.67721l-6.88056,7.11096l-2.97428,1.89474M263.47068,372l-6.00783,-3.66275l-18.17325,-9.92933l-16.75729,-0.70818l-20.49443,0.08482l-9.95459,-9.61576l-8.21344,-2.30554l-6.61285,6.11317l-21.52215,-4.4708l-14.90305,-7.97056l-13.36923,-17.34877l6.671,-29.05384l-7.57347,3.79838l-12.07493,-2.30386l-8.6681,-17.59048l-5.3519,-27.27229l-8.43674,-3.77237l-2.9418,-25.22799l7.78759,-11.13996l1.75546,-10.72185l-10.45215,-19.7188l1.12838,-2.57217l6.04823,-14.82643l6.29425,-28.21691l7.72466,-23.52743l8.95306,-12.85152l11.26109,-5.50832l2.73028,-18.26035l-0.68612,-20.55389l12.56668,-6.33542l23.28156,-0.43991l12.88749,-15.46314l4.29073,-5.62775M303.38535,25l1.6921,2.47991l10.14049,11.43098l10.65734,-13.9109M341.58217,25l16.4629,4.05427l22.91055,14.66073l14.9097,4.53249l-3.30049,10.47262l9.5153,25.30735l21.33209,15.11525l14.90958,5.51508l0.53848,4.65002l3.24605,13.76076l6.74661,7.1845l5.76985,7.82491l-1.74035,21.41576l9.65602,10.67101l9.38174,8.76536l-0.55285,8.34283l-7.77309,16.85868l-7.54158,24.24025l-0.26994,17.8441l-3.77335,13.34843l-8.07831,4.25492l-2.73665,18.98621l3.65139,18.94942l-8.24844,1.91516l-28.9133,18.11048l-12.11754,17.33831l9.16916,9.81067l-10.54592,5.45877l-29.98111,14.05414l-4.50728,3.55755M342.61538,372l-0.15546,-0.77889l-16.98289,-6.02397l-14.2185,-2.54656l-2.7621,9.34942M237.64301,372l-1.34666,-0.82428l-14.60492,-3.0904l-9.85842,1.71316l-18.78863,2.20152M184.56026,372l-6.51191,-9.70044l5.83647,2.63183l-10.52726,1.22002l-36.43406,-23.10768l-6.45444,-18.55703l12.54728,-24.67059l-9.53177,-7.93921l-26.20728,6.9088l-12.6482,0.50058l-8.67298,-31.75559l-0.57605,-24.66116l0.36788,-6.36843l4.03097,-27.4993l6.53846,-3.53084l-2.13778,-16.67706l-3.75318,-10.73159l-4.0961,-5.93679l-4.44376,-14.99844l1.1158,-25.01552l2.96019,-25.0334l17.17628,-10.91295l18.10198,4.63191l19.42553,-26.26191l-2.78395,-13.63681l0.84392,-17.17701l15.86634,4.31174l28.57129,-6.07059l-3.20673,-16.96252M369.26053,25l3.40602,3.03355l29.10866,8.14895l17.7054,14.29895l-12.65868,7.73896l14.84333,17.26597l27.32128,21.1902l12.61897,6.87095l-10.56508,-2.46842l4.62941,-0.15685l-4.4612,16.20313l4.0148,8.27187l15.38003,11.65151l9.75096,14.71478l13.09463,16.95884l-5.0483,10.76376l3.02308,11.89145l-6.20555,19.13525l-12.76762,21.39888l-12.47977,15.51991l-8.81813,7.33646l0.13317,12.68681l6.86391,26.50293l5.42614,9.71635l-8.70835,15.4256l-20.23846,8.12521l-18.89094,11.10936l-2.71687,14.8456l-2.91624,5.19732l-27.98802,9.25149l-15.26439,4.37124M163.70282,372l-20.05436,-3.45762l-15.1131,-27.6491l2.80409,-16.95402l2.88844,-22.78704l-18.46873,-7.69906l-16.16012,6.55831l-23.65337,-2.10551l-10.64499,-18.59571l-0.70741,-24.53056l10.46661,-23.79654l2.5819,-18.78126l1.59678,-6.05548l-0.5572,-11.91967l2.75435,-15.24855l-6.52316,-12.30418l-0.28508,-11.84266l-11.5673,-14.16729l3.63003,-14.78517l9.33303,-20.73272l25.30575,-6.3299l15.35057,-11.19678l13.75077,-23.48163l-7.03999,-8.3351l-2.44772,-19.14497l20.05883,-3.43274l23.46467,4.40492l6.92576,-12.62998M400.38405,25l14.00454,10.23875l-2.02621,18.55714l9.18119,3.50177l22.78818,10.81692l22.21287,20.19327l-4.19854,10.31901l-2.04758,7.77175l-1.63616,10.88946l2.83179,8.20358l6.91663,8.49743l23.33489,3.22718l-0.7231,22.96703l4.83201,9.64084l3.28271,15.13383l-3.20205,20.58699l-4.60857,18.31572l0.24823,14.58759l-22.92235,7.02042l-6.9113,16.47154l-2.02462,10.48695l1.87131,25.81141l0.76556,15.57759l3.33299,11.04495l-19.73668,5.80967l-21.50051,15.13434l-11.88646,15.9939l1.84941,0.1083l-15.62963,7.74407l-17.13981,-1.2774l-3.61162,3.62599M122.95773,372l-1.56925,-0.46234l-4.70715,-25.82008l-2.11025,-17.41055l-1.0765,-22.62588l-16.28208,0.28561l-16.61795,-8.44725l-11.14015,-7.2417l-8.80589,-1.39743l-2.47858,-23.57688l8.69515,-29.6057l-0.22329,-5.55927l-13.30347,-11.63125l7.77546,-8.03437l6.28557,-25.22963l-8.13369,-19.51708l4.52958,-4.17593l-1.10497,-23.32644l-2.82574,-13.79439l2.28569,-4.16674l8.82534,-13.11327l12.83973,-11.16756l14.46498,-12.26735l13.96835,-18.39462l0.57011,-24.78535l2.28707,-13.58031l2.53753,-1.95425M413.18792,25l0.28353,12.93025l14.53662,12.98834l15.36325,2.58403l12.16715,12.32206l9.5247,19.72761l9.94877,15.18184l-2.61933,17.51428l1.69009,-0.70458l15.3457,-2.34264l0.88166,7.97579l10.87409,15.54274l3.47515,18.16255l-1.97929,13.17183l-2.53646,20.59793l3.25116,23.72407l1.23724,17.1326l-3.6009,15.38151l-8.04786,-1.55819l1.13266,18.72106l-16.23689,9.40838l-3.5352,19.67456l2.61532,26.52678l-11.67193,8.86177l-7.28456,21.36881l-13.12397,-0.09273l-12.01627,4.77075l-12.36654,17.42859M131.84682,372l-0.35622,-0.53136l-18.19238,-8.21493l-5.27868,-6.18201l-14.82531,-16.17305l-1.95428,-21.79796l-7.97636,-7.02022l-4.23609,-8.62218l-13.44914,-4.42664l-1.20083,-2.8587l2.76236,-12.7839l-17.12847,-20.00602l-4.78455,-14.49182l3.86804,-9.09481l-6.93721,-28.06991l-4.35573,-16.29961l3.38213,-21.29693l6.3909,-3.19282l-3.47869,-15.91347l4.34748,-20.47546l19.72249,-13.66696l-0.81474,-15.56637l-1.81584,-6.10764l9.60335,-15.02378l8.50456,-9.15372l3.67661,-9.83325l-3.17914,-19.50977l17.8446,-20.68673M108.02966,25l0.94165,0.32285l0.36684,-0.32285M414.40622,25l6.13119,11.15159l19.90056,0.83249l-3.73651,-4.81093l20.75151,9.77261l13.03215,28.3027l14.49336,21.14793l3.65829,12.12457l16.83794,1.27032l15.19326,-4.63137l-8.93064,18.11868l-9.04634,16.22442l-3.36102,16.77528l9.61386,15.21955l-1.73742,18.29109l2.16153,12.87393l-2.67656,20.16446l-7.80228,25.15514l6.7485,13.85451l10.6225,15.02872l4.18655,20.18109l-16.38624,3.11232l-15.21596,15.10643l-4.23359,22.01359l-17.71866,15.2759l-13.36247,13.37189l-18.15254,-1.76449l3.9528,12.83759M107.76495,372l-7.93742,-8.40463l-3.75323,0.84255l-15.97668,-11.02783l-7.41739,-13.13069l-9.13189,-1.15419l4.55144,-24.77325l-7.88003,-7.94468l1.32169,-7.52996l2.2954,3.09195l1.61276,-15.36754l-24.29536,-4.81332l-13.88418,-18.04553l-2.27006,-9.33917M25,200.39793l0.27626,-0.93804l-0.27626,-1.90737M25,156.68283l0.10608,-0.38198l13.57615,-11.04552l25.73412,-19.32489l-1.06529,-21.95743l-4.15356,-11.23725l-1.42216,-0.47708l7.74679,-19.42207l-5.1518,-2.63472l8.43945,-21.89748l7.15318,-19.33488l8.70432,-3.96952M430.28157,25l19.41414,0.91848l0.40509,-0.91848M458.14686,25l9.10001,27.32908l21.14275,35.19992l6.85516,9.77783l11.04645,-5.01471l24.54653,9.39145l3.16223,3.85676M534,121.99586l-10.54147,3.79091l-9.47466,18.201l-1.99079,11.35937l5.91035,12.53189l7.84837,22.90972l-7.66569,9.34641l-5.81893,28.47631l2.08168,13.98482l11.2009,26.14511l8.45023,8.32316M534,299.36312l-2.19769,1.93818l-25.68001,-3.39269l-11.00432,15.96289l-5.61194,15.5777l-20.22291,21.48247l-10.17297,13.67373l-0.71854,7.39459M94.18966,372l0.60699,-0.96888l-22.39845,-14.19188l-13.28504,-9.48449l-6.63201,-14.57943l0.57068,-9.83775l-10.52907,-10.1012l-7.36823,-0.59866l10.91267,-6.01327l13.6179,-16.31145l-22.83188,-11.35651l-11.85322,-11.74087M25,215.22267l1.5248,-0.66408l-1.5248,-3.10237M25,147.66998l4.06115,-0.95178l13.28422,-17.50462l14.70197,-15.56472l-17.98497,-24.5635l-10.23125,-5.78288l14.12362,-8.05413l11.96889,-13.06754l0.53851,-12.01588l5.06942,-7.03745l16.8178,-18.12747M479.73099,25l3.44319,5.725l15.16362,32.17012l-2.72402,8.95802l-4.78134,5.33164l29.54848,9.06014l13.61908,9.53553M534,145.36844l-9.84582,10.00859l1.22069,2.79343l8.62513,9.47398M534,197.5925l-3.78882,1.73669l-5.2707,18.20644l5.32736,18.78672l3.73216,10.69254M534,301.10457l-20.10505,0.54378l-28.17146,3.89588l12.61496,10.94169l0.57804,19.90755l-16.16693,20.2563l-7.34907,15.35021M88.67016,372l-6.04148,-3.60079l-14.62904,-7.69529l-10.75284,-11.24933l-0.27539,-19.93056l-9.85304,-10.89908l-22.11837,-0.02707M25,307.21167l5.83859,-1.15257l1.7672,-19.53178l-6.08406,-18.32731l-1.52173,-2.16402M25,124.19841l8.22727,-18.42594l-8.22727,-10.74897M25,62.05672l1.39562,-0.87219l22.3359,-16.48572l2.74936,-7.63332l9.48571,-11.33338l0.44545,-0.73212M496.28885,25l10.05845,10.32797l5.96836,19.21854l-12.35421,6.78232l10.81895,15.03618l22.38556,12.89363l0.83405,0.7862M534,304.02963l-16.68401,4.85842l-15.32402,6.6518l13.36985,8.50277l-4.29422,17.62596l-17.95676,21.50418l-2.70305,8.82723M69.51706,372l-2.29888,-2.02001l-15.77126,-14.33368l0.97458,-14.50223l-7.60226,-10.49827l-19.81923,-3.15144M25,47.9418l15.37264,-17.56712l2.61413,-5.37468M517.24596,25l7.88086,20.10303l4.77809,4.20846l-3.98699,16.30114l8.08208,3.40604M534,330.12792l-3.98458,3.80333l3.98458,1.06M534,336.35891l-7.87035,10.85582l-8.75001,14.52206l-11.20059,10.2632M50.70283,372l-7.80764,-26.46626l-7.40639,-7.00725l-10.48881,-8.31281M25,44.13352l5.58876,-11.46065l2.28281,-7.67287M514.54234,25l3.33619,1.91428l16.12147,7.74965M534,348.63272l-10.21027,3.0629l-18.03448,19.94919l-0.22879,0.35519M29.23933,372l-1.78604,-6.55769l-0.36868,-8.67041l-2.0846,-4.41721M534,362.14855l-6.26758,1.25669l-8.24702,8.59476" fill="none" stroke="rgb(0,0,0)" stroke-width="2" data-clipped="true"/></g></g></svg>