<svg version="1.1" xmlns="http://www.w3.org/2000/svg" xmlns:xlink="http://www.w3.org/1999/xlink" width="559" height="397" viewBox="0 0 559 397"><g><g><g/><path d="M269.66707,196.7202l1.47838,2.11411l-2.10919,2.49329l-5.24273,-1.44217l3.76335,-6.93253l10.53325,-4.25322l5.22224,7.14114l0.57452,13.02967l-10.55079,7.63232l-17.5643,-11.41343l-1.25564,-12.44641l14.77812,-16.70249l15.91006,1.32273l8.97577,10.44771l5.24677,12.20789l-2.67113,16.70461l-8.37881,9.77865l-13.88997,3.19402l-17.75948,-9.06791l-10.39002,-9.23755l-2.26779,-11.17836l3.37208,-19.62402l12.50395,-8.83897l18.23048,-8.82021l13.38163,4.39209l9.06036,8.22112l9.00806,8.69719l4.67189,16.37865l-4.81036,11.19667l-8.4848,14.746l-9.25675,12.19136l-12.08853,4.32324l-18.15125,-6.58158l-15.39435,-1.40753l-10.44129,-13.82782l-3.02153,-10.42985l-1.07247,-16.24587l4.82459,-22.71315l11.62224,-10.69154l14.07168,-4.01948l17.75765,-8.7864l12.76976,5.32683l13.46053,4.50485l11.35077,5.62228l2.84709,16.52666l9.14675,18.58856l-4.65283,11.60552l-4.66551,11.60482l-7.24163,15.79772l-13.74116,7.99783l-11.54868,5.77012l-15.75166,-0.09344l-15.69655,-0.11732l-12.32313,-5.74207l-10.94674,-11.92983l-9.38675,-14.04918l-0.43949,-16.31757l0.05864,-14.50195l0.73191,-14.69565l10.3306,-19.36531l8.74613,-8.46053l16.31075,-5.61116l13.40672,-4.37282l13.56731,1.32247l15.76662,3.58209l10.24604,8.0197l12.83817,5.23513l9.37423,23.04904l6.30003,14.9625l2.77473,16.33665l-1.06638,12.71426l-10.72935,8.70923l-8.01689,13.60383l-15.81447,12.5622l-9.18526,3.77619l-16.11728,5.42925l-15.65946,1.45125l-13.22732,-4.20108l-17.63742,-5.45233l-7.5526,-9.8695l-9.88822,-15.90803l-3.31787,-13.16029l-2.89973,-15.86391l-0.37919,-12.35074l1.91257,-8.14783l2.64145,-16.06837l8.23372,-20.08672l7.06027,-10.59555l15.87385,-4.35268l13.37179,-6.13148l16.14404,-2.06365l14.70753,-1.57407l13.57414,12.18613l12.13301,7.42803l12.68216,4.10095l12.32961,12.16926l8.60095,21.52375l4.19803,16.09624l0.72269,13.36518l-2.35476,18.49726l-7.32793,7.9281l-11.27048,9.72108l-11.66536,15.09762l-12.57033,13.23802l-13.58986,2.11601l-15.12825,3.29895l-13.07503,4.09531l-15.57658,-7.72084l-13.9381,-2.07468l-13.4576,-7.35453l-10.87893,-13.24331l-5.10145,-17.69297l-6.73819,-11.98477l-3.47277,-10.68881l1.69157,-14.63803l-2.44794,-10.70447l2.36867,-12.16647l6.3702,-12.94333l4.97099,-12.97179l11.38025,-14.71169l11.60011,-7.04527l11.4885,-5.74741l15.84608,-7.75619l16.68317,-3.93832l12.28735,-0.42297l14.75208,10.89833l15.65387,8.5756l13.32933,7.99615l12.38348,8.58183l5.49959,12.11218l7.23985,17.42985l6.95096,17.50844l3.64861,15.81711l-6.34389,16.63381l-6.56499,12.51882l-5.8287,10.80237l-8.82048,9.14055l-10.22771,11.64544l-14.43336,12.73694l-14.93516,4.74504l-13.53835,1.63207l-12.59689,5.84174l-16.67322,-7.00279l-15.10231,0.64644l-14.19684,-3.77541l-6.99521,-5.62163l-12.77425,-16.29338l-8.77004,-14.18927l-12.31296,-16.81332l-3.20739,-7.28297l0.16902,-13.82226l2.00147,-14.27693l-3.70517,-14.54584l0.38141,-11.07872l6.83912,-12.16872l15.03819,-10.14194l6.46549,-14.52604l12.61254,-11.87923l5.86738,-7.95277l15.51589,-5.5692l15.23125,-6.36564l15.72109,1.46875l13.99868,0.58802l14.47225,5.54935l13.12902,7.70803l23.04888,7.53031l9.56915,3.95217l11.4156,12.43342l-0.08631,12.31357l4.68359,14.16041l9.63078,18.45778l5.35792,12.86045l-1.65232,17.15796l-9.82303,9.20232l-6.89496,16.16019l1.40542,12.59299l-5.51311,12.20619l-12.78521,13.20359l-16.31361,9.04742l-17.38297,7.04328l-13.60602,4.00892l-15.07626,-1.22431l-13.58691,1.41628l-14.80457,-2.22302l-16.38958,3.34802l-12.94939,-2.99171l-7.49362,-6.866l-9.67208,-10.05414l-8.03667,-15.55814l-15.20471,-13.16967l-12.21275,-13.47783l-2.09741,-14.37066l1.03947,-12.76174l-0.10418,-14.52782l-0.17469,-16.88885l-2.65391,-17.25302l4.99699,-9.52616l13.75929,-12.22104l12.56412,-11.86308l8.62211,-11.3516l7.54374,-4.8924l9.35974,-8.18789l14.57252,-10.66683l13.31038,-1.81143l15.85293,5.65763l11.53545,-4.53523l18.24037,3.03402l16.46431,4.83188l12.8845,5.43691l19.082,4.45972l13.20789,10.5673l9.28162,9.82178l2.66055,14.80041l4.57477,5.17316l7.71142,16.80015l3.63251,13.91912l1.19719,12.61793l-0.94045,19.73923l-4.3766,13.35166l-7.96621,15.80356l-1.71603,14.59201l-6.19182,14.90991l-9.17642,13.4783l-15.74955,4.05171l-16.72283,6.8348l-10.70088,10.40368l-18.62289,3.44862l-16.72074,-3.15849l-11.58262,1.65217l-17.89779,1.3833l-11.49496,1.79259l-13.21864,-3.81967l-12.18868,-5.69237l-11.08269,-7.849l-6.69627,-13.34447l-12.07395,-10.09249l-10.24343,-13.00505l-6.33218,-18.38906l-6.4257,-16.10813l-5.56399,-9.36231l-0.91459,-11.56125l0.4256,-18.80415l2.79922,-19.79772l8.30805,-12.77414l2.2609,-15.31211l7.87543,-9.43636l10.46427,-9.93082l9.00802,-12.16117l6.75807,-4.03498l15.672,-5.91401l16.47019,-11.27442l8.04328,-2.57578l14.52709,2.94093l16.77615,-3.37084l11.45471,3.09791l19.20156,3.67722l15.83925,4.50508l11.96595,0.56027l10.69054,4.83541l17.83648,10.38388l11.36029,8.44707l6.53828,15.8667l7.5031,9.84954l13.21235,13.46321l-2.45115,13.17196l1.13385,12.70566l1.85681,10.91255l-2.74904,23.78687l2.48923,17.98321l-5.91869,12.02749l-8.10805,9.99866l-8.77003,11.11451l-5.66,14.19632l-16.48397,11.72111l-15.45948,4.79115l-9.56025,12.14816l-11.17029,11.07053l-15.27432,3.54898l-19.4164,-2.52547l-13.48008,-0.92873l-15.30938,-0.59348l-12.46682,4.37942l-12.43005,-2.03001l-17.29671,-6.06045l-15.42876,-8.39248l-12.2207,-8.21244l-2.24265,-11.26644l-11.67694,-14.78136l-9.29721,-9.11968l-9.88644,-19.12929l2.98785,-15.16885l-8.68203,-10.27944l-6.41189,-9.18881l3.4276,-14.42221l-3.00645,-16.61814l9.01497,-20.40053l3.65992,-14.33995l-0.8656,-12.57974l13.97187,-10.62087l7.49978,-10.31418l9.82792,-9.66096l3.7207,-10.41879l13.73535,-3.59044l15.1293,-10.40715l15.53122,-9.29981l12.06679,-0.71078l16.01364,0.09668l15.44232,-0.59038l12.53054,1.81679l18.83264,2.04683l13.74635,7.08181l9.53388,0.2397l12.18287,-1.55059l14.50425,10.03619l18.02834,14.4351l8.49477,11.37728l9.20206,17.2518l3.29591,12.00135l11.28382,10.10124l2.55582,16.36421l-0.42795,15.05456l1.93026,7.99095l-1.57721,20.3546l0.35888,15.35426l-1.82724,15.39299l-9.41658,10.40619l-3.84839,8.13644l-8.53285,16.06428l-9.2156,12.39421l-16.11407,10.16472l-15.38814,6.88389l-10.72881,11.05257l-11.09815,12.77696l-11.53398,7.61967l-20.44198,-0.39962l-11.88322,-0.89708l-14.91468,-3.93514l-16.96776,6.96525l-11.72421,-0.5831l-15.47006,-1.78466l-14.88929,-10.68406l-16.16346,-7.72967l-9.96304,-9.05005l-6.70292,-4.82702l-9.67124,-18.46764l-5.70837,-9.60217l-10.85675,-14.52728l-4.18408,-15.39894l-4.25793,-13.49749l-10.89624,-9.63178l-0.10885,-15.95739l-0.91747,-14.37158l-0.00919,-15.47694l8.46814,-19.46234l5.89705,-15.1094l4.35943,-15.81346l8.60439,-8.03693l6.81756,-16.17242l6.33626,-6.69898l7.56848,-7.15011l8.9909,-9.00472l15.57529,-6.85842l13.68003,-8.68129l17.07192,-8.26016l11.06814,-3.87117l15.00733,-2.10562l15.80767,1.84052l12.45699,0.32102l17.10663,4.41094l15.67075,4.2642l11.36496,3.09269l12.51506,-2.12143l12.92961,4.83129l14.91194,13.30178l11.37306,18.87065l13.76881,12.66177l10.9337,10.14516l6.38086,15.3653l6.36274,15.00477l2.55792,13.24629l-1.02694,15.6529l-0.14574,7.45894l0.00204,12.80429l0.71181,22.12858l1.48473,10.83402l-2.97574,13.31918l-4.76292,13.49045l-6.34666,9.39103l-11.29816,13.19916l-14.55755,11.71461l-10.33583,11.00867l-11.99983,6.05633l-15.69348,11.13836l-11.3861,16.43735l-12.42931,7.45966l-13.37362,1.36319l-18.2236,0.95742l-10.73621,-0.87222l-14.93666,2.62646l-19.31418,-2.76228l-11.371,-3.20909l-15.30911,-3.57431l-14.36909,-6.07756l-15.92896,-6.20724l-9.44328,-7.43294l-11.9097,-6.75529l-12.37456,-10.24414l-4.27822,-14.43203l-3.05288,-10.17509l-7.67202,-13.02281l-9.3035,-14.28327l-5.46551,-10.67536l-7.37648,-17.76137l-3.54092,-21.09223l1.8966,-14.16181l-3.02958,-13.51274l7.21854,-8.85952l3.79859,-14.09484l10.50229,-23.38329l9.80563,-17.93238l1.26294,-10.60228l3.4993,-13.00289l10.4638,-7.14832l9.837,-5.68647l10.66131,-7.24274l15.1522,-7.51904l13.07552,-8.83584l10.76816,-6.99057l15.71716,-0.98653l14.3999,-6.20397l20.73664,-0.50854l14.21738,2.03798l10.19373,6.66607l16.53725,5.39649l11.79741,-0.8468l17.27701,0.08557l11.96937,1.75915l13.60731,11.31365l11.96845,13.61496l10.21953,15.08608l11.26495,9.90032l16.03082,8.33195l9.1637,14.02107l5.48392,17.31966l-0.36333,14.45002l3.09359,12.58462l-0.81844,13.25882l5.19011,5.81053l-2.95022,21.76712l-1.25352,20.21172l1.11906,8.74874l-2.44467,16.08007l-3.41896,12.08611l-3.21679,9.6171l-13.46932,11.86511l-16.61049,10.79876l-9.62244,15.06128l-9.1007,5.23902l-13.27323,12.69525l-10.98337,14.19892l-15.05519,10.69079l-16.47316,1.83356l-13.90515,0.10654l-13.58454,2.45722l-10.74752,-0.03476l-15.04962,2.07867l-18.91599,-3.02644l-16.1256,-4.17771l-14.50192,-3.24956l-13.35086,-3.82546l-10.39077,-6.16712l-14.00252,-4.55895l-11.726,-6.11361l-13.7145,-10.71793l-11.43155,-10.34673l-1.71384,-14.51444l-5.351,-7.49172l-9.89468,-11.75352l-6.85797,-19.20843l-7.40566,-7.83125l-6.39541,-17.47837l-2.26069,-19.49159l2.04088,-14.57656l-2.49864,-18.06579l1.06648,-8.29604l5.52455,-10.46475l6.52124,-17.6688l5.20087,-23.27433l10.07682,-16.38696l8.31416,-10.44787l-0.29865,-12.79844l8.65908,-11.63363l14.13542,-7.93818l13.89166,-8.18905l10.05085,-8.34546l13.01922,-9.29206l12.47187,-8.09587l14.09091,4.66566l18.34017,-2.68199l12.92243,-5.35168M265.3498,25l11.60999,2.95572l10.8752,-2.95572M293.41099,25l12.59227,8.12253l10.82466,5.56409l14.72859,-2.02059l14.5738,0.68445l14.26881,7.11503l15.9646,10.444l8.03842,11.15426l10.22636,12.96434l10.57744,10.32971l18.09134,8.19668l6.0921,13.883l5.82911,14.83637l7.10255,13.13054l1.90141,15.95753l2.77562,15.59821l2.78423,11.59639l3.6276,7.0704l0.78939,16.42266l-4.87828,19.06786l-1.6729,14.28054l-2.82629,15.61393l-3.49617,9.05595l-7.08002,13.68132l-5.98511,12.73858l-10.02507,9.82039l-15.03686,11.81965l-6.93197,13.3273l-11.93624,12.33642l-10.64206,9.18246l-14.1087,17.78056l-16.21366,6.1014l-13.06245,-4.46398l-14.93598,0.18018l-11.13576,3.34854l-5.79512,2.07928M256.38765,372l-12.48698,-4.09441l-15.56543,-2.09713l-16.98809,-2.45082l-12.23501,-7.28378l-11.19758,-4.80376l-10.16735,-1.82158l-16.16228,-6.95204l-12.8831,-9.01102l-11.73888,-13.55018l-2.62237,-19.04393l-8.16207,-5.39591l-9.49294,-8.39403l-7.4055,-15.27718l-5.33221,-19.70502l-5.98207,-9.85711l-2.93936,-19.21947l2.35749,-13.29147l0.47686,-13.16405l-4.04918,-17.0135l1.61615,-9.60061l4.41862,-14.73075l5.20508,-20.29145l6.48164,-18.04856l7.64972,-13.18674l9.25435,-9.70196l6.18356,-14.78058l5.27063,-15.33084l11.46402,-8.7614l16.5288,-5.71909l12.50291,-11.60564l9.41647,-7.0891l5.81108,-5.72688M316.39696,25l3.96786,2.03155l5.50932,-2.03155M343.60856,25l3.01624,1.01533l16.17339,5.67218l17.28215,10.50219l13.48988,6.74785l5.27659,9.84839l10.31731,16.72583l14.89008,12.83915l11.60946,9.16483l4.88924,9.19009l5.45907,13.44422l6.34322,10.92676l5.287,11.45177l1.41333,17.47511l5.62928,13.01592l4.83462,12.29114l-0.10477,12.14775l-3.88113,15.78077l-4.45982,18.87358l-2.013,16.00815l-4.17154,13.90463l-6.65698,9.77926l-4.98754,15.81475l-2.84523,15.47315l-8.51246,7.80117l-17.90457,14.32712l-11.20727,13.54067l-2.54741,9.82134l-11.41909,7.42853l-20.12762,10.55339l-8.24491,5.43499M191.50099,372l-9.32809,-7.27702l-4.85354,-3.2772l-11.50177,-4.44081l-22.19791,-15.39505l-8.90331,-13.93926l-0.27688,-17.01737l-9.22284,-10.26563l-15.82255,-4.27948l-9.43747,-7.3594l-7.13615,-21.47138l-3.04842,-18.67157l-2.01002,-11.02392l0.20615,-20.22249l1.9356,-10.04246l-1.12334,-15.71796l-1.1555,-13.16043l-0.64552,-11.04533l-0.14465,-14.81848l2.87699,-18.95165l4.29176,-18.75104l10.9904,-12.44409l11.97136,-5.48123l13.09765,-18.37708l4.10996,-12.58051l6.16398,-13.67282l13.06709,-4.00191l18.94011,-7.95628l5.20261,-14.78046l0.69008,-0.57768M373.17965,25l1.91003,1.31953l19.83138,7.89506l14.59184,11.07224l1.18676,8.77383l12.54428,13.33854l17.42827,15.46812l10.63164,9.74266l0.1709,6.1128l6.13204,7.43554l1.66237,14.73661l4.70162,11.58318l8.96284,13.23205l5.92798,14.69908l6.72927,15.76801l-1.68375,13.17265l1.13573,13.66789l-3.45772,16.73663l-6.90344,17.62361l-7.40507,14.97409l-6.44895,11.29094l-3.21061,13.36306l-0.90545,19.01976l-2.07944,11.51897l-8.67022,13.61898l-14.11731,10.10515l-14.01515,10.96291l-7.52596,12.1093l-8.01881,7.48835l-19.13398,8.71147l-3.36244,1.45899M168.48823,372l-4.51301,-3.98133l-19.12679,-7.40152l-12.8369,-17.59836l-4.7223,-13.4629l-4.2192,-16.37767l-12.87671,-10.29094l-11.36581,-4.5229l-14.0326,-8.53919l-7.89279,-15.86911l-3.05187,-18.63346l2.33302,-18.4968l-0.43921,-16.48156l-0.24678,-11.11744l-0.55084,-13.6757l1.48867,-15.1025l-1.86917,-13.79596l1.41726,-13.50902l-2.81347,-14.37223l4.2926,-14.46084l7.31502,-16.79147l14.72113,-10.3596l10.99481,-12.14669l10.82611,-17.07507l2.40685,-10.21112l4.83768,-14.4373l14.91538,-7.26501l16.77422,-3.43799l6.94759,-7.58631M400.5026,25l10.82872,7.77565l5.77575,13.37061l10.17902,7.37477l15.57968,10.93658l14.87345,15.34998l3.06817,11.47943l3.47997,10.71359l3.12489,12.33862l4.48965,11.43805l5.67431,11.77501l12.13166,9.68687l1.23187,18.2761l3.01617,12.65238l1.75145,15.05186l-1.62978,17.39199l-2.83295,16.37942l-1.34723,14.70054l-11.86571,11.3349l-5.58165,15.22202l-4.05197,12.45394l-2.93094,18.77948l-3.93487,14.1139l-3.34344,11.85556l-13.71573,9.26156l-14.93103,12.8748l-11.24201,12.82931l-5.75635,5.57858l-9.75438,6.00449M141.55024,372l-12.65731,-6.13941l-8.27916,-16.92088l-6.74937,-13.73295l-5.8622,-16.35442l-11.90957,-6.88992l-11.56131,-10.95408l-8.70092,-10.72426l-7.16966,-8.47049l-3.91151,-18.18982l1.43667,-20.94948l-1.81572,-10.78101l-6.84404,-13.48112l2.77224,-11.99777l2.7184,-19.38544l-2.87707,-16.9156l3.13107,-10.27949l1.29141,-18.38617l1.12054,-14.1615l3.86662,-9.85776l7.21111,-13.47717l9.45717,-12.39233l10.66076,-12.57779l10.93411,-14.88433l5.65513,-17.27177l6.82895,-12.08783l9.65618,-8.47317l3.22965,-1.26404M416.23477,25l3.63932,6.8614l12.63035,11.26966l12.58958,7.22525l10.79823,11.78576l9.21956,15.31743l8.93252,13.69637l3.05695,14.99098l4.39634,7.44451l9.72526,6.9696l2.98928,11.58348l6.72342,14.98193l2.99532,16.22335l0.09427,14.16581l-0.71178,17.39217l1.20005,18.73798l-0.23046,15.88143l-2.86767,15.06185l-5.3311,7.69577l-1.94561,16.2441l-9.92776,12.07428l-5.00895,16.26036l-2.88223,18.94928l-9.49681,11.0979l-8.08812,16.14578l-11.04046,6.60548l-10.99168,8.31866l-11.8843,14.01941M127.6002,372l-6.86118,-4.24938l-8.53697,-8.49056l-12.23585,-13.16756l-6.30256,-15.94683l-8.44353,-9.95408l-6.37975,-10.95178l-9.84845,-9.43416l-4.10255,-9.01086l-1.89265,-13.48039l-9.89329,-16.75782l-4.06866,-14.54249l0.18212,-12.34246l-3.90032,-20.55231l-2.24202,-15.54997l1.6274,-17.69805l3.46903,-9.90985l-0.21198,-15.29676l3.68529,-17.15195l10.80993,-14.09939l2.53354,-14.74471l2.61755,-10.48894l8.01023,-14.0757l8.02171,-11.2941l6.41665,-11.28921l3.92234,-15.11118l13.9456,-15.94827l8.50749,-5.19458l0.30556,-0.26666M427.74012,25l2.24423,2.70394l14.79998,6.20159l4.28777,4.16773l14.37726,10.77747l10.64192,19.05208l10.82115,16.29111l5.71243,12.70035l10.87947,8.29491l9.67893,5.98105l-1.16788,15.91475l-1.73576,15.25418l0.17431,15.60853l5.20236,15.02667l-0.19909,16.39424l0.93341,14.08997l-1.67829,17.19801l-4.41088,19.28668l1.2938,14.35988l2.42928,14.74635l-0.84516,16.80517l-10.16762,9.3087l-10.15902,14.23657l-5.93073,16.95402l-12.17213,13.79436l-10.74913,12.6781l-13.22611,5.86383l-3.05315,13.30976M107.8095,372l-3.79265,-2.54636l-12.86306,-10.83335l-8.8074,-12.09336l-9.13363,-7.29466l-2.84124,-17.72529l-7.723,-10.79417l-3.31718,-10.86949l-2.42322,-6.54131l-2.22652,-14.6468l-12.82999,-10.28738l-7.85919,-16.0911l-3.83748,-18.51514l-0.63135,-21.44066l1.00051,-13.14608l-1.43541,-19.69854l0.64546,-10.17462l2.81476,-14.22323l7.55576,-13.1284l13.27577,-16.55492l2.29112,-17.53057l1.45789,-12.75343l3.10651,-7.92969l7.50003,-15.80811l2.42026,-8.34497l8.67587,-16.30523l8.53644,-14.88625l9.49856,-6.83688M455.78203,25l5.64614,2.22155l7.54779,9.2273l9.09264,18.90437l13.73242,22.27364l7.17006,11.64545l8.51222,5.54588l13.83053,11.93232l8.6524,15.19068l-6.6409,11.47681l-2.21519,16.17191l0.48868,13.33509l3.36683,13.90262l3.68663,18.38483l-3.47395,12.57599l-3.19326,20.74801l-0.31533,14.48049l3.08939,19.60502l6.53231,16.89225l-8.75818,13.48221l-14.1824,6.50813l-8.36069,14.60038l-6.50443,14.20494l-13.20633,16.47871l-9.32304,12.84971l-5.8534,11.66436l-2.29933,2.69734M92.23975,372l-11.8139,-9.41517l-11.18855,-10.64444l-7.94286,-13.13822l-4.44431,-11.39258l-8.77382,-11.76731l-6.97728,-7.93108l1.31213,-10.46159l2.93753,-15.05808l-12.20813,-13.08992l-8.14057,-13.35756M25,147.76246l3.15435,-3.11306l7.7118,-15.83335l8.79995,-14.87063l-4.73685,-18.56832l-0.95217,-10.33351l9.93552,-11.09455l9.44868,-13.00517l4.97185,-12.29168l7.31945,-9.87142l12.3045,-13.78076M479.22449,25l9.70952,14.37878l11.333,20.8664l3.25499,11.18271l1.94717,9.86886l16.22101,11.68232l12.30983,13.49063M534,152.44886l-1.05775,2.99378l1.05775,5.86832M534,294.10826l-14.96988,8.07231l-15.60716,9.47982l1.43613,12.28681l-4.14624,15.89241l-11.73207,15.78147l-9.48448,15.77202l-0.35744,0.6069M77.17538,372l-4.52946,-3.58727l-10.07851,-11.42132l-5.21153,-15.43667l-8.92389,-11.83929l-17.5926,-7.43539l-5.83939,-10.47794M25,310.17033l4.84357,-8.75688l-2.2429,-16.40091l-2.60067,-8.08963M25,115.04107l3.24284,-8.48244l-1.30574,-13.70622l-1.93711,-7.01563M25,74.97765l10.78303,-10.98942l13.90874,-14.46003l5.91662,-10.41515l9.19109,-11.72818l1.71269,-2.38486M493.75444,25l12.79769,14.77519l7.25472,15.40756l-0.99531,10.32289l8.52595,14.08331l12.66252,12.95702M534,304.67458l-8.65817,7.46578l-10.30925,10.56328l1.5767,11.14302l-6.39274,14.81759l-12.63379,16.22319l-3.48254,7.11257M61.84907,372l-6.22827,-6.42305l-4.7663,-13.04239l-8.07103,-11.59287l-13.81729,-8.83277l-3.96618,-6.03729M25,61.24077l0.76689,-2.23824l13.13632,-17.60297l8.92959,-16.03986l0.4993,-0.3597M512.62516,25l8.33907,15.54286l6.7173,8.99238l2.58009,14.40841l3.73839,3.91486M534,333.40707l-1.32474,1.89691l-2.15243,8.01265l-8.32575,12.37953l-8.71426,13.21222l-2.98506,3.09162M46.03278,372l-7.43543,-16.74202l-7.82147,-10.20622l-5.77587,-7.05544M25,45.09428l1.38578,-2.72349l6.78732,-15.21272l1.68427,-2.15807M523.29438,25l7.92388,6.44491l2.78175,4.21381M534,358.87744l-10.91759,8.54202l-3.87355,4.58054M27.58863,372l-2.45975,-5.52404l-0.12888,-0.2976" fill="none" stroke="rgb(0,0,0)" stroke-width="2" data-clipped="true"/></g></g></svg>