<?xml version="1.0" encoding="UTF-8" standalone="no"?>
<!-- Created with Inkscape (http://www.inkscape.org/) -->

<svg
   xmlns:dc="http://purl.org/dc/elements/1.1/"
   xmlns:cc="http://creativecommons.org/ns#"
   xmlns:rdf="http://www.w3.org/1999/02/22-rdf-syntax-ns#"
   xmlns:svg="http://www.w3.org/2000/svg"
   xmlns="http://www.w3.org/2000/svg"
   xmlns:sodipodi="http://sodipodi.sourceforge.net/DTD/sodipodi-0.dtd"
   xmlns:inkscape="http://www.inkscape.org/namespaces/inkscape"
   width="262.21875"
   height="192.25"
   id="svg3629"
   version="1.1"
   inkscape:version="0.48.0 r9654"
   sodipodi:docname="math-drawing.svg">
  <defs
     id="defs3631" />
  <sodipodi:namedview
     id="base"
     pagecolor="#ffffff"
     bordercolor="#666666"
     borderopacity="1.0"
     inkscape:pageopacity="0.0"
     inkscape:pageshadow="2"
     inkscape:zoom="0.98994949"
     inkscape:cx="263.65372"
     inkscape:cy="-105.778"
     inkscape:document-units="px"
     inkscape:current-layer="layer1"
     showgrid="false"
     inkscape:window-width="1280"
     inkscape:window-height="980"
     inkscape:window-x="0"
     inkscape:window-y="0"
     inkscape:window-maximized="0"
     fit-margin-top="0"
     fit-margin-left="0"
     fit-margin-right="0"
     fit-margin-bottom="0"
     units="mm" />
  <metadata
     id="metadata3634">
    <rdf:RDF>
      <cc:Work
         rdf:about="">
        <dc:format>image/svg+xml</dc:format>
        <dc:type
           rdf:resource="http://purl.org/dc/dcmitype/StillImage" />
        <dc:title></dc:title>
      </cc:Work>
    </rdf:RDF>
  </metadata>
  <g
     inkscape:label="Layer 1"
     inkscape:groupmode="layer"
     id="layer1"
     transform="translate(-2.375,65.625)">
    <path
       style="fill:none;stroke:#000000"
       inkscape:connector-curvature="0"
       d=""
       id="path4535" />
    <path
       style="fill:none;stroke:#000000;stroke-width:1.59016919"
       inkscape:connector-curvature="0"
       d="m 197.89021,74.465586 15.90171,22.262392 -17.49186,28.623042 m 0,-50.885434 15.90172,22.262392 m -17.49183,-22.262392 17.49183,23.852562 m -17.49183,-23.852562 36.57402,0 3.18023,11.131222 -4.77044,-11.131222 m -31.80355,49.295264 33.39376,0 m -34.98391,1.59017 34.98391,0 3.18023,-11.13112 -4.77044,11.13112"
       id="path4589" />
    <path
       style="fill:none;stroke:#000000;stroke-width:1.59016919"
       inkscape:connector-curvature="0"
       d="m 204.12163,-19.733921 0,22.2623921 m 0,-17.4918771 -3.1802,-3.18034 -3.18039,-1.590175 -4.77062,0 -3.18031,1.590175 -3.18022,3.18034 -1.59023,4.770516 0,3.1803409 1.59023,4.7705101 3.18022,3.18034241 3.18031,1.59016769 4.77062,0 3.18039,-1.59016769 3.1802,-3.18034241"
       id="path4601" />
    <path
       style="fill:none;stroke:#000000;stroke-width:1.59016919"
       inkscape:connector-curvature="0"
       d="m 70.797465,-30.865114 0,33.3935851 m 0,-15.9017061 4.770522,-4.770511 3.180333,-1.590175 4.770512,0 3.180349,1.590175 1.590163,4.770511 0,15.9017061"
       id="path4615" />
    <path
       style="fill:none;stroke:#000000;stroke-width:1.59016919"
       inkscape:connector-curvature="0"
       d="m 91.187127,19.447272 0,22.262398 m 0,-15.901709 4.770507,-4.77052 3.180355,-1.590169 4.770501,0 3.18035,1.590169 1.59016,4.77052 0,15.901709 m 0,-15.901709 4.77049,-4.77052 3.1803,-1.590169 4.77062,0 3.18035,1.590169 1.59006,4.77052 0,15.901709"
       id="path4625" />
    <path
       style="fill:none;stroke:#000000;stroke-width:1.59016919"
       inkscape:connector-curvature="0"
       d="m 109.10678,-19.733921 -3.18033,1.590175 -3.18035,3.18034 -1.59017,4.770516 0,3.1803409 1.59017,4.7705101 3.18035,3.18034241 3.18033,1.59016769 4.77047,0 3.18046,-1.59016769 3.18028,-3.18034241 1.59021,-4.7705101 0,-3.1803409 -1.59021,-4.770516 -3.18028,-3.18034 -3.18046,-1.590175 -4.77047,0"
       id="path4629" />
    <path
       style="fill:none;stroke:#000000;stroke-width:1.59016919"
       inkscape:connector-curvature="0"
       d="m 166.37744,-19.733921 0,22.2623921 m 0,-12.7213611 1.59016,-4.770516 3.18027,-3.18034 3.18035,-1.590175 4.77067,0"
       id="path4635" />
    <path
       style="fill:none;stroke:#000000;stroke-width:1.59016919"
       inkscape:connector-curvature="0"
       d="m 168.79909,8.3160729 0,27.0329101 1.59021,4.770509 3.18019,1.590178 3.18031,0 m -12.72142,-22.262398 11.13135,0"
       id="path4639" />
    <path
       style="fill:none;stroke:#000000;stroke-width:1.59016919"
       inkscape:connector-curvature="0"
       d="m 217.65034,-19.733921 9.54096,22.2623921 m 9.541,-22.2623921 -9.541,22.2623921 -3.18037,6.3606849 -3.18034,3.180343 -3.18025,1.590169 -1.59019,0"
       id="path4649" />
    <path
       style="fill:none;stroke:#000000;stroke-width:2.95554304"
       inkscape:connector-curvature="0"
       d="m 133.81048,111.1096 -2.9556,5.91089 -5.91105,2.95569 -5.911,0 -5.91115,-2.95569 -2.95556,-2.95546 -8.86658,-11.82216 -2.955541,-2.955536 -5.91109,-2.955514 -5.911085,0 -5.911076,2.955514 -2.95554,5.911156 0,5.91111 2.95554,5.91089 5.911076,2.95569 5.911085,0 5.91109,-2.95569 2.955541,-2.95546 8.86658,-11.82216 2.95556,-2.955536 5.91115,-2.955514 5.911,0 5.91105,2.955514 2.9556,5.911156 0,5.91111"
       id="path4661" />
    <path
       style="fill:none;stroke:#000000;stroke-width:1.9694649"
       inkscape:connector-curvature="0"
       d="m 39.946638,-57.312329 -1.590168,0 -1.590171,2.43923 0,2.439229 1.590171,2.439231 1.590168,0 1.59018,-2.439231 0,-4.878459 -1.59018,-4.878469 -3.180339,-2.43922 -3.180338,0 -3.180343,2.43922 -3.180335,4.878469 -1.590178,4.878459 -1.590175,7.317696 -1.590164,17.074597 -1.590178,39.027666 0,78.055346 -1.59016,21.953105 -1.590179,7.31769 m 20.672221,-173.185329 0,2.439229 1.590168,0 0,-2.439229 -1.590168,0 m -15.901704,26.831522 0,117.083012 m 4.770517,-146.353764 -1.590178,7.31769 -1.590175,21.953062 0,78.055339 -1.590164,39.027673 -1.590178,17.074645 -1.59016,7.31772 -1.590179,4.87843 -3.180322,4.87837 -3.180365,2.43933 -3.1803338,0 -3.1803428,-2.43933 -1.5901711,-4.87837 0,-4.87843 1.5901711,-2.43926 1.5901721,0 1.5901707,2.43926 0,2.43907 -1.5901707,2.43936 -1.5901721,0 m 0,-4.87843 0,2.43907 1.5901721,0 0,-2.43907 -1.5901721,0"
       id="path4697" />
    <path
       style="fill:none;stroke:#000000;stroke-width:1.59016919"
       inkscape:connector-curvature="0"
       d="m 65.082639,-56.566158 -4.770514,9.541028 -4.770515,11.131202 -3.180342,7.95085 -1.590164,6.360682 -1.590173,7.950851 -1.590169,12.72136379 0,12.72136921 1.590169,12.721372 1.590173,7.950851 1.590164,6.360683 3.180342,7.950863 4.770515,11.131195 4.770514,9.541014 m -4.770514,-114.492296 -3.180345,7.950852 -3.180339,9.541029 -1.590173,6.360686 -1.590164,9.541018 -1.590173,12.72136379 0,12.72136921 1.590173,12.721372 1.590164,9.541021 1.590173,6.360687 3.180339,9.541019 3.180345,7.950865"
       id="path4699" />
    <path
       style="fill:none;stroke:#000000;stroke-width:1.59016919"
       inkscape:connector-curvature="0"
       d="m 246.30573,-56.566158 4.77052,9.541028 4.77039,11.131202 3.18038,7.95085 1.59013,6.360682 1.59019,7.950851 1.59028,12.72136379 0,12.72136921 -1.59028,12.721372 -1.59019,7.950851 -1.59013,6.360683 -3.18038,7.950863 -4.77039,11.131195 -4.77052,9.541014 m 4.77052,-114.492296 3.18026,7.950852 3.1803,9.541029 1.59021,6.360686 1.59013,9.541018 1.59019,12.72136379 0,12.72136921 -1.59019,12.721372 -1.59013,9.541021 -1.59021,6.360687 -3.1803,9.541019 -3.18026,7.950865"
       id="path4701" />
    <path
       id="path4925"
       d="m 140.91014,-19.733921 -3.18032,1.590175 -3.18033,3.18034 -1.59011,4.770516 0,3.1803409 1.59011,4.7705101 3.18033,3.18034241 3.18032,1.59016769 4.77068,0 3.18019,-1.59016769 3.18034,-3.18034241 1.59017,-4.7705101 0,-3.1803409 -1.59017,-4.770516 -3.18034,-3.18034 -3.18019,-1.590175 -4.77068,0"
       inkscape:connector-curvature="0"
       style="fill:none;stroke:#000000;stroke-width:1.59016919" />
    <path
       id="path4927"
       d="m 156.41653,19.447273 0,22.262397 m 0,-17.491886 -3.18015,-3.180342 -3.18054,-1.590169 -4.77049,0 -3.1803,1.590169 -3.18023,3.180342 -1.59031,4.770517 0,3.180338 1.59031,4.770517 3.18023,3.180336 3.1803,1.590178 4.77049,0 3.18054,-1.590178 3.18015,-3.180336"
       inkscape:connector-curvature="0"
       style="fill:none;stroke:#000000;stroke-width:1.59016919" />
    <path
       id="path4929"
       d="m 188.47005,8.316075 0,33.393595 m 0,-15.901707 4.77069,-4.77052 3.18019,-1.590168 4.7705,0 3.18032,1.590168 1.59027,4.77052 0,15.901707"
       inkscape:connector-curvature="0"
       style="fill:none;stroke:#000000;stroke-width:1.59016919" />
  </g>
</svg>
