<?xml version="1.0" encoding="UTF-8" standalone="no"?>
<svg
   id="svg"
   version="1.1"
   width="400"
   height="727.2727272727273"
   viewBox="0, 0, 400,727.2727272727273"
   sodipodi:docname="image2vector.svg"
   xmlns:inkscape="http://www.inkscape.org/namespaces/inkscape"
   xmlns:sodipodi="http://sodipodi.sourceforge.net/DTD/sodipodi-0.dtd"
   xmlns="http://www.w3.org/2000/svg"
   xmlns:svg="http://www.w3.org/2000/svg">
  <defs
     id="defs1" />
  <sodipodi:namedview
     id="namedview1"
     pagecolor="#ffffff"
     bordercolor="#000000"
     borderopacity="0.25"
     inkscape:showpageshadow="2"
     inkscape:pageopacity="0.0"
     inkscape:pagecheckerboard="0"
     inkscape:deskcolor="#d1d1d1" />
  <g
     id="svgg">
    <path
       d="m 258,694.557 c 0,0.638 -1.082,1.163 -1.66,0.806 -0.216,-0.134 -0.067,-0.483 0.336,-0.789 0.933,-0.707 1.324,-0.712 1.324,-0.017"
       id="path276" />
    <path
       d="m 171.923,684.774 c -0.517,0.829 -1.41,1.201 -2.225,0.927 -0.667,-0.225 1.05,-1.67 2.005,-1.688 0.596,-0.011 0.63,0.105 0.22,0.761"
       id="path274" />
    <path
       d="m 203.836,627.886 c -0.142,0.449 -0.338,2.863 -0.436,5.365 -0.097,2.502 -0.265,5.629 -0.374,6.949 -0.667,8.128 -0.667,8.609 -0.009,8.862 1.148,0.441 1.306,-0.373 1.598,-8.262 0.406,-10.968 0.118,-15.741 -0.779,-12.914"
       id="path273" />
    <path
       d="m 192.27,621.7 c -0.579,0.425 -0.714,1.496 -0.892,7.1 -0.116,3.63 -0.377,8.86 -0.582,11.623 -0.431,5.842 -0.227,7.823 0.837,8.101 1.008,0.264 1.175,-0.439 1.425,-6.012 0.117,-2.592 0.376,-8.042 0.576,-12.112 0.449,-9.113 0.32,-9.933 -1.364,-8.7"
       id="path272" />
    <path
       d="m 196.456,618.133 c -0.881,1.061 -1.144,29.922 -0.281,30.785 1.3,1.3 1.425,0.315 1.428,-11.242 0.002,-6.312 0.188,-13.085 0.413,-15.052 0.444,-3.878 -0.297,-6.013 -1.56,-4.491"
       id="path271" />
    <path
       d="m 200.257,615.659 c -0.141,1.352 -0.257,4.747 -0.257,7.545 0,2.798 -0.19,6.056 -0.423,7.241 -0.607,3.096 -0.495,19.633 0.137,20.033 1.177,0.748 1.291,-0.209 1.535,-12.911 0.136,-7.132 0.388,-15.256 0.56,-18.054 0.239,-3.905 0.193,-5.229 -0.198,-5.7 -0.854,-1.029 -1.087,-0.713 -1.354,1.846"
       id="path270" />
    <path
       d="m 193.7,609.688 c -0.767,0.37 -1.32,1.912 -0.686,1.912 0.577,0 2.186,-1.359 2.186,-1.846 0,-0.647 -0.271,-0.659 -1.5,-0.066"
       id="path269" />
    <path
       d="m 175.462,609.531 c -0.696,0.77 -0.9,2.069 -0.324,2.069 0.442,0 1.473,-1.211 1.789,-2.1 0.331,-0.936 -0.608,-0.915 -1.465,0.031"
       id="path268" />
    <path
       d="m 168.246,608.986 c -0.942,1.437 -0.794,1.929 0.354,1.177 0.55,-0.36 1,-0.994 1,-1.409 0,-1.043 -0.584,-0.943 -1.354,0.232"
       id="path267" />
    <path
       d="m 207.6,609.486 c 0,1.73 0.053,1.833 0.641,1.244 0.46,-0.459 0.564,-0.995 0.369,-1.886 -0.412,-1.874 -1.01,-1.494 -1.01,0.642"
       id="path266" />
    <path
       d="m 159.45,608.414 c -0.578,0.686 -1.05,1.484 -1.05,1.774 0,1.029 1.106,0.936 1.918,-0.162 1.734,-2.346 0.959,-3.784 -0.868,-1.612"
       id="path265" />
    <path
       d="m 158,606.733 c 0,0.257 -0.254,0.467 -0.564,0.467 -1.335,0 -3.249,3.322 -2.136,3.706 0.971,0.335 3.621,-3.718 2.902,-4.438 -0.111,-0.111 -0.202,0.009 -0.202,0.265"
       id="path264" />
    <path
       d="m 129.406,608.258 c -0.993,1.022 -1.806,2.012 -1.806,2.2 0,0.697 1.337,0.31 2.22,-0.642 3.179,-3.43 2.798,-4.863 -0.414,-1.558"
       id="path263" />
    <path
       d="m 134.386,606.778 c -1.914,2.027 -2.863,3.618 -2.29,3.837 0.739,0.284 3.504,-2.424 3.504,-3.431 0,-1.018 -0.484,-1.18 -1.214,-0.406"
       id="path262" />
    <path
       d="m 211.843,605.833 c -0.134,0.348 -0.242,1.293 -0.241,2.1 l 0.003,1.467 0.597,-1.146 c 0.66,-1.263 0.8,-3.054 0.241,-3.054 -0.197,0 -0.467,0.285 -0.6,0.633"
       id="path261" />
    <path
       d="m 192.503,606.727 c -1.934,2.134 -3.065,3.673 -2.699,3.673 0.963,0 6.196,-4.465 6.196,-5.286 0,-0.968 -1.991,-0.049 -3.497,1.613"
       id="path260" />
    <path
       d="m 153.06,606.823 c -1.421,1.904 -1.757,3.164 -0.868,3.262 0.381,0.043 3.747,-4.387 3.788,-4.985 0.067,-1.001 -1.636,0.004 -2.92,1.723"
       id="path259" />
    <path
       d="m 126.858,606.973 c -2.062,2.088 -2.454,3.299 -0.876,2.709 0.814,-0.304 3.618,-3.759 3.618,-4.458 0,-0.801 -0.604,-0.415 -2.742,1.749"
       id="path258" />
    <path
       d="m 174.97,605.692 c -1.439,1.604 -2.694,3.517 -2.461,3.751 0.225,0.224 3.091,-2.397 3.091,-2.827 0,-0.18 0.315,-0.561 0.7,-0.845 0.499,-0.369 0.577,-0.642 0.272,-0.952 -0.307,-0.312 -0.76,-0.065 -1.602,0.873"
       id="path257" />
    <path
       d="m 167.16,605.215 c -2.29,2.257 -3.008,3.497 -2.385,4.12 0.511,0.511 1.878,-0.959 3.103,-3.335 0.397,-0.77 0.879,-1.514 1.071,-1.654 0.192,-0.139 0.282,-0.409 0.2,-0.6 -0.082,-0.19 -0.977,0.471 -1.989,1.469"
       id="path256" />
    <path
       d="m 151.466,603.997 c -0.586,0.658 -1.066,1.369 -1.066,1.58 0,0.211 -0.225,0.527 -0.5,0.703 -0.889,0.569 -1.972,3.008 -1.532,3.448 0.398,0.398 3.232,-2.258 3.232,-3.027 0,-0.189 0.45,-1.006 1,-1.815 1.628,-2.396 0.792,-3.051 -1.134,-0.889"
       id="path255" />
    <path
       d="m 189,602.614 c -0.44,0.538 -0.994,0.98 -1.23,0.982 -0.753,0.007 -2.279,1.89 -1.781,2.197 0.252,0.156 1.045,-0.354 1.803,-1.157 0.745,-0.79 1.525,-1.436 1.734,-1.436 0.21,0 0.475,-0.36 0.59,-0.8 0.278,-1.062 -0.136,-0.983 -1.116,0.214"
       id="path254" />
    <path
       d="m 173.469,602.454 c -0.993,1.304 -1.44,2.243 -1.274,2.677 0.338,0.879 3.805,-2.682 3.805,-3.908 0,-1.345 -0.902,-0.906 -2.531,1.231"
       id="path253" />
    <path
       d="m 127.315,602 c -1.858,1.839 -2.896,3.6 -2.121,3.6 0.59,0 5.6,-4.886 5.378,-5.245 -0.449,-0.727 -1.29,-0.302 -3.257,1.645"
       id="path252" />
    <path
       d="m 212.154,600.176 c -0.377,0.983 0.211,2.925 0.667,2.203 0.491,-0.775 0.477,-2.271 -0.024,-2.581 -0.221,-0.137 -0.511,0.033 -0.643,0.378"
       id="path251" />
    <path
       d="m 185.663,601.067 c -1.275,1.335 -1.619,1.937 -1.292,2.264 0.419,0.419 2.157,-1.078 3.984,-3.431 1.224,-1.578 -0.986,-0.62 -2.692,1.167"
       id="path250" />
    <path
       d="m 171.16,600.042 c -1.355,1.452 -1.456,1.958 -0.389,1.958 0.826,0 2.429,-1.752 2.429,-2.654 0,-0.899 -0.807,-0.623 -2.04,0.696"
       id="path249" />
    <path
       d="m 138.659,598.991 c -0.118,0.307 -0.035,0.617 0.185,0.69 1.299,0.433 1.096,4.037 -0.307,5.439 -0.295,0.296 -0.54,0.749 -0.543,1.009 -0.004,0.259 -0.544,1.08 -1.2,1.825 -1.238,1.404 -1.579,2.846 -0.674,2.846 0.285,0 0.96,-0.715 1.5,-1.589 0.539,-0.874 1.115,-1.594 1.28,-1.6 0.165,-0.006 0.3,-0.246 0.3,-0.532 0,-0.287 0.566,-1.291 1.257,-2.231 1.834,-2.494 1.795,-4.251 -0.121,-5.477 -1.161,-0.743 -1.508,-0.822 -1.677,-0.38"
       id="path248" />
    <path
       d="m 197.445,598.55 c -0.416,0.248 -1.226,0.88 -1.8,1.405 -0.575,0.526 -1.863,1.609 -2.864,2.407 -1,0.799 -2.89,2.607 -4.2,4.018 -1.309,1.411 -2.696,2.893 -3.081,3.293 -2.337,2.428 1.337,0.299 4.194,-2.431 1.818,-1.737 4.206,-3.87 5.306,-4.742 2.58,-2.043 3.503,-3.1 3.335,-3.82 -0.106,-0.456 -0.295,-0.484 -0.89,-0.13"
       id="path247" />
    <path
       d="m 126.267,599.067 c -0.807,0.806 -1.467,1.706 -1.467,2 0,0.293 -0.18,0.533 -0.4,0.533 -0.22,0 -0.4,0.18 -0.4,0.4 0,0.22 0.191,0.4 0.424,0.4 0.515,0 4.776,-3.977 4.776,-4.458 0,-0.829 -1.589,-0.219 -2.933,1.125"
       id="path246" />
    <path
       d="m 195.053,596.7 c -0.528,0.825 -0.866,1.59 -0.751,1.7 0.114,0.11 0.288,-0.025 0.386,-0.3 0.098,-0.275 0.434,-0.5 0.745,-0.5 0.649,0 2.167,-1.401 2.167,-2 0,-1.006 -1.659,-0.29 -2.547,1.1"
       id="path245" />
    <path
       d="m 157.389,594.821 c -0.56,1.083 -0.558,1.216 0.024,1.439 0.736,0.283 1.188,-0.099 1.554,-1.313 0.43,-1.426 -0.853,-1.529 -1.578,-0.126"
       id="path244" />
    <path
       d="m 173.056,593.102 c -0.947,0.971 -2.55,2.89 -3.506,4.198 l -0.804,1.1 h 0.821 c 0.515,0 1.216,-0.596 1.88,-1.6 0.583,-0.88 1.194,-1.6 1.358,-1.6 0.367,0 1.374,-2.354 1.117,-2.611 -0.102,-0.102 -0.492,0.129 -0.866,0.513"
       id="path243" />
    <path
       d="m 190.216,593.096 c -1.544,1.666 -1.245,2.366 0.426,0.995 0.932,-0.765 1.542,-2.091 0.962,-2.091 -0.205,0 -0.829,0.493 -1.388,1.096"
       id="path242" />
    <path
       d="m 194.442,592.693 c -1.563,1.701 -2.842,3.231 -2.842,3.4 0,0.169 -0.23,0.307 -0.511,0.307 -0.471,0 -1.889,1.355 -1.889,1.805 0,0.602 1.213,0.032 2.137,-1.005 0.588,-0.66 1.262,-1.2 1.498,-1.2 0.622,0 5.047,-4.707 5.287,-5.624 0.403,-1.542 -0.871,-0.74 -3.68,2.317"
       id="path241" />
    <path
       d="m 130.938,590.217 c -0.13,0.34 -0.137,0.718 -0.014,0.84 0.35,0.351 1.076,-0.244 1.076,-0.881 0,-0.767 -0.763,-0.738 -1.062,0.041"
       id="path240" />
    <path
       d="m 175.614,589.974 c -0.615,1.149 -0.507,1.298 0.386,0.533 0.858,-0.735 1.04,-1.307 0.414,-1.307 -0.212,0 -0.572,0.348 -0.8,0.774"
       id="path239" />
    <path
       d="m 168.1,589.893 c -0.885,0.594 -1.24,1.707 -0.546,1.707 0.375,0 1.803,-1.984 1.578,-2.191 -0.073,-0.067 -0.537,0.151 -1.032,0.484"
       id="path238" />
    <path
       d="m 170.955,590.7 c -0.848,1.045 -1.679,1.96 -1.848,2.033 -0.169,0.074 -0.307,0.475 -0.307,0.892 0,1.177 1.54,0.264 3.1,-1.839 2.347,-3.164 1.516,-4.12 -0.945,-1.086"
       id="path237" />
    <path
       d="m 156.7,590.199 c -0.825,0.955 -1.5,1.858 -1.5,2.007 0,0.149 -1.08,1.885 -2.4,3.858 -1.32,1.974 -2.4,3.666 -2.4,3.761 0,0.205 -3.322,4.903 -4.094,5.79 -1.24,1.424 -2.245,3.437 -1.952,3.91 0.472,0.764 1.507,0.166 2.527,-1.461 0.505,-0.805 1.278,-2.035 1.719,-2.733 0.44,-0.698 2.061,-3.128 3.601,-5.4 1.541,-2.272 3.157,-4.806 3.591,-5.631 0.435,-0.825 0.911,-1.5 1.06,-1.5 0.148,0 0.465,-0.495 0.703,-1.1 0.238,-0.605 0.657,-1.41 0.93,-1.789 1.181,-1.638 -0.333,-1.394 -1.785,0.288"
       id="path236" />
    <path
       d="m 127.831,588.367 c -1.043,1.09 -1.123,2.033 -0.172,2.033 0.609,0 1.912,-1.691 1.928,-2.5 0.019,-1 -0.476,-0.869 -1.756,0.467"
       id="path235" />
    <path
       d="m 143.465,585.933 c -0.806,0.826 -1.465,1.696 -1.465,1.935 0,0.239 -0.27,0.658 -0.6,0.932 -0.678,0.563 -0.807,1.6 -0.2,1.6 0.45,0 1.326,-0.879 2.8,-2.808 2.171,-2.841 1.786,-4.035 -0.535,-1.659"
       id="path234" />
    <path
       d="m 140.089,584.623 c -0.489,0.342 -0.889,0.882 -0.889,1.2 0,0.317 -0.167,0.577 -0.371,0.577 -0.204,0 -0.64,0.54 -0.969,1.2 -0.583,1.168 -0.573,1.2 0.371,1.2 0.533,0 0.969,-0.154 0.969,-0.342 0,-0.189 0.622,-1.157 1.382,-2.152 1.67,-2.188 1.424,-3.026 -0.493,-1.683"
       id="path233" />
    <path
       d="m 176.56,583.906 c -0.631,0.421 -1.469,2.119 -1.186,2.401 0.356,0.356 2.406,-1.289 2.555,-2.049 0.134,-0.68 -0.597,-0.867 -1.369,-0.352"
       id="path232" />
    <path
       d="m 148.236,584.599 c -0.509,0.549 -1.445,1.764 -2.081,2.7 -0.635,0.935 -1.47,2.05 -1.855,2.476 -0.902,0.999 -0.919,1.884 -0.031,1.543 0.912,-0.35 1.658,-1.145 3.493,-3.723 0.859,-1.207 1.714,-2.255 1.9,-2.328 0.488,-0.193 0.417,-1.667 -0.081,-1.667 -0.231,0 -0.836,0.449 -1.345,0.999"
       id="path231" />
    <path
       d="m 156.02,585.18 c -1.111,1.14 -2.02,2.249 -2.02,2.464 0,0.215 -0.72,1.343 -1.599,2.508 -1.752,2.321 -3.312,4.584 -7.089,10.29 -1.369,2.067 -2.764,4.11 -3.1,4.539 -0.337,0.43 -0.612,0.937 -0.612,1.127 0,0.19 -0.449,0.934 -0.998,1.654 -0.549,0.72 -0.879,1.428 -0.733,1.573 0.741,0.742 1.672,0.008 3.098,-2.443 0.862,-1.48 2.484,-3.952 3.604,-5.492 1.99,-2.736 4.029,-5.674 4.828,-6.959 0.219,-0.352 0.776,-1.181 1.236,-1.841 3.606,-5.168 4.534,-6.566 5.136,-7.737 1.062,-2.065 0.463,-1.956 -1.751,0.317"
       id="path230" />
    <path
       d="m 173.1,583.388 c -1.054,1.449 -0.961,2.643 0.116,1.487 0.448,-0.481 0.967,-0.875 1.153,-0.875 0.186,0 0.432,-0.36 0.547,-0.8 0.3,-1.148 -0.937,-1.02 -1.816,0.188"
       id="path229" />
    <path
       d="m 169.954,582.886 c -0.261,0.487 -0.986,1.432 -1.612,2.1 -1.178,1.256 -1.517,2.628 -0.642,2.595 0.597,-0.023 3.9,-4.305 3.9,-5.056 0,-0.849 -1.131,-0.601 -1.646,0.361"
       id="path228" />
    <path
       d="m 167.726,581.3 c -0.824,1.281 -1.321,2.438 -1.131,2.629 0.24,0.24 2.605,-2.303 2.605,-2.801 0,-0.514 -1.117,-0.384 -1.474,0.172"
       id="path227" />
    <path
       d="m 154.092,582.146 c -0.885,0.961 -2.113,2.536 -2.728,3.5 -0.615,0.965 -1.311,1.934 -1.547,2.154 -0.7,0.652 -3.017,3.695 -3.017,3.961 0,0.135 -0.544,0.997 -1.208,1.914 -1.19,1.642 -1.141,2.587 0.11,2.107 0.35,-0.134 0.732,-0.493 0.849,-0.798 0.117,-0.305 2.381,-3.444 5.031,-6.976 4.409,-5.877 5.426,-7.608 4.469,-7.608 -0.192,0 -1.074,0.786 -1.959,1.746"
       id="path226" />
    <path
       d="m 122.429,581.3 c -0.421,1.098 0.216,1.992 0.782,1.097 0.504,-0.799 0.49,-1.997 -0.024,-1.997 -0.227,0 -0.568,0.405 -0.758,0.9"
       id="path225" />
    <path
       d="m 183.9,580.835 c -1.627,2.858 -0.025,2.739 1.814,-0.135 0.694,-1.084 0.691,-1.1 -0.205,-1.097 -0.595,0.001 -1.151,0.427 -1.609,1.232"
       id="path224" />
    <path
       d="m 181.6,579.8 c -0.416,0.501 -0.358,0.6 0.351,0.6 0.488,0 0.849,-0.255 0.849,-0.6 0,-0.33 -0.158,-0.6 -0.351,-0.6 -0.193,0 -0.575,0.27 -0.849,0.6"
       id="path223" />
    <path
       d="m 152.484,579.826 c -0.844,0.591 -1.247,2.174 -0.554,2.174 0.182,0 0.756,-0.452 1.275,-1.005 1.166,-1.241 0.627,-2.113 -0.721,-1.169"
       id="path222" />
    <path
       d="m 199.2,578.933 c 0,0.367 -0.27,0.667 -0.6,0.667 -0.33,0 -0.6,0.166 -0.6,0.369 0,0.397 -2.289,3.01 -6.299,7.19 -2.458,2.563 -3.379,4.041 -2.518,4.041 1.754,0 11.238,-11.712 10.269,-12.681 -0.138,-0.139 -0.252,0.048 -0.252,0.414"
       id="path221" />
    <path
       d="m 134.821,580.305 c -2.706,3.068 -3.02,3.695 -1.852,3.695 0.624,0 4.231,-4.023 4.231,-4.72 0,-1.082 -0.839,-0.72 -2.379,1.025"
       id="path220" />
    <path
       d="m 127.269,579.562 c -2.926,3.179 -3.593,4.045 -3.985,5.17 -0.869,2.492 2.147,0.012 4.743,-3.901 1.769,-2.667 1.282,-3.485 -0.758,-1.269"
       id="path219" />
    <path
       d="m 130.865,580.06 c -3.706,3.937 -8.081,9.293 -7.939,9.719 0.347,1.039 1.529,0.176 4.081,-2.979 1.513,-1.87 3.476,-4.17 4.362,-5.112 2.031,-2.156 2.426,-2.853 1.912,-3.367 -0.269,-0.269 -1.067,0.306 -2.416,1.739"
       id="path218" />
    <path
       d="m 205.074,577.417 c -0.123,0.871 -0.224,6.443 -0.225,12.383 -10e-4,5.94 -0.191,12.42 -0.422,14.4 -0.483,4.138 -0.578,17.8 -0.123,17.8 1.371,0 1.525,-1.622 1.923,-20.2 0.137,-6.38 0.34,-14.393 0.451,-17.806 0.188,-5.757 0.146,-6.276 -0.588,-7.183 l -0.792,-0.977 -0.224,1.583"
       id="path217" />
    <path
       d="m 197.351,575.097 c -0.441,0.607 -1.678,2.363 -2.747,3.902 -1.07,1.54 -2.183,3.037 -2.475,3.329 -0.291,0.291 -0.529,0.666 -0.529,0.833 0,0.167 -0.41,0.523 -0.91,0.791 -0.501,0.268 -1.418,1.288 -2.037,2.268 -0.62,0.979 -1.29,1.78 -1.49,1.78 -0.2,0 -0.363,0.27 -0.363,0.6 0,1.54 2.777,-0.871 4.854,-4.215 0.36,-0.58 1.724,-2.127 3.032,-3.438 2.582,-2.59 4.529,-5.892 3.865,-6.556 -0.262,-0.262 -0.669,-0.023 -1.2,0.706"
       id="path216" />
    <path
       d="m 208.745,578.2 c -0.079,7.308 -0.067,11.551 0.041,13.7 l 0.096,1.9 0.346,-1.4 c 0.19,-0.77 0.361,-3.925 0.38,-7.011 0.02,-3.087 0.19,-5.862 0.378,-6.167 0.198,-0.32 0.168,-0.993 -0.071,-1.589 -0.229,-0.568 -0.385,-1.798 -0.347,-2.733 0.039,-0.96 -0.113,-1.7 -0.35,-1.7 -0.266,0 -0.438,1.821 -0.473,5"
       id="path215" />
    <path
       d="m 156.498,570.792 c -0.335,0.536 -0.352,0.851 -0.055,1.035 0.653,0.403 1.296,-0.45 0.888,-1.178 -0.309,-0.553 -0.409,-0.536 -0.833,0.143"
       id="path214" />
    <path
       d="m 208.978,570.035 c -0.147,0.239 -0.068,0.635 0.177,0.88 0.327,0.327 0.445,0.211 0.445,-0.435 0,-0.966 -0.208,-1.115 -0.622,-0.445"
       id="path213" />
    <path
       d="m 197.308,569.312 c -0.445,0.489 -1.279,1.608 -1.854,2.488 -0.575,0.88 -2.028,2.77 -3.23,4.2 -3.26,3.878 -7.661,9.7 -7.959,10.529 -0.817,2.271 1.784,-0.189 4.477,-4.234 0.405,-0.608 2.293,-2.733 4.197,-4.722 1.903,-1.989 3.461,-3.79 3.461,-4.003 0,-0.212 0.418,-1.057 0.929,-1.878 1.697,-2.725 1.684,-4.251 -0.021,-2.38"
       id="path212" />
    <path
       d="m 154.046,568.972 c -0.814,0.798 -1.236,1.521 -1.058,1.809 0.351,0.567 2.212,-0.99 2.212,-1.851 0,-0.291 0.18,-0.53 0.4,-0.53 0.22,0 0.4,-0.18 0.4,-0.4 0,-0.682 -0.547,-0.41 -1.954,0.972"
       id="path211" />
    <path
       d="m 181.289,567.823 c -0.98,0.686 -1.196,1.777 -0.351,1.777 0.64,0 1.862,-1.267 1.862,-1.931 0,-0.635 -0.45,-0.589 -1.511,0.154"
       id="path210" />
    <path
       d="m 194.524,567.944 c -0.701,0.801 -1.871,2.157 -2.6,3.014 -0.728,0.857 -1.819,2.112 -2.424,2.789 -1.256,1.405 -1.369,1.853 -0.469,1.853 0.726,0 3.414,-2.723 4.774,-4.836 0.508,-0.79 1.223,-1.735 1.588,-2.099 0.364,-0.365 0.605,-1.004 0.535,-1.42 -0.108,-0.64 -0.324,-0.533 -1.404,0.699"
       id="path209" />
    <path
       d="m 131.984,566.913 c -1.441,1.139 -2.776,3.335 -2.31,3.801 0.68,0.68 1.853,-0.691 3.431,-4.014 0.217,-0.457 -0.429,-0.334 -1.121,0.213"
       id="path208" />
    <path
       d="m 178.2,566.4 c -0.432,0.7 0.209,1.291 0.836,0.77 0.31,-0.257 0.564,-0.626 0.564,-0.819 0,-0.482 -1.095,-0.444 -1.4,0.049"
       id="path207" />
    <path
       d="m 166.4,565.757 c 0,0.307 -0.27,0.661 -0.6,0.788 -0.33,0.126 -0.579,0.551 -0.554,0.942 0.044,0.668 0.058,0.669 0.23,0.013 0.1,-0.385 0.418,-0.7 0.707,-0.7 0.288,0 0.618,-0.36 0.733,-0.8 0.115,-0.44 0.046,-0.8 -0.153,-0.8 -0.2,0 -0.363,0.251 -0.363,0.557"
       id="path206" />
    <path
       d="m 129.398,565.537 c -0.439,0.365 -1.427,1.473 -2.195,2.463 -0.769,0.99 -1.533,1.86 -1.7,1.933 -0.167,0.074 -0.303,0.475 -0.303,0.892 0,0.663 0.125,0.701 1,0.302 0.55,-0.25 1,-0.626 1,-0.834 0,-0.208 0.54,-1.06 1.2,-1.893 0.66,-0.833 1.2,-1.649 1.2,-1.813 0,-0.165 0.297,-0.516 0.661,-0.782 0.363,-0.266 0.497,-0.584 0.298,-0.707 -0.2,-0.123 -0.722,0.074 -1.161,0.439"
       id="path205" />
    <path
       d="m 167.6,564.424 c 0,0.453 0.18,0.712 0.4,0.576 0.22,-0.136 0.4,-0.507 0.4,-0.824 0,-0.317 -0.18,-0.576 -0.4,-0.576 -0.22,0 -0.4,0.371 -0.4,0.824"
       id="path204" />
    <path
       d="m 127.133,563.95 c -0.367,0.138 -1.072,0.79 -1.567,1.45 -0.495,0.66 -1.429,1.768 -2.074,2.462 -1.49,1.6 -1.105,3.155 0.427,1.728 0.484,-0.452 0.881,-0.954 0.881,-1.116 0,-0.163 0.495,-0.851 1.1,-1.53 2.033,-2.282 2.526,-3.478 1.233,-2.994"
       id="path203" />
    <path
       d="m 155.042,563.676 c -0.891,0.504 -2.93,2.745 -3.981,4.377 -1.301,2.018 0.155,1.337 2.669,-1.249 2.26,-2.324 2.997,-4.081 1.312,-3.128"
       id="path202" />
    <path
       d="m 174.931,564.689 c -1.062,1.259 -2.309,2.654 -2.77,3.1 -1.343,1.298 -1.928,2.611 -1.164,2.611 0.843,0 6.995,-6.417 6.999,-7.3 0.007,-1.299 -1.123,-0.713 -3.065,1.589"
       id="path201" />
    <path
       d="m 168.617,562.772 c -0.273,0.442 0.358,0.92 0.727,0.55 0.381,-0.38 0.31,-0.922 -0.12,-0.922 -0.207,0 -0.48,0.168 -0.607,0.372"
       id="path200" />
    <path
       d="m 138.446,562.4 c -0.964,1.21 -2.043,2.65 -2.397,3.2 -0.767,1.193 -0.927,1.399 -2.461,3.172 -1.393,1.609 -1.475,2.028 -0.397,2.028 0.482,0 1.419,-0.819 2.403,-2.1 0.887,-1.155 1.795,-2.321 2.017,-2.591 1.544,-1.877 2.826,-4.239 2.717,-5.008 -0.112,-0.791 -0.343,-0.631 -1.882,1.299"
       id="path199" />
    <path
       d="m 124.151,562.817 c -2.805,2.899 -3.187,3.507 -2.582,4.112 0.335,0.335 0.68,0.184 1.341,-0.586 4.754,-5.541 5.035,-5.943 4.154,-5.943 -0.316,0 -1.627,1.088 -2.913,2.417"
       id="path198" />
    <path
       d="m 151.16,562.9 c -1.406,1.595 -2.962,3.348 -3.458,3.896 -1.051,1.161 -1.136,1.604 -0.306,1.604 0.328,0 1.304,-0.765 2.168,-1.7 2.555,-2.763 5.236,-6.028 5.236,-6.376 0,-0.968 -1.372,0.003 -3.64,2.576"
       id="path197" />
    <path
       d="m 135.409,560.383 c -0.772,0.284 -0.77,0.303 0.076,0.755 0.62,0.332 0.943,0.34 1.136,0.028 0.403,-0.652 -0.312,-1.115 -1.212,-0.783"
       id="path196" />
    <path
       d="m 122.159,560.73 c -0.463,0.387 -1.054,1.101 -1.314,1.587 -0.707,1.32 0.669,1.186 1.842,-0.179 1.514,-1.762 1.128,-2.792 -0.528,-1.408"
       id="path195" />
    <path
       d="m 195.166,561.7 c -0.909,1.155 -1.814,2.16 -2.01,2.233 -0.196,0.074 -0.356,0.316 -0.356,0.54 0,0.223 -1.088,1.85 -2.418,3.615 -1.33,1.765 -2.335,3.292 -2.234,3.393 0.551,0.551 3.05,-1.821 5.145,-4.883 0.6,-0.879 1.545,-2.121 2.1,-2.76 0.554,-0.639 1.007,-1.41 1.007,-1.713 0,-0.302 0.27,-0.654 0.6,-0.78 0.658,-0.253 0.837,-1.745 0.209,-1.745 -0.215,0 -1.134,0.945 -2.043,2.1"
       id="path194" />
    <path
       d="m 175.4,558.706 c -0.22,0.162 -0.839,0.924 -1.376,1.694 -1.215,1.744 -3.643,4.662 -6.112,7.347 -1.039,1.129 -1.894,2.278 -1.9,2.553 -0.024,1.031 1.119,0.438 2.703,-1.401 0.9,-1.045 2.206,-2.53 2.902,-3.3 0.696,-0.769 1.742,-2.029 2.324,-2.799 0.583,-0.77 1.464,-1.728 1.959,-2.129 1.442,-1.168 0.965,-3.042 -0.5,-1.965"
       id="path193" />
    <path
       d="m 212.4,559.4 c 0,0.99 0.18,1.8 0.4,1.8 0.22,0 0.4,-0.81 0.4,-1.8 0,-0.99 -0.18,-1.8 -0.4,-1.8 -0.22,0 -0.4,0.81 -0.4,1.8"
       id="path192" />
    <path
       d="m 148.894,560.7 c -1.555,1.705 -3.878,4.36 -5.161,5.9 -1.283,1.54 -2.468,2.86 -2.633,2.933 -0.396,0.176 -0.388,1.267 0.009,1.267 1.234,0 11.291,-11.572 11.291,-12.992 0,-0.68 -1.003,0.147 -3.506,2.892"
       id="path191" />
    <path
       d="m 184.581,558.258 c -1.172,1.265 -1.238,1.742 -0.243,1.742 0.892,0 2.062,-1.209 2.062,-2.131 0,-0.971 -0.697,-0.821 -1.819,0.389"
       id="path190" />
    <path
       d="m 172.716,557.428 c -0.284,0.346 -0.831,0.926 -1.216,1.289 -0.651,0.615 -0.985,2.083 -0.473,2.083 0.455,0 2.973,-2.927 2.973,-3.456 0,-0.731 -0.65,-0.688 -1.284,0.084"
       id="path189" />
    <path
       d="m 148.373,556.123 c -1.375,1.231 -5.216,5.593 -7.113,8.077 -0.503,0.66 -1.681,2.01 -2.616,3 -1.965,2.081 -2.479,3.135 -1.679,3.442 0.583,0.224 3.688,-2.854 5.435,-5.386 0.94,-1.362 2.372,-3.017 5.55,-6.413 2.914,-3.114 3.245,-5.246 0.423,-2.72"
       id="path188" />
    <path
       d="m 196.046,554.717 c -1.458,1.64 -5.316,6.805 -7.041,9.428 -0.848,1.289 -2.501,3.35 -3.673,4.58 -2.035,2.135 -2.499,3.001 -1.828,3.416 0.517,0.319 4.559,-3.729 6.096,-6.104 0.33,-0.51 1.423,-2.032 2.429,-3.382 3.183,-4.272 5.663,-8.323 5.311,-8.673 -0.187,-0.186 -0.769,0.144 -1.294,0.735"
       id="path187" />
    <path
       d="m 168.798,552.7 c -0.001,0.165 -0.502,0.84 -1.114,1.5 -2.03,2.191 -4.343,6.393 -3.728,6.773 0.505,0.312 4.444,-4.384 4.444,-5.297 0,-0.208 0.27,-0.602 0.6,-0.876 0.67,-0.556 0.823,-2.4 0.2,-2.4 -0.22,0 -0.401,0.135 -0.402,0.3"
       id="path186" />
    <path
       d="m 128.4,551 c 0,0.33 0.27,0.6 0.6,0.6 0.33,0 0.6,-0.27 0.6,-0.6 0,-0.33 -0.27,-0.6 -0.6,-0.6 -0.33,0 -0.6,0.27 -0.6,0.6"
       id="path185" />
    <path
       d="m 194.272,551.625 c -0.809,0.902 -1.472,1.791 -1.472,1.974 0,0.184 -0.135,0.394 -0.3,0.468 -0.844,0.375 -8.1,9.604 -8.1,10.303 0,0.653 0.717,0.515 1.5,-0.289 1.011,-1.039 3.002,-3.462 3.7,-4.503 0.33,-0.491 1.293,-1.723 2.14,-2.736 3.857,-4.612 4.82,-6.042 4.373,-6.489 -0.224,-0.224 -0.943,0.272 -1.841,1.272"
       id="path184" />
    <path
       d="m 125.706,549.848 c -0.464,0.577 -0.742,1.313 -0.618,1.636 0.25,0.652 2.071,-1.243 2.098,-2.184 0.023,-0.801 -0.572,-0.581 -1.48,0.548"
       id="path183" />
    <path
       d="m 152.6,547.23 c -0.566,0.552 -2.056,1.766 -3.984,3.246 -2.723,2.091 -3.805,3.96 -1.946,3.362 1.005,-0.323 6.93,-6.155 6.93,-6.821 0,-0.337 -0.557,-0.219 -1,0.213"
       id="path182" />
    <path
       d="m 197.471,542.825 c -0.369,0.431 -0.671,0.937 -0.671,1.125 0,0.187 -0.995,1.4 -2.212,2.695 -3.311,3.527 -5.492,6.463 -5.178,6.972 0.387,0.625 5.363,-4.504 7.029,-7.246 0.726,-1.194 1.554,-2.315 1.84,-2.491 0.583,-0.358 0.696,-1.324 0.192,-1.636 -0.18,-0.112 -0.63,0.15 -1,0.581"
       id="path181" />
    <path
       d="m 175.391,543.471 c -0.435,0.808 -1.027,1.707 -1.317,1.997 -0.636,0.637 -0.22,1.473 0.582,1.166 1.03,-0.395 1.013,0.829 -0.033,2.37 -1.636,2.411 -0.894,3.183 1.053,1.096 2.014,-2.159 2.268,-3.66 0.624,-3.694 -0.578,-0.012 -0.291,-1.033 0.7,-2.492 1.225,-1.802 1.23,-1.914 0.091,-1.914 -0.637,0 -1.146,0.44 -1.7,1.471"
       id="path180" />
    <path
       d="m 163.223,542.024 c -0.962,0.934 -1.615,1.911 -1.538,2.3 0.113,0.567 0.314,0.498 1.243,-0.424 0.61,-0.605 1.214,-1.1 1.343,-1.1 0.338,0 1.729,-1.659 1.729,-2.061 0,-0.791 -1.218,-0.227 -2.777,1.285"
       id="path179" />
    <path
       d="m 188.824,542.592 c -4.385,4.398 -5.057,5.39 -3.266,4.821 1.079,-0.342 8.544,-8.525 8.234,-9.025 -0.324,-0.525 0.123,-0.903 -4.968,4.204"
       id="path178" />
    <path
       d="m 173.97,540.5 c -1.182,1.375 -2.251,2.59 -2.375,2.7 -0.552,0.488 -3.995,5.078 -3.995,5.325 0,1.314 2.311,-0.615 5.036,-4.206 1.051,-1.385 2.515,-3.201 3.252,-4.035 1.202,-1.361 1.424,-2.284 0.548,-2.284 -0.174,0 -1.283,1.125 -2.466,2.5"
       id="path177" />
    <path
       d="m 158.393,541.572 c -2.416,2.404 -4.393,4.474 -4.393,4.6 0,1.269 8.799,-5.928 10.007,-8.185 1.198,-2.239 -1.483,-0.527 -5.614,3.585"
       id="path176" />
    <path
       d="m 135.281,537.702 c -0.229,0.276 -0.541,0.996 -0.692,1.6 -0.152,0.604 -0.424,1.098 -0.605,1.098 -0.182,0 -0.444,0.405 -0.582,0.9 -0.139,0.495 -0.451,1.305 -0.694,1.799 -0.244,0.495 -0.327,1.016 -0.185,1.157 0.34,0.34 1.463,-0.611 1.936,-1.64 0.601,-1.307 1.413,-2.648 1.895,-3.13 0.632,-0.632 0.557,-2.286 -0.105,-2.286 -0.303,0 -0.739,0.226 -0.968,0.502"
       id="path175" />
    <path
       d="m 197.8,537.6 c -0.14,0.44 -0.417,0.8 -0.617,0.8 -0.199,0 -0.623,0.495 -0.942,1.1 -0.319,0.605 -2.572,3.154 -5.007,5.664 -4.285,4.415 -5.115,5.584 -4.199,5.906 0.381,0.135 2.307,-1.724 7.946,-7.67 1.831,-1.93 3.294,-4.164 3.646,-5.567 0.307,-1.221 -0.446,-1.434 -0.827,-0.233"
       id="path174" />
    <path
       d="m 171.6,538.287 c -0.55,0.827 -2.305,2.811 -3.9,4.41 -2.859,2.865 -3.241,3.445 -2.549,3.873 0.535,0.331 8.694,-8.08 8.973,-9.249 0.26,-1.094 -1.637,-0.368 -2.524,0.966"
       id="path173" />
    <path
       d="m 125.67,537.726 c -0.479,0.509 -0.87,1.041 -0.87,1.182 0,0.141 -0.45,0.92 -1,1.73 -1.217,1.793 -1.472,4.446 -0.3,3.122 0.864,-0.975 2.256,-2.955 2.643,-3.76 0.158,-0.33 0.54,-1.04 0.848,-1.578 0.979,-1.709 0.077,-2.184 -1.321,-0.696"
       id="path172" />
    <path
       d="m 188.2,538.648 c -2.241,2.448 -3.171,4.152 -2.266,4.152 0.657,0 5.266,-5.328 5.266,-6.087 0,-1.14 -0.453,-0.848 -3,1.935"
       id="path171" />
    <path
       d="m 122.667,536.267 c -0.401,0.401 -0.321,2.053 0.113,2.321 0.501,0.309 1.343,-1.29 1.063,-2.019 -0.233,-0.608 -0.741,-0.738 -1.176,-0.302"
       id="path170" />
    <path
       d="m 157.764,536.91 c -2.309,2.598 -6.164,7.43 -6.164,7.725 0,0.166 -0.298,0.631 -0.662,1.034 -1.043,1.152 0.312,0.96 1.504,-0.213 2.444,-2.406 7.384,-7.979 7.608,-8.583 0.635,-1.708 -0.755,-1.686 -2.286,0.037"
       id="path169" />
    <path
       d="m 142.428,537.43 c -0.503,1.007 -2.154,3.918 -3.67,6.468 -1.515,2.551 -2.681,4.712 -2.591,4.803 0.59,0.589 4.215,-3.76 5.585,-6.701 0.319,-0.686 0.806,-1.49 2.371,-3.915 1.149,-1.782 1.128,-2.485 -0.076,-2.485 -0.438,0 -1.052,0.694 -1.619,1.83"
       id="path168" />
    <path
       d="m 132.292,535.879 c -0.1,0.176 -0.298,0.811 -0.442,1.41 -0.225,0.944 -0.41,1.059 -1.388,0.863 -1.05,-0.21 -1.247,-0.024 -2.871,2.71 -0.959,1.615 -1.89,3.116 -2.068,3.337 -3.372,4.171 -3.923,5.007 -3.923,5.941 0,0.583 0.102,1.06 0.226,1.06 0.642,0 1.774,-0.902 1.774,-1.414 0,-0.322 0.165,-0.586 0.366,-0.586 0.357,0 2.232,-2.793 3.759,-5.6 0.419,-0.77 0.991,-1.67 1.271,-2 0.28,-0.33 0.636,-1.015 0.791,-1.522 0.326,-1.07 1.186,-0.964 1.27,0.157 0.032,0.421 0.077,1.001 0.1,1.289 0.069,0.846 0.843,0.108 0.843,-0.804 0,-0.457 0.292,-1.045 0.648,-1.306 0.758,-0.554 0.984,-3.449 0.289,-3.694 -0.255,-0.089 -0.545,-0.018 -0.645,0.159"
       id="path167" />
    <path
       d="m 153.134,535.7 c -0.34,0.275 -1.747,2.21 -3.125,4.3 -1.378,2.09 -2.894,4.25 -3.37,4.8 -1.088,1.259 -3.439,4.653 -3.439,4.965 0,1.392 1.594,-0.143 5.781,-5.565 1.53,-1.98 2.879,-3.69 3,-3.8 2.97,-2.71 4.028,-7.022 1.153,-4.7"
       id="path166" />
    <path
       d="m 147.506,535.7 c -0.356,0.275 -1.049,1.31 -1.541,2.3 -0.491,0.99 -1.288,2.34 -1.772,3 -0.483,0.66 -1.006,1.605 -1.162,2.1 -0.157,0.495 -0.453,0.9 -0.658,0.9 -0.205,0 -0.373,0.247 -0.373,0.548 0,0.302 -0.9,1.783 -2,3.292 -1.1,1.508 -2,2.871 -2,3.028 0,0.796 0.991,0.728 1.643,-0.113 2.074,-2.674 3.572,-4.823 4.173,-5.986 0.619,-1.197 0.851,-1.532 1.996,-2.883 1.907,-2.249 3.755,-5.643 3.344,-6.139 -0.56,-0.675 -0.827,-0.683 -1.65,-0.047"
       id="path165" />
    <path
       d="m 188.964,527.351 c -0.451,1.174 0.017,4.449 0.636,4.449 0.859,0 1.516,-3.537 0.815,-4.382 -0.635,-0.765 -1.174,-0.79 -1.451,-0.067"
       id="path164" />
    <path
       d="m 210,527.424 c 0,0.58 0.173,0.916 0.4,0.776 0.22,-0.136 0.4,-0.597 0.4,-1.024 0,-0.427 -0.18,-0.776 -0.4,-0.776 -0.22,0 -0.4,0.461 -0.4,1.024"
       id="path163" />
    <path
       d="m 197.867,526.667 c -0.392,0.392 -0.314,5.04 0.096,5.687 0.488,0.771 1.172,-0.57 1.496,-2.932 0.294,-2.147 -0.62,-3.728 -1.592,-2.755"
       id="path162" />
    <path
       d="m 205.71,526.324 c -0.561,0.356 -0.961,31.124 -0.524,40.276 l 0.248,5.2 0.746,-1.6 c 0.662,-1.419 0.742,-2.616 0.715,-10.6 -0.018,-4.95 -0.016,-11.61 0.003,-14.8 0.122,-20.244 0.179,-19.344 -1.188,-18.476"
       id="path161" />
    <path
       d="m 201.478,526.3 c -0.092,0.165 -0.201,16.32 -0.24,35.9 -0.039,19.58 -0.241,37.22 -0.448,39.2 -0.588,5.627 -0.51,8.068 0.267,8.367 0.919,0.352 0.882,0.478 1.339,-4.592 0.227,-2.516 0.576,-5.689 0.775,-7.051 0.425,-2.911 0.164,-21.664 -0.368,-26.401 -0.221,-1.965 -0.224,-4.166 -0.007,-5.496 0.46,-2.829 0.51,-20.159 0.065,-22.91 -0.185,-1.145 -0.2,-2.225 -0.033,-2.4 0.645,-0.677 0.62,-14.115 -0.028,-14.525 -0.73,-0.462 -1.099,-0.488 -1.322,-0.092"
       id="path160" />
    <path
       d="m 191.86,525.117 c -0.472,0.804 -0.709,3.161 -0.475,4.72 l 0.264,1.763 h 1.696 c 2.872,0 4.057,-3.433 1.493,-4.327 -0.64,-0.223 -1.276,-0.764 -1.415,-1.202 -0.264,-0.829 -1.274,-1.446 -1.563,-0.954"
       id="path159" />
    <path
       d="m 201.6,522.809 c 0,0.429 1.562,0.776 1.795,0.399 0.108,-0.174 -0.252,-0.402 -0.8,-0.507 -0.547,-0.104 -0.995,-0.056 -0.995,0.108"
       id="path158" />
    <path
       d="m 197.81,519.983 c -0.165,0.268 -0.103,0.684 0.138,0.925 0.615,0.615 1.004,0.092 0.544,-0.729 -0.28,-0.5 -0.461,-0.552 -0.682,-0.196"
       id="path157" />
    <path
       d="m 204.462,516.028 c -0.484,0.451 -0.773,0.992 -0.643,1.202 0.309,0.501 0.981,0.076 0.981,-0.62 0,-0.299 0.225,-0.624 0.5,-0.722 0.275,-0.098 0.397,-0.291 0.271,-0.429 -0.126,-0.138 -0.625,0.118 -1.109,0.569"
       id="path156" />
    <path
       d="m 211.277,516.176 c -1.478,1.399 -1.773,1.881 -1.39,2.267 0.384,0.387 0.541,0.35 0.743,-0.176 0.14,-0.367 0.425,-0.667 0.632,-0.667 0.327,0 1.16,-0.819 2.748,-2.7 1.128,-1.337 -1.044,-0.322 -2.733,1.276"
       id="path155" />
    <path
       d="m 212.162,511.813 c -0.769,0.816 -1.286,1.596 -1.148,1.735 0.138,0.138 0.482,-0.064 0.763,-0.449 0.281,-0.384 0.626,-0.699 0.767,-0.699 0.572,0 1.808,-1.583 1.422,-1.821 -0.222,-0.137 -1.034,0.418 -1.804,1.234"
       id="path154" />
    <path
       d="m 185.843,510.816 c -1.571,1.379 -2.442,4.209 -1.808,5.875 0.201,0.529 0.365,1.666 0.365,2.527 0,2.414 1.435,2.592 3.919,0.486 4.082,-3.459 4.423,-6.866 0.922,-9.199 -1.721,-1.146 -1.741,-1.144 -3.398,0.311"
       id="path153" />
    <path
       d="m 210.175,509.126 c -0.426,0.399 -1.225,1.309 -1.775,2.022 -0.55,0.713 -1.315,1.674 -1.7,2.135 -0.709,0.851 -0.907,1.517 -0.449,1.517 0.498,0 5.749,-5.368 5.749,-5.878 0,-0.747 -0.919,-0.644 -1.825,0.204"
       id="path152" />
    <path
       d="m 202.774,509.7 c -0.708,0.715 -1.846,1.571 -2.53,1.901 -1.761,0.852 -2.109,5.999 -0.406,5.999 1.473,0 7.708,-7.116 7.099,-8.101 -0.241,-0.39 -0.918,0.273 -2.663,2.609 -0.619,0.829 -1.294,1.403 -1.5,1.276 -0.742,-0.458 -0.35,-1.683 0.826,-2.584 1.122,-0.86 1.655,-2.4 0.831,-2.4 -0.203,0 -0.949,0.585 -1.657,1.3"
       id="path151" />
    <path
       d="m 184.4,500.519 c 0,2.116 5.668,6.479 6.864,5.284 0.075,-0.076 2.176,-0.24 4.667,-0.366 4.849,-0.244 5.349,-0.364 5.027,-1.203 -0.273,-0.711 -2.73,-1.15 -7.158,-1.279 -1.98,-0.058 -3.796,-0.117 -4.036,-0.13 -0.239,-0.014 -0.639,-0.471 -0.888,-1.017 -0.269,-0.59 -0.676,-0.906 -1.005,-0.78 -0.313,0.12 -0.842,-0.23 -1.221,-0.808 -1.002,-1.528 -2.25,-1.363 -2.25,0.299"
       id="path150" />
    <path
       d="m 180.868,495.665 c 0.156,1.103 1.61,1.366 5.123,0.928 l 2.192,-0.273 -1.592,-0.598 c -3.007,-1.13 -5.879,-1.158 -5.723,-0.057"
       id="path149" />
    <path
       d="m 189.759,487.892 c -2.69,1.124 -4.159,2.317 -4.159,3.378 0,0.874 0.713,0.921 1.776,0.117 0.428,-0.323 1.534,-0.587 2.459,-0.587 1.427,0 1.872,-0.216 2.932,-1.424 2.038,-2.32 0.641,-3.009 -3.008,-1.484"
       id="path148" />
    <path
       d="m 196.218,482.771 c -0.388,0.628 1.321,0.914 3.505,0.587 l 2.077,-0.31 -1.8,-0.295 c -2.538,-0.414 -3.518,-0.41 -3.782,0.018"
       id="path147" />
    <path
       d="m 183.336,463.422 c -0.988,2.574 9.001,11.855 11.661,10.835 1.236,-0.475 0.769,-3.044 -0.602,-3.318 -0.86,-0.172 -1.391,-0.632 -1.851,-1.601 -0.355,-0.748 -1.08,-1.701 -1.61,-2.118 -0.702,-0.553 -0.903,-1.012 -0.738,-1.69 0.468,-1.921 -6.151,-3.955 -6.86,-2.108"
       id="path146" />
    <path
       d="m 211.2,460.697 c -2.114,2.024 -2.943,3.303 -2.141,3.303 0.618,0 3.722,-2.901 4.482,-4.189 1.204,-2.042 0.401,-1.738 -2.341,0.886"
       id="path145" />
    <path
       d="m 210.2,457.051 c -3.96,4.192 -4.207,4.55 -3.133,4.547 0.868,-0.003 7.864,-7.462 7.52,-8.019 -0.408,-0.66 -0.709,-0.422 -4.387,3.472"
       id="path144" />
    <path
       d="m 213.191,448.513 c -0.335,0.268 -1.325,1.374 -2.2,2.457 -0.875,1.084 -2.401,2.808 -3.391,3.832 -2.022,2.091 -4.524,5.088 -4.747,5.687 -0.405,1.085 1.878,-0.439 3.935,-2.628 1.272,-1.353 3.5,-3.721 4.95,-5.261 2.826,-3.002 3.911,-6.054 1.453,-4.087"
       id="path143" />
    <path
       d="m 211.967,444.461 c -0.253,0.473 -2.854,3.488 -5.781,6.7 -7.007,7.69 -7.279,8.039 -6.269,8.039 0.431,0 1.909,-1.174 3.329,-2.644 3.204,-3.317 2.847,-2.927 6.361,-6.956 1.631,-1.87 3.08,-3.49 3.22,-3.6 0.515,-0.406 1.137,-1.903 0.892,-2.147 -0.507,-0.508 -1.302,-0.232 -1.752,0.608"
       id="path142" />
    <path
       d="m 212.827,436.9 c -0.222,0.275 -0.822,0.981 -1.334,1.57 -0.976,1.123 -2.673,3.167 -5.21,6.273 -0.835,1.021 -1.825,2.229 -2.2,2.683 -0.376,0.454 -1.223,1.514 -1.883,2.356 -0.66,0.843 -1.866,2.347 -2.681,3.344 -1.426,1.746 -1.604,2.482 -0.595,2.467 0.565,-0.008 1.611,-1.087 3.62,-3.735 1.387,-1.829 2.112,-2.718 6.056,-7.425 3.946,-4.711 5.814,-7.287 5.571,-7.681 -0.309,-0.498 -0.871,-0.436 -1.344,0.148"
       id="path141" />
    <path
       d="m 209.6,434.834 c -0.99,1.115 -1.961,2.314 -2.159,2.665 -0.309,0.551 -1.356,1.823 -2.846,3.457 -0.223,0.244 -0.736,0.96 -1.14,1.591 -0.404,0.631 -1.662,2.173 -2.795,3.427 -4.186,4.632 -4.537,5.226 -3.087,5.226 0.442,0 1.428,-0.815 2.3,-1.9 0.84,-1.045 1.639,-1.99 1.775,-2.1 0.136,-0.11 1.159,-1.393 2.273,-2.85 1.114,-1.458 2.487,-3.149 3.052,-3.759 0.565,-0.609 1.027,-1.262 1.027,-1.449 0,-0.188 0.315,-0.66 0.7,-1.049 2.39,-2.414 4.029,-5.303 3,-5.289 -0.165,0.002 -1.11,0.916 -2.1,2.03"
       id="path140" />
    <path
       d="m 203.37,432.405 c -4.099,4.285 -6.476,7.587 -5.47,7.598 0.711,0.009 6.472,-6.656 6.486,-7.503 0.017,-1.101 -0.048,-1.107 -1.016,-0.095"
       id="path139" />
    <path
       d="m 209.236,429.7 c -1.118,1.375 -2.482,3.04 -3.031,3.7 -4.667,5.61 -9.404,12.096 -9.373,12.835 0.017,0.423 0.121,0.541 0.233,0.265 0.111,-0.275 0.412,-0.503 0.668,-0.507 0.636,-0.009 1.967,-1.466 3.694,-4.041 0.794,-1.184 2.017,-2.782 2.719,-3.552 0.702,-0.77 1.701,-2.002 2.22,-2.738 0.518,-0.736 1.389,-1.816 1.936,-2.4 3.271,-3.498 4.776,-6.062 3.56,-6.062 -0.326,0 -1.508,1.125 -2.626,2.5"
       id="path138" />
    <path
       d="m 207.589,427.276 c -0.006,0.288 -0.546,1.049 -1.2,1.691 -1.179,1.156 -1.559,2.233 -0.789,2.233 0.22,0 0.403,-0.135 0.406,-0.3 0.004,-0.165 0.544,-0.909 1.2,-1.654 0.657,-0.745 1.194,-1.499 1.194,-1.677 0,-0.555 -0.799,-0.844 -0.811,-0.293"
       id="path137" />
    <path
       d="m 210.08,424.08 c -0.56,0.56 -0.64,1.52 -0.126,1.52 0.195,0 0.649,-0.45 1.009,-1 0.711,-1.084 0.063,-1.466 -0.883,-0.52"
       id="path136" />
    <path
       d="m 209.53,419.599 c -0.511,0.659 -1.511,1.874 -2.221,2.7 -0.71,0.825 -1.295,1.681 -1.3,1.902 -0.005,0.22 -0.774,1.244 -1.709,2.276 -0.935,1.031 -2.189,2.471 -2.786,3.199 -0.598,0.728 -1.678,2.044 -2.4,2.924 -1.988,2.42 -2.473,3.4 -1.683,3.4 0.696,0 1.291,-0.639 6.152,-6.6 1.793,-2.2 3.572,-4.36 3.953,-4.8 1.488,-1.72 3.121,-4.051 3.573,-5.1 0.67,-1.556 -0.344,-1.492 -1.579,0.099"
       id="path135" />
    <path
       d="m 210.895,412.103 c -0.237,0.493 -1.706,2.517 -3.264,4.497 -1.559,1.98 -2.971,3.78 -3.139,4 -1.257,1.65 -1.975,2.632 -2.492,3.407 -0.33,0.495 -0.879,1.191 -1.22,1.547 -0.341,0.355 -0.955,1.186 -1.363,1.846 -0.409,0.66 -0.985,1.344 -1.28,1.52 -0.557,0.331 -0.729,1.555 -0.282,2.002 0.141,0.141 1.592,-1.494 3.225,-3.633 1.633,-2.139 3.597,-4.635 4.365,-5.547 2.058,-2.444 6.955,-9.036 6.955,-9.362 0,-0.912 -1.103,-1.114 -1.505,-0.277"
       id="path134" />
    <path
       d="m 209.408,408.613 c -0.969,0.998 -1.875,2.168 -2.012,2.6 -0.138,0.433 -0.393,0.787 -0.567,0.787 -0.175,0 -1.053,1.125 -1.952,2.5 -0.9,1.375 -2.095,3.023 -2.656,3.662 -0.562,0.639 -1.021,1.28 -1.021,1.424 0,0.144 -0.506,0.791 -1.124,1.438 -2.48,2.594 -4.061,5.376 -3.056,5.376 0.56,0 3.191,-3.088 7.158,-8.4 2.383,-3.19 4.577,-6 4.877,-6.244 0.3,-0.244 0.545,-0.578 0.545,-0.743 0,-0.164 0.54,-0.98 1.2,-1.813 2.275,-2.873 1.25,-3.305 -1.392,-0.587"
       id="path133" />
    <path
       d="m 210.967,401.106 c -0.342,0.232 -3.392,3.744 -5.466,6.294 -0.179,0.22 -1.942,2.56 -3.918,5.2 -1.976,2.64 -3.943,5.25 -4.371,5.8 -0.924,1.188 -1.225,3.241 -0.512,3.491 0.275,0.097 0.502,-0.064 0.503,-0.358 0.005,-0.734 8.29,-11.622 12.469,-16.387 2.462,-2.806 3.291,-5.394 1.295,-4.04"
       id="path132" />
    <path
       d="m 209.375,397.117 c -0.454,0.38 -1.639,1.808 -2.632,3.173 -1.964,2.699 -4.933,6.206 -8.262,9.76 -1.361,1.453 -2.147,2.655 -2.2,3.362 -0.106,1.445 0.805,1.739 1.306,0.421 0.216,-0.567 1.432,-2.166 2.703,-3.554 4.629,-5.055 5.404,-5.954 7.403,-8.593 1.119,-1.477 2.366,-3.008 2.771,-3.402 1.53,-1.487 0.549,-2.538 -1.089,-1.167"
       id="path131" />
    <path
       d="m 209.4,391.996 c -0.978,1.424 -5.653,7.429 -6.854,8.804 -0.48,0.55 -1.515,1.72 -2.3,2.6 -0.785,0.88 -1.432,1.806 -1.437,2.057 -0.005,0.252 -0.279,0.561 -0.609,0.688 -0.33,0.126 -0.6,0.491 -0.6,0.809 0,0.319 -0.225,0.67 -0.5,0.781 -0.352,0.142 -0.328,0.211 0.08,0.233 0.6,0.033 4.21,-3.548 7.02,-6.962 0.88,-1.069 2.146,-2.588 2.813,-3.375 0.668,-0.787 1.568,-2.124 2,-2.971 0.433,-0.847 1.126,-1.78 1.54,-2.074 0.443,-0.315 0.653,-0.792 0.512,-1.16 -0.344,-0.897 -0.754,-0.756 -1.665,0.57"
       id="path130" />
    <path
       d="m 209.3,384.771 c -0.912,1.005 -1.056,1.19 -4.21,5.429 -1.473,1.98 -3.433,4.539 -4.355,5.686 -0.922,1.147 -2.049,2.767 -2.505,3.6 -0.457,0.833 -0.965,1.574 -1.13,1.647 -0.623,0.277 -0.301,1.353 0.333,1.11 0.348,-0.134 0.708,-0.243 0.8,-0.243 0.092,0 0.167,-0.245 0.167,-0.544 0,-0.3 0.828,-1.425 1.841,-2.5 4.247,-4.512 10.559,-12.96 10.559,-14.133 0,-1.032 -0.592,-1.053 -1.5,-0.052"
       id="path129" />
    <path
       d="m 209.538,377.904 c -0.364,0.077 -0.778,0.602 -0.92,1.166 -0.142,0.565 -0.474,1.259 -0.738,1.544 -0.264,0.284 -0.93,1.111 -1.48,1.836 -0.55,0.726 -1.811,2.316 -2.802,3.535 -0.991,1.218 -2.321,2.98 -2.954,3.915 -0.634,0.935 -1.279,1.7 -1.434,1.7 -0.397,0 -1.21,1.886 -1.21,2.806 0,1.216 1.022,0.548 2.673,-1.747 0.815,-1.133 1.721,-2.329 2.015,-2.659 0.294,-0.33 1.455,-1.86 2.581,-3.4 1.125,-1.54 2.551,-3.34 3.168,-4 2.102,-2.247 2.758,-5.046 1.101,-4.696"
       id="path128" />
    <path
       d="m 208.472,373.5 c -0.223,0.605 -0.887,1.64 -1.475,2.3 -0.588,0.66 -2.339,2.865 -3.891,4.9 -1.551,2.035 -2.971,3.7 -3.154,3.7 -0.473,0 -1.449,1.602 -1.769,2.905 -0.34,1.381 0.753,1.124 2.017,-0.474 0.44,-0.557 2.6,-3.147 4.8,-5.757 4.71,-5.587 5.395,-6.573 5.398,-7.774 0.003,-1.331 -1.415,-1.184 -1.926,0.2"
       id="path127" />
    <path
       d="m 208.535,366.912 c -0.43,0.489 -1.476,1.923 -2.325,3.188 -0.849,1.265 -1.656,2.3 -1.793,2.3 -0.138,0 -1.225,1.35 -2.417,3 -1.192,1.65 -2.297,3 -2.456,3 -0.472,0 -0.818,1.535 -0.543,2.403 0.249,0.786 0.27,0.784 1.01,-0.1 0.415,-0.497 2.035,-2.433 3.6,-4.303 1.565,-1.87 3.283,-3.94 3.819,-4.6 0.536,-0.66 1.333,-1.633 1.772,-2.161 1.492,-1.797 0.844,-4.443 -0.667,-2.727"
       id="path126" />
    <path
       d="m 199.4,366.944 c -0.34,0.519 -0.507,1.232 -0.372,1.585 0.378,0.984 2.172,-0.317 2.172,-1.575 0,-1.238 -0.991,-1.244 -1.8,-0.01"
       id="path125" />
    <path
       d="m 208.156,361.044 c -0.416,0.575 -0.945,1.25 -1.175,1.5 -0.23,0.251 -0.995,1.298 -1.699,2.326 -0.703,1.029 -1.506,2.109 -1.783,2.4 -0.276,0.292 -1.207,1.565 -2.067,2.83 -0.861,1.265 -1.71,2.3 -1.888,2.3 -0.299,0 -1.544,2.081 -1.544,2.58 0,1.507 3.094,-1.574 7.413,-7.38 1.718,-2.31 3.567,-4.684 4.107,-5.276 1.008,-1.103 0.981,-2.324 -0.051,-2.324 -0.307,0 -0.897,0.47 -1.313,1.044"
       id="path124" />
    <path
       d="m 208.187,355.085 c -0.867,0.965 -5.462,7.325 -6.087,8.424 -1,1.759 -0.501,2.029 1.035,0.56 2.024,-1.936 6.465,-7.859 6.465,-8.622 0,-0.956 -0.715,-1.139 -1.413,-0.362"
       id="path123" />
    <path
       d="m 208.156,349.107 c -0.79,0.521 -9.233,11.876 -9.532,12.818 -0.663,2.089 0.641,2.24 1.671,0.194 0.532,-1.056 1.37,-2.369 1.863,-2.919 0.493,-0.55 1.178,-1.45 1.522,-2 0.344,-0.55 1.82,-2.431 3.28,-4.179 1.459,-1.749 2.594,-3.358 2.522,-3.575 -0.18,-0.539 -0.789,-0.695 -1.326,-0.339"
       id="path122" />
    <path
       d="m 205.817,346.7 c -5.493,6.842 -6.939,8.912 -6.745,9.655 0.208,0.795 1.728,-0.157 1.728,-1.083 0,-0.18 0.558,-0.945 1.241,-1.7 0.682,-0.755 1.897,-2.175 2.7,-3.157 0.802,-0.982 2.224,-2.527 3.159,-3.432 1.929,-1.868 2.132,-2.583 0.732,-2.583 -0.698,0 -1.484,0.642 -2.815,2.3"
       id="path121" />
    <path
       d="m 207.178,339.313 c -0.342,0.268 -1.556,1.711 -2.697,3.206 -1.141,1.496 -2.632,3.229 -3.313,3.852 -0.87,0.794 -1.259,1.533 -1.304,2.48 -0.117,2.452 0.935,1.723 2.671,-1.851 0.32,-0.66 1.501,-2.009 2.624,-2.999 1.122,-0.989 2.041,-1.95 2.041,-2.136 0,-0.187 0.36,-0.796 0.8,-1.356 1.254,-1.594 0.705,-2.392 -0.822,-1.196"
       id="path120" />
    <path
       d="m 205.131,337.489 c -3.59,2.939 -5.706,5.803 -4.89,6.619 0.293,0.293 6.706,-6.364 6.888,-7.15 0.2,-0.861 -0.537,-0.665 -1.998,0.531"
       id="path119" />
    <path
       d="m 201.7,336.491 c -1.681,1.012 -1.951,2.988 -0.306,2.239 1.174,-0.535 2.425,-2.285 1.943,-2.718 -0.185,-0.167 -0.922,0.049 -1.637,0.479"
       id="path118" />
    <path
       d="m 194.877,333.485 c -0.518,0.099 -1.121,0.645 -1.377,1.246 -0.25,0.588 -0.786,1.345 -1.192,1.682 -0.69,0.573 -0.751,1.678 -0.921,16.8 -0.1,8.903 -0.27,17.087 -0.377,18.187 -0.223,2.284 -0.367,4.425 -0.751,11.2 -0.15,2.64 -0.449,6.24 -0.666,8 -0.217,1.76 -0.472,5.18 -0.568,7.6 -0.095,2.42 -0.383,5.66 -0.639,7.2 -0.257,1.54 -0.537,3.88 -0.623,5.2 -0.086,1.32 -0.323,4.2 -0.526,6.4 -0.203,2.2 -0.586,7.42 -0.851,11.6 -0.313,4.917 -0.73,8.377 -1.184,9.8 -0.386,1.21 -0.816,2.83 -0.956,3.6 -0.282,1.554 -2.501,8.946 -3.061,10.2 -1.023,2.291 -2.01,6.046 -1.804,6.867 0.919,3.66 12.267,-2.303 13.831,-7.267 0.597,-1.897 0.905,-21.214 0.372,-23.4 -0.187,-0.77 -0.392,-3.11 -0.454,-5.2 -0.11,-3.688 0.022,-5.635 0.921,-13.6 0.236,-2.09 0.411,-3.98 0.389,-4.2 -0.354,-3.567 -0.282,-5.227 0.244,-5.612 0.739,-0.541 1.323,-6.99 0.883,-9.769 -0.171,-1.082 -0.227,-2.745 -0.125,-3.694 0.244,-2.255 0.244,-8.565 0.001,-14.321 -0.148,-3.51 -0.066,-4.738 0.346,-5.2 0.388,-0.435 0.544,-1.979 0.556,-5.511 0.009,-2.699 0.13,-5.09 0.268,-5.314 0.44,-0.712 1.012,-7.54 1.25,-14.926 0.267,-8.268 0.296,-8.195 -2.986,-7.568"
       id="path117" />
    <path
       d="m 189.8,331.2 c -0.141,0.228 0.204,0.4 0.8,0.4 0.596,0 0.941,-0.172 0.8,-0.4 -0.136,-0.22 -0.496,-0.4 -0.8,-0.4 -0.304,0 -0.664,0.18 -0.8,0.4"
       id="path116" />
    <path
       d="m 192.8,330.6 c 0,0.373 0.378,0.6 1,0.6 0.622,0 1,-0.227 1,-0.6 0,-0.373 -0.378,-0.6 -1,-0.6 -0.622,0 -1,0.227 -1,0.6"
       id="path115" />
    <path
       d="m 187.467,329.867 c -1.29,1.289 -0.024,1.739 1.721,0.611 0.2,-0.129 -0.826,-0.861 -1.221,-0.872 -0.129,-0.003 -0.354,0.114 -0.5,0.261"
       id="path114" />
    <path
       d="m 202.577,323.162 c 0.123,0.2 0.584,0.269 1.023,0.154 1.101,-0.288 1.002,-0.516 -0.224,-0.516 -0.563,0 -0.922,0.163 -0.799,0.362"
       id="path113" />
    <path
       d="m 181.903,320.995 c -0.129,0.675 0.219,1.616 1.083,2.928 0.7,1.063 1.392,2.242 1.536,2.619 0.227,0.591 0.735,0.665 3.674,0.535 3.452,-0.152 4.543,-0.462 3.161,-0.896 -0.416,-0.131 -1.027,-0.411 -1.357,-0.621 -0.33,-0.211 -0.922,-0.491 -1.316,-0.623 -0.394,-0.131 -0.653,-0.43 -0.575,-0.663 0.235,-0.705 0.962,-0.746 1.616,-0.092 0.773,0.773 1.831,0.798 2.118,0.05 0.163,-0.426 1.063,-0.574 3.589,-0.593 1.854,-0.013 3.829,-0.14 4.39,-0.28 l 1.018,-0.256 -0.864,-0.605 c -0.683,-0.478 -1.53,-0.55 -4.029,-0.342 -2.633,0.22 -3.204,0.162 -3.398,-0.346 -0.152,-0.394 -0.757,-0.61 -1.712,-0.61 -0.812,0 -1.676,-0.199 -1.92,-0.443 -0.324,-0.324 -0.564,-0.216 -0.894,0.4 -0.598,1.117 -1.436,1.065 -2.498,-0.157 -1.221,-1.405 -3.354,-1.408 -3.622,-0.005"
       id="path112" />
    <path
       d="m 177.411,314.646 c -1.438,1.438 -0.65,1.558 9.426,1.434 6.663,-0.082 10.752,-0.313 12.878,-0.729 1.713,-0.336 3.728,-0.557 4.478,-0.492 0.75,0.064 1.466,0.015 1.591,-0.11 0.399,-0.399 -8.014,-0.749 -18.018,-0.749 -8.407,0 -9.796,0.087 -10.355,0.646"
       id="path111" />
    <path
       d="m 191.835,308.204 c -0.42,0.318 -1.14,0.519 -1.6,0.446 -0.459,-0.073 -0.61,-0.056 -0.335,0.038 0.275,0.094 0.5,0.427 0.5,0.741 0,0.314 0.27,0.571 0.6,0.571 0.33,0 0.6,-0.2 0.6,-0.445 0,-0.289 0.478,-0.354 1.369,-0.187 1.525,0.286 2.182,-0.263 1.416,-1.186 -0.608,-0.733 -1.563,-0.724 -2.55,0.022"
       id="path110" />
    <path
       d="m 185.882,304.2 c -1.009,0.77 -1.98,1.405 -2.158,1.41 -0.407,0.013 -1.724,2.833 -1.724,3.692 0,0.63 1.78,2.298 2.452,2.298 0.505,0 4.156,-3.682 4.461,-4.5 0.281,-0.751 2.204,-0.919 3.687,-0.321 0.446,0.179 1.012,0.153 1.279,-0.06 0.305,-0.243 0.733,-0.24 1.179,0.009 0.461,0.258 1.048,0.252 1.721,-0.02 0.562,-0.226 1.696,-0.381 2.521,-0.343 1.518,0.068 2.03,-0.476 0.867,-0.922 -0.866,-0.333 -4.422,-0.275 -6.37,0.103 -2.083,0.404 -4.182,-0.329 -3.222,-1.125 2.514,-2.087 -1.973,-2.298 -4.693,-0.221"
       id="path109" />
    <path
       d="m 190.8,299.2 c 0,0.953 1.022,1.052 2.571,0.249 1.217,-0.631 0.658,-1.049 -1.404,-1.049 -0.9,0 -1.167,0.183 -1.167,0.8"
       id="path108" />
    <path
       d="m 192.228,288.755 c -0.559,0.904 0.957,1.251 4.334,0.991 4.256,-0.327 4.694,-0.749 1.127,-1.086 -3.694,-0.349 -5.203,-0.323 -5.461,0.095"
       id="path107" />
    <path
       d="m 188.865,281.07 c -0.364,0.65 0.076,2.718 0.735,3.456 0.484,0.54 1.6,-0.907 1.6,-2.075 0,-1.831 -1.565,-2.757 -2.335,-1.381"
       id="path106" />
    <path
       d="m 220.8,279.413 c 0,0.336 -0.27,0.716 -0.6,0.842 -0.599,0.23 -0.869,2.154 -0.3,2.135 0.755,-0.025 2.046,-3.59 1.3,-3.59 -0.22,0 -0.4,0.276 -0.4,0.613"
       id="path105" />
    <path
       d="m 207.6,278.6 c 0,0.55 0.18,1 0.4,1 0.22,0 0.4,-0.45 0.4,-1 0,-0.55 -0.18,-1 -0.4,-1 -0.22,0 -0.4,0.45 -0.4,1"
       id="path104" />
    <path
       d="m 214.606,276.7 c -1.224,1.221 -1.8,2.44 -1.511,3.2 0.314,0.824 0.847,0.572 1.514,-0.717 0.346,-0.67 1.071,-1.419 1.61,-1.665 1.165,-0.53 1.335,-1.918 0.236,-1.918 -0.41,0 -1.242,0.495 -1.849,1.1"
       id="path103" />
    <path
       d="m 195.6,276.4 c 0,0.44 0.162,0.8 0.359,0.8 0.795,0 4.003,3.319 4.237,4.382 0.41,1.866 1.696,2.787 2.03,1.455 0.349,-1.39 -0.397,-3.097 -2.176,-4.977 -2.315,-2.448 -4.45,-3.244 -4.45,-1.66"
       id="path102" />
    <path
       d="m 185.245,272.764 c -0.364,0.23 -0.467,0.708 -0.3,1.393 0.14,0.574 0.368,1.538 0.506,2.143 0.322,1.41 1.793,3.077 2.172,2.462 0.152,-0.246 0.035,-1.282 -0.26,-2.304 -0.295,-1.022 -0.636,-2.353 -0.758,-2.958 -0.234,-1.169 -0.473,-1.298 -1.36,-0.736"
       id="path101" />
    <path
       d="m 207.6,274.171 c 0,2.306 0.45,2.83 1.21,1.411 0.647,-1.209 0.336,-3.348 -0.51,-3.508 -0.599,-0.113 -0.7,0.19 -0.7,2.097"
       id="path100" />
    <path
       d="m 211.845,271.387 c -0.366,0.559 -0.778,1.58 -0.916,2.268 -0.138,0.688 -0.55,1.33 -0.917,1.426 -0.572,0.15 -0.641,0.641 -0.491,3.494 0.115,2.192 0.022,3.413 -0.274,3.596 -0.783,0.484 -0.54,2.229 0.31,2.229 1.004,0 1.241,-0.742 1.256,-3.933 0.008,-1.708 0.224,-2.946 0.6,-3.443 0.323,-0.428 0.587,-1.12 0.587,-1.539 0,-0.419 0.372,-1.285 0.828,-1.924 0.85,-1.194 0.917,-2.785 0.128,-3.044 -0.245,-0.081 -0.744,0.311 -1.111,0.87"
       id="path99" />
    <path
       d="m 177.024,270.28 c -0.164,0.43 -0.066,0.767 0.253,0.865 1.053,0.324 4.229,3.983 5.113,5.892 0.5,1.08 1.157,2.441 1.46,3.025 0.302,0.584 0.556,1.394 0.564,1.8 0.018,0.882 1.504,2.714 2.486,3.063 1.103,0.393 0.842,-0.653 -0.489,-1.958 -0.654,-0.642 -1.194,-1.561 -1.2,-2.043 -0.006,-0.482 -0.171,-0.975 -0.366,-1.096 -0.195,-0.121 -0.476,-0.869 -0.625,-1.662 -0.815,-4.344 -6.263,-10.315 -7.196,-7.886"
       id="path98" />
    <path
       d="m 190.8,269.577 c 0,0.482 1.615,1.623 2.298,1.623 0.391,0 0.358,-0.248 -0.135,-1 -0.629,-0.961 -2.163,-1.402 -2.163,-0.623"
       id="path97" />
    <path
       d="m 201.067,267.126 c -1.596,1.764 -1.615,2.989 -0.09,5.913 0.783,1.501 1.423,3.309 1.423,4.017 0,0.708 0.288,1.575 0.64,1.926 0.351,0.352 0.735,1.355 0.852,2.229 0.222,1.651 0.363,1.796 1.221,1.251 0.382,-0.242 0.485,-1.548 0.4,-5.094 l -0.113,-4.768 -1.258,-0.122 c -4.427,-0.43 -2.304,-3.678 2.404,-3.678 1.865,0 1.833,-0.38 -0.128,-1.5 -1.943,-1.109 -4.431,-1.19 -5.351,-0.174"
       id="path96" />
    <path
       d="m 226.763,266.645 c -0.76,0.915 -0.905,5.755 -0.173,5.755 0.654,0 0.855,-0.613 1.201,-3.662 0.27,-2.379 -0.124,-3.182 -1.028,-2.093"
       id="path95" />
    <path
       d="m 194.843,251.419 c -0.515,0.752 -1.979,2.383 -3.252,3.623 -3.013,2.935 -4.362,6.404 -3.578,9.203 0.27,0.965 0.655,1.755 0.857,1.755 0.201,0 0.312,0.291 0.248,0.647 -0.172,0.943 1.115,1.682 1.771,1.017 0.415,-0.421 0.369,-0.623 -0.248,-1.078 -0.652,-0.481 -0.682,-0.654 -0.216,-1.216 0.299,-0.36 0.739,-1.041 0.977,-1.513 0.341,-0.675 0.811,-0.863 2.216,-0.885 5.111,-0.082 6.382,-0.79 1.577,-0.879 -3.972,-0.074 -4.652,-0.912 -2.565,-3.163 0.979,-1.056 1.082,-1.081 2.1,-0.503 0.892,0.507 1.237,0.523 2.07,0.097 0.55,-0.282 1.405,-0.515 1.9,-0.518 0.495,-0.003 0.9,-0.199 0.9,-0.436 0,-0.265 -0.794,-0.387 -2.073,-0.319 -2.596,0.138 -2.767,-0.282 -1.115,-2.731 0.752,-1.114 1.094,-1.951 0.832,-2.039 C 197,252.4 196.8,252.01 196.8,251.616 c 0,-1.529 -0.977,-1.627 -1.957,-0.197"
       id="path94" />
    <path
       d="m 197.543,247.635 c -0.217,0.134 -0.131,0.443 0.199,0.717 0.319,0.264 0.81,1.262 1.092,2.218 0.511,1.728 0.517,1.733 1.211,0.883 0.547,-0.668 0.805,-0.748 1.19,-0.37 0.388,0.382 0.387,0.609 -0.007,1.084 -0.599,0.721 1.08,1.328 2.271,0.821 0.601,-0.256 0.559,-0.335 -0.299,-0.559 -0.665,-0.174 -1.045,-0.592 -1.134,-1.245 -0.073,-0.541 -0.298,-1.155 -0.5,-1.364 -0.669,-0.694 -0.379,-1.116 0.634,-0.922 1.07,0.204 1.196,0.032 0.63,-0.863 -0.362,-0.572 -4.502,-0.885 -5.287,-0.4"
       id="path93" />
    <path
       d="m 196.625,243.508 c -1.161,1.161 1.881,1.697 5.175,0.911 l 1.2,-0.286 -1.4,-0.246 c -2.494,-0.438 -4.744,-0.61 -4.975,-0.379"
       id="path92" />
    <path
       d="m 194.472,238.496 c 0.07,0.493 0.444,0.956 0.829,1.029 0.887,0.169 1.413,-1.081 0.657,-1.559 -0.997,-0.632 -1.62,-0.41 -1.486,0.53"
       id="path91" />
    <path
       d="m 190.552,234.981 c -0.307,0.801 0.149,1.419 1.048,1.419 1.101,0 1.437,-0.838 0.585,-1.461 -0.946,-0.691 -1.356,-0.681 -1.633,0.042"
       id="path90" />
    <path
       d="m 188.496,225.243 c -1.071,0.396 -1.168,1.096 -0.196,1.403 2.032,0.643 4.054,1.633 5.318,2.603 2.328,1.787 5.967,3.254 6.249,2.52 0.128,-0.332 0.165,-0.641 0.082,-0.688 -0.082,-0.046 -0.727,-0.488 -1.433,-0.982 -0.706,-0.495 -1.465,-0.899 -1.686,-0.899 -0.221,0 -0.993,-0.503 -1.716,-1.118 -2.881,-2.45 -5.098,-3.402 -6.618,-2.839"
       id="path89" />
    <path
       d="m 196.56,217.36 c -0.146,0.382 -0.068,0.892 0.174,1.134 0.32,0.32 0.512,0.251 0.706,-0.254 0.146,-0.382 0.068,-0.892 -0.174,-1.134 -0.32,-0.32 -0.512,-0.251 -0.706,0.254"
       id="path88" />
    <path
       d="m 215.606,213.393 c -0.457,0.551 0.228,1.005 1.527,1.01 0.703,0.002 2.067,2.032 2.067,3.077 0,0.338 0.63,1.652 1.4,2.92 0.77,1.268 1.4,2.68 1.4,3.138 0,0.938 1.395,1.917 1.799,1.263 0.374,-0.604 2.249,-0.481 2.997,0.196 1.253,1.133 2.269,-0.134 1.682,-2.095 -0.263,-0.877 -0.478,-2.077 -0.478,-2.666 0,-3.63 -10.328,-9.333 -12.394,-6.843"
       id="path87" />
    <path
       d="m 206.116,207.487 c -0.468,0.164 -0.352,14.977 0.129,16.48 0.626,1.956 1.147,-0.941 1.38,-7.667 0.3,-8.687 0.177,-9.402 -1.509,-8.813"
       id="path86" />
    <path
       d="m 215,205.2 c -0.667,0.286 -0.579,0.348 0.524,0.372 0.786,0.017 1.223,-0.134 1.076,-0.372 -0.288,-0.466 -0.515,-0.466 -1.6,0"
       id="path85" />
    <path
       d="m 227.4,203.845 c -0.44,0.34 -1.7,1.078 -2.8,1.639 -2.125,1.084 -5.016,3.205 -4.975,3.65 0.013,0.146 1.295,1.166 2.848,2.266 1.552,1.1 3.41,2.495 4.128,3.1 2.331,1.966 3.996,1.094 2.221,-1.163 -0.951,-1.209 -1.045,-5.905 -0.16,-8.023 0.827,-1.979 0.256,-2.644 -1.262,-1.469"
       id="path84" />
    <path
       d="m 218.884,203.415 c -0.283,0.322 -0.879,0.585 -1.323,0.585 -0.445,0 -0.712,0.156 -0.594,0.346 0.268,0.434 2.233,0.088 2.233,-0.393 0,-0.194 0.259,-0.353 0.576,-0.353 0.317,0 0.688,-0.18 0.824,-0.4 0.389,-0.629 -1.141,-0.437 -1.716,0.215"
       id="path83" />
    <path
       d="m 205.823,202.089 c -0.837,1.194 -0.788,1.617 0.303,2.641 1.244,1.169 1.736,1.097 2.49,-0.36 1.194,-2.309 -1.33,-4.37 -2.793,-2.281"
       id="path82" />
    <path
       d="m 186.928,201.843 c -0.133,0.346 0.071,1.286 0.454,2.088 1.691,3.547 0.961,10.048 -1.549,13.79 -0.565,0.842 -0.638,1.234 -0.294,1.578 0.755,0.755 2.53,-0.876 3.78,-3.472 1.207,-2.508 4.205,-5.955 5.981,-6.877 1.335,-0.693 1.4,-1.253 0.2,-1.721 -0.495,-0.193 -2.25,-1.506 -3.9,-2.919 -3.401,-2.911 -4.316,-3.394 -4.672,-2.467"
       id="path81" />
    <path
       d="m 233.112,200.579 c -0.278,1.526 -0.155,2.198 0.315,1.728 0.124,-0.125 0.169,-0.92 0.1,-1.767 L 233.4,199 l -0.288,1.579"
       id="path80" />
    <path
       d="m 192,199.885 c 0,0.884 3.381,4.264 4.677,4.676 0.467,0.148 0.95,0.533 1.073,0.854 0.235,0.611 2.06,0.816 2.398,0.27 0.107,-0.173 -0.668,-0.8 -1.722,-1.392 -1.054,-0.593 -2.616,-1.758 -3.471,-2.589 -2.572,-2.502 -2.955,-2.737 -2.955,-1.819"
       id="path79" />
    <path
       d="m 176,195.405 c 0,0.112 0.719,1.257 1.597,2.544 2.281,3.341 2.804,4.847 2.901,8.353 0.16,5.786 -0.337,7.686 -2.338,8.923 -0.748,0.462 -1.36,1.006 -1.36,1.208 0,0.575 -3.118,0.43 -4.341,-0.202 -1.582,-0.819 -4.211,-3.799 -5.073,-5.754 -0.788,-1.785 -0.882,-1.857 -1.731,-1.319 -0.424,0.268 -0.482,0.983 -0.26,3.191 0.373,3.711 -1.327,4.66 -2.887,1.611 -0.982,-1.918 -2.423,-5.383 -2.646,-6.36 -0.325,-1.427 -1.256,-2.575 -1.811,-2.231 -0.763,0.471 -0.183,4.41 1.427,9.698 1.961,6.439 11.56,9.358 18.167,5.525 1.493,-0.866 2.581,-1.238 3.249,-1.11 0.57,0.109 1.199,-0.04 1.453,-0.345 3.434,-4.121 3.293,-3.796 3.168,-7.293 -0.142,-3.996 -0.763,-4.199 -1.359,-0.444 -0.525,3.306 -1.031,4.675 -2.14,5.784 -1.593,1.593 -2.045,1.004 -0.788,-1.029 1.652,-2.674 1.172,-13.641 -0.734,-16.755 -1.439,-2.35 -4.494,-5.066 -4.494,-3.995"
       id="path78" />
    <path
       d="m 235.09,194.701 c -0.38,0.419 -0.675,1.288 -0.656,1.93 l 0.035,1.169 0.348,-1.166 c 0.192,-0.641 0.559,-1.295 0.815,-1.454 0.256,-0.158 0.394,-0.502 0.307,-0.764 -0.106,-0.316 -0.393,-0.219 -0.849,0.285"
       id="path77" />
    <path
       d="m 239.086,194.026 c -0.818,1.774 -1.486,3.493 -1.486,3.82 0,0.326 -0.256,1.089 -0.569,1.694 -0.802,1.552 -1.48,8.094 -1.009,9.738 0.208,0.724 0.378,1.803 0.378,2.397 0,0.727 0.715,1.923 2.192,3.663 1.657,1.954 2.046,2.639 1.596,2.811 -2.418,0.928 -5.963,-3.725 -6.289,-8.257 -0.121,-1.678 -0.394,-2.521 -1,-3.086 l -0.834,-0.776 -0.272,1.613 c -0.366,2.166 0.487,6.525 1.448,7.394 0.417,0.378 0.759,0.894 0.759,1.147 0,0.747 2.51,2.938 3.704,3.233 0.607,0.149 1.202,0.432 1.323,0.627 0.291,0.471 9.587,0.46 10.478,-0.012 2.017,-1.068 4.168,-2.032 4.534,-2.032 3.697,0 7.646,-9.942 5.674,-14.286 -1.68,-3.702 -4.139,-5.378 -3.542,-2.414 0.984,4.89 -1.452,11.882 -3.171,9.1 -0.52,-0.841 -1.346,-0.391 -1.315,0.717 0.181,6.369 -7.259,8.713 -11.4,3.59 -3.111,-3.849 -3.508,-11.725 -0.846,-16.769 0.309,-0.584 0.567,-1.484 0.574,-2 0.007,-0.516 0.277,-1.287 0.6,-1.714 0.612,-0.81 0.82,-3.424 0.273,-3.424 -0.173,0 -0.983,1.452 -1.8,3.226"
       id="path76" />
    <path
       d="m 205.837,190.262 c -4.63,2.507 -9.437,6.491 -9.437,7.822 0,3.203 6.101,6.01 6.975,3.209 0.909,-2.912 6.106,-3.03 7.584,-0.172 1.389,2.686 3.587,2.473 9.114,-0.882 4.148,-2.519 5.446,-4.239 3.198,-4.239 -0.375,0 -1.67,-0.373 -2.877,-0.83 -1.207,-0.456 -2.644,-0.972 -3.194,-1.147 -1.194,-0.378 -5.37,-2.611 -6.862,-3.67 -1.281,-0.908 -2.93,-0.942 -4.501,-0.091"
       id="path75" />
    <path
       d="m 205.652,184.7 c -0.946,1.514 -4.406,4.5 -5.215,4.5 -0.24,0 -0.437,0.138 -0.437,0.306 0,1.953 -15.165,4.287 -16.859,2.594 -0.559,-0.557 -3.541,-0.693 -3.541,-0.161 0,2.278 12.797,2.883 17,0.803 3.512,-1.737 5.585,-2.896 6.129,-3.426 0.29,-0.284 0.74,-0.525 1,-0.536 0.259,-0.01 1.191,-0.729 2.071,-1.597 1.983,-1.955 2.178,-1.955 3.889,-0.003 1.365,1.558 6.271,4.414 7.587,4.418 0.372,10e-4 0.778,0.166 0.902,0.367 0.125,0.201 0.944,0.487 1.822,0.635 0.878,0.148 1.697,0.434 1.822,0.635 0.269,0.435 7.381,0.498 7.372,0.065 -0.018,-0.873 -0.888,-1.203 -3.727,-1.412 -5.758,-0.425 -11.763,-3.064 -14.846,-6.525 -2.422,-2.719 -3.588,-2.875 -4.969,-0.663"
       id="path74" />
    <path
       d="m 164.013,183.7 c 0.018,0.7 0.984,1.9 1.531,1.9 0.251,0 0.456,0.166 0.456,0.368 0,0.355 0.49,0.84 5.835,5.779 2.475,2.288 3.138,2.481 2.714,0.794 -0.201,-0.804 -0.087,-0.941 0.784,-0.941 3.359,0 0.905,-2.241 -4.628,-4.225 -1.283,-0.46 -2.357,-1.244 -3.326,-2.427 -1.4,-1.708 -3.397,-2.448 -3.366,-1.248"
       id="path73" />
    <path
       d="m 249.054,176.44 c -0.63,0.661 -1.024,1.324 -0.875,1.473 0.227,0.226 2.621,-2.119 2.621,-2.567 0,-0.428 -0.731,0.03 -1.746,1.094"
       id="path72" />
    <path
       d="m 205.382,176.182 c -2.683,2.683 0.893,5.85 3.718,3.293 0.991,-0.897 1.223,-2.992 0.42,-3.795 -0.84,-0.84 -3.066,-0.57 -4.138,0.502"
       id="path71" />
    <path
       d="m 250,171.6 c 0,0.506 0.817,0.506 1.6,0 0.468,-0.302 0.357,-0.389 -0.5,-0.394 -0.605,-0.003 -1.1,0.174 -1.1,0.394"
       id="path70" />
    <path
       d="m 252.2,170.4 c -0.316,0.511 1.01,0.511 1.8,0 0.469,-0.303 0.366,-0.389 -0.476,-0.394 -0.592,-0.003 -1.188,0.174 -1.324,0.394"
       id="path69" />
    <path
       d="m 186.612,170.387 c -1.156,1.278 -2.605,4.57 -2.194,4.986 0.203,0.206 0.429,0.296 0.504,0.2 0.074,-0.095 0.977,-1.225 2.006,-2.51 2.371,-2.959 2.09,-5.335 -0.316,-2.676"
       id="path68" />
    <path
       d="m 177.8,169.839 c -0.88,0.529 -2.478,1.23 -3.551,1.556 -2.809,0.853 -4.145,2.68 -2.641,3.61 0.226,0.139 0.383,1.551 0.352,3.161 -0.091,4.705 1.902,7.399 5.911,7.988 2.661,0.392 3.402,-0.647 2.317,-3.243 -0.82,-1.964 -1.201,-6.833 -0.669,-8.544 1.534,-4.928 1.052,-6.197 -1.719,-4.528"
       id="path67" />
    <path
       d="m 256.3,168.691 c -0.825,0.087 -1.5,0.347 -1.5,0.58 0,0.243 0.382,0.32 0.9,0.181 0.495,-0.133 1.496,-0.244 2.224,-0.247 0.779,-0.003 1.222,-0.169 1.076,-0.405 -0.136,-0.22 -0.462,-0.37 -0.724,-0.333 -0.262,0.037 -1.151,0.138 -1.976,0.224"
       id="path66" />
    <path
       d="m 250,168 c 0,0.469 0.307,0.469 1.4,0 0.709,-0.305 0.675,-0.347 -0.3,-0.372 -0.605,-0.015 -1.1,0.152 -1.1,0.372"
       id="path65" />
    <path
       d="m 228.223,167.51 c -0.541,0.541 -0.109,1.573 1.412,3.377 1.966,2.332 2.98,5.06 3.849,10.35 0.653,3.977 1.015,4.736 1.464,3.063 0.324,-1.209 0.319,-6.9 -0.007,-7.225 -0.142,-0.143 -0.567,-1.169 -0.943,-2.281 -1.264,-3.733 -4.829,-8.23 -5.775,-7.284"
       id="path64" />
    <path
       d="m 205.782,167.216 c -1.407,0.531 -6.797,6.141 -7.704,8.018 -0.822,1.702 -1.965,3.043 -3.185,3.734 -0.35,0.199 -0.95,-0.647 -1.944,-2.74 -1.875,-3.948 -1.999,-3.934 -4.595,0.501 -2.238,3.824 -1.626,9.114 1.361,11.767 2.36,2.096 2.688,2.125 6.012,0.526 1.626,-0.782 3.118,-1.425 3.315,-1.43 2.756,-0.059 4.876,-5.834 2.78,-7.574 -1.611,-1.337 -0.021,-5.547 2.791,-7.39 5.019,-3.289 11.87,2.621 8.002,6.903 -1.759,1.946 -1.759,1.932 0.19,4.38 4.245,5.332 16.631,8 17.104,3.685 0.061,-0.548 0.305,-1.745 0.543,-2.661 0.826,-3.178 -0.878,-9.315 -2.94,-10.589 -0.683,-0.423 -1.613,0.044 -2.801,1.406 l -1.09,1.248 -2.71,-2.8 c -3.854,-3.981 -12.503,-7.973 -15.129,-6.984"
       id="path63" />
    <path
       d="m 256.9,165.476 c 0.385,0.1 1.015,0.1 1.4,0 0.385,-0.101 0.07,-0.183 -0.7,-0.183 -0.77,0 -1.085,0.082 -0.7,0.183"
       id="path62" />
    <path
       d="m 175.784,165.227 c -0.145,0.234 -0.164,0.526 -0.041,0.649 0.329,0.329 1.457,-0.185 1.457,-0.663 0,-0.543 -1.079,-0.533 -1.416,0.014"
       id="path61" />
    <path
       d="m 234.1,164.698 c -1.409,0.701 -1.671,1.696 -0.666,2.53 0.349,0.29 0.909,1.212 1.244,2.049 0.335,0.838 0.732,1.523 0.882,1.523 1.184,0 3.784,8.125 3.409,10.653 -0.386,2.598 0.369,2.406 2.935,-0.748 3.22,-3.957 3.687,-4.746 3.618,-6.12 -0.032,-0.652 0.072,-1.641 0.231,-2.199 0.544,-1.898 -8.227,-9.034 -10.275,-8.36 -0.043,0.014 -0.663,0.316 -1.378,0.672"
       id="path60" />
    <path
       d="m 245.2,161.2 c -0.29,0.542 -0.295,0.8 -0.014,0.8 0.228,0 0.414,-0.152 0.414,-0.339 0,-0.186 0.405,-0.534 0.9,-0.773 l 0.9,-0.434 -0.886,-0.027 c -0.497,-0.015 -1.074,0.324 -1.314,0.773"
       id="path59" />
    <path
       d="m 248.226,159.158 c -0.122,0.197 0.03,0.455 0.337,0.573 0.587,0.225 1.037,-0.035 1.037,-0.598 0,-0.446 -1.095,-0.427 -1.374,0.025"
       id="path58" />
    <path
       d="m 233.2,159.4 c -0.55,0.314 -1.934,0.578 -3.076,0.586 -1.142,0.008 -2.188,0.194 -2.324,0.414 -0.136,0.22 -0.674,0.4 -1.197,0.4 -0.598,0 -1.043,0.296 -1.203,0.8 -0.17,0.536 -0.609,0.802 -1.327,0.806 -1.715,0.01 -2.171,0.484 -1.689,1.753 0.558,1.468 0.598,1.42 -0.962,1.167 -3.28,-0.532 -4.13,0.432 -2.122,2.405 0.715,0.703 1.708,1.776 2.207,2.384 1.009,1.231 2.493,0.952 2.493,-0.469 0,-1.226 2.312,-3.999 4.409,-5.29 1.095,-0.673 1.991,-1.348 1.991,-1.499 0,-0.253 0.658,-0.614 4.3,-2.36 0.715,-0.343 1.3,-0.865 1.3,-1.16 0,-0.699 -1.528,-0.664 -2.8,0.063"
       id="path57" />
    <path
       d="m 249.759,155.764 c -0.12,0.31 -0.654,0.673 -1.188,0.808 -0.534,0.134 -0.971,0.42 -0.971,0.636 0,0.585 1.511,0.474 1.88,-0.138 0.176,-0.292 0.635,-0.646 1.02,-0.788 0.385,-0.141 0.7,-0.443 0.7,-0.669 0,-0.621 -1.193,-0.496 -1.441,0.151"
       id="path56" />
    <path
       d="m 224.8,154.543 c -1.21,0.499 -2.2,1.075 -2.2,1.282 0,0.438 3.931,0.729 5.279,0.391 1.567,-0.393 1.021,-2.711 -0.612,-2.597 -0.147,0.01 -1.257,0.426 -2.467,0.924"
       id="path55" />
    <path
       d="m 230.23,153.867 c -0.326,0.849 0.322,1.514 1.16,1.192 0.512,-0.196 0.556,-0.413 0.213,-1.053 -0.524,-0.98 -1.031,-1.032 -1.373,-0.139"
       id="path54" />
    <path
       d="m 184,154.324 c 0,0.617 0.264,1.472 0.587,1.9 0.323,0.427 0.593,1.08 0.6,1.452 0.028,1.477 1.5,1.18 3.357,-0.677 0.982,-0.982 0.831,-1.306 -1.222,-2.608 -2.424,-1.537 -3.322,-1.555 -3.322,-0.067"
       id="path53" />
    <path
       d="m 167.331,152.636 c -0.15,0.39 0.048,1.532 0.44,2.537 0.392,1.005 0.789,2.457 0.883,3.227 0.761,6.281 1.434,7.245 3.598,5.153 4.727,-4.57 5.713,-7.471 2.748,-8.084 -1.751,-0.362 -2.639,-0.754 -5.498,-2.43 -1.742,-1.021 -1.921,-1.055 -2.171,-0.403"
       id="path52" />
    <path
       d="m 131.986,153.878 c -2.493,9.804 4.231,21.149 10.46,17.648 1.754,-0.986 1.875,-1.615 1.173,-6.093 -0.21,-1.338 -0.493,-3.299 -0.629,-4.357 -0.432,-3.375 -2.583,-1.407 -3.195,2.924 -0.442,3.122 -0.516,3.163 -2.229,1.249 -0.861,-0.964 -1.567,-1.954 -1.568,-2.2 -0.002,-0.247 -0.258,-0.937 -0.569,-1.534 -0.512,-0.981 -1.274,-5.025 -1.53,-8.112 -0.17,-2.057 -1.344,-1.766 -1.913,0.475"
       id="path51" />
    <path
       d="m 216.734,151 c -0.11,0.109 -1.04,0.379 -2.067,0.6 -1.027,0.22 -2.669,0.573 -3.65,0.785 -2.295,0.495 -11.486,3.668 -15.617,5.391 -4.815,2.008 -9.238,3.442 -11.411,3.7 -3.288,0.389 -3.211,1.718 0.125,2.163 2.822,0.377 8.627,1.58 10.009,2.075 1.117,0.4 1.123,0.421 1.045,3.692 -0.117,4.842 0.775,5.417 2.641,1.701 1.737,-3.459 9.446,-10.315 15.255,-13.568 3.488,-1.953 6.136,-3.939 6.136,-4.603 0,-1.488 -1.633,-2.77 -2.466,-1.936"
       id="path50" />
    <path
       d="m 179.266,151.151 c -0.421,0.267 -0.443,0.667 -0.102,1.894 0.237,0.855 0.433,2.29 0.434,3.188 0.002,1.968 0.314,2.37 1.21,1.56 0.799,-0.723 0.644,-4.091 -0.27,-5.893 -0.632,-1.244 -0.559,-1.201 -1.272,-0.749"
       id="path49" />
    <path
       d="m 171.613,149.455 c 0.069,1.877 4.297,3.972 5.264,2.608 0.288,-0.405 0.754,-0.812 1.037,-0.904 0.408,-0.134 0.396,-0.329 -0.057,-0.948 -0.598,-0.819 -6.272,-1.506 -6.244,-0.756"
       id="path48" />
    <path
       d="m 242.646,148.288 c -0.165,0.164 -1.863,0.968 -3.773,1.785 -4.229,1.81 -5.268,5.127 -1.606,5.127 2.425,0 4.309,3.876 2.333,4.799 -3.236,1.512 -3.543,2.019 -1.524,2.514 0.728,0.179 1.838,0.565 2.466,0.858 1.819,0.848 3.658,0.034 2.655,-1.175 -0.286,-0.344 -0.379,-1.166 -0.236,-2.082 0.789,-5.054 0.585,-12.726 -0.315,-11.826"
       id="path47" />
    <path
       d="m 181.833,147.147 c -0.7,1.132 12.652,7.256 14.377,6.594 1.828,-0.702 0.398,-1.859 -4.21,-3.41 -2.53,-0.851 -4.96,-1.699 -5.4,-1.884 -0.44,-0.185 -1.481,-0.631 -2.314,-0.992 -1.721,-0.745 -2.15,-0.799 -2.453,-0.308"
       id="path46" />
    <path
       d="m 270.801,135.981 c -0.818,0.531 0.452,2.913 2.308,4.329 2.699,2.059 4.475,5.403 3.463,6.52 -0.668,0.739 -1.078,0.627 -3.381,-0.923 -3.311,-2.23 -3.762,1.138 -0.608,4.544 3.388,3.66 4.534,6.882 3.183,8.945 -1.451,2.214 0.733,2.441 2.668,0.278 2.516,-2.812 3.587,-9.459 2.077,-12.89 -0.431,-0.981 -1.025,-2.414 -1.319,-3.184 -0.528,-1.384 -3.607,-5.573 -5.048,-6.869 -0.974,-0.876 -2.591,-1.239 -3.343,-0.75"
       id="path45" />
    <path
       d="m 258.2,137.693 c -6.434,8.22 -7.504,10.633 -4.609,10.395 0.964,-0.079 1.718,-0.515 2.594,-1.5 1.969,-2.212 3.71,-1.612 2.432,0.838 -0.337,0.646 -0.613,1.747 -0.615,2.447 -0.001,0.7 -0.542,2.737 -1.202,4.527 -1.42,3.851 -1.484,4.916 -0.364,6.036 l 0.836,0.836 0.89,-0.836 c 0.489,-0.46 1.097,-0.836 1.35,-0.836 0.661,0 1.288,-1.349 1.288,-2.774 0,-2.009 1.512,-1.493 2.203,0.752 0.578,1.88 2.618,4.734 3.703,5.179 6.628,2.724 5.631,-2.408 -2.232,-11.488 -2.239,-2.586 -3.322,-5.938 -3.631,-11.237 -0.284,-4.869 -0.508,-5.067 -2.643,-2.339"
       id="path44" />
    <path
       d="m 195.561,128.046 c -0.021,0.085 -0.113,2.217 -0.205,4.74 -0.199,5.472 0.025,5.198 -3.956,4.824 -3.911,-0.367 -4.414,-0.112 -5.42,2.743 -1.105,3.139 -0.342,3.771 8.62,7.141 0.88,0.331 1.96,0.755 2.4,0.943 4.269,1.821 8.541,2.312 11.2,1.286 0.66,-0.255 2.55,-0.857 4.2,-1.337 10.924,-3.181 11.093,-3.303 10.333,-7.426 -0.635,-3.451 -1.273,-3.998 -3.918,-3.364 -2.7,0.648 -3.215,0.396 -3.215,-1.569 0,-0.88 -0.258,-2.37 -0.572,-3.313 -0.315,-0.943 -0.63,-2.24 -0.7,-2.883 -0.16,-1.464 -0.879,-1.732 -1.791,-0.666 -0.562,0.656 -0.997,0.771 -2.199,0.579 -1.404,-0.225 -1.513,-0.168 -1.733,0.908 -0.128,0.631 -0.498,1.958 -0.821,2.948 -0.324,0.99 -0.587,2.102 -0.586,2.471 0.002,0.732 -1.02,1.929 -1.647,1.929 -0.215,0 -0.672,-0.675 -1.015,-1.5 -0.342,-0.825 -1.151,-2.636 -1.798,-4.024 -0.647,-1.388 -1.361,-3.008 -1.588,-3.6 l -0.411,-1.076 -0.97,1.122 c -0.565,0.655 -0.969,1.628 -0.969,2.334 0,1.478 -0.83,1.363 -1.241,-0.171 -0.25,-0.937 -1.897,-3.441 -1.998,-3.039"
       id="path43" />
    <path
       d="m 151.478,126.256 c -0.32,0.319 0.041,0.944 0.546,0.944 0.207,0 0.376,-0.27 0.376,-0.6 0,-0.619 -0.472,-0.795 -0.922,-0.344"
       id="path42" />
    <path
       d="m 209.28,123.942 c -0.394,0.25 -0.214,0.658 0.738,1.677 1.113,1.192 1.301,1.268 1.639,0.665 0.718,-1.282 -1.149,-3.121 -2.377,-2.342"
       id="path41" />
    <path
       d="m 203.489,123.513 c -1.121,1.26 0.245,7.287 1.652,7.287 1.874,0 1.717,-6.045 -0.19,-7.38 -0.762,-0.533 -0.914,-0.523 -1.462,0.093"
       id="path40" />
    <path
       d="m 198.79,123.026 c -0.263,0.692 -0.249,1.29 0.042,1.833 0.599,1.119 1.968,-0.078 1.968,-1.721 0,-1.519 -1.444,-1.599 -2.01,-0.112"
       id="path39" />
    <path
       d="m 141.115,119.038 c -0.317,0.487 0.237,2.823 1.176,4.962 0.338,0.77 0.967,2.21 1.397,3.2 2.231,5.137 5.472,10.682 7.064,12.083 l 1.448,1.275 0.123,-1.679 c 0.208,-2.844 1.416,-2.379 6.038,2.321 2.543,2.585 4.235,4 4.786,4 1.439,0 1.011,-1.725 -0.954,-3.846 -3.268,-3.526 1.356,-1.98 5.807,1.942 4.198,3.699 10.505,4.217 12.726,1.045 1.966,-2.806 2.519,-4.44 2.269,-6.702 -0.538,-4.862 -1.647,-5.146 -6.319,-1.618 l -3.206,2.42 -2.235,-0.27 c -1.229,-0.149 -2.562,-0.441 -2.962,-0.649 -0.399,-0.208 -1.569,-0.533 -2.6,-0.722 -4.3,-0.787 -8.073,-2.197 -8.073,-3.015 0,-0.481 -1.265,-1.785 -1.731,-1.785 -0.148,0 -0.269,0.27 -0.269,0.6 0,0.33 0.18,0.6 0.4,0.6 0.22,0 0.4,0.27 0.4,0.6 0,0.33 0.241,0.6 0.536,0.6 0.441,0 1.464,1.551 1.464,2.219 0,0.623 -1.62,0.01 -2.163,-0.819 -0.638,-0.973 -2.237,-1.402 -2.237,-0.6 0,0.22 -0.416,0.4 -0.925,0.4 -0.881,0 -2.675,-1.854 -2.675,-2.764 0,-0.218 -0.23,-0.54 -0.511,-0.716 -1.441,-0.903 -5.477,-7.432 -5.498,-8.895 -0.011,-0.79 -1.183,-2.236 -2.06,-2.543 -0.368,-0.128 -0.728,-0.649 -0.8,-1.158 -0.077,-0.538 -0.251,-0.741 -0.416,-0.486"
       id="path38" />
    <path
       d="m 169.213,108.1 c 0.029,1.167 1.088,2.036 1.501,1.233 0.509,-0.987 0.187,-1.733 -0.747,-1.733 -0.422,0 -0.761,0.225 -0.754,0.5"
       id="path37" />
    <path
       d="m 219.68,103.28 c -0.641,0.641 -0.117,1.679 1.359,2.691 1.517,1.039 3.156,0.563 1.719,-0.499 -0.353,-0.261 -0.764,-0.86 -0.913,-1.33 -0.303,-0.955 -1.569,-1.458 -2.165,-0.862"
       id="path36" />
    <path
       d="m 202.489,103.423 c -1.987,1.391 -0.395,4.29 1.963,3.573 1.306,-0.397 2.748,-1.788 2.748,-2.652 0,-1.478 -3.061,-2.077 -4.711,-0.921"
       id="path35" />
    <path
       d="m 228.9,101.47 c -0.965,0.673 -1.144,1.726 -0.5,2.929 0.319,0.597 0.238,0.798 -0.4,1.001 -0.954,0.303 -1.067,1 -0.162,1 1.376,0 2.839,-1.494 2.66,-2.715 -0.105,-0.716 0.073,-1.398 0.466,-1.792 1.243,-1.243 -0.405,-1.58 -2.064,-0.423"
       id="path34" />
    <path
       d="m 170,101.2 c -0.947,0.303 -0.932,0.322 0.3,0.36 0.715,0.022 1.3,-0.14 1.3,-0.36 0,-0.452 -0.188,-0.452 -1.6,0"
       id="path33" />
    <path
       d="m 167.546,100.469 c -1.041,3.375 0.796,5.994 2.88,4.108 0.936,-0.847 0.629,-1.456 -0.58,-1.153 -1.234,0.31 -2.163,-0.759 -1.429,-1.644 0.423,-0.51 0.406,-0.728 -0.097,-1.231 -0.486,-0.487 -0.644,-0.503 -0.774,-0.08"
       id="path32" />
    <path
       d="m 198.981,98.753 c -1.01,1.01 -0.021,1.539 3.319,1.776 4.735,0.336 6.488,-0.263 4.8,-1.639 -0.478,-0.389 -7.744,-0.512 -8.119,-0.137"
       id="path31" />
    <path
       d="m 169.6,97.6 c 0,0.22 0.36,0.4 0.8,0.4 0.44,0 0.8,-0.18 0.8,-0.4 0,-0.22 -0.36,-0.4 -0.8,-0.4 -0.44,0 -0.8,0.18 -0.8,0.4"
       id="path30" />
    <path
       d="m 259.576,94.9 c -0.013,0.275 -0.078,3.56 -0.145,7.3 -0.113,6.287 -0.756,10.788 -1.771,12.4 -0.139,0.22 -0.712,1.537 -1.274,2.927 -2.803,6.935 -12.307,16.589 -15.67,15.916 -0.668,-0.133 -3.105,0.038 -5.415,0.381 -4.857,0.721 -5.138,0.663 -5.923,-1.215 -0.684,-1.637 -2.583,-2.606 -5.127,-2.615 -2.329,-0.009 -3.851,-2.165 -3.851,-5.455 0,-1.552 -2.765,-6.214 -5.143,-8.671 -5.833,-6.028 -14.304,-7.042 -19.132,-2.291 -4.709,4.634 -6.573,7.909 -7.301,12.825 -0.706,4.776 -0.949,5.274 -2.529,5.188 -2.134,-0.117 -2.564,-0.024 -3.537,0.764 l -0.931,0.753 2.197,0.457 c 1.209,0.25 2.823,0.531 3.587,0.623 0.764,0.092 1.868,0.285 2.454,0.43 1.509,0.372 2.315,-0.986 2.281,-3.845 -0.043,-3.563 0.519,-7.694 1.193,-8.772 3.571,-5.716 10.483,-8.585 15.217,-6.316 1.798,0.861 5.308,3.388 5.58,4.016 0.074,0.173 0.401,0.58 0.725,0.904 1.689,1.688 3.335,5.931 3.267,8.416 -0.106,3.834 0.831,5.144 3.789,5.3 2.864,0.151 2.997,0.377 3.737,6.381 1.006,8.157 3.346,8.082 3.346,-0.108 0,-2.02 0.405,-2.405 2.871,-2.726 2.11,-0.275 2.438,0.061 1.818,1.864 -0.368,1.07 -0.158,4.31 0.33,5.099 0.54,0.875 5.781,-3.099 5.781,-4.384 0,-0.634 4.195,-4.446 4.893,-4.446 0.834,0 0.845,0.06 0.254,1.356 -1.771,3.888 2.153,1.291 4.401,-2.912 2.535,-4.739 5.052,-6.437 5.052,-3.408 0,3.413 3.394,0.574 5.065,-4.236 1.359,-3.912 2.935,-15.089 2.431,-17.24 -0.031,-0.133 -0.166,-2.383 -0.3,-5 -0.251,-4.888 -1.205,-10.16 -1.839,-10.16 -0.196,0 -0.368,0.225 -0.381,0.5"
       id="path29" />
    <path
       d="m 181.092,90.642 c -0.161,0.16 -0.292,0.808 -0.292,1.438 v 1.148 l 2.1,-0.269 c 1.155,-0.147 2.64,-0.543 3.3,-0.88 l 1.2,-0.613 -1.077,-0.292 c -1.936,-0.526 -4.933,-0.83 -5.231,-0.532"
       id="path28" />
    <path
       d="m 212.281,90.441 c 0.317,0.317 0.651,0.32 1.18,0.013 0.648,-0.377 0.593,-0.431 -0.441,-0.442 -0.861,-0.009 -1.06,0.108 -0.739,0.429"
       id="path27" />
    <path
       d="m 207.213,90.776 c -0.681,1.272 0.338,1.455 1.52,0.273 L 209.782,90 h -1.077 c -0.656,0 -1.239,0.303 -1.492,0.776"
       id="path26" />
    <path
       d="m 202,90.226 c 0,1.767 1.847,2.214 3.2,0.774 l 0.939,-1 h -2.069 c -1.139,0 -2.07,0.102 -2.07,0.226"
       id="path25" />
    <path
       d="m 181.6,87.176 c 0,1.128 0.551,1.313 2.997,1.007 1.982,-0.248 2.146,-0.342 1.779,-1.028 -0.607,-1.133 -4.776,-1.115 -4.776,0.021"
       id="path24" />
    <path
       d="m 161.458,86.011 c -6.178,1.852 -10.474,8.384 -11.134,16.931 -0.595,7.698 -0.088,10.121 3.439,16.458 2.689,4.831 9.126,12.6 10.44,12.6 0.274,0 0.706,0.249 0.958,0.553 2.064,2.487 8.195,2.639 10.604,0.263 4.041,-3.985 4.844,-4.416 8.236,-4.416 1.762,0 2.195,-0.437 2.578,-2.6 1.229,-6.946 4.686,-12.438 10.114,-16.068 l 2.092,-1.4 -0.62,-1.199 c -0.489,-0.947 -0.529,-1.461 -0.188,-2.44 0.508,-1.455 0.106,-1.877 -1.797,-1.887 -1.545,-0.008 -2.178,-0.641 -2.186,-2.186 -0.019,-3.842 -1.858,-2.884 -3.419,1.781 -2.338,6.983 -4.864,9.901 -9.444,10.911 -10.435,2.3 -13.381,1.703 -17.367,-3.524 -2.164,-2.836 -0.761,-13.436 2.092,-15.806 2.008,-1.668 7.34,-2.419 9.844,-1.385 1.316,0.543 0.619,-1.353 -1.3,-3.534 -2.39,-2.716 -8.923,-4.257 -12.942,-3.052"
       id="path23" />
    <path
       d="m 231.365,84.377 c -2.463,0.589 -2.795,1.265 -0.988,2.013 1.055,0.437 1.18,0.68 1.211,2.349 0.089,4.809 0.034,4.669 1.812,4.586 6.124,-0.288 6.528,-0.264 7.657,0.455 6.688,4.26 6.199,14.696 -0.857,18.317 -5.076,2.605 -17.966,0.335 -22,-3.874 -2.021,-2.108 -4.512,-5.306 -4.77,-6.123 -0.394,-1.249 -1.27,-1.124 -2.639,0.375 -0.911,0.997 -1.065,1.395 -0.707,1.826 0.345,0.416 0.332,0.9 -0.053,1.965 -0.585,1.617 -0.482,1.757 1.969,2.679 2.878,1.082 5.948,4.462 8.042,8.855 0.525,1.1 1.45,2.702 2.056,3.56 0.606,0.858 1.102,1.902 1.102,2.32 0,2.528 1.397,3.502 5.358,3.739 3.206,0.191 3.175,0.173 3.127,1.864 -0.063,2.236 1.396,2.871 4.487,1.951 0.675,-0.201 2.5,-0.741 4.056,-1.199 3.812,-1.125 10.572,-7.644 10.572,-10.196 0,-0.369 0.339,-1.339 0.754,-2.155 1.151,-2.266 0.916,-14.014 -0.35,-17.484 -2.076,-5.691 -4.04,-8.667 -7.86,-11.916 -1.01,-0.859 -9.213,-4.301 -10.111,-4.243 -0.348,0.022 -1.189,0.174 -1.868,0.336"
       id="path22" />
    <path
       d="m 241.482,83.851 c -0.138,0.138 0.453,0.724 1.314,1.302 0.861,0.578 2.366,1.815 3.346,2.749 1.899,1.809 2.258,1.998 2.258,1.186 0,-1.641 -5.983,-6.171 -6.918,-5.237"
       id="path21" />
    <path
       d="m 239.8,83.2 c 1.093,0.469 1.4,0.469 1.4,0 0,-0.22 -0.495,-0.387 -1.1,-0.372 -0.975,0.025 -1.009,0.067 -0.3,0.372"
       id="path20" />
    <path
       d="m 245.048,81.486 c -0.127,0.127 0.8,1.337 2.061,2.689 3.083,3.308 6.011,7.774 7.057,10.766 0.473,1.353 0.966,2.639 1.095,2.859 0.129,0.22 0.358,1.087 0.509,1.926 0.431,2.387 1.25,1.618 1.127,-1.059 -0.074,-1.624 -0.5,-3.056 -1.535,-5.158 -2.629,-5.338 -4.274,-7.62 -6.981,-9.685 -1.09,-0.83 -1.981,-1.651 -1.981,-1.824 0,-0.411 -1.055,-0.812 -1.352,-0.514"
       id="path19" />
    <path
       d="m 233.4,81.6 c -0.151,0.244 0.423,0.389 1.476,0.372 1.33,-0.022 1.541,-0.107 0.924,-0.372 -1.107,-0.476 -2.106,-0.476 -2.4,0"
       id="path18" />
    <path
       d="m 154.4,76.749 c -1.751,0.446 -4,1.402 -4,1.7 0,0.158 -0.54,0.406 -1.2,0.551 -0.66,0.145 -1.2,0.429 -1.2,0.632 0,0.202 -0.199,0.368 -0.442,0.368 -2.215,0 -10.221,9.106 -12.486,14.2 -0.391,0.88 -0.882,1.913 -1.091,2.295 -0.21,0.382 -0.382,0.922 -0.383,1.2 -0.002,0.278 -0.249,0.977 -0.55,1.553 -0.393,0.753 -0.563,2.994 -0.607,7.971 -0.138,16.022 2.737,24.246 11.673,33.381 2.409,2.463 6.286,7.369 6.286,7.954 0,0.116 0.45,0.874 1,1.684 0.82,1.209 1,1.955 1,4.149 0,3.726 -1.542,6.084 -5.402,8.264 -0.866,0.489 -0.856,0.303 -0.374,6.649 0.163,2.145 0.421,3.9 0.574,3.9 1.006,0 3.528,-4.603 4.417,-8.06 1.1,-4.275 2.385,-4.864 2.385,-1.092 0,1.997 0.999,5.78 1.629,6.17 1.403,0.867 1.218,-8.092 -0.215,-10.378 -1.021,-1.627 -1.185,-4.64 -0.254,-4.64 0.604,0 0.917,0.401 1.235,1.583 0.235,0.871 0.602,1.691 0.816,1.824 0.214,0.132 0.389,0.565 0.389,0.963 0,0.923 1.547,2.91 2.032,2.61 1.5,-0.927 -0.521,-6.044 -4.572,-11.573 -4.034,-5.508 -6.648,-9.308 -6.933,-10.08 -0.147,-0.4 -0.842,-1.447 -1.544,-2.327 -8.275,-10.377 -10.812,-17.644 -12.014,-34.419 -0.461,-6.434 4.847,-15.969 12.031,-21.61 1.1,-0.864 2.09,-1.675 2.2,-1.802 0.321,-0.372 2.882,-1.569 3.361,-1.571 0.242,-0.002 0.922,-0.255 1.512,-0.563 0.59,-0.308 1.649,-0.686 2.353,-0.841 0.94,-0.206 1.133,-0.374 0.727,-0.631 -0.61,-0.387 -0.882,-0.388 -2.353,-0.014"
       id="path17" />
    <path
       d="m 160.5,75.876 c 0.385,0.1 1.015,0.1 1.4,0 0.385,-0.101 0.07,-0.183 -0.7,-0.183 -0.77,0 -1.085,0.082 -0.7,0.183"
       id="path16" />
    <path
       d="m 149.837,75 c -0.361,0.55 -0.555,1 -0.432,1 0.455,0 2.195,-1.304 2.195,-1.646 0,-0.731 -1.133,-0.316 -1.763,0.646"
       id="path15" />
    <path
       d="m 153.651,71.96 c -0.999,0.633 -0.313,1.122 1.063,0.757 0.723,-0.191 1.207,-0.52 1.077,-0.732 -0.295,-0.477 -1.407,-0.49 -2.14,-0.025"
       id="path14" />
    <path
       d="m 235.6,71.578 c -6.337,1.118 -9.484,2.973 -13.956,8.224 -3.222,3.785 -3.182,3.998 0.748,3.998 2.488,0 2.614,-0.048 3.153,-1.2 1.181,-2.524 5.314,-5.514 9.29,-6.721 13.223,-4.015 28.496,8.448 29.992,24.474 0.218,2.336 0.482,4.529 0.588,4.873 0.281,0.916 -0.894,14.615 -1.465,17.072 -0.924,3.984 0.777,3.345 2.038,-0.764 0.495,-1.614 1.037,-3.21 1.205,-3.547 0.168,-0.337 0.424,-1.237 0.569,-2 0.145,-0.763 0.516,-2.287 0.825,-3.387 1.796,-6.398 2.013,-9.609 0.995,-14.72 -0.21,-1.056 -0.382,-2.408 -0.382,-3.006 0,-1.559 -1.778,-4.575 -6.4,-10.855 -4.44,-6.034 -13.532,-11.825 -19.8,-12.612 -1.1,-0.138 -2.36,-0.307 -2.8,-0.375 -0.44,-0.069 -2.51,0.177 -4.6,0.546"
       id="path13" />
    <path
       d="m 174.868,71.4 c 0.09,0.516 0.494,0.832 1.136,0.89 0.548,0.049 0.726,-0.017 0.396,-0.147 -0.33,-0.129 -0.841,-0.529 -1.136,-0.889 -0.485,-0.592 -0.523,-0.578 -0.396,0.146"
       id="path12" />
    <path
       d="m 156.6,70.8 c -0.14,0.227 0.196,0.4 0.776,0.4 0.563,0 1.024,-0.18 1.024,-0.4 0,-0.22 -0.349,-0.4 -0.776,-0.4 -0.427,0 -0.888,0.18 -1.024,0.4"
       id="path11" />
    <path
       d="m 203.5,69.903 c -0.385,0.086 -0.771,0.547 -0.859,1.026 -0.087,0.479 -0.37,1.861 -0.628,3.071 -1.445,6.763 -1.266,8.874 0.831,9.82 2.176,0.981 2.742,0.254 2.306,-2.965 -0.168,-1.24 -0.378,-4.193 -0.467,-6.561 -0.175,-4.675 -0.16,-4.619 -1.183,-4.391"
       id="path10" />
    <path
       d="m 162.6,69.6 c -0.147,0.239 0.337,0.4 1.2,0.4 0.863,0 1.347,-0.161 1.2,-0.4 -0.136,-0.22 -0.676,-0.4 -1.2,-0.4 -0.524,0 -1.064,0.18 -1.2,0.4"
       id="path9" />
    <path
       d="m 156.342,66.592 c -0.106,0.105 -1.099,0.262 -2.207,0.349 -3.094,0.241 -7.046,3.028 -9.635,6.792 -1.89,2.748 -1.698,4.885 0.207,2.307 0.471,-0.637 1.72,-1.751 2.775,-2.474 1.055,-0.723 2.794,-1.913 3.864,-2.644 1.07,-0.731 2.33,-1.402 2.8,-1.491 5.332,-1.006 7.136,-1.828 5.828,-2.655 -0.6,-0.38 -3.3,-0.517 -3.632,-0.184"
       id="path8" />
    <path
       d="m 228.048,62.77 c -2.687,1.426 -8.009,6.199 -8.508,7.631 -0.206,0.589 -1.059,1.586 -1.896,2.216 -3.706,2.788 -3.242,4.296 0.576,1.872 3.198,-2.03 7.295,-3.313 13.509,-4.228 2.204,-0.325 3.242,-0.665 3.513,-1.15 0.778,-1.392 -1.13,-1.418 -7.242,-0.098 -7.14,1.542 -7.178,1.437 -0.724,-1.945 4.862,-2.547 5.524,-3.039 5.524,-4.101 0,-0.532 -0.225,-0.969 -0.5,-0.972 -0.275,-0.003 -0.86,-0.087 -1.3,-0.186 -0.44,-0.099 -1.769,0.333 -2.952,0.961"
       id="path7" />
    <path
       d="m 180.5,61.47 c -1.379,0.962 -1.127,1.598 1.9,4.785 2.483,2.614 3.264,3.745 2.587,3.745 -0.436,0 -4.166,-2.013 -5.905,-3.186 -1.744,-1.178 -4.282,-1.66 -4.282,-0.814 0,0.22 0.347,0.4 0.771,0.4 0.425,0 1.042,0.27 1.372,0.6 0.33,0.33 0.765,0.6 0.967,0.6 0.323,0 0.912,0.423 2.773,1.993 0.266,0.224 0.669,0.407 0.897,0.407 0.227,0 1.614,1.177 3.081,2.616 2.553,2.503 3.057,2.791 4.639,2.647 1.546,-0.14 0.184,-2.863 -1.431,-2.863 -0.933,0 -0.838,-0.663 0.131,-0.916 1.416,-0.37 1.021,-2.41 -1.048,-5.407 -3.507,-5.078 -4.628,-5.879 -6.452,-4.607"
       id="path6" />
    <path
       d="m 190.351,47.5 c -0.495,1.27 -0.165,6.153 0.5,7.395 0.241,0.45 0.776,2.008 1.19,3.462 0.413,1.454 1.014,3.183 1.335,3.843 0.722,1.485 2.739,8.005 3.436,11.105 0.892,3.967 2.341,3.968 1.818,0 -0.138,-1.048 -0.402,-5.415 -0.586,-9.705 -0.424,-9.843 -0.521,-10.31 -2.65,-12.629 -0.95,-1.034 -2.053,-2.486 -2.452,-3.226 -0.885,-1.644 -2.004,-1.749 -2.591,-0.245"
       id="path5" />
    <path
       d="m 214.667,45.067 c -0.147,0.146 -0.267,0.65 -0.267,1.12 0,0.469 -0.218,1.071 -0.485,1.338 -0.267,0.267 -0.617,1.698 -0.778,3.18 -0.481,4.414 -1.09,8.591 -1.503,10.295 -0.212,0.88 -0.677,3.04 -1.033,4.8 -0.355,1.76 -0.986,4.73 -1.401,6.6 -1.247,5.615 -1.372,7.048 -0.639,7.33 0.488,0.187 0.738,-0.169 1.086,-1.55 0.248,-0.987 0.609,-1.891 0.802,-2.01 0.193,-0.12 0.351,-0.497 0.351,-0.84 0,-0.342 1.276,-3.167 2.836,-6.276 4.878,-9.722 6.115,-15.176 4.615,-20.337 -0.842,-2.898 -2.574,-4.661 -3.584,-3.65"
       id="path4" />
    <path
       d="m 201.108,36.577 c -2.112,2.906 -2.955,8.688 -1.869,12.823 0.232,0.88 0.476,4.18 0.544,7.333 0.159,7.371 1.418,8.233 2.38,1.629 0.33,-2.27 1.637,-5.797 2.097,-5.662 0.516,0.152 1.646,4.007 1.941,6.625 0.256,2.267 0.99,3.258 1.796,2.428 0.727,-0.749 1.702,-8.305 1.414,-10.953 -0.155,-1.43 -0.265,-3.075 -0.244,-3.655 0.022,-0.591 -0.563,-1.951 -1.33,-3.09 -0.753,-1.119 -1.84,-2.984 -2.416,-4.144 -2.365,-4.769 -2.944,-5.217 -4.313,-3.334"
       id="path3" />
    <path
       d="m 206.875,35.321 c 1.56,1.537 2.7,3.028 2.846,3.721 0.134,0.637 0.834,1.778 1.554,2.535 l 1.309,1.377 0.562,-1.477 c 0.31,-0.812 0.788,-1.477 1.063,-1.477 1.111,0 5.011,2.94 5.256,3.963 0.137,0.57 0.696,1.929 1.241,3.02 1.114,2.229 1.534,10.772 0.609,12.407 -1.099,1.941 0.424,2.659 2.594,1.223 3.887,-2.572 9.841,-3.412 12.143,-1.713 2.201,1.625 2.96,4.575 1.448,5.63 -0.865,0.604 -0.812,0.629 1.351,0.649 1.375,0.013 2.425,0.23 2.698,0.559 0.506,0.61 1.836,1.215 7.251,3.297 2.09,0.804 4.373,1.889 5.073,2.413 0.701,0.524 1.448,0.952 1.662,0.952 1.751,0 10.865,9.127 12.815,12.834 0.743,1.411 1.577,2.836 1.855,3.166 1.076,1.281 2.527,4.725 3.118,7.4 1.621,7.337 1.614,7.275 1.112,9.277 -1.227,4.891 -1.755,6.826 -2.217,8.123 -0.275,0.77 -1.413,4.1 -2.529,7.4 -2.422,7.156 -3.19,9.332 -3.671,10.4 -0.199,0.44 -0.671,1.79 -1.051,3 -0.379,1.21 -0.946,2.595 -1.259,3.077 -1.779,2.739 -0.187,9.184 3.25,13.161 1.967,2.276 3.146,0.936 1.442,-1.638 -1.207,-1.822 -1.004,-2.71 1.053,-4.606 l 1.852,-1.708 -0.719,-1.243 c -0.395,-0.684 -1.243,-1.85 -1.883,-2.592 -2.058,-2.384 0.454,-6.051 4.143,-6.051 0.629,0 6.274,5.766 7.855,8.023 2.056,2.935 3.494,13.697 2.346,17.552 -1.315,4.412 -6.736,7.825 -12.431,7.825 -3.733,0 -4.953,0.823 -3.45,2.326 2.203,2.203 -0.21,3.958 -5.532,4.021 l -4.397,0.053 -3.594,3.909 c -4.277,4.653 -7.588,9.386 -8.743,12.5 -0.243,0.655 -0.831,2.181 -1.306,3.391 -2.251,5.736 -3.853,14.378 -3.299,17.8 0.814,5.033 4.745,7.326 7.238,4.223 1.439,-1.79 1.487,-2.175 0.661,-5.223 l -0.597,-2.2 1.208,-1.1 c 1.483,-1.351 1.771,-1.361 3.031,-0.1 1.712,1.711 1.908,1.363 1.611,-2.861 -0.468,-6.656 5.327,-8.387 7.158,-2.139 0.161,0.55 0.428,1.18 0.593,1.4 1.629,2.167 0.859,10.834 -1.164,13.114 -0.645,0.727 -0.795,0.872 -3.805,3.692 -4.391,4.114 -18.41,5.53 -22.353,2.257 -0.871,-0.723 -1.843,-0.145 -1.806,1.073 0.028,0.911 -0.96,4.089 -2.528,8.135 -0.228,0.589 -1.088,1.537 -1.912,2.108 -1.034,0.717 -1.956,1.956 -2.987,4.014 -0.977,1.95 -2.172,3.589 -3.467,4.753 -1.412,1.269 -1.976,2.075 -1.976,2.823 0,0.576 -0.418,1.718 -0.929,2.539 -1.852,2.974 -1.684,3.558 2.195,7.627 1.466,1.538 3.04,3.641 3.497,4.675 0.773,1.746 0.908,1.857 1.934,1.578 2.216,-0.602 5.813,0.843 8.082,3.248 1.219,1.293 1.442,2.964 0.395,2.964 -2.039,0 -4.373,3.941 -4.758,8.032 -0.728,7.737 -5.3,13.983 -12.416,16.963 -3.513,1.472 -3.597,2.038 -0.513,3.488 0.982,0.461 1.844,1.036 1.916,1.278 0.071,0.241 0.232,0.908 0.357,1.482 0.168,0.774 0.67,1.213 1.946,1.7 2.961,1.131 6.784,4.655 8.414,7.757 1.644,3.128 2.645,4.216 3.433,3.729 1.332,-0.823 1.953,-0.04 2.146,2.706 0.218,3.093 0.113,3.283 -1.917,3.444 -1.88,0.149 -2.582,1.037 -2.582,3.266 0,1.798 -3.456,6.285 -6.1,7.92 -0.937,0.579 -1.1,0.948 -1.1,2.484 0,2.22 -0.478,3.164 -2,3.951 -1.66,0.859 -2.027,1.783 -2.192,5.518 -0.08,1.805 -0.363,4.4 -0.63,5.767 -0.374,1.922 -0.378,3.645 -0.02,7.6 0.255,2.813 0.633,9.795 0.839,15.515 0.501,13.908 1.455,25.631 2.461,30.23 0.454,2.073 0.903,4.4 0.999,5.17 0.46,3.7 1.849,11.889 2.137,12.6 0.178,0.44 0.723,2.69 1.211,5 0.487,2.31 1.238,5.46 1.668,7 0.43,1.54 1.014,3.97 1.298,5.4 0.283,1.43 0.747,3.77 1.03,5.2 0.454,2.292 1.816,6.707 3.825,12.4 0.35,0.99 1.072,2.67 1.605,3.733 1.562,3.116 0.832,7.667 -1.231,7.667 -1.262,0 -1.726,0.48 -3.221,3.33 -3.696,7.047 -4.031,7.463 -7.857,9.74 -3.528,2.101 -3.665,2.29 -2.93,4.05 0.572,1.368 0.555,1.482 -0.397,2.613 -0.547,0.65 -0.995,1.279 -0.995,1.396 0,0.343 3.591,2.671 4.12,2.672 0.264,0 1.29,0.72 2.28,1.599 0.99,0.879 1.91,1.599 2.044,1.599 0.135,10e-4 1.002,1.172 1.927,2.602 1.839,2.844 1.852,3.246 0.179,5.711 -0.534,0.786 -1.065,1.893 -1.181,2.459 -0.376,1.837 -1.504,3.678 -2.6,4.245 -1.596,0.825 -1.738,1.697 -0.555,3.404 2.048,2.955 2.826,8.88 1.562,11.893 -0.362,0.864 -0.528,1.999 -0.396,2.711 0.206,1.105 0.072,1.312 -1.375,2.125 -0.912,0.513 -1.679,1.278 -1.781,1.776 -0.413,2.024 -0.735,10.62 -0.677,18.075 0.063,8.114 -0.476,19.228 -1.146,23.6 -0.202,1.32 -0.477,6 -0.611,10.4 -0.134,4.4 -0.347,11.15 -0.475,15 -0.127,3.85 -0.361,14.65 -0.519,24 -0.213,12.577 -0.458,18.087 -0.943,21.178 -0.36,2.297 -0.678,5.858 -0.707,7.911 l -0.052,3.735 -3.647,3.751 -3.647,3.752 -3.654,0.275 c -2.569,0.194 -3.922,0.132 -4.558,-0.208 -0.706,-0.378 -1.223,-0.378 -2.367,-10e-4 -1.814,0.599 -3.205,0.421 -3.771,-0.482 -0.649,-1.035 0.097,-1.515 2.435,-1.568 2.551,-0.057 3.492,-0.553 1.768,-0.931 -1.403,-0.309 -1.596,-0.78 -0.556,-1.362 0.947,-0.531 0.653,-0.697 -1.783,-1.008 -1.97,-0.251 -2.147,-0.198 -3.166,0.946 -2.456,2.757 -4.641,0.577 -6.202,-6.188 -0.261,-1.131 -0.582,-7.735 -0.739,-15.2 -0.337,-16.05 -0.596,-16.99 -4.693,-17.006 -2.795,-0.011 -2.987,-0.902 -1.49,-6.923 0.165,-0.664 0.081,-1.502 -0.205,-2.035 -0.369,-0.69 -0.377,-1.305 -0.035,-2.577 0.248,-0.919 0.342,-2.253 0.209,-2.965 -0.202,-1.088 0.019,-1.641 1.386,-3.47 1.89,-2.528 1.853,-3.216 -0.271,-5.075 -1.29,-1.129 -1.405,-1.395 -1.187,-2.741 0.276,-1.698 -0.045,-3.808 -0.58,-3.808 -0.451,0 -1.021,1.381 -1.321,3.2 -0.139,0.845 -0.863,2.101 -1.825,3.168 -1.956,2.168 -1.988,3.025 -0.199,5.276 1.666,2.096 2.052,6.936 0.73,9.173 -0.554,0.938 -0.589,1.326 -0.2,2.181 0.623,1.366 0.607,4.673 -0.026,5.512 -0.454,0.602 -1.28,0.629 -8.9,0.295 -12.218,-0.536 -26.911,-0.896 -38.9,-0.954 L 120,614.2 v -1.22 c 0,-0.671 0.225,-1.445 0.5,-1.719 0.35,-0.349 0.56,-2.801 0.7,-8.18 l 0.2,-7.681 h 6 6 l 0.03,2.895 c 0.032,3.14 0.688,4.905 1.824,4.905 1.364,0 1.68,-1.435 0.928,-4.212 -0.956,-3.529 -0.786,-3.787 2.505,-3.794 3.468,-0.008 4.306,-0.481 2.914,-1.646 -0.818,-0.685 -1.345,-0.795 -2.912,-0.609 -2.944,0.348 -3.089,0.201 -3.089,-3.136 0,-2.737 0.066,-2.953 1.1,-3.62 1.889,-1.216 2.929,-2.441 2.663,-3.135 -0.344,-0.896 -0.449,-0.855 -2.38,0.925 -1.207,1.113 -1.945,1.51 -2.526,1.358 -0.994,-0.26 -1.209,0.449 -1.355,4.469 l -0.102,2.8 -2.116,0.121 c -1.335,0.077 -2.575,-0.107 -3.361,-0.5 -1.565,-0.78 -2.11,-0.779 -3.311,0.008 -2.302,1.508 -3.184,0.738 -3.47,-3.029 -0.141,-1.87 -0.374,-4.93 -0.516,-6.8 -0.143,-1.87 -0.421,-3.995 -0.617,-4.723 -0.496,-1.838 -0.521,-1.834 10.275,-1.504 10.864,0.332 10.23,0.196 11.573,2.487 2.04,3.482 5.429,3.772 7.866,0.675 1.159,-1.474 3.644,-2.604 4.778,-2.173 0.518,0.197 2.147,0.262 3.62,0.143 2.119,-0.17 2.681,-0.099 2.687,0.34 0.004,0.305 0.124,2.625 0.265,5.155 0.142,2.53 0.222,5.005 0.179,5.5 -0.153,1.735 -0.088,3.917 0.172,5.833 0.231,1.704 0.144,2.06 -0.732,3 -2.805,3.01 -2.495,5.341 0.866,6.512 3.158,1.101 5.936,-4.102 3.442,-6.445 -1.018,-0.956 -1.366,-2.927 -0.6,-3.4 0.609,-0.376 0.478,-2.716 -0.249,-4.451 -0.522,-1.246 -0.597,-2.309 -0.383,-5.427 0.191,-2.785 0.127,-4.102 -0.227,-4.668 -1.369,-2.192 6.024,-2.764 8.525,-0.66 2.256,1.898 6.081,1.598 8.333,-0.654 0.916,-0.917 1.493,-1.14 2.947,-1.14 0.994,0 1.912,-0.171 2.042,-0.38 0.292,-0.473 -1.046,-1.22 -2.185,-1.22 -0.497,0 -1.527,-0.744 -2.484,-1.795 -1.283,-1.41 -1.9,-1.791 -2.876,-1.776 -0.684,0.011 -1.786,-0.095 -2.451,-0.236 -1.027,-0.218 -1.487,-0.01 -3.08,1.392 -3.901,3.434 -11.539,3.218 -9.386,-0.265 0.111,-0.179 0.054,-3.744 -0.127,-7.923 -0.349,-8.095 -0.413,-7.693 1.619,-10.219 0.678,-0.843 0.749,-1.213 0.406,-2.115 -1.475,-3.879 -6.471,-4.203 -8.43,-0.547 -1.202,2.242 -1.021,2.837 1.555,5.104 2.727,2.401 3.443,5.408 2.176,9.139 -0.329,0.969 -0.501,2.23 -0.382,2.802 1.389,6.668 1.614,6.291 -3.651,6.114 -4.283,-0.144 -4.295,-0.147 -5.556,-1.493 -1.956,-2.086 -3.01,-2.16 -6.34,-0.446 -3,1.545 -5.945,1.955 -6.932,0.968 -0.338,-0.338 -2.062,-0.507 -5.38,-0.527 -3.079,-0.019 -5.267,-0.218 -5.919,-0.538 -0.847,-0.416 -1.394,-0.406 -3,0.053 -3.668,1.048 -3.722,0.958 -3.959,-6.673 -0.094,-3.012 -0.285,-5.839 -0.426,-6.282 -0.863,-2.718 0.771,-4.375 3.557,-3.605 0.915,0.252 2.503,0.261 4.405,0.025 4.291,-0.532 5.058,-0.159 5.058,2.459 0,3.528 1.243,4.652 2.521,2.278 0.585,-1.085 0.626,-1.526 0.245,-2.62 -0.62,-1.777 -0.445,-1.866 3.767,-1.929 2.017,-0.03 4.108,-0.227 4.647,-0.438 l 0.98,-0.384 -1.071,-1.07 c -1.054,-1.054 -1.128,-1.066 -4.835,-0.806 -4.334,0.305 -4.541,0.138 -4.033,-3.245 0.298,-1.991 -0.197,-3.002 -1.47,-3.002 -0.855,0 -0.892,0.135 -0.926,3.35 -0.032,3.017 -0.526,3.393 -3.516,2.676 -1.472,-0.353 -2.739,-0.409 -3.94,-0.173 -4.272,0.838 -5.28,0.191 -4.808,-3.09 0.14,-0.97 0.151,-2.393 0.025,-3.163 -0.126,-0.77 -0.158,-4.19 -0.07,-7.6 0.171,-6.637 0.47,-7.551 2.284,-6.992 2.512,0.775 9.57,1.048 21.6,0.834 31.579,-0.56 35.496,-0.654 35.819,-0.854 0.848,-0.524 1.145,1.835 1.205,9.554 0.065,8.397 -0.099,9.458 -1.463,9.458 -2.031,0 -1.94,3.887 0.115,4.873 1.035,0.497 1.124,0.718 1.126,2.802 0.002,2.544 0.063,2.665 1.423,2.816 0.944,0.106 0.971,0.038 0.844,-2.149 -0.119,-2.06 -0.037,-2.324 0.928,-3 3.352,-2.35 3.521,-3.367 0.909,-5.466 l -1.588,-1.276 0.278,-2.2 c 0.337,-2.655 0.334,-4.438 -0.013,-8.437 -0.312,-3.588 0.601,-6.071 2.397,-6.522 1.009,-0.253 1.012,-0.27 0.96,-4.548 l -0.053,-4.293 -1.843,-1.715 -1.844,-1.715 v -4.094 -4.094 l 1.5,-2.045 c 1.773,-2.417 1.798,-2.658 0.511,-5.078 -0.544,-1.023 -1.275,-2.845 -1.626,-4.05 -0.52,-1.79 -0.936,-2.393 -2.273,-3.3 -3.008,-2.038 -2.991,-4.626 0.032,-5.134 2.466,-0.415 2.62,-0.521 3.873,-2.678 1.301,-2.241 4.858,-5.036 6.459,-5.075 0.984,-0.025 1.556,-0.704 1.399,-1.661 -0.057,-0.351 0.172,-0.868 0.51,-1.149 1.315,-1.091 0.403,-4.129 -1.431,-4.768 -1.316,-0.459 -2.012,-1.097 -4.179,-3.832 -0.866,-1.094 -1.876,-2.354 -2.244,-2.8 -3.292,-3.994 -3.931,-4.885 -3.931,-5.48 0,-0.375 -0.801,-1.257 -1.78,-1.96 -3.509,-2.521 -3.559,-3.307 -0.732,-11.572 1.576,-4.607 1.883,-5.479 2.326,-6.6 0.261,-0.66 0.698,-2.1 0.971,-3.2 0.273,-1.1 0.818,-3.08 1.21,-4.4 0.592,-1.994 1.577,-9.2 1.558,-11.4 -0.003,-0.33 0.195,-2.58 0.439,-5 0.245,-2.42 0.536,-5.66 0.648,-7.2 0.111,-1.54 0.476,-5.95 0.809,-9.8 0.334,-3.85 0.605,-7.27 0.602,-7.6 -0.003,-0.33 0.172,-2.49 0.389,-4.8 0.437,-4.65 0.509,-5.783 1.109,-17.6 0.229,-4.51 0.554,-10.81 0.721,-14 0.168,-3.19 0.311,-10.39 0.318,-16 l 0.012,-10.2 -1.867,0.133 c -2.524,0.18 -3.709,-0.905 -3.346,-3.063 0.231,-1.371 0.109,-1.605 -1.802,-3.47 -2.24,-2.185 -3.334,-4.015 -3.739,-6.247 -0.156,-0.861 -0.826,-2.027 -1.654,-2.88 -2.047,-2.108 -1.985,-4.136 0.18,-5.85 1.058,-0.839 1.782,-1.862 2.218,-3.134 0.705,-2.059 4.046,-7.209 5.01,-7.722 0.33,-0.176 1.05,-0.412 1.6,-0.526 1.914,-0.395 2.427,-1.129 2.893,-4.138 0.49,-3.168 1.393,-4.007 3.481,-3.234 1.491,0.551 4.689,-0.012 3.746,-0.661 -0.396,-0.272 -1.35,-0.612 -2.12,-0.755 -2.089,-0.388 -6.125,-3.128 -7.865,-5.338 -1.6,-2.033 -1.957,-2.674 -4.374,-7.867 -1.566,-3.366 -3.01,-5.003 -6.917,-7.849 -2.747,-2 -3.07,-3.024 -1.53,-4.848 1.554,-1.84 5.267,-3.273 7.11,-2.744 0.711,0.204 1.261,0.18 1.409,-0.061 0.135,-0.218 0.658,-0.552 1.162,-0.744 0.597,-0.227 1.411,-1.371 2.332,-3.275 0.925,-1.914 2.533,-4.168 4.644,-6.512 3.645,-4.047 3.718,-4.273 1.958,-6.089 -1.179,-1.215 -1.232,-1.386 -0.729,-2.327 0.418,-0.78 0.434,-1.125 0.072,-1.487 -0.26,-0.26 -0.472,-1.026 -0.472,-1.703 0,-1.218 -0.69,-2.094 -2.352,-2.983 -1.176,-0.63 -6.442,-10.28 -6.446,-11.813 -0.003,-1.217 -1.228,-4.137 -1.832,-4.369 -0.533,-0.205 -4.314,0.511 -6.872,1.3 -2.751,0.848 -8.586,-0.258 -11.111,-2.106 -4.664,-3.415 -6.323,-7.086 -6.345,-14.038 -0.028,-9.121 3.276,-10.821 5.752,-2.958 1.474,4.682 1.489,4.698 2.728,2.788 1.886,-2.909 2.505,-2.757 4.897,1.201 4.565,7.556 8.849,6.794 9.483,-1.686 0.384,-5.128 -5.449,-12.979 -12.116,-16.309 -1.01,-0.505 -3.037,-1.619 -4.505,-2.477 -1.468,-0.857 -3.067,-1.559 -3.555,-1.559 -0.895,0 -5.076,-0.998 -5.639,-1.346 -0.167,-0.104 -0.261,-3.122 -0.209,-6.707 l 0.095,-6.519 -2.086,2.186 c -3.08,3.226 -6.266,5.586 -7.543,5.586 -0.787,0 -0.853,-0.176 -0.909,-2.4 l -0.035,-1.4 -2.513,-0.2 c -4.696,-0.374 -10.887,-9.912 -10.887,-16.774 0,-3.357 3.128,-12.785 4.552,-13.72 2.437,-1.6 3.929,0.897 4.22,7.057 0.272,5.765 0.919,6.473 2.959,3.233 1.68,-2.666 5.469,-2.072 5.469,0.858 0,0.994 1.512,0.566 2.61,-0.739 2.226,-2.646 0.908,-5.984 -4.534,-11.475 -1.692,-1.707 -3.256,-3.359 -3.476,-3.672 -0.22,-0.313 -0.94,-1.288 -1.6,-2.167 -4.666,-6.214 -7.191,-11.765 -8.006,-17.601 -0.154,-1.1 -0.597,-2.994 -0.985,-4.209 -0.897,-2.807 -0.558,-12.397 0.529,-14.94 0.364,-0.852 0.662,-1.866 0.662,-2.254 0,-0.388 0.605,-2.571 1.344,-4.851 1.281,-3.95 2.358,-6.042 4.71,-9.153 0.579,-0.766 1.188,-1.843 1.353,-2.393 0.166,-0.55 0.547,-1.355 0.847,-1.789 0.3,-0.434 0.546,-1.571 0.546,-2.527 0,-1.237 0.288,-2.115 1,-3.048 0.55,-0.722 1,-1.42 1,-1.554 0,-0.683 2.628,-3.978 4.798,-6.016 2.552,-2.395 2.997,-2.653 6.002,-3.475 3.48,-0.951 9.6,-3.098 10.197,-3.577 2.297,-1.843 10.783,-1.164 11.076,0.885 0.171,1.2 1.158,1.316 2.349,0.276 0.538,-0.47 1.799,-1.272 2.803,-1.783 1.004,-0.511 2.061,-1.214 2.349,-1.561 0.895,-1.078 3.974,-0.246 6.529,1.764 1.659,1.306 1.664,0.644 0.042,-6.395 -0.86,-3.737 -0.89,-8.125 -0.066,-9.721 1.244,-2.411 5.325,-3.001 7.161,-1.037 0.638,0.684 1.163,1.179 1.167,1.1 0.291,-6.292 0.279,-6.235 1.809,-8.539 3.546,-5.344 4.443,-5.431 9.059,-0.882"
       id="path2" />
    <path
       d="M 0,363.6 V 727.2 H 200 400 V 363.6 0 H 200 0 v 363.6"
       id="path1" />
  </g>
</svg>
