<?xml version="1.0" encoding="UTF-8" standalone="no"?>
<svg
   version="1.0"
   width="300.000000pt"
   height="545.000000pt"
   viewBox="0 0 300.000000 545.000000"
   preserveAspectRatio="xMidYMid meet"
   id="svg6"
   sodipodi:docname="key_detail_outline.svg"
   inkscape:version="1.3.2 (091e20e, 2023-11-25)"
   xmlns:inkscape="http://www.inkscape.org/namespaces/inkscape"
   xmlns:sodipodi="http://sodipodi.sourceforge.net/DTD/sodipodi-0.dtd"
   xmlns="http://www.w3.org/2000/svg"
   xmlns:svg="http://www.w3.org/2000/svg">
  <sodipodi:namedview
     id="namedview6"
     pagecolor="#ffffff"
     bordercolor="#000000"
     borderopacity="0.25"
     inkscape:showpageshadow="2"
     inkscape:pageopacity="0.0"
     inkscape:pagecheckerboard="0"
     inkscape:deskcolor="#d1d1d1"
     inkscape:document-units="pt"
     inkscape:zoom="1.3686253"
     inkscape:cx="178.28108"
     inkscape:cy="195.45159"
     inkscape:window-width="944"
     inkscape:window-height="796"
     inkscape:window-x="0"
     inkscape:window-y="25"
     inkscape:window-maximized="0"
     inkscape:current-layer="svg6" />
  <defs
     id="defs6" />
  <metadata
     id="metadata1">
Created by potrace 1.10, written by Peter Selinger 2001-2011
</metadata>
  <g
     transform="translate(0.000000,545.000000) scale(0.050000,-0.050000)"
     fill="#000000"
     stroke="none"
     id="g6">
    <path
       d="m 3430,7763 v -97 l -65,42 c -81,52 -81,63 0,112 36,22 65,40 65,40 0,0 0,-44 0,-97 z"
       id="path49" />
    <path
       d="m 2888,7831 57,-47 -76,-91 c -79,-95 -110,-109 -68,-32 13,25 19,83 14,132 -12,100 -6,103 73,38 z"
       id="path48" />
    <path
       d="m 3246,8001 c 134,-57 135,-60 45,-109 -68,-37 -89,-35 -155,12 -27,20 -41,17 -76,-14 -41,-37 -42,-37 -85,6 -23,23 -39,46 -34,50 40,34 171,113 179,109 6,-3 63,-27 126,-54 z"
       id="path45" />
    <path
       d="m 2708,8245 c -2,-145 -31,-180 -92,-111 -84,97 -39,229 84,245 6,0 9,-60 8,-134 z"
       id="path40" />
    <path
       d="m 3196,8369 c 41,-17 89,-50 108,-75 28,-36 41,-40 72,-21 44,27 84,-21 84,-101 0,-116 -55,-140 -191,-83 -79,33 -101,71 -72,125 29,54 -8,106 -76,106 -74,0 -102,-37 -96,-131 5,-71 -1,-80 -65,-111 -125,-60 -199,48 -128,186 l 34,66 19,-55 c 23,-69 41,-69 86,0 80,121 119,138 225,94 z"
       id="path38" />
    <path
       d="m 3622,8394 c 78,-53 81,-105 11,-204 l -43,-60 -11,81 c -6,45 -30,109 -54,142 -69,96 -17,118 97,41 z"
       id="path37" />
    <path
       d="m 2992,8955 c 17,27 27,18 55,-52 37,-93 73,-94 73,-2 0,33 8,59 18,59 10,0 32,5 48,11 21,8 32,-10 41,-67 10,-64 20,-77 58,-76 35,2 46,-10 51,-53 4,-30 4,-55 0,-55 -3,0 -69,-18 -146,-40 l -139,-40 -136,52 c -74,28 -135,62 -135,75 1,49 36,76 92,70 56,-7 58,-4 55,72 -2,65 2,73 21,47 22,-30 26,-30 44,-1 z"
       id="path25" />
    <path
       d="m 2581,9600 c 83,-45 82,-91 -2,-91 -100,0 -123,-24 -134,-143 -24,-251 359,-252 409,-1 14,72 46,91 60,37 6,-23 23,-42 37,-42 49,0 21,-88 -46,-147 -42,-37 -75,-91 -90,-146 -17,-64 -33,-87 -61,-87 -21,0 -66,-23 -99,-51 -101,-85 -219,-30 -329,154 -170,285 9,648 255,517 z"
       id="path17" />
    <path
       d="m 3583,9612 c 231,-97 273,-556 59,-643 -112,-46 -146,-48 -156,-8 -7,26 -28,39 -63,39 -44,0 -63,19 -112,113 -33,63 -84,128 -114,145 -54,31 -62,65 -29,119 12,19 28,8 63,-43 75,-110 268,-167 375,-111 137,72 88,277 -66,277 -68,0 -74,5 -69,50 3,28 -3,50 -13,50 -10,0 -18,9 -18,20 0,28 64,25 143,-8 z"
       id="path16" />
    <path
       d="m 2982,10382 c -23,-32 -42,-75 -42,-95 0,-29 -15,-37 -65,-37 -70,0 -88,-75 -50,-213 14,-52 13,-53 -41,-32 -45,17 -67,14 -110,-14 l -137,9 c -179,0 -437,-158 -437,-269 0,-23 -21,-73 -47,-111 -183,-271 -149,-610 88,-871 96,-106 122,-173 78,-200 -12,-7 -35,4 -50,24 -28,35 -30,35 -56,2 -41,-52 -50,-44 -57,50 -9,125 -73,120 -113,-9 -45,-145 37,-356 138,-356 22,0 39,-13 39,-30 0,-49 53,-34 107,30 66,79 69,77 58,-39 -10,-96 -8,-99 48,-113 205,-49 388,-254 328,-366 -31,-58 -73,-53 -114,13 -19,30 -37,59 -40,63 -4,4 -20,-4 -37,-18 -26,-21 -34,-16 -52,37 -45,129 -116,41 -91,-113 20,-127 113,-191 257,-178 99,9 120,5 129,-23 21,-65 94,-193 120,-209 15,-9 27,-36 27,-61 0,-25 9,-54 20,-65 12,-12 1,-40 -32,-79 -29,-32 -64,-83 -80,-113 -20,-38 -46,-55 -91,-60 -103,-10 -116,-60 -36,-140 38,-38 93,-110 123,-162 47,-81 65,-95 135,-106 l -0.38,-2.4527 C 2837.3982,6513.7782 2820,6489 2820,6437 c 0,-22 -16,-45 -35,-50 -19,-5 -65,-56 -101,-112 l -66,-103 36,-71 c 19,-39 51,-89 70,-111 18,-22 33,-49 32,-60 -1,-11 17,-29 40,-39 59,-28 44,-484 -47,-1411 -6,-60 -33,-182 -60,-271 -27,-89 -49,-173 -49,-187 0,-33 166,-248 220,-284 54,-36 37,-88 -42,-129 -32,-17 -58,-39 -58,-50 0,-11 -22,-29 -50,-39 -48,-18 -71,-80 -30,-80 42,0 91,-139 64,-181 -34,-55 -31,-172 6,-186 34,-13 43,-173 10,-173 -28,0 -25,-247 4,-276 18,-18 15,-32 -10,-60 -64.3402,-33.6997 40.3184,-92.8439 -65,-82 -7,11 -8,26 -1,33 7,6 -4,29 -23,50 -32,36 -32,40 -1,63 25,19 32,53 29,153 l -3,129 h -455 -455 v -153 -154 h 90 c 82,0 90,5 90,49 0,26 9,48 20,48 11,0 20,-22 20,-50 0,-44 9,-50 69,-50 38,0 74,-9 81,-20 12,-19 -40,-29 -115,-21 -19,2 -35,-1 -35,-6 0,-6 4.6052,-21.6174 0.8155,-38.8643 0.4671,9.7713 -0.8155,2.2498 -0.8155,-36.1357 0,-11 -9,-15 -20,-8 -11,7 -20,30 -20,51 0,34 -14,39 -102,39 -97,0 -102,-3 -91,-45 7,-25 13,-82 13,-127 v -82 l 185,3 c 102,2 200,10 217,18 20,10 45,3 64,-16 17,-17 58,-31 90,-31 76,0 95,225 23,275 -53,37 -25,125 41,125 37,0 83,-65 61,-87 -11,-11 -21,-87 -21,-167 0,-163 23,-182 140,-113 30,18 68,27 83,19 73,-37 125,-72 112,-74 -32,-6 -47,-12 -97,-36 -40,-20 -63,-21 -94,-4 -93,50 -134,30 -129,-63 18,-275 16,-304 -20,-311 -45,-9 -66,46 -40,102 11,24 18,80 15,124 -3,44 -7,100 -8,125 -3,57 -90,62 -180,10 -59,-34 -62,-34 -91,8 -25,36 -51,43 -160,45 -71,1 -140,4 -153,7 -17,3 -23,-30 -19,-115 5,-133 13,-157 47,-137 12,8 52,13 88,10 l 66,-4 -3,91 c 11.7463,40.9481 -26.5367,110.397 2,113 1,-23 7,-23 31,-3 49.2458,32.0302 14.4132,-21.7817 -1,-41 3.572,-24.7596 -9.7741,-26.8269 -10,-46 -0.2,-16.9694 21,-42 21,-67 0,-32 12,-46 39,-46 21,0 44,-9 51,-20 7,-11 -10,-20 -40,-20 -49,0 -52,-5 -40,-60 10,-47 6,-60 -18,-60 -22,0 -32,19 -32,60 0,58 -3,60 -90,60 h -90 v -87 c 0,-49 -5,-114 -11,-145 l -12,-58 442,-7 c 434,-6 441,-6 441,35 0,30 -9,38 -35,28 -33,-12 -33,-11 0,27 40,46 45,111 13,170 -16,31 -14,48 10,75 18,19 32,51 32,70 0,19 9,29 21,21 12,-7 17,-23 13,-36 -5,-13 5,-39 21,-58 25,-28 26,-40 4,-66 -46,-55 -47,-289 -1,-289 53,0 62,-36 64,-267 5.9498,-229.8861 -31.2733,-277.3956 118,-353 46.3893,-23.4954 211,-21 269,39 67,70 63,39 89,721 43,1137 47,1210 71,1224 31,18 39,184 11,236 -17,31 -15,48 6,69 99,99 59,243 -81,293 -39,14 -3,120 49,144 27,12 67,57 89,99 21,42 52,82 68,88 37,14 37,83 0,173 -35,82 -115,406 -170,687 -65,332 -84,1018 -30,1059 16,12 29,38 29,56 0,19 27,57 60,85 33,28 60,67 60,86 0,20 17,41 39,46 42,11 36,95 -6,95 -13,0 -38,26 -56,58 -18,32 -58,75 -89,95 -31,20 -77,56 -103,80 l -46,43 55,21 c 109,42 186,138 186,234 0,41 18,79 51,110 l 52,48 -44,36 c -24,19 -63,35 -87,35 -27,0 -57,23 -79,60 -19,33 -45,60 -57,60 -58,0 10,143 139,293 24,29 50,82 57,119 11,60 16,65 53,45 168,-90 429,62 410,237 -18,160 -135,205 -135,52 -1,-51 -6,-67 -18,-48 -26,41 -62,7 -62,-60 0,-74 -54,-101 -94,-46 -100,133 131,597 304,611 70,6 79,13 75,53 -4,39 3,45 60,41 190,-13 258,206 126,405 -63,96 -103,115 -147,70 -28,-27 -29,-39 -7,-74 19,-32 20,-48 2,-69 -13,-16 -18,-52 -11,-84 l 13,-55 -41,48 c -72,84 -69,127 22,356 143,359 115,542 -113,743 -83,73 -273,163 -346,163 -26,1 -27,4 -6,18 94,59 -60,126 -164,72 -78,-41 -78,-41 -69,55 13,128 -89,310 -121,215 -9,-27 -63,14 -63,48 0,22 -43,67 -94,99 -13,7 -41,-12 -64,-45 z"
       id="path1"
       sodipodi:nodetypes="cssccccscccccccssccccccccccccsscccscccssccccsccssscscsccsscccccccccccsssssccscsssscscccsscsssccccccccscccccccccccccssssscssscscccsccccsccccscsccccscccccccssscssscccscccscsccccccsccccccccccccccccccscc" />
  </g>
  <plotdata
     application="axidraw"
     model="2"
     layer="-2"
     node="0"
     last_path="0"
     node_after_path="0"
     last_known_x="0"
     last_known_y="0"
     paused_x="0"
     paused_y="0"
     randseed="0"
     row="0"
     id="1718474950" />
</svg>
