<?xml version="1.0" standalone="no"?>
<!DOCTYPE svg PUBLIC "-//W3C//DTD SVG 20010904//EN"
 "http://www.w3.org/TR/2001/REC-SVG-20010904/DTD/svg10.dtd">
<svg version="1.0" xmlns="http://www.w3.org/2000/svg"
 width="300.000000pt" height="545.000000pt" viewBox="0 0 300.000000 545.000000"
 preserveAspectRatio="xMidYMid meet">
<metadata>
Created by potrace 1.10, written by Peter Selinger 2001-2011
</metadata>
<g transform="translate(0.000000,545.000000) scale(0.050000,-0.050000)"
fill="#000000" stroke="none">
<path d="M2982 10382 c-23 -32 -42 -75 -42 -95 0 -29 -15 -37 -65 -37 -70 0
-88 -75 -50 -213 14 -52 13 -53 -41 -32 -45 17 -67 14 -110 -14 -69 -45 -68
-54 16 -96 71 -35 95 -20 40 25 -38 31 -39 60 -1 60 35 0 101 -91 118 -165 18
-73 -11 -71 -106 9 -42 35 -107 75 -144 89 -37 13 -51 25 -32 25 66 3 39 62
-28 62 -179 0 -437 -158 -437 -269 0 -23 -21 -73 -47 -111 -183 -271 -149
-610 88 -871 96 -106 122 -173 78 -200 -12 -7 -35 4 -50 24 -28 35 -30 35 -56
2 -41 -52 -50 -44 -57 50 -9 125 -73 120 -113 -9 -45 -145 37 -356 138 -356
22 0 39 -13 39 -30 0 -49 53 -34 107 30 66 79 69 77 58 -39 -10 -96 -8 -99 48
-113 205 -49 388 -254 328 -366 -31 -58 -73 -53 -114 13 -19 30 -37 59 -40 63
-4 4 -20 -4 -37 -18 -26 -21 -34 -16 -52 37 -45 129 -116 41 -91 -113 20 -127
113 -191 257 -178 99 9 120 5 129 -23 21 -65 94 -193 120 -209 15 -9 27 -36
27 -61 0 -25 9 -54 20 -65 12 -12 1 -40 -32 -79 -29 -32 -64 -83 -80 -113 -20
-38 -46 -55 -91 -60 -103 -10 -116 -60 -36 -140 38 -38 93 -110 123 -162 47
-81 65 -95 135 -106 45 -7 81 -21 81 -32 0 -10 9 -13 21 -6 13 9 16 -5 7 -40
-9 -37 -4 -60 14 -72 21 -13 16 -17 -19 -18 -42 0 -47 7 -36 58 10 53 6 59
-53 67 -78 12 -94 4 -94 -48 0 -22 -16 -45 -35 -50 -19 -5 -65 -56 -101 -112
l-66 -103 36 -71 c19 -39 51 -89 70 -111 18 -22 33 -49 32 -60 -1 -11 17 -29
40 -39 59 -28 44 -484 -47 -1411 -6 -60 -33 -182 -60 -271 -27 -89 -49 -173
-49 -187 0 -33 166 -248 220 -284 54 -36 37 -88 -42 -129 -32 -17 -58 -39 -58
-50 0 -11 -22 -29 -50 -39 -48 -18 -71 -80 -30 -80 42 0 91 -139 64 -181 -34
-55 -31 -172 6 -186 34 -13 43 -173 10 -173 -28 0 -25 -247 4 -276 18 -18 15
-32 -10 -60 -47 -52 -42 -78 6 -34 22 20 40 27 40 15 0 -33 -96 -88 -111 -63
-7 11 -8 26 -1 33 7 6 -4 29 -23 50 -32 36 -32 40 -1 63 25 19 32 53 29 153
l-3 129 -455 0 -455 0 0 -153 0 -154 90 0 c82 0 90 5 90 49 0 26 9 48 20 48
11 0 20 -22 20 -50 0 -44 9 -50 69 -50 38 0 74 -9 81 -20 12 -19 -40 -29 -115
-21 -19 2 -35 -1 -35 -6 0 -6 16 -26 35 -45 33 -34 33 -35 0 -23 -19 8 -35 4
-35 -7 0 -11 -9 -15 -20 -8 -11 7 -20 30 -20 51 0 34 -14 39 -102 39 -97 0
-102 -3 -91 -45 7 -25 13 -82 13 -127 l0 -82 185 3 c102 2 200 10 217 18 20
10 45 3 64 -16 17 -17 58 -31 90 -31 76 0 95 225 23 275 -53 37 -25 125 41
125 37 0 83 -65 61 -87 -11 -11 -21 -87 -21 -167 0 -163 23 -182 140 -113 30
18 68 27 83 19 73 -37 125 -72 112 -74 -32 -6 -47 -12 -97 -36 -40 -20 -63
-21 -94 -4 -93 50 -134 30 -129 -63 18 -275 16 -304 -20 -311 -45 -9 -66 46
-40 102 11 24 18 80 15 124 -3 44 -7 100 -8 125 -3 57 -90 62 -180 10 -59 -34
-62 -34 -91 8 -25 36 -51 43 -160 45 -71 1 -140 4 -153 7 -17 3 -23 -30 -19
-115 5 -133 13 -157 47 -137 12 8 52 13 88 10 l66 -4 -3 91 c-3 87 -5 89 -41
57 -21 -20 -32 -48 -25 -69 6 -19 0 -41 -14 -50 -17 -10 -20 -4 -9 24 11 30 9
33 -11 13 -35 -35 -67 -31 -37 5 19 23 19 30 1 30 -14 0 -6 25 20 61 24 34 48
56 54 50 6 -6 -4 -27 -22 -47 -18 -21 -33 -45 -33 -55 0 -10 27 14 59 52 33
38 60 57 60 42 1 -23 7 -23 31 -3 17 14 30 16 30 5 0 -11 -14 -32 -31 -46 -21
-17 -24 -32 -10 -46 12 -12 21 -42 21 -67 0 -32 12 -46 39 -46 21 0 44 -9 51
-20 7 -11 -10 -20 -40 -20 -49 0 -52 -5 -40 -60 10 -47 6 -60 -18 -60 -22 0
-32 19 -32 60 0 58 -3 60 -90 60 l-90 0 0 -87 c0 -49 -5 -114 -11 -145 l-12
-58 442 -7 c434 -6 441 -6 441 35 0 30 -9 38 -35 28 -33 -12 -33 -11 0 27 40
46 45 111 13 170 -16 31 -14 48 10 75 18 19 32 51 32 70 0 19 9 29 21 21 12
-7 17 -23 13 -36 -5 -13 5 -39 21 -58 25 -28 26 -40 4 -66 -46 -55 -47 -289
-1 -289 53 0 62 -36 64 -267 3 -278 12 -304 103 -297 39 3 78 -4 85 -15 7 -12
-6 -21 -29 -21 -22 0 -41 -9 -41 -20 0 -52 211 -21 269 39 67 70 63 39 89 721
43 1137 47 1210 71 1224 31 18 39 184 11 236 -17 31 -15 48 6 69 99 99 59 243
-81 293 -39 14 -3 120 49 144 27 12 67 57 89 99 21 42 52 82 68 88 37 14 37
83 0 173 -35 82 -115 406 -170 687 -65 332 -84 1018 -30 1059 16 12 29 38 29
56 0 19 27 57 60 85 33 28 60 67 60 86 0 20 17 41 39 46 42 11 36 95 -6 95
-13 0 -38 26 -56 58 -18 32 -58 75 -89 95 -31 20 -77 56 -103 80 l-46 43 55
21 c109 42 186 138 186 234 0 41 18 79 51 110 l52 48 -44 36 c-24 19 -63 35
-87 35 -27 0 -57 23 -79 60 -19 33 -45 60 -57 60 -58 0 10 143 139 293 24 29
50 82 57 119 11 60 16 65 53 45 168 -90 429 62 410 237 -18 160 -135 205 -135
52 -1 -51 -6 -67 -18 -48 -26 41 -62 7 -62 -60 0 -74 -54 -101 -94 -46 -100
133 131 597 304 611 70 6 79 13 75 53 -4 39 3 45 60 41 190 -13 258 206 126
405 -63 96 -103 115 -147 70 -28 -27 -29 -39 -7 -74 19 -32 20 -48 2 -69 -13
-16 -18 -52 -11 -84 l13 -55 -41 48 c-72 84 -69 127 22 356 143 359 115 542
-113 743 -83 73 -273 163 -346 163 -26 1 -27 4 -6 18 94 59 -60 126 -164 72
-78 -41 -78 -41 -69 55 13 128 -89 310 -121 215 -9 -27 -63 14 -63 48 0 22
-43 67 -94 99 -13 7 -41 -12 -64 -45z m113 -107 c46 -87 60 -240 27 -293 -12
-19 -22 -3 -32 55 -17 101 -39 93 -61 -22 -15 -82 -16 -79 -32 79 -26 252 18
333 98 181z m173 -87 c31 -80 8 -182 -88 -395 -65 -144 -71 -99 -21 152 60
300 75 332 109 243z m-342 -39 c38 -52 79 -383 50 -402 -9 -5 -20 2 -24 17
-115 392 -124 519 -26 385z m563 -188 c7 -11 -22 -38 -63 -60 l-76 -41 98 13
c70 9 94 6 84 -10 -8 -13 -39 -23 -68 -23 -30 -1 -93 -19 -141 -40 -115 -52
-116 -52 -46 32 91 111 188 169 212 129z m-1079 -81 c-7 -11 -3 -20 9 -20 11
0 21 9 21 20 0 11 14 20 31 20 17 0 26 -9 19 -20 -7 -11 1 -14 19 -8 36 14
153 -36 191 -82 14 -16 35 -30 47 -30 13 0 24 -25 26 -55 l3 -54 -39 53 c-51
71 -182 152 -192 120 -5 -14 -43 -23 -92 -21 l-83 2 70 15 c61 13 63 15 17 17
-77 4 -128 -18 -94 -39 15 -10 50 -18 77 -19 61 -2 25 -20 -116 -58 -191 -51
-315 -249 -294 -468 18 -183 55 -266 230 -513 96 -135 140 -216 136 -246 -7
-42 -9 -41 -43 16 -19 33 -30 42 -23 20 27 -83 34 -165 14 -178 -12 -7 -27 15
-34 50 l-14 63 -42 -88 -42 -87 -8 77 c-5 58 4 89 35 122 76 80 55 143 -119
361 -238 297 -167 721 146 886 50 26 68 45 52 55 -17 11 -14 22 13 42 29 22
31 27 6 27 -17 0 -68 -27 -114 -60 -101 -74 -110 -48 -12 38 68 60 231 94 199
42z m670 -141 c0 -115 -2 -119 -41 -98 -25 13 -37 35 -31 55 5 19 15 63 22 99
21 106 50 74 50 -56z m650 64 c274 -125 375 -369 277 -673 l-39 -120 1 230 c1
306 -74 443 -282 515 -97 33 -268 -16 -294 -84 -12 -32 -113 -44 -113 -15 0
118 299 215 450 147z m-499 -142 c-49 -54 -19 -101 66 -103 60 -2 52 -7 -49
-25 -93 -18 -119 -30 -112 -53 8 -22 2 -21 -24 5 -29 29 -66 40 -132 40 -5 0
-71 -7 -145 -14 -116 -12 -135 -10 -135 17 0 18 9 32 19 32 11 0 15 12 9 27
-8 22 19 27 131 25 77 -1 141 -9 141 -17 0 -8 -55 -15 -121 -15 -70 0 -116 -8
-110 -19 11 -18 348 -8 410 12 26 8 26 11 0 28 -25 17 -24 23 6 40 19 12 35
35 35 51 0 17 10 24 21 17 14 -9 11 -25 -10 -48z m426 -19 c23 -13 52 -42 65
-66 19 -35 8 -31 -54 20 -42 35 -98 64 -123 64 -25 0 -45 8 -45 19 0 20 88 -1
157 -37z m151 -94 c29 -45 51 -104 51 -130 -1 -37 -12 -24 -47 52 -26 55 -70
122 -99 148 -29 27 -53 57 -53 66 0 34 96 -55 148 -136z m-225 64 c231 -97
273 -556 59 -643 -112 -46 -146 -48 -156 -8 -7 26 -28 39 -63 39 -44 0 -63 19
-112 113 -33 63 -84 128 -114 145 -54 31 -62 65 -29 119 12 19 28 8 63 -43 75
-110 268 -167 375 -111 137 72 88 277 -66 277 -68 0 -74 5 -69 50 3 28 -3 50
-13 50 -10 0 -18 9 -18 20 0 28 64 25 143 -8z m-1002 -12 c83 -45 82 -91 -2
-91 -100 0 -123 -24 -134 -143 -24 -251 359 -252 409 -1 14 72 46 91 60 37 6
-23 23 -42 37 -42 49 0 21 -88 -46 -147 -42 -37 -75 -91 -90 -146 -17 -64 -33
-87 -61 -87 -21 0 -66 -23 -99 -51 -101 -85 -219 -30 -329 154 -170 285 9 648
255 517z m1344 -242 c19 -204 -70 -585 -101 -433 -11 53 -30 43 -84 -45 -50
-81 -96 -110 -71 -45 7 19 -21 1 -64 -40 -93 -91 -114 -94 -98 -14 11 52 7 61
-22 55 -23 -4 -37 -29 -41 -71 -11 -112 -63 -55 -64 69 0 29 -14 45 -44 50
-35 5 -49 25 -61 90 -52 261 -360 260 -390 -1 l-11 -96 -67 12 c-64 12 -67 10
-67 -48 0 -129 -115 -177 -216 -91 -73 61 -127 68 -74 10 61 -68 -14 -49 -80
20 -56 59 -106 82 -78 37 8 -13 3 -19 -14 -13 -60 18 -203 336 -151 336 31 0
53 -41 53 -98 0 -75 95 -168 175 -173 41 -2 113 -14 159 -27 76 -21 89 -19
157 28 41 27 91 50 110 50 26 0 39 22 50 85 47 282 390 307 472 34 18 -60 35
-80 80 -90 31 -7 57 -25 57 -42 0 -42 170 -16 252 38 125 84 229 335 197 480
-7 30 -4 55 7 55 10 0 23 -55 29 -122z m-820 52 c3 -11 -24 -23 -60 -26 -46
-5 -65 2 -65 22 0 33 117 36 125 4z m408 -26 c4 -27 -5 -50 -23 -57 -16 -6
-25 -19 -19 -29 6 -10 -7 -18 -30 -18 -22 0 -41 8 -41 19 0 10 -24 17 -53 15
-67 -5 -80 28 -24 63 39 24 42 23 32 -13 -8 -30 -2 -37 28 -29 32 8 46 39 40
87 -4 39 84 2 90 -38z m-873 5 c0 -40 -34 -69 -82 -69 -54 0 -82 49 -48 83 10
10 130 -3 130 -14z m130 -9 c7 -11 -2 -20 -20 -20 -18 0 -27 -8 -21 -18 6 -10
-30 -37 -79 -60 -107 -50 -103 -50 -118 -10 -10 26 -3 30 37 20 26 -7 54 -3
61 8 7 11 21 16 31 10 10 -7 24 11 31 39 12 51 55 68 78 31z m339 -39 c7 -10
-6 -28 -27 -40 -42 -23 -75 2 -52 39 16 25 64 26 79 1z m-13 -348 c7 -57 -24
-73 -44 -21 -20 52 -14 92 13 83 14 -4 28 -32 31 -62z m-104 -38 c17 27 27 18
55 -52 37 -93 73 -94 73 -2 0 33 8 59 18 59 10 0 32 5 48 11 21 8 32 -10 41
-67 10 -64 20 -77 58 -76 35 2 46 -10 51 -53 4 -30 4 -55 0 -55 -3 0 -69 -18
-146 -40 l-139 -40 -136 52 c-74 28 -135 62 -135 75 1 49 36 76 92 70 56 -7
58 -4 55 72 -2 65 2 73 21 47 22 -30 26 -30 44 -1z m921 -139 c-12 -48 38
-166 117 -273 27 -38 45 -75 40 -84 -18 -28 -93 6 -114 53 l-21 46 -37 -44
c-54 -64 -84 -12 -46 78 42 99 38 134 -11 104 -64 -40 -70 -2 -14 84 58 87
105 107 86 36z m235 -18 c62 -73 81 -139 63 -213 -26 -103 -90 -145 -76 -50 6
39 -5 68 -33 94 -59 53 -55 95 8 79 28 -7 50 -4 50 6 0 11 -22 40 -50 66 -27
26 -50 54 -50 63 0 34 38 15 88 -45z m-1317 -131 c112 -37 157 -67 98 -67 -43
1 -209 71 -209 89 0 15 1 15 111 -22z m-166 -16 c46 -10 55 -22 55 -75 0 -34
-7 -56 -15 -48 -14 15 -17 22 -22 74 -2 12 -16 17 -31 11 -16 -5 -44 7 -64 29
-26 29 -28 37 -7 31 16 -6 54 -15 84 -22z m990 -71 c-9 -98 13 -135 39 -65 14
35 64 83 89 84 11 1 10 -37 -1 -74 -1 -3 -3 -12 -4 -20 -1 -8 -10 -25 -20 -38
-26 -30 77 -56 111 -28 13 11 31 14 38 7 8 -8 -24 -29 -71 -47 -104 -39 -143
-21 -114 55 19 51 19 51 -31 18 -63 -41 -181 -24 -124 18 44 33 42 65 -7 80
-53 17 -51 55 5 83 89 44 101 35 90 -73z m-365 28 c-33 -28 -105 -80 -160
-116 -55 -36 -118 -93 -140 -128 -50 -79 -70 -80 -70 -5 0 56 -5 60 -100 73
-158 21 -129 36 340 180 191 58 203 58 130 -4z m-1270 -67 c0 -31 18 -78 39
-104 l40 -47 0 54 c1 82 37 86 52 7 17 -89 1 -131 -49 -131 -74 0 -131 118
-124 256 3 66 42 33 42 -35z m568 49 c84 -36 84 -36 31 -112 -54 -75 -73 -73
-89 7 -7 36 -17 81 -23 100 -12 43 -10 43 81 5z m247 -36 c-14 -42 -65 -26
-72 23 -6 41 -2 44 37 23 23 -12 39 -33 35 -46z m645 25 c0 -11 -7 -18 -15
-17 -8 2 -19 1 -25 -1 -5 -2 -30 -8 -55 -12 -64 -12 -56 24 10 47 58 20 85 14
85 -17z m20 -95 c-27 -18 -76 -59 -107 -89 l-57 -56 -57 48 -56 48 78 13 c44
7 79 21 79 31 0 16 57 32 140 37 17 1 9 -12 -20 -32z m122 -90 c78 -53 81
-105 11 -204 l-43 -60 -11 81 c-6 45 -30 109 -54 142 -69 96 -17 118 97 41z
m-426 -25 c41 -17 89 -50 108 -75 28 -36 41 -40 72 -21 44 27 84 -21 84 -101
0 -116 -55 -140 -191 -83 -79 33 -101 71 -72 125 29 54 -8 106 -76 106 -74 0
-102 -37 -96 -131 5 -71 -1 -80 -65 -111 -125 -60 -199 48 -128 186 l34 66 19
-55 c23 -69 41 -69 86 0 80 121 119 138 225 94z m327 -132 c18 -60 18 -84 0
-102 -17 -17 -23 -9 -23 36 0 33 -18 93 -40 134 -50 94 -50 119 0 58 22 -26
50 -82 63 -126z m-815 8 c-2 -145 -31 -180 -92 -111 -84 97 -39 229 84 245 6
0 9 -60 8 -134z m443 13 c20 -31 -23 -66 -62 -50 -27 10 -29 18 -9 42 29 35
53 38 71 8z m-702 -76 c6 -10 0 -24 -14 -30 -14 -6 -5 -7 19 -1 25 6 50 -1 60
-16 9 -15 45 -39 81 -54 64 -25 88 -61 41 -61 -13 0 2 -27 34 -60 52 -54 58
-76 62 -208 l5 -147 -74 -12 c-182 -31 -253 4 -283 136 -23 104 -9 116 29 25
39 -92 71 -112 71 -43 l0 53 58 -62 c65 -69 79 -73 130 -36 116 85 -39 397
-226 457 -16 5 -31 24 -33 43 -6 36 21 46 40 16z m710 -59 c21 -41 88 -73 211
-101 72 -16 74 -18 20 -20 -65 -1 -230 66 -253 103 -11 17 -24 15 -51 -8 -72
-62 -95 -62 -37 0 68 73 82 77 110 26z m389 -134 c-63 -122 -59 -267 9 -335
24 -24 43 -33 43 -21 0 12 -13 33 -30 47 -42 35 -37 192 9 295 55 121 65 105
18 -29 -44 -124 -38 -209 16 -270 49 -53 123 -46 151 14 12 28 34 50 49 50 25
0 37 59 29 140 -2 22 5 19 27 -9 98 -124 -59 -291 -250 -265 -151 20 -193 245
-78 418 66 99 68 85 7 -35z m-302 12 c134 -57 135 -60 45 -109 -68 -37 -89
-35 -155 12 -27 20 -41 17 -76 -14 -41 -37 -42 -37 -85 6 -23 23 -39 46 -34
50 40 34 171 113 179 109 6 -3 63 -27 126 -54z m-288 9 c-11 -11 -69 -20 -128
-20 -59 0 -117 9 -128 20 -13 13 29 20 128 20 99 0 141 -7 128 -20z m52 -187
c31 -17 33 -22 8 -22 -40 -1 -138 73 -138 104 0 12 20 4 45 -19 25 -22 63 -50
85 -63z m-122 8 l57 -47 -76 -91 c-79 -95 -110 -109 -68 -32 13 25 19 83 14
132 -12 100 -6 103 73 38z m542 -68 l0 -97 -65 42 c-81 52 -81 63 0 112 36 22
65 40 65 40 0 0 0 -44 0 -97z m-310 -92 c0 -71 -9 -134 -20 -141 -13 -8 -20
40 -20 129 0 81 9 141 20 141 11 0 20 -56 20 -129z m211 17 c54 -25 109 -106
109 -160 0 -28 -112 15 -127 49 -11 24 -36 43 -56 43 -41 0 -52 39 -12 41 14
0 -2 13 -35 28 l-60 28 57 1 c31 1 87 -12 124 -30z m-419 -189 c95 -59 142
-63 229 -18 93 47 101 48 86 8 -7 -17 -22 -27 -34 -23 -12 4 -43 -14 -68 -40
-47 -46 -85 -60 -85 -30 0 8 -16 17 -35 18 -50 4 -208 97 -192 113 20 19 25
17 99 -28z m11 -119 c10 0 13 -10 5 -23 -15 -25 129 -15 200 14 28 11 35 8 28
-13 -5 -15 -19 -28 -31 -28 -12 0 -28 -7 -37 -15 -38 -38 -165 -15 -207 38
-48 61 -55 104 -10 58 18 -17 41 -31 52 -31z m255 -157 c-1 -21 -5 -24 -11 -8
-7 18 -41 21 -119 12 -72 -8 -108 -5 -108 9 0 21 164 41 215 27 14 -4 24 -22
23 -40z m-58 -44 c0 -11 -20 -28 -45 -38 l-45 -18 48 -2 c98 -2 16 -34 -103
-39 -19 -1 -35 -9 -35 -17 0 -8 41 -13 91 -11 76 3 88 -1 69 -24 -15 -18 -54
-24 -121 -19 -57 5 -99 0 -99 -11 0 -11 37 -20 81 -20 54 0 77 -7 68 -22 -8
-12 -44 -18 -81 -14 -68 8 -80 -16 -40 -80 27 -45 -5 -53 -50 -12 -100 90 36
343 187 346 41 1 75 -7 75 -19z m35 -284 c-4 -14 -32 -28 -62 -31 -52 -7 -72
-34 -34 -47 23 -9 40 -217 17 -217 -9 0 -17 20 -18 45 0 25 -6 34 -11 20 -14
-34 -47 -32 -47 4 0 16 -20 43 -44 59 -24 17 -37 37 -30 45 8 8 37 -7 64 -33
57 -54 61 -45 22 47 -37 90 -11 133 81 133 47 0 68 -8 62 -25z m270 -25 c-5
-28 -18 -55 -27 -61 -21 -13 -25 78 -5 98 28 27 41 11 32 -37z m-664 -125 c13
-41 34 -88 47 -104 17 -22 16 -25 -2 -14 -14 8 -43 55 -64 104 -22 49 -49 89
-61 89 -11 0 -21 9 -21 21 0 49 78 -26 101 -96z m427 24 c-16 -39 -25 -78 -20
-86 11 -17 -22 -77 -34 -62 -25 27 -28 201 -3 192 14 -6 31 3 37 20 7 16 20
24 31 18 11 -7 7 -40 -11 -82z m-375 -9 c7 -33 24 -60 40 -60 15 0 27 -12 27
-27 0 -53 -27 -52 -61 3 -48 80 -66 144 -40 144 12 0 27 -27 34 -60z m446 5
c-1 -27 -58 -92 -70 -80 -16 16 27 95 52 95 10 0 19 -7 18 -15z m-149 -205 c8
-12 -29 -20 -98 -20 -60 0 -115 9 -122 20 -8 12 29 20 98 20 60 0 115 -9 122
-20z m30 -53 c0 -18 -57 -67 -79 -67 -24 0 -25 6 -10 44 9 26 89 46 89 23z
m-197 -147 c4 -11 71 -22 149 -25 137 -4 141 -5 141 -55 0 -41 -10 -53 -51
-55 -47 -4 -49 -2 -17 23 46 35 44 52 -5 52 -27 0 -40 -13 -40 -40 0 -28 -13
-40 -45 -40 -37 1 -40 4 -15 21 25 17 23 20 -10 18 -77 -7 -103 3 -60 21 22 9
30 18 17 19 -12 0 -48 -12 -78 -28 -57 -30 -115 -20 -66 11 16 10 18 18 4 18
-12 0 -33 -13 -47 -30 -28 -34 -72 -39 -89 -11 -16 26 68 101 114 101 21 0 32
-9 25 -20 -7 -11 1 -20 18 -20 19 0 26 11 19 30 -6 17 -2 30 9 30 11 0 24 -9
27 -20z m277 -178 c0 -11 -125 -20 -281 -21 -187 -1 -278 5 -269 19 16 25 550
27 550 2z m70 -62 c-7 -11 -24 -20 -39 -20 -14 0 -31 -19 -38 -43 -9 -37 -21
-41 -82 -31 -43 7 -67 4 -60 -7 6 -11 2 -19 -9 -19 -11 0 -25 9 -32 20 -7 11
-44 20 -82 20 -42 0 -65 -8 -58 -20 22 -36 -114 -22 -142 15 -39 51 -34 63 27
64 30 0 135 6 233 13 127 9 173 6 163 -10 -7 -12 -4 -22 8 -22 11 0 21 8 21
19 0 10 20 22 45 27 25 5 48 10 51 11 4 2 1 -6 -6 -17z m-76 -182 c-12 -20
-32 -29 -43 -21 -12 8 -100 14 -196 13 -96 -1 -175 4 -175 11 0 8 69 15 154
17 84 2 156 5 158 8 29 28 122 3 102 -28z m-234 -74 c0 -19 -10 -111 -22 -205
-12 -93 -25 -295 -29 -449 -25 -1137 -23 -1115 -113 -1170 -127 -77 -141 -51
-74 146 23 68 50 214 60 324 9 110 26 299 37 420 11 121 26 369 32 550 6 182
16 350 21 375 11 55 88 63 88 9z m154 -36 c9 -28 -48 -101 -65 -83 -8 8 -2 30
13 50 15 19 2 13 -28 -13 -65 -58 -72 -34 -10 32 43 46 77 52 90 14z m6 -104
c0 -9 -27 -42 -60 -74 -33 -32 -60 -67 -59 -79 0 -11 27 11 59 49 42 49 59 60
59 36 1 -18 -9 -40 -20 -47 -12 -7 -48 -49 -80 -94 -33 -46 -59 -67 -59 -49 0
17 9 37 20 44 11 7 20 21 20 32 0 11 -9 15 -20 8 -34 -21 -22 5 44 99 59 85
96 113 96 75z m-64 -254 c-46 -60 -88 -105 -92 -101 -14 14 142 230 159 219 9
-6 -21 -59 -67 -118z m3 -91 c-112 -134 -124 -112 -17 34 47 63 89 104 93 91
5 -13 -29 -70 -76 -125z m-1 -99 c-113 -134 -126 -110 -17 33 47 63 90 104 94
91 5 -13 -30 -68 -77 -124z m-1 -186 c-47 -57 -88 -108 -91 -112 -3 -5 -10 -4
-16 1 -5 6 26 58 70 117 98 131 103 157 9 52 -40 -46 -69 -66 -69 -48 0 16 18
46 41 67 22 20 60 68 85 108 l44 71 6 -76 c6 -64 -6 -91 -79 -180z m81 21
c-36 -67 -198 -262 -198 -238 0 29 185 283 205 283 9 0 6 -20 -7 -45z m0 -110
c-98 -127 -184 -225 -192 -218 -13 13 177 253 200 253 10 0 7 -16 -8 -35z
m-36 -120 c-127 -156 -181 -214 -181 -198 -1 26 203 273 224 273 10 0 -9 -34
-43 -75z m64 -11 c-40 -65 -234 -293 -242 -284 -14 13 213 310 237 310 12 0
14 -11 5 -26z m3 -90 c-34 -25 -153 -186 -144 -196 5 -5 34 27 65 72 51 73 91
102 89 65 -1 -30 -158 -194 -158 -167 -1 20 -17 14 -54 -20 -29 -26 -46 -34
-36 -18 35 62 194 271 215 284 29 17 50 -1 23 -20z m-111 -298 c-58 -75 -86
-119 -62 -98 68 58 72 27 5 -37 l-59 -56 3 47 c2 48 191 308 210 290 5 -6 -38
-71 -97 -146z m113 43 c-1 -31 -43 -100 -109 -180 -142 -171 -170 -176 -39 -6
32 40 53 85 47 100 -8 21 74 137 97 137 3 0 4 -23 4 -51z m-48 -188 c-85 -106
-79 -132 7 -31 38 44 70 68 70 54 0 -26 -213 -289 -245 -301 -29 -11 16 62 63
105 23 21 42 48 41 60 0 12 -22 -3 -49 -33 -26 -30 -59 -55 -73 -55 -14 0 2
29 36 65 33 36 90 104 126 151 36 47 71 81 77 75 6 -6 -18 -46 -53 -90z m115
-77 c-18 -8 -79 -68 -136 -134 -99 -113 -156 -160 -139 -114 17 49 240 264
272 263 30 -2 31 -4 3 -15z m-27 -109 c-1 -25 -8 -56 -17 -70 -9 -14 -10 -35
-3 -46 14 -24 -45 -99 -78 -99 -11 0 1 23 27 50 26 28 37 50 24 50 -12 0 -31
-16 -42 -35 -10 -19 -26 -28 -34 -20 -8 9 16 49 53 90 54 58 48 55 -26 -14
-118 -111 -123 -91 -10 40 96 112 107 117 106 54z m119 -95 c-7 -22 -4 -40 8
-40 11 0 16 -13 9 -30 -6 -16 -26 -30 -44 -30 -29 1 -29 3 -3 20 26 17 26 23
1 38 -24 16 -24 24 -2 50 35 43 46 40 31 -8z m-493 -118 c14 -9 26 -24 26 -34
-1 -10 22 -15 50 -11 37 5 47 -1 36 -18 -10 -17 -7 -20 9 -10 13 8 37 4 53
-10 16 -13 29 -17 29 -8 0 9 24 -6 53 -33 36 -33 55 -40 61 -23 13 35 39 31
39 -5 0 -37 13 -31 -96 -43 -80 -8 -98 -3 -127 37 -23 31 -37 38 -44 21 -20
-54 -84 -12 -184 120 -30 39 40 52 95 17z m190 -250 c6 -16 31 -33 57 -38 25
-5 -1 -10 -59 -11 -58 -2 -105 6 -105 17 0 11 20 21 45 21 43 2 43 3 5 19 -39
17 -39 17 3 19 23 0 48 -12 54 -27z m-14 -102 c6 -16 33 -30 60 -30 27 0 44 8
38 18 -6 10 4 16 23 13 64 -9 49 -48 -27 -69 -53 -15 -79 -15 -88 0 -8 13 -63
19 -136 15 -129 -7 -154 16 -53 50 41 13 60 12 66 -4 4 -13 27 -22 51 -21 38
2 38 4 5 12 -30 8 -32 14 -10 28 40 25 58 22 71 -12z m127 -122 c0 -31 -55
-88 -85 -88 -11 0 -5 18 15 40 22 25 27 40 12 40 -13 0 -20 8 -14 17 16 26 72
19 72 -9z m74 -23 c0 -19 -10 -42 -22 -50 -13 -8 -3 -15 23 -15 25 0 45 -10
45 -22 0 -14 -19 -18 -50 -10 -62 16 -65 -2 -5 -29 43 -19 43 -20 -5 -8 -27 6
-125 10 -217 9 -160 -2 -243 25 -243 80 0 26 129 18 160 -10 55 -49 266 -28
246 24 -9 22 -5 28 11 18 14 -9 23 -2 23 17 0 17 8 31 17 31 9 0 16 -16 17
-35z m6 -248 c0 -9 -9 -17 -21 -17 -11 0 -18 -15 -15 -33 8 -45 -28 -54 -75
-17 -21 17 -30 28 -19 25 11 -2 43 11 70 31 49 34 49 35 5 28 -25 -3 -74 -33
-109 -65 l-64 -59 37 60 c37 60 37 60 -2 25 -55 -48 -67 -44 -67 19 0 51 -1
52 -29 15 -17 -22 -30 -29 -30 -16 -1 29 49 70 65 54 7 -7 26 -2 43 12 16 13
47 19 68 12 22 -7 46 -3 53 9 14 22 90 -48 90 -83z m-384 39 c45 -45 -24 -178
-77 -146 -43 27 -9 170 41 170 7 0 23 -11 36 -24z m178 -158 c29 -10 46 -24
40 -30 -21 -22 -124 43 -129 82 -6 37 -5 38 16 4 12 -20 45 -45 73 -56z m-94
-120 c0 -28 -13 -36 -52 -33 -66 5 -85 49 -36 84 45 33 88 7 88 -51z m113
-273 c-9 -367 5 -593 29 -465 9 47 14 13 15 -106 2 -112 10 -172 23 -164 13 8
20 -34 20 -110 0 -76 -7 -118 -20 -110 -12 7 -20 -15 -20 -54 -1 -166 -40
-118 -43 54 -2 99 -7 149 -12 110 -16 -143 -51 -116 -38 30 7 77 13 367 13
645 0 331 7 505 20 505 14 0 18 -114 13 -335z m54 -9 c-11 -452 -27 -457 -27
-9 0 194 8 353 17 353 10 0 14 -155 10 -344z m58 199 c-10 -215 -20 -228 -23
-30 -1 96 5 175 14 175 8 0 12 -65 9 -145z m-1173 -67 c-6 -17 -20 -25 -30
-19 -11 6 -39 -25 -64 -69 -25 -44 -53 -80 -62 -80 -22 0 -20 35 3 49 10 6 15
50 12 96 -4 47 -3 74 3 60 5 -14 18 -20 28 -14 24 15 23 -4 -5 -57 -12 -24 8
-10 45 31 64 70 96 72 70 3z m198 -28 c-82 -118 -48 -119 39 -1 74 101 91 116
91 84 0 -38 -166 -225 -180 -204 -9 16 -22 13 -40 -9 -32 -39 -66 -1 -48 56 6
19 4 34 -5 32 -56 -9 -66 3 -43 52 24 54 46 63 68 27 9 -14 5 -18 -9 -9 -13 8
-23 10 -23 5 0 -5 -5 -22 -11 -38 -21 -55 53 -28 84 30 18 36 41 54 58 47 15
-5 33 -1 40 10 7 11 18 16 24 10 6 -6 -14 -48 -45 -92z m160 6 l-56 -76 83 79
c46 44 83 69 83 57 0 -12 -63 -78 -140 -146 -77 -68 -140 -116 -140 -105 0 29
202 290 215 277 6 -6 -15 -45 -45 -86z m555 53 c8 -6 -23 -47 -69 -90 l-84
-79 64 76 c76 90 84 120 14 54 -27 -26 -50 -37 -50 -25 0 13 9 28 20 35 12 7
15 23 7 34 -7 13 -4 16 9 9 11 -8 27 -4 35 8 7 12 19 14 26 6 7 -9 20 -22 28
-28z m-345 -59 c-35 -44 -72 -80 -83 -80 -23 0 106 159 130 160 9 0 -12 -36
-47 -80z m422 45 c-10 -19 -46 -61 -80 -94 -34 -32 -62 -68 -61 -80 0 -11 32
14 70 57 38 43 73 74 79 69 5 -6 -22 -48 -62 -93 -63 -75 -74 -81 -101 -54
-27 27 -21 41 56 129 87 100 135 131 99 66z m-385 -85 c-36 -46 -70 -72 -74
-60 -8 24 117 166 133 151 4 -5 -22 -46 -59 -91z m69 18 c-13 -13 -18 -35 -13
-50 6 -15 -8 -51 -32 -81 -40 -52 -41 -56 -7 -74 20 -10 40 -22 44 -25 10 -9
-139 -176 -167 -186 -11 -5 13 33 54 83 100 123 96 148 -7 35 -68 -76 -74 -79
-35 -20 25 38 47 78 47 90 0 11 17 50 37 87 20 37 31 72 25 77 -16 17 26 86
53 86 17 0 17 -6 1 -22z m550 -123 c-2 -69 2 -136 11 -150 8 -14 6 -25 -5 -25
-11 0 -17 -27 -13 -60 5 -33 0 -60 -10 -60 -11 0 -19 94 -19 210 0 131 8 210
21 210 12 0 18 -49 15 -125z m-293 -30 c-64 -88 -166 -197 -159 -170 9 35 162
225 182 225 9 0 -1 -25 -23 -55z m-406 -56 c-25 -41 -48 -65 -52 -53 -9 25 73
152 88 138 5 -5 -11 -43 -36 -85z m371 -79 c-50 -71 -100 -135 -111 -142 -32
-20 -41 5 -13 35 15 15 61 74 103 132 110 151 129 130 21 -25z m-646 75 c-10
-19 -46 -61 -80 -94 -34 -32 -62 -68 -62 -80 1 -11 41 24 90 79 48 55 89 90
89 78 1 -12 -17 -38 -39 -58 -22 -20 -40 -46 -39 -58 0 -12 27 10 59 48 68 81
80 65 18 -23 -24 -33 -54 -55 -68 -50 -14 6 -36 -1 -49 -14 -25 -25 -221 -36
-221 -12 0 8 15 26 34 42 30 24 32 22 20 -13 -15 -44 1 -27 77 79 16 21 33 34
39 28 6 -6 -9 -35 -32 -65 -23 -30 -39 -58 -34 -62 4 -5 46 41 93 101 82 104
147 150 105 74z m729 -43 c-6 -10 -2 -23 9 -29 12 -5 10 -8 -4 -5 -15 3 -37
-9 -50 -26 -31 -40 -33 -69 -4 -51 34 21 -11 -54 -56 -96 -64 -57 -47 40 24
140 50 70 118 126 81 67z m-1056 -43 c1 -19 -17 -52 -41 -72 l-42 -37 37 60
37 60 -40 -36 c-40 -35 -41 -34 -41 13 0 59 85 71 90 12z m758 -9 c-7 -16 -2
-30 9 -30 11 0 14 -11 6 -24 -12 -18 -17 -18 -24 1 -6 18 -23 13 -56 -19 -61
-57 -62 -32 -3 43 49 61 86 78 68 29z m485 -175 c-7 -260 -33 -366 -36 -143
-2 160 15 348 32 348 5 0 6 -92 4 -205z m-822 150 c-1 -19 3 -48 8 -65 5 -16
6 -24 1 -16 -4 8 -20 9 -34 4 -44 -17 -57 32 -20 73 43 48 47 48 45 4z m637
-75 c-7 -17 -3 -53 8 -81 13 -36 12 -65 -5 -95 -14 -24 -25 -51 -25 -59 -1 -8
-10 -16 -21 -17 -37 -3 -68 -41 -56 -71 9 -24 20 -21 59 15 26 25 47 36 47 26
0 -27 -197 -218 -210 -204 -7 6 16 34 49 62 60 50 84 91 38 62 -16 -10 -20 -4
-11 19 12 30 -6 42 -51 35 -26 -4 -17 12 56 99 92 111 134 192 55 108 -32 -33
-73 -82 -91 -108 -19 -27 -40 -43 -46 -36 -12 11 187 275 207 275 4 0 3 -14
-3 -30z m-639 -156 c18 7 -7 -41 -55 -106 -48 -65 -90 -122 -93 -126 -3 -5
-11 -3 -18 3 -7 7 21 55 61 108 41 53 64 99 52 103 -12 4 -15 17 -7 30 10 16
15 16 21 -1 4 -12 22 -17 39 -11z m278 -23 c72 -8 82 -28 32 -63 -24 -16 -44
-40 -44 -52 0 -13 11 -12 30 4 21 17 30 18 30 2 0 -12 -7 -22 -16 -22 -8 0
-31 -27 -51 -60 -21 -36 -26 -60 -13 -60 12 0 -1 -30 -29 -67 -57 -74 -67
-111 -21 -73 22 19 30 19 30 1 0 -13 9 -18 21 -10 11 7 16 28 9 48 -6 19 3 47
20 61 36 30 41 -1 5 -37 -20 -20 -17 -23 15 -11 36 13 36 10 -7 -37 -30 -33
-63 -49 -95 -46 -76 9 -80 27 -17 92 45 47 52 65 32 77 -19 12 -21 21 -5 31
12 7 32 33 45 57 23 44 23 44 -20 6 -24 -21 -44 -30 -46 -20 -12 85 -10 122 8
143 16 20 12 23 -17 12 -33 -13 -35 -11 -11 19 15 18 36 28 46 22 11 -7 42
-14 69 -17z m-488 -19 c12 8 11 -5 -3 -30 -12 -23 -32 -42 -43 -42 -11 0 -15
9 -8 20 7 11 2 20 -11 20 -17 0 -16 9 3 32 17 21 29 24 34 10 4 -12 17 -17 28
-10z m244 -17 c-73 -123 -254 -376 -263 -367 -16 16 239 392 267 392 6 0 4
-11 -4 -25z m2 -95 c-8 -24 -4 -40 10 -40 12 0 16 -10 9 -22 -10 -16 -18 -16
-28 0 -8 13 -46 -27 -92 -98 -44 -66 -86 -120 -96 -120 -22 0 -18 7 93 175 97
147 127 177 104 105z m808 -328 c-18 -17 -20 9 -11 106 7 70 15 156 17 190 2
34 7 -14 11 -106 4 -111 -1 -176 -17 -190z m-210 235 c7 -18 0 -47 -15 -65
-15 -18 -24 -43 -19 -57 5 -14 -3 -25 -17 -25 -20 -1 -20 -5 3 -19 25 -16 25
-23 2 -45 -21 -21 -29 -21 -36 -1 -5 14 -18 20 -28 14 -30 -19 -20 15 17 59
19 23 7 17 -26 -13 -94 -85 -106 -65 -18 30 43 46 56 64 28 40 -86 -75 -92
-50 -8 32 92 90 101 94 117 50z m-1059 -52 c-21 -25 -25 -34 -9 -20 46 41 69
28 29 -16 -32 -35 -32 -39 -3 -28 21 8 38 1 46 -19 11 -27 18 -29 44 -8 27 22
30 21 18 -9 -20 -55 2 -41 32 20 15 30 23 73 19 95 -8 37 -6 37 24 8 31 -29
30 -37 -9 -104 -39 -66 -120 -98 -120 -47 0 10 -13 7 -30 -7 -36 -30 -40 1 -5
40 14 16 3 11 -23 -11 -38 -31 -46 -32 -37 -7 6 17 4 44 -5 59 -20 31 11 99
44 99 12 0 5 -20 -15 -45z m377 -70 c-12 -31 -9 -32 20 -8 20 17 34 19 34 7 0
-26 -37 -51 -86 -58 -36 -6 -33 11 12 69 27 35 35 31 20 -10z m740 -410 c-7
-151 -20 -275 -29 -275 -20 0 -21 83 -4 368 19 310 47 232 33 -93z m-60 0
c-13 -307 -23 -315 -24 -20 -1 135 6 245 16 245 9 0 13 -101 8 -225z m-54 133
c-7 -17 -12 -107 -12 -200 0 -103 -8 -168 -21 -168 -16 0 -17 356 -1 395 10
24 43 -3 34 -27z m165 -209 c-4 -209 -37 -230 -37 -24 0 139 8 185 33 185 4 0
6 -72 4 -161z m86 38 c-9 -166 -64 -230 -62 -73 1 77 6 95 19 66 13 -31 18
-21 19 45 0 47 8 85 16 85 8 0 12 -55 8 -123z"/>
<path d="M2928 2195 c-80 -91 -100 -128 -41 -75 51 45 105 120 87 120 -4 0
-25 -20 -46 -45z"/>
<path d="M2611 2141 c-8 -12 -22 -17 -31 -11 -21 13 -47 -26 -51 -76 -2 -30 9
-25 58 24 34 33 56 66 49 73 -7 6 -18 2 -25 -10z"/>
<path d="M2411 748 c-24 -24 -31 -53 -23 -91 11 -57 11 -57 -97 -57 -59 0
-122 -5 -139 -12 -18 -7 -32 -3 -32 7 0 11 43 31 95 45 117 32 166 71 65 52
-216 -39 -230 -44 -227 -79 3 -37 -469 -38 -658 -2 -260 50 120 -114 489 -210
433 -113 576 -98 576 61 0 64 77 100 184 87 397 -48 675 -52 754 -10 57 31 55
70 -3 51 -67 -23 -488 -29 -622 -10 -83 12 -142 9 -205 -10 -103 -30 -112 -24
-28 20 33 17 60 44 60 61 0 36 -19 36 -69 -2 -61 -46 -111 -37 -111 21 0 45 8
50 82 50 56 0 79 8 73 25 -13 40 -125 42 -164 3z m-27 -192 c-35 -35 -29 -56
16 -56 48 0 52 -45 8 -90 -42 -41 -219 -37 -405 10 -154 40 -367 95 -453 120
-38 10 40 14 210 11 149 -3 329 1 400 9 219 24 251 23 224 -4z"/>
<path d="M3579 558 c-28 -53 -8 -73 42 -42 21 13 49 24 61 24 47 0 -31 -64
-151 -124 -144 -72 -194 -119 -170 -158 14 -22 31 -15 83 34 36 34 107 82 156
106 129 65 202 162 121 162 -21 0 -44 9 -51 20 -21 34 -67 22 -91 -22z"/>
<path d="M3790 489 l-60 -49 73 0 c74 0 131 42 108 79 -21 33 -56 24 -121 -30z"/>
</g>
</svg>
