<svg version="1.1" xmlns="http://www.w3.org/2000/svg" xmlns:xlink="http://www.w3.org/1999/xlink" width="420" height="298" viewBox="0 0 420 298"><g><g><g/><path d="M183.34614,144.20481l0.89758,1.09379l-0.48889,1.49233l-3.22589,1.3763l4.2179,-2.89688l7.14194,-1.64785l-1.25695,2.99299l2.48445,5.53959l-0.08078,2.87396l-14.94152,-0.47889l3.04251,-9.5532l19.9812,-7.76884l-2.52006,8.15175l2.21034,6.54397l2.85873,15.14051l-23.84392,-9.26639l-4.04494,-10.88439l24.41028,-21.07471l5.4902,11.89542l5.8845,7.57232l-3.72998,17.02263l2.63631,18.70389l-25.05575,-17.57174l-14.38758,-10.12956l0.3296,-4.5877l21.5191,-25.65806l21.54768,-0.88347l3.44759,19.65384l2.06652,2.98004l-4.87618,18.22358l1.1055,12.23268l-4.99318,10.17307l-23.54436,-17.16407l-21.00011,-5.91345l1.90169,-6.897l7.79845,-15.47633l20.77838,-16.8936l17.22871,-8.95496l3.27187,16.03336l4.91952,6.48435l8.85602,13.98542l-9.16923,10.90772l-5.82811,13.72062l-1.82257,14.15867l-15.24658,-6.69756l-24.14142,-7.62412l-8.62862,-5.58644l-0.01372,-4.73387l-1.20594,-36.71755l10.77791,-0.65946l26.89708,-13.91137l15.12355,0.99209l0.49749,5.24566l10.84044,4.93935l7.75271,17.99768l-1.72691,15.55398l-10.9878,8.64846l-5.42435,16.21406l-4.41547,13.43846l-17.4493,-11.17093l-22.57809,3.68912l-10.82826,-8.12265l-5.06112,-6.55326l-0.35635,-15.33672l4.35399,-39.73709l11.401,-3.72945l18.9632,-2.29961l21.61188,-7.71802l5.59528,2.54754l7.27131,10.42066l6.33821,0.41929l10.69804,22.91067l-3.87914,15.06037l-5.75927,5.63533l-5.07882,20.67782l-8.99576,14.25063l-6.61575,5.99779l-21.93108,-13.68809l-15.67704,4.42201l-15.4648,-6.40474l-9.02279,-13.91092l6.92718,-11.50729l-8.61024,-31.72057l16.88703,-21.33024l11.74879,-0.54555l17.12003,-5.84241l20.39899,-13.12715l6.78422,14.51256l17.40883,3.89355l5.35354,-2.34833l-2.61691,27.03048l16.03797,23.40411l-15.22239,2.15697l2.64335,12.94586l-4.99702,17.34716l-17.22153,6.56615l-9.13925,6.19774l-14.65683,-0.62289l-23.69797,-0.86632l-7.42804,1.34865l-16.00344,-16.15317l-2.94296,-19.66418l5.20782,-14.64742l-10.5968,-16.33326l15.547,-25.85429l11.34523,-14.37921l9.61114,5.59021l16.74478,-11.75592l14.7112,0.70905l12.2064,6.69473l15.64721,2.44916l10.51115,4.39419l2.15297,39.82819l11.46886,14.60486l-0.80872,13.60261l-14.71557,-1.24826l0.48324,17.67864l-16.23208,15.30992l-6.68819,-0.59196l-17.85549,6.10756l-16.21811,3.27074l-15.4062,0.66973l-12.73055,-3.60481l-10.23818,-21.15761l-2.62969,-14.64273l-2.14506,-21.44026l-0.8221,-8.15834l2.6071,-5.49614l0.85377,-30.31167l8.06793,-20.59443l16.46496,2.06249l12.32713,-10.37259l18.60742,0.93739l15.94113,5.4957l5.87192,9.58777l18.7786,-2.92594l7.49234,17.1435l18.83385,41.69221l0.21103,10.56343l-3.89888,15.42189l-8.96553,0.3917l-11.09474,9.49303l-17.32184,19.06885l-7.00599,4.14934l-11.70998,6.54749l-15.39901,1.69494l-12.53836,-1.97032l-20.75619,2.06945l-12.41559,-8.32924l-5.98419,-22.99848l-4.17983,-13.51014l2.10763,-24.18481l2.97031,-5.56854l1.37213,3.90884l-9.44638,-24.9285l12.37859,-30.76961l-0.46796,-9.67328l22.32758,2.7815l11.33367,-16.72417l18.72022,3.3459l15.40452,0.87226l6.25519,25.55173l16.82943,2.12996l14.48615,-8.49019l8.93145,39.70327l12.45039,23.29725l7.1789,9.35126l-5.90367,18.99993l-19.55796,0.14846l-4.7183,4.62645l-19.25149,23.70023l-10.85792,8.48588l-8.59169,-0.05623l-15.365,6.96957l-18.85481,-0.30987l-12.34568,-1.95102l-21.31424,-10.87277l-1.60129,-11.1966l-4.76361,-27.4106l-0.61407,-9.93886l-2.31806,-14.05157l2.87562,-10.06492l1.07747,-2.20335l-4.49254,-12.67114l3.86306,-20.13939l5.11162,-22.60872l13.63438,-3.49872l19.36136,-6.25352l11.49435,-10.11068l10.70892,-0.15968l18.59879,8.46114l6.25426,21.62664l19.49265,-1.32429l17.85006,0.1868l11.08002,24.14804l8.62794,31.34114l8.55123,9.0357l-7.95778,24.83801l-6.27806,7.36774l-12.01239,-0.45559l-16.81982,6.7007l-17.83146,30.02158l-10.28981,3.92161l-11.34778,0.00799l-13.91887,11.15262l-16.99905,-8.36145l-15.92341,-4.16207l-17.30818,-5.36468l-4.12933,-13.55864l-6.5943,-24.87316l-0.13574,-19.92673l-0.99285,1.8818l3.23294,-19.99303l-6.0795,-3.98973l-1.03293,-7.15861l8.65638,-8.41618l-4.97186,-17.244l10.60905,-23.40651l12.79955,-4.49798l11.97168,-4.1158l16.17897,-17.83454l13.95882,-4.77175l13.26176,1.89227l17.09137,27.59338l13.60532,7.25072l11.07084,0.73432l22.03371,8.74757l4.92359,15.66709l7.62227,28.5817l10.32469,10.02379l-10.33985,31.65429l-7.36413,6.69605l-7.5535,3.32943l-18.05417,-2.67014l-10.54868,27.24025l-14.18424,18.97866l-19.24964,-8.0172l-11.51644,7.15825l-12.30083,5.08947l-20.48251,-13.2875l-9.33458,2.65922l-10.01601,-7.83473l-12.54225,-22.60358l-1.14407,-18.88683l-10.71196,-24.87053l1.56323,8.79419l3.83385,-17.04332l-2.35013,-8.32753l-4.55031,-8.84598l1.37445,-9.42765l12.54012,-14.59815l4.2155,-9.98847l8.66514,-20.30162l7.46195,-3.97376l13.73686,-8.48787l22.59752,-9.28472l11.06637,-11.2448l12.32088,7.90828l17.78515,24.10201l19.14279,-0.30514l8.49145,8.91451l16.00904,10.22639l1.3774,9.51096l10.53562,25.62626l13.83006,20.26696l-2.78757,21.17524l-12.93278,12.06109l-9.22594,11.68245l1.11576,0.15108l-15.14185,8.00121l-8.58362,17.90224l-21.84886,17.12246l-14.11754,-4.10285l-14.37059,5.16912l-8.47171,5.45479l-24.96082,-16.35223l-15.07752,8.36279l-5.96536,-1.20264l-6.09695,-13.22603l-10.3799,-26.33855l-13.23642,-26.77599l-6.92679,-6.80556l2.83353,-3.68853l12.01343,-14.13983l-9.3175,-7.21703l-4.75149,-10.37934l1.04832,-7.58317l18.40662,-10.63913l6.79995,-14.21566l14.09341,-19.41188l-2.46196,-6.03373l18.30686,-2.75455l13.72623,-13.86169l18.94808,1.22117l7.39735,-5.94291l16.18959,15.6228l17.62831,13.02019l24.42141,-1.11502l8.77212,-1.26182l7.47629,22.90409l-3.21568,4.6343l12.80007,27.68509l14.21573,21.42657l3.46982,14.24816l-16.19599,10.48855l-13.01639,11.92863l2.02534,11.74331l0.7619,6.95872l-12.2854,14.0349l-19.50201,12.27923l-22.0113,12.25631l-14.31707,-6.05863l-10.2144,1.88724l-15.12445,-4.26145l-18.83124,-2.03925l-13.33446,15.90156l-6.35809,-7.51611l-0.73823,-8.91997l-8.70156,-29.45213l-19.59369,-19.47722l-20.15745,-15.20892l5.59631,-4.95323l12.17644,-9.62552l2.23861,-14.44163l-12.52627,-12.23701l-8.89923,-9.4407l13.01369,-8.2307l30.98561,-5.77268l0.16944,-22.5508l12.29787,-10.09549l-6.4413,-9.25825l15.38462,-7.5014l15.55322,-12.84266l20.61353,8.73977l10.11469,-3.67421l12.95798,7.7925l15.03359,12.35942l36.5199,8.85549l8.81418,-5.27867l15.73252,11.60777l-12.98722,15.06651l-2.91721,6.98653l19.20824,28.96282l15.44329,14.30698l0.82362,18.5944l-21.50795,1.94755l-14.86672,15.28129l8.73044,13.73003l8.14262,9.01946l-17.836,20.32828l-19.32001,9.30749l-27.18902,8.78822l-15.60771,-0.39955l-12.88484,-8.6698l-10.00658,4.11075l-18.82568,-6.32256l-17.98936,11.94907l-9.7784,4.08236l2.01359,-5.17748l-5.7578,-12.00163l-4.68953,-25.38035l-25.40388,-18.20988l-20.94159,-10.71522l4.29745,-12.9572l12.56231,-10.89944l-2.05747,-13.86572l-6.03933,-15.50719l-12.65653,-17.77297l12.35158,-8.88246l31.39298,2.77913l6.22603,-24.43182l12.14711,-4.2769l-7.13324,-5.13288l11.9047,-8.44208l14.27316,-19.31829l8.55875,6.56841l17.92384,4.36692l20.07442,-1.7352l10.6427,4.06615l12.28344,6.22458l32.28491,5.94361l12.88292,4.93637l19.22938,7.09741l-11.63891,16.95108l-5.03499,-3.72041l16.18669,28.79307l10.72815,11.9028l1.80168,10.88488l-3.98329,21.22624l-20.85145,4.66593l-4.79522,18.41351l12.74026,11.2948l-1.58615,23.9503l-15.99526,10.71203l-24.94392,7.91155l-19.12797,-3.56511l-16.04832,11.083l-19.93476,-6.19089l-7.33088,-0.63268l-22.09864,0.42639l-9.61196,10.22259l-13.3597,4.12334l-7.22988,-6.31225l0.74347,-6.32329l-3.61377,-24.00901l-18.51014,-12.22006l-25.35777,-17.33436l-5.94877,-16.06261l8.71195,-14.14185l1.24874,-3.68678l-4.94453,-11.36401l3.28608,-31.93593l-8.05198,-16.30506l8.74271,-4.78249l26.62079,-4.44938l14.81606,-21.00179l3.61455,-6.87861l-2.87847,2.46939l9.82555,-8.7691l12.7652,-14.85082l7.64221,7.30665l22.57605,9.99136l7.24964,-9.33769l21.9415,4.61475l14.95606,1.40208l17.70868,6.64326l27.30119,-1.20879l16.76029,11.87421l5.98409,7.45694l-7.2218,19.52901l4.23745,-8.70948l11.50007,21.01527l2.3052,11.66603l2.92766,10.42325l-2.23037,27.55419l-5.71832,10.57178l-13.25248,17.09969l6.70294,16.96623l-1.87191,21.37374l-10.84501,14.82939l-21.69247,-2.99262l-25.71265,1.19493l-4.08829,16.76769l-26.8275,1.32795l-19.26428,-11.97928l-7.52033,0.45765l-17.23773,11.81898l-10.34097,3.64997l-15.28021,-0.86159l-5.24195,-9.09193l-3.69331,-4.21363l-4.58654,-21.49501l-15.83446,-8.44611l-16.87765,-20.58834l-1.83254,-21.56516l-6.89783,-15.25813l-1.39977,4.20109l-1.01087,-15.42584l1.17053,-31.2067l7.31335,-21.52057l-0.57494,-6.28977l13.42114,-20.41757l11.57922,5.81773l15.17232,-17.44398l-3.28715,-2.15476l7.02484,0.39478l17.55469,-10.08352l6.72831,-10.17756l4.75077,12.22631l25.55799,-5.27095l4.43605,3.16248l24.66925,1.93407l22.31809,0.28877l7.68447,6.09274l16.03234,-2.04625l27.38687,9.66155l4.50822,3.70906l9.54575,25.34511l4.16953,0.15598l10.08347,12.54165l-8.732,13.71732l3.94411,5.21836l0.42508,9.62539l-3.59771,39.13391l11.30496,15.69553l-15.72908,9.36419l-3.48245,11.20321l-9.6033,20.25796l-8.84801,11.83438l-27.73703,-5.6058l-10.45328,14.04778l-6.23481,17.36734l-23.90958,0.45198l-23.51956,-13.41182l-4.56445,2.77554l-25.64925,-2.75531l-5.75368,12.24416l-4.97749,2.63566l-20.08337,-7.56032l-18.03646,-9.48119l4.29752,-8.16947l-8.71148,-17.25601l-12.74558,-9.20434l-9.93406,-23.41457l10.97003,-21.40601l-20.64867,-8.65806l-3.76087,0.86328l-0.70738,-11.5841l-3.30951,-31.75432l19.14202,-21.32962l1.3424,-13.50156l3.60867,-19.32493l4.95539,6.92126l17.09174,-8.17426l-3.01765,-15.56799l6.10445,8.28916l21.34982,-10.97454l17.48813,-20.84243M172.76565,25l-1.21572,7.06963l17.13876,11.86086l16.21396,-8.27213l8.79263,5.96545l28.19839,7.29781l14.02086,4.45122l10.30445,-13.05992l8.03533,1.24512l30.31472,13.85685l8.82348,5.70331l4.72745,22.99323l6.73567,3.86837l24.7238,13.38506l-15.6959,10.51616l0.0693,9.30535l2.07234,4.97129l-4.4439,38.52018l13.27616,23.44834l-11.92213,7.03143l-9.83492,3.98762l-10.93018,8.76417l-0.07956,20.42261l-27.21742,10.43l-20.44657,-1.67841l-2.77244,20.6746l-7.23227,15.24182M236.13384,273l-3.89909,-0.58479l-22.89444,-13.76654l-11.99909,-0.62147l-19.44031,3.17601l-2.99854,10.6171l-10.53733,-0.17184l-20.22931,-10.82981l-21.87499,-5.07601l-2.99162,-7.84068l5.65531,-15.49861l-18.30843,-15.97912l-8.12191,-13.53845l-1.90972,-25.18228l1.76261,-15.17318l-19.25553,-1.52085l4.295,-2.18677l-7.10033,-18.9971l8.23029,-26.86548l22.20707,-18.45406l-17.05743,-14.09449l10.40467,-6.31935l10.24201,-13.82052l16.15922,3.84602l-15.18123,-14.12062l13.10235,0.91682l18.53644,-6.97312l16.04622,-18.94081M178.84989,25l5.0623,3.98094l15.40743,-2.20719l11.4927,8.08386l26.38868,0.81475l15.16993,10.96023l3.70125,-9.47624l6.61502,-12.15635M267.16946,25l15.39291,9.09734l28.99706,15.96172l6.72098,13.20931l5.86242,23.76656l3.09305,3.59006l23.85628,10.97962l-9.20588,13.39811l-6.06113,12.11416l8.48126,8.0428l-10.06648,37.88059l13.66988,7.8182l-9.45105,13.58886l-18.77585,4.06787l4.65752,9.55279l-10.33318,12.89484l-15.00324,15.72666l-29.97955,0.13642l-9.06986,12.59396l-4.93254,21.13947l-1.96257,2.44067M215.91984,273l-5.78349,-6.63993l-14.99827,-5.89738l-17.96063,12.53731M151.67176,273l-21.42333,-8.4478l-17.48038,-4.16892l4.37426,-10.22346l-1.39724,-12.69192l-11.82989,-20.93113l-15.49186,-10.1983l-1.13859,-21.77024l1.99333,-17.83082l-13.44613,-1.40709l-3.41057,-3.72714l3.49452,-16.5929l-4.85458,-19.39003l16.70974,-29.81917l2.46063,-10.61797l-9.03727,-7.66759l22.85061,-9.30806l6.38142,-10.75336l7.26744,-5.45577l-6.96978,-11.52911l15.65491,1.50926l16.04611,-12.24111l5.78532,-4.73737M237.85577,25l12.28553,8.50991l5.68745,-2.61998l2.95107,-5.88993M287.79759,25l23.02212,16.77848l10.04963,13.45634l10.21915,26.15957l-8.30943,9.39412l24.93731,7.62473l1.0683,11.59142l-9.51557,22.67316l5.60651,-4.77493l-2.35957,21.36796l1.73128,27.42158l4.49898,6.54028l-11.10936,12.04422l-7.00096,-2.20441l-3.766,18.66101l-10.22804,15.37345l-20.00673,11.569l-25.17695,2.79418l-7.77789,17.36327l-5.82568,14.16656M202.19867,273l-5.81933,-5.93911l-5.45563,5.93911M125.1257,273l-8.43643,-4.66274l-7.13899,-10.06517l2.90144,2.93605l-9.19062,-32.57768l-2.61115,-5.44749l-20.67733,-17.48053l4.86908,-22.29906l-5.72564,-7.33147l-20.65446,-3.56276l4.13258,-16.07811l0.00517,-14.06405l-4.64871,-20.36484l22.17563,-28.0499l3.67999,-10.52008l-2.35337,-10.57218l19.06223,-4.97258l0.9242,-21.59779l8.31058,3.6769l-1.86664,-7.62289l6.59933,-5.309l21.21946,-7.7479l4.44518,-4.28671M252.25117,25l1.5278,1.70677l1.41946,-1.70677M295.95217,25l16.36547,20.92101l14.95971,15.76671l13.6721,16.55359l1.41288,17.71047l11.28413,7.20241l-0.32083,14.72496l-11.98701,22.10085l5.10171,-3.44047l1.39708,9.51936l-5.52088,32.3181l16.54852,9.24828l-6.42719,10.62584l-9.91128,4.16607l-2.23188,9.81956l-18.02663,9.61168l-14.26237,15.84593l-19.94959,3.69094l-19.2321,5.27878l-2.25818,22.78418l-2.54279,3.55175M114.44051,273l-0.34055,-0.12765l-8.38235,-11.00723l-3.27497,-0.84833l-11.36062,-16.82239l7.96693,-13.90023l-10.42882,-13.93785l-4.99039,-16.04953l-6.76419,-14.79554l-16.65949,-3.29173l-10.33397,-24.23257l7.07356,-5.29447l-7.11929,-16.97992l10.47081,-21.88854l15.64935,-19.79048l7.77665,-25.69291l5.64422,-10.79487l8.85532,4.00323l-9.45183,-24.55483l11.68471,5.20132l4.30117,0.81601l5.61847,-13.13384l14.05521,-4.87767M301.07102,25l3.1062,3.56036l7.79867,32.6587l27.75787,8.27904l11.25235,8.54828l6.8653,22.73856l-0.78191,11.99162l-2.9268,11.99719l-6.35529,15.71142l3.71419,-5.33749l-8.19929,18.01158l8.12098,26.44049l6.31847,7.63831l-0.03075,11.78032l-3.92329,7.23321l-9.02471,7.00102l-19.26208,12.13082l-15.68186,14.3501l-17.77465,7.55826l-15.7343,5.95232l-9.68209,15.24623l-1.62645,4.50967M101.81082,273l-4.50309,-5.09219l-4.85084,-8.50568l-11.6177,-3.54636l8.22363,-20.85957l-0.85637,-8.46001l-7.11334,-22.22017l-17.83951,-4.15468l-9.0806,-11.29915l-12.30107,-31.16373l5.52992,-13.27235l-6.78923,-14.38486l8.81628,-3.76058l13.93327,-15.73005l10.39449,-31.93066l9.86486,-28.9815l3.09834,-1.21039l-4.18501,-11.74843l4.15931,-4.88015l5.84292,1.86068l10.79919,-5.97245l11.45264,-2.68773M296.81652,25l4.03763,8.23312l5.86634,23.25411l24.07458,7.29578l24.4956,9.65129l5.10433,20.48738l-3.13297,15.53889l3.09886,12.20857l-7.49657,14.19357l-2.04911,-5.32097l6.21068,11.26845l-11.37909,38.90873l11.33177,4.13884l-4.54293,17.4075l9.15648,9.21729l2.09053,1.29847l-25.38568,9.05225l-22.03928,11.12468l-8.73337,8.93668l-15.31064,11.04412l-15.15767,13.1721l-2.33968,6.88916M89.56992,273l-1.13336,-0.61023l-13.35204,-11.64781l-0.23492,-15.77026l12.89956,-4.1935l-12.54618,-11.74284l-10.3541,-19.86261l-13.21332,-2.04785l-12.31315,-17.6241l-4.64353,-41.02355l8.02256,-9.12469l-9.41876,-19.82462l7.64271,11.07321l8.85452,-13.3827l18.09503,-31.24897l9.91699,-38.32098l5.53279,-7.78679l-12.66251,-8.31199l2.48974,-6.54972M299.33272,25l7.30764,17.61052l7.45354,13.3633l26.13409,0.17797l25.79497,13.8575l-3.36261,19.49439l1.02532,20.70219l-0.70244,8.26211l-6.91381,16.97219l0.57126,-6.94112l8.24616,8.57057l-11.66023,39.85449l6.29195,13.82529l0.14943,6.69022l8.17214,13.73844l-5.90904,1.98661l-7.67009,9.45142l-24.05677,12.22433l-17.41626,11.55939l-5.86889,15.54127l-11.82569,0.31436l-8.70144,10.74456M84.46912,273l-13.86717,-7.91449l0.10682,-12.28514l4.73778,-8.32666l-7.68961,-2.67689l-6.99506,-26.07265l-12.96308,-3.87013l-9.89533,-8.16188l-11.89546,-42.63606l7.6178,-11.88568l-4.77084,-25.74825l-0.89082,1.5826l15.13646,-3.10593l6.20289,-15.38275l10.23441,-37.96635l15.35873,-24.20541l3.0499,-8.74767l-10.83507,-10.59667M305.16209,25l4.71154,8.13829l3.69506,13.32135l21.00341,5.57798l22.54687,5.38908l4.06982,18.38988l4.975,22.9755l2.56269,16.68179l-1.6929,11.99728l-3.39872,12.56928l3.79492,-9.81519l0.19416,16.52341l-3.26497,29.43023l2.68743,11.79806l2.27421,15.18649l-3.47734,5.78076l-4.86605,6.78216l-3.04618,12.12699l-19.38539,14.6679l-23.40309,11.66328l-3.24261,10.50969l-8.77328,6.37399l-1.48972,1.9318M66.34337,273l-5.16752,-4.05669l12.12357,-23.26707l-7.00854,-1.17921l-13.21105,-2.01753l-6.74405,-28.33716l-6.82848,-8.84523l-11.02612,-9.68354l-1.43683,-27.67799l1.31805,-14.07172l0.8477,-25.83067l-2.60978,-0.75216l6.74558,1.62385l8.73944,-23.03983l6.06208,-36.26195l6.77768,-21.01118l12.35148,-11.19593l0.30059,-7.08113l-1.12578,-5.31485M315.61027,25l0.61451,19.79186l22.08145,1.27838l20.71435,7.67027l2.03507,15.46497l8.02364,22.42904l3.42818,10.18261l-0.93503,20.67141l-1.67447,12.37771l9.14836,-1.5083l2.52006,5.60701l-7.51633,16.52178l-4.74306,27.99532l0.48935,18.63213l3.29615,4.6046l-8.78099,7.12692l-3.81267,9.5357l-0.87006,16.8122l-27.40102,3.45458l-16.43651,15.81764l-4.89052,13.53416M62.22324,273l-0.47359,-20.57257l1.69491,-8.77188l-13.43006,5.70637l-6.69674,-14.14059l-7.26157,-27.62623l-10.58864,-6.96993l-0.46753,-1.78716M25,158.48108l3.92955,-2.59539l-3.92955,-17.10578M25,119.84416l9.2597,-27.74172l8.00597,-29.92642l5.9382,-14.43409l12.46722,-6.91445l1.63601,-12.38343l-0.29223,-3.44404M318.88742,25l0.3946,1.08486l6.77046,20.79212l26.46287,1.24841l12.49243,13.18437l1.15074,13.02879l4.54549,14.51303l5.34626,6.58216l-0.66535,18.95727l3.04568,12.43827l9.95868,2.46883l3.77846,9.52886l-11.19233,12.24651l-3.47413,29.22635l-1.09021,16.5918l-0.86093,13.21486l-3.96177,2.33427l-4.0728,14.36574l-2.96198,14.0062l-15.25016,4.90958l-22.85591,12.79846l-5.79561,14.47927M60.76309,273l2.44104,-20.59236l-3.77476,-8.99036l-12.51899,4.98251l-10.47276,-2.59191l-5.47759,-30.80425l-5.96003,-21.00388M25,156.92225l2.72173,-1.24412l-2.21784,-19.71397l-0.50389,-0.68147M25,105.02664l1.8608,-5.2327l1.25573,-27.9791l10.66151,-20.66285l8.90825,5.21855l15.88858,-20.94089l-2.10587,-10.42966M327.1263,25l5.67336,14.44763l26.52402,13.47076l11.57565,5.75899l-1.20425,2.42197l2.14207,13.29343l8.63398,6.13631l4.46766,7.32623l-1.52539,24.15165l9.37716,9.38872l2.20942,1.42969M395,151.75085l-1.79025,3.4338l-9.80049,24.29755l1.74755,19.19243l-5.24724,10.90347l-7.57321,4.74895l-1.55092,19.22603l4.09411,18.92736l-11.40669,-2.32645l-28.9811,20.77243l-1.22774,2.07359M61.95887,273l-0.61501,-5.5151l9.37769,-23.99879l-14.54323,2.10747l-18.06319,10.80605l-12.00028,-10.61119l-1.11486,-24.4777M25,151.61439l0.01698,-0.00853l2.70355,-23.13378l-2.72052,-1.70128M25,55.89789l3.07314,-7.04757l12.19699,5.19977l28.84544,-14.76066l2.68108,-14.28943M335.87148,25l8.70141,12.61525l34.34824,18.33825l9.89955,-0.19285l-14.77026,0.04379l0.58231,5.13837l2.26305,12.04688l10.62936,7.07829l7.47485,19.11431M395,179.8551l-4.81041,7.48221l-7.44583,17.33724l-8.93336,2.12327l5.02237,17.12294l2.65233,24.7548l6.68839,16.67914l-22.29578,-3.91827l-11.52338,11.56358M61.27806,273l-0.57018,-2.85466l14.00875,-19.46617l-7.15196,-12.71629l-33.20579,9.59118l-9.35887,2.98487M25,156.55556l0.799,-0.02645l-0.799,-2.12591M25,137.71366l2.01644,-5.58648l-2.01644,-2.41017M25,47.92096l3.7465,-3.16279l9.81417,6.90992l31.21769,-23.37488l0.88289,-3.29321M350.58948,25l20.19098,14.95689l20.74066,23.99189l1.12962,-11.85336l-5.70331,-2.3963l-9.29004,6.53716l2.03913,19.55306l13.19388,8.44678l2.10961,1.82789M395,190.82341l-14.23379,11.42269l0.62708,7.9249l8.267,18.5943l-1.42528,19.99173l6.56286,19.15509l-15.8874,-2.47895l-11.30363,7.56682M62.39735,273l-0.1789,-1.82442l4.25203,-15.37012l-7.41923,-15.16419l-21.5989,6.43813l-12.45236,3.11895M25,50.45653l10.14622,-1.81022l19.5483,-4.78797l7.94667,-18.85834M368.76151,25l21.45538,18.04782l4.78311,6.29713M395,50.25524l-12.72995,2.56701l-0.43437,20.65696l5.85048,9.24093l7.31383,-0.83912M395,191.73868l-4.18853,2.88317l-9.04173,6.36564l-0.89241,17.56965l11.03652,28.18284l1.28483,10.22029l1.80132,4.0349M395,271.13216l-8.12727,1.86784M54.07514,273l7.53842,-20.69594l-23.6355,-8.5324l-12.97806,4.23544M25,51.2834l14.57192,-9.24964l14.68367,-17.03376M383.94247,25l10.81193,8.63469l-1.38598,13.6385l-1.65126,5.3882l-7.50665,7.59283l4.36782,12.91864l2.607,6.43728l3.81467,-0.28125M395,197.65039l-2.45051,2.07252l-3.52385,19.60473l-0.63471,18.06676l5.32756,26.81365l1.28151,0.54663M395,267.51343l-6.69918,5.48657M48.28494,273l2.99375,-14.43034l-19.75249,-5.83454l-6.5262,-2.55011M25,44.34965l9.7102,-6.31117l8.8445,-13.03847M390.08405,25l4.91595,10.12966M395,56.5619l-3.85354,10.04313l3.85354,3.98791M395,227.72429l-2.60905,14.94287l2.60905,7.7208M41.10904,273l-3.49274,-18.0165l-10.83438,1.6523l-1.78192,-0.68804M25,35.16773l0.98791,-0.60702l5.80951,-9.56071M394.64929,25l0.22117,0.28838l0.12954,0.27315M28.3579,273l-1.34206,-5.09324l-2.01584,-1.6384" fill="none" stroke="rgb(0,0,0)" stroke-width="2" data-clipped="true"/></g></g></svg>