<svg version="1.1" xmlns="http://www.w3.org/2000/svg" xmlns:xlink="http://www.w3.org/1999/xlink" width="420" height="298" viewBox="0 0 420 298"><g><g><g/><path d="M188.91975,145.20588l0.79381,1.06807l-0.71186,1.35485l-2.97824,0.73877l3.49345,-3.01917l6.54663,-1.58928l-0.14711,3.12163l1.72985,5.69527l-1.48749,2.83364l-13.21444,-1.41085l2.56293,-9.48316l17.70194,-7.13498l0.01553,7.61988l1.84795,7.70235l0.02259,13.53349l-21.56773,-8.47447l-3.72694,-11.67415l21.54269,-18.85745l7.42626,9.8316l6.35102,8.60331l-3.70855,16.4941l-0.58256,16.407l-22.87765,-14.57419l-13.2228,-10.53709l0.4882,-6.73859l19.16622,-22.58618l20.13577,-1.19094l5.49018,17.00555l3.03213,5.14623l-4.30668,17.51245l-1.22056,11.99275l-6.97128,8.83677l-21.60608,-14.54929l-18.63981,-7.06227l1.01388,-8.54024l7.31697,-15.1544l18.89086,-15.31618l16.72038,-7.57966l5.52374,13.75542l5.96727,7.46567l7.74593,14.10429l-8.01083,11.66377l-6.66486,13.2141l-4.33297,12.3863l-15.18266,-5.53072l-21.80945,-7.60543l-8.58352,-7.00517l-0.49128,-6.83162l-0.0877,-32.0665l10.57191,-2.88506l24.12628,-12.32426l15.09408,0.74407l3.26649,5.37445l10.72828,6.17716l7.21396,17.1785l-1.52195,15.43157l-10.04809,9.66191l-6.61946,14.91947l-6.43746,11.68401l-16.93312,-8.98079l-20.7181,1.63184l-10.7401,-8.67748l-5.20277,-8.0721l-0.35163,-15.26311l4.50351,-34.39669l11.05971,-5.32159l17.7522,-3.31853l20.20028,-6.55345l7.48197,2.67506l8.3949,9.91977l6.92598,2.80368l9.42552,21.11027l-3.17169,15.04388l-5.69753,7.36926l-6.05917,18.73564l-9.82553,12.8441l-8.30362,5.34057l-20.4545,-11.27168l-15.19793,2.09168l-14.43202,-7.2977l-8.51013,-13.82066l5.07392,-12.20589l-6.23428,-28.1804l14.87864,-19.62033l11.58347,-2.56368l16.38107,-5.95107l19.24694,-10.78974l8.44283,12.05211l16.54038,4.54716l6.42949,0.36637l-0.64461,24.17723l13.23525,21.60472l-12.44404,4.80604l0.80819,13.09575l-6.01484,16.08181l-16.28518,6.84892l-10.25011,5.72256l-14.72559,-0.57596l-21.72987,-1.65574l-8.45242,-0.7046l-14.63673,-15.2139l-3.53722,-18.44812l3.76778,-14.69908l-7.86829,-16.01024l13.65967,-23.28387l11.05539,-13.71931l10.24246,2.7462l16.24763,-10.20585l14.76943,0.50612l12.68576,6.08865l15.08742,3.50943l10.50411,5.71308l3.21507,34.26467l9.81332,14.59838l-0.73155,13.89103l-12.55607,2.00108l-1.27202,16.64504l-15.13618,14.24931l-8.05326,0.99711l-17.17834,5.54166l-15.96154,2.49265l-15.19083,-0.35976l-12.74837,-4.47513l-10.2784,-18.99367l-3.61988,-14.31103l-2.50523,-19.99124l-0.6787,-9.58233l2.8138,-7.38356l2.15346,-26.749l8.49791,-18.60667l15.6466,-0.08082l12.71074,-9.23409l17.84282,0.46986l15.70502,4.8421l7.52322,8.81303l17.36188,-0.43725l7.90316,15.99493l16.24556,35.83038l0.79164,11.42352l-3.20594,15.33061l-7.95139,3.31509l-10.32055,10.23483l-15.84542,17.3792l-8.15326,5.00631l-12.20647,6.25043l-15.29441,1.69841l-13.02809,-1.93049l-19.36503,0.56298l-12.43685,-8.31397l-6.88267,-20.47812l-4.88,-13.39578l0.75214,-22.13287l2.13509,-7.52492l1.57866,0.00955l-6.30486,-22.63028l11.59229,-26.91782l1.94833,-9.7515l20.40269,0.67732l11.96954,-14.12159l17.938,2.45192l15.27978,1.18582l7.85234,21.38945l15.89887,3.45431l13.59559,-4.4336l8.64918,34.12774l10.81247,21.4179l5.97329,10.51368l-5.06126,18.14157l-16.52818,3.06174l-5.38676,6.31454l-17.42063,21.00059l-11.20235,8.44027l-9.71454,1.08501l-15.24985,6.00484l-18.04594,-0.42039l-12.78619,-2.37216l-19.64557,-10.04893l-3.6766,-10.85331l-5.7121,-24.14815l-1.87538,-10.66654l-2.61378,-14.14973l2.14046,-11.08926l1.36353,-4.8265l-2.42314,-12.94264l4.76464,-18.5607l6.25219,-20.11133l13.40428,-4.48634l18.23266,-6.1005l12.17744,-8.54107l11.6006,-0.02963l17.76305,7.42304l7.78242,18.44222l17.94023,0.81383l16.21654,2.47437l10.35076,21.81299l7.84144,27.76786l7.17384,10.25125l-6.5171,22.7801l-5.79845,8.84523l-10.91518,2.42963l-15.2418,7.7646l-16.48732,25.80191l-10.86881,4.63688l-11.95282,0.97846l-14.12063,9.20541l-16.57319,-6.85192l-15.61781,-4.12579l-16.49714,-5.64347l-5.74278,-12.64227l-7.28171,-22.03912l-1.68075,-18.47457l-1.81449,-1.46039l2.11218,-18.91993l-4.66398,-6.27928l-0.07944,-8.70305l8.15248,-9.50403l-2.12347,-16.19626l10.65831,-20.68794l12.75769,-5.25567l12.37348,-4.43099l15.87248,-14.72932l14.17493,-3.80546l13.57366,2.05234l16.44897,22.96052l13.43187,7.3774l11.07683,2.68235l19.3285,9.41669l5.29222,15.19904l6.89152,25.63162l8.46594,11.04615l-8.4671,28.1713l-6.6742,8.30917l-7.35752,5.44002l-16.1569,0.39354l-10.63856,23.69331l-13.8638,16.70421l-18.13368,-5.17041l-12.17608,6.3032l-12.8616,4.10556l-19.30187,-11.004l-10.33994,1.07621l-10.64837,-7.74154l-12.33071,-19.89323l-2.91367,-17.3458l-10.03186,-22.40108l0.19048,4.01835l2.52444,-16.57501l-1.81993,-9.71676l-3.01286,-10.07136l2.207,-10.38074l11.5402,-14.23295l5.39285,-10.26051l9.29446,-18.03039l8.64569,-4.6504l13.83309,-7.7254l20.97739,-7.82806l11.88464,-8.83824l12.81982,6.86317l16.99597,20.20264l17.83431,1.36524l9.08633,9.10032l14.65272,10.51375l2.62669,10.25018l9.39003,23.23042l11.48143,19.12338l-2.2054,19.88817l-10.76726,12.62773l-8.3466,12.19392l-0.64232,2.84625l-13.95112,8.76443l-9.14041,16.23731l-19.95574,15.19643l-14.07277,-2.07628l-14.42844,4.76245l-9.82759,4.46909l-22.86288,-13.31759l-14.93332,5.73705l-7.53099,-2.32144l-7.36903,-12.28694l-10.4238,-23.06364l-12.28914,-23.74425l-6.84899,-8.19814l1.35948,-5.91698l9.13166,-14.29544l-7.2412,-8.83503l-3.11688,-11.27422l1.96591,-8.914l16.16779,-11.10882l7.39556,-13.64429l13.53156,-17.39881l0.72351,-6.3953l17.39251,-3.34468l13.91631,-11.65332l18.11999,0.7888l8.96353,-4.37744l15.83085,13.19132l16.79838,11.60455l21.9314,0.85338l9.23084,1.13076l7.83511,20.6002l-1.04777,6.41083l11.17537,24.86301l11.81432,20.03658l2.81195,14.40363l-13.25282,11.39808l-11.21995,12.43094l0.2276,12.1021l-1.19788,8.06219l-11.90656,13.34871l-17.94439,11.58817l-20.1929,11.15368l-14.29478,-3.79717l-11.1667,2.01789l-15.09784,-3.33733l-17.99983,-2.06569l-13.54027,11.66164l-7.83696,-7.32983l-3.13988,-8.85954l-9.13479,-25.48835l-17.39473,-17.91283l-17.4334,-14.79464l3.3973,-6.87011l9.07283,-10.6929l1.68438,-14.55627l-9.52414,-12.78743l-6.18244,-10.47695l11.61454,-9.3517l26.26004,-7.1721l2.24049,-20.16055l12.16901,-9.95247l-2.39644,-8.89695l15.08903,-7.07765l15.36153,-10.85201l19.43615,6.70332l11.12137,-2.65094l13.29776,6.89371l14.79711,10.95878l31.59755,8.60701l9.39362,-2.19724l14.54614,11.51105l-8.56153,14.53619l-0.99879,8.36739l16.07906,25.92917l12.64147,14.42317l0.60197,17.84474l-17.54099,4.62384l-12.73507,15.06932l5.5163,13.66534l4.6526,9.69889l-16.27217,18.35858l-17.75771,9.29147l-24.2438,8.49655l-15.27212,0.80611l-13.24978,-6.18174l-11.03819,3.4815l-18.01964,-5.23716l-17.29013,8.77457l-10.65702,2.10881l-1.12669,-5.63519l-7.02625,-11.41756l-5.87556,-22.34764l-21.92398,-16.96128l-18.00302,-11.264l2.39572,-13.21586l9.37716,-11.70126l-1.74709,-14.09938l-4.44781,-15.3833l-9.24242,-17.09663l10.98288,-9.91503l26.45896,-0.48003l6.90296,-21.76393l11.91707,-5.5002l-3.06775,-5.82701l12.22942,-8.06024l14.27219,-16.25635l9.85511,4.6706l17.31314,3.37126l18.9962,-1.01493l11.44711,4.0146l12.60281,6.14349l28.2363,6.31615l12.62188,5.88097l17.34345,7.914l-7.43861,15.99075l-2.5901,-0.14986l13.80356,25.75846l9.05631,12.4965l1.55304,11.73925l-3.46513,19.91314l-17.2508,6.72877l-4.95618,17.4787l8.53274,11.65291l-3.17151,21.42905l-14.90349,10.65823l-22.26869,8.10876l-17.89609,-1.34464l-15.63625,9.856l-18.83455,-4.23529l-8.91921,-0.26341l-20.61331,0.14263l-10.67136,7.46985l-13.52336,2.22558l-8.49973,-6.43134l-1.9642,-6.80779l-5.14237,-21.14214l-16.6213,-12.10167l-21.69166,-16.39688l-5.9456,-15.58595l6.06408,-14.20723l0.57405,-6.01572l-3.90341,-12.12113l3.03731,-28.37671l-5.52244,-15.9144l8.17329,-6.64899l22.70312,-6.18925l13.70362,-19.04836l5.14499,-7.57845l0.27172,0.14984l10.54916,-8.38692l13.0457,-12.81535l9.10566,5.13103l20.98836,7.67286l8.85857,-7.2091l20.43693,4.25298l14.79893,2.11471l16.81718,6.65055l24.2004,0.79551l15.59865,11.48228l6.76936,8.27715l-4.01924,18.08349l4.68897,-4.06957l10.05164,19.61466l2.36918,12.31251l2.44964,11.37361l-2.04794,24.92562l-5.21796,11.41664l-11.57864,16.46671l3.8427,16.19218l-3.29649,19.46468l-10.719,14.02298l-19.58801,-0.38616l-23.00999,2.59496l-6.08393,14.56128l-24.22979,1.9543l-18.33463,-8.97953l-9.07676,0.45925l-16.75565,9.04531l-11.22862,2.17563l-15.02003,-1.78595l-6.90471,-8.67238l-5.46384,-5.15572l-5.9134,-19.15097l-14.52219,-9.09837l-15.01912,-18.94784l-2.75199,-19.91326l-6.38419,-15.06447l-1.63871,0.24655l-0.92956,-15.33413l1.20036,-27.81797l6.46142,-20.08875l0.60293,-7.91949l12.05165,-18.94393l10.93801,2.03145l14.09754,-16.13613l-0.23583,-3.74628l8.1691,-1.40887l16.70357,-9.35734l8.28501,-9.06288l6.82344,9.05842l23.3499,-4.39902l6.63184,2.67525l22.60278,2.09737l20.64486,1.17987l8.91547,6.14398l15.33437,0.04828l24.09137,9.63749l5.70874,5.21345l9.39254,22.59366l4.80318,2.86334l9.12831,12.83594l-6.14182,13.88762l3.50706,7.23214l0.32912,10.74479l-3.2471,34.08014l8.16602,15.45044l-13.60804,10.31638l-4.2664,11.60513l-9.4417,18.56371l-9.14434,11.64607l-24.36508,-2.44493l-10.91136,12.79927l-7.75986,15.08667l-21.89659,1.3344l-21.68603,-10.01677l-6.73073,2.41368l-23.42567,-2.35239l-7.62992,9.13773l-6.92327,1.15546l-18.7444,-7.2773l-16.94297,-9.13884l0.95946,-8.41603l-9.08108,-15.89524l-11.98361,-9.77253l-9.43833,-21.23594l7.4537,-19.81848l-17.2166,-9.85553l-3.47319,-2.40169l-0.67488,-12.29335l-2.35259,-28.25209l15.79947,-19.94329l2.07602,-13.64459l4.22262,-18.10934l5.62058,2.85595l15.53483,-8.86887l-0.10879,-14.46116l7.35522,4.71815l19.62937,-10.21296l16.98304,-17.97711l2.00097,5.06547l16.65966,8.93527l15.95979,-6.62681l10.07118,5.02193l25.37536,6.4493l14.04842,4.5582l10.96048,-8.95771l8.97783,2.69384l26.39175,12.97983l9.11958,6.79734l5.58811,20.72445l6.86292,5.78669l20.76681,13.48419l-11.58561,11.33491l0.53,10.45513l1.74413,7.05861l-3.78729,33.60825l9.87254,21.62222l-10.43526,8.52798l-9.12759,5.97892l-10.32007,9.58122l-2.03157,18.59455l-23.78927,10.43348l-18.6708,0.56704l-4.88549,17.95623l-8.89768,14.30942M240.2441,273l-6.61549,-0.53233l-21.19981,-10.34347l-12.61829,-0.30302l-18.50982,2.33498l-5.45071,7.86032l-11.33361,-1.03855l-18.87985,-9.82094l-20.01668,-5.59315l-4.86432,-8.08715l2.21832,-14.42886l-16.48503,-15.05855l-8.12573,-13.34243l-2.88986,-22.74045l0.35382,-14.95813l-15.93525,-4.25132l3.06831,-4.83825l-5.58943,-18.16395l6.91011,-24.36825l18.33221,-17.64246l-12.40551,-14.0835l9.66689,-7.78122l9.85015,-13.53544l14.82297,0.66946l-9.72733,-13.3036l12.89383,-1.12022l17.39194,-7.06328l15.32742,-16.46623M182.56464,25l3.94076,1.99427l15.31757,-1.91911l12.21749,6.58743l23.968,1.18938l15.00379,9.57039l5.80237,-6.27139l8.81289,-9.65935l17.38835,10.64014l25.24536,14.76308l7.35241,12.83151l6.3887,21.40554l3.88974,5.61474l20.00226,11.61085l-6.51119,13.63349l-4.37062,12.68571l6.78785,9.49111l-8.25068,33.10086l10.18963,9.24951l-8.45697,13.72664l-16.1688,6.05979l2.06993,10.23629l-10.08941,12.68226l-14.05357,14.69283l-26.14886,2.09083l-9.80341,11.66828l-6.70254,18.12735l-2.13268,2.19759M216.29206,273l-4.51611,-3.33634l-14.99819,-4.63341l-13.77131,7.96975M153.33249,273l-19.87958,-8.03203l-16.50336,-4.93238l0.99711,-10.01287l-3.3425,-12.23017l-11.34448,-18.98855l-13.96191,-10.69711l-2.29643,-20.03084l0.50256,-17.04991l-11.38774,-4.14912l-3.10141,-6.04953l2.71131,-16.26033l-3.55181,-18.46159l13.86266,-26.66659l2.91676,-11.37669l-5.86324,-8.91566l19.68775,-10.05432l6.93628,-11.00577l7.90112,-6.58882l-3.13298,-11.1464l14.98605,-0.5495l15.47192,-11.1394l4.88218,-3.66242M242.0959,25l9.45034,5.7502l7.38465,-0.86677l3.56573,-4.88343M284.66042,25l25.42858,18.89432l10.05562,12.96716l9.92537,23.23873l-5.02914,10.15074l20.98702,8.90229l1.77204,12.16087l-6.93624,21.01681l4.69923,-0.66628l-1.94622,20.0401l0.95457,24.80571l2.81303,8.21149l-9.86717,12.47005l-6.92549,1.05687l-4.65886,17.40966l-10.04922,14.61069l-18.0423,11.37424l-22.36116,4.17731l-8.78428,15.43832l-6.29073,11.74091M200.23487,273l-1.7848,-1.41456l-1.59058,1.41456M129.20615,273l-8.65689,-4.77835l-8.21613,-9.75374l-0.06246,0.27563l-9.40363,-28.07913l-3.93914,-6.81459l-17.96473,-16.5257l2.55419,-20.49472l-5.52412,-8.76745l-17.02262,-5.87237l2.92794,-15.83433l-0.00849,-14.2588l-3.3618,-19.23068l18.20132,-25.26354l3.87863,-11.30034l-0.58914,-11.22295l16.65904,-6.63946l2.5762,-19.62055l8.67941,0.59713l0.85452,-8.1144l7.76273,-6.02547l19.51464,-7.67912l3.00736,-2.59707M295.0655,25l17.43017,21.54419l13.91526,14.8209l12.64107,15.6469l2.66149,16.73807l10.18532,8.5649l0.69381,14.63485l-8.85621,20.55641l4.35146,0.38541l1.09458,10.66093l-4.70583,28.69193l12.44593,10.37693l-6.05577,11.38334l-9.11601,6.1534l-3.32468,10.48264l-16.10018,10.14277l-13.37175,14.876l-18.10339,5.02637l-17.73988,6.03424l-4.47982,19.62397l-1.36611,1.65587M117.98174,273l-9.16262,-10.40567l-4.98393,-2.68314l-11.16739,-15.56272l4.37377,-13.45922l-9.92939,-13.67319l-5.34661,-15.50157l-6.45921,-14.63633l-13.9901,-5.62625l-8.67141,-22.27021l5.42539,-7.31138l-5.4932,-16.56397l8.74803,-20.41939l13.1585,-18.69605l7.22862,-23.27535l5.8319,-11.35754l8.65131,0.5099l-5.58156,-21.91918l11.39222,1.84241l5.76556,-1.40158l7.00285,-12.19677l9.015,-3.3928M300.59678,25l5.25808,5.79052l8.36587,28.08189l23.93365,8.989l10.61413,9.38539l6.87156,20.77639l0.53392,12.3977l-1.45899,12.50247l-4.47641,15.51336l3.18677,-1.11043l-6.55547,17.38331l6.05485,24.03437l4.32187,9.09687l-1.00368,12.29347l-4.37452,8.58201l-8.68972,8.25853l-17.05553,12.15336l-14.46451,13.71913l-16.34439,8.12811l-14.92983,6.62175l-10.31491,13.72594l-0.75465,1.67686M105.77564,273l-5.00209,-5.04221l-6.18747,-8.79643l-11.33152,-5.09003l4.60957,-18.99403l-2.32735,-9.35156l-7.01376,-20.39338l-15.22527,-6.21305l-8.00075,-11.96265l-10.25236,-27.75354l4.16647,-13.62494l-5.28174,-14.51145l7.37599,-6.0767l11.72637,-15.49931l9.21749,-28.24279l9.08132,-25.79806l3.99544,-3.67575l-1.51432,-11.85598l5.33074,-6.23226l6.88342,-0.68728l11.00561,-6.65985l4.7832,-1.53876M299.22199,25l4.62362,8.28578l6.86485,20.60795l21.05881,8.17696l21.15297,10.22222l5.54638,18.95745l-1.24365,15.17134l3.40989,12.63991l-5.26674,14.28915l-1.24867,-1.11002l4.99259,12.04476l-9.2309,33.91964l8.4525,6.35809l-4.40612,16.79906l6.15563,10.22437l0.28823,3.83802l-21.72475,9.83375l-19.3216,11.30769l-9.01675,9.38629l-14.43362,10.84468l-14.50141,12.3005l-1.85933,3.9024M94.31423,273l-2.8109,-1.6765l-12.8018,-11.40871l-2.20203,-14.87228l8.42918,-5.88609l-11.46669,-12.01864l-9.46923,-18.57868l-11.45966,-4.58201l-10.46529,-16.99379l-4.10562,-35.57215l6.21317,-10.34549l-7.30201,-18.8155l6.49598,5.67338l7.74226,-13.63242l15.33804,-27.69491l9.13512,-33.18621l5.92432,-8.88117l-8.23387,-9.14124l4.70662,-10.38758M302.43378,25l7.46013,15.28171l8.07268,12.82588l22.64524,2.57803l22.14408,13.57737l-1.1862,18.18741l2.02802,19.26764l0.39049,9.51886l-4.80442,16.4887l0.83819,-2.39414l6.62798,9.90828l-9.41809,34.6707l4.50894,14.03398l-0.63488,8.32914l5.44194,13.82728l-5.97139,4.41733l-7.62028,10.19677l-20.83468,12.23912l-15.80413,11.53851l-6.872,14.49678l-11.77865,2.22989l-5.89202,6.78076M87.98386,273l-13.58415,-8.53582l-1.95649,-12.09191l1.93182,-9.13284l-7.66965,-4.81398l-6.87012,-23.4674l-11.33441,-5.99907l-8.63678,-9.4814l-9.94484,-36.83353l5.78267,-12.52448l-3.74362,-23.5087l-0.39097,-1.85611l12.57555,-5.52701l5.77646,-15.18051l9.23425,-32.96929l13.54788,-21.96184l4.04894,-9.58856l-9.56056,-13.68182l0.54387,-0.84573M308.37504,25l4.08721,6.02002l5.17651,12.71321l18.67781,6.77424l19.6825,6.7972l4.82331,17.24199l5.29592,21.00358l3.13164,16.13019l-0.50043,12.50773l-2.12037,13.02305l3.30076,-4.6596l0.17416,16.20582l-2.84034,26.41331l1.59809,12.4198l1.00135,15.04359l-3.81521,7.51518l-5.16945,8.2029l-3.97319,12.30719l-17.14061,14.17077l-20.53947,11.62435l-4.78155,10.52488l-7.98339,6.0206M71.74984,273l-6.3458,-5.2136l7.61,-20.83083l-7.31883,-3.5085l-11.9984,-4.31644l-6.63639,-25.2764l-6.45123,-9.94729l-9.51458,-10.69064l-1.65748,-24.99303l0.79285,-14.2549l0.69161,-23.57407l-1.77471,-3.70671l5.90013,-1.78874l7.74276,-21.25411l5.88104,-31.63897l6.69716,-19.46084l11.34925,-11.56469l2.03657,-8.16123l-0.79408,-7.81901M318.23229,25l2.37066,16.41956l19.54316,3.35999l18.25256,8.58796l3.24301,14.90799l7.75035,20.55087l3.86857,10.96497l0.16233,19.35655l-0.68154,12.85678l7.62349,1.90747l2.1104,7.56162l-6.10148,16.20095l-4.17115,25.25998l-0.29086,17.8008l1.67421,6.62694l-8.13695,8.53347l-4.44508,10.32925l-2.34648,15.95859l-23.56904,5.23353l-15.09404,14.85272l-4.90872,10.73003M65.83578,273l-2.2324,-18.91514l-0.51901,-9.45482l-12.27558,1.85975l-6.71617,-13.98098l-6.92461,-24.76596l-9.31164,-8.50145l-2.85637,-11.17777M25,159.97505l4.34687,-5.4211l-4.34687,-22.49829M25,122.79714l1.73416,-4.27823l8.80445,-26.74758l7.46314,-26.60705l6.06565,-14.23817l11.46431,-8.16143l3.10824,-12.34866l0.03754,-5.41603M322.78761,25l7.24094,17.91641l22.95086,3.38842l11.68599,12.9947l2.49006,13.01101l4.94981,14.30707l5.3469,8.13027l0.34339,18.00912l3.03115,12.90972l8.24972,5.05788l3.10045,10.66664l-9.00864,12.81651l-3.1545,26.23616l-1.52047,16.19011l-1.58765,13.45239l-4.28494,4.75411l-4.60744,14.17497l-3.95322,13.76744l-13.8956,6.42507l-20.11871,12.51254l-5.31057,11.27945M63.34373,273l0.43813,-18.05237l-4.8574,-9.62167l-11.57062,1.29683l-9.73054,-4.82545l-5.54651,-27.26776l-5.78851,-19.94113l-1.28829,-1.97371M25,157.22351l2.10138,-1.87234l-1.73233,-18.73168l-0.36905,-0.74179M25,107.58025l3.01944,-8.81597l2.00964,-25.10538l9.69104,-19.22177l8.52995,1.37789l14.27323,-19.20358l-0.38012,-11.61144M330.9891,25l4.67958,10.43365l23.06237,13.01041l11.03445,7.0625l0.7114,4.5619l3.14442,13.29279l8.05857,7.73338l4.52728,8.76371l-0.45637,22.15329l7.931,10.51614l1.3182,1.33965M395,156.49328l-0.95031,2.13888l-8.24202,22.32284l0.6565,18.23315l-5.12004,11.60374l-7.19424,6.64538l-2.65174,18.00221l1.60116,17.6441l-10.87598,0.6798l-24.98303,18.81225l-0.27416,0.42439M63.45317,273l-0.83089,-3.73666l5.42549,-21.4013l-13.31722,-0.88327l-15.89813,5.86947l-10.88285,-11.20289l-2.27582,-27.42902l-0.67375,-2.34575M25,138.59956l0.82256,-8.09811l-0.82256,-1.01625M25,63.66404l4.89283,-11.25568l11.10194,1.34628l24.49362,-14.3345l3.76039,-14.42013M340.12113,25l5.95025,8.22189l29.24821,16.87116l9.70513,2.35243l-10.02407,2.67648l1.92124,6.83059l3.0344,12.40423l9.43298,8.55804l5.61074,15.0811M395,184.17l-2.99287,5.27588l-6.77149,16.72465l-8.17694,4.60403l2.65014,16.3853l0.56056,22.31706l3.55164,15.79772l-19.58795,-0.64993l-8.27452,8.3753M61.74715,273l-0.0396,-0.14368l9.04069,-17.76957l-7.52636,-12.57484l-27.95643,4.95086l-10.26545,0.4071M25,52.30994l4.57283,-4.38243l9.26264,2.72524l26.41016,-21.12962l1.67217,-4.52312M355.52448,25l13.14944,10.16483l18.40197,21.40926l2.69034,-6.82674l-2.91527,0.78722l-5.95985,7.9716l2.79628,18.37224l11.3126,9.57934M395,194.96289l-10.06476,9.62908l-0.59951,9.20029l5.23407,17.55725l-2.64634,18.55821l3.47873,17.77544l-14.48369,0.51368l-6.76489,4.80316M61.83363,273l1.21265,-13.2269l-7.72632,-14.52138l-18.76161,2.45089l-11.55835,0.99147M25,51.52335l9.33961,-2.76639l17.08536,-6.46893l7.78153,-17.28803M370.97672,25l15.63257,13.62026l7.13014,9.48049l0.2869,1.37102l-8.74555,4.82058l0.91291,19.21445l5.67791,10.26028l3.12841,0.20784M395,196.78514l-0.26967,0.22476l-8.11083,8.01557l-1.8716,16.80888l7.36597,25.11937l-0.55305,10.79281l2.91445,13.05415l-6.95366,2.19932M53.62595,273l3.70451,-16.28432l-20.48626,-9.32678l-11.84421,1.47531M25,50.1878l13.22141,-9.85081l12.9156,-15.33699M384.67013,25l6.80211,5.66848l0.72784,13.33371l0.33481,6.92435l-4.49178,8.7786l4.71064,13.09005l2.24626,5.80267M395,211.60863l-2.19877,10.42361l-1.80569,17.14305l2.71878,23.96944l1.08087,3.81102l-6.68753,6.04425M47.52802,273l0.95041,-10.03955l-17.45068,-7.164l-6.02775,-3.24518M25,42.37392l8.7714,-6.66725l7.32428,-10.70667M389.73007,25l5.26993,10.18385M395,57.59444l-1.1297,4.9031l1.1297,1.43226M39.75332,273l-3.45424,-12.5108l-10.36341,-1.25603l-0.93566,-0.47728M25,33.26801l0.18009,-0.13017l5.07295,-8.13784M27.86067,273l-0.11323,-0.34482l-2.74744,-2.47552" fill="none" stroke="rgb(0,0,0)" stroke-width="2" data-clipped="true"/></g></g></svg>