<svg version="1.1" xmlns="http://www.w3.org/2000/svg" xmlns:xlink="http://www.w3.org/1999/xlink" width="420" height="298" viewBox="0 0 420 298"><g><g><g/><path d="M196.16546,146.50729l0.6589,1.03464l-1.00171,1.17612l-2.65628,-0.09002l2.55166,-3.17813l5.77273,-1.51314l1.29567,3.28886l0.74886,5.89766l-3.31622,2.78123l-10.96925,-2.62241l1.93948,-9.39211l14.73891,-6.31097l3.3118,6.92846l1.37684,9.20825l-3.66439,11.44436l-18.60869,-7.44498l-3.31354,-12.70085l17.81484,-15.97502l9.94315,7.14862l6.95748,9.9436l-3.6807,15.807l-4.76709,13.42104l-20.04611,-10.67739l-11.7086,-11.06689l0.69437,-9.53473l16.10748,-18.59274l18.30028,-1.59066l8.14555,13.56276l4.28743,7.96226l-3.56633,16.58799l-4.24443,11.68085l-9.54281,7.09959l-19.08632,-11.15006l-15.57143,-8.55573l-0.14027,-10.67646l6.69104,-14.7359l16.43708,-13.26553l16.05955,-5.79178l8.45118,10.79409l7.32933,8.74139l6.30283,14.25881l-6.50492,12.64665l-7.75263,12.55562l-7.59648,10.08221l-15.09957,-4.01384l-18.7779,-7.58112l-8.52488,-8.84952l-1.1121,-9.55869l1.36601,-26.02013l10.30412,-5.77835l20.52424,-10.26101l15.05576,0.42164l6.8662,5.54189l10.58246,7.78631l6.51358,16.11356l-1.2555,15.27244l-8.82647,10.9794l-8.17309,13.2365l-9.06604,9.40322l-16.26208,-6.13362l-18.30012,-1.04262l-10.62548,-9.39875l-5.38691,-10.04658l-0.34549,-15.16743l4.69789,-27.45417l10.61603,-7.39137l16.1779,-4.64312l18.36519,-5.03952l9.93468,2.84083l9.85557,9.26861l7.69008,5.90337l7.77124,18.76975l-2.252,15.02244l-5.61726,9.62338l-7.33363,16.2108l-10.90423,11.01561l-10.49786,4.4862l-18.53494,-8.13036l-14.57509,-0.93776l-13.0894,-8.45856l-7.84366,-13.70332l2.66468,-13.11407l-3.14553,-23.57818l12.26773,-17.39744l11.36855,-5.18725l15.42042,-6.09232l17.74928,-7.7511l10.59902,8.85353l15.41138,5.39685l7.82822,3.89549l1.91939,20.46801l9.59171,19.26551l-8.83219,8.24984l-1.57751,13.2906l-7.33801,14.43685l-15.06793,7.21651l-11.69421,5.10483l-14.81498,-0.51495l-19.17133,-2.68198l-9.78413,-3.37383l-12.86,-13.99284l-4.30975,-16.86724l1.89573,-14.76624l-4.32122,-15.5903l11.20614,-19.94233l10.6786,-12.86144l11.06317,-0.951l15.60132,-8.19076l14.84512,0.24231l13.30893,5.30074l14.35969,4.88777l10.49495,7.42763l4.59581,27.0321l7.66113,14.58996l-0.63122,14.26597l-9.74873,6.22523l-3.55386,15.30135l-13.71152,12.87052l-9.82784,3.0629l-16.29805,4.80598l-15.62801,1.48114l-14.91085,-1.6981l-12.77153,-5.60654l-10.33068,-16.18055l-4.90711,-13.87982l-2.97345,-18.10752l-0.49228,-11.43352l3.08251,-9.8372l3.84305,-22.11752l9.05688,-16.0226l14.58272,-2.86712l13.20942,-7.75404l16.84884,-0.13793l15.39808,3.99242l9.6699,7.80588l15.52013,2.79804l8.43721,14.50178l12.88078,28.21l1.54644,12.54165l-2.30512,15.21195l-6.63301,7.1155l-9.31412,11.19918l-13.92607,15.18265l-9.64471,6.12037l-12.8519,5.86425l-15.15843,1.70292l-13.66473,-1.87872l-17.55653,-1.39543l-12.46448,-8.29411l-8.0507,-17.20164l-5.79021,-13.24711l-1.01,-19.46533l1.0493,-10.06821l1.84715,-5.05954l-2.22088,-19.64259l10.57009,-21.9105l5.08951,-9.85319l17.90034,-2.05811l12.79618,-10.73825l16.92112,1.28975l15.11763,1.59345l9.92863,15.97848l14.68916,5.17597l12.43787,0.83996l8.28223,26.87955l8.68318,18.97474l4.406,12.02482l-3.96612,17.02571l-12.58947,6.84901l-6.25576,8.50906l-15.04051,17.49106l-11.65011,8.38097l-11.17424,2.56863l-15.10015,4.75069l-16.99442,-0.56407l-13.35884,-2.91966l-17.4763,-8.97793l-6.37449,-10.40703l-6.94515,-19.90697l-3.51509,-11.61253l-2.99821,-14.27734l1.18475,-12.42091l1.7354,-8.23658l0.26708,-13.29558l5.93669,-16.5084l7.73493,-16.86474l13.10514,-5.77024l16.76536,-5.90157l13.06545,-6.50057l12.75978,0.13943l16.67659,6.07351l9.76903,14.30248l15.92208,3.5934l14.09297,5.4482l9.40272,18.77743l6.819,23.1226l5.38323,11.83147l-4.64422,20.10482l-5.17496,10.76597l-9.48881,6.18043l-13.19037,9.14768l-14.73994,20.31634l-11.62149,5.56674l-12.73938,2.24008l-14.38292,6.67404l-16.01958,-4.88954l-15.22053,-4.07863l-15.44278,-6.0059l-7.84027,-11.45098l-8.17535,-18.35487l-3.68927,-16.58677l-2.88262,-5.80525l0.65518,-17.52491l-2.8238,-9.25569l1.1601,-10.71081l7.49741,-10.91824l1.57944,-14.8342l10.72235,-17.15381l12.70327,-6.24065l12.89583,-4.84073l15.47405,-10.69254l14.45588,-2.54928l13.97912,2.26044l15.61386,16.9378l13.2064,7.54207l11.08461,5.21478l15.81174,10.28653l5.77144,14.59058l5.94155,21.79653l6.04955,12.37523l-6.03252,23.64342l-5.77729,10.40621l-7.10274,8.18378l-13.69046,4.37632l-10.75541,19.0823l-13.44723,13.74741l-16.68293,-1.46958l-13.03362,5.19163l-13.59059,2.82648l-17.76703,-8.03545l-11.64691,-0.98171l-11.47043,-7.62039l-12.05571,-16.36977l-5.21415,-15.34246l-9.14773,-19.1908l-1.5941,-2.19024l0.82221,-15.9662l-1.13066,-11.52276l-1.01417,-11.66435l3.28932,-11.61976l10.24029,-13.7582l6.92342,-10.61417l10.11257,-15.07781l10.18457,-5.53004l13.95821,-6.73419l18.87123,-5.9344l12.94839,-5.7097l13.46844,5.50453l15.97004,15.13346l16.13327,3.53672l9.85968,9.34188l12.8895,10.88732l4.25076,11.21116l7.90075,20.11582l8.42822,17.63672l-1.44858,18.21498l-7.95208,13.36436l-7.20347,12.85883l-2.92783,6.34998l-12.40318,9.75661l-9.86422,14.0729l-17.49469,12.69258l-14.01458,0.55827l-14.50364,4.23379l-11.59024,3.18768l-20.13555,-9.37255l-14.74586,2.3236l-9.5663,-3.77589l-9.02275,-11.06613l-10.48086,-18.80626l-11.05767,-19.80298l-6.74784,-10.00848l-0.55678,-8.81396l5.38535,-14.49774l-4.542,-10.93844l-0.99189,-12.43756l3.15877,-10.64408l13.25732,-11.71942l8.16986,-12.90151l12.80114,-14.78182l4.86462,-6.86534l16.20385,-4.11185l14.16342,-8.78244l17.04347,0.22673l10.99957,-2.34233l15.36448,10.03039l15.71947,9.76422l18.69439,3.41229l9.82718,4.24111l8.30157,17.60515l1.77051,8.72032l9.06326,21.19431l8.69249,18.2296l1.95672,14.60574l-9.42671,12.58047l-8.88458,13.08395l-2.10947,12.56853l-3.7456,9.4967l-11.41408,12.45666l-15.91949,10.68979l-17.82899,9.72027l-14.26581,-0.85728l-12.4047,2.18774l-15.06325,-2.13597l-16.919,-2.10007l-13.80783,6.14975l-9.7595,-7.08767l-6.26202,-8.78097l-9.69799,-20.33545l-14.53608,-15.87911l-13.89213,-14.25609l0.53859,-9.36206l5.03814,-12.08049l0.96389,-14.70529l-5.62139,-13.50297l-2.6506,-11.82408l9.79564,-10.80901l20.1168,-8.99135l4.93286,-17.05323l12.00148,-9.76654l2.86188,-8.42725l14.70477,-6.52677l15.11234,-8.26417l17.90556,4.05592l12.43005,-1.3207l13.73949,5.72529l14.48969,9.13795l25.19848,8.28399l10.14689,1.80862l13.00384,11.38532l-2.80813,13.84677l1.49516,10.1625l12.01112,21.98543l8.9991,14.57423l0.31382,16.87018l-12.38393,8.10302l-9.96392,14.79377l1.33791,13.58124l0.11556,10.58214l-14.2392,15.79798l-15.72672,9.27065l-20.41501,8.11739l-14.83586,2.37347l-13.72419,-2.94726l-12.37929,2.66347l-16.97179,-3.82614l-16.38113,4.64773l-11.79922,-0.45682l-5.20906,-6.23022l-8.67523,-10.65828l-7.41741,-18.40512l-17.40011,-15.3381l-14.18288,-11.9774l-0.07653,-13.55211l5.23647,-12.74362l-1.3436,-14.40315l-2.37884,-15.22223l-4.80408,-16.21739l9.20357,-11.25738l20.04472,-4.71694l7.78296,-18.29567l11.61801,-7.0905l2.21738,-6.72939l12.65155,-7.56385l14.27093,-12.27583l11.54038,2.20345l16.51922,2.07691l17.5945,-0.07858l12.49283,3.94758l13.01798,6.03808l22.97311,6.80046l12.28253,7.10895l14.89174,8.97557l-1.97823,14.74231l0.58825,4.49186l10.70548,21.81345l6.88291,13.2683l1.22981,12.84993l-2.79153,18.20612l-12.56995,9.41045l-5.16542,16.26345l3.06298,12.11845l-5.23247,18.15142l-13.48418,10.58829l-18.79091,8.36514l-16.29464,1.54196l-15.10056,8.26089l-17.40428,-1.693l-10.98404,0.21663l-18.68237,-0.22625l-12.04857,3.89129l-13.73611,-0.2415l-10.15053,-6.58615l-5.48417,-7.43764l-7.12955,-17.41521l-14.1658,-11.94777l-16.92572,-15.17816l-5.94149,-14.96629l2.62184,-14.29221l-0.30306,-9.04335l-2.54996,-13.10539l2.7139,-23.74972l-2.23404,-15.40655l7.43305,-9.07545l17.61015,-8.45108l12.25745,-16.5089l7.13457,-8.48823l4.36695,-2.86558l11.48985,-7.8901l13.41036,-10.16924l11.00813,2.30274l18.92436,4.6588l10.95019,-4.44193l18.48099,3.78268l14.59465,3.04114l15.65824,6.66003l20.16936,3.4011l14.08852,10.97278l7.79021,9.34342l0.14408,16.20431l5.27594,1.96231l8.16868,17.79386l2.45235,13.15293l1.82823,12.60909l-1.81079,21.50849l-4.56748,12.51495l-9.40266,15.64385l0.12438,15.18592l-5.14843,16.9829l-10.55518,12.97464l-16.85222,3.00223l-19.49652,4.41499l-8.67828,11.69296l-20.85275,2.76855l-17.12609,-5.07986l-11.10012,0.46132l-16.12896,5.43954l-12.38257,0.25899l-14.6818,-2.98763l-9.06631,-8.12696l-7.76554,-6.38043l-7.63832,-16.1037l-12.81624,-9.94631l-12.60303,-16.81519l-3.94729,-17.7658l-5.71646,-14.81272l-1.94933,-4.89434l-0.82386,-15.2149l1.23914,-23.41263l5.3539,-18.22739l2.13416,-10.03811l10.27132,-17.0282l10.10443,-2.89071l12.70033,-14.43594l3.73089,-5.81526l9.65664,-3.7536l15.59713,-8.4133l10.30873,-7.61379l9.5179,4.94015l20.47938,-3.26551l9.48638,2.04186l19.91637,2.30965l18.46966,2.33831l10.51576,6.21059l14.42702,2.77117l19.80721,9.60621l7.26943,7.16916l9.19336,19.01676l5.62691,6.38291l7.88659,13.21852l-2.7746,14.10902l2.9389,9.85004l0.20438,12.20001l-2.79131,27.51024l4.0854,15.13182l-10.85069,11.55422l-5.28553,12.12763l-9.23162,16.3612l-9.52957,11.40127l-19.98155,1.66421l-11.50686,11.17622l-9.74242,12.12181l-19.27971,2.48154l-19.30244,-5.60321l-9.54689,1.94326l-20.53502,-1.82859l-10.06903,5.09938l-9.45278,-0.76882l-17.00375,-6.90937l-15.52143,-8.69378l-3.38003,-8.73655l-9.56156,-14.12624l-10.99305,-10.51117l-8.79387,-18.40372l2.88248,-17.75469l-12.75491,-11.41224l-3.09922,-6.64615l-0.63263,-13.21537l-1.10859,-23.69918l11.45415,-18.14106l3.02974,-13.83053l5.02075,-16.52907l6.48533,-2.42895l13.51083,-9.77186l3.67273,-13.02227l8.98122,0.07585l17.3928,-9.2229l15.922,-13.7702l6.26555,1.97809l16.03683,5.132l15.62938,-4.48789l11.73331,3.79534l21.70542,5.34623l14.08424,4.69727l11.81331,-3.62483l10.20307,4.57719l21.29187,11.83971l9.50451,8.21959l6.70698,17.77503l7.02834,8.28051l15.62273,13.61307l-6.24224,12.39928l1.12891,11.94984l1.31746,9.77214l-2.9337,27.22275l5.44783,19.24826l-8.50234,10.4735l-8.20805,8.56762l-9.52692,10.64338l-4.56918,16.21807l-19.33268,10.43801l-16.3623,3.48614l-7.63245,14.42234l-10.97641,12.16992l-17.79577,0.46324l-18.99679,-5.89349l-13.42325,0.11097l-17.3002,1.24163l-8.63852,4.27651l-12.36878,-2.16528l-17.12555,-8.5094l-17.60088,-6.26542l-7.29883,-8.40756l-2.24976,-13.03818l-14.11461,-13.86182l-8.1307,-13.08761l-4.16403,-19.56608l-1.47761,-14.67857l-11.61888,-7.80093l1.4736,-8.28519l-3.62527,-17.08086l5.19389,-21.12184l13.2949,-16.58738l-6.358,-14.06922l8.70777,-9.68165l9.34073,-13.16483l13.08584,-3.46008l-2.63726,-12.24148l12.62277,-3.76838l15.9041,-7.18048l14.62946,-13.24927M211.12415,25l7.11288,2.50906l20.82112,1.6764l14.78782,7.7636l8.53382,-2.10508l10.25216,-3.80751l15.57342,10.04003l20.36815,13.20484l8.17327,12.34036l7.07287,18.33621l4.92543,8.24683l14.99204,12.43145l-3.00809,13.93949l-2.17295,13.42872l4.58642,11.3739l-5.89014,26.8872l5.66531,11.11021l-7.16465,13.90574l-12.77964,8.64928l-1.29393,11.12486l-9.7725,12.40591l-12.81901,13.34885l-21.16896,4.63157l-10.75703,10.4649l-9.00354,14.21158l-2.41471,1.88158M209.10083,273l-10.19148,-2.03193l-5.15562,2.03193M155.46229,273l-17.84355,-7.49153l-15.23323,-5.92487l-3.3932,-9.73911l-5.87133,-11.6299l-10.71344,-16.46321l-11.97298,-11.34557l-3.80161,-17.76963l-1.43544,-16.03473l-8.71184,-7.71375l-2.69951,-9.06863l1.69314,-15.82797l-1.8582,-17.25461l10.16146,-22.56823l3.50974,-12.36303l-1.73701,-10.53816l15.57603,-11.02445l7.65759,-11.33389l8.72491,-8.0618l1.85485,-10.64887l14.11654,-3.22589l14.72547,-9.70717l3.4992,-2.26499M249.04864,25l4.32403,2.16258l9.59101,1.41241l5.59994,-3.57499M280.37028,25l7.97959,5.65027l20.78921,15.99465l10.06341,12.33122l9.54346,19.44164l-0.76475,11.13433l15.85164,10.56312l2.68689,12.90114l-3.58312,18.86357l3.51978,4.67497l-1.40887,18.31388l-0.05514,21.40508l0.6213,10.38406l-8.25233,13.02363l-6.82737,5.29654l-5.81958,15.78291l-9.81675,13.61912l-15.48853,11.12106l-18.70063,5.97537l-10.09259,12.9359l-6.65759,8.58756M134.51428,273l-8.94704,-4.92865l-9.61642,-9.34888l-3.91553,-3.18291l-9.68053,-22.23102l-5.66552,-8.59182l-14.43835,-15.28442l-0.45517,-18.14908l-5.26215,-10.63422l-12.30123,-8.87486l1.3619,-15.51742l-0.02624,-14.51197l-1.68882,-17.75628l13.03471,-21.64126l4.13686,-12.31469l1.70436,-12.06895l13.53489,-8.80641l4.7238,-17.05012l9.15888,-3.40658l4.39203,-8.75335l9.27515,-6.95688l17.29838,-7.58971l0.55184,-0.40053M292.84809,25l3.10497,2.83345l16.77408,19.52087l12.55746,13.59133l11.30075,14.4682l4.28468,15.47394l8.75687,10.33613l2.01283,14.5177l-4.78617,18.54864l3.37612,5.35906l0.70132,12.14498l-3.64626,23.97791l7.11255,11.84418l-5.57293,12.36809l-8.08216,8.73693l-4.74531,11.34464l-13.5958,10.83319l-12.21396,13.61509l-15.70334,6.76243l-15.8,7.01634l-6.98389,14.70691M122.82686,273l-9.97576,-9.45771l-7.20558,-5.06839l-10.91619,-13.92514l-0.29734,-12.88591l-9.28013,-13.32914l-5.8097,-14.78922l-6.06275,-14.42935l-10.51989,-8.66114l-6.51009,-19.71913l3.28276,-9.93336l-3.37928,-16.02324l6.50842,-18.50949l9.9204,-17.2733l6.51618,-20.13252l6.07589,-12.089l8.38609,-4.03144l-0.55021,-18.49282l11.01197,-2.52418l7.66926,-4.28444l8.80255,-10.97858l3.45277,-1.46247M299.60168,25l8.43413,8.68973l9.10323,22.13203l18.96216,9.91195l9.78444,10.47363l6.87971,18.22557l2.2445,12.92561l0.44916,13.15933l-2.03386,15.25588l2.50112,4.38475l-4.41851,16.56657l3.36888,20.90642l1.72629,10.99299l-2.26849,12.96056l-4.96111,10.33546l-8.25423,9.89329l-14.18701,12.18266l-12.88196,12.89887l-14.48507,8.86892l-13.88402,7.49202l-9.23625,9.74377M110.90608,273l-5.62697,-4.97723l-7.92509,-9.17441l-10.95948,-7.09681l-0.08871,-16.56883l-4.23962,-10.51057l-6.88431,-18.01856l-11.82675,-8.88894l-6.59694,-12.8252l-7.58903,-23.32029l2.39399,-14.0833l-3.322,-14.67601l5.50362,-9.08764l8.8574,-15.19934l7.68738,-23.44854l8.06272,-21.65959l5.16166,-6.88071l1.95758,-11.99581l6.85359,-7.99001l8.23606,-3.99962l11.27396,-7.55348l0.10419,-0.0451M302.03152,25l5.70299,8.35425l8.16291,17.16795l17.13831,9.3225l16.80755,10.96443l6.12103,16.96855l1.21247,14.69353l3.81423,13.20065l-2.36795,14.41342l-0.2081,4.36422l3.40908,13.05397l-6.43824,27.43383l4.70944,9.24312l-4.22827,16.00808l2.25452,11.53356l-2.05477,7.13943l-16.96554,10.8497l-15.78862,11.54561l-9.38515,9.97077l-13.29351,10.5854l-13.64827,11.16743l-0.01409,0.01961M100.05557,273l-4.56546,-3.06266l-12.08649,-11.09788l-4.75927,-13.7049l2.61768,-8.08646l-10.06335,-12.37718l-8.3189,-16.90958l-9.17991,-7.87643l-8.06307,-16.17438l-3.40635,-28.48534l3.86098,-11.93254l-4.55024,-17.50365l5.00524,-1.3464l6.29633,-13.95705l11.75394,-23.07464l8.11869,-26.51101l6.4333,-10.30386l-2.47663,-10.21926l7.87602,-13.97005l3.5658,-1.40674M306.51743,25l7.6061,12.25426l8.87756,12.12723l18.10975,5.6981l17.39792,13.21321l1.64314,16.48832l3.33152,17.40272l1.8113,11.15262l-2.06221,15.86016l1.1852,3.51693l4.52435,11.6473l-6.50332,27.93178l2.19101,14.30527l-1.65448,10.45973l1.89268,13.94278l-6.05243,7.57728l-7.55551,11.16573l-16.64597,12.25836l-13.70836,11.51137l-8.17605,13.13894l-11.71751,4.72007l-1.59362,1.62782M92.34047,273l-13.00367,-9.34354l-4.63878,-11.8407l-1.71592,-10.18088l-7.64369,-7.59219l-6.70771,-20.08059l-9.21714,-8.7667l-7.00068,-11.19678l-7.40904,-29.29024l3.39701,-13.35491l-2.40823,-20.59728l0.25883,-6.32643l9.24637,-8.67443l5.2221,-14.91759l7.93404,-26.47311l11.19379,-19.04519l5.34769,-10.68172l-3.22457,-13.11637l4.75332,-6.52134M313.10654,25l2.72092,3.26628l7.10241,11.92263l15.65452,8.32937l15.95882,8.62776l5.80285,15.74974l5.71311,18.44009l3.87127,15.4131l1.04979,13.17133l-0.45852,13.61295l2.65836,2.04266l0.14815,15.79295l-2.28833,22.49132l0.18195,13.22806l-0.65338,14.85783l-4.25444,9.76991l-5.56387,10.04986l-5.1783,12.54146l-14.2224,13.52449l-16.81675,11.57374l-6.78218,10.54463l-3.88336,3.04985M78.56211,273l-7.66142,-6.71759l1.74236,-17.66373l-7.7222,-6.53657l-10.42196,-7.30502l-6.49643,-21.29741l-5.96081,-11.37997l-7.54958,-11.99986l-1.94432,-21.50258l0.11008,-14.49304l0.48871,-20.64049l-0.68913,-7.54761l4.80103,-6.22512l6.44709,-18.93268l5.64568,-25.62909l6.59248,-17.44539l10.04634,-12.04408l4.29335,-9.56536l1.03909,-11.07441M322.19431,25l4.10028,12.03557l16.24339,6.06609l15.05223,9.78095l4.81333,14.18391l7.39507,18.10925l4.44107,11.98203l1.58891,17.64722l0.60928,13.47957l5.64117,6.34798l1.57784,10.1026l-4.26217,15.78387l-3.42766,21.70403l-1.30512,16.72008l-0.43431,9.25597l-7.29969,10.36199l-5.26722,11.36086l-4.26582,14.8489l-18.58746,7.54616l-13.34883,13.59832l-4.3316,7.08465M70.75982,273l-4.7466,-16.76048l-3.39709,-10.34264l-10.77475,-3.14086l-6.74144,-13.77348l-6.48655,-21.0476l-7.65154,-10.49243l-4.50393,-18.2934l0.07296,-16.69169l3.35849,-9.63472l-2.69045,-19.94439l-0.94597,-7.35071l3.7147,-11.66478l7.23355,-22.52192l6.75747,-22.29187l6.23134,-13.98347l10.16053,-9.7825l5.02213,-12.30347l1.37787,-7.97961M328.33839,25l6.85904,12.76767l18.38525,6.17043l10.63762,12.74814l4.23117,12.9879l5.47543,14.03932l5.34773,10.1428l1.65474,16.77653l3.01226,13.52259l6.02807,8.42364l2.21904,12.14576l-6.16984,13.55752l-2.73897,22.3489l-2.07981,15.66792l-2.53239,13.76117l-4.70507,7.8999l-5.30248,13.92697l-5.24183,13.45706l-12.13468,8.39522l-16.56034,12.14085l-4.20862,7.11969M66.71961,273l-2.18669,-14.75039l-6.26483,-10.44236l-10.33772,-3.49455l-8.76565,-7.72904l-5.6361,-22.67033l-5.40552,-17.9956l-3.12308,-6.38356M25,157.64641l1.29492,-2.72029l-1.10117,-17.4547l-0.19375,-0.77397M25,111.5216l4.52567,-14.09587l2.98971,-21.36955l8.42942,-17.34836l8.03815,-3.61498l12.17327,-16.94508l2.76008,-13.14775M336.51447,25l2.88391,5.21548l18.56223,12.41196l10.33089,8.75705l3.20174,7.34382l4.44747,13.29196l7.31054,9.80957l4.60478,10.63245l0.93336,19.55543l6.05099,11.98179l0.15962,0.29377M395,163.56397l-6.07439,19.30566l-0.76187,16.98608l-4.95469,12.51409l-6.70158,9.11073l-4.0828,16.41124l-1.63967,15.97585l-10.18605,4.58792l-17.69364,14.54446M64.86116,273l-0.57695,-1.4247l0.28763,-18.02456l-11.7234,-4.77123l-13.08355,-0.54809l-9.43018,-11.9721l-3.39999,-22.81098l-1.93471,-6.60853M25,73.81506l7.25841,-16.78125l9.67837,-3.66325l18.83626,-13.7805l5.54188,-14.59005M346.05061,25l1.9688,2.51052l22.61816,14.96394l9.45238,5.66129l-3.85403,6.09898l3.66184,9.03048l4.03714,12.86877l7.87769,10.48172l3.1874,9.31227M395,190.81387l-0.63006,1.37314l-5.89484,15.92828l-7.19359,7.82902l-0.43377,15.42638l-2.15875,19.14801l-0.52614,14.65186l-16.06776,3.59892l-4.11776,4.23053M63.568,273l2.02135,-12.18341l-8.01308,-12.39097l-21.13226,-1.08156l-10.00637,-4.23267l-1.43763,-2.85112M25,58.68297l5.64706,-6.63535l8.54564,-2.71484l20.16036,-18.21078l3.07522,-6.12201M361.19485,25l4.74056,3.93516l15.36167,18.05185l4.71928,-0.29213l0.70919,4.9258l-1.63059,9.83637l3.78058,16.83717l6.12445,7.57448M395,201.72993l-4.64503,5.91165l-2.19407,10.85829l1.29126,16.20907l-4.23372,16.69463l-0.53063,15.98191l-12.65887,4.4041l-1.54169,1.21041M60.07,273l-1.47519,-8.06897l-8.12553,-13.68572l-15.07313,-2.73253l-10.39614,-2.41628M25,53.31498l8.291,-4.41418l13.88354,-8.65417l7.64722,-15.24662M373.43728,25l8.48211,7.86443l7.72031,10.3789l2.90993,5.25246l-3.35493,7.70768l2.66437,17.3392l3.14093,6.67253M395,207.21842l-2.07583,3.05643l-3.14454,15.81988l2.59427,21.13687l-2.9423,11.53708l-0.97421,12.82736l-2.9265,1.40397M51.82102,273l-0.05858,-10.54922l-16.39224,-10.35948l-10.3702,-2.47323M25,48.9098l11.46574,-10.77862l10.61544,-13.13118M385.18828,25l2.01714,1.81241l3.47579,12.93749l2.91671,8.92135l-0.57245,10.32011l1.97454,5.09798M395,238.52775l-0.61847,2.96269l-0.67264,20.27198l-2.05933,6.82654l-4.2822,4.41104M45.28094,273l-0.44285,-4.33152l-14.45834,-8.89231l-5.37976,-4.24317M25,39.84017l7.55095,-7.16485l5.32384,-7.67532M389.55541,25l3.49094,6.0881l1.95364,4.67704M36.77518,273l-2.18849,-5.35338l-9.58668,-4.9519M25,29.93812l3.18262,-4.93812" fill="none" stroke="rgb(0,0,0)" stroke-width="2" data-clipped="true"/></g></g></svg>