<?xml version="1.0" standalone="yes"?>
<svg xmlns="http://www.w3.org/2000/svg" width="1234" height="810">
<path style="stroke:#000000; fill:none;" d="M921 98L925 97L931 97L932 98L932 103L937 101L935 97L942 95L943 94L947 94L948 93L957 92L959 94L964 94L969 97L969 102L971 107L975 112L981 112C984.276 114.153 986.638 115.433 990 113L990 110M960 94L954 101L959 104L966 97L966 97M969 97L973 94L979 94L980 95L987 95L988 96L995 96L996 97L999 97L1008 97L1010 99L1017 101L1015 106L1020 102L1017 101M932 98L935 97M996 97L996 102M944 99L945 100M970 103L976 99L985 102L982 106L973 108L973 108M962 101L966 105L969 102M985 102L988 103M918 106L912 110L913 103L919 107L923 105L926 105L928 104L929 104L930 104L931 104M936 103L940 109L946 111L947 111L948 112L949 112M1005 120C1008.35 117.005 1009.95 115.704 1014 118L1007 122L1005 117L1002 113L1005 111L1007 103L1006 107L1014 108L1014 107M1021 103L1027 107L1032 110L1042 114L1039 122C1042.43 124.413 1044.07 124.245 1048 123L1048 123M910 110C906.344 109.944 904.739 109.243 903 106L911 106L911 106M965 104C962.408 109.819 967.089 110.017 971 107L971 107M1009 104L1011 104L1012 104L1014 104L1015 104M945 105L948 105L953 108M960 105L961 107M1001 113L997 111L1002 105L1003 104M1010 105L1010 107M939 108L934 111L934 115L922 112L920 115L913 110L913 110M1013 109L1015 111L1017 110L1020 110M1032 110L1025 117L1031 123L1036 123L1039 132L1043 138L1048 140L1049 148L1057 140L1049 130L1044 126M906 112C904.133 115.679 902.308 116.81 899 114L904 110M966 111L965 114L957 114L956 115L953 115L946 115L946 114L945 112L945 112M997 111L990 119L995 120C999.12 124.768 1001.77 126.052 1007 122L1007 122M1014 111L1010 115L1005 116M896 114C893.058 116.088 892.269 116.484 889 115L896 114M1005 112L1007 114M1032 112L1032 114L1030 115L1027 118M896 114L899 114M966 114L971 116L975 118L985 118L985 115M1043 114L1049 117L1054 124L1056 132L1060 132L1065 139L1065 131L1060 132M874 124L878 122L886 116L887 115L888 115L889 115M915 115L915 120L920 122L930 119L931 117L931 117M1033 116L1032 116L1029 119L1028 120M935 116L943 117L944 116L945 116M990 116L992 116M992 116L996 120L1001 118L1002 118L1003 118L1004 118M1043 116L1042 119M901 117L899 120L893 118L890 122L882 122L881 123L880 122L879 121M1038 131L1035 130L1032 123L1034 117L1039 117M914 121L910 124L914 118L914 118M1042 137L1034 143L1031 136L1028 132L1022 127L1026 118M901 119L904 122L909 121M1015 119L1017 120L1018 121L1020 122L1021 122M986 120L989 120M1016 121L1016 124L1021 128M904 122L904 126L898 125M920 122L918 126L914 127L908 134L899 136L892 127L886 131L878 135L884 141L882 145L883 154L879 157L876 160L872 163L864 156L861 167L862 168L865 168L868 168L871 168L872 163M975 122L976 123M1037 122L1039 122M1006 123L1009 127C1012.25 130.071 1015.67 133.946 1020 131L1020 128M1030 123L1025 126M861 124L864 124M910 124L907 127L910 130L911 131M1016 124L1011 128M1054 124L1057 124L1061 127L1061 128L1062 129M877 125L878 127L881 130L882 131M913 125L913 126M945 125L945 126M936 126L938 126M983 126L986 126M1043 126L1041 128M905 133L905 127L906 127L907 127M880 139L876 141L872 139L868 142L862 144L853 153L852 148L859 145L860 139L863 134L868 130L872 132L878 135M893 131L889 135L889 140L893 142L899 138L899 136M976 131L977 131M1035 131L1031 135M886 132L889 136M1055 132L1053 134L1052 135L1051 136L1048 139M1019 133L1024 137L1027 143L1034 146L1034 151L1038 151L1046 154L1046 158L1049 163L1049 168L1053 170L1062 170L1066 177L1064 189L1063 185M1028 133L1024 137M988 134L991 134M1000 135L1001 135M1068 136L1073 139L1070 143L1074 146L1076 155L1068 156L1066 151L1061 149L1056 154L1048 151L1049 148M940 137L943 137M983 137L986 141L991 146L993 146L999 150L1003 156L1002 166L997 158L992 155L979 146L979 146M896 141L903 148L906 144L914 138L915 139L916 139L917 139M1005 139L1006 139M1063 139L1058 141M1065 139L1069 142M922 140L921 141M870 141L873 144L874 144L877 141L877 141M884 141L888 141M868 142L871 147L871 151L878 158M892 142L887 153L886 153L885 153L884 154M927 142L926 143M915 143L916 146L915 143M1035 143L1033 145M570 149L564 146L568 144L572 144L573 144L574 144L575 144L582 144L583 145L589 145L593 146L598 148L601 150L608 153L611 153L616 155L620 158L626 160L629 160L634 162L638 164L645 172L651 178L652 182L656 186L658 190L662 196L662 200L665 204L670 212L674 216L674 217L680 223L683 230L688 237L691 245L694 253L694 262L696 267L696 272L697 273L697 278L699 280L699 282L699 287L700 288L700 296L701 297L701 301L702 302L702 305L702 308L702 311L704 314L704 319L706 321L706 326L707 327L707 334L708 335L708 338L708 342L708 343L708 344L708 345L708 349L709 350L709 353L709 357L709 358L709 359L709 360L709 365L708 366L708 373L709 374L709 378L711 383L712 391L700 401L700 405L694 407L690 412L690 417L692 421L696 421L706 412M874 144L871 147M904 155L905 151L911 146L912 145L913 144L914 144M938 154L932 156C929.736 152.652 928.503 150.848 930 147L934 150L943 145L943 145M1008 145L1009 150L1003 155M1071 145L1067 150M530 154L526 155L530 157L531 153L535 152L539 152L540 151L547 151L554 149L561 146L562 146L563 146L564 146M1000 146L1002 148L1003 148L1005 150L1006 151M860 147L861 156L862 157M867 147L865 152L872 159L873 160L874 161M1001 148L999 150M555 149L563 150L564 150L565 150M863 149L865 151M901 151L905 151M933 150L930 153M1009 150L1018 153L1019 154L1020 155M1034 151L1027 160L1028 161L1028 162L1029 163M587 152L594 154L595 154L596 153L597 153M849 152L851 156L847 163C844.357 159.28 844.053 157.144 846 153L849 152M856 152L858 154M867 152L870 152M942 152L944 152L945 152L947 152L948 152M1048 152L1046 154M1057 153L1064 157L1065 158L1066 157L1067 157M579 154L584 154M845 154L850 159M865 154L865 155M430 321L426 326L426 322L426 321L426 319L426 317L427 316L427 309L429 305L429 303L430 302L431 297L433 294L433 292L435 289L435 287L437 283L438 282L438 281L439 280L439 279L440 277L442 275L442 273L446 267L447 262L451 255L451 251L452 247L455 240L455 236L455 235L455 234L455 233L455 226L458 219L458 214L460 212L460 208L464 204L466 200L473 193L480 189L483 185L484 184L487 182L493 176L494 176L498 172L503 170L504 166L508 163L509 163L523 155L524 155L526 155M558 155L562 156M1076 155L1079 160L1083 161L1087 169L1092 168L1090 163L1086 162M933 156L935 158L937 158L940 158M1077 156L1073 160L1072 161L1071 162L1070 163L1066 167L1065 158L1065 158M935 158C933.045 163.093 929.671 165.852 933 171L939 165M536 159L539 159M877 159L883 165L882 170L876 175L878 179L877 190L869 191L869 191M1079 160L1075 164L1075 170L1076 171L1086 170L1086 170M985 161L985 171L985 172L986 173M990 163L991 163M606 164L611 169L610 170M898 164L894 172L894 176L894 177L894 178L894 183M921 164L916 172C912.859 169.166 911.139 167.642 907 169L907 170L906 171L905 172M831 177L833 179L837 176L838 171L847 164L852 167L858 168L859 169L860 168L861 167M925 165L925 167L930 168L930 168M976 166L977 167M981 166L982 167M993 174L992 170L998 166L999 166L1000 166M1004 167L1007 174L1014 173L1019 178L1024 171L1025 170L1025 168M1065 167L1062 170M556 179L549 182L545 186L539 184L543 177L550 173L556 170L562 170L564 168L566 168L570 168L571 168L572 168L573 168L579 168L583 170L586 170L589 171L597 178L591 187L585 185L581 188L574 181L570 181L567 184L565 185L558 178L558 183L559 184L560 183L561 182M924 168L931 174L932 179L940 172L941 173L942 173L943 172M989 168L990 170M1049 168L1042 176L1041 177L1041 178L1041 179M508 169L504 171M859 169L861 177L859 183L860 178M872 169L874 175L875 175L876 175M888 169L886 175L885 179L885 186L885 187L885 188L886 189M934 169L937 172M1015 174L1021 172L1021 172M1052 170L1052 177L1057 184L1057 185L1056 186L1056 187M1092 170L1095 174L1095 178L1100 182L1104 190L1105 191L1105 192L1106 193M928 171L927 172M948 172L954 175L949 179L943 180L941 173M916 172L916 176L923 172L924 172L925 172M933 172L931 174M974 172L977 176L985 180L994 180L1000 184L1005 185L1011 189L1016 194L1025 196L1026 186L1026 186M1035 172L1036 172M567 173L569 173M1091 173L1095 178M1009 174L1015 180L1016 179L1017 178M593 175L585 182L585 183L585 184L585 185M927 175L927 180L918 177L917 176M954 175L959 175L960 176L963 176L973 177L974 177L975 177L976 177M1087 176L1090 175M498 184L501 181L502 181L505 178L506 177L507 177M899 184L904 190L908 186L912 179L913 178L914 177L915 177M936 177L941 180M1052 177L1049 181L1049 186L1050 187L1050 193L1047 197L1043 199L1045 204L1049 204L1054 199L1059 205L1060 206L1062 205M529 178L530 178M564 178L567 178L570 181M597 179L603 179L610 186L611 186L618 195L613 200C611.443 198.18 608.532 195.504 612 195L613 196L614 197L615 198M644 178L644 186L644 187L645 188L645 189M597 179C599.929 182.739 602.264 189.836 607 185M624 179L633 188L633 189L633 190M844 179L848 182L853 190L854 191L855 190L856 190M932 179L928 181M1034 179L1037 184M1073 179L1077 184L1077 185M832 180L834 183L839 184L840 185L841 185L842 185M854 180L856 181M941 180L936 184L932 184L926 186L924 188L920 189L914 193L907 195L905 197L903 197L901 198L900 199L898 200L892 202L888 201L887 201L878 199L873 202L867 208L862 208L861 207L859 205M1029 180L1031 184M1095 180L1094 182L1094 185L1094 186M955 182L955 185L954 190M965 182L965 184L965 185L965 187L965 188M540 186L536 193L532 192L530 187L538 183L538 183M834 183C831.423 185.862 830.028 187.239 831 191L824 194L825 190L829 188M1088 183L1090 183M511 184L507 187L505 190M559 184C560.219 188.011 563.398 189.773 565 185L565 185M867 184L874 186L875 186L876 186L877 186M491 185L489 187L488 188L487 189L484 192M593 185L599 190L600 189L601 189M1071 185L1072 185M904 186L902 189M947 186L946 192L939 193L933 200L939 199L941 195M984 186L987 200L988 200L991 197L990 190M1086 186L1088 186M532 192L528 194L521 199L525 192L530 187M546 187L548 191L552 188M591 187L592 195L599 190M641 187L640 192M907 187L909 189M1018 187L1017 188M1067 187L1069 187M651 188L651 194L658 200L659 201L660 201L661 201M976 188L976 190L976 191L976 193L975 194M831 191L839 191L836 193M1088 190L1086 192L1084 192L1081 192M548 191L550 194M862 191L861 194M878 191L878 194L878 195L878 199M904 191L907 195M488 196L493 192L494 192M525 192L527 194M993 192C995.44 194.7 996.446 195.96 1000 195L1000 193M1050 193L1053 196L1049 200L1048 198M1053 195L1056 193L1058 193L1061 195L1062 195M1068 193L1070 193M537 194L544 201L545 202L546 203M645 194L644 196L644 197L643 199L643 200M824 194L822 199L826 200L833 200M890 194L893 199M618 195L622 196L618 202L621 201M658 195L658 197M1009 195L1007 202L1002 207L1003 213L1007 217L1007 223L1016 232L1017 232L1021 236L1026 243L1031 234L1035 241L1039 244L1042 240L1042 235L1034 237L1034 237M591 196L590 200M848 196L850 197M868 196L870 198L870 199L872 201L873 202M1025 196L1031 200L1036 200L1043 199M538 197L534 201L531 207L524 199L524 199M617 197L621 201M997 197L1000 205L989 204L989 201M602 198L604 201L604 203M979 198L980 202L980 205L982 211L989 205M1054 198L1054 199M1088 198L1089 198M521 199L518 203L522 214L526 221L529 219M650 199C650.829 201.747 650.988 203 648 203M822 199L818 209L825 214L829 209L828 206M841 199L842 200M1068 199L1070 203L1074 200M1097 199L1100 199M518 211L514 213L509 220L506 216L507 210L516 200L518 200M613 200L606 205L605 203L605 203M861 200L863 200M933 200L930 205L925 213L933 220L933 227M1016 200L1016 207L1010 213L1009 214L1008 215L1007 216M1049 200L1049 202M520 201L526 207L520 210M659 201L664 209L665 215L665 216L664 217L664 218M852 201L854 201M917 202L913 208L908 206L911 201M1106 201L1110 210L1111 216L1104 222L1096 227L1096 228L1097 229L1097 230M576 202L578 202L579 203L581 203L582 203M623 202L618 208L623 203M1022 202L1021 207L1021 212L1017 216L1016 216L1013 219L1009 223L1008 224L1007 225L1006 226L999 236L993 241L991 250L987 255L986 256L985 257L985 258M1056 202L1051 207L1052 213L1061 216C1065.43 217.453 1068.65 217.322 1071 213L1065 209L1061 216M618 203L615 206L612 204M1070 203L1068 208L1069 209L1065 209M603 204L601 207L606 205M624 204L627 209L621 211L615 219L615 220L615 221L616 222M651 204L652 210L648 215L648 216L648 217L647 218M658 204L653 211L658 209M874 204L869 214L865 212L860 217L862 224L868 219L865 213M1028 204L1029 211L1027 220L1027 221L1026 222L1026 223M1049 204L1051 206M1092 204L1096 204L1097 205L1101 205L1102 206L1101 212L1103 218L1103 219L1103 220L1103 221M835 205L838 205L841 207L842 207M945 205L945 208L945 209L945 210L945 212L945 213L945 214M1098 205L1094 209L1100 211M574 206L576 206L577 206L580 206L581 207M616 206L618 208M653 206L657 206M1000 206L1002 208M1060 206L1059 213L1060 214L1061 215M601 207L602 214L602 215L602 216L602 217M887 207L888 208M912 208L910 216L904 211L907 207M989 207L992 213L1002 223L988 234L991 240L992 241L993 242M1017 207L1021 211M1019 207L1021 207M556 208L559 213M825 208L823 210M847 208L848 212L852 218L859 217L860 218M893 208L889 212L887 216L885 227L888 228M939 208L939 212L939 213L939 214L939 215L939 216L939 217L939 218L939 219L939 222L939 223L939 224L939 225M989 208L982 213L982 211M598 209L596 212L596 216L596 217L596 218M619 209L619 211M627 209L630 213L631 220L622 230L623 235L630 236L635 243L635 247L638 256L643 265L639 268L629 278L635 284L638 284L642 280L643 276L643 273L644 269L644 266M818 209L815 216L820 221L817 228L815 220L825 214L825 214M829 209L840 214L837 224L841 230L835 238L830 233L830 229L823 228C818.215 232.772 811.084 236.994 810 244L814 246L819 240L831 241L834 238M858 216L862 209L863 210L864 211L865 212M1036 209L1041 215L1035 222L1034 223L1033 224M1070 209L1075 211M1086 239L1081 233L1087 231L1085 225L1080 220L1085 213L1091 210L1092 209L1093 209L1094 209M575 212L578 210M644 210L642 214L642 219L640 223L640 228L640 229L640 230L639 231M657 210L659 212M540 211L542 217L537 212M591 212L596 211M1073 211L1071 213M654 212L654 216L651 223M905 212L905 214L910 217M619 213L621 219L624 226M826 213L830 218L835 218L836 219L837 219L838 219M924 214L929 222L930 223L931 224M983 214L982 222L982 223L982 224L982 225M869 215L868 216M1041 215L1045 217L1049 224L1044 232L1044 233L1043 234L1042 235M1116 215L1116 217M582 218L587 216M875 216L875 220M536 217L540 217M851 217L850 221L859 231L855 236L861 242L860 250L854 251L857 257L860 250M924 217L920 224L929 231L930 236C933.286 239.595 936.196 242.219 934 247L933 246L937 238L933 238M1059 217L1059 221L1067 228L1070 234L1074 230L1074 225L1068 227M1069 217L1072 221L1080 227L1081 228L1082 227L1083 226M511 218L515 218L523 224L524 223L525 222L526 221M920 223L916 219L905 220L904 219L903 219L902 219M1066 218L1066 225L1067 226L1068 227M1111 218L1113 223C1109.42 225.048 1108.23 224.512 1105 222L1105 222M943 219L945 219M1044 219L1041 223L1044 228M607 220L606 226L612 231L613 232L620 238L623 235M610 220L611 220M1037 220L1041 224L1037 230L1037 231L1037 232L1037 233M1093 220L1087 225L1086 225L1085 225M520 224L521 228L520 237L516 234L511 234L505 231L507 221L509 221M509 221L512 224L516 224L517 224L518 223M848 221L846 225L849 229L855 235L848 239L848 243L837 254L842 258L849 256L852 248L848 243M880 221L880 223L880 224L880 225L880 228M907 221L907 229L912 234L916 234L919 231L919 225L919 225M1075 224L1079 221M1111 221L1108 224M659 222L655 228L653 233L652 234L651 235L651 236M828 222L831 228L837 224M840 222L843 225L846 225M1001 222L1000 223M1058 222L1059 230L1049 244L1053 248L1060 247L1061 246L1061 241L1070 235L1070 235M571 225L567 235L559 224L563 223L566 223L571 225L575 223L583 225L587 224L595 224L596 225L599 225L606 225M671 223L669 230L671 234L671 241L669 243L673 250L671 252L668 248M988 232L993 223L1000 223M1003 223L1012 232L1011 238L1016 243L1013 249L1011 240L1011 240M1093 223L1096 227M512 224L512 227L512 228L512 229L512 231L512 232L512 233M538 236L534 237L529 241L533 245L533 247L540 255L544 251L541 247L542 240L539 235L538 231L546 226L550 226L556 224L557 224L558 224L559 224M862 224L859 229M1049 224L1054 226L1050 232L1052 239M583 225L583 229L576 229L570 235L572 244L571 248L571 255L578 262L578 263L578 264M843 225L841 229M1114 225L1114 230L1115 231L1115 239L1108 237M608 226L613 226L614 227L619 227L620 228L621 229L622 230M834 226L836 228L837 229L839 231L840 232M875 226L876 229M1030 226L1032 227L1036 230L1037 230M1055 226L1056 227M607 227L602 236L608 241L616 245L619 240M646 227L646 231L645 234M945 227L945 231L945 232L945 233L945 234L945 240L944 241L943 242L943 243M986 227L988 229M1051 227L1052 228M1064 227L1060 230M1081 228L1081 231M817 229L818 231M521 237L525 240L534 230L535 230L536 230L537 230M584 230L589 239L590 240L591 240M662 230L662 232M1103 231L1105 230L1109 231L1110 231M898 233L903 239L909 235L910 234L911 233M1074 233L1074 238L1070 235M511 234L510 237L504 242L512 251L523 239L523 239M566 234L561 238L560 238M568 234L570 236M573 234L583 238L576 245L580 251L580 252L580 253L580 254M817 234L819 236L819 239L819 240M1059 234L1060 238L1055 243L1055 244L1055 245L1055 246M607 235L609 235L610 235L612 235L613 235M917 235L924 244L930 250L931 251L932 252L932 253M936 235L936 237M983 235L983 238L980 240L979 241M1092 235L1094 235M204 285L204 293L197 298L195 289L198 285L203 285L209 278L213 272L213 271L220 261L221 249L219 245L220 240L229 236L235 242L235 237L232 237M462 236L462 237M597 236L601 237M917 236L911 243L915 252L915 253L916 254L916 255M1099 236L1100 236M511 237L513 239L514 240L516 242L517 243M621 237C624.351 239.995 625.946 241.296 630 239L631 238M1000 237L1000 241L1001 245L1003 247L1004 254L1004 255L1004 256L1004 257M213 240C211.783 244.191 209.64 246.091 206 243L213 240L220 238M583 238L585 238M837 238L844 238L845 238L846 238L847 238M1060 238L1062 240M221 239L229 241L230 240L230 239M526 239L528 241M663 239L660 245L660 246L660 247M894 239L893 244L891 252L891 253L892 254M987 239L989 246L990 247M1067 239L1069 243C1068.47 247.732 1065.92 252.634 1061 249L1055 255L1046 262L1052 267L1055 267L1058 264L1052 261L1051 262L1050 263M237 240L242 241L248 240L253 242L260 245L264 248L270 254L281 261L281 266L285 270L286 270L291 276L281 280L279 276L273 272L273 268L271 266L269 266L266 266L265 266L260 268L256 262L253 264M531 240L539 244L540 244L541 244M619 240L621 242L622 243L623 244L626 247M678 240L677 244L676 250L677 254L677 256L677 257L676 260L682 269L687 273L687 278L683 284L673 282L674 284L675 285L677 285M832 240L838 246L839 247L839 248M902 240L902 247L902 248L902 249L902 250M1042 240L1047 246L1048 246L1049 245M1052 240L1055 243M1116 240L1116 244L1117 245L1118 253L1116 257L1117 261L1114 272L1115 276L1115 280L1115 281L1115 282L1115 283L1115 285L1115 286L1115 287L1115 288M242 241L246 248L240 256L241 261L246 262L251 261L257 259L257 260L255 262M249 241L246 247L255 246L255 244M877 241L874 245L877 252L880 248M914 241C916.802 244.693 917.912 248.744 923 247L923 245M983 241L985 245M827 242L827 246L829 248C829.142 252.377 829.844 255.162 834 257L837 254M1025 242L1022 246L1021 254L1020 255L1020 256L1019 257M1034 242L1032 247L1029 253M1091 244L1095 242M1107 242L1109 242M195 289L186 279L185 274L178 270L176 266L185 258L191 264L192 257L196 253L195 248L204 243L206 243M235 243L231 246M504 243L502 248L509 255L512 252M1024 247L1027 243L1032 248M572 244L575 244M1039 244L1039 248L1042 248M243 245L236 252L235 252L227 259L222 252L221 252M603 245L604 245M614 245L611 248L608 247M809 245L807 253L808 254L813 254L814 247M868 245C868.796 251.124 870.41 256.781 877 252L877 252M887 245L889 249M985 245L984 250L983 251M1078 245L1078 246M460 246L460 248L460 249L460 252L459 253M592 246L596 246M617 246L613 253L617 250M1048 246L1053 249M261 247L256 251L260 256L266 250M917 247L915 249M977 247L977 249L975 251L972 251M1098 247L1100 247M253 248L256 251M465 248L465 252L464 257M541 248L539 251M932 248L932 250M1039 248L1037 255L1037 252M1061 248L1061 249M185 257L183 252L192 249L193 249L194 248M202 249L207 250M591 249L594 249M923 249L924 252L928 249L928 249M1013 249L1013 253L1010 255M1102 252L1105 249L1110 250L1116 257M544 251L547 250L551 251L552 251L553 251M604 257L607 256L603 251L610 252M673 250L676 250M852 250L854 252M991 250L995 254L997 257M1054 250L1054 254M228 251L230 251M878 251L883 255M950 251L951 255M1019 251L1021 254M1032 251L1034 253M1091 251L1095 251M550 252C546.722 254.93 544.438 257.051 540 256L536 261L536 266L537 267L541 267L542 266L542 258L542 258M671 252L671 258L674 262L672 271L673 270M942 252L942 257L944 261L948 261L949 261L950 261L951 261L952 261L953 261L954 261L955 261L956 261L957 261L958 261L959 261L964 260L965 260L968 261L974 261L975 262L981 262L985 264L989 264L990 264L991 264L992 264L998 264L1003 262L1010 262L1013 264L1014 264L1021 264L1022 265L1025 265L1032 265L1037 267L1041 267L1042 267L1043 267L1044 267L1047 267L1048 267L1049 267L1050 267M1068 252L1061 256L1060 255L1059 254L1058 253M1080 252L1081 253M197 253L204 258L210 256L211 256L212 256L213 257M238 253L239 256M1013 253L1016 258M179 260L178 257L181 254L182 254M806 254L806 258L811 261M823 254L829 262L823 268L821 268M862 254L861 264C862.396 268.621 860.823 270.858 856 271L856 271M259 255L257 257M474 255L473 259M480 255L480 258M509 255L508 258L503 261L501 265L498 268L497 270L495 272L491 275L490 280L495 285L499 285C502.958 278.971 500.66 275.817 496 271L496 271M662 255L664 259L661 262C662.763 265.828 663.806 267.901 668 266L664 267M908 255L908 259M1069 255L1068 260L1072 265L1068 268L1062 269L1063 273L1070 279L1073 273M1074 255L1078 259L1085 262M1109 255L1110 255M186 256L191 257L192 258M239 256C235.681 259.738 233.718 262.234 236 267L241 261M1055 256L1055 259M1102 256L1105 256M176 266L172 262L178 257M587 257L591 257M628 277L626 263L635 258L636 257L637 257M667 265L666 260C670.141 257.07 672.671 257.02 676 261M857 257L856 260L859 263L860 263M1056 257L1061 257M1096 257L1099 262L1098 266L1102 273L1106 270L1111 270L1112 271L1113 272L1114 273M183 271L189 265L196 264L202 259L203 258L204 258L205 258M509 258L515 264L519 264L527 268L523 275L524 279L528 282L533 293L537 293L538 293L539 293L540 293L546 293L554 291L561 295L569 296L572 299L574 299L575 299L576 299L577 299M806 258L804 263C800.225 267.953 799.309 271.468 804 276L804 274M842 258L843 261L848 262M1049 258L1052 261M1060 258L1057 263M206 259L207 263L212 268L213 269L214 270L215 270M220 261L226 259L228 266L236 272L230 274L228 266L228 266M275 259L273 264L280 265M1091 259L1091 260M252 260L254 262M665 260L666 260M817 261L823 262L824 261L825 260M1068 260L1061 267L1060 266L1059 266L1058 265M1099 262L1103 261L1113 260L1114 261L1115 262L1116 263M600 261L603 263C600.986 266.583 600.055 268.271 602 272L603 273L604 273M153 286L153 283L157 279L161 273L163 268L167 266L172 262M229 262L234 262M246 262L243 266L240 276L248 267L246 264M834 262L837 262M846 262L847 269L846 270L845 270M864 267L868 266L872 268L878 268L882 266L886 266L887 265L893 265L896 263L897 263L902 263L903 264L910 265L911 265L917 264L918 263L926 262L930 263L934 262L940 262L941 262L942 262L943 262M550 264L544 266L550 264M197 264L203 267L210 274M618 264L619 264M803 264L810 268L811 268L812 268L813 268M1078 264L1080 267L1078 270M174 265L164 275L163 275L161 273M502 265L506 269L507 270L508 271L509 272L514 277L520 273L521 273L522 274L523 275M190 266L190 269L186 271L185 272L184 273M542 266L544 266M669 266L671 268M817 266L818 266M168 267L168 268M236 267L236 270M282 267L278 271L276 271L272 275L272 279L264 284L259 291L252 296L248 295L241 299L240 299L239 299L238 299M534 273L531 268L535 267M541 267L545 272M834 267L837 267L840 269L841 269M229 275L220 271L226 268M260 268L259 272L259 277L264 284M527 268L531 268M811 268L808 271L806 275M919 268L920 268M284 269L282 271L280 275L279 276M596 269L599 269M682 269L679 273L680 278L680 279L680 280L680 281M828 269L831 269M1085 274L1095 274L1089 278L1087 282L1080 285L1078 279L1085 269L1087 269M191 270L193 274L198 274L199 275L204 275L205 276L206 277L207 278M556 272L559 270M565 270L564 271M661 272L664 270M671 270L667 274L665 271M177 271L176 275L172 277L161 289L157 289L155 297L163 294L161 289M216 271L220 271M805 273L808 271M183 272L181 276M236 272L238 272M259 277L253 273L259 272M669 272L675 274L674 272M809 275L812 273L815 272L816 272M860 272L860 276L857 280L858 286L862 290L860 295L862 303L862 304L862 305L863 306M987 272L989 279L986 283L986 293L987 294L990 306L986 303M241 275L251 274L252 273L253 273M675 274L679 273M903 273L904 275M915 273L906 283L906 290L905 291L907 291M1009 273L1013 280L1017 276L1020 284L1014 287L1015 291L1011 295L1018 303L1026 301L1030 306L1029 310L1031 316L1031 317L1031 318L1031 319M1015 273L1017 275M1103 273L1099 277L1100 283L1104 282L1115 280L1121 286L1121 287L1122 288L1122 289M193 274L193 278L198 285M799 274L799 278L804 277M804 274L804 276M817 281L823 279L828 275L829 274L830 274L831 274M919 274L920 274M996 274L999 281L1005 288L1006 284L1013 281M200 275L196 280M595 275L599 277M667 275L663 278M1063 275L1063 279L1071 290L1080 285L1080 285M1095 275L1099 277M240 276L240 281L241 282L241 287L243 289L250 292L254 288L255 287L256 286L261 281M256 276L250 279L249 277L249 277M673 276L668 280L664 286M885 276L878 287L878 288L877 289L877 290M936 276L937 276M941 276L939 283L939 284L939 285L939 286M1087 276L1089 278M514 277L517 283L523 280M667 277L667 279M837 277L837 279M845 277L853 280L854 281L855 281L856 280M1027 277C1028 281.14 1029.73 286.335 1034 282M1034 277L1035 277M209 278L211 280L212 281L213 282L216 285M292 278L300 286L295 290L291 286L287 287L281 291L283 295L289 301L292 299L293 300L299 306L300 299C296.957 296.391 295.709 295.349 292 297L292 298L292 299M635 284L633 295L624 290L624 278L627 278M799 278L797 285L802 291L800 297L808 303L804 306L803 302M280 279L271 290L281 291L281 291M616 280L620 280L623 279M805 279L808 286L815 286L819 291L822 284L823 283L830 283L837 296L841 298L847 301L842 308L835 310L840 315L841 315L842 316L843 316M874 279L871 284L869 289L868 295L868 296L868 297L868 298M1070 279L1068 284M1072 279L1074 279L1075 279L1077 279L1078 279M156 280L158 282L159 283L161 285L162 286M169 280L174 285L179 284L180 283L181 284L182 284M251 280L253 285L258 282M502 280L508 282L514 288L517 298L523 293L528 293L529 293L530 293L531 293M537 280L541 283M585 280L587 286L578 294L572 295L565 300L564 300L563 300L562 300M587 282L590 280L595 280M674 280L678 282M866 280L863 287L863 288L862 289M1041 283L1044 280L1043 286L1047 286L1056 293L1059 303L1063 300L1071 292L1071 290M291 281L291 286M1089 281L1098 287L1099 284M489 282L491 288L497 293L492 298L495 308L500 305L507 298L502 293L497 293M842 282L841 286M984 282L986 284M1012 282L1014 285M1087 282L1085 286L1079 291L1082 295L1082 298L1082 299L1090 308L1084 308L1082 311M518 283L514 287M668 283L673 284M896 283L893 287M1041 283L1038 286L1043 286M1103 283L1109 291L1109 292L1109 293L1109 294M1120 283L1126 286L1128 292L1128 297L1130 301L1129 305L1130 310L1124 311L1122 310M268 284L271 287M444 284L440 291L437 297L439 304L438 305L438 306L438 307M500 284L502 288L511 297L512 297L513 297L514 297M683 284L681 288L676 297L675 307L677 312L682 317L685 313L686 310L690 305L692 311L697 320L697 324L697 325L697 326L698 328L693 336L689 333L681 340L677 335L675 329L670 333C667.837 329.189 668.737 319.595 673 326L674 327L675 328M827 284L825 288L827 295L821 300L815 299L810 294L803 291L808 286M165 285L171 287L171 292L172 293L180 293L187 289L193 295L188 300L183 298L180 293M173 285L171 287M253 285L248 290M583 288L586 285M994 285L994 291L995 292L994 300L994 301L994 302L994 303M1021 285L1021 288L1022 291M1031 290L1029 294L1028 293L1030 290L1035 286L1035 285L1036 285L1037 285M1092 285L1084 291L1088 293L1095 287M149 296L154 299C149.951 299.896 148.116 298.63 145 296L151 288L151 287L152 286L153 286M205 286L211 290L212 290L213 290M300 286C302.832 289.809 303.714 292.495 302 297L301 298L300 299M671 286L673 292L672 286M676 286L676 288M858 286L853 290L851 294L848 301M915 286L913 291L914 295L916 306L907 314L912 317L916 313L917 307M1025 286L1023 290M155 287L157 289M1031 287L1032 288M1053 287L1053 291M561 288L562 288M1099 288L1095 297L1102 301M285 289L287 291L288 292L289 293L292 296M916 289L920 291L917 301L916 302L915 303M1006 289L1006 292L1011 295M151 290L155 292M260 290L268 299L259 302L266 309L270 307L275 311L279 310L287 304L288 302M296 290L295 294M296 290L298 292L302 293L303 294M906 290L906 294L906 295L906 296L906 297L906 302L913 303M930 293L932 290M156 291L161 296M270 291L269 293L269 296L268 297M450 291L446 301L445 302L445 303L445 304M613 320L621 319L621 313L617 311L612 306L605 312L605 307L610 302L600 292L608 291L615 299L619 299L622 303L629 298L630 297L631 296L632 295M611 294L615 291L620 291L621 291L622 291L623 291M885 291L886 291M905 303L895 297C897.92 293.292 900.217 291.361 905 291L905 291M907 291L909 291L910 291L912 291L913 291M1015 292L1018 291L1025 291L1026 292L1027 292L1028 292M1077 291L1079 291M1083 291L1084 291M171 292L168 294L163 294M250 292L250 294M584 292L588 292L589 292L590 292L591 292L592 292L593 292L594 292L595 292L597 292L598 292L599 292L600 292M1015 292L1021 298L1021 299L1021 300M1052 292L1048 297L1055 301M673 293L670 295L665 298M817 297L820 293L825 293M1021 297L1023 293L1027 300M536 294L535 299L528 305L528 309L523 312L526 319L519 322L514 314L510 316L493 315L488 322L491 326L494 329L499 332L506 340L501 344L501 352L497 356L491 356L488 350L482 344L480 335L482 333L482 328L488 323M672 294L675 297M688 294L684 299M1070 294L1080 303L1083 300M633 295L638 298L640 303L649 308L650 312L651 318L651 325L647 330L645 334L644 338L644 342L638 349L632 343L634 334L640 341L641 342L642 343L643 344M827 295L830 295L834 297L835 296L836 295M1008 295L1002 302L1001 310L1006 311L1012 305L1012 299M1028 295L1027 297M1035 295L1038 300L1038 304L1038 305L1038 306L1038 307L1039 314L1044 312L1049 311L1055 304L1055 301M252 296L256 301L257 301L258 301M304 296L310 303L309 307L310 312L315 320L307 323L306 328L302 334L298 334L296 338L296 342L299 350L305 355L309 355L312 352L312 348L308 346L300 347L300 347M1057 296L1063 296L1064 296L1065 297M520 297L523 300L524 301L528 305M611 297L609 301M800 297L796 301L794 307L799 311L803 311L804 310L809 310L810 310L811 310M896 298L891 306L887 300L890 297L895 297M938 297L936 301L936 305L936 306L936 307L936 308L936 309L936 310L936 311L936 312L939 323L940 324L942 324M1044 297L1048 297M1114 297L1117 297L1118 297L1122 297M144 298L142 305L148 308L154 306L154 301L158 301L164 306L165 305L161 298L161 298M183 298L176 300L169 310L169 311L169 312M452 298L451 301L450 302L449 305L449 306L449 307M507 298L510 297M517 298L517 306L514 311L514 312L514 313L514 314M598 299L601 298M833 298L829 306L823 300M197 299L199 306L199 304M251 299L253 303L262 311L263 310L264 310L265 310M621 299L625 301M808 303L814 299L823 307L824 306L825 305L826 304M1016 299L1019 301M188 300L188 305L193 309L198 315L203 309L200 306M203 309L210 303L216 306L221 300L229 300L234 308L241 315L232 324L228 330M267 300L269 302L269 305L269 306M1066 300L1068 307L1074 301M1108 300L1108 301M690 301L690 305M849 301L852 305L849 313L842 308M250 302L250 309L244 315L248 319L249 320L250 321L251 322L255 326L257 332L253 339L247 341L238 331L233 334L237 338L235 342L238 346L234 348L227 355L228 360L232 364L238 366L246 374L247 378L251 381L256 380L256 374L254 370L248 364L244 367L238 373L229 381L230 382L230 383L230 384M306 302L302 306L301 307L300 306M469 302L468 306L469 311L469 312L469 313L469 314M476 302L476 306M584 315L584 321L578 327L571 320L569 310L575 309L579 312L581 312L584 315L589 306L594 307C597.445 304.112 599.643 302.256 604 304L606 306M610 303L612 305M832 303C833.637 306.521 833.204 307.825 831 311L829 306M905 303L906 309L901 314L898 311L903 306M1018 303L1014 307L1018 313L1022 311L1025 303L1025 303M1029 303L1030 304M1046 303L1046 306L1048 309L1048 310M1082 303L1084 303M1119 305L1122 303L1126 304L1127 304L1128 305M195 304L193 308M287 304L288 308L282 313L279 310M306 304L309 307M548 304L542 316L543 317L543 318M142 305L139 311L137 316L134 320L134 324L131 332L137 332L137 328M174 305L179 307L185 307L186 307L187 306L188 305M644 305L641 309L642 315L648 319L649 320L650 321M931 305L930 306M164 306L161 309L157 307L156 307L155 307M166 306L168 306M517 306L519 308L520 309L522 311L523 312M666 307L673 307L674 307L675 307M1025 306L1029 310M1074 306L1076 311L1083 309M1094 306L1095 306M1099 306L1100 306M218 307L218 314L218 315L218 316L217 317M301 307L302 311L309 313M821 307L811 317L810 314M891 307L895 311L891 315L892 308M989 307L989 311L992 314M1013 307L1014 307M495 308L495 310L494 311L494 315M1067 308L1067 314C1070.2 317.835 1070.9 319.786 1068 324L1064 324L1061 327L1060 328L1056 328L1055 329L1047 329L1034 335L1039 350L1039 350M1112 308L1114 308M148 309L146 312L146 315L147 316M161 309L161 315L168 319M558 319L561 313L568 309M794 309L794 313L792 316L791 323L797 324M821 309C822.84 312.681 824.855 314.145 829 314L830 313L831 312M917 309L921 312C923.862 314.577 925.239 315.972 929 315L930 322L935 333L935 334L935 335L935 336M301 310L292 316L291 316L290 316L289 316M1001 310L996 315M266 311L266 315L258 321L252 319L251 319L250 319M275 311L275 315L270 318L269 317L268 316L267 316M476 311L476 317L481 322L482 323L483 324L484 325M851 311L855 315L855 319L857 323L861 329L857 334L855 338L855 343L851 350L851 355L847 362L844 373L840 370L831 367L830 371L832 373L832 380L833 381L835 382M895 311L898 311M906 311L906 313L903 315L902 314M984 311L985 311M995 311L998 311M1049 311L1048 316L1039 322L1033 328L1026 327L1025 327L1024 327M1131 311C1131 316.24 1131.49 321.21 1125 321L1125 321M143 312L146 312M663 312L662 314M691 312L686 324L682 322L679 329L679 330L678 331L677 332M988 312L985 321L985 332L991 329L994 318L994 318M1007 312L1006 321L1017 313L1020 322L1021 323L1022 324L1023 323M1076 312L1079 315M1113 313L1115 312M1124 312L1120 316M307 313L304 320L300 321L295 325L295 329L289 333L290 334L291 335L291 336M604 313L604 314M625 313L626 313M678 313L677 321L683 319L683 320L683 321L683 322M868 313L872 325L869 330L861 329L861 329M1055 313L1055 314M178 314L179 314M916 314L920 318L920 320L927 325L930 322M1039 314L1043 326L1043 322M196 315L189 320L191 330L186 335L186 341L191 341L193 339L193 335L189 335L187 333L182 333L180 335L180 337L181 346L185 343L189 346L192 342M241 315L244 315M275 315L282 321L283 321L284 321M667 315L664 316M1107 315L1109 315M137 316L141 320M200 316L202 321L195 327L194 334M631 316L629 320L626 323L624 325L623 329L628 335L629 336L630 337M804 316L805 316M979 317L978 319M1067 317L1067 321M1103 317L1104 317M1113 317L1114 317M560 318L566 319L574 327L575 328L576 328L577 327M642 318L646 326L647 327L648 328M926 318L930 320M180 319L185 321L181 328L177 323L170 320M246 319L246 324L252 331L255 329M799 319L801 319M186 321L189 320M304 320L307 323M562 320L564 324L572 332L573 331L577 335C575.938 339.888 574.169 343.178 569 344L572 332L572 332M622 320L626 322M639 320L641 320M904 320L905 320M1005 320L1001 328L1000 329L999 329L998 329M1081 325L1076 325L1081 320L1081 320M155 321L156 321M202 321L206 328C202.701 331.123 200.586 333.229 196 332M259 321L262 325L264 332L271 330M677 321L679 325L679 325M821 321L814 326L813 326L812 326M984 321L981 324M1102 321L1106 323M148 322L151 329L141 334L133 348L126 348L126 343L129 340L130 333L130 333M313 322L318 331L314 339L314 344L313 345L313 346L313 347M601 322L603 323M831 322L836 322M884 322L884 326M892 322L893 322M1019 322L1017 324M1087 322L1087 323M1115 322L1118 325L1117 326L1115 322M1131 322L1132 326L1132 329L1130 333L1128 342L1132 351L1126 359L1134 361L1135 360L1135 355L1132 351M299 350L296 354L292 354L291 354L290 354L289 354L281 353L282 349L281 342L281 338L282 333L286 331L292 323L295 325M629 323L639 332L636 334M791 323L789 328L797 333L794 337L798 341L794 345L794 350L800 350L804 345L811 346L814 351L818 349L826 357L828 364L829 365L830 366L831 367M897 323L897 328M916 323L916 325M1001 328L999 326L999 325L1001 323L1002 323M267 324L268 325M542 324L539 327M631 324L631 327L634 331L633 332L634 333M803 325L805 324L808 324L809 324M912 324L912 325M1038 324L1042 326M1045 324L1047 324M149 325L150 326M219 335L217 326L218 325L220 325M272 325L275 325L277 327L275 327M677 325L675 327M683 325L683 330M688 325L688 327L688 328L688 329L688 332M842 325L843 325M849 325L852 326M905 325L904 330M1030 325L1029 326M1068 325L1072 329L1071 330L1075 334C1079.22 335.701 1082.65 337.489 1084 342L1088 342L1088 347L1089 351L1093 355L1094 356L1095 357L1096 358L1101 363L1102 363L1103 364L1104 364M160 326L160 329L163 332L163 330M161 329L164 326L168 328L169 328L170 328M184 326L187 329M426 326L426 330L426 331L426 332L426 333L426 334L426 335L426 336L426 337L426 341L424 343L424 345L424 350L422 353L421 361M823 326L828 326L829 327L835 329L836 330L837 331M1075 326L1073 329M680 328L676 330M909 327L909 330L910 333M1061 327L1068 332L1072 342L1071 348L1077 353L1078 347L1082 345M181 328L181 332M575 328L574 331M601 328L601 336L597 341L601 337M680 328L682 328M1089 328L1090 328M1122 330L1125 328L1130 333M187 329L187 333M206 329L211 333M232 329L234 333M278 329L283 330M315 329L308 336L308 343L308 344L308 345L308 346M507 329L510 337L509 338L508 339L507 340M544 329L542 333L542 338L541 339L540 340L539 340M618 335L621 330L622 329L623 329M788 329L791 335L792 336L793 336M1077 331L1081 329M159 330L156 333L149 332M192 330L193 331M632 330L632 331M820 330L814 335L813 334L812 333M871 330L876 331L877 332L880 332L884 334L888 334L891 336L892 336L899 335L904 338L911 339L915 338L921 340L925 342L931 342L932 343L946 343L950 345L959 345L963 344L971 344L972 343L975 343L982 343L983 342L986 342L995 342L1002 339L1006 339L1007 338L1015 341L1011 347L1017 346L1018 345L1019 343M937 330L941 333M1007 330L1006 331M1068 332L1071 330M1092 338L1093 334L1099 330L1104 334L1106 332L1108 334L1114 340L1114 346L1106 342L1104 338L1099 337L1095 341L1092 338L1088 342M1106 330L1111 330C1114 332.616 1114.84 334.062 1114 338L1114 338M287 331L289 333M293 331L297 333M435 331L433 338L437 345M640 331L645 332L646 333M696 331L698 334M854 331L857 333M922 331L922 333M991 331L991 333M1109 331L1109 333M137 332L141 334M264 332L264 336L260 339L253 342L252 349L246 355L249 359L253 357L256 354L259 349L257 341L257 341M841 333L848 333L849 333L850 334M1087 332L1092 336M165 333L162 336L165 340L164 341L163 342M173 333L172 337L165 340M252 333L252 334M670 333L670 337L675 346L680 344L680 341M929 333L929 337M972 333L972 334M977 333L977 334M997 333L999 333M1095 333L1099 337M159 334L162 336M200 334L200 337L199 338L199 340L198 341M257 334L257 338M304 334L306 337L299 344M482 334L490 342L498 343L499 343L500 344L501 345M828 334L822 337L821 338L820 338M884 334L884 337L881 340M1104 334L1104 338M1116 334L1126 340L1127 341L1128 342M246 335L247 335M438 335L435 340M520 335L522 335M787 335L787 343L789 345L794 345M915 335L915 338M1015 339L1018 335L1031 335L1032 335L1033 335L1034 335M1109 335L1105 339M270 337L274 336L281 338M660 336L661 336M693 336L692 340L690 348L684 346L677 351L673 356L672 356L671 357L670 357M803 336L805 336M1014 338L1017 336M265 337L265 343L269 344L274 350C272.143 353.541 272.656 354.791 275 358L281 353M298 337L301 341M544 337L547 339M832 337L836 340M1079 337L1076 345L1077 346L1078 347M143 338L142 342L136 346L139 352L134 355L133 356L132 357L131 358M208 338L207 341L210 343M238 338L241 343L238 347L244 353L245 354L246 355M542 338L544 340M971 338L972 338M311 339L314 339M527 339L531 343L525 349L520 345L515 345L508 340M698 339L701 346L691 353L698 356L697 349M846 339L846 340M239 340L236 343M440 340L441 340M807 340L811 340L814 342M181 341L185 342M247 341L247 349L247 350L247 351L247 352M317 341L320 345L320 350L314 354L314 358L309 363L313 367L319 362L323 365L319 369L314 369L312 374L318 380L322 375L323 367M520 341L520 345M544 341L536 349L531 344M799 341L803 345M1095 341L1095 345L1100 350L1092 356L1085 357L1086 367L1080 371L1076 368L1074 376L1080 377M130 342L135 344M271 344L274 342L281 342M925 342L927 349L932 343M1031 342L1034 344M1072 342L1074 342M1106 342L1104 344L1104 345L1100 349M158 346L164 350L170 347L176 343L177 343L178 343L179 343M297 343L293 351L293 352L293 353M525 343L527 345M1010 343L1011 344M1054 343L1055 351L1053 353L1045 350L1045 349L1049 346L1050 352M1128 343L1124 345L1121 345L1117 347L1116 348L1115 347L1114 346M264 344L264 346L260 349L259 349M575 344C573.083 347.678 571.559 348.038 568 346L568 345M687 344L685 346M1038 344L1037 346M679 345L682 348M819 345L818 349M826 345L828 345L830 347L833 347M547 346L541 351L540 350L539 349M787 346L788 354L794 350M161 347L161 354L165 353L170 355L171 355L172 354L173 353M180 347L181 353L192 360L184 370L190 375L199 366L199 361L206 360L214 370L212 375L217 384L215 385M453 347L453 352M702 347L699 352L699 352M840 347L848 349L849 349L850 350L851 351M925 347L924 353L919 359L915 355L913 360L918 367L922 367L929 361L929 369L928 370L929 371L930 372M970 347L972 347M978 347L980 347M1017 347L1018 356L1022 354L1025 358L1028 366L1029 366L1030 366L1031 366M126 348L124 352L124 355L124 356L122 360L122 366L121 370L119 374L119 378L118 384L117 392L116 393L116 397L115 398L115 401L115 405L115 406L115 407L115 408L115 409L115 410L115 411L115 412L115 413L115 414L115 415L115 416L115 417L115 418L115 419L115 420L115 425L114 426L114 431L115 432L115 435L114 448L115 452L116 457L115 461L115 465L115 466L115 467L115 468L115 474L116 475L116 478L116 481L116 484L119 488L120 493L121 494L123 494M534 348L532 352L526 349M594 350L597 348M676 348L676 350M692 348L692 349M885 348L886 348M986 348L988 350L988 352L988 355M1012 348L1013 354L1016 362L1018 356M1109 365L1105 353L1114 349L1115 348L1116 348L1117 348M1117 348L1120 351L1121 352L1122 353L1124 355L1125 356L1126 357M638 349L638 353L636 356L636 357L636 363L640 365L643 369L649 373L649 379L648 380L647 387L639 392L631 399L638 406L631 414L634 418L642 412L642 409L647 403L647 400L649 394L645 390M993 349L994 349M1001 349L1000 360L1005 362L1008 357L1008 350M164 350L164 352M274 350L276 350L277 350L278 350L281 350M800 350L805 355L809 354L815 363L824 356L824 356M1019 350L1021 352M321 351L325 356L324 362L323 363L322 364M539 351L541 355L537 359L532 359L524 367L526 371L526 379L527 380L527 381L528 382M814 351L814 353L814 354L814 356L814 357M829 351L824 355M139 352L147 360L152 355L158 357L159 356L160 356L161 355M206 360L213 356L217 352L224 352L225 352L226 353L227 354M241 352L234 356L237 360L244 367M532 352L535 357M544 352L542 355M939 352L937 359L937 363L937 364L937 365L937 366L937 367L937 368L937 369L937 374M1101 352L1104 352M265 354L268 354L271 353M312 353L314 355M566 353L570 354L577 354L578 354L579 354L580 354M677 354L682 360L689 354L690 353L691 353M703 353L703 355L703 356L703 358L703 359M794 353L794 357L786 362L787 372L791 368L787 367M1078 353L1082 357L1085 357M229 354L234 356M285 354L285 356L283 358L283 359M296 354L304 362L304 363L311 369L312 368L313 368L313 368M321 354L320 356L320 358L319 361M543 354L547 356M788 354L788 358M984 354L985 358L985 362L985 363L985 364L985 369M1013 354L1016 354M138 355L138 359M171 355L174 358L174 361M309 355L312 358M611 366L617 368L607 375L606 374L606 371L611 366L607 363L612 355L617 355L627 365L633 366L634 365L635 364L636 363M805 355L804 361L813 363L813 363M160 356L165 361M285 356L288 359L288 363L288 364L289 365M491 356L486 360L485 364L485 371L489 369L494 369L500 361L504 365L509 367L515 362L515 361L511 357L504 357L498 356M695 356L695 363L699 363L698 356M863 356L862 358L862 359L859 363M889 356L888 357M993 356L994 356M158 357C158.988 360.207 159.757 360.903 163 360L163 360M685 357L688 360L693 358M930 357L930 360M1081 357L1076 366L1076 367L1076 368M186 358L180 368C177.264 371.204 177.209 373.856 181 376L181 369L181 369M252 358L263 369L267 371L268 375L268 380L269 381L280 382L279 378L274 374M453 358L453 359M500 358L500 361M538 358L542 361L546 361L553 364L557 364L564 367L570 366L574 370L577 376L584 373L585 369L582 365L586 363L588 363L593 360L602 359L607 364L603 373L604 374L605 375M881 358L879 360M249 359L249 363M315 359L317 360M832 367L836 359L845 361L846 362L847 363M919 359L917 363M1018 360L1023 359L1024 359M192 360L194 360L195 360L197 360L198 360M439 360L439 368L438 369L438 376L438 377L439 378L439 379M682 360L681 366L688 365L690 369L695 363M688 360L688 365M794 360L796 366L802 361L803 361L804 361M913 360L906 362L902 368L901 364L905 363M993 360L992 363L991 367L990 368L989 369M1000 360L997 368L1001 369L1004 373L1012 385L1007 388L1000 388L1006 392L1007 389M1058 360L1058 366L1055 374L1053 378L1048 382L1048 383L1039 391L1040 392L1040 393L1040 394M1119 361L1121 360M432 361L432 365L432 366L432 367L432 368L432 369L432 370L432 371L432 372L431 380L432 387M515 361L522 365L522 366L523 367M599 361L599 364L602 366L603 366M788 361L790 363L791 364L791 368M1017 361L1025 369L1023 376L1022 382L1017 386L1014 393L1014 394L1014 395L1014 396M1128 361L1124 370L1124 371L1123 372M228 362L228 365L228 366L228 370M919 362L923 366M1003 362L1003 364L1003 365L1003 366L1003 369M1016 362L1015 371L1022 372M1135 362L1134 366L1134 374L1133 375L1133 382L1132 383L1132 386L1132 388L1132 389L1132 395L1130 400L1125 405L1125 413L1131 407L1129 401M818 363L826 367L827 367L828 367L829 367M910 363C911.805 366.63 913.231 367.676 917 366L917 366M1051 363L1050 370L1046 377M1063 363L1063 370L1062 374L1055 382L1054 379M307 364L308 364M700 364L700 366L695 366L695 366M806 364C803.282 367.053 801.953 368.536 798 367L797 366M1043 364L1042 373L1042 374L1042 375L1041 376M128 368L131 365M311 365L309 367M573 369L577 365L582 365M626 365L623 368L619 368L618 368L617 368M811 365L807 373L803 368M889 365L889 369L891 372L891 377L894 381L898 384L901 389L910 381L915 382L921 391L926 388L932 379M1129 365L1129 367M168 366L171 366M633 366L629 370L628 371L627 372L626 373L619 383L618 383L617 383L616 383M1025 366L1025 367M1120 366L1123 366M153 367L156 367M277 367L277 368M281 367L281 371M299 367L296 371L296 376L300 379L306 378L309 369L309 369M323 367L328 375L320 378L320 378M420 367L420 374L419 375L419 382L420 383L420 390L421 391L421 399L422 400L422 406L423 407L424 416L423 420L423 424L423 425L423 426L423 427L423 434L422 435L422 438L422 442L422 443L422 444L422 445L422 452L423 453L423 460L424 461L424 471L427 477L427 481L427 482L427 483L427 484L428 492L428 493L427 496L427 500L427 501L427 502L427 503L427 508L428 509L428 514L429 515L429 522L432 529L432 533L435 539L438 546L438 551L442 556L442 558L445 562L446 566L448 569L450 577L453 581L453 583L455 585L456 587L456 588L463 594L464 593L463 594M564 367L564 374L563 375L564 381L573 375L573 375M680 367L679 372L683 377L683 382L676 387L676 391L678 393L678 398L681 402L681 409L670 415L669 415M701 367L702 374L702 381M906 367L907 375L904 373L897 376L896 377L895 378L894 379M198 368L200 375L197 378L195 386C198.592 386.562 200.12 387.422 201 391L201 392L201 393L200 394M697 368L699 375L695 380L697 387L690 394L692 401L688 402L688 407L689 408L690 409L691 410M859 368L861 368M902 368L904 372M136 369L137 369M427 369L427 373L427 374L427 375L427 376L427 377L427 378L427 379L427 380L427 381L427 382L427 383L427 384L427 385L427 386L427 387L427 388L427 390L427 391L427 392L427 393M690 369L692 381L695 380M897 369L897 374M996 369L996 370M1086 369L1086 371L1086 372L1085 375L1084 375M1100 369L1105 372M163 370L164 370M262 370C261.996 375.123 261.97 378.423 258 382L256 380M913 370L909 378L903 383L902 384L901 385L900 386M927 379L920 379L926 371L927 370L928 370M1112 370L1114 370L1115 371L1117 371L1118 371M551 371L553 375L561 382L562 383L563 382L564 381M646 371L642 375L641 376L640 377L639 378L634 383L639 392L639 392M789 371L791 373L794 374L795 374M847 371L852 376L852 380L850 382L846 382L844 374M1015 371L1013 374L1013 378L1012 379L1011 380M145 376C147.087 379.582 146.98 381.37 145 385L139 382L144 377C147.473 373.225 149.533 372.023 154 375L152 381L154 385L157 393L164 393L162 402L157 407L154 404L150 408L146 407L142 409L133 403L133 404M484 372L484 378L483 379L483 384L486 390L491 385L496 387L500 384L512 388L508 392L507 393L506 394L505 395L504 396L503 397L502 398L501 399L500 400L499 401L498 402L497 403L493 409L491 411L489 411L483 417L483 422L484 423L484 427L488 430L491 441L485 443L481 448L481 455L488 458L492 467L490 472L490 478L491 479L494 479L495 479L496 479L497 479L499 480L504 478L492 467L492 467M806 372L802 376M1003 372L1001 376L1001 381L1000 382L1000 386L996 389C993.965 392.595 989.554 396.984 994 400L996 409C998.794 405.287 999.933 401.223 1005 401L1005 401M600 373L601 373M786 373L785 379L786 383L785 384L786 388L785 397L784 398L784 401L784 411L790 417L797 413L799 426L794 428L785 433L787 441L786 445L786 449L786 450L786 451L786 452L787 459L792 456M312 374L307 379M990 374L990 383L986 392L984 388L985 380L985 380M1129 374L1133 375M130 375L134 375L139 381M176 375L175 384L174 388L174 396L180 404L185 404L190 409L182 414L178 409L179 405M200 375C202.627 378.452 204.189 380.695 203 385L202 386L202 387M285 376L289 375L292 383L299 379M699 375L701 375M905 375L902 378L901 379L897 383M907 375L909 377M1093 375L1097 376M1100 375L1101 375M1110 375L1114 375M190 376L188 383L186 390M294 378L295 377M577 376L577 385L582 389L582 395L581 396L572 397L573 401L573 407L569 410L565 408L565 402L561 396L565 397L572 397M819 376L820 376M862 376C862.448 380.578 864.621 380.452 868 378L868 378M1074 376L1071 382L1078 384M186 385L180 384C180.596 380.29 181.313 378.194 185 377L187 379M326 378L328 382L328 385L328 387L324 391L316 390L316 383L310 382L309 382L308 381L307 380M791 378L794 378M814 378L815 378M148 379L152 379M910 379L910 381M1118 379L1123 379M155 385L163 380L164 380L165 380M920 380L917 383M940 380L938 387L937 391L932 394L932 400L937 398L936 393M1043 380L1037 388L1037 389L1038 390L1039 391M1085 380L1089 380L1092 381M1098 380L1103 382L1105 387L1106 388L1107 388L1108 388M118 384L125 381L130 381L133 384L136 384L137 384L138 383L139 382M205 381L207 381M251 381L252 392L258 389L258 382M262 381L263 385M269 381L269 386L270 387C274.895 387.118 280.656 388.092 278 394L276 395M318 381L316 383M692 381C689.847 384.208 689.298 385.512 691 389L691 390M866 381L870 386M975 381L974 384M1127 381L1132 384M238 382L244 385L248 393L249 393L250 393L251 393M563 382L567 386L572 386L575 389L575 393L575 394L575 395M807 382L809 382M852 382L850 389L849 390L848 390M1071 382L1067 388C1070.99 388.889 1072.8 387.939 1074 384L1074 384M281 383L286 390L286 397L290 398L293 400L295 401L300 401L304 406L301 410L302 416L308 422L312 421L317 426L317 436L329 426L321 419L313 422L313 422M292 383L290 385L289 386L287 388L286 389M562 383L562 387L562 388L562 389L562 390L562 392L562 393L562 394L562 395M1056 383L1053 388M1110 384L1115 383M134 384L131 387L126 388M175 384L179 385M681 384L685 388L687 394L682 400L681 401M148 385L153 386M156 385L158 387L159 387L161 390L161 391M217 385L220 390M1122 385L1125 385L1128 386M161 388L163 386L166 386L167 386M574 386L576 386M685 388L688 386M797 386L800 386M837 388L842 386M1013 386L1017 386M1083 386L1084 386M1102 386L1105 388M271 387L268 395L263 401L264 405L267 414L263 414L259 411L258 411L254 408L251 413L251 420L257 425L251 432L250 428L250 421L246 420L242 411L251 419L251 419M497 387L503 389L503 387M506 387L509 389M827 387L829 387M929 387L930 389L931 393L932 394M226 391L229 388M234 388L240 390L240 391L240 392M683 388L678 392M698 388L699 392L706 388M854 388L855 393L862 400L866 401L869 401L870 401L874 403L877 403L885 406L882 410L880 415L879 423L883 424L885 419L887 416L891 409L885 406M877 388L880 391M211 389L210 392M282 391L285 389M497 389L499 390M512 389L515 393L515 399L513 401L511 401L508 401L506 401L504 403L504 405L505 412L504 424L513 414L505 412L505 412M811 389L810 390M818 389L819 390M1067 389L1060 396L1059 395L1058 394L1057 393M1077 389L1079 389M1114 389L1115 389M316 390L313 394L313 399L305 406L309 407C312.577 405.129 314.423 405.129 318 407L319 403L327 399L325 391M486 390L490 398L497 398L497 392M1121 392L1128 392L1129 392L1130 392L1131 392M258 391L259 401L254 408M503 391L503 395M983 391L983 393L985 395L986 392M1001 391L995 397L995 398L995 399M1033 393L1037 391M1087 392L1090 391L1094 392L1095 392L1096 392M699 392L695 397L694 398M711 392L713 399L714 400L714 403L714 407L714 408L714 409L714 410L714 411L714 412L714 413L714 414L714 421L713 422L713 425L713 432L710 438L710 442L710 443L710 444L710 445L710 446L710 447L710 448L710 449L710 453L711 454L711 457L711 466L710 467L710 472L709 473L709 479L708 480L708 484L707 488L705 491L705 494L704 495L702 501L702 505L701 506L701 509L701 513L701 514L701 515L701 516L701 520L699 524L699 529L698 533L694 543L694 548L693 552L691 555L691 558L688 566L683 572L675 582L674 579M795 392L796 392M828 392L829 393M885 392L886 393M925 408L921 408L918 400L921 392L926 397L929 404L925 408L926 417L918 417L913 414L907 414L904 410L900 410L899 410L898 410L897 410L895 410L894 410L893 410L892 409M1064 392L1068 397C1072 398.163 1073.14 399.992 1074 404L1075 404L1076 404L1077 404M134 402C131.459 398.308 131.459 396.692 134 393L135 393L136 393M232 393L236 401C242.127 400.869 246.484 399.766 247 393L247 393M300 401L310 393L311 393L312 393L313 393M687 394L690 394M994 394L996 396M1097 396L1104 398L1110 394M126 395L131 396M218 428L216 421L215 414L217 404L212 401L216 395M800 395L802 395M834 395L835 395M842 398L846 396L850 400L848 410L854 412L850 407M1026 395L1024 397M1080 395L1083 399L1091 398L1094 401L1097 401L1098 401L1099 401L1100 401M306 396L310 399M809 401L809 397L812 396M985 396L983 404L983 405L983 406L983 407M1060 396L1065 404L1058 400L1049 404L1045 404L1044 404L1043 404L1042 404L1035 404L1034 405L1027 405L1021 407L1013 411L1009 412L1001 412L994 415L996 409M286 397L279 403L278 403L277 403M636 397L638 399L638 401L638 404M649 397L656 404L657 411L664 415L665 419L659 425L654 416L650 418L640 419L638 418M497 398L499 400M529 398L533 403L537 404L537 405L538 406L539 407M687 398L689 401M700 398L700 399M1060 398L1058 400M1105 398L1109 402L1115 405C1118 402.605 1119.33 401.779 1123 403L1123 404L1124 405L1125 406M1126 398L1128 398M228 440L234 448L228 447C221.768 447.001 217.117 447.1 212 451L203 451L200 447L192 448L189 444L189 432L194 424L199 420L200 413L194 411L201 400L212 400L212 400M246 399L249 402L250 403L254 407M898 399L892 404L891 405L891 406L890 407M1116 399L1118 401M155 403L157 400L160 400M314 400L319 403M326 400L328 409L319 407L319 407M514 400L520 405L526 406L530 415L524 418M537 403L541 400L538 406M619 400L615 406L620 411L612 412L610 414L608 414L602 414L593 417L588 427L583 422L589 423M631 400L627 404L630 411L631 412L632 413M789 400L791 400M817 400L818 404M850 400L858 403L859 402L860 401L861 400M932 400L929 403M937 400L939 407L941 410L941 414M217 404L221 401L227 401L233 404L233 408L233 409L233 410L233 411L233 418L244 421L233 430C231.39 426.979 229.418 420.105 235 423L236 424L237 425L238 426M236 401L233 404M259 401L263 401M296 401L288 410L288 411L287 412L286 413M501 401L504 401M614 401L617 404M830 401L830 404L827 406L826 406M143 402L144 407M163 402L165 404M243 402L244 406L251 413M271 402L272 403M433 402L434 402M505 402L514 411L519 405M693 402L693 406M819 402L822 402M900 404L904 402M214 403L205 410L213 414L214 414L215 414M655 403L650 409L655 414L657 412M858 403L856 405L854 409L853 410M994 415L990 418L986 416L981 420L975 419L979 412L980 403L982 403M121 404L122 404M146 407L149 404L152 404M527 405L532 404M1065 404L1064 410L1062 405M1096 405L1101 404L1105 408L1109 407L1112 412L1118 418L1125 415L1125 413M1119 404L1119 407L1122 410L1123 411M264 405L262 407L261 408L259 410L258 411M294 405L295 415L291 417L291 425L300 422L295 415M799 405L801 406L803 406L806 406M835 405L838 407M929 405L934 417L927 418M1067 406C1070.14 405.752 1071.16 405.901 1072 409L1072 410M1101 422L1094 425L1088 418L1090 413L1088 405L1092 408L1098 412L1097 417L1106 423C1104.08 426.822 1104.55 428.543 1107 432L1108 433L1109 434L1110 434M609 406L611 406L612 406L614 406L615 406M638 406L643 406M646 406L650 408M701 406L700 411L694 415L694 416L693 417L692 418M309 407L314 411L315 417L315 418L315 419L315 420M318 407L314 410M434 407L435 407M790 407L784 413L786 424L786 431L791 426L786 424M1008 407L1011 407M1061 469C1058.91 471.145 1060.93 472.374 1063 474L1061 469L1066 463L1063 460L1064 456L1064 452L1067 448L1067 444L1068 443L1073 443L1076 439L1083 435L1078 430L1078 429L1072 423L1075 420L1084 417L1081 413L1083 407L1084 407L1086 408M157 408L163 411L159 408M997 408L1001 412M1092 408L1090 412M1105 408L1105 413L1109 417L1110 418L1111 419L1112 420L1113 421L1114 422L1115 423L1116 424L1124 429L1128 424C1130.04 427.844 1130.04 430.156 1128 434L1131 441L1131 447L1131 448L1131 449L1131 450L1130 451L1131 455L1131 464L1126 470L1126 474L1121 478L1125 482L1125 489L1122 494L1121 499L1122 504L1120 506L1120 508L1120 513L1119 514L1119 518L1118 519C1117.95 524.842 1116.87 528.531 1113 533L1105 524L1105 522M141 409L140 416L137 421L142 424L147 418L148 419L145 418M173 409L178 410M190 409L194 409M273 409L275 409L277 412L278 412M328 409L331 413L329 418L330 425M833 409L836 413M874 409L872 413L872 421L872 422L872 423L872 424M1086 409L1087 410M201 413L205 410M569 410L569 412M682 410L683 417L683 418L683 419L683 420M692 410L695 413M177 411L177 413L182 414L182 414M194 411L188 417L187 421L182 431L189 432M323 411L327 418L328 418L329 418M593 411L594 411M947 411L946 414L947 415L950 416L950 416M954 411L955 411M986 415L987 413L989 411L992 413M1064 411L1068 413M493 412L499 418L500 419L501 419M701 412L701 413M835 419L830 424L827 418L821 420L820 425L825 432L818 435L808 425L805 425L803 424L803 419L811 412L813 412M819 412L819 418L820 419L821 420M1098 412L1102 414L1108 420L1109 421L1108 422L1107 423M177 413L176 421L179 417M621 413L628 415L629 415L630 414M852 413L849 421C845.772 418.488 844.581 417.952 841 420L847 426L849 421M654 414L654 416M1065 414L1066 418L1072 424M146 415L146 418M268 415L268 420L270 424L270 429L271 430L275 430L279 432L280 431L286 435L286 442L280 438L285 437M513 415L515 415L516 415L518 415L519 415M954 415L956 415M1069 415L1074 420M1090 415L1092 415L1093 415L1095 415L1096 415M140 416L144 418M323 416L320 419M531 416L541 416L550 419L556 425L563 425L567 427L574 427L575 431L583 439L586 435L586 430L580 424L583 431M167 417L168 417M632 417L629 421L632 429L640 421L643 425L638 434L638 439L635 439M790 417L790 419L790 420L789 423L788 424M934 417L940 420L948 420L949 421L956 421L957 422L963 422L964 421L971 421L972 421L973 420L974 420M1084 417L1088 417M153 418L154 421L157 420M284 418L288 421M496 418L489 427L497 432L504 425L510 431L511 436L514 442L515 443L516 444L517 445M702 418L703 426L704 427L705 432L705 433L705 434L705 435M840 418L841 419M891 418L889 427L895 434L895 435L900 440L908 439L916 447L915 452L909 459L916 471L915 465M1001 418L1002 419M1111 420L1116 418M1123 418L1128 423M232 419L232 420M640 419L640 421M132 421L131 426L128 422L135 421L136 421L137 421M148 420L153 420M199 420L203 425L202 430L199 433L199 434L199 435L199 436M676 420L674 424L665 432L661 432L658 440L654 443L646 445L641 451L637 452L634 456L628 461L632 465L626 470L626 475L632 478L636 482L643 478L639 474L638 473L637 472L636 471L631 466L631 466M899 424L897 424L896 423L898 420M995 420L996 425L991 429L992 424M1082 420L1084 427L1094 436L1100 435L1095 436M276 421L279 421M692 421L687 427L686 427L685 427M151 422L145 426L144 425L143 425M176 422L173 428L167 425C163.917 428.49 161.839 430.474 158 427L161 425M300 422L302 422L303 422L304 422L307 422M580 424L583 422M697 422L698 432L693 434L689 441L685 443L685 448L686 449L687 454L694 446L694 444L699 438L699 433M150 423L154 427L154 432L152 438L156 438C158.644 440.912 160.31 441.373 164 440L161 436L156 438M306 423L306 427L307 428L307 433L314 437L315 437L316 437M879 423L876 428M1001 431L1002 423C1006.49 427.698 1011.27 431.785 1007 438L1003 435C999.818 431.883 997.582 429.08 993 430L992 431L991 430M1024 423L1025 423M140 424L133 429L125 428L124 427L123 427L122 427M528 424L538 427L539 427L540 427L541 427M821 424L823 424L824 424L825 424L828 424M830 424L831 431L836 436L826 445L825 432L825 432M883 424L885 427M895 424L897 428L895 433M203 425L206 425M258 425L263 430L264 437L269 433L269 430M291 425L288 432L287 433L286 434M556 425L553 432L559 426M659 425L659 428L660 431M796 434L794 435L800 426L801 425L802 425M812 429L818 425L819 425L820 425M1071 425L1074 437L1075 438L1076 439M1093 425L1088 430M149 426L152 429M507 426L509 426M575 426L578 426M792 426L794 428M847 426L847 431L838 436L837 436L836 436M997 426L997 427M1116 426L1117 436L1118 436L1119 437M154 427L158 427M238 427L240 431L242 436M257 427L257 433L257 434L258 435M280 431L281 427L288 429M690 427L689 431M1048 427L1048 432L1048 433L1048 434L1048 435L1046 442L1045 443L1045 444L1044 445M173 428L172 439L178 445L178 447C183.57 452.389 186.294 453.723 192 448L192 448M485 443L479 437L481 429L483 428M534 428L535 433M588 428L586 430M908 436L909 428L911 428L912 430L908 438L908 438M984 428L985 432L985 441L987 444L987 445L987 449L987 450L987 451L987 452L987 453L987 454L987 455L987 456L986 465L994 470C995.921 466.178 995.451 464.457 993 461L996 450L1002 452L1002 446L1011 437L1019 439L1026 432L1024 440L1027 446L1034 440L1035 435L1040 431L1041 430L1041 428M133 429L133 434L126 438L125 439L124 440M800 429L806 438L804 445M1034 429L1037 432M159 430L154 432M233 430L234 437L235 438L236 439M499 430L502 434L500 438L493 445L502 452L504 457L510 457L511 458L519 458L523 462L530 461L537 467L541 463L543 470L544 471L544 472M634 430L638 434M813 430L809 437L808 438L807 438L806 438M1103 430L1102 437L1102 438L1102 439L1101 440M203 431C205.941 432.62 206.499 433.686 206 437L206 438L205 439M329 431L329 438L324 443L316 437L316 437M678 431L672 437L672 438L671 439L671 440M992 431L993 435L1002 440L1005 437M1040 431L1043 436L1043 437M181 432L180 436M251 432L252 436M497 432L495 434L494 435L492 437L491 438M578 433L582 431M846 432L851 437L856 438L857 439L858 439L859 440M1088 432L1083 435M124 433L129 434M552 433L559 438L563 436L574 435L575 435L576 434L577 433M792 433L790 440L798 443L798 443M833 433L828 435M1122 434L1127 434M429 434L429 438L430 439L430 442L431 452L431 453L431 454L431 455M683 434L684 440L684 441L684 442M1071 434L1067 440L1067 441L1067 442M268 435L264 441L266 447L259 452L266 458C268.147 453.888 267.673 451.732 265 448L265 448M555 435L553 439L552 445L556 452L561 448L566 444L571 441C567.751 440.265 565.702 440.322 566 444L566 444M1045 435L1046 436M1116 435L1113 439L1110 438M163 436L164 436M443 436L443 444L444 445L444 446L444 447M520 437L523 436M578 436L580 446L571 448L571 448M264 437L264 439M310 437L307 442L313 449L316 458L319 455L325 449L324 443M586 437L588 442L582 448L580 446M809 437L811 439L812 441L813 444M844 437L848 444L845 452L842 450M152 438L150 445L145 448L145 452L151 449L150 446M270 438L277 438L278 438L279 438L280 438M1008 438L1013 443L1013 444L1017 448L1018 449L1018 447M538 439L539 440M562 439L563 442M583 439L580 442M640 439L642 441L643 442L645 444L646 445M893 469L889 463L885 461L879 455L881 449L878 443L882 439L890 443L898 440L899 439M941 439L939 446L936 448L936 449L937 459L937 460L937 461L937 462M211 440L210 441M928 440L925 447L918 447L917 447L916 447M981 440L982 444L985 441M1001 440L996 448L996 449L996 450M1020 440L1024 440M135 441L130 446L125 448L124 449L124 450L123 451M263 457L256 461L255 457L252 454L250 452L254 449L256 447L263 441L264 441M435 441L436 445L436 448L437 452M527 441L528 441M600 442L602 441M787 441L789 441M274 442L276 445M286 442L291 446L300 446L303 452L302 463L310 473L315 470L314 466L309 461L304 461M300 446L303 443L306 442L307 442M563 442L560 444L558 444L556 445L555 446L554 447M571 442L573 442L574 442L576 442L577 442M699 442L701 447L699 461L702 466L702 467L702 468L702 469M934 442L934 443M1040 442L1039 447L1043 452L1039 459M1113 442L1118 445L1125 442M140 443L139 447L137 450L136 453L143 455L144 453M490 443L492 447L489 454L489 455L489 456L489 457M890 443L888 446L885 455L884 456L883 457L882 458M1075 443L1075 448L1069 455L1077 456L1080 461L1069 469L1065 464M1101 446L1106 444L1103 447L1095 448L1090 448L1089 449L1088 450L1087 450M119 444L121 444M848 444L851 451L839 455L839 455M982 444L982 453L981 454L981 462L980 466L977 473L977 474L977 475L976 476M290 445L290 450L290 457L293 462L300 462L301 463M890 445L896 452L896 453L896 454L897 455M1012 445L1012 455L1004 462L997 463M152 446L160 449L161 450L162 450M310 446L307 450L304 452M678 446L678 451L675 454L671 458L670 467L674 466L678 461M887 446L884 449L881 449M1027 446L1025 453L1018 458L1013 459L1012 459L1010 457M1051 446L1053 446M534 447L536 449M858 447L859 451L865 458M932 461L931 457L934 447L936 449M234 448L238 448L247 452L248 452L249 452L250 452M582 448L581 452L575 458L579 463L582 459L577 455M645 448L649 452L649 456L649 457L649 458L649 459L649 460L649 461L649 462L649 463L649 470L645 476L650 480L649 484L649 494L648 495L648 499L644 503L643 507L642 508L634 511L638 517L638 521L638 522L638 523L638 524L639 531L641 534L646 539L649 552L659 546L656 539M694 448L694 456L688 462L686 455M793 448L796 450M1038 448L1038 449M1075 448L1078 451L1083 449M232 449L228 455L228 462L229 463L229 467L230 468L232 468M255 449L258 451M846 449L844 451M1019 449L1023 453M1066 449L1069 452M1113 449L1109 454C1112.71 457.82 1118.63 461.821 1124 462L1124 459M593 450L592 452M1120 452L1127 450L1128 450L1129 450M152 451L153 455L150 460L150 467L155 463L162 467L163 467L167 465L171 468L177 468L177 473L181 476L185 474L189 477L194 475L199 470L201 459C197.431 460.666 192.45 463.685 194 468L195 469L196 470M203 451L203 454L200 459M212 451L215 460L216 461L216 462M326 451L320 458L324 460L326 452L326 452M555 451L550 454M813 451L815 451M823 451L824 451M851 451L854 457L854 461L857 468L863 473L859 478L858 482L858 486L857 490L848 499L847 499L840 494L842 489L842 483M244 452L245 458L238 465L237 465L235 464L235 464M558 452L567 455L574 453L575 453L576 454L577 455M679 452L682 460L682 465L677 470L673 476L675 480L676 487L684 481L682 475L683 471L682 467M1002 452L1004 454L1005 455L1007 457L1008 458M184 453L183 457L178 462L185 469L186 470L187 470M188 453L192 457L199 459M609 453L606 464L601 467L600 468L599 468L598 469M628 461C626.564 456.479 628.318 453.772 633 453L634 454M915 453L918 457L918 460L918 461L925 465L927 462M1025 453L1026 460L1025 455M1082 453L1083 453M1121 499L1112 500L1107 494L1116 486L1112 482L1109 482L1105 478L1100 480L1091 475L1094 472L1099 471L1101 464L1095 457L1098 453L1109 454M871 454L872 458L877 466L876 467L875 468L874 469M887 455L887 457L887 458L887 460L886 461M1090 455L1094 457M129 456L130 456M568 456L569 458L570 459L571 460L574 458M814 456L816 456M1068 456L1065 460M183 457L190 464L190 465L191 466L192 467M693 457L699 462L697 466L698 470L695 480L691 476L691 472L691 471C690.47 467.578 689.529 464.877 686 467L685 468L684 469L683 470M801 457L801 458M1074 457C1071.03 460.173 1069.17 461.851 1071 466L1072 467M1086 457L1088 458L1088 460L1090 462M1112 457L1110 462C1113.32 463.92 1115.08 464.713 1118 462M168 458L171 459L175 460L176 461L177 462M245 458L253 464L256 470L259 467L260 468L263 478L268 475L268 471L268 470L268 469L268 468L267 462L260 468M316 458L311 463M797 458L798 460M808 458L808 460M267 459L267 462M787 459C787.12 462.692 787.313 464.777 791 466L792 467L793 467M833 459L837 462M212 460L215 460M289 462L284 470L279 465L284 460L291 462M322 460L322 468L315 470M539 460L541 462M555 460L564 465L572 463L571 460M1008 460L1013 466L1012 470L1006 477L1005 478L1004 479M1063 460L1057 464L1057 470C1055.6 474.753 1056.11 477.976 1059 482L1067 475L1072 479L1078 480L1080 485L1075 491L1071 491L1070 496L1066 497L1075 506L1076 505L1076 502L1070 496M1088 460L1086 462L1082 462L1081 461M127 484L129 480L135 476L139 470L133 466L136 461L146 467L147 467L148 467M242 461L246 465L246 468L247 469L254 476L256 470M256 461L253 464M918 461L916 464M1008 461L999 470L996 467M1046 461L1044 463M144 462L142 465M258 462L259 466M688 462L688 464M886 462L883 465L886 470L887 471M1110 462L1107 465L1103 464L1102 464L1101 464M572 463L577 463M579 463L580 469L576 472L573 475L570 479M618 463L618 464M842 463L848 465L849 465L850 466M1030 463L1031 463M1066 463L1068 463M1123 463L1125 465L1126 468L1127 469M178 464L178 467M312 464L307 468M1024 464L1020 470L1019 471L1018 472M121 465L122 465M524 487L514 494L513 490L513 482L508 477L508 474L504 467L507 465M571 465L574 468L577 470M632 465L636 467L643 474L644 475L645 476L645 477M878 465L883 465M142 466L139 469M159 466L157 470L159 480L158 485L159 480M303 466L300 471L300 480L306 483L309 476L303 469M496 467L499 466L504 467M788 466L788 473L791 477L792 481L790 488L787 488M877 466L880 471L884 468M923 466L924 470L928 474C930.835 478.887 933.571 482.498 939 479L933 481M1080 485L1086 485L1088 483L1088 481L1089 475L1089 470L1092 467L1096 467L1099 470M132 467C131.648 470.479 130.913 471.926 134 474L135 475M151 467L153 469L156 470L157 471M253 467L246 473L237 476L236 476L235 476L234 476M433 467L433 471L433 472L433 473L433 480L437 481L444 487L444 478L440 476L438 474L435 469M537 467L538 470L541 469L542 469M1074 467C1078.34 471.373 1082.14 474.278 1078 480L1078 480M1082 467L1084 467M214 468L215 471M580 469L583 471M809 472L812 469M824 471L828 469M839 469L839 470M990 469L988 471L988 473L985 475M1090 469L1093 472M125 470L127 471L130 471L131 471M199 470L204 473M284 470L285 482L290 484L295 484C300.06 488.782 303.245 490.815 309 486L306 483M559 498L555 501L549 503L537 498L538 494L537 485L542 480L538 479L540 484L545 486L549 485L552 489L559 495L561 499L565 500L570 505L574 505L579 500C583.188 501.438 585.475 500.578 589 498L589 491L593 487L597 479L602 476L608 474L614 472L618 471L621 471L623 470L624 470L625 470L626 470M864 473L868 475L872 475L877 478L879 479L880 480L885 482L889 482L893 484L897 485L901 485L906 487L914 491L918 491L919 492L926 492L932 495L936 496L945 496L946 497L949 497L956 497L961 499L967 498L968 497L973 497L974 496L979 496L980 495L986 495L987 494L991 494L994 492L998 492L999 491L1004 491L1006 489L1010 489L1015 486L1019 486L1028 483L1035 480L1039 477L1053 470L1054 470L1055 471L1056 472M1076 470L1072 472M318 471L316 482L316 483L318 486L318 491L313 496L311 492L310 486L314 482L309 477M932 471L937 476M944 471L944 473L945 474L945 476L945 477M1100 472L1102 471L1105 471L1106 471M264 473L268 472L272 472L273 472L274 472L275 472L280 473L281 474L282 475L283 476M831 472L833 472M131 473L129 475L127 475L124 475M177 473L170 479L162 476L161 476L160 476L159 476M227 473L229 473M311 473L309 475M510 478L517 476L521 473L527 475L534 476L535 477L536 478L537 478M1063 474L1065 476M1071 477L1075 474M623 475L626 475M843 475L846 475L849 477L849 478M1089 475L1091 475M1107 479L1111 475L1112 475L1118 478L1119 478L1120 478L1121 478M135 476L140 481L142 486L148 488L146 492L149 501L157 504L158 504L161 501L164 500L169 497L170 497L171 497L172 497M157 476L151 484L156 483M181 476C180.198 481.117 176.768 483.304 174 478L174 478M254 476L261 483L263 478M438 476L438 480M695 480L694 487L690 490L686 487L685 481L691 476M799 476L801 483L800 487L794 491L794 496L795 497L795 501L796 502L797 511L798 512L800 512M817 476L820 476M121 477L122 478M189 477L185 483L185 487L193 496L193 506L199 508L203 512L204 520L212 518L216 522L220 520L225 520L231 523L235 521L245 521C248.128 517.004 250.28 513.858 248 509L244 513L242 505L238 507M251 477L251 483C254.609 486.333 256.865 488.487 261 485L261 483M302 477L306 477M276 478L279 478L282 481L283 482M490 478L484 484L485 494L492 499L497 494L499 484L503 488L504 489L505 490L506 491L511 496L508 500L504 500L503 500L502 500L501 500L496 500L494 498M504 478L507 478M611 478L611 479M1071 478L1062 484L1061 483L1060 482M837 479L837 480M923 479L927 485L928 485L929 485M1116 479L1116 484M137 480L135 483L133 486M300 480L296 484M499 480L499 484M543 480L546 481L549 484M603 480L607 480M1048 486L1049 480L1048 487L1054 490C1053.18 495.608 1051.46 499.027 1055 504L1066 498L1066 498M1100 480L1099 483L1092 488C1096.52 491.201 1098.86 490.483 1103 487L1100 483M432 481L437 491L440 486M801 483L805 481L806 481L810 483L817 491L821 493L828 497L832 495L839 495M173 482L171 484M182 482L185 484M271 484L279 482L280 482L281 483L282 482M314 482L316 482M637 482L627 492L626 499L622 495L624 488M1051 482L1057 488L1054 490L1054 490M1059 482L1056 485M281 483L278 486L275 485M551 487L555 485L561 490L565 488L569 489L584 490L583 486L590 483L591 483L592 484L593 485M240 505L236 503L231 500L231 496L231 495L231 494L231 493L231 489L236 484L240 484L246 490L239 497L241 504M974 484L975 484M1066 484L1068 486L1068 488L1071 491M119 487L123 486M152 485L149 488L152 491L152 492M216 494L217 498C213.69 500.765 212.015 501.845 208 500L211 496L215 493L222 485L231 488M294 485L291 492L286 497L289 503L297 508L300 504L302 502L306 499L312 496L316 501L313 509L313 514L311 517L309 522L301 514L305 512L311 508L312 508M603 485L606 485M142 486L139 491M160 486L164 492L165 493L166 493M235 486L237 488L239 488L242 488M450 486L450 492L452 494L451 501L454 508L455 509L455 510L455 511M581 486L583 486M1088 486L1090 489C1085.21 494.861 1081.54 495.078 1076 490L1076 490M191 494L198 492L203 487L212 487L213 488L214 489L215 490M676 487L676 492L671 496L673 501L672 506L681 518L685 511L676 510L676 510M686 487L684 491L684 494L684 496L674 501L673 501M792 487L795 490M851 487L850 491L845 496M1104 487L1107 488L1110 489M1115 487L1118 490L1118 491L1120 493L1121 494M259 488L264 492L265 499L260 504C263.248 505.542 264.337 505.43 267 503L271 506L276 513L283 506L281 502L285 496M445 488L448 494L450 492M1057 488L1060 491L1061 492L1062 493L1064 495L1065 496L1066 497M1118 488L1120 488L1121 488L1123 488L1124 488M167 489L168 489M248 508L246 504L247 500L252 489L253 489L254 489L255 488M297 489L297 492M694 489L691 490M864 489L861 495L861 500L854 504L857 508L857 513L851 513L849 507L844 514L851 513M173 490L179 493C182.531 495.877 184.103 496.515 188 494L189 493M246 490L248 492L241 499M438 490L441 493M561 490L559 495M799 490L807 493L813 492L814 492L815 492L816 491M579 500L586 491L587 491L588 491L589 491M625 491L627 493M633 491L636 494L641 499L642 500L643 501L644 502M689 492L693 493M199 492L206 499L207 499L208 499M274 494L279 492M436 492L436 495M676 492L677 496L677 501M878 492L877 494L876 497L876 498M678 494L686 494L687 493L688 493M121 494L121 500L126 510L126 515L128 520L132 525L135 531L136 531L137 531L138 531M447 494L447 498L450 502M514 494L512 496M516 494L521 498M532 494L537 496M632 494L628 496M693 494L692 498L691 499L689 509L691 513L690 517L688 521L682 525L690 531L685 536L677 537L677 545L668 551L664 549L659 553L661 561L655 565L656 569L663 576L663 578L658 583L658 584L663 588C664.921 584.178 664.451 582.457 662 579L662 579M693 494L696 498M1089 494L1089 502L1085 504L1079 504L1078 504L1077 505M1106 494L1107 494M157 495L159 498L159 501M252 495L258 502L259 503L260 504M618 496L622 495M899 496L898 499M183 497L183 502L179 506L180 511L184 513L189 520L197 520L207 530L199 538L198 538C196.145 534.304 196.066 530.64 201 531L202 532M683 497L683 502L678 505L678 506L678 507L678 508M829 497L836 504L839 504L844 499L845 498M250 498L253 504L255 506C255.99 509.135 256.795 509.71 260 509L260 506M291 504L296 498L297 498L298 498M565 499L569 498L576 498L577 498L578 498L579 498M827 498L824 503L824 504L824 505M1092 498L1102 504L1108 503L1109 502L1110 501L1111 501M216 499L217 507L218 508L218 509L219 510M265 499L267 503M314 499L309 506L305 501M492 499L489 503L489 507L490 508L491 516L498 523L502 536L508 535L510 533L512 533L515 533L516 533L517 534L524 532L528 539L524 543L517 544L516 548L510 554L501 548L501 544L501 543L501 542L501 537M626 499L627 503L634 510M685 499L687 499L688 499L690 499L691 499M849 499L854 504M882 503L884 500L889 500L890 499L891 499L892 499M906 499L905 508L910 509L919 515L919 525L914 530L905 523L899 530L898 536L898 537L898 538L898 539M917 499L920 513L925 506L920 507M923 499L923 501L924 502L924 504L924 505M149 501L147 507L143 505L135 504L140 500M827 500L829 504L827 511L826 511L824 511M871 500L868 502L867 505L867 506M529 501L530 501M564 501L561 507L561 516L554 515L553 515M849 501L849 503L849 504L849 506L849 507M913 501L913 508L912 509L911 510M1115 501C1114.06 504.173 1115.02 504.711 1118 506L1119 506L1120 506M258 502L255 504M601 502L597 505M1090 503L1094 503M182 503L191 509L192 507M580 510L582 503L585 507L580 512L581 517L576 521L577 526C581.387 525.301 583.824 523.914 586 520L582 518M678 503L679 504M1046 503L1045 507M156 504L151 506L144 514L138 515L137 516L136 516L135 516M158 504L162 507L165 507L172 506L169 510L167 518L174 519L175 518L176 518L177 518M290 504L288 506L286 506L283 506M805 505L810 505M1055 504L1056 512L1063 504L1063 504M1102 504L1100 506L1097 506L1096 506M244 505L245 505M1063 505L1067 508M664 506L665 510L665 513L666 515L666 516L665 519L665 527L669 529L670 525L675 520L673 516L673 513L675 509M166 507L169 510M266 507L266 511L259 510M873 507L872 510M881 507L879 511L879 516M982 507L987 507M1005 515L1014 507L1015 508L1007 516L1001 518L1002 522L1002 525L1004 530L1013 526L1016 519L1010 517L1008 515M297 508L301 513M905 508L902 515L898 519L894 520L891 525C888.52 521.98 887.58 520.683 889 517L893 519M1016 508C1018.85 511.05 1020.64 513.402 1024 510M1118 519L1114 518L1112 512C1108.9 512.197 1107.37 512.269 1107 509L1109 508M686 510L689 509M829 509L834 509M976 509L977 510M992 509L994 514L1001 518M185 510L185 512M192 510L191 517L190 518M266 511L274 514L275 515L276 514L277 513M1059 511L1062 511L1067 513M1083 511L1087 511L1092 515L1098 514L1101 511L1103 511L1104 511L1105 511L1106 511M231 512L233 512M257 512L259 519L262 513M305 512L307 514L308 515L310 517L311 518M799 512C796.865 516.065 797.241 518.824 799 523L804 520M829 512L830 514M913 512L905 520L905 521L905 522L905 523M1024 512L1028 517L1020 523L1020 527L1017 530L1013 530L1011 528M244 513L244 515L244 516L244 517L244 520M1059 513L1059 519L1065 522L1059 529L1066 533L1067 534L1067 535M1070 515L1078 513L1079 513L1080 513M144 514L144 519C148.505 519.727 149.515 521.84 146 525M858 514L859 518L859 524L863 529L870 534L872 534L877 539L881 542L885 543L889 545L891 546L893 548L900 549L903 551L911 554L908 561C906.192 557.235 906.749 555.465 909 552L909 552M930 514L932 514M988 517L992 514M275 515C271.857 518.002 269.275 519.653 271 524L276 515L276 515M301 515L297 519L293 519L288 524L290 529L295 524L295 524M889 515L889 517M1021 515L1017 519M1099 515L1099 517L1099 518L1099 519L1099 522M184 516L177 522L176 521L175 520L174 519M608 516L611 520M254 517L257 519M562 517L568 519L566 528L575 529L576 527M980 517L979 520M1082 517L1086 519L1093 521M1105 517L1108 517M300 518L300 522L302 526L309 524L309 522M440 518L442 521M607 518L605 520L602 520L601 519M900 518L905 520M144 519L140 523M166 519L169 523L171 523L174 528L175 529L176 528L177 528M261 519L262 523C260.727 527.313 260.161 532.391 266 531M277 519L279 523L285 523L286 523L287 523M568 519L570 519L571 520L572 520L575 521M681 519L676 520M1018 519L1021 522M1035 519L1031 526L1025 521M255 520C251.461 523.456 247.048 527.821 245 521L245 521M809 521L814 520M1058 520L1056 529L1059 528M167 521L160 524L159 525L159 530L163 535L172 536L176 533L186 534L187 541L193 548L204 552L209 550L215 550L215 556L211 561L205 561L204 554L204 552M195 529L188 530L187 529L189 521L197 529L198 530M199 529L201 522L202 521L203 521M203 521L210 528L208 530M514 521C518.867 522.426 522.151 523.63 523 529L523 530L524 531M619 522L614 525L619 522M655 521L652 525M216 522C214.281 525.176 213.254 525.49 210 524L209 524L208 524M300 522L297 526M670 529L674 529L680 523L682 526M1065 522L1070 522M1074 522L1077 522M150 523L157 524L158 525L159 526M231 523L231 528L236 531L248 528L248 528M799 523L801 527L800 533L803 540L808 538L804 533M839 524L844 523M886 523L885 527M990 523L989 525M151 524L146 530L145 530M278 524L278 534L283 539L285 545L292 547L297 540L301 544L305 535L298 532L297 538L297 539L297 540M1081 524L1080 526M1111 524L1110 526M215 525L217 527L217 529L217 532M251 525L260 534L254 538L256 542L255 546L250 551L246 549L240 558L244 561L244 569L238 570L236 565L225 560L224 561L223 561M270 525L270 530L279 539L273 538L267 539L270 545L275 541M489 525L490 525M891 525L891 527L891 528L891 530L891 531M152 526L153 530M254 526L258 526L259 526L260 526L261 526L266 527L267 527L268 527L269 527M613 526L610 530L605 532L597 540L601 544L605 542L609 542L619 536L626 535L629 532L635 531L636 531L637 531L638 532M654 532L660 526L669 533L670 533L671 533L672 532M682 526L680 530L677 537M807 526L805 527L802 527L801 527M1094 526L1095 526M301 527C298.74 529.823 297.563 530.739 294 530L293 529M308 527L306 534L305 535M820 527L821 527M881 527L881 530M1068 527L1070 527M1086 528L1089 527M289 528L283 537L282 538L281 538M685 528L685 530L685 531L684 534L683 535M230 529L229 532L229 534L228 537M559 532L561 531L562 530L564 529L565 529M835 529L840 532M1001 529L995 537L989 538L991 543L990 544L990 545L989 546M1055 529L1048 537L1042 536L1035 540L1030 541L1029 542L1026 543L1022 543L1016 547L1017 552L1017 553L1017 559L1016 560L1016 561L1016 562M188 530L194 537L195 538L196 537M248 530L252 538L253 538L254 538M915 530L920 541L920 542L920 543L920 544M991 536L991 532L997 530L998 531L999 532M1007 530L1010 538L1010 539L1009 540M1054 530L1056 533L1058 535L1060 536L1061 537L1062 536M135 531L135 535L141 539M807 534L814 532L815 531L816 531M826 531L830 533L832 536L835 538L836 538L837 538L838 538M1000 531L1005 536L1003 542L1004 543L1003 544L1003 545M1075 531L1076 531M638 532L631 539L637 540L634 547L643 555L647 550M1091 532L1094 532M202 533L205 540L199 542L198 542L192 540L191 541L190 542L189 543M260 533L262 535L263 536L264 537L267 540M441 533L442 538L446 545L446 546L446 547L447 548M447 533L447 537L451 545L451 546L452 547L453 548M586 533L588 533L589 533L591 533L592 533M671 533L675 535M850 533L854 533M1101 537L1102 533L1104 536C1101.63 538.697 1099.21 541.989 1104 543L1104 549L1108 551L1111 545L1105 542M1113 533L1109 538L1108 539L1107 540M181 534L172 539L180 544L175 549L173 542M984 534L989 537L981 545L981 538M164 535L156 538L155 538L154 537M453 535L456 542L456 543L457 544L458 545M508 535L511 538L512 539L513 540L515 542L516 543L517 544M626 535L629 542L631 540M642 535L637 540M672 535L668 541L674 546M918 535L916 537L915 538L913 541L913 542M997 535L999 537L1000 538L1002 540L1003 541M1051 535L1055 537L1057 541L1063 542L1064 542L1065 541L1066 540M1057 535L1055 537M1086 537L1084 544L1078 540L1083 535L1092 541L1097 540L1098 540L1099 540L1100 540M1105 535L1109 537M149 536L149 537M248 536L245 540L250 547L251 548L252 549M686 536L690 539M825 537L830 536M1032 536L1033 536M172 537L173 538M584 537L586 537L587 537L588 537L591 537M1048 537L1051 546L1057 544L1057 541M195 538L195 540M200 538L202 540M618 538L629 545L629 542M1000 538L998 540L997 544L997 545M1060 538L1060 540M1113 538L1113 541L1112 544M160 539L157 545L158 551L158 552L157 553L156 554M528 539L538 544L539 543L540 541M571 539L571 541M662 539L660 543M845 539L846 542M874 539L871 545L870 552L868 556L868 561L862 562L859 559L855 560L845 570L837 571L840 578M1080 543L1076 547L1074 539L1077 539M139 540L139 544L144 553L151 551L152 551M438 540L443 540M803 540L803 544L814 552L818 548L813 540L808 548M935 546L927 543L933 540M206 541L208 541M526 541L529 550L521 557L512 552L512 552M668 541L665 544L665 547L665 548M852 541L855 542M147 542L149 542M188 542L185 544L180 544M441 542L438 545M860 542L863 542M1092 542L1086 548L1085 552L1081 559L1077 559L1072 554L1065 556L1057 562L1058 566L1068 572L1066 568L1059 561M653 543L651 544L648 546L647 546M1101 543L1097 547L1091 549L1090 548L1089 547L1088 546M301 544L300 551L296 557L297 558L299 559M539 544L543 546L548 551L553 550L556 552L560 553L566 560L572 556L576 556L577 556L578 556L579 556L580 557L587 556L590 551L599 546L597 551M601 544L599 546M1084 544L1087 547M153 545L157 545M285 545L282 549L282 556L289 556L292 547L292 547M294 545L296 547L299 547L300 547M677 545L681 549L686 547M926 545L926 547L926 548L926 549L926 552M981 545L981 549M247 546L247 549M269 546L267 550L268 555L267 556L271 563L267 568C265.275 565.492 264.885 565.083 262 566L267 571L263 574L263 580L267 581L273 581L275 579L275 575L268 571M628 546L635 553L635 551M650 546L653 549M834 553L834 546L838 548L835 555L828 557C824.427 553.825 821.822 551.839 817 553L821 565L825 563L828 558L836 570L831 572L826 562L826 562M976 553L975 549L980 545M1051 546L1051 554L1057 561M1056 546L1062 553L1063 554L1064 555L1065 556M178 547L178 554L172 556L170 551L165 551L159 549M215 550L219 547L227 548L232 554L237 554L238 555L239 555L240 555M631 548L634 547M660 547L662 550M829 547L833 547M933 547L933 550M1008 560L1008 550L1014 547L1015 547L1016 547M1098 547L1103 550M267 556L260 552L265 548L267 550M677 548L675 555L669 559L668 551L668 551M1057 548L1055 550L1054 554L1053 555M1076 548L1080 553L1081 553M171 550L176 551M196 549L200 557L201 557L202 558M501 549L496 554L496 558C498.014 562.933 499.656 565.592 505 567L509 563L510 556L518 564L523 566L526 570L533 567L530 564L524 565M629 549L631 557L631 555M655 549L655 551M972 549L975 549M1018 549L1020 549M1025 549L1024 553L1022 566L1024 570L1024 574L1024 575L1024 576L1024 577L1024 581L1024 582L1024 583L1024 584M182 550L183 551M467 550L469 555L471 559L474 562L475 564L475 565L475 566L476 567M683 550L682 555M911 554L916 554L919 556L920 556L925 556L930 559L934 560L939 560L940 561L943 561L946 561L949 561L950 562L956 562L957 563L963 563L967 561L971 561L975 560L978 558L981 558L988 555L992 554L996 554L997 553L1001 553L1008 550M1075 550L1073 553M464 551L468 562L471 559M530 551L535 556L540 553L537 551M548 551L546 555L550 558L556 554L556 552M815 551L817 553M1108 551C1106.98 556.003 1104.89 557.32 1100 558L1104 560M164 552L164 555L164 556L164 560M250 552L249 555L245 558L244 558L243 558M291 552L295 556M812 552L812 558L813 559L813 565L820 564M853 560L854 552L860 557L865 554L866 555L867 556L868 557M1085 552L1089 558L1097 558L1098 558L1099 558L1100 558M144 553L144 557L152 566L154 572L158 575L159 576L161 579L167 585L173 587L181 594L183 594L185 596L192 602L199 603L203 607L209 609L213 609L214 609L215 609L216 609L221 609L226 607C230.416 608.265 233.198 607.509 237 605L232 602L227 599M179 553L182 557L185 557M541 553L546 555M627 555L624 560C623.021 556.326 623.202 554.26 627 553L627 553M636 553L640 557L643 555M658 553L653 557M231 554L227 558M510 554L510 556M849 563L844 565L842 561L842 558L846 554L848 561L852 565L853 569L857 575L857 576L858 577L859 578M1029 554C1030.05 558.189 1030.1 561.166 1035 561L1035 561M268 555L278 557L279 558L280 557L281 557M835 555L834 562L833 563L833 564M838 555L842 556M1038 555L1041 561L1041 567L1035 577L1032 572L1031 563L1031 563M263 556L258 561L250 559L253 564L256 571L257 571L262 566L262 566M289 556L292 559L296 557L296 557M642 556L648 562L649 562L650 562M206 560L209 557L214 557M247 557L249 559M281 557C284.429 560.386 287.547 564.764 292 561L292 559M533 557L533 564L532 565M548 557L543 563L543 564L543 565M580 557L587 567L588 557L588 557M632 557L635 560L636 560L639 557L639 557M860 557L860 559M893 557L894 564L898 562L905 568L914 565L921 573L922 574L926 576L928 582L923 587L926 591L926 596L926 597L926 598L926 599M1086 557L1084 562L1088 563L1098 572L1095 581L1096 588L1093 593L1093 597L1088 605L1083 604L1081 599L1076 598L1075 593M240 558L237 562L243 568M279 558L277 563L270 560M672 558L675 565L675 566M995 558L995 562L996 563L998 574L1002 569L1002 565L1002 564L1002 563L1002 558M1064 558L1069 563L1072 570L1071 571L1070 572L1069 573M1096 558L1093 561M565 559L562 566L570 573L569 561L569 561M669 559L663 561L662 561L661 561M898 559L898 562M188 560L190 566L181 569L177 566L175 561L174 562L173 563L172 564M268 560L266 563M461 560L464 567L466 571L473 578L477 578L483 583L484 583L485 583L486 583M635 560L628 565L629 573L628 574L628 575L627 576M644 560L644 565L638 573L637 574L633 577L631 584L627 589L625 596L625 600L624 601L623 609C619.195 611.502 609.748 611.767 611 616L614 615M1082 560L1084 560M205 561L205 565L198 571L191 568L190 567M258 561L260 566M624 561L620 565L611 569L610 570L611 571L611 572M667 561L667 567L665 572L664 573L664 574L663 575M1103 561L1100 570L1099 571L1098 572M862 562L862 568L867 571L869 562L869 562M908 562L908 567M983 562L985 562M238 563L236 565M271 563L274 563M279 563C280.212 567.241 279.583 569.457 277 573L276 574L275 575M468 563L472 568M622 563L624 565L627 565L628 565M885 570L888 563L896 571L905 571L905 568M182 568C183.847 564.903 185.004 565.236 188 567L188 567M289 564L286 570L283 572L282 574L282 577L280 580L276 581L271 589L267 589L261 590C257.757 593.32 254.996 595.434 257 600L247 606L240 605L239 605L238 605L237 605M457 564L459 571L462 576L464 579L468 585L467 590L473 595L476 591L468 585L468 585M659 564L661 566L662 567L664 569L665 570M833 564L829 568M836 565L841 564M895 564L893 566M1009 567L1011 564L1009 570L1013 574L1012 579L1004 586L1008 593M163 565L167 565M510 565L514 574L521 568L521 566M547 565L548 565M844 565L844 569M206 566L208 568L211 572L215 572L216 573L221 574L222 574L227 573L228 572L233 571L234 571L235 570L236 569M281 566L283 566L284 566L286 566L287 566M457 566C454.975 569.55 455.203 571.355 457 575L460 573M812 566L812 570L816 576L820 575L824 577L830 571M918 566L921 570M984 566L986 571L986 575L1001 583L1002 584L1003 585L1004 586M1056 566L1057 570L1062 580L1066 581L1075 581L1082 580M533 567L535 567M587 567L575 572L576 580L585 585L577 595L570 591L571 587L576 580M818 567L814 572M1069 567L1067 569M1079 567L1087 571L1082 575L1077 575L1070 573M206 568L203 571L200 570M910 568L916 574L911 583L918 587L914 592L913 601L908 597L903 598L901 594L895 595L894 592M980 568L980 571M1010 568L1015 571L1016 571M160 569L163 570M181 569L179 571L175 570L168 572M267 569L266 570M654 569L653 573L654 580L661 577L662 577M1056 569L1051 575L1045 579L1045 583L1046 584L1053 587L1053 585M244 570L248 573L255 571M526 570L527 573L533 573L536 578L537 578L538 578L539 578M606 575L606 573L609 570L610 570M649 570L648 572L645 576L645 577M257 571L260 574L263 574M845 571L847 574M867 571L874 580L877 574M1008 571L1008 573L1011 576L1012 577M1088 571L1091 574L1094 573L1095 573M182 572L179 578L184 586L188 584L195 585L203 578L203 578M281 572L283 572M571 572L575 572M899 572C895.799 576.524 896.517 578.864 900 583L906 573L906 573M932 572L932 575L928 580M479 573L484 574M526 573L520 577L520 581L520 582L520 583L520 584L520 589L524 594L528 593L535 602L543 598L542 592L532 589L530 582L523 577M1008 573L1005 576L1004 577L1000 581M248 574L246 581L247 590L239 593L238 593L237 593L236 593M515 574L519 576M621 575L623 574M916 574L920 574L921 582L922 583L923 584L924 585M1052 574L1059 583L1062 580M883 575L887 576L884 580M997 575L1000 580M209 576L210 576M457 576L459 578M816 576L821 587L820 583M975 576L975 577M1019 577L1019 579M167 578L164 581M173 580L175 579L176 579L178 578L179 578M221 583L228 578L229 579L230 580M235 578L239 580L246 581M906 578L911 581M980 578L980 582L980 583L980 584L980 585L980 586L980 587L980 588L980 589L980 595L985 597L989 594L991 591L992 590L997 585L997 583M1033 578L1029 583L1025 590M213 579L216 579M530 582L534 579M609 580L613 584L611 589L618 596L625 596M874 580L869 583M245 581L242 584L246 589M262 581L259 587L250 590L254 597M654 581L655 584L658 583M833 585L830 584L834 581M1086 582L1093 581L1094 581L1095 581M201 582L204 585L207 586M637 582L638 582M651 591L646 591L645 597L643 605L648 605L654 595L651 583L652 582L653 582M672 582L669 586L671 592L667 596L667 597L660 604L658 608L653 613L652 617L647 623L640 630L631 632L634 633M1056 582L1053 585M481 583L482 588L487 593L488 594L488 595L489 596M608 583L610 583M676 583L676 585L674 588L673 589M874 583L876 590L881 594L880 600L877 599M900 583L901 587C906.415 590.983 909.109 590.506 914 586L915 585M911 583L908 587L908 594L908 595L908 596L908 597M1045 583L1042 587L1043 591L1043 598L1052 595L1053 588M226 585L230 587L239 585L240 584L241 584L242 584M644 584L643 585M655 584L652 588M853 584L854 585M1060 584L1061 588L1068 587M181 585L178 590M193 585L193 588M198 585L202 589M862 585L864 585M883 585L887 588M1053 585L1053 587M665 586L669 586M1054 586L1059 588M187 587L186 589L185 593L185 594M840 587L837 589M918 587L923 587M1074 589L1077 587L1082 590M261 588L261 590M663 588L657 594L656 594L655 595M821 588L826 601L828 603L833 603L835 610L838 615L842 614L846 608L852 610L854 604L859 611L854 614L853 611M1088 588L1090 589L1090 591L1093 594M210 589L212 589M459 592L463 589L466 595L467 596L468 597M477 589L481 589M532 589L528 593M612 610L618 603L614 594L620 589L627 589M851 594L848 591L851 589M222 590L224 594L217 598M247 590L250 590M827 590L830 590M876 590L872 592M901 590L901 594M973 591L975 591M1090 591L1083 597L1082 598L1081 599M857 592L858 597M910 592L914 592M263 593L262 595L261 596L258 600M476 593L478 595L478 596L480 598L481 598M925 593L921 598L921 606L927 610M1060 593L1068 595L1069 595L1070 595M202 594L203 594M211 594L212 594M230 594L232 597L229 600M524 594L526 601L526 604L528 608L536 602L536 602M829 594L831 594M195 596L197 595M462 595L463 598L466 595M611 595L613 594M990 595L991 602L996 600M1040 605L1032 596L1033 595L1036 597L1039 600L1041 602L1040 606L1049 608L1053 615L1060 610C1064.35 611.445 1066.37 609.516 1069 606L1061 604L1057 598L1053 605L1058 606L1059 606L1060 605L1061 604M250 596L249 598L249 602L250 603M473 596L474 598M863 596L865 596L866 597L867 597L870 598M935 596L935 600L945 604L944 610L944 611L944 612L944 613M979 596L974 600L973 601L972 601M543 597L547 600L553 599L557 601L559 602L561 604L565 604L571 607L575 607L576 607L577 607L578 607L582 607L584 612L588 613L589 614L590 621L586 625L576 619L583 612M599 597L585 604L584 605L583 606L582 607M645 597L650 597M843 597L845 597M983 597L982 605L981 606L980 606M1057 597L1057 598M1083 597L1085 599L1087 599L1090 602M237 598L238 598M463 598L466 603L466 604L469 608L470 609L476 612L482 617L484 611L477 611M835 598L836 598M1048 598L1050 600L1050 601L1052 603L1053 604M851 599L853 600M1009 617L1006 610L1012 607L1017 603L1024 602L1027 600L1029 600L1030 600L1031 599L1032 599M1042 599L1041 601M1075 599L1069 606L1073 609L1081 603L1081 603M546 600L543 605L540 615L539 621L543 625L548 627L550 629L551 629L556 633L562 636L567 637L568 638L570 638L574 640L579 640L585 638L593 634L595 631L600 629L611 618L610 617M883 600L885 604L891 606L891 612L892 613L893 613L894 614M243 603L244 601L247 601L248 601M469 601L470 601M623 601L618 603M913 601L916 605M934 601L933 608L932 608L931 609L930 608M938 601L935 610L933 608M206 602L207 602M634 605L636 602L642 606M992 602L994 604M222 603L225 603L226 604L226 607L226 607M546 603L549 608M602 603L595 609L594 609L593 609M884 603L881 610L888 615L886 620L887 624L882 628L880 628L875 633L870 628L866 628L867 622L861 621L863 629L865 629M1000 603L1001 603M487 604L492 608M866 604C864.652 609.01 868.295 612.723 871 607M983 604L986 607L982 605M535 605L532 613L528 608M829 605L834 612L835 611L834 612M1088 605L1088 609L1083 615L1078 623L1075 629L1073 636L1069 642L1064 646L1060 651L1057 656L1050 663L1049 663L1043 669L1040 670L1032 674L1032 669L1031 668L1027 668L1030 661L1025 658L1023 667L1026 669M639 606L633 611L632 617L626 620L626 626L624 629L625 635L631 632M891 606L902 610L907 610L911 614L917 615L918 616L921 617L928 619L932 618L940 618L941 619L945 619L948 621L949 621L955 622L959 621L969 620L968 617M1040 606L1032 618L1037 623L1036 624L1040 628L1046 628L1048 632L1053 632L1058 640L1057 641L1055 642M1049 608L1052 606M571 607C570.984 612.642 568.828 618.44 576 619L576 619M643 607C640.898 609.844 640.224 610.594 637 609L637 609M975 607L975 609L975 610L975 611L975 614M1060 607L1060 610M873 608L879 612L880 611L881 610M987 608L988 608M1042 608L1042 614L1051 618L1051 615M1078 608L1080 611L1081 612L1083 613L1084 614M1072 609L1072 613L1073 616M602 610L604 611L605 611L608 611L609 612M622 610L626 610M938 610L939 612M950 610L951 614M1002 617L1002 622L998 622L996 618L995 614L1005 610L1006 610M859 611L861 618L859 620L853 617L845 613L844 612M861 612L864 611M876 611L876 620L883 619L884 619L885 619M624 612L624 619L625 620L626 621M870 612L873 613M890 612L888 614M1025 612L1024 618L1023 619L1023 623L1017 626L1016 620M533 613L536 616L539 615L540 615M640 613L637 620L635 628L632 624L633 618M833 613L833 615L835 617L838 616M867 613L867 619L866 620L865 621M1064 613L1064 617L1059 619M603 614L607 618L608 619L609 620M854 614L854 616M981 621L983 618L992 615L993 614L994 614L995 614M1042 614L1038 618L1036 621M841 615L839 617M607 616L609 616M482 617L487 624L495 630L501 633L506 634L513 638L517 638L523 642L529 640M485 619L490 618L487 621M504 617L506 618M536 617L538 621M835 617L836 623L839 628L841 630L841 632L844 636L849 643L856 648L858 646M839 618L841 620L842 622L839 625M1044 618L1041 623L1030 626L1033 634L1033 635L1033 636L1033 637M489 619L491 621M624 619L620 623L615 631L614 626L619 625M897 619L897 620M928 619L927 626L928 631L919 631L922 621L922 621M970 621L978 619L979 619L980 619L981 619M1050 619L1057 624L1064 625M1089 620L1090 620M502 621L509 629L513 631L522 634L522 626M548 621L550 621M876 621L876 623L878 625L880 628M1070 621L1073 621L1078 624M867 622L873 622L874 622L875 622M900 622L904 622M1002 622L1005 628L1010 625M903 623L903 626L900 628M924 623L927 626M987 623L992 629L998 626L998 624M871 624L870 628M888 625L894 631L895 638L892 638M910 627L913 628L917 625L918 627M498 626L499 626M1017 626L1017 630M1025 635L1023 632L1028 627L1029 626L1030 626M613 628L616 629M889 627L887 630L887 635M614 631L613 628M635 628L635 631M859 628L858 631M1005 628L1005 630L1002 633L1001 634M502 629L504 629M619 629L619 633L616 637L618 644L622 643L625 636M918 632L915 640L911 638L911 629L913 629M913 629L916 631M935 629L932 635L935 641L939 643L943 649L947 648L949 652L949 656L948 663M981 631L986 629L993 639L993 640L993 641M988 630L990 629M1059 629L1060 629M524 630L531 634L534 639L534 641L537 649L547 652L556 652L552 642L545 637M996 630L992 635M1006 631L1006 634M1066 631L1064 635M925 632L929 642L931 636M929 632L932 632M987 632L988 634L991 637L992 638M613 633L611 635L613 637L616 637M972 633L971 637L971 643L970 644L970 645L970 646M1041 633L1039 637C1042.91 641.381 1048.77 643.81 1045 650L1041 647M522 634L526 638M601 635L608 635L609 635L610 635L611 635M940 634L936 638M633 635L630 638L627 638M1011 635L1010 637M1018 647L1012 645L1015 641L1020 636L1021 635L1022 635M607 636L612 637M865 636L867 636M904 636L901 643L897 637M534 637L539 638L547 649L547 650L547 651L547 652M590 637C590.966 641.575 592.601 643.256 597 641L597 641M989 637L990 638M588 638L590 641L586 646M604 641L606 638L609 640M849 640L852 639M875 639L878 639M915 640L920 647L925 640L925 640M553 641L556 641M945 642L947 641M524 642L528 646L534 648L535 649L536 649L537 649M880 643L890 645L894 648L901 646L903 650L909 657L912 653L909 650L904 649M1025 642L1028 648L1029 649L1027 649M1031 642L1031 643M617 643L612 647L605 649L601 649L600 650L592 648L592 645M901 643L901 646M932 655L929 651C930.383 646.517 930.534 644.173 935 642L935 642M940 644L937 648L937 652L942 658C942.981 654.568 943.43 650.702 939 653L939 653M992 648L990 644L991 650M999 644L998 647M868 645L868 647L868 645M1022 662L1016 662L1012 657L1001 653L1012 645M556 653L560 654L567 654L575 647L576 647M925 647L928 651M982 647L979 651L969 661L968 661L967 662L967 663M865 648L867 647M875 648L877 648M895 648L888 654L883 649L882 649L881 649L880 649M580 649L582 653L592 652L593 651L594 650M858 649L865 657L872 660L873 655L870 654M1030 659L1030 653L1034 649L1040 653M1053 649L1054 649M888 650L889 651M904 651L901 660L896 658L903 650L903 650M983 650L985 651L985 654L985 655M1029 650L1031 652M894 651L894 653L894 654L896 656M575 653L580 653M912 653L917 655L916 661L918 655M971 673L969 669L973 668L978 664L982 664L985 660L990 660L998 654L999 653L1000 653L1001 653M1016 653L1017 653M888 655L893 657M1022 655L1024 657M1050 655L1048 656M911 656L915 658M890 657L884 665L887 669L896 678L904 679L905 680L906 679L907 679M909 657C905.147 659.58 901.552 660.906 902 666L903 667M920 657L926 660L939 665L938 674L936 674M994 657L998 662L1004 666L1006 674L1011 669L1004 666L1004 666M942 658L946 660M884 659L886 663M1043 660L1033 661L1032 661L1031 661L1030 661M873 661L881 665L882 665L883 665L884 665M888 662L892 664C895.304 668.361 896.602 671.217 892 675M1016 662L1016 666L1021 669L1019 678L1020 679L1021 679L1022 679M1035 664L1032 669M925 665L921 668M1016 666L1012 670L1011 677L1007 674L1002 681L1007 688L1014 685L1018 685L1023 682L1032 674L1032 674M1022 666L1020 668M940 667L946 667L948 669L950 669L953 669L957 670L961 677M996 667L997 669M913 668L916 668M885 669L890 677L892 675M908 669L908 670M927 669L932 670M958 671L962 669L969 669M1026 669L1026 671L1023 674L1022 674M898 670L901 672M941 672L943 674L939 674L939 674M991 672L996 675M980 673L979 675L979 679M906 674L906 675M913 677L923 675L923 680L919 680M943 675L949 681L949 686L957 693L962 695L967 695L968 695L969 695L970 695L971 694L979 693L980 690M994 675L991 681L990 682L989 682M924 676L928 677L932 681L933 681L937 685L938 685L939 685L940 685M986 676L987 677M896 678L899 683L904 686L916 688L916 685M961 685L965 684L971 679L972 679L973 679L974 679M956 680L955 681M924 681C923.683 685.345 922.301 688.62 918 690L917 690M995 681L996 683L1000 684L1001 683L1002 682M943 682L948 683M971 694L971 690L972 689L972 684L973 683L974 683L975 683M994 684L993 692L998 691L1004 689L1005 688L1006 687M981 685L981 686M930 687L932 692L942 692L943 693L946 693L957 689L957 688L958 687M942 687L944 687M923 691L925 691L926 691L928 691L929 691M979 694L988 693L989 692L990 692L991 692"/>
</svg>
