<?xml version="1.0" encoding="UTF-8" standalone="no"?>
<svg
   width="500"
   height="337.5"
   version="1.1"
   id="svg1"
   sodipodi:docname="wasp_centerline_trace.svg"
   inkscape:version="1.3.2 (091e20e, 2023-11-25)"
   xmlns:inkscape="http://www.inkscape.org/namespaces/inkscape"
   xmlns:sodipodi="http://sodipodi.sourceforge.net/DTD/sodipodi-0.dtd"
   xmlns="http://www.w3.org/2000/svg"
   xmlns:svg="http://www.w3.org/2000/svg">
  <defs
     id="defs1" />
  <sodipodi:namedview
     id="namedview1"
     pagecolor="#ffffff"
     bordercolor="#000000"
     borderopacity="0.25"
     inkscape:showpageshadow="2"
     inkscape:pageopacity="0.0"
     inkscape:pagecheckerboard="0"
     inkscape:deskcolor="#d1d1d1"
     inkscape:document-units="cm"
     inkscape:zoom="1.1936064"
     inkscape:cx="258.87931"
     inkscape:cy="194.36893"
     inkscape:window-width="1312"
     inkscape:window-height="793"
     inkscape:window-x="0"
     inkscape:window-y="519"
     inkscape:window-maximized="0"
     inkscape:current-layer="svg1" />
  <path
     style="fill:none;stroke:#000000;stroke-width:0.5"
     d="m 200.7942,303.29856 v 2"
     id="path422" />
  <path
     style="fill:none;stroke:#000000;stroke-width:0.5"
     d="m 202.2942,302.29856 c -1.922,0.7635 -1.6815,-0.4255 -0.5,-1.5"
     id="path421" />
  <path
     style="fill:none;stroke:#000000;stroke-width:0.5"
     d="m 296.7942,300.29856 -1,1"
     id="path420" />
  <path
     style="fill:none;stroke:#000000;stroke-width:0.5"
     d="m 296.7942,299.79856 h 1.5"
     id="path419" />
  <path
     style="fill:none;stroke:#000000;stroke-width:0.5"
     d="m 299.2942,298.29856 v 0.5"
     id="path418" />
  <path
     style="fill:none;stroke:#000000;stroke-width:0.5"
     d="m 297.2942,298.29856 2.5,2.5"
     id="path417" />
  <path
     style="fill:none;stroke:#000000;stroke-width:0.5"
     d="m 207.2942,296.29856 v 0.5"
     id="path416" />
  <path
     style="fill:none;stroke:#000000;stroke-width:0.5"
     d="m 295.7942,294.29856 -1.5,1.5"
     id="path415" />
  <path
     style="fill:none;stroke:#000000;stroke-width:0.5"
     d="m 293.8977,294.36306 c 0.7465,-1.1085 4.778,1.2475 4.166,2.668 -0.6965,1.616 -4.93,-1.534 -4.166,-2.668"
     id="path414" />
  <path
     style="fill:none;stroke:#000000;stroke-width:0.5"
     d="m 208.7942,292.29856 1,1"
     id="path413" />
  <path
     style="fill:none;stroke:#000000;stroke-width:0.5"
     d="m 291.7942,290.29856 c 1.011,1.634 0.4085,3.2605 -0.5,1"
     id="path412" />
  <path
     style="fill:none;stroke:#000000;stroke-width:0.5"
     d="m 210.7942,287.79856 c -1.997,5.0625 -8.6855,9.2145 -8.5,14.5"
     id="path411" />
  <path
     style="fill:none;stroke:#000000;stroke-width:0.5"
     d="m 213.2942,276.79856 c -1.807,3.2595 -3.182,8.4635 -0.5,11.5"
     id="path410" />
  <path
     style="fill:none;stroke:#000000;stroke-width:0.5"
     d="m 287.2942,275.79856 1.5,7.5"
     id="path409" />
  <path
     style="fill:none;stroke:#000000;stroke-width:0.5"
     d="m 214.7942,254.79856 c 1.5535,2.727 0.6485,5.0345 0.5195,8 -0.222,5.1115 1.62,10.2385 -1.0195,15"
     id="path389" />
  <path
     style="fill:none;stroke:#000000;stroke-width:0.5"
     d="m 218.2942,253.79856 3,2.5"
     id="path388" />
  <path
     style="fill:none;stroke:#000000;stroke-width:0.5"
     d="m 216.2942,252.29856 v 1"
     id="path387" />
  <path
     style="fill:none;stroke:#000000;stroke-width:0.5"
     d="m 283.2942,251.79856 1.5,23.5"
     id="path386" />
  <path
     style="fill:none;stroke:#000000;stroke-width:0.5"
     d="m 281.7942,249.79856 4.5,4"
     id="path385" />
  <path
     style="fill:none;stroke:#000000;stroke-width:0.5"
     d="m 251.7942,228.79856 -2.5,3.5"
     id="path384" />
  <path
     style="fill:none;stroke:#000000;stroke-width:0.5"
     d="m 244.7942,228.79856 c 0.3065,1.0445 2.5495,7.991 3.703,7.3965 2.4075,-1.2405 0.4775,-4.216 -1.703,-3.8965"
     id="path383" />
  <path
     style="fill:none;stroke:#000000;stroke-width:0.5"
     d="m 235.2942,220.79856 5,3.5"
     id="path382" />
  <path
     style="fill:none;stroke:#000000;stroke-width:0.5"
     d="m 261.7942,219.79856 c -4.615,4.2675 -8.941,1.936 -14.5,2.3665 -1.4895,0.1155 -5.6205,0.4215 -6.412,1.928 -1.321,2.513 3.8035,4.271 5.412,4.513 4.295,0.646 7.171,-1.4285 9.5,-4.8075"
     id="path381" />
  <path
     style="fill:none;stroke:#000000;stroke-width:0.5"
     d="m 204.7942,205.79856 c 0.007,11.53 3.5215,23.622 7.082,34.5 1.001,3.0595 1.9485,6.0965 3.3695,9 0.461,0.942 1.887,2.513 1.4725,3.6295 -0.411,1.1075 -2.5925,2.501 -3.424,3.3705"
     id="path380" />
  <path
     style="fill:none;stroke:#000000;stroke-width:0.5"
     d="m 202.2942,205.79856 c 0,12.0685 1.82,24.3385 4.96,36 1.337,4.9655 4.878,10.686 5.5975,15.5 0.7445,4.9795 -0.989,11.185 -0.528,16.5 0.212,2.447 2.3775,4.0305 2.3565,6.5 -0.074,8.575 -5.6,13.278 -10.141,19.504 -1.3725,1.8815 -1.256,3.405 0.755,4.496"
     id="path379" />
  <path
     style="fill:none;stroke:#000000;stroke-width:0.5"
     d="m 290.7942,203.29856 c -0.005,7.024 -1.586,14.123 -2.8695,21 -1.983,10.6235 -3.378,21.87 -10.6305,30"
     id="path378" />
  <path
     style="fill:none;stroke:#000000;stroke-width:0.5"
     d="m 318.2942,193.29856 2,0.5"
     id="path377" />
  <path
     style="fill:none;stroke:#000000;stroke-width:0.5"
     d="m 174.2942,192.79856 2,-0.5"
     id="path376" />
  <path
     style="fill:none;stroke:#000000;stroke-width:0.5"
     d="m 172.7942,192.29856 -0.5,1"
     id="path375" />
  <path
     style="fill:none;stroke:#000000;stroke-width:0.5"
     d="m 322.2942,191.79856 1,1"
     id="path374" />
  <path
     style="fill:none;stroke:#000000;stroke-width:0.5"
     d="m 321.2942,191.29856 h 0.5"
     id="path373" />
  <path
     style="fill:none;stroke:#000000;stroke-width:0.5"
     d="m 318.2942,189.79856 h 3"
     id="path372" />
  <path
     style="fill:none;stroke:#000000;stroke-width:0.5"
     d="m 170.7942,187.29856 h 1"
     id="path371" />
  <path
     style="fill:none;stroke:#000000;stroke-width:0.5"
     d="m 323.2942,185.29856 h 1"
     id="path370" />
  <path
     style="fill:none;stroke:#000000;stroke-width:0.5"
     d="m 172.2942,181.29856 1,1"
     id="path369" />
  <path
     style="fill:none;stroke:#000000;stroke-width:0.5"
     d="m 321.7942,179.29856 v 0.5"
     id="path368" />
  <path
     style="fill:none;stroke:#000000;stroke-width:0.5"
     d="m 175.7942,175.79856 v 0.5"
     id="path367" />
  <path
     style="fill:none;stroke:#000000;stroke-width:0.5"
     d="m 221.2942,173.79856 c 0,12.2205 -0.9325,28.06 6.5,38.5"
     id="path366" />
  <path
     style="fill:none;stroke:#000000;stroke-width:0.5"
     d="m 314.2942,172.29856 3,3"
     id="path365" />
  <path
     style="fill:none;stroke:#000000;stroke-width:0.5"
     d="m 172.2942,193.79856 c -3.0015,-0.7915 -2.2355,-4.547 -2.013,-7 0.557,-6.1465 4.336,-14.053 10.013,-17"
     id="path364" />
  <path
     style="fill:none;stroke:#000000;stroke-width:0.5"
     d="m 313.2942,168.29856 v 1.5"
     id="path363" />
  <path
     style="fill:none;stroke:#000000;stroke-width:0.5"
     d="m 269.7942,162.79856 c 2.022,15.0165 4.8645,28.591 -0.432,43.5 -1.2585,3.542 -2.7525,10.7155 -6.5755,12.256 -4.6945,1.892 -9.883,-2.3105 -14.4925,-2.1875 -5.006,0.133 -8.064,4.9325 -13.5,3.869 -1.8645,-0.365 -8.43,-4.4095 -6.3935,-7.0295 0.6525,-0.8395 8.3755,1.091 9.8935,1.091 3.643,0 7.018,-1.918 10.5,-1.8665 6.531,0.0965 10.9925,2.1675 17.5,-0.6325"
     id="path362" />
  <path
     style="fill:none;stroke:#000000;stroke-width:0.5"
     d="m 269.2942,161.79856 0.5,1"
     id="path361" />
  <path
     style="fill:none;stroke:#000000;stroke-width:0.5"
     d="m 187.7942,155.79856 c -2.0615,5.0255 -7.2075,10.601 -7,16"
     id="path360" />
  <path
     style="fill:none;stroke:#000000;stroke-width:0.5"
     d="m 228.2942,154.79856 -6.5,16.5"
     id="path359" />
  <path
     style="fill:none;stroke:#000000;stroke-width:0.5"
     d="m 193.2942,153.79856 1,3"
     id="path358" />
  <path
     style="fill:none;stroke:#000000;stroke-width:0.5"
     d="m 304.7942,152.29856 -2,2.5"
     id="path357" />
  <path
     style="fill:none;stroke:#000000;stroke-width:0.5"
     d="m 299.7942,152.29856 8.8055,15 4.6665,4.111 -0.972,-0.611"
     id="path356" />
  <path
     style="fill:none;stroke:#000000;stroke-width:0.5"
     d="m 250.2942,152.29856 -1,1"
     id="path355" />
  <path
     style="fill:none;stroke:#000000;stroke-width:0.5"
     d="m 267.2942,150.29856 -2.5,2.5"
     id="path354" />
  <path
     style="fill:none;stroke:#000000;stroke-width:0.5"
     d="m 233.2942,149.29856 c -2.103,1.9425 -3.997,4.4145 -7,4.5"
     id="path353" />
  <path
     style="fill:none;stroke:#000000;stroke-width:0.5"
     d="m 260.2942,148.29856 c 7.425,6.896 9.924,15.3025 14.41,24 2.548,4.94 6.3575,9.0915 8.9405,14 1.559,2.962 2.9755,6.198 3.602,9.5 0.3275,1.7255 0.0845,4.86 1.3915,6.1695 0.924,0.9255 3.2025,-0.361 4.656,0.3305"
     id="path352" />
  <path
     style="fill:none;stroke:#000000;stroke-width:0.5"
     d="m 235.7942,148.79856 2,-1"
     id="path351" />
  <path
     style="fill:none;stroke:#000000;stroke-width:0.5"
     d="m 233.7942,145.79856 4,0.5"
     id="path350" />
  <path
     style="fill:none;stroke:#000000;stroke-width:0.5"
     d="m 242.2942,144.79856 c -0.8875,0.756 -3.2795,1.749 -3.7385,2.7915 -1.83,4.1575 7.679,4.703 9.7385,4.7085"
     id="path349" />
  <path
     style="fill:none;stroke:#000000;stroke-width:0.5"
     d="m 253.2942,145.79856 6.5,-1.5"
     id="path348" />
  <path
     style="fill:none;stroke:#000000;stroke-width:0.5"
     d="m 229.7942,144.29856 c -0.995,1.7185 -2.6725,3.1385 -3.5,5 -0.5735,1.291 -0.2105,2.8655 -1.0835,4 -2.435,3.1655 -6.716,4.6835 -9.25,8 -6.602,8.6425 -10.968,19.714 -12.1665,30.5 -0.2975,2.6775 -3.894,10.782 -2.3335,13 0.864,1.228 4.851,1.323 5.5835,0 2.048,-3.698 1.3865,-9.4345 3.25,-13.5 2.397,-5.2305 5.959,-9.893 8.5835,-15 0.502,-0.977 2.8485,-3.044 2.6665,-3.8335 -0.239,-1.0365 -0.871,1.196 -0.75,0.8335"
     id="path347" />
  <path
     style="fill:none;stroke:#000000;stroke-width:0.5"
     d="m 262.2942,141.79856 c 2.7385,2.8695 3.6545,6.6285 6.1395,9.4475 2.759,3.1305 6.8395,4.7335 9.641,8.0525 7.82,9.264 11.3105,20.371 13.8245,32 0.5655,2.617 2.0375,5.3805 2.2935,8 0.1515,1.5515 -0.789,2.9295 -0.727,4.5 0.5365,13.5875 -1.389,27.659 -4.173,41 -0.6715,3.2175 -2.3955,6.2655 -2.861,9.5 -0.798,5.539 1.3065,11.521 1.2685,17 -0.0295,4.335 -2.892,5.6475 -1.502,10.5 0.4895,1.7085 2.3765,8.472 4.672,8.472 0.044,0 -0.7545,-6.5205 -3.576,-6.472"
     id="path346" />
  <path
     style="fill:none;stroke:#000000;stroke-width:0.5"
     d="m 302.7942,138.79856 c 0.2925,6.7105 2.1615,16.38 5.958,22 4.812,7.124 12.5685,12.623 15.2785,21.002 0.7215,2.23 1.5105,7.28 0.527,9.453 -0.287,0.6335 -2.247,3.1795 -3.175,2.3795 -0.3575,-0.308 0.9205,-5.0885 1.038,-5.8345 0.903,-5.7295 -4.1355,-9.097 -4.1265,-14.5"
     id="path344" />
  <path
     style="fill:none;stroke:#000000;stroke-width:0.5"
     d="m 196.2942,137.79856 -7,4.5"
     id="path341" />
  <path
     style="fill:none;stroke:#000000;stroke-width:0.5"
     d="m 190.7942,135.79856 -0.5,1"
     id="path336" />
  <path
     style="fill:none;stroke:#000000;stroke-width:0.5"
     d="m 167.7942,135.29856 1.5,5.5"
     id="path335" />
  <path
     style="fill:none;stroke:#000000;stroke-width:0.5"
     d="m 301.7942,134.79856 v 1"
     id="path334" />
  <path
     style="fill:none;stroke:#000000;stroke-width:0.5"
     d="m 254.2942,134.29856 -0.5,0.5"
     id="path333" />
  <path
     style="fill:none;stroke:#000000;stroke-width:0.5"
     d="m 167.2942,134.29856 0.5,1"
     id="path332" />
  <path
     style="fill:none;stroke:#000000;stroke-width:0.5"
     d="m 235.7942,133.79856 c 6.6295,5.769 14.202,6.686 21,0.5"
     id="path329" />
  <path
     style="fill:none;stroke:#000000;stroke-width:0.5"
     d="m 251.7942,133.29856 v 0.5"
     id="path327" />
  <path
     style="fill:none;stroke:#000000;stroke-width:0.5"
     d="m 231.7942,132.79856 c 1.7225,9.692 9.46,12.02 18.5,11.5"
     id="path325" />
  <path
     style="fill:none;stroke:#000000;stroke-width:0.5"
     d="m 191.7942,132.79856 v 1"
     id="path324" />
  <path
     style="fill:none;stroke:#000000;stroke-width:0.5"
     d="m 213.2942,132.29856 c 2.781,3.65 8.414,9.912 13.5,7.5"
     id="path323" />
  <path
     style="fill:none;stroke:#000000;stroke-width:0.5"
     d="m 197.2942,132.29856 h 0.5"
     id="path322" />
  <path
     style="fill:none;stroke:#000000;stroke-width:0.5"
     d="m 253.2942,132.29856 1,1"
     id="path321" />
  <path
     style="fill:none;stroke:#000000;stroke-width:0.5"
     d="m 191.7942,131.79856 h 0.5"
     id="path320" />
  <path
     style="fill:none;stroke:#000000;stroke-width:0.5"
     d="m 236.7942,131.29856 -0.5,1.5"
     id="path319" />
  <path
     style="fill:none;stroke:#000000;stroke-width:0.5"
     d="m 211.2942,131.29856 -13.9935,6.7095 -3.0935,12.7885 -3.913,5.502"
     id="path318" />
  <path
     style="fill:none;stroke:#000000;stroke-width:0.5"
     d="m 179.2942,133.29856 6.5,-2"
     id="path317" />
  <path
     style="fill:none;stroke:#000000;stroke-width:0.5"
     d="m 164.2942,130.79856 0.5,0.5"
     id="path316" />
  <path
     style="fill:none;stroke:#000000;stroke-width:0.5"
     d="m 319.7942,130.29856 h 4"
     id="path315" />
  <path
     style="fill:none;stroke:#000000;stroke-width:0.5"
     d="m 186.7942,130.79856 2,-0.5"
     id="path314" />
  <path
     style="fill:none;stroke:#000000;stroke-width:0.5"
     d="m 319.2942,129.79856 0.5,0.5"
     id="path313" />
  <path
     style="fill:none;stroke:#000000;stroke-width:0.5"
     d="m 189.7942,129.79856 h 3"
     id="path312" />
  <path
     style="fill:none;stroke:#000000;stroke-width:0.5"
     d="m 163.7942,129.79856 5.1625,4.8995 9.8375,-1.8995"
     id="path311" />
  <path
     style="fill:none;stroke:#000000;stroke-width:0.5"
     d="m 268.7942,129.29856 -4,9"
     id="path309" />
  <path
     style="fill:none;stroke:#000000;stroke-width:0.5"
     d="m 237.7942,129.29856 -2,2"
     id="path308" />
  <path
     style="fill:none;stroke:#000000;stroke-width:0.5"
     d="m 280.2942,128.79856 c -1.8235,3.9805 -5.7575,8.0305 -10,9.388 -2.0135,0.6445 -5.0285,-0.112 -6.6255,1.3155 -2.517,2.2505 -3.2155,9.178 -6.3745,8.2965"
     id="path307" />
  <path
     style="fill:none;stroke:#000000;stroke-width:0.5"
     d="m 252.2942,128.79856 1.5,2"
     id="path306" />
  <path
     style="fill:none;stroke:#000000;stroke-width:0.5"
     d="m 256.7942,128.29856 -0.5,0.5"
     id="path305" />
  <path
     style="fill:none;stroke:#000000;stroke-width:0.5"
     d="m 308.2942,127.79856 h 1"
     id="path304" />
  <path
     style="fill:none;stroke:#000000;stroke-width:0.5"
     d="m 254.2942,127.79856 1,1"
     id="path303" />
  <path
     style="fill:none;stroke:#000000;stroke-width:0.5"
     d="m 234.2942,127.79856 v 1"
     id="path302" />
  <path
     style="fill:none;stroke:#000000;stroke-width:0.5"
     d="m 204.7942,127.79856 h 4.5"
     id="path301" />
  <path
     style="fill:none;stroke:#000000;stroke-width:0.5"
     d="m 193.7942,127.79856 h 1"
     id="path300" />
  <path
     style="fill:none;stroke:#000000;stroke-width:0.5"
     d="m 216.7942,127.29856 c 0.684,0.346 3.473,1.111 3.472,2.058 -0.001,1.5455 -6.897,2.0095 -7.9645,1.6535 -4.985,-1.664 -0.8745,-3.4355 1.9925,-3.2115"
     id="path299" />
  <path
     style="fill:none;stroke:#000000;stroke-width:0.5"
     d="m 196.2942,127.29856 c 2.151,0.717 -0.9155,1.533 -2,1.6665 -0.8405,0.1035 -1.175,-0.8275 -2,-0.9165 -5.044,-0.543 -10.1795,3.5765 -14,5.75 -3.102,1.765 -6.089,1.3745 -8.5,4.5"
     id="path298" />
  <path
     style="fill:none;stroke:#000000;stroke-width:0.5"
     d="m 88.794204,127.29856 c -2.147,1.244 -5.679999,1.6295 -6.890499,4.0525 -1.249,2.501 1.259,5.7415 2.9175,7.4025 4.765999,4.7735 10.850999,7.99 16.972995,10.6795 18.395,8.081 42.699,8.462 62,4.04 6.391,-1.4645 12.2715,-3.967 18,-7.14 1.186,-0.6565 5.193,-3.886 6.536,-3.266 0.718,0.3315 -0.599,7.9825 -0.489,9.2295 0.1915,2.1725 2.266,3.8615 1.927,6.004 -1.669,10.5525 -12.4935,14.948 -16.2805,23.998 -1.2785,3.055 -2.366,14.1715 2.8065,13"
     id="path297" />
  <path
     style="fill:none;stroke:#000000;stroke-width:0.5"
     d="m 270.2942,126.79856 c 8.935,1.135 16.8655,4.196 25,8"
     id="path296" />
  <path
     style="fill:none;stroke:#000000;stroke-width:0.5"
     d="m 253.2942,126.79856 h 1.5"
     id="path295" />
  <path
     style="fill:none;stroke:#000000;stroke-width:0.5"
     d="m 250.7942,126.79856 h 0.5"
     id="path294" />
  <path
     style="fill:none;stroke:#000000;stroke-width:0.5"
     d="m 157.2942,126.79856 2,0.5"
     id="path293" />
  <path
     style="fill:none;stroke:#000000;stroke-width:0.5"
     d="m 303.7942,126.29856 4.5,0.5"
     id="path292" />
  <path
     style="fill:none;stroke:#000000;stroke-width:0.5"
     d="m 255.2942,127.29856 c 1.1785,-1.109 1.225,2.3065 0.5,3"
     id="path291" />
  <path
     style="fill:none;stroke:#000000;stroke-width:0.5"
     d="m 299.7942,125.79856 h 2"
     id="path290" />
  <path
     style="fill:none;stroke:#000000;stroke-width:0.5"
     d="m 244.7942,125.79856 h 1.5"
     id="path289" />
  <path
     style="fill:none;stroke:#000000;stroke-width:0.5"
     d="m 218.2942,125.79856 1.5,1"
     id="path288" />
  <path
     style="fill:none;stroke:#000000;stroke-width:0.5"
     d="m 194.2942,125.79856 v 0.5"
     id="path287" />
  <path
     style="fill:none;stroke:#000000;stroke-width:0.5"
     d="m 162.2942,128.79856 2.5,-1 15,-2"
     id="path286" />
  <path
     style="fill:none;stroke:#000000;stroke-width:0.5"
     d="m 302.2942,125.29856 1.5,0.5"
     id="path285" />
  <path
     style="fill:none;stroke:#000000;stroke-width:0.5"
     d="m 270.2942,125.79856 3,-0.5"
     id="path284" />
  <path
     style="fill:none;stroke:#000000;stroke-width:0.5"
     d="m 239.2942,126.29856 h 2"
     id="path283" />
  <path
     style="fill:none;stroke:#000000;stroke-width:0.5"
     d="m 237.2942,125.29856 c 2.6005,2.7235 0.554,4.4155 5,0.5"
     id="path282" />
  <path
     style="fill:none;stroke:#000000;stroke-width:0.5"
     d="m 293.2942,124.79856 h 6.5"
     id="path281" />
  <path
     style="fill:none;stroke:#000000;stroke-width:0.5"
     d="m 225.7942,124.79856 c 0.801,2.7515 2.588,4.817 5,6.361 1.095,0.701 5.9395,3.8 4,0.639"
     id="path280" />
  <path
     style="fill:none;stroke:#000000;stroke-width:0.5"
     d="m 252.7942,124.29856 c -0.5865,5.424 -5.307,1.9305 -4.5,1.5"
     id="path279" />
  <path
     style="fill:none;stroke:#000000;stroke-width:0.5"
     d="m 206.2942,124.29856 0.5,0.5"
     id="path278" />
  <path
     style="fill:none;stroke:#000000;stroke-width:0.5"
     d="m 178.2942,124.29856 h 1.5"
     id="path277" />
  <path
     style="fill:none;stroke:#000000;stroke-width:0.5"
     d="m 158.7942,125.29856 17.5,-1"
     id="path276" />
  <path
     style="fill:none;stroke:#000000;stroke-width:0.5"
     d="m 293.2942,123.79856 c 3.5975,0.0745 6.363,1.3465 9.67,2.214 7.3395,1.926 14.169,2.6685 20.33,7.786"
     id="path275" />
  <path
     style="fill:none;stroke:#000000;stroke-width:0.5"
     d="m 220.2942,123.79856 1,2"
     id="path274" />
  <path
     style="fill:none;stroke:#000000;stroke-width:0.5"
     d="m 184.7942,123.79856 -2,1"
     id="path273" />
  <path
     style="fill:none;stroke:#000000;stroke-width:0.5"
     d="m 176.2942,124.29856 c -0.3535,0.118 1.912,-0.824 1.5,0 -1.2065,2.4135 -11.0445,2.1095 -13.5,2.4165 -0.547,0.0685 -4,-0.223 -4,0.5835 0,0.8035 2.8455,1.9295 1.5,0.5"
     id="path272" />
  <path
     style="fill:none;stroke:#000000;stroke-width:0.5"
     d="m 290.2942,123.29856 1.8975,0.857 -4.8975,0.188 -13,0.455"
     id="path271" />
  <path
     style="fill:none;stroke:#000000;stroke-width:0.5"
     d="m 273.2942,123.29856 h 7"
     id="path270" />
  <path
     style="fill:none;stroke:#000000;stroke-width:0.5"
     d="m 266.2942,123.29856 1.5,1"
     id="path269" />
  <path
     style="fill:none;stroke:#000000;stroke-width:0.5"
     d="m 195.2942,123.29856 -0.5,1.5"
     id="path268" />
  <path
     style="fill:none;stroke:#000000;stroke-width:0.5"
     d="m 284.2942,123.29856 4.5,-0.5"
     id="path267" />
  <path
     style="fill:none;stroke:#000000;stroke-width:0.5"
     d="m 270.2942,122.79856 -1.5,1"
     id="path266" />
  <path
     style="fill:none;stroke:#000000;stroke-width:0.5"
     d="m 184.7942,123.29856 1.5,-0.5"
     id="path265" />
  <path
     style="fill:none;stroke:#000000;stroke-width:0.5"
     d="m 203.2942,122.29856 c 3.731,0 7.424,0.447 11,1.595 0.845,0.271 4.148,1.9105 1.9165,2.8655 -1.1555,0.495 -3.154,-0.429 -4.4165,-0.458 -3.169,-0.0735 -5.516,0.503 -8.5,1.2915 -0.7685,0.203 -3.3555,0.733 -4.023,0.1735 -0.818,-0.685 4.116,-0.9675 4.523,-0.9675"
     id="path264" />
  <path
     style="fill:none;stroke:#000000;stroke-width:0.5"
     d="m 292.2942,121.79856 h 0.5"
     id="path263" />
  <path
     style="fill:none;stroke:#000000;stroke-width:0.5"
     d="m 239.7942,121.79856 4.5,2.5"
     id="path262" />
  <path
     style="fill:none;stroke:#000000;stroke-width:0.5"
     d="m 322.2942,137.79856 3.5,-11 2.023,-3.7615 -6.046,-1.074 7.023,-0.6645"
     id="path261" />
  <path
     style="fill:none;stroke:#000000;stroke-width:0.5"
     d="m 315.2942,121.29856 3,1"
     id="path260" />
  <path
     style="fill:none;stroke:#000000;stroke-width:0.5"
     d="m 272.2942,121.79856 1.5,-0.5"
     id="path259" />
  <path
     style="fill:none;stroke:#000000;stroke-width:0.5"
     d="m 264.2942,121.29856 1,1"
     id="path258" />
  <path
     style="fill:none;stroke:#000000;stroke-width:0.5"
     d="m 226.2942,121.29856 -1,1"
     id="path257" />
  <path
     style="fill:none;stroke:#000000;stroke-width:0.5"
     d="m 312.2942,120.79856 c 1.8745,0.204 1.8745,0.796 0,1"
     id="path255" />
  <path
     style="fill:none;stroke:#000000;stroke-width:0.5"
     d="m 273.7942,121.29856 1,-0.5"
     id="path254" />
  <path
     style="fill:none;stroke:#000000;stroke-width:0.5"
     d="m 231.7942,120.79856 5.5,1.5"
     id="path253" />
  <path
     style="fill:none;stroke:#000000;stroke-width:0.5"
     d="m 223.7942,120.79856 -3.5,1"
     id="path252" />
  <path
     style="fill:none;stroke:#000000;stroke-width:0.5"
     d="m 203.2942,120.79856 -7,1"
     id="path251" />
  <path
     style="fill:none;stroke:#000000;stroke-width:0.5"
     d="m 188.2942,122.79856 7.5,-2"
     id="path250" />
  <path
     style="fill:none;stroke:#000000;stroke-width:0.5"
     d="m 332.7942,120.29856 c -1.0965,0.4715 -3.9925,2.0415 -1,1.5"
     id="path249" />
  <path
     style="fill:none;stroke:#000000;stroke-width:0.5"
     d="m 303.7942,120.29856 5,0.5"
     id="path248" />
  <path
     style="fill:none;stroke:#000000;stroke-width:0.5"
     d="m 272.2942,123.29856 4,-3"
     id="path247" />
  <path
     style="fill:none;stroke:#000000;stroke-width:0.5"
     d="m 265.7942,120.29856 c -0.9015,5.4935 -4.724,7.727 -7.2635,12.5 -1.075,2.02 -0.6435,4.5135 -1.7485,6.446 -1.7,2.973 -7.7715,3.5455 -2.988,7.054"
     id="path246" />
  <path
     style="fill:none;stroke:#000000;stroke-width:0.5"
     d="m 264.2942,120.29856 c -3.1285,2.407 -10.6285,4.6085 -13.5,1.5"
     id="path245" />
  <path
     style="fill:none;stroke:#000000;stroke-width:0.5"
     d="m 197.7942,120.29856 15.5,0.5"
     id="path244" />
  <path
     style="fill:none;stroke:#000000;stroke-width:0.5"
     d="m 225.2942,119.79856 c -1.0605,2.081 -3.3905,5.275 -3.685,7.5 -0.922,6.9735 7.6355,13.759 11.2425,18.44 2.015,2.615 2.455,5.792 6.443,7.096 3.203,1.047 17.4715,0.96 16.5785,-4.92 -0.513,-3.379 -4.9055,3.194 -5.579,3.884"
     id="path243" />
  <path
     style="fill:none;stroke:#000000;stroke-width:0.5"
     d="m 295.7942,119.29856 1,-0.5"
     id="path242" />
  <path
     style="fill:none;stroke:#000000;stroke-width:0.5"
     d="m 281.7942,119.29856 h 1.5"
     id="path241" />
  <path
     style="fill:none;stroke:#000000;stroke-width:0.5"
     d="m 278.2942,119.29856 h 0.5"
     id="path240" />
  <path
     style="fill:none;stroke:#000000;stroke-width:0.5"
     d="m 300.7942,118.79856 2.5,0.5"
     id="path239" />
  <path
     style="fill:none;stroke:#000000;stroke-width:0.5"
     d="m 299.7942,118.79856 10,1.5"
     id="path238" />
  <path
     style="fill:none;stroke:#000000;stroke-width:0.5"
     d="m 294.2942,118.79856 h 1"
     id="path237" />
  <path
     style="fill:none;stroke:#000000;stroke-width:0.5"
     d="m 280.2942,118.79856 h 1"
     id="path236" />
  <path
     style="fill:none;stroke:#000000;stroke-width:0.5"
     d="m 272.7942,118.29856 -2,1.5"
     id="path235" />
  <path
     style="fill:none;stroke:#000000;stroke-width:0.5"
     d="m 200.7942,118.29856 1,0.5"
     id="path234" />
  <path
     style="fill:none;stroke:#000000;stroke-width:0.5"
     d="m 197.2942,118.29856 c -1.651,5.0855 -8.2015,5.169 -12.9655,5.357 -0.8415,0.033 -2.8795,1.735 -3.45,0.971 -0.5255,-0.7035 1.2565,-0.8015 1.4155,-0.828"
     id="path233" />
  <path
     style="fill:none;stroke:#000000;stroke-width:0.5"
     d="m 289.2942,117.79856 h 1"
     id="path231" />
  <path
     style="fill:none;stroke:#000000;stroke-width:0.5"
     d="m 286.7942,118.29856 1.5,-0.5"
     id="path230" />
  <path
     style="fill:none;stroke:#000000;stroke-width:0.5"
     d="m 283.7942,118.29856 1.5,0.5 -3,-0.4165 -4.5,1.9165"
     id="path229" />
  <path
     style="fill:none;stroke:#000000;stroke-width:0.5"
     d="m 211.2942,117.79856 h 0.5"
     id="path228" />
  <path
     style="fill:none;stroke:#000000;stroke-width:0.5"
     d="m 293.7942,118.29856 c -2.904,0.055 -2.7255,-1.243 0,-0.5"
     id="path227" />
  <path
     style="fill:none;stroke:#000000;stroke-width:0.5"
     d="m 288.7942,117.29856 v 1 -1"
     id="path226" />
  <path
     style="fill:none;stroke:#000000;stroke-width:0.5"
     d="m 217.7942,117.29856 c 0.226,1.478 1.8875,3.4865 1.611,4.8735 -0.3895,1.954 -4.652,-0.256 -4.5905,-1.264 0.025,-0.407 2.617,-1.393 2.9795,-1.6095"
     id="path225" />
  <path
     style="fill:none;stroke:#000000;stroke-width:0.5"
     d="m 122.2942,117.29856 4,1"
     id="path224" />
  <path
     style="fill:none;stroke:#000000;stroke-width:0.5"
     d="m 337.7942,118.79856 18,-0.4805 39.5,-0.1045 11,0.585"
     id="path223" />
  <path
     style="fill:none;stroke:#000000;stroke-width:0.5"
     d="m 260.2942,116.79856 v 2"
     id="path222" />
  <path
     style="fill:none;stroke:#000000;stroke-width:0.5"
     d="m 294.2942,116.29856 4,3"
     id="path221" />
  <path
     style="fill:none;stroke:#000000;stroke-width:0.5"
     d="m 121.7942,116.79856 4.5,0.5"
     id="path220" />
  <path
     style="fill:none;stroke:#000000;stroke-width:0.5"
     d="m 260.2942,115.29856 v 0.5"
     id="path219" />
  <path
     style="fill:none;stroke:#000000;stroke-width:0.5"
     d="m 214.7942,115.29856 2,0.5"
     id="path218" />
  <path
     style="fill:none;stroke:#000000;stroke-width:0.5"
     d="m 280.2942,114.79856 h 0.5"
     id="path217" />
  <path
     style="fill:none;stroke:#000000;stroke-width:0.5"
     d="m 205.7942,114.79856 h 2.5"
     id="path216" />
  <path
     style="fill:none;stroke:#000000;stroke-width:0.5"
     d="m 273.2942,114.29856 0.3215,3.7915 4.6785,-1.125 10,-1.327 37,3.6605 9.142,-1.2375 2.255,-0.025 -2.897,1.2625"
     id="path215" />
  <path
     style="fill:none;stroke:#000000;stroke-width:0.5"
     d="m 214.7942,114.29856 h 1"
     id="path214" />
  <path
     style="fill:none;stroke:#000000;stroke-width:0.5"
     d="m 199.2942,114.29856 v 1"
     id="path213" />
  <path
     style="fill:none;stroke:#000000;stroke-width:0.5"
     d="m 110.2942,114.29856 10.472,1.895 -7.972,-0.895"
     id="path212" />
  <path
     style="fill:none;stroke:#000000;stroke-width:0.5"
     d="M 99.294204,114.29856 H 100.2942"
     id="path211" />
  <path
     style="fill:none;stroke:#000000;stroke-width:0.5"
     d="m 213.2942,113.79856 c 2.2915,1.22 -2.048,1.652 -3,2"
     id="path210" />
  <path
     style="fill:none;stroke:#000000;stroke-width:0.5"
     d="m 102.2942,113.79856 7.111,0.5 -7.111,0.4535 -22.999995,3.0465"
     id="path209" />
  <path
     style="fill:none;stroke:#000000;stroke-width:0.5"
     d="m 292.2942,113.29856 v 0.5"
     id="path208" />
  <path
     style="fill:none;stroke:#000000;stroke-width:0.5"
     d="m 277.7942,113.29856 h 1.5"
     id="path207" />
  <path
     style="fill:none;stroke:#000000;stroke-width:0.5"
     d="m 211.2942,113.29856 h 1"
     id="path206" />
  <path
     style="fill:none;stroke:#000000;stroke-width:0.5"
     d="m 208.2942,113.29856 2.5,0.5"
     id="path205" />
  <path
     style="fill:none;stroke:#000000;stroke-width:0.5"
     d="m 276.2942,112.79856 h 1"
     id="path204" />
  <path
     style="fill:none;stroke:#000000;stroke-width:0.5"
     d="m 282.7942,112.29856 h 1.5"
     id="path203" />
  <path
     style="fill:none;stroke:#000000;stroke-width:0.5"
     d="m 276.2942,113.79856 3.5,-1"
     id="path202" />
  <path
     style="fill:none;stroke:#000000;stroke-width:0.5"
     d="m 208.2942,112.29856 3.5,2"
     id="path201" />
  <path
     style="fill:none;stroke:#000000;stroke-width:0.5"
     d="m 282.2942,112.79856 c -1.8745,-0.204 -1.8745,-0.796 0,-1"
     id="path200" />
  <path
     style="fill:none;stroke:#000000;stroke-width:0.5"
     d="m 229.2942,111.79856 v 1"
     id="path199" />
  <path
     style="fill:none;stroke:#000000;stroke-width:0.5"
     d="m 281.2942,113.79856 3.5,-2.5"
     id="path198" />
  <path
     style="fill:none;stroke:#000000;stroke-width:0.5"
     d="m 275.2942,111.29856 -1,1.5"
     id="path197" />
  <path
     style="fill:none;stroke:#000000;stroke-width:0.5"
     d="m 260.7942,111.29856 v 0.5"
     id="path196" />
  <path
     style="fill:none;stroke:#000000;stroke-width:0.5"
     d="m 205.2942,111.29856 1.5,0.5"
     id="path195" />
  <path
     style="fill:none;stroke:#000000;stroke-width:0.5"
     d="m 287.2942,111.29856 4.5,-0.5"
     id="path194" />
  <path
     style="fill:none;stroke:#000000;stroke-width:0.5"
     d="m 274.7942,110.79856 1,1"
     id="path193" />
  <path
     style="fill:none;stroke:#000000;stroke-width:0.5"
     d="m 272.7942,112.29856 2.5,-2"
     id="path192" />
  <path
     style="fill:none;stroke:#000000;stroke-width:0.5"
     d="m 222.7942,111.29856 -4.5,2.5"
     id="path191" />
  <path
     style="fill:none;stroke:#000000;stroke-width:0.5"
     d="m 279.2942,110.29856 h 0.5"
     id="path189" />
  <path
     style="fill:none;stroke:#000000;stroke-width:0.5"
     d="m 266.7942,110.29856 h 1.5"
     id="path188" />
  <path
     style="fill:none;stroke:#000000;stroke-width:0.5"
     d="m 364.2942,110.79856 1.5,-1"
     id="path187" />
  <path
     style="fill:none;stroke:#000000;stroke-width:0.5"
     d="m 361.7942,109.79856 3,1.5"
     id="path186" />
  <path
     style="fill:none;stroke:#000000;stroke-width:0.5"
     d="m 286.7942,110.79856 7.5,-1"
     id="path185" />
  <path
     style="fill:none;stroke:#000000;stroke-width:0.5"
     d="m 260.2942,109.79856 -0.5,2.5"
     id="path184" />
  <path
     style="fill:none;stroke:#000000;stroke-width:0.5"
     d="m 295.2942,109.79856 3,-0.5"
     id="path183" />
  <path
     style="fill:none;stroke:#000000;stroke-width:0.5"
     d="m 294.7942,109.29856 v 1 -1"
     id="path182" />
  <path
     style="fill:none;stroke:#000000;stroke-width:0.5"
     d="m 276.7942,109.79856 1,-0.5"
     id="path181" />
  <path
     style="fill:none;stroke:#000000;stroke-width:0.5"
     d="m 229.2942,109.29856 v 1.5"
     id="path180" />
  <path
     style="fill:none;stroke:#000000;stroke-width:0.5"
     d="m 146.7942,109.29856 h 1"
     id="path179" />
  <path
     style="fill:none;stroke:#000000;stroke-width:0.5"
     d="m 370.2942,108.79856 h 1.5"
     id="path178" />
  <path
     style="fill:none;stroke:#000000;stroke-width:0.5"
     d="m 283.2942,108.79856 1.5,-0.5"
     id="path177" />
  <path
     style="fill:none;stroke:#000000;stroke-width:0.5"
     d="m 280.7942,108.79856 h 1"
     id="path176" />
  <path
     style="fill:none;stroke:#000000;stroke-width:0.5"
     d="m 276.7942,110.79856 2,-2"
     id="path175" />
  <path
     style="fill:none;stroke:#000000;stroke-width:0.5"
     d="m 365.7942,109.79856 4,-1.5"
     id="path174" />
  <path
     style="fill:none;stroke:#000000;stroke-width:0.5"
     d="m 322.2942,109.29856 2.5,-1"
     id="path173" />
  <path
     style="fill:none;stroke:#000000;stroke-width:0.5"
     d="m 281.7942,108.79856 -1,1"
     id="path172" />
  <path
     style="fill:none;stroke:#000000;stroke-width:0.5"
     d="m 363.7942,111.79856 8,-4"
     id="path171" />
  <path
     style="fill:none;stroke:#000000;stroke-width:0.5"
     d="m 321.2942,108.79856 -17,-0.0625 -5.111,0.5625 8.111,0.5 26,-2"
     id="path170" />
  <path
     style="fill:none;stroke:#000000;stroke-width:0.5"
     d="m 147.2942,107.79856 1,1"
     id="path169" />
  <path
     style="fill:none;stroke:#000000;stroke-width:0.5"
     d="m 399.2942,106.79856 c 4.82,1.438 10.0755,1.1225 15,0.5"
     id="path168" />
  <path
     style="fill:none;stroke:#000000;stroke-width:0.5"
     d="m 377.2942,106.29856 h 3"
     id="path167" />
  <path
     style="fill:none;stroke:#000000;stroke-width:0.5"
     d="m 380.2942,106.29856 13,-0.47 4.523,1.1345 -5.523,0.0415 -14,0.4815 -5.523,0.118 4.023,-0.8055"
     id="path166" />
  <path
     style="fill:none;stroke:#000000;stroke-width:0.5"
     d="m 267.7942,105.79856 c 0.6255,2.327 1.181,4.0315 3.5,5"
     id="path165" />
  <path
     style="fill:none;stroke:#000000;stroke-width:0.5"
     d="m 292.7942,104.29856 h 0.5"
     id="path163" />
  <path
     style="fill:none;stroke:#000000;stroke-width:0.5"
     d="m 185.2942,104.29856 14,4.802 5.5,1.698"
     id="path162" />
  <path
     style="fill:none;stroke:#000000;stroke-width:0.5"
     d="m 138.7942,104.29856 3.5,2"
     id="path161" />
  <path
     style="fill:none;stroke:#000000;stroke-width:0.5"
     d="m 293.2942,104.29856 1,-0.5"
     id="path160" />
  <path
     style="fill:none;stroke:#000000;stroke-width:0.5"
     d="m 182.7942,103.79856 h 1"
     id="path159" />
  <path
     style="fill:none;stroke:#000000;stroke-width:0.5"
     d="m 294.2942,103.79856 1.5,-0.5"
     id="path158" />
  <path
     style="fill:none;stroke:#000000;stroke-width:0.5"
     d="m 180.7942,102.79856 h 2"
     id="path157" />
  <path
     style="fill:none;stroke:#000000;stroke-width:0.5"
     d="m 297.7942,102.29856 h 0.5"
     id="path156" />
  <path
     style="fill:none;stroke:#000000;stroke-width:0.5"
     d="m 180.7942,102.79856 4,0.5"
     id="path155" />
  <path
     style="fill:none;stroke:#000000;stroke-width:0.5"
     d="m 135.2942,101.79856 9.456,6.0395 -1.956,-2.0395"
     id="path154" />
  <path
     style="fill:none;stroke:#000000;stroke-width:0.5"
     d="m 302.7942,101.29856 h 0.5"
     id="path153" />
  <path
     style="fill:none;stroke:#000000;stroke-width:0.5"
     d="m 178.2942,101.29856 c 2.0955,0.7585 1.391,1.4635 -0.5,1"
     id="path152" />
  <path
     style="fill:none;stroke:#000000;stroke-width:0.5"
     d="m 175.2942,101.29856 h 1"
     id="path151" />
  <path
     style="fill:none;stroke:#000000;stroke-width:0.5"
     d="m 285.2942,108.29856 c 3.255,-2.9045 14.123,-7.043 18.5,-7.5"
     id="path150" />
  <path
     style="fill:none;stroke:#000000;stroke-width:0.5"
     d="m 175.2942,100.29856 1.5,0.5"
     id="path149" />
  <path
     style="fill:none;stroke:#000000;stroke-width:0.5"
     d="m 172.2942,99.298555 c 2.7475,0.5745 1.835,1.791505 -0.5,0.5"
     id="path148" />
  <path
     style="fill:none;stroke:#000000;stroke-width:0.5"
     d="m 169.2942,98.298555 c 2.756,0.757 1.7965,1.883505 -0.5,0.5"
     id="path146" />
  <path
     style="fill:none;stroke:#000000;stroke-width:0.5"
     d="m 166.7942,98.298555 h 0.5"
     id="path145" />
  <path
     style="fill:none;stroke:#000000;stroke-width:0.5"
     d="m 80.794205,98.298555 h 1"
     id="path144" />
  <path
     style="fill:none;stroke:#000000;stroke-width:0.5"
     d="m 312.7942,97.79856 h 0.5"
     id="path143" />
  <path
     style="fill:none;stroke:#000000;stroke-width:0.5"
     d="m 113.7942,97.79856 19.5,4"
     id="path142" />
  <path
     style="fill:none;stroke:#000000;stroke-width:0.5"
     d="m 94.794204,98.798555 h -9.499999 l -2.611,-0.5 6.610999,-0.499995"
     id="path141" />
  <path
     style="fill:none;stroke:#000000;stroke-width:0.5"
     d="m 54.794205,97.79856 21,0.749995 4.3335,-0.499995 -0.8335,0.749995"
     id="path140" />
  <path
     style="fill:none;stroke:#000000;stroke-width:0.5"
     d="m 166.7942,97.29856 -2,0.5"
     id="path139" />
  <path
     style="fill:none;stroke:#000000;stroke-width:0.5"
     d="M 110.7942,97.29856 96.294204,98.298555"
     id="path138" />
  <path
     style="fill:none;stroke:#000000;stroke-width:0.5"
     d="m 51.794205,97.29856 h 1.5"
     id="path137" />
  <path
     style="fill:none;stroke:#000000;stroke-width:0.5"
     d="m 304.2942,99.798555 9.5,-2.499995"
     id="path136" />
  <path
     style="fill:none;stroke:#000000;stroke-width:0.5"
     d="m 165.7942,96.79856 2,1"
     id="path135" />
  <path
     style="fill:none;stroke:#000000;stroke-width:0.5"
     d="m 314.7942,97.29856 c -0.728,-0.7735 -0.4535,-0.6905 0.5,-0.5"
     id="path134" />
  <path
     style="fill:none;stroke:#000000;stroke-width:0.5"
     d="m 124.2942,96.29856 10,5"
     id="path133" />
  <path
     style="fill:none;stroke:#000000;stroke-width:0.5"
     d="m 161.2942,95.79856 c 3.414,0.42 3.624,1.783 0,1"
     id="path132" />
  <path
     style="fill:none;stroke:#000000;stroke-width:0.5"
     d="m 317.7942,96.29856 c -1.948,0.219 -1.561,-0.549 0,-1"
     id="path131" />
  <path
     style="fill:none;stroke:#000000;stroke-width:0.5"
     d="m 202.7942,95.29856 c 0.439,5.825 8.0425,9.3185 12.5,12 1.195,0.719 3.7725,3.0825 5.243,2.7045 1.409,-0.362 1.534,-3.5555 1.757,-4.7045"
     id="path130" />
  <path
     style="fill:none;stroke:#000000;stroke-width:0.5"
     d="m 320.7942,95.29856 c -1.932,0.5715 -2.576,-0.2185 -0.5,-1"
     id="path129" />
  <path
     style="fill:none;stroke:#000000;stroke-width:0.5"
     d="m 229.2942,114.29856 c 0.508,2.1935 3.688,10.765 -2.328,6.986 -1.7815,-1.119 -1.7405,-3.6795 -2.2765,-5.486 -2.8765,-9.6955 5.9065,-19.2945 15.1045,-22"
     id="path128" />
  <path
     style="fill:none;stroke:#000000;stroke-width:0.5"
     d="m 322.7942,93.79856 c -1.5455,0.9175 -2.1445,0.331 -0.5,-0.5"
     id="path127" />
  <path
     style="fill:none;stroke:#000000;stroke-width:0.5"
     d="m 287.7942,93.29856 c -0.781,5.747995 -6.7195,9.277 -11,12.3725 -1.789,1.294 -5.429,3.4535 -4.6885,6.1155 0.6335,2.2775 2.616,1.2345 3.6885,2.512"
     id="path126" />
  <path
     style="fill:none;stroke:#000000;stroke-width:0.5"
     d="m 249.2942,92.79856 c -0.1075,8.794 8.2525,20.234 1.653,28.403 -1.7135,2.1205 -3.895,1.662 -6.0185,2.669 -1.2195,0.5775 -1.8295,2.986 -0.1345,1.428"
     id="path125" />
  <path
     style="fill:none;stroke:#000000;stroke-width:0.5"
     d="m 144.2942,91.79856 c 4.0995,3.0035 9.759,10 7.1965,15.9185 -0.551,1.2725 -2.5585,0.9115 -2.893,1.9255 -1.075,3.259 0.097,4.48 -4.8035,5.071 -4.0795,0.492 -9.1195,-0.2875 -13,0.911 -0.87,0.2685 -3.472,1.3275 -3.472,2.4935 0,0.895 2.7235,-0.743 2.972,-0.855 3.4645,-1.5665 7.7975,-0.9585 11.5,-0.9645 4.24,-0.007 7.5345,-2.1635 11.5,-2.5885 10.549,-1.13 22.738,0.5885 33.5,0.5885"
     id="path124" />
  <path
     style="fill:none;stroke:#000000;stroke-width:0.5"
     d="m 234.7942,130.79856 c 0.214,-4.096 3.5325,-6.6695 3.9375,-10.53 0.252,-2.405 -1.753,-4.955 -1.8405,-7.47 -0.1805,-5.207 2.9495,-9.527 3.6785,-14.500005 0.2885,-1.968495 -0.995,-4.085995 0.796,-5.564995 3.5965,-2.969 9.036,-0.0235 12.4285,2.0115 2.198,1.319 4.2695,3.0495 6.0625,4.877495 2.5295,2.579005 5.508,6.034005 6.322,9.676005 0.5785,2.5905 -3.173,8.5075 -0.646,10.4675 1.047,0.8125 2.5085,0.264 3.6525,0.771 1.1095,0.4915 0.968,1.5845 2.109,1.7615"
     id="path123" />
  <path
     style="fill:none;stroke:#000000;stroke-width:0.5"
     d="m 363.7942,90.79856 -1,1"
     id="path121" />
  <path
     style="fill:none;stroke:#000000;stroke-width:0.5"
     d="m 404.2942,88.79856 h 7"
     id="path120" />
  <path
     style="fill:none;stroke:#000000;stroke-width:0.5"
     d="m 413.2942,89.29856 2,-1"
     id="path119" />
  <path
     style="fill:none;stroke:#000000;stroke-width:0.5"
     d="m 386.7942,88.29856 16,0.5"
     id="path118" />
  <path
     style="fill:none;stroke:#000000;stroke-width:0.5"
     d="m 223.7942,102.29856 c 5.4105,-7.0135 14.5335,-16.0225 24.5,-13.7355 7.22,1.657 13.2155,8.6815 17.5,14.2355"
     id="path117" />
  <path
     style="fill:none;stroke:#000000;stroke-width:0.5"
     d="m 365.2942,87.79856 -1,1"
     id="path116" />
  <path
     style="fill:none;stroke:#000000;stroke-width:0.5"
     d="m 112.7942,94.79856 c -1.5005,-2.1565 -0.829,-7.641 3.0005,-6.7695 3.024,0.6885 6.357,5.627 8.4995,7.7695"
     id="path115" />
  <path
     style="fill:none;stroke:#000000;stroke-width:0.5"
     d="m 367.7942,85.79856 -3,3.5"
     id="path114" />
  <path
     style="fill:none;stroke:#000000;stroke-width:0.5"
     d="m 350.7942,99.298555 c 14.0205,-9.894995 33.8045,-8.814495 50,-9.001995 13.4005,-0.155 27.0295,-1.874 40,-4.998"
     id="path113" />
  <path
     style="fill:none;stroke:#000000;stroke-width:0.5"
     d="m 367.7942,84.79856 h 1.5"
     id="path112" />
  <path
     style="fill:none;stroke:#000000;stroke-width:0.5"
     d="m 112.2942,97.79856 c -2.88,-2.2605 8.5645,-1.0275 9.9975,-0.862 0.773,0.0895 1.9595,0.1615 2.232,-0.8045 0.9455,-3.348 -5.743,-5.92 -4.406,-9.779 0.861,-2.485 4.136,-1.984 6.1765,-2.074 7.6815,-0.3395 10.987,2.1735 17,7.0195"
     id="path111" />
  <path
     style="fill:none;stroke:#000000;stroke-width:0.5"
     d="m 378.7942,82.29856 6.5,5.5"
     id="path110" />
  <path
     style="fill:none;stroke:#000000;stroke-width:0.5"
     d="m 349.7942,98.298555 c -2.316,0.7485 -7.1545,4.553505 -9.341,4.122505 -2.4895,-0.4905 -0.442,-6.598 -0.3885,-8.1225 0.2445,-6.952 5.27,-8.3585 10.21,-12.7195 1.9145,-1.6905 3.4035,-4.4645 6.0195,-5.1215 3.163,-0.7945 11.6585,-1.174 13.646,1.948 0.6705,1.053 -1.055,5.458 -0.7145,5.5775 0.999,0.35 2.847,-2.427 3.588,-2.9205 2.3715,-1.58 4.037,0.5175 5.4805,2.236"
     id="path109" />
  <path
     style="fill:none;stroke:#000000;stroke-width:0.5"
     d="m 226.7942,75.79856 c -1.7735,6.703 -3.1215,11.6115 -7,17.5"
     id="path108" />
  <path
     style="fill:none;stroke:#000000;stroke-width:0.5"
     d="m 261.7942,74.29856 8,18"
     id="path107" />
  <path
     style="fill:none;stroke:#000000;stroke-width:0.5"
     d="m 100.7942,74.29856 c 3.556,3.0965 8.151,6.974 13,7.5"
     id="path106" />
  <path
     style="fill:none;stroke:#000000;stroke-width:0.5"
     d="m 97.294204,72.79856 2.5,2.5"
     id="path105" />
  <path
     style="fill:none;stroke:#000000;stroke-width:0.5"
     d="m 254.2942,70.79856 c 8.1145,1.5685 21.2395,7.0005 18.153,17.5 -0.918,3.121 -2.187,8.2975 -3.8475,10.999995 -0.8325,1.355505 -3.106,2.718505 -2.3195,4.500005 1.185,2.683 3.305,0.192 4.514,-1 3.7195,-3.668005 8.2965,-6.7155 12.5,-9.8195 1.5975,-1.1795 4.5235,-0.6965 5,-1.6805"
     id="path104" />
  <path
     style="fill:none;stroke:#000000;stroke-width:0.5"
     d="m 237.7942,70.79856 c -0.916,1.7965 -1.9075,2.4635 -3.5,1"
     id="path103" />
  <path
     style="fill:none;stroke:#000000;stroke-width:0.5"
     d="m 247.2942,72.79856 3,-2.5"
     id="path102" />
  <path
     style="fill:none;stroke:#000000;stroke-width:0.5"
     d="m 237.7942,69.79856 3.5,3"
     id="path101" />
  <path
     style="fill:none;stroke:#000000;stroke-width:0.5"
     d="m 93.794204,69.29856 2,2.5"
     id="path100" />
  <path
     style="fill:none;stroke:#000000;stroke-width:0.5"
     d="m 125.2942,68.29856 2.457,7 2.2725,4.341 -3.7295,1.371 -11.5,1.288"
     id="path99" />
  <path
     style="fill:none;stroke:#000000;stroke-width:0.5"
     d="m 241.7942,67.29856 -3,1.5"
     id="path98" />
  <path
     style="fill:none;stroke:#000000;stroke-width:0.5"
     d="m 124.7942,66.79856 0.5,1.5"
     id="path97" />
  <path
     style="fill:none;stroke:#000000;stroke-width:0.5"
     d="m 92.294204,66.79856 1,1.5"
     id="path96" />
  <path
     style="fill:none;stroke:#000000;stroke-width:0.5"
     d="m 124.2942,65.29856 0.5,1.5"
     id="path95" />
  <path
     style="fill:none;stroke:#000000;stroke-width:0.5"
     d="m 258.7942,63.79856 -7.5,5"
     id="path94" />
  <path
     style="fill:none;stroke:#000000;stroke-width:0.5"
     d="m 123.7942,63.79856 c 2.205,2.882 2.6035,6.4235 4.3945,9.498 2.9515,5.066 8.3455,11.119 13.1055,14.54 3.9255,2.822 8.3525,4.4865 13,5.6485 1.4525,0.3635 5.053,0.6345 5.8965,2.046 0.3585,0.5995 -6.4555,0.6275 -7.095,1.9265 -1.052,2.137995 -0.2035,11.2925 0.808,13.287 1.9265,3.7975 8.952,2.5555 12.3905,2.554 12.866,-0.005 25.66,0.993 38.5,1"
     id="path93" />
  <path
     style="fill:none;stroke:#000000;stroke-width:0.5"
     d="m 89.294204,62.79856 2.5,3.5"
     id="path90" />
  <path
     style="fill:none;stroke:#000000;stroke-width:0.5"
     d="m 394.2942,61.79856 c -3.4155,7.6625 -11.658,8.9475 -16.7745,14.477 -1.5125,1.635 2.3005,7.914 0.971,10.884 -1.495,3.3395 -12.844,4.2755 -16.1965,5.139"
     id="path89" />
  <path
     style="fill:none;stroke:#000000;stroke-width:0.5"
     d="m 122.7942,61.79856 c 0.263,1.3855 0.7975,2.0335 1.5,0.5"
     id="path88" />
  <path
     style="fill:none;stroke:#000000;stroke-width:0.5"
     d="m 88.294204,61.79856 1,1"
     id="path87" />
  <path
     style="fill:none;stroke:#000000;stroke-width:0.5"
     d="m 222.7942,60.29856 v 1"
     id="path86" />
  <path
     style="fill:none;stroke:#000000;stroke-width:0.5"
     d="m 363.2942,59.29856 c -2.151,11.677 -14.5915,22.966 -24.5,28.3335 -3.398,1.8405 -8.2685,1.821 -12,3.583 -0.8185,0.3865 -4,0.993 -4,2.167 0,1.518 3.003,-0.1055 3.5,-0.3335 2.633,-1.2065 8.3815,-4.6675 10.9165,-1.75 2.218,2.553 -0.1455,6.2105 -0.4165,9 -0.1285,1.321 0.737,3.341 0.25,4.5 -0.353,0.8405 -3.7795,2.5295 -3.4165,3.3335 0.2645,0.586 4.1885,-0.5315 5.1665,-0.0835 6.2335,2.857 10.5675,3.7645 17.5,2.4165 0.796,-0.1545 4.9205,-0.17 5.1665,-0.75 0.623,-1.468 -4.0305,-1.4165 -4.6665,-1.4165 -3.443,0 -13.3145,2.6135 -15.25,-1.5 -1.0275,-2.183 3.3095,-4.203 4.75,-5.0835 1.9265,-1.177 2.8755,-2.934005 4.5,-4.1665 4.1655,-3.16 10.4355,-3.05 13.6665,-7.75 0.7695,-1.119 -1.626,0.223 -1.1665,0"
     id="path85" />
  <path
     style="fill:none;stroke:#000000;stroke-width:0.5"
     d="m 168.2942,59.29856 c 4.644,2.574 13.4545,1.154 17.131,5.2565 1.699,1.896 2.241,5.87 3.1935,8.2435 2.1095,5.2565 4.7085,10.854 7.9605,15.5 1.6665,2.3805 3.986,6.6305 7.215,6"
     id="path84" />
  <path
     style="fill:none;stroke:#000000;stroke-width:0.5"
     d="m 396.2942,58.79856 -1,2.5"
     id="path83" />
  <path
     style="fill:none;stroke:#000000;stroke-width:0.5"
     d="m 266.7942,58.79856 v 1.5"
     id="path82" />
  <path
     style="fill:none;stroke:#000000;stroke-width:0.5"
     d="m 395.7942,58.29856 -1.5,2.5"
     id="path81" />
  <path
     style="fill:none;stroke:#000000;stroke-width:0.5"
     d="m 160.2942,58.29856 c 2.214,1.48 6.1955,3.2835 8,0.5"
     id="path80" />
  <path
     style="fill:none;stroke:#000000;stroke-width:0.5"
     d="m 85.794205,58.29856 1.999999,2.5"
     id="path78" />
  <path
     style="fill:none;stroke:#000000;stroke-width:0.5"
     d="m 303.7942,59.79856 6,-2.5"
     id="path77" />
  <path
     style="fill:none;stroke:#000000;stroke-width:0.5"
     d="m 363.7942,57.29856 v 1.5"
     id="path76" />
  <path
     style="fill:none;stroke:#000000;stroke-width:0.5"
     d="m 209.7942,56.79856 c 2.2305,3.9305 15.6225,8.3655 19.5,6.5"
     id="path75" />
  <path
     style="fill:none;stroke:#000000;stroke-width:0.5"
     d="m 154.2942,56.79856 c 2.1635,1.428 4.0075,1.735 6.5,1"
     id="path74" />
  <path
     style="fill:none;stroke:#000000;stroke-width:0.5"
     d="m 397.2942,56.29856 c -1.003,1.3 -0.868,2.918 0,1"
     id="path73" />
  <path
     style="fill:none;stroke:#000000;stroke-width:0.5"
     d="m 302.7942,58.79856 c 2.273,6.6925 -5.123,19.3075 -8.4385,25 -0.6865,1.179 -4.091,7.154 -5.713,6.6845 -0.9525,-0.276 0.4215,-2.3145 0.6305,-2.685 1.4705,-2.602 2.8835,-5.262 4.09,-7.9995 4.3805,-9.936 2.787,-21.2385 15.931,-23.5"
     id="path72" />
  <path
     style="fill:none;stroke:#000000;stroke-width:0.5"
     d="m 278.7942,56.29856 c -2.923,3.1635 -6.7225,3.015 -10.4555,4.514 -1.4775,0.5935 -2.4775,1.9345 -4.052,2.3275 -2.7115,0.6765 -4.77,0.0145 -4.9925,-2.8415"
     id="path71" />
  <path
     style="fill:none;stroke:#000000;stroke-width:0.5"
     d="m 151.7942,55.79856 3,0.5"
     id="path70" />
  <path
     style="fill:none;stroke:#000000;stroke-width:0.5"
     d="m 364.7942,55.29856 -0.5,1.5"
     id="path69" />
  <path
     style="fill:none;stroke:#000000;stroke-width:0.5"
     d="m 398.2942,54.79856 v 1"
     id="path68" />
  <path
     style="fill:none;stroke:#000000;stroke-width:0.5"
     d="m 365.2942,53.29856 -1.5,1.5"
     id="path66" />
  <path
     style="fill:none;stroke:#000000;stroke-width:0.5"
     d="m 250.7942,69.29856 c 0.9355,0.002 4.005,0.674 2.276,2.1905 -1.76,1.544 -5.8855,-4.3825 -4.84,-6.185 4.113,-7.093 12.663,-4.921 19.064,-7.23 4.0015,-1.4435 6.418,-4.5405 11,-4.7755"
     id="path65" />
  <path
     style="fill:none;stroke:#000000;stroke-width:0.5"
     d="m 400.2942,53.29856 -0.5,0.5"
     id="path64" />
  <path
     style="fill:none;stroke:#000000;stroke-width:0.5"
     d="m 279.7942,109.29856 c -0.2305,-2.061 3.4165,-3.1305 5,-3.971 5.3105,-2.8195 10.335,-6.101005 15.5,-9.165 10.634,-6.309 21.9315,-12.395 32,-19.5775 11.094,-7.915 21.969,-17.8875 34.5,-23.2865"
     id="path63" />
  <path
     style="fill:none;stroke:#000000;stroke-width:0.5"
     d="m 199.7942,52.79856 c 2.5205,2.5455 7.2905,4.5465 10.5,2.5"
     id="path62" />
  <path
     style="fill:none;stroke:#000000;stroke-width:0.5"
     d="m 366.7942,53.29856 1,-1"
     id="path61" />
  <path
     style="fill:none;stroke:#000000;stroke-width:0.5"
     d="m 328.2942,51.79856 v 1"
     id="path60" />
  <path
     style="fill:none;stroke:#000000;stroke-width:0.5"
     d="m 145.7942,51.79856 c 1.426,2.36 3.197,4.0585 6,3"
     id="path59" />
  <path
     style="fill:none;stroke:#000000;stroke-width:0.5"
     d="m 333.2942,51.29856 c -3.2125,1.975 -8.832,3.7665 -12.5,2.5"
     id="path58" />
  <path
     style="fill:none;stroke:#000000;stroke-width:0.5"
     d="m 320.7942,53.29856 c -1.4245,2.4385 -4.928,2.4275 -7.5,3.0735 -0.4955,0.1245 -2.972,0.9675 -2.972,-0.1725 0,-1.598 3.8675,-2.2325 4.972,-2.546 5.5065,-1.5625 11.8195,-2.508 17.5,-3.355"
     id="path57" />
  <path
     style="fill:none;stroke:#000000;stroke-width:0.5"
     d="m 98.794204,50.29856 c 8.675496,5.387 19.430496,8.3815 28.499996,13.43 20.895,11.6315 40.872,24.8885 62.5,35.153495 7.4165,3.520005 14.366,8.071505 21.5,12.127005 1.325,0.753 6.9035,2.2505 6.2515,4.2445 -0.8245,2.5215 -5.468,1.3 -7.2515,0.8695 -7.0905,-1.712 -15.207,-0.943 -22.5,-1.8245"
     id="path56" />
  <path
     style="fill:none;stroke:#000000;stroke-width:0.5"
     d="m 403.2942,48.79856 c -0.561,0.726 -2.705,4.435 -2,1.5"
     id="path55" />
  <path
     style="fill:none;stroke:#000000;stroke-width:0.5"
     d="m 189.7942,48.79856 c 2.258,1.8505 7.8105,5.3745 10,2"
     id="path54" />
  <path
     style="fill:none;stroke:#000000;stroke-width:0.5"
     d="m 289.7942,51.29856 c -1.2345,0.9965 -9.1715,6.161 -10.182,3.341 -1.138,-3.1745 7.5645,-6.0235 9.682,-6.341"
     id="path53" />
  <path
     style="fill:none;stroke:#000000;stroke-width:0.5"
     d="m 143.7942,48.29856 c 0.8265,1.5095 1.2725,2.131 3,2"
     id="path52" />
  <path
     style="fill:none;stroke:#000000;stroke-width:0.5"
     d="m 78.294205,48.29856 7.5,9.5"
     id="path51" />
  <path
     style="fill:none;stroke:#000000;stroke-width:0.5"
     d="m 230.2942,61.29856 c 0.1465,5.2255 5.92,3.3465 7.3965,7.0905 0.5095,1.292 -2.8135,1.888 -3.6085,2.3715 -4.142,2.5185 -9.5575,3.9895 -13.2805,6.817 -7.485,5.684 -3.1245,12.0385 -1.0945,18.721 0.4055,1.334 3.898,7.954 2.425,7.9815 -2.0625,0.038 -6.0025,-4.783005 -7.838,-5.954505 -3.5465,-2.263495 -10.2095,-3.893995 -12.6935,-7.043995 -4.1535,-5.2665 -5.9095,-13.2915 -8.3045,-19.483 -0.7665,-1.9815 -0.9565,-4.6535 -2.3535,-6.305 -7.2485,-8.5675 -22.4775,-6.5815 -32.1485,-9.009 -3.0535,-0.7665 -15.322,-4.0765 -10,-8.686"
     id="path50" />
  <path
     style="fill:none;stroke:#000000;stroke-width:0.5"
     d="m 403.2942,47.29856 c 0.1815,1.496 0.603,1.31 1,0"
     id="path49" />
  <path
     style="fill:none;stroke:#000000;stroke-width:0.5"
     d="m 181.7942,46.29856 c 2.3845,1.6295 7.752,4.482 8.5,0"
     id="path48" />
  <path
     style="fill:none;stroke:#000000;stroke-width:0.5"
     d="m 77.794205,47.79856 c 0.1685,0.076 -1.87,-0.811 -0.778,-0.986 2.3875,-0.3825 5.8525,5.3705 6.9445,6.986 5.119999,7.575 10.605999,15.823 16.902995,22.3055 2.2965,2.364 5.5285,4.294 8.4305,5.8055 0.962,0.501 3.198,1.172 3.472,2.389 0.245,1.0875 -2.303,3.478 -2.847,4.5 -0.913,1.715 -1.32,4.5095 -2.778,5.8335 -3.0215,2.744 -12.898496,2.6665 -16.846996,2.6665"
     id="path47" />
  <path
     style="fill:none;stroke:#000000;stroke-width:0.5"
     d="m 342.2942,45.79856 -5,3.5"
     id="path46" />
  <path
     style="fill:none;stroke:#000000;stroke-width:0.5"
     d="m 189.7942,45.79856 c 3.4395,0.7135 5.829,2.637 9,3.903 5.21,2.0795 10.783,3.61 16,5.811 2.269,0.9575 4.622,3.2895 7,3.691 4.1305,0.6975 10.2305,0.086 13.9925,2.0145 2.4345,1.248 3.371,4.38 5.6505,5.495 1.0305,0.504 3.0785,-1.272 3.7555,-0.1405 0.8975,1.4995 -2.086,0.8325 -2.3985,0.726"
     id="path45" />
  <path
     style="fill:none;stroke:#000000;stroke-width:0.5"
     d="m 405.7942,45.29856 -0.5,0.5"
     id="path44" />
  <path
     style="fill:none;stroke:#000000;stroke-width:0.5"
     d="m 299.2942,46.79856 c -1.261,1.1315 -8.627,6.5385 -9.624,2.9385 -0.8325,-3.004 6.1655,-4.776 8.124,-5.4385"
     id="path43" />
  <path
     style="fill:none;stroke:#000000;stroke-width:0.5"
     d="m 405.2942,43.79856 v 0.5"
     id="path42" />
  <path
     style="fill:none;stroke:#000000;stroke-width:0.5"
     d="m 341.2942,43.79856 -6.8665,6.847 1.8665,-1.847"
     id="path41" />
  <path
     style="fill:none;stroke:#000000;stroke-width:0.5"
     d="m 153.7942,124.79856 c 0.6625,-0.42 4.278,-1.9945 4.278,0.0695 0,1.611 -8.522,0.942 -9.778,0.9305 -5.6845,-0.0525 -11.342,-1.843 -17,-2 -5.1555,-0.143 -10.2865,1.5 -15.5,1.5 -13.5485,0 -28.742996,3.853 -41.999995,0.5695 -8.087,-2.003 -14.9155,-7.063 -21,-12.528 -14.2935,-12.8375 -30.381,-32.131 -23.653,-53.0415 5.9745,-18.5685 35.706,-17.3805 50.653,-15.028 4.796,0.755 9.336499,2.302 13.999999,3.5975 1.4745,0.4095 4.7905,2.5055 4.5,-0.0695"
     id="path40" />
  <path
     style="fill:none;stroke:#000000;stroke-width:0.5"
     d="m 306.7942,42.79856 v 1.5"
     id="path38" />
  <path
     style="fill:none;stroke:#000000;stroke-width:0.5"
     d="m 174.2942,42.79856 -1,1"
     id="path37" />
  <path
     style="fill:none;stroke:#000000;stroke-width:0.5"
     d="m 165.2942,42.79856 c 1.9865,1.505 4.2,0.6225 6.5,1.1565 2.4535,0.57 9.1315,5.1045 10,0.3435"
     id="path36" />
  <path
     style="fill:none;stroke:#000000;stroke-width:0.5"
     d="m 406.7942,41.79856 -0.5,2"
     id="path35" />
  <path
     style="fill:none;stroke:#000000;stroke-width:0.5"
     d="m 340.2942,41.79856 c 1.473,2.4985 2.8165,3.224 4.5,0.5"
     id="path34" />
  <path
     style="fill:none;stroke:#000000;stroke-width:0.5"
     d="m 156.2942,40.79856 c 2.6955,1.941 5.9385,2.2835 9,1"
     id="path33" />
  <path
     style="fill:none;stroke:#000000;stroke-width:0.5"
     d="m 142.2942,41.79856 5.5,-1"
     id="path32" />
  <path
     style="fill:none;stroke:#000000;stroke-width:0.5"
     d="m 148.2942,39.29856 c 1.599,2.737 6.806,2.6225 8.5,0"
     id="path31" />
  <path
     style="fill:none;stroke:#000000;stroke-width:0.5"
     d="m 323.7942,38.29856 v 1"
     id="path29" />
  <path
     style="fill:none;stroke:#000000;stroke-width:0.5"
     d="m 142.2942,38.79856 c -3.754,0.71 -7.31,0.793 -11,2 -0.9005,0.2945 -4.2165,1.842 -1.9445,2.8335 2.4255,1.0585 9.2505,-0.5835 11.389,-1.9725 1.263,-0.8205 1.1305,-2.6265 2.597,-3.1945 2.215,-0.857 7.521,-0.373 9.9585,-0.125 10.174,1.0365 19.799,4.6545 30,5.528 1.252,0.107 6.7945,1.441 5,1.9305"
     id="path28" />
  <path
     style="fill:none;stroke:#000000;stroke-width:0.5"
     d="m 409.7942,37.79856 -2.5,4.5"
     id="path27" />
  <path
     style="fill:none;stroke:#000000;stroke-width:0.5"
     d="m 410.7942,37.29856 -4.567,6.7405 -1.924,2.417 0.491,-1.1575"
     id="path26" />
  <path
     style="fill:none;stroke:#000000;stroke-width:0.5"
     d="m 332.7942,35.79856 v 1.5"
     id="path25" />
  <path
     style="fill:none;stroke:#000000;stroke-width:0.5"
     d="m 347.2942,35.29856 v 1.5"
     id="path24" />
  <path
     style="fill:none;stroke:#000000;stroke-width:0.5"
     d="m 340.7942,35.29856 v 1.5"
     id="path23" />
  <path
     style="fill:none;stroke:#000000;stroke-width:0.5"
     d="m 315.2942,39.29856 c 6.7205,-2.5055 15.3015,-4.425 22.5,-4.8825 3.8085,-0.2425 7.7265,0.8155 11.5,0.575 1.1675,-0.0745 11.559,0.351 10.3965,2.5725 -1.4685,2.807 -11.4835,-0.415 -13.8965,-0.3555 -9.8015,0.2415 -18.5165,3.3775 -27.9975,4.3665 -2.147,0.2245 -2.717,-1.5125 -4.574,-1.6555 -2.6495,-0.2045 -6.7545,1.657 -9.4285,2.209 -1.379,0.2845 -7.613,3.641 -3.431,4.561 3.3315,0.733 11.809,-2.8845 14.431,-4.8905"
     id="path22" />
  <path
     style="fill:none;stroke:#000000;stroke-width:0.5"
     d="m 394.2942,61.79856 c -1.5665,-0.841 -6.584,4.883 -8,5.9925 -7.0255,5.505 -10.844,6.906 -19.5,6.527 -1.977,-0.0865 -5.6625,0.7005 -7.189,-0.8905 -1.8485,-1.927 1.8965,-5.9065 2.7965,-7.629 3.7985,-7.2685 3.319,-12.806 11.3925,-17.0555 18.1765,-9.5675 41.81,-18.188 62.5,-13.775 8.89,1.896 16.97,3.855 21.9,12.3305 3.61,6.205 3.355,14.7275 2,21.5 -3.685,18.414 -18.57,33.813 -34.4,43.1975 -3.276,1.9425 -6.8105,3.8085 -10.5,4.795 -2.1485,0.574 -5.317,0.3465 -7.182,1.656 -0.6425,0.451 3.2785,2.971 3.328,4.359 0.0985,2.78 -2.941,6.1245 -4.691,7.9905 -7.831,8.35 -20.3845,11.3055 -30.955,14.3565 -7.95,2.295 -16.1145,5.056 -24.5,5.056 -13.6545,0 -27.3105,-4.334 -40,-8.8855 -3.7505,-1.345 -7.488,-2.4675 -11,-4.3635 -1.001,-0.5405 -2.988,-1.9195 -4.191,-1.383 -1.3695,0.6105 -0.195,4.153 -0.016,5.2215 0.8485,5.0595 2.0355,9.96 2.707,15"
     id="path21" />
</svg>
