<svg version="1.1" xmlns="http://www.w3.org/2000/svg" xmlns:xlink="http://www.w3.org/1999/xlink" width="420" height="298" viewBox="0 0 420 298"><g><g><g/><path d="M197.38043,146.72026l1.66713,2.16228l-1.82889,2.72341l-5.5673,-0.90731l4.39731,-6.92277l11.07889,-4.67538l4.41161,7.11898l1.36613,13.15632l-9.68546,8.26328l-18.91841,-12.16672l-1.25248,-11.66316l16.08641,-18.15253l16.12355,2.16211l7.9287,11.04424l5.2751,11.62938l-2.2969,17.28111l-7.53664,9.7238l-13.5949,3.41288l-18.78391,-10.03925l-10.64371,-8.52901l-2.15347,-10.15066l3.04938,-21.07117l13.04723,-8.29119l19.3442,-9.86108l12.92701,5.19285l7.96427,8.37964l9.08235,7.69775l5.11008,16.82805l-5.33236,10.19834l-8.51388,15.36118l-8.36211,13.22922l-11.35884,4.62188l-19.05745,-7.76791l-16.03589,0.27532l-10.66505,-14.45291l-2.45794,-9.38573l-1.38905,-16.57565l4.74853,-25.08692l12.2171,-10.41272l14.43492,-2.91903l18.62188,-10.2626l12.15255,6.43607l13.35868,4.10584l11.35769,4.43169l1.47765,17.53921l10.70152,19.69058l-5.68173,10.65846l-4.48638,10.91854l-6.70792,16.87207l-14.1697,7.77472l-10.81417,5.9898l-15.95517,-0.34054l-15.98767,0.79621l-12.09422,-5.30897l-11.02546,-12.29836l-9.93554,-14.31732l0.45229,-16.7984l-0.01856,-14.35476l-0.24876,-14.77274l11.01729,-21.18429l8.15034,-7.93197l17.18229,-5.15787l13.08194,-4.5661l13.16053,1.66358l16.10852,3.51368l9.44147,8.22126l13.3602,3.83189l9.71849,25.94095l6.7021,15.16747l3.18065,16.71584l-0.73093,12.11945l-12.12464,7.26659l-7.80041,13.9981l-17.04569,13.32622l-8.03246,2.90106l-16.5483,5.91137l-15.83613,1.77398l-12.81788,-4.50517l-18.75019,-5.21113l-6.34975,-10.05676l-9.98057,-17.10621l-2.35737,-13.09093l-2.6814,-16.22468l-0.36247,-11.60997l1.66404,-6.31138l1.73543,-16.69431l8.10181,-22.26596l5.93771,-10.72729l16.67717,-3.46188l13.12078,-6.53532l16.47968,-2.19034l14.64151,-2.432l13.36846,14.30619l11.86955,7.44043l13.06402,2.49344l13.23363,12.22478l9.18917,23.73887l4.35224,16.51967l0.73689,12.90965l-2.36701,19.51285l-7.92273,6.21486l-12.2216,8.86388l-12.07487,16.22677l-12.69088,14.45754l-13.58292,0.9425l-15.28095,3.21265l-12.54049,5.02213l-15.77286,-9.28053l-13.86451,-1.29524l-13.57636,-7.32325l-10.73417,-14.20638l-3.9139,-19.34915l-6.6555,-11.6285l-3.19771,-9.67491l2.64731,-14.5611l-3.40897,-9.51601l1.99154,-11.50515l6.38836,-12.75284l3.94518,-13.16807l11.56107,-15.87994l11.36742,-6.66514l10.86332,-5.66062l16.19305,-8.93212l17.15354,-4.78643l11.55851,-1.03193l14.85838,12.71516l16.28359,9.06846l13.69884,7.70984l12.97529,7.91851l4.74797,11.98366l7.60617,18.43862l7.91776,18.31403l4.40447,16.04794l-7.65258,17.10829l-7.23979,11.98689l-5.63932,10.04482l-8.85649,8.27865l-10.11947,11.9314l-15.04294,13.85919l-15.33006,4.2457l-13.29624,0.91442l-11.95498,6.96962l-17.13863,-8.75562l-15.2191,1.69792l-14.25904,-3.29854l-5.35664,-5.04688l-13.1344,-18.131l-8.49374,-14.96299l-13.56579,-17.92085l-2.53016,-5.44179l1.14657,-13.59666l2.82884,-14.08133l-5.12685,-14.43464l-0.55683,-10.11879l7.07129,-11.72668l16.96804,-9.44641l5.49166,-15.44365l12.89357,-12.5322l3.9022,-8.04869l15.94664,-5.58615l15.39305,-7.22194l15.92705,2.15071l13.73351,0.38287l14.44407,6.09062l12.92788,8.24266l25.89258,7.44867l9.03944,2.36185l11.84208,12.74778l-2.35001,12.2167l4.2991,14.27983l11.21123,19.56138l6.36504,12.29084l-1.97,17.75666l-11.79283,7.65837l-7.45247,16.70661l3.72094,12.3923l-4.59573,12.22189l-13.41887,13.89249l-17.5227,9.04115l-18.5569,6.99238l-13.47751,3.6686l-15.18649,-2.43558l-13.20029,1.53799l-14.76056,-2.50873l-16.87693,5.20473l-12.6563,-2.322l-5.93999,-6.731l-9.05244,-10.30663l-7.35818,-16.8946l-16.97078,-13.45956l-13.64956,-13.53923l-1.26417,-14.44078l2.17745,-12.2246l0.13415,-14.40244l-0.54168,-17.42294l-4.28751,-17.9736l4.92975,-8.26513l15.59688,-11.94891l13.58034,-11.80219l8.10285,-11.52312l6.34139,-3.70036l8.34212,-8.38943l14.75258,-12.07325l12.96314,-1.30235l16.1116,7.67946l10.57214,-5.91375l19.19437,3.1927l17.05572,4.93862l12.68522,5.18447l20.87666,3.44216l13.70648,10.79492l9.08189,9.44114l1.06315,15.45863l3.99152,2.87588l8.51387,17.51877l3.83895,13.69435l1.27711,11.96141l-0.90118,21.06405l-4.74525,12.97828l-8.80148,16.25848l-0.3098,14.92565l-5.55725,15.61096l-8.94093,14.1194l-16.95866,2.46442l-17.8759,6.45611l-9.91483,11.48953l-19.8352,3.10516l-17.26959,-4.81385l-10.63807,1.86839l-18.71087,2.06298l-10.60196,3.11801l-12.94431,-3.53602l-11.83277,-5.43499l-10.68497,-7.72797l-5.40165,-14.32581l-12.64523,-9.79154l-10.72257,-13.18523l-6.1784,-19.79287l-6.78115,-16.66642l-6.18514,-7.89782l-0.76292,-10.62359l0.42554,-19.86031l2.93745,-21.17752l9.46659,-12.31517l1.24879,-15.7328l7.95858,-8.45888l10.83581,-9.38l8.58435,-12.56971l5.36452,-2.57103l16.46046,-5.39561l17.24125,-12.70074l6.2927,-2.0665l14.45739,4.48437l17.27312,-4.08888l10.47804,3.66629l20.4435,3.90143l16.27472,4.46704l11.51154,-1.04567l10.12335,3.97186l19.54735,10.64976l11.61227,7.80233l5.83259,16.95474l7.48313,8.98683l15.22567,13.37765l-4.31835,12.8345l0.74909,12.12547l2.16856,9.78013l-3.21904,26.23602l3.96686,18.88469l-6.2961,11.3969l-8.63191,8.9826l-9.04121,10.63949l-4.66185,14.85786l-18.12365,12.02087l-16.48727,3.53218l-8.66789,13.33423l-10.49316,12.38813l-7.73639,1.60695M230.92612,273l-12.4302,-2.43445l-13.07071,-1.53697l-15.39561,-0.62295l-8.72954,4.59438M166.01496,273l-17.88436,-6.07565l-16.04993,-8.73689l-12.20429,-8.09754l0.24698,-11.62318l-12.14717,-15.77521l-9.48165,-8.24328l-10.64073,-20.7812l5.37817,-15.51696l-9.98458,-9.11659l-7.54875,-7.62284l4.55148,-14.26342l-4.14367,-17.07677l10.74787,-21.97083l3.44687,-14.3403l-2.77765,-12.2555l15.76149,-9.96529l7.09909,-9.83171l9.71355,-9.29733l1.58604,-10.60394l14.09912,-2.25062l15.64064,-11.36139l4.9152,-3.19358M247.7269,25l8.35166,4.81869l8.35325,-1.34136l10.27777,-3.47733M277.19744,25l14.33476,9.81523l19.94944,15.64356l8.09334,11.41487l9.35546,18.63778l2.19529,11.68673l12.81212,9.06064l2.0882,16.91127l-1.28256,15.13349l2.18055,6.05215l-1.84871,21.84366l1.07501,15.49685l-1.27645,15.63711l-10.54509,9.40282l-3.01932,6.68548l-8.61684,17.04121l-9.12813,12.61739l-17.61284,10.07106l-16.39003,6.21446l-10.17919,11.90579l-4.84246,6.72846M132.43066,273l-8.67736,-4.01905l-9.30654,-9.18693l-5.40936,-3.44443l-9.50517,-20.55827l-4.77539,-8.94823l-11.7149,-14.99631l-3.57281,-15.90434l-4.07004,-13.3104l-12.96952,-8.2496l0.38745,-16.25519l-1.07779,-14.19657l-0.34962,-15.62162l10.05437,-20.77135l6.34977,-15.31038l3.97897,-16.35367l9.01456,-6.60152l6.36445,-17.22009l5.40789,-5.37456l6.66973,-6.2437l8.20665,-8.93624l16.26038,-6.49754M299.13884,25l4.60563,4.22431l11.50528,21.24709l14.86946,13.02414l11.57682,9.55129l6.11293,15.99893l6.46339,15.35245l1.99148,12.95818l-2.18717,15.92573l-0.65101,5.38879l-0.04792,12.19328l1.27321,24.12324l2.67091,9.74787l-2.62667,13.02014l-4.52043,13.37492l-6.1701,8.31036l-12.14244,13.3857l-15.97544,11.73179l-10.2752,11.10392l-12.1244,5.07845l-16.59842,11.9l-0.20564,0.35942M110.98192,273l-0.06104,-0.05146l-11.95881,-6.03367l-12.81858,-10.18942l-2.76655,-15.26576l-1.51885,-9.5813l-7.76075,-13.00699l-10.20354,-14.43834l-5.67263,-9.68435l-8.49923,-18.63135l-3.99105,-22.8175l2.55967,-13.92992l-4.13288,-13.10655l8.56683,-7.20463l3.80822,-13.97539l11.99534,-25.9616l10.73976,-19.14945l-0.52473,-9.96985l2.00366,-13.2559l10.5961,-6.02352l9.51374,-4.43163l1.98162,-1.29144M306.5646,25l2.64876,3.27859l10.01136,16.43281l11.62366,9.53659l18.01334,7.28961l9.55945,14.34512l5.19626,18.37681l-1.92142,14.55908l2.86156,12.05791l-1.7625,12.83605l6.29538,3.2703l-3.72344,23.64594l-1.17355,21.68029l2.23594,7.08977l-1.94704,16.54846l-2.83157,11.56932l-2.22607,8.57093l-14.99544,11.63066l-18.69687,10.48453l-9.47671,16.17475l-8.54274,3.89291l-4.70225,4.72957M85.37341,273l-0.02252,-0.01725l-11.68741,-10.24651l0.45299,-15.32357l-4.49189,-6.1276l-10.61337,-11.3783l-7.06452,-20.73809l-8.1088,-6.06488l-7.17269,-18.28725l-2.25169,-20.78711l2.87791,-14.46659l-3.29119,-18.91746l0.8968,-6.45886l6.2298,-9.28721l7.14675,-18.58133l5.11259,-25.86383l11.00818,-17.21308l8.4359,-9.80268l-2.87215,-13.01181l3.82738,-5.42659M318.93392,25l4.23859,5.89001l10.63601,10.18616l20.50657,7.2244l5.46266,14.27824l5.43189,15.31014l7.37888,12.97117l1.06492,16.45223l2.5236,15.89086l2.88335,10.70482l4.31434,4.87908l1.04307,16.81696l-5.84421,20.21501l-1.39686,14.14603l-2.52476,15.9276l-3.04303,7.65474l-7.2953,13.69987l-5.58207,12.65728l-10.4452,9.11634l-16.56736,11.88326l-5.12304,12.09583M67.24875,273l-1.76506,-2.09575l-0.68625,-21.12933l-8.03944,-3.48043l-10.03086,-7.12525l-7.66854,-15.75912l-5.33631,-21.28154l-6.49346,-8.58946l-2.22884,-15.52015M25,170.45037l2.77774,-10.22574l0.74323,-12.65526l-3.52097,-11.49675M25,120.77824l4.4105,-13.67301l5.43199,-21.94259l6.7406,-19.18999l7.92125,-13.1169l9.67242,-8.82829l5.46413,-15.50553l0.86438,-3.52194M336.66092,25l1.52737,2.78587l16.23216,13.31334l12.29698,8.40447l3.98283,8.24424l4.99802,13.51017l6.42726,10.14712l5.38759,10.69617l0.75631,18.29608l6.46818,12.52739l0.26237,0.5244M395,164.30851l-4.47236,17.52496l-1.64986,16.39064l-4.08858,13.78876l-6.95309,8.62836l-4.51861,16.47547l-1.49177,16.19737l-8.45746,6.57492l-17.51978,13.11101M64.91147,273l1.81485,-14.10446l-9.2872,-9.78096l-17.98604,-1.94859l-10.10637,-5.7219l-4.34672,-13.76591M25,61.60389l10.10744,-9.98066l13.24858,-3.37432l14.41596,-20.01975l0.67449,-3.22915M359.75071,25l13.15366,11.24425l11.04567,9.14439l-2.06577,4.32504l5.81899,5.8538l0.38663,15.04213l4.55853,10.89333l2.35159,2.94589M395,203.71854l-5.68794,8.57558l-2.51399,13.22217l0.71317,20.57875l-0.51578,11.14342l-8.67817,13.99536l-2.8048,1.76618M57.72308,273l-1.8285,-11.8272l-14.04171,-9.75097l-12.36463,-2.21431l-4.48824,-2.01473M25,51.03052l5.37983,-3.02586l11.90226,-11.94879l6.86747,-11.05587M382.97638,25l7.09731,7.07849l1.55427,11.23767l2.3284,10.10071l1.04365,5.88938M395,250.49829l-2.79665,13.64335l-1.47998,8.85836M41.40719,273l-1.76075,-6.39166l-12.82051,-5.39502l-1.82593,-1.50996M25,33.3848l2.67044,-2.91754l4.04951,-5.46726M392.9456,25l2.0544,3.59316" fill="none" stroke="rgb(0,0,0)" stroke-width="2" data-clipped="true"/></g></g></svg>