<svg version="1.1" xmlns="http://www.w3.org/2000/svg" xmlns:xlink="http://www.w3.org/1999/xlink" width="420" height="298" viewBox="0 0 420 298"><g><g><g/><path d="M191.2498,145.62041l2.08236,2.26826l-1.21223,3.2297l-6.28135,0.26939l5.79203,-6.9013l12.27931,-5.60413l2.62823,7.07022l3.1077,13.43494l-7.78174,9.6514l-21.89745,-13.82396l-1.24554,-9.94002l18.96464,-21.34261l16.59324,4.00874l5.62514,12.3566l5.33743,10.35667l-1.47359,18.5494l-5.68386,9.60313l-12.94575,3.89437l-21.03767,-12.17621l-11.20184,-6.97021l-1.90197,-7.88974l2.33944,-24.2549l14.24244,-7.08606l21.79439,-12.151l11.92685,6.95452l5.55289,8.7284l9.24577,5.499l6.0741,17.81671l-6.48076,8.002l-8.57785,16.71458l-6.39391,15.51251l-9.75351,5.27888l-21.0511,-10.37784l-17.44727,3.9776l-11.15732,-15.82813l-1.21806,-7.08868l-2.08552,-17.30116l4.58121,-30.3092l13.52578,-9.79934l15.23407,-0.49806l20.5232,-13.51025l10.79469,8.87641l13.13462,3.22801l11.37293,1.81237l-1.53512,19.76683l14.122,22.11504l-7.94531,8.57493l-4.09227,9.40875l-5.53374,19.23564l-15.1125,7.2839l-9.19825,6.4731l-16.40289,-0.88416l-16.62813,2.80599l-11.59062,-4.35617l-11.19862,-13.10914l-11.14289,-14.90725l2.41421,-17.85623l-0.18842,-14.03094l-2.40622,-14.94234l12.52801,-25.18606l6.8396,-6.76913l19.09967,-4.16062l12.36744,-4.99131l12.26562,2.41404l16.8607,3.36318l7.67139,8.66469l14.50866,0.74477l10.47585,32.30314l7.58667,15.61841l4.07367,17.55006l0.00707,10.81086l-15.19429,4.0928l-7.32416,14.86549l-19.75436,15.00706l-5.49628,0.97577l-17.49655,6.97205l-16.22479,2.484l-11.91712,-5.17417l-21.19829,-4.68049l-3.70349,-10.46873l-10.18372,-19.74222l-0.24427,-12.93834l-2.20107,-17.01837l-0.32567,-9.98027l1.11728,-2.2712l-0.25782,-18.07137l7.8116,-27.0603l3.46806,-11.01711l18.44449,-1.50212l12.56856,-7.42377l17.21809,-2.46906l14.49626,-4.31946l12.91596,18.97033l11.28996,7.46772l13.90411,-1.04308l15.22247,12.34693l10.48327,28.61213l4.6915,17.4512l0.76811,11.90747l-2.39397,21.74716l-9.23128,2.44574l-14.31406,6.97805l-12.97578,18.71089l-12.95609,17.14047l-13.56764,-1.63922l-15.61689,3.0228l-11.36449,7.06113l-16.20466,-12.71185l-13.70262,0.41951l-13.83761,-7.25444l-10.41572,-16.32513l-1.30129,-22.99274l-6.47358,-10.8447l-2.59258,-7.44431l4.74995,-14.39184l-5.52326,-6.90139l1.16183,-10.05024l6.4283,-12.33377l1.68839,-13.59987l11.95887,-18.45007l10.85549,-5.82886l9.48794,-5.46967l16.95639,-11.51917l18.18837,-6.65226l9.95506,-2.37165l15.09224,16.71217l17.66897,10.15278l14.51178,7.07995l14.27728,6.45923l3.09442,11.70093l8.41207,20.65792l10.04471,20.08632l6.06736,16.55576l-10.53169,18.15216l-8.72437,10.81665l-5.22268,8.37823l-8.9357,6.38249l-9.88135,12.56051l-16.38404,16.32813l-16.19886,3.14714l-12.76358,-0.66441l-10.54276,9.45097l-18.16253,-12.61186l-15.47605,4.01117l-14.39587,-2.24941l-1.75179,-3.78245l-13.92673,-22.17376l-7.88589,-16.66517l-16.32201,-20.35741l-1.04025,-1.3912l3.29718,-13.10034l4.64904,-13.65102l-8.25452,-14.18998l-2.62097,-8.00693l7.58206,-10.75419l21.2137,-7.91626l3.34923,-17.46239l13.51184,-13.96874l-0.4212,-8.25972l16.89427,-5.62345l15.749,-9.1058l16.38016,3.65101l13.15015,-0.06845l14.38208,7.28141l12.48538,9.41885l32.14874,7.26907l7.87408,-1.13685l12.78032,13.43937l-7.33017,12.00357l3.45322,14.54253l14.68821,21.98929l8.58069,11.03768l-2.66889,19.07378l-16.12638,4.26166l-8.67899,17.90875l8.81507,11.95078l-2.5775,12.25642l-14.8129,15.40809l-20.1827,9.02736l-21.13952,6.8804l-13.19477,2.91988l-15.429,-5.10036l-12.34971,1.80575l-14.66374,-3.13728l-17.94911,9.28949l-12.01151,-0.84864l-2.52202,-6.43399l-7.68922,-10.86209l-5.86549,-19.83483l-20.85615,-14.09733l-16.81056,-13.67433l0.56895,-14.59504l4.68102,-11.04289l0.65847,-14.12662l-1.34906,-18.59792l-7.88143,-19.55888l4.78181,-5.49086l19.63956,-11.35022l15.81603,-11.66822l6.96047,-11.90047l3.69623,-1.07786l6.10336,-8.83283l15.14872,-15.16736l12.19921,-0.18238l16.68069,12.12748l8.45286,-8.94648l21.29317,3.54179l18.35681,5.17346l12.24681,4.62909l24.8249,1.20352l14.80339,11.29568l8.64251,8.60373l-2.45112,16.9067l2.70836,-2.17813l10.27925,19.09971l4.29312,13.19988l1.45295,10.51708l-0.81479,23.97865l-5.55629,12.15685l-10.63906,17.25931l2.78392,15.65966l-4.16122,17.15328l-8.42286,15.5298l-19.6187,-1.02762l-20.41264,5.62297l-8.18554,13.87842l-22.50229,2.34955l-18.47707,-8.45563l-8.56005,2.34408l-20.49965,3.55828l-8.63733,6.03394l-12.34077,-2.91199l-11.04978,-4.86876l-9.80998,-7.46171l-2.55348,-16.48476l-13.90207,-9.12947l-11.77667,-13.58164l-5.84009,-22.88127l-7.56314,-17.89466l-7.55165,-4.67595l-0.42923,-8.56075l0.4254,-22.18387l3.24155,-24.21308l12.01537,-11.30546l-0.97785,-16.65833l8.14151,-6.30843l11.6532,-8.16819l7.65228,-13.46848l2.29871,0.64966l18.19505,-4.25514l18.93758,-15.83863l2.44142,-0.94609l14.30406,7.87995l18.36647,-5.66855l8.32938,4.9167l23.17577,4.39469l17.23274,4.38336l10.51186,-4.57872l8.87554,2.07205l23.31126,11.23469l12.16661,6.38388l4.28006,19.34841l7.43918,7.08885l19.65499,13.18943l-8.42619,12.0921l-0.09739,10.84905l2.85441,7.2888l-4.25302,31.62414l7.21764,20.86793l-7.12642,10.00961l-9.7844,6.74728l-9.63781,9.59443l-2.46591,16.31327l-21.73093,12.68034l-18.74842,0.76243l-6.70471,15.94358l-9.00346,15.28687l-2.43433,0.3811M231.54586,273l-16.77027,-5.28082l-12.17008,-2.87512l-15.5853,-0.68779l-8.93492,8.84373M162.72016,273l-16.95089,-5.41953l-17.41649,-9.49458l-12.16817,-7.84476l5.72415,-12.40802l-13.18167,-17.96167l-9.88743,-6.3152l-12.30017,-24.41538l10.63687,-16.28281l-12.8502,-6.55833l-10.04982,-4.1777l7.02402,-13.9141l-6.64555,-18.08574l14.56027,-25.4255l2.97816,-14.34108l-6.98417,-11.54216l19.69868,-8.52301l6.21755,-8.77026l9.46194,-8.49732l-3.11022,-11.01125l14.89942,0.69696l16.76561,-13.46069l5.64342,-4.24786M243.07924,25l11.79933,8.47772l5.75586,-4.8197l4.38662,-3.65802M280.78635,25l7.85768,5.27098l24.17587,18.30219l7.2102,11.49758l9.69294,21.68694l-0.22607,10.99456l16.17438,6.77131l1.05944,18.1148l-3.1627,15.30713l2.73118,1.78677l-2.44602,25.11959l2.65051,15.81054l-0.06471,16.17416l-13.02781,7.19542l-1.19537,3.49337l-8.80162,19.19045l-8.93569,13.10838l-20.91014,9.86503l-18.59419,4.74173l-8.97005,13.78287l-4.80306,9.78619M128.57334,273l-9.3915,-4.0829l-7.86224,-9.48805l-2.56354,-0.40274l-9.13981,-25.15766l-2.72283,-7.50955l-13.60283,-16.02818l-2.228,-17.01623l-3.65668,-12.89879l-17.53073,-5.20878l1.4793,-16.91036l-1.43051,-13.81155l-1.09855,-15.93993l13.5441,-23.65119l7.34575,-15.75253l3.14195,-17.54216l9.91692,-3.44361l5.36759,-19.52497l3.36548,-2.46083l4.69246,-4.2496l6.4813,-8.78561l18.13213,-5.8493l3.02715,-2.28547M300.98477,25l0.5174,0.49884l11.79617,26.47527l17.29089,13.82135l12.99167,8.24475l5.52349,17.3929l6.68483,16.11736l0.7453,12.32433l-4.73968,16.52595l-1.76259,0.83447l-0.15784,10.84906l2.5083,28.5115l5.28049,7.35832l-1.85871,12.36226l-3.98697,13.12076l-5.78166,5.93289l-13.99984,13.79609l-19.09481,11.7696l-10.14181,11.31347l-12.39846,2.92711l-18.58929,13.5756l-1.68082,4.24811M108.13487,273l-0.41387,-0.42122l-12.06685,-4.4461l-13.7954,-10.06904l0.55912,-17.09996l1.85604,-8.27496l-7.95595,-12.97218l-12.18361,-14.77949l-6.12831,-7.50413l-10.96928,-20.5453l-4.98134,-26.61311l4.01843,-13.41976l-6.56012,-12.21294l11.53308,-3.56388l3.82942,-13.7126l15.28004,-31.63389l12.79484,-21.82699l-4.45761,-8.57851l-1.28674,-13.8125l10.88716,-3.54897l8.80258,-1.67096l2.21565,-1.2935M303.23896,25l2.62569,3.82473l9.55338,19.39562l12.41283,8.73638l22.37487,4.99648l10.43008,15.05803l4.56341,20.70253l-5.34921,14.79899l2.3511,10.89914l-3.83943,11.90596l8.72699,-2.31819l-5.42452,27.77935l-0.99761,24.91113l4.69307,3.44005l-0.85227,17.57893l-1.5393,10.43237l-0.04648,6.26936l-18.35291,11.11487l-23.2869,9.79321l-9.15613,18.6244l-7.31521,0.93147l-8.25262,9.12519M79.82173,273l-10.86043,-8.88849l5.22,-17.10363l-2.60184,-3.12655l-12.19449,-10.55283l-7.51893,-24.10335l-9.65572,-2.17887l-8.8827,-20.06678l-2.23187,-23.63726l4.71937,-14.22467l-5.03479,-20.79113l0.5235,-2.41705l7.78134,-6.69663l8.52286,-20.5889l4.91837,-31.56072l13.05717,-19.03054l8.70372,-8.38325l-8.53386,-13.48121l0.72686,-1.16813M313.59323,25l5.27608,8.8862l10.76486,9.87034l25.82005,5.08538l4.07789,15.14777l4.55803,16.35243l7.98681,12.62056l-0.77534,17.54057l1.96914,16.53469l3.10143,8.74336l5.82516,0.05817l1.60118,17.68442l-7.96924,22.73873l-0.78958,13.85009l-1.8614,16.61765l-2.04612,4.57207l-7.76891,13.74066l-4.69537,12.4784l-11.36949,7.56743l-19.93445,12.02318l-3.78493,15.62339l-0.22625,0.2645M61.97793,273l-0.84857,-1.06404l3.57321,-25.7172l-7.76967,0.73362l-11.21427,-4.33392l-8.24723,-16.81938l-5.34533,-24.74987l-7.12607,-5.42568M25,165.21286l2.54413,-5.04655l1.32926,-11.53591l-3.87338,-8.76257M25,116.42354l2.35155,-6.3197l5.93119,-25.57509l7.31032,-21.70114l8.51861,-12.96326l10.59217,-6.9062l3.88138,-17.10042l0.05925,-0.85772M332.02635,25l2.91511,6.68889l19.18475,14.35655l13.80954,6.73166l1.98873,6.16338l3.98372,13.65525l6.61215,8.43192l5.6089,9.03386l-0.68912,20.10221l8.31377,11.45264l1.2461,1.57475M395,157.00676l-0.25933,0.66073l-6.51433,22.45136l-0.85096,17.23211l-3.90608,13.53383l-7.60453,6.09637l-3.48695,17.92906l1.48585,17.79066l-8.33645,3.87716l-24.60339,16.42195M63.52476,273l7.13262,-19.0715l-9.4288,-8.71469l-22.74571,3.17937l-11.57795,-2.11942l-1.90493,-6.61241M25,55.74932l9.25718,-6.99653l16.05844,1.26086l17.31623,-23.63363l-0.05048,-1.38001M354.82109,25l21.89401,17.57349l11.95653,7.82819l-6.98642,0.39198l5.13028,2.37395l-2.42001,15.71429l4.24374,9.37564l6.36078,5.85032M395,196.59488l-2.09387,2.97692l-8.0284,8.65462l-0.98142,12.91222l4.27412,24.00854l2.92428,10.31722l-8.69564,14.82339l-5.61819,2.7122M60.57264,273l0.43597,-17.33912l-16.60472,-8.56302l-14.56202,2.86457l-4.84186,-1.00645M25,50.95517l6.21882,-2.19115l13.89865,-11.51341l7.33212,-12.25061M382.43357,25l11.67592,10.97443l-1.7763,10.70582l-0.20506,8.75237l-0.04914,11.37252l2.92102,8.01091M395,217.88869l-1.88956,7.79686l0.27056,23.46744l-0.80125,15.08969l0.85715,8.75732M43.78077,273l-1.61699,-12.42846l-14.82457,-2.10623l-2.33921,-1.45419M25,35.74233l3.31298,-3.1056l5.74463,-7.63673M391.26741,25l3.73259,7.2321" fill="none" stroke="rgb(0,0,0)" stroke-width="2" data-clipped="true"/></g></g></svg>