<svg version="1.1" xmlns="http://www.w3.org/2000/svg" xmlns:xlink="http://www.w3.org/1999/xlink" width="420" height="298" viewBox="0 0 420 298"><g><g><g/><path d="M184.56185,144.42056l2.53534,2.38387l-0.53951,3.78201l-7.06032,1.55306l7.31355,-6.87787l13.58886,-6.61732l0.68272,7.01703l5.00758,13.73889l-5.70495,11.16571l-25.14732,-15.63185l-1.23797,-8.06023l22.10453,-24.82271l17.10562,6.02325l3.11216,13.78827l5.40543,8.96826l-0.57544,19.93299l-3.66264,9.47149l-12.23759,4.41963l-23.49632,-14.50744l-11.81071,-5.2697l-1.6276,-5.42327l1.56496,-27.72806l15.5463,-5.77137l24.46731,-14.64909l10.83576,8.87634l2.92228,9.10886l9.42405,3.10035l7.12576,18.89524l-7.73355,5.606l-8.64763,18.191l-4.24677,18.00338l-8.00225,5.9956l-23.22599,-13.22503l-18.98697,8.01644l-11.69434,-17.32837l0.13454,-4.58281l-2.8453,-18.09263l4.39867,-36.00624l14.95343,-9.13018l16.10586,2.143l22.59737,-17.05313l9.31339,11.5386l12.8902,2.27038l11.38956,-1.04507l-4.82178,22.19695l17.85344,24.7599l-10.41468,6.30199l-3.66235,7.7617l-4.25282,21.81408l-16.141,6.74845l-7.43544,7.00034l-16.8913,-1.47721l-17.32682,4.99848l-11.04125,-3.31674l-11.38753,-13.99363l-12.46,-15.5508l4.55449,-19.01022l-0.37372,-13.67769l-4.75982,-15.12736l14.17606,-29.55163l5.40971,-5.50058l21.19136,-3.07272l11.58798,-5.45518l11.28935,3.23272l17.68126,3.19901l5.7404,9.14844l15.76152,-2.62299l11.30207,39.24372l8.55164,16.11035l5.04788,18.46012l0.81216,9.38331l-18.54299,0.63049l-6.80462,15.81173l-22.70927,16.8407l-2.72955,-1.12454l-18.53101,8.12915l-16.64879,3.25857l-10.93448,-5.90399l-23.86894,-4.10161l-0.81666,-10.91815l-10.40534,-22.61787l2.06093,-12.77188l-1.67708,-17.88421l-0.28553,-8.20242l0.52082,2.13626l-2.43227,-19.57363l7.49501,-32.29048l0.77391,-11.33328l20.37246,0.6358l11.96614,-8.39298l18.02362,-2.77312l14.33781,-6.3785l12.42232,24.05847l10.65767,7.49749l14.82056,-4.9011l17.39212,12.48018l11.89502,33.92842l5.0616,18.46743l0.80218,10.81418l-2.42338,24.18458l-10.6588,-1.66603l-16.59674,4.92078l-13.9586,21.42084l-13.24541,20.06731l-13.55097,-4.45565l-15.98337,2.81569l-10.08159,9.28549l-16.67572,-16.45511l-13.526,2.29015l-14.12262,-7.17937l-10.06831,-18.63649l1.54883,-26.96757l-6.27511,-9.98965l-1.93244,-5.01094l7.04373,-14.20719l-7.82975,-4.04908l0.2567,-8.46308l6.47187,-11.87659l-0.77356,-14.07093l12.39284,-21.25385l10.29701,-4.91655l7.98751,-5.26135l17.78913,-14.3414l19.31728,-8.68771l8.20583,-3.83316l15.34736,21.07255l19.18029,11.33566l15.39862,6.39279l15.69763,4.86727l1.29055,11.39249l9.29124,23.07898l12.36503,22.01972l7.88143,17.10974l-13.67253,19.29092l-10.34391,9.54002l-4.76816,6.56013l-9.02212,4.31394l-9.62157,13.24681l-17.84705,19.02152l-17.14663,1.94872l-12.18251,-2.38676l-9.00217,12.15789l-19.2795,-16.81867l-15.75635,6.53472l-14.54515,-1.10491l2.18077,-2.40306l-14.79108,-26.58405l-7.22278,-18.52209l-19.32879,-23.01549l0.5851,3.02762l5.64329,-12.5589l6.63472,-13.18159l-11.66653,-13.92309l-4.87275,-5.70309l8.13926,-9.69329l25.84534,-6.24701l1.01203,-19.66466l14.18632,-15.53588l-5.13763,-8.48994l17.92805,-5.66413l16.13731,-11.16091l16.87446,5.28771l12.51375,-0.5608l14.31446,8.58046l12.00265,10.70197l38.97363,7.07313l6.60278,-4.95362l13.80386,14.19383l-12.76308,11.77107l2.53045,14.82912l18.48129,24.63793l10.99776,9.67061l-3.43131,20.51064l-20.8539,0.55617l-10.01701,19.22016l14.37231,11.46912l-0.37579,12.29409l-16.33367,17.06148l-23.08452,9.01233l-23.95693,6.75825l-12.88634,2.1031l-15.69356,-8.0074l-11.42182,2.09786l-14.55812,-3.82297l-19.11875,13.74559l-11.3081,0.75865l1.20668,-6.10998l-6.20208,-11.46806l-4.23711,-23.04235l-25.09473,-14.79307l-20.25891,-13.82171l2.56871,-14.76333l7.41218,-9.75376l1.23045,-13.82572l-2.22984,-19.87973l-11.80206,-21.28827l4.62042,-2.46439l24.04977,-10.69711l18.25497,-11.52208l5.71423,-12.31212l0.81059,1.78304l3.66107,-9.31654l15.58088,-18.54276l11.36584,1.0394l17.3015,16.97987l6.14092,-12.25492l23.58278,3.92261l19.77618,5.42965l11.76855,4.02324l29.13208,-1.23864l16.00002,11.84196l8.16317,7.69019l-6.28488,18.48641l1.30854,-7.6916l12.20512,20.82438l4.78858,12.66045l1.64478,8.94145l-0.72054,27.15822l-6.44107,11.26074l-12.6437,18.35113l6.15888,16.4604l-2.63827,18.83581l-7.85769,17.06842l-22.52057,-4.83712l-23.18001,4.7141l-6.29903,16.48448l-25.41185,1.52524l-19.79432,-12.42848l-6.29312,2.86302l-22.45104,5.18951l-6.49411,9.21495l-11.68236,-2.23123l-10.1956,-4.25105l-8.85544,-7.17125l0.55361,-18.83997l-15.27316,-8.40721l-12.9266,-14.01409l-5.47103,-26.25044l-8.41623,-19.23456l-9.0424,-1.16117l-0.06522,-6.31038l0.42525,-24.71866l3.57329,-27.5246l14.79586,-10.20395l-3.40692,-17.66799l8.34108,-3.96248l12.5449,-6.84621l6.63548,-14.44897l-1.0458,4.16314l20.08734,-3.01099l20.78813,-19.26178l-1.75998,0.27618l14.13679,11.58421l19.55921,-7.39184l5.98539,6.2808l26.15642,4.93279l18.27786,4.29206l9.42129,-8.43296l7.5143,-0.00048l27.41734,11.8728l12.77134,4.83648l2.58639,21.95969l7.39125,5.01833l24.48697,12.98409l-12.90746,11.28221l-1.02082,9.45659l3.60261,4.57099l-5.381,37.5021l10.76395,23.03147l-8.03221,8.49619l-11.04167,4.30874l-10.28864,8.45437l-0.07034,17.90099l-25.66615,13.39977l-21.21512,-2.25912l-4.56306,18.79014l-6.99593,17.49292M230.89866,273l-20.18161,-8.38595l-11.18758,-4.33491l-15.79224,-0.75853l-8.07035,13.47939M158.7652,273l-15.57192,-4.70377l-18.90729,-10.32116l-12.12876,-7.569l11.69925,-13.2642l-14.31022,-20.3469l-10.3301,-4.21184l-14.11046,-28.37995l16.37363,-17.11828l-15.97632,-3.76751l-12.77827,-0.41937l9.72133,-13.53302l-9.37488,-19.18644l18.71924,-29.19422l2.46683,-14.34192l-11.5731,-10.76397l23.99379,-6.94962l5.25588,-7.61232l9.18746,-7.62459l-8.23341,-11.45559l15.77247,3.91252l17.99284,-15.75085l6.33074,-5.39799M214.86208,25l0.72349,0.24107l25.18347,0.93519l12.80044,11.29314l2.92235,-8.61425l2.69667,-3.85514M285.01678,25l0.47651,0.31361l28.78653,21.20251l6.24677,11.58779l10.0611,25.01329l-2.86755,10.23946l19.8423,4.27387l-0.06284,19.42775l-5.21377,15.49656l3.33187,-2.86636l-3.09763,28.69334l4.36923,16.15275l1.25719,16.76003l-15.73623,4.78734l0.7944,0.01107l-9.00319,21.53508l-8.72576,13.64402l-24.50718,9.64026l-20.99872,3.13512l-7.65098,15.8306l-4.32114,13.1219M198.3962,273l-2.57183,-1.86197l-1.90574,1.86197M124.33649,273l-10.14171,-4.15256l-6.28663,-9.81655l0.541,2.91547l-8.74124,-30.17518l-0.48368,-5.94008l-15.66239,-17.15385l-0.76094,-18.22921l-3.20575,-12.44976l-22.5066,-1.89153l2.67041,-17.62509l-1.81528,-13.39153l-1.91557,-16.28717l17.35107,-26.79284l8.43228,-16.23488l2.22884,-18.83868l10.90132,0.00137l4.28011,-22.03939l1.13739,0.71779l2.53545,-2.07423l4.5991,-8.62127l20.04976,-5.09245l5.72776,-4.82838M300.39817,25l10.77136,28.61344l19.93245,14.69104l14.53516,6.81944l4.88046,18.91359l6.9264,16.9518l-0.61417,11.63285l-7.52423,17.18074l-2.97524,-4.13387l-0.27775,9.38263l3.85566,33.2987l8.12731,4.75154l-1.02093,11.64457l-3.40502,12.8435l-5.35791,3.33928l-16.02611,14.24379l-22.49775,11.81084l-9.9963,11.54207l-12.69743,0.5802l-20.76116,15.40353l-2.35331,8.49031M104.82956,273l-0.59935,-0.8246l-12.18471,-2.7142l-14.86103,-9.93772l4.18713,-19.10092l5.53773,-6.84986l-8.1689,-12.93421l-14.3437,-15.15166l-6.62541,-5.1257l-13.66387,-22.63326l-6.06165,-30.75376l5.6098,-12.86323l-9.20802,-11.23809l14.76898,0.40785l3.85255,-13.42593l18.86335,-37.82184l15.03674,-24.74795l-8.74802,-7.06068l-4.87627,-14.41971l10.61209,-0.80453M84.81858,25l7.75779,1.29575l2.61184,-1.29575M299.60042,25l2.61109,4.42052l9.05377,22.62778l13.27374,7.86343l27.13291,2.49487l11.37986,15.83576l3.87302,23.23969l-9.08862,15.06072l1.79422,9.63503l-6.10517,10.89131l11.37965,-8.41473l-7.28025,32.28852l-0.80568,28.43569l7.37357,-0.54147l0.34202,18.70307l-0.12955,9.19206l2.33125,3.75856l-22.0156,10.5522l-28.29421,9.03904l-8.80639,21.29673l-5.97608,-2.29919l-11.57194,13.9204M73.5445,273l-9.71283,-7.3882l10.42038,-19.04553l-0.53997,0.14733l-13.91934,-9.65231l-8.01465,-27.77455l-11.34327,2.06041l-10.74817,-22.00809l-2.21025,-26.74651l6.72823,-13.96075l-6.9369,-22.83514l0.11628,1.9922l9.47394,-3.87054l10.02408,-22.77898l4.70649,-37.77552l15.29244,-21.01323l8.99588,-6.83478l-11.05462,-10.51582M308.26005,25l5.91485,12.15477l10.90542,9.52582l31.61659,2.7519l2.56724,16.09635l3.60472,17.48948l8.65001,12.23807l-2.78289,18.72784l1.36428,17.23705l3.33934,6.60359l7.47334,-5.201l2.21003,18.63073l-10.28746,25.49188l-0.12709,13.52725l-1.13774,17.37044l-0.95858,1.20916l-8.28557,13.78517l-3.72807,12.28327l-12.37781,5.87772l-23.60765,12.17582l-1.42465,17.34546l-2.12066,2.67924M56.39562,273l8.20345,-30.66069l-7.47537,5.33077l-12.50526,-1.28883l-8.87853,-17.97603l-5.35518,-28.5335l-5.38473,-1.67903M25,162.94205l2.28927,-2.83937l1.96856,-10.31481l-4.25783,-7.45523M25,113.62263l0.10543,-0.2476l6.47577,-29.53782l7.93183,-24.44058l9.17028,-12.79565l11.59554,-4.80937l1.92043,-16.79161M327.5585,25l3.84096,10.94673l22.40576,15.4946l15.4596,4.90678l-0.18665,3.89334l2.87721,13.81352l6.81384,6.56079l5.85033,7.22043l-2.26596,22.07254l10.32714,10.28019l2.31926,1.87052M395,150.62733l-1.22895,2.48633l-8.0552,25.13469l0.02057,18.15009l-3.70698,13.25573l-8.3152,3.33419l-2.3615,19.51478l4.73415,19.52879l-8.20443,0.93416l-30.74809,18.74104l-0.88265,1.29285M61.08524,273l13.86056,-24.49008l-9.58326,-7.55148l-27.93807,8.77351l-12.42447,1.70635M25,156.62947l2.88629,-0.9662l-2.30685,-16.83691l-0.57944,-1.42943M25,50.4972l8.32962,-4.87581l19.12375,6.31743l20.00691,-26.93882M349.91883,25l1.98332,2.33423l28.97011,22.14388l12.95019,6.39233l-12.35441,-3.89862l4.37897,-1.42224l-5.48179,16.44755l3.90033,7.71998l10.73445,7.43149M395,190.37928l-5.74672,6.73228l-9.213,6.67738l0.69046,12.5741l8.1588,27.75012l6.11045,8.61687M395,254.55159l-8.14808,14.70418l-10.21104,3.74423M62.6004,273l3.98714,-23.35211l-19.40074,-7.26708l-16.95917,8.40518l-5.22763,-0.21386M25,51.08361l7.13408,-1.4912l16.07653,-11.03846l7.86105,-13.55395M381.5219,25l13.4781,12.07737M395,46.79853l-1.89748,3.55163l-2.96884,7.28145l-2.42967,10.64794l2.55548,7.6645l4.7405,5.29116M395,200.76409l-4.54356,10.62477l-1.68673,10.15912l2.67168,26.9834l1.54897,15.82153l2.00963,4.93166M45.13399,273l-0.22401,-19.01405l-17.01083,1.48153l-2.89915,-1.33319M25,38.25082l4.01393,-3.24741l7.62869,-10.00341M389.75193,25l5.24807,11.21494" fill="none" stroke="rgb(0,0,0)" stroke-width="2" data-clipped="true"/></g></g></svg>