<svg version="1.1" xmlns="http://www.w3.org/2000/svg" xmlns:xlink="http://www.w3.org/1999/xlink" width="700" height="700" viewBox="0 0 700 700"><g><g><g/><path d="M336.16546,347.50729l0.6589,1.03464l-1.00171,1.17612l-2.65628,-0.09002l2.55166,-3.17813l5.77273,-1.51314l1.29567,3.28886l0.74886,5.89766l-3.31622,2.78123l-10.96925,-2.62241l1.93948,-9.39211l14.73891,-6.31097l3.3118,6.92846l1.37684,9.20825l-3.66439,11.44436l-18.60869,-7.44498l-3.31354,-12.70085l17.81484,-15.97502l9.94315,7.14862l6.95748,9.9436l-3.6807,15.807l-4.76709,13.42104l-20.04611,-10.67739l-11.7086,-11.06689l0.69437,-9.53473l16.10748,-18.59274l18.30028,-1.59066l8.14555,13.56276l4.28743,7.96226l-3.56633,16.58799l-4.24443,11.68085l-9.54281,7.09959l-19.08632,-11.15006l-15.57143,-8.55573l-0.14027,-10.67646l6.69104,-14.7359l16.43708,-13.26553l16.05955,-5.79178l8.45118,10.79409l7.32933,8.74139l6.30283,14.25881l-6.50492,12.64665l-7.75263,12.55562l-7.59648,10.08221l-15.09957,-4.01384l-18.7779,-7.58112l-8.52488,-8.84952l-1.1121,-9.55869l1.36601,-26.02013l10.30412,-5.77835l20.52424,-10.26101l15.05576,0.42164l6.8662,5.54189l10.58246,7.78631l6.51358,16.11356l-1.2555,15.27244l-8.82647,10.9794l-8.17309,13.2365l-9.06604,9.40322l-16.26208,-6.13362l-18.30012,-1.04262l-10.62548,-9.39875l-5.38691,-10.04658l-0.34549,-15.16743l4.69789,-27.45417l10.61603,-7.39137l16.1779,-4.64312l18.36519,-5.03952l9.93468,2.84083l9.85557,9.26861l7.69008,5.90337l7.77124,18.76975l-2.252,15.02244l-5.61726,9.62338l-7.33363,16.2108l-10.90423,11.01561l-10.49786,4.4862l-18.53494,-8.13036l-14.57509,-0.93776l-13.0894,-8.45856l-7.84366,-13.70332l2.66468,-13.11407l-3.14553,-23.57818l12.26773,-17.39744l11.36855,-5.18725l15.42042,-6.09232l17.74928,-7.7511l10.59902,8.85353l15.41138,5.39685l7.82822,3.89549l1.91939,20.46801l9.59171,19.26551l-8.83219,8.24984l-1.57751,13.2906l-7.33801,14.43685l-15.06793,7.21651l-11.69421,5.10483l-14.81498,-0.51495l-19.17133,-2.68198l-9.78413,-3.37383l-12.86,-13.99284l-4.30975,-16.86724l1.89573,-14.76624l-4.32122,-15.5903l11.20614,-19.94233l10.6786,-12.86144l11.06317,-0.951l15.60132,-8.19076l14.84512,0.24231l13.30893,5.30074l14.35969,4.88777l10.49495,7.42763l4.59581,27.0321l7.66113,14.58996l-0.63122,14.26597l-9.74873,6.22523l-3.55386,15.30135l-13.71152,12.87052l-9.82784,3.0629l-16.29805,4.80598l-15.62801,1.48114l-14.91085,-1.6981l-12.77153,-5.60654l-10.33068,-16.18055l-4.90711,-13.87982l-2.97345,-18.10752l-0.49228,-11.43352l3.08251,-9.8372l3.84305,-22.11752l9.05688,-16.0226l14.58272,-2.86712l13.20942,-7.75404l16.84884,-0.13793l15.39808,3.99242l9.6699,7.80588l15.52013,2.79804l8.43721,14.50178l12.88078,28.21l1.54644,12.54165l-2.30512,15.21195l-6.63301,7.1155l-9.31412,11.19918l-13.92607,15.18265l-9.64471,6.12037l-12.8519,5.86425l-15.15843,1.70292l-13.66473,-1.87872l-17.55653,-1.39543l-12.46448,-8.29411l-8.0507,-17.20164l-5.79021,-13.24711l-1.01,-19.46533l1.0493,-10.06821l1.84715,-5.05954l-2.22088,-19.64259l10.57009,-21.9105l5.08951,-9.85319l17.90034,-2.05811l12.79618,-10.73825l16.92112,1.28975l15.11763,1.59345l9.92863,15.97848l14.68916,5.17597l12.43787,0.83996l8.28223,26.87955l8.68318,18.97474l4.406,12.02482l-3.96612,17.02571l-12.58947,6.84901l-6.25576,8.50906l-15.04051,17.49106l-11.65011,8.38097l-11.17424,2.56863l-15.10015,4.75069l-16.99442,-0.56407l-13.35884,-2.91966l-17.4763,-8.97793l-6.37449,-10.40703l-6.94515,-19.90697l-3.51509,-11.61253l-2.99821,-14.27734l1.18475,-12.42091l1.7354,-8.23658l0.26708,-13.29558l5.93669,-16.5084l7.73493,-16.86474l13.10514,-5.77024l16.76536,-5.90157l13.06545,-6.50057l12.75978,0.13943l16.67659,6.07351l9.76903,14.30248l15.92208,3.5934l14.09297,5.4482l9.40272,18.77743l6.819,23.1226l5.38323,11.83147l-4.64422,20.10482l-5.17496,10.76597l-9.48881,6.18043l-13.19037,9.14768l-14.73994,20.31634l-11.62149,5.56674l-12.73938,2.24008l-14.38292,6.67404l-16.01958,-4.88954l-15.22053,-4.07863l-15.44278,-6.0059l-7.84027,-11.45098l-8.17535,-18.35487l-3.68927,-16.58677l-2.88262,-5.80525l0.65518,-17.52491l-2.8238,-9.25569l1.1601,-10.71081l7.49741,-10.91824l1.57944,-14.8342l10.72235,-17.15381l12.70327,-6.24065l12.89583,-4.84073l15.47405,-10.69254l14.45588,-2.54928l13.97912,2.26044l15.61386,16.9378l13.2064,7.54207l11.08461,5.21478l15.81174,10.28653l5.77144,14.59058l5.94155,21.79653l6.04955,12.37523l-6.03252,23.64342l-5.77729,10.40621l-7.10274,8.18378l-13.69046,4.37632l-10.75541,19.0823l-13.44723,13.74741l-16.68293,-1.46958l-13.03362,5.19163l-13.59059,2.82648l-17.76703,-8.03545l-11.64691,-0.98171l-11.47043,-7.62039l-12.05571,-16.36977l-5.21415,-15.34246l-9.14773,-19.1908l-1.5941,-2.19024l0.82221,-15.9662l-1.13066,-11.52276l-1.01417,-11.66435l3.28932,-11.61976l10.24029,-13.7582l6.92342,-10.61417l10.11257,-15.07781l10.18457,-5.53004l13.95821,-6.73419l18.87123,-5.9344l12.94839,-5.7097l13.46844,5.50453l15.97004,15.13346l16.13327,3.53672l9.85968,9.34188l12.8895,10.88732l4.25076,11.21116l7.90075,20.11582l8.42822,17.63672l-1.44858,18.21498l-7.95208,13.36436l-7.20347,12.85883l-2.92783,6.34998l-12.40318,9.75661l-9.86422,14.0729l-17.49469,12.69258l-14.01458,0.55827l-14.50364,4.23379l-11.59024,3.18768l-20.13555,-9.37255l-14.74586,2.3236l-9.5663,-3.77589l-9.02275,-11.06613l-10.48086,-18.80626l-11.05767,-19.80298l-6.74784,-10.00848l-0.55678,-8.81396l5.38535,-14.49774l-4.542,-10.93844l-0.99189,-12.43756l3.15877,-10.64408l13.25732,-11.71942l8.16986,-12.90151l12.80114,-14.78182l4.86462,-6.86534l16.20385,-4.11185l14.16342,-8.78244l17.04347,0.22673l10.99957,-2.34233l15.36448,10.03039l15.71947,9.76422l18.69439,3.41229l9.82718,4.24111l8.30157,17.60515l1.77051,8.72032l9.06326,21.19431l8.69249,18.2296l1.95672,14.60574l-9.42671,12.58047l-8.88458,13.08395l-2.10947,12.56853l-3.7456,9.4967l-11.41408,12.45666l-15.91949,10.68979l-17.82899,9.72027l-14.26581,-0.85728l-12.4047,2.18774l-15.06325,-2.13597l-16.919,-2.10007l-13.80783,6.14975l-9.7595,-7.08767l-6.26202,-8.78097l-9.69799,-20.33545l-14.53608,-15.87911l-13.89213,-14.25609l0.53859,-9.36206l5.03814,-12.08049l0.96389,-14.70529l-5.62139,-13.50297l-2.6506,-11.82408l9.79564,-10.80901l20.1168,-8.99135l4.93286,-17.05323l12.00148,-9.76654l2.86188,-8.42725l14.70477,-6.52677l15.11234,-8.26417l17.90556,4.05592l12.43005,-1.3207l13.73949,5.72529l14.48969,9.13795l25.19848,8.28399l10.14689,1.80862l13.00384,11.38532l-2.80813,13.84677l1.49516,10.1625l12.01112,21.98543l8.9991,14.57423l0.31382,16.87018l-12.38393,8.10302l-9.96392,14.79377l1.33791,13.58124l0.11556,10.58214l-14.2392,15.79798l-15.72672,9.27065l-20.41501,8.11739l-14.83586,2.37347l-13.72419,-2.94726l-12.37929,2.66347l-16.97179,-3.82614l-16.38113,4.64773l-11.79922,-0.45682l-5.20906,-6.23022l-8.67523,-10.65828l-7.41741,-18.40512l-17.40011,-15.3381l-14.18288,-11.9774l-0.07653,-13.55211l5.23647,-12.74362l-1.3436,-14.40315l-2.37884,-15.22223l-4.80408,-16.21739l9.20357,-11.25738l20.04472,-4.71694l7.78296,-18.29567l11.61801,-7.0905l2.21738,-6.72939l12.65155,-7.56385l14.27093,-12.27583l11.54038,2.20345l16.51922,2.07691l17.5945,-0.07858l12.49283,3.94758l13.01798,6.03808l22.97311,6.80046l12.28253,7.10895l14.89174,8.97557l-1.97823,14.74231l0.58825,4.49186l10.70548,21.81345l6.88291,13.2683l1.22981,12.84993l-2.79153,18.20612l-12.56995,9.41045l-5.16542,16.26345l3.06298,12.11845l-5.23247,18.15142l-13.48418,10.58829l-18.79091,8.36514l-16.29464,1.54196l-15.10056,8.26089l-17.40428,-1.693l-10.98404,0.21663l-18.68237,-0.22625l-12.04857,3.89129l-13.73611,-0.2415l-10.15053,-6.58615l-5.48417,-7.43764l-7.12955,-17.41521l-14.1658,-11.94777l-16.92572,-15.17816l-5.94149,-14.96629l2.62184,-14.29221l-0.30306,-9.04335l-2.54996,-13.10539l2.7139,-23.74972l-2.23404,-15.40655l7.43305,-9.07545l17.61015,-8.45108l12.25745,-16.5089l7.13457,-8.48823l4.36695,-2.86558l11.48985,-7.8901l13.41036,-10.16924l11.00813,2.30274l18.92436,4.6588l10.95019,-4.44193l18.48099,3.78268l14.59465,3.04114l15.65824,6.66003l20.16936,3.4011l14.08852,10.97278l7.79021,9.34342l0.14408,16.20431l5.27594,1.96231l8.16868,17.79386l2.45235,13.15293l1.82823,12.60909l-1.81079,21.50849l-4.56748,12.51495l-9.40266,15.64385l0.12438,15.18592l-5.14843,16.9829l-10.55518,12.97464l-16.85222,3.00223l-19.49652,4.41499l-8.67828,11.69296l-20.85275,2.76855l-17.12609,-5.07986l-11.10012,0.46132l-16.12896,5.43954l-12.38257,0.25899l-14.6818,-2.98763l-9.06631,-8.12696l-7.76554,-6.38043l-7.63832,-16.1037l-12.81624,-9.94631l-12.60303,-16.81519l-3.94729,-17.7658l-5.71646,-14.81272l-1.94933,-4.89434l-0.82386,-15.2149l1.23914,-23.41263l5.3539,-18.22739l2.13416,-10.03811l10.27132,-17.0282l10.10443,-2.89071l12.70033,-14.43594l3.73089,-5.81526l9.65664,-3.7536l15.59713,-8.4133l10.30873,-7.61379l9.5179,4.94015l20.47938,-3.26551l9.48638,2.04186l19.91637,2.30965l18.46966,2.33831l10.51576,6.21059l14.42702,2.77117l19.80721,9.60621l7.26943,7.16916l9.19336,19.01676l5.62691,6.38291l7.88659,13.21852l-2.7746,14.10902l2.9389,9.85004l0.20438,12.20001l-2.79131,27.51024l4.0854,15.13182l-10.85069,11.55422l-5.28553,12.12763l-9.23162,16.3612l-9.52957,11.40127l-19.98155,1.66421l-11.50686,11.17622l-9.74242,12.12181l-19.27971,2.48154l-19.30244,-5.60321l-9.54689,1.94326l-20.53502,-1.82859l-10.06903,5.09938l-9.45278,-0.76882l-17.00375,-6.90937l-15.52143,-8.69378l-3.38003,-8.73655l-9.56156,-14.12624l-10.99305,-10.51117l-8.79387,-18.40372l2.88248,-17.75469l-12.75491,-11.41224l-3.09922,-6.64615l-0.63263,-13.21537l-1.10859,-23.69918l11.45415,-18.14106l3.02974,-13.83053l5.02075,-16.52907l6.48533,-2.42895l13.51083,-9.77186l3.67273,-13.02227l8.98122,0.07585l17.3928,-9.2229l15.922,-13.7702l6.26555,1.97809l16.03683,5.132l15.62938,-4.48789l11.73331,3.79534l21.70542,5.34623l14.08424,4.69727l11.81331,-3.62483l10.20307,4.57719l21.29187,11.83971l9.50451,8.21959l6.70698,17.77503l7.02834,8.28051l15.62273,13.61307l-6.24224,12.39928l1.12891,11.94984l1.31746,9.77214l-2.9337,27.22275l5.44783,19.24826l-8.50234,10.4735l-8.20805,8.56762l-9.52692,10.64338l-4.56918,16.21807l-19.33268,10.43801l-16.3623,3.48614l-7.63245,14.42234l-10.97641,12.16992l-17.79577,0.46324l-18.99679,-5.89349l-13.42325,0.11097l-17.3002,1.24163l-8.63852,4.27651l-12.36878,-2.16528l-17.12555,-8.5094l-17.60088,-6.26542l-7.29883,-8.40756l-2.24976,-13.03818l-14.11461,-13.86182l-8.1307,-13.08761l-4.16403,-19.56608l-1.47761,-14.67857l-11.61888,-7.80093l1.4736,-8.28519l-3.62527,-17.08086l5.19389,-21.12184l13.2949,-16.58738l-6.358,-14.06922l8.70777,-9.68165l9.34073,-13.16483l13.08584,-3.46008l-2.63726,-12.24148l12.62277,-3.76838l15.9041,-7.18048l18.22122,-16.50217l11.73736,0.02876l11.98269,2.63573l15.20075,-1.5446l13.15972,4.64207l20.82112,1.6764l14.78782,7.7636l8.53382,-2.10508l10.25216,-3.80751l15.57342,10.04003l20.36815,13.20484l8.17327,12.34036l7.07287,18.33621l4.92543,8.24683l14.99204,12.43145l-3.00809,13.93949l-2.17295,13.42872l4.58642,11.3739l-5.89014,26.8872l5.66531,11.11021l-7.16465,13.90574l-12.77964,8.64928l-1.29393,11.12486l-9.7725,12.40591l-12.81901,13.34885l-21.16896,4.63157l-10.75703,10.4649l-9.00354,14.21158l-12.79475,9.96984l-20.02227,-3.07811l-11.43395,-4.05183l-14.99808,-2.99025l-18.80786,7.41255l-8.44088,6.91515l-15.30442,-11.92046l-18.73746,-7.86684l-15.23323,-5.92487l-3.3932,-9.73911l-5.87133,-11.6299l-10.71344,-16.46321l-11.97298,-11.34557l-3.80161,-17.76963l-1.43544,-16.03473l-8.71184,-7.71375l-2.69951,-9.06863l1.69314,-15.82797l-1.8582,-17.25461l10.16146,-22.56823l3.50974,-12.36303l-1.73701,-10.53816l15.57603,-11.02445l7.65759,-11.33389l8.72491,-8.0618l1.85485,-10.64887l14.11654,-3.22589l14.72547,-9.70717l16.73644,-10.83328l11.66974,-1.37662l15.98416,0.50328l14.85854,0.40508l13.32822,1.38702l18.36164,2.69862l14.22328,7.1135l9.59101,1.41241l11.80881,-7.53872l13.57738,9.614l20.78921,15.99465l10.06341,12.33122l9.54346,19.44164l-0.76475,11.13433l15.85164,10.56312l2.68689,12.90114l-3.58312,18.86357l3.51978,4.67497l-1.40887,18.31388l-0.05514,21.40508l0.6213,10.38406l-8.25233,13.02363l-6.82737,5.29654l-5.81958,15.78291l-9.81675,13.61912l-15.48853,11.12106l-18.70063,5.97537l-10.09259,12.9359l-10.86299,14.01206l-10.96789,9.13809l-20.6412,-1.26756l-12.3668,-1.46993l-14.63495,-7.35774l-17.06838,10.2549l-11.46638,0.34131l-14.34222,0.25683l-16.39648,-11.26913l-16.30134,-8.97991l-9.61642,-9.34888l-3.91553,-3.18291l-9.68053,-22.23102l-5.66552,-8.59182l-14.43835,-15.28442l-0.45517,-18.14908l-5.26215,-10.63422l-12.30123,-8.87486l1.3619,-15.51742l-0.02624,-14.51197l-1.68882,-17.75628l13.03471,-21.64126l4.13686,-12.31469l1.70436,-12.06895l13.53489,-8.80641l4.7238,-17.05012l9.15888,-3.40658l4.39203,-8.75335l9.27515,-6.95688l17.29838,-7.58971l14.55885,-10.56697l15.20164,-6.48849l11.02359,-3.64074l17.7136,1.22124l15.23603,0.78891l10.5756,5.57787l22.88054,3.34593l10.09999,5.95123l12.01665,-3.6044l8.86522,-5.33941l16.64311,15.18777l16.77408,19.52087l12.55746,13.59133l11.30075,14.4682l4.28468,15.47394l8.75687,10.33613l2.01283,14.5177l-4.78617,18.54864l3.37612,5.35906l0.70132,12.14498l-3.64626,23.97791l7.11255,11.84418l-5.57293,12.36809l-8.08216,8.73693l-4.74531,11.34464l-13.5958,10.83319l-12.21396,13.61509l-15.70334,6.76243l-15.8,7.01634l-7.36796,15.5157l-14.16624,13.65276l-10.57366,8.65933l-20.48375,-2.30681l-12.17738,-5.72439l-15.42485,1.1515l-19.62936,1.74309l-8.59566,1.98067l-15.34016,-2.453l-14.13744,-9.54688l-17.62699,-7.6489l-10.30924,-9.77386l-7.20558,-5.06839l-10.91619,-13.92514l-0.29734,-12.88591l-9.28013,-13.32914l-5.8097,-14.78922l-6.06275,-14.42935l-10.51989,-8.66114l-6.51009,-19.71913l3.28276,-9.93336l-3.37928,-16.02324l6.50842,-18.50949l9.9204,-17.2733l6.51618,-20.13252l6.07589,-12.089l8.38609,-4.03144l-0.55021,-18.49282l11.01197,-2.52418l7.66926,-4.28444l8.80255,-10.97858l17.65711,-7.47893l14.7677,-10.84885l17.33908,-2.58651l7.10589,-4.98079l20.24078,-0.92989l15.03211,0.38083l9.09057,5.00675l22.24783,3.27289l11.89871,7.27333l12.169,-3.58364l8.61394,-3.97438l16.34158,10.18265l15.03805,15.4938l9.10323,22.13203l18.96216,9.91195l9.78444,10.47363l6.87971,18.22557l2.2445,12.92561l0.44916,13.15933l-2.03386,15.25588l2.50112,4.38475l-4.41851,16.56657l3.36888,20.90642l1.72629,10.99299l-2.26849,12.96056l-4.96111,10.33546l-8.25423,9.89329l-14.18701,12.18266l-12.88196,12.89887l-14.48507,8.86892l-13.88402,7.49202l-11.13757,11.74957l-12.21852,19.20887l-12.29104,4.55457l-15.25952,2.78829l-18.72812,-3.4122l-10.05939,1.84368l-18.09669,-1.81527l-13.68992,-0.56043l-11.67659,-2.9277l-17.35063,-6.60112l-13.32604,-4.01689l-16.79242,-7.39809l-9.77548,-8.64672l-7.92509,-9.17441l-10.95948,-7.09681l-0.08871,-16.56883l-4.23962,-10.51057l-6.88431,-18.01856l-11.82675,-8.88894l-6.59694,-12.8252l-7.58903,-23.32029l2.39399,-14.0833l-3.322,-14.67601l5.50362,-9.08764l8.8574,-15.19934l7.68738,-23.44854l8.06272,-21.65959l5.16166,-6.88071l1.95758,-11.99581l6.85359,-7.99001l8.23606,-3.99962l11.27396,-7.55348l12.39168,-5.36325l14.34311,-9.30922l13.16799,-10.43539l16.68148,-1.24296l11.49398,-5.64077l20.93487,-0.39238l14.56217,2.12536l9.05611,7.9135l18.63487,5.64361l13.09381,0.85608l14.88946,-3.63864l8.6688,-1.26875l16.11772,11.6835l11.86332,17.37846l8.16291,17.16795l17.13831,9.3225l16.80755,10.96443l6.12103,16.96855l1.21247,14.69353l3.81423,13.20065l-2.36795,14.41342l-0.2081,4.36422l3.40908,13.05397l-6.43824,27.43383l4.70944,9.24312l-4.22827,16.00808l2.25452,11.53356l-2.05477,7.13943l-16.96554,10.8497l-15.78862,11.54561l-9.38515,9.97077l-13.29351,10.5854l-13.64827,11.16743l-9.22625,12.84137l-14.3313,18.49116l-16.98536,0.49385l-13.1815,-0.18833l-15.45459,1.08143l-7.23168,1.02453l-17.39872,0.17029l-20.51602,-5.38863l-11.08573,-4.85175l-17.71504,-1.84282l-10.57553,-4.21807l-15.99725,-7.06498l-10.31059,-5.88595l-11.48593,-7.70513l-12.08649,-11.09788l-4.75927,-13.7049l2.61768,-8.08646l-10.06335,-12.37718l-8.3189,-16.90958l-9.17991,-7.87643l-8.06307,-16.17438l-3.40635,-28.48534l3.86098,-11.93254l-4.55024,-17.50365l5.00524,-1.3464l6.29633,-13.95705l11.75394,-23.07464l8.11869,-26.51101l6.4333,-10.30386l-2.47663,-10.21926l7.87602,-13.97005l11.2788,-4.44959l11.88861,-5.44477l10.84371,-2.0742l14.99849,-10.49632l9.56095,-11.32648l17.32856,4.0922l12.93724,-8.83324l20.64678,-5.67624l16.503,4.40955l7.39469,6.37982l14.37465,11.15565l13.7446,-0.30197l16.97825,-1.85631l14.94165,-4.29699l10.19803,8.00409l15.37819,14.51799l10.57926,17.04434l8.87756,12.12723l18.10975,5.6981l17.39792,13.21321l1.64314,16.48832l3.33152,17.40272l1.8113,11.15262l-2.06221,15.86016l1.1852,3.51693l4.52435,11.6473l-6.50332,27.93178l2.19101,14.30527l-1.65448,10.45973l1.89268,13.94278l-6.05243,7.57728l-7.55551,11.16573l-16.64597,12.25836l-13.70836,11.51137l-8.17605,13.13894l-11.71751,4.72007l-15.55008,15.88383l-10.15522,17.32987l-18.02241,6.74697l-13.27401,-4.51808l-14.57216,4.37293l-13.05179,-0.97558l-11.49393,2.87416l-19.28349,-1.85856l-15.90418,-5.26394l-14.68542,-3.99082l-14.94251,-3.53895l-9.56488,-5.20623l-16.17775,-5.51119l-8.95598,-2.89102l-12.19508,-11.22003l-13.84643,-9.9491l-4.63878,-11.8407l-1.71592,-10.18088l-7.64369,-7.59219l-6.70771,-20.08059l-9.21714,-8.7667l-7.00068,-11.19678l-7.40904,-29.29024l3.39701,-13.35491l-2.40823,-20.59728l0.25883,-6.32643l9.24637,-8.67443l5.2221,-14.91759l7.93404,-26.47311l11.19379,-19.04519l5.34769,-10.68172l-3.22457,-13.11637l8.17724,-11.21879l15.61568,-5.03872l12.84859,-8.99861l11.73542,-3.97249l12.82369,-9.65369l10.78803,-10.51315l13.04504,7.536l18.19262,-6.99473l18.08965,-5.25409l15.12903,5.23094l11.05012,1.95539l14.267,9.24785l12.73955,5.6036l14.6845,-7.01568l18.02567,1.52859l11.22493,4.5979l15.61167,17.93057l9.80817,11.77405l7.10241,11.92263l15.65452,8.32937l15.95882,8.62776l5.80285,15.74974l5.71311,18.44009l3.87127,15.4131l1.04979,13.17133l-0.45852,13.61295l2.65836,2.04266l0.14815,15.79295l-2.28833,22.49132l0.18195,13.22806l-0.65338,14.85783l-4.25444,9.76991l-5.56387,10.04986l-5.1783,12.54146l-14.2224,13.52449l-16.81675,11.57374l-6.78218,10.54463l-10.08873,7.92331l-14.18736,14.8444l-11.24609,18.96398l-18.42737,4.34786l-15.02855,-1.79817l-12.44252,-0.2229l-14.09269,-1.86238l-9.45583,3.25205l-13.73517,0.89455l-18.96805,0.06826l-20.66077,-7.25961l-13.683,-2.10014l-13.35688,-6.14599l-8.83067,-5.34776l-13.96829,-0.71104l-13.36993,-4.79017l-12.5425,-12.53115l-12.76544,-11.19283l1.74236,-17.66373l-7.7222,-6.53657l-10.42196,-7.30502l-6.49643,-21.29741l-5.96081,-11.37997l-7.54958,-11.99986l-1.94432,-21.50258l0.11008,-14.49304l0.48871,-20.64049l-0.68913,-7.54761l4.80103,-6.22512l6.44709,-18.93268l5.64568,-25.62909l6.59248,-17.44539l10.04634,-12.04408l4.29335,-9.56536l1.77855,-18.9555l15.62667,-7.05854l13.22517,-7.10328l9.67768,-9.26917l15.35034,-5.90742l8.02928,-12.03955l14.66828,2.88647l14.9419,5.8269l17.96087,-11.56923l19.70703,0.49314l14.74366,-1.65541l10.57582,6.12114l11.6354,9.02507l14.40956,1.36025l13.02349,-4.05775l18.88262,5.45933l11.06756,8.98376l16.51575,10.92989l8.65411,11.23694l5.53745,16.2541l16.24339,6.06609l15.05223,9.78095l4.81333,14.18391l7.39507,18.10925l4.44107,11.98203l1.58891,17.64722l0.60928,13.47957l5.64117,6.34798l1.57784,10.1026l-4.26217,15.78387l-3.42766,21.70403l-1.30512,16.72008l-0.43431,9.25597l-7.29969,10.36199l-5.26722,11.36086l-4.26582,14.8489l-18.58746,7.54616l-13.34883,13.59832l-8.41672,13.76617l-5.90684,9.15542l-16.60293,15.23143l-13.4733,19.62949l-16.64403,-2.37184l-12.15973,-6.68881l-14.36294,2.65986l-11.22506,-0.69958l-10.83737,9.75407l-13.71716,-1.52264l-21.95676,-6.96739l-19.18953,-4.02746l-11.57375,-1.5235l-17.3146,-5.24847l-9.34127,-7.80765l-12.91091,-1.4678l-10.3787,0.165l-14.55284,-9.33886l-13.84607,-14.59492l-5.03486,-17.77835l-3.39709,-10.34264l-10.77475,-3.14086l-6.74144,-13.77348l-6.48655,-21.0476l-7.65154,-10.49243l-4.50393,-18.2934l0.07296,-16.69169l3.35849,-9.63472l-2.69045,-19.94439l-0.94597,-7.35071l3.7147,-11.66478l7.23355,-22.52192l6.75747,-22.29187l6.23134,-13.98347l10.16053,-9.7825l5.02213,-12.30347l3.42572,-19.8392l13.64295,-7.58981l13.54165,-6.40575l13.96922,-9.88446l9.698,-6.5429l9.91444,-9.52452l16.44049,-2.34045l12.8946,6.36715l19.5299,-9.31878l19.7266,-4.09222l14.50046,6.41387l11.87348,-2.97278l12.67885,12.96121l14.07413,3.29925l10.63425,-4.48359l15.50672,2.57143l17.07193,9.68403l16.30929,9.25056l7.14178,7.70923l8.6814,13.57528l8.56893,15.95051l18.38525,6.17043l10.63762,12.74814l4.23117,12.9879l5.47543,14.03932l5.34773,10.1428l1.65474,16.77653l3.01226,13.52259l6.02807,8.42364l2.21904,12.14576l-6.16984,13.55752l-2.73897,22.3489l-2.07981,15.66792l-2.53239,13.76117l-4.70507,7.8999l-5.30248,13.92697l-5.24183,13.45706l-12.13468,8.39522l-16.56034,12.14085l-9.47019,16.02066l-5.76998,12.97682l-10.37739,7.066l-17.41629,19.83157l-17.56517,5.41185l-11.89659,-7.95347l-13.14347,-3.39394l-11.84739,4.23624l-12.30555,5.52261l-12.45415,9.47041l-17.15924,-5.98044l-17.6363,-8.61051l-18.11271,-3.9847l-14.71966,0.81075l-16.83989,-4.25253l-9.15801,-7.27631l-8.10292,-0.50877l-12.60811,-4.29428l-18.94238,-8.80112l-11.66925,-13.71356l-2.99576,-20.20799l-6.26483,-10.44236l-10.33772,-3.49455l-8.76565,-7.72904l-5.6361,-22.67033l-5.40552,-17.9956l-6.164,-12.59917l-0.17182,-18.92303l4.50765,-9.4694l-1.10117,-17.4547l-3.03435,-12.12128l0.88902,-7.75003l6.47726,-20.17437l2.98971,-21.36955l8.42942,-17.34836l8.03815,-3.61498l12.17327,-16.94508l2.81562,-13.41236l5.46375,-15.90948l14.97827,-7.03339l19.00313,-5.13544l8.4003,-14.45862l7.62707,-8.12003l13.08636,-8.74663l16.93801,0.66347l10.95206,2.72348l19.13187,-9.28547l18.49815,0.49436l16.97967,1.28571l13.99326,0.02165l9.86283,12.00059l14.83883,4.28456l11.98119,-6.06511l11.68009,2.88132l17.40824,8.58089l19.42643,10.72816l12.29023,6.33911l1.8464,10.26473l11.04038,19.96623l18.56223,12.41196l10.33089,8.75705l3.20174,7.34382l4.44747,13.29196l7.31054,9.80957l4.60478,10.63245l0.93336,19.55543l6.05099,11.98179l5.67667,10.44784l0.2783,11.69884l-5.65374,16.96773l-6.21599,19.75572l-0.76187,16.98608l-4.95469,12.51409l-6.70158,9.11073l-4.0828,16.41124l-1.63967,15.97585l-10.18605,4.58792l-19.78554,16.26403l-10.8899,14.82224l-0.60387,9.58945l-11.93412,6.66752l-21.91234,13.00168l-16.49946,10.6012l-9.2743,-6.25151l-14.09454,-1.77859l-14.68653,0.7726l-7.92781,11.63374l-15.87677,2.63657l-15.87631,1.84236l-17.78334,-5.73907l-18.11311,-7.11691l-12.9336,-1.12919l-12.42311,-4.23922l-20.80621,-2.54704l-7.14001,-6.84127l-3.83412,0.0083l-16.43478,-4.62107l-21.35474,-19.31834l-6.13024,-15.13771l0.28763,-18.02456l-11.7234,-4.77123l-13.08355,-0.54809l-9.43018,-11.9721l-3.39999,-22.81098l-6.13968,-20.97175l-1.42099,-13.56365l0.23662,-17.99677l2.25059,-8.54101l1.49395,-19.23556l-3.08342,-9.49115l-2.23443,-8.80826l4.18946,-18.85518l2.115,-20.64827l7.91659,-18.30295l9.67837,-3.66325l18.83626,-13.7805l6.30808,-16.60723l-1.36144,-15.23203l8.8862,-6.93479l25.68683,-2.80699l10.1594,-14.28548l1.09258,-10.9818l11.82918,-10.08973l19.77651,-2.94205l12.24112,-3.56984l16.78344,-1.60223l19.30692,-2.92952l14.887,3.03019l14.03796,2.54173l14.45032,2.63464l10.83997,7.94193l13.81571,2.02084l17.07302,0.13687l6.91292,-0.93198l16.78442,11.02991l24.01981,9.11487l14.0462,10.73625l-4.12727,10.05306l13.79747,17.59382l22.61816,14.96394l9.45238,5.66129l-3.85403,6.09898l3.66184,9.03048l4.03714,12.86877l7.87769,10.48172l6.37831,18.63483l6.73206,12.86306l6.08307,11.75828l-0.7009,10.92559l-3.23215,14.82966l-5.12227,20.03857l-7.58079,16.52131l-5.89484,15.92828l-7.19359,7.82902l-0.43377,15.42638l-2.15875,19.14801l-0.52614,14.65186l-16.06776,3.59892l-16.31057,16.75727l-8.42716,11.78022l-1.41425,6.99426l-21.72666,10.29381l-19.71456,8.96675l-11.92676,3.33034l-15.40536,3.29726l-12.54551,-1.78014l-12.77647,2.26105l-11.10636,11.71004l-11.91263,-0.79985l-18.96716,5.25818l-17.85745,-6.85013l-14.55728,-7.35l-17.69774,-2.87704l-11.83652,0.48382l-17.31493,-3.0278l-9.68868,-10.21762l-2.64479,0.26704l-11.01838,-5.8515l-26.3237,-15.95404l-7.91502,-19.0808l2.58222,-15.564l-8.01308,-12.39097l-21.13226,-1.08156l-10.00637,-4.23267l-9.92762,-19.68857l-1.8212,-23.50032l0.09025,-12.25828l1.72587,-21.34471l2.94956,-7.26886l-2.24542,-12.54925l2.96655,-14.524l-4.95045,-14.079l-0.26915,-12.42616l-1.34434,-17.82942l4.74103,-21.14924l12.29435,-14.44598l8.54564,-2.71484l20.16036,-18.21078l6.02844,-12.00116l0.35756,-16.64111l7.8667,-5.8247l26.27221,-3.87218l6.91786,-12.59469l3.45443,-15.49688l12.24959,-4.97615l16.80203,-8.18399l12.22877,-1.4159l20.4803,-4.77938l13.50424,1.9255l18.63136,4.47756l17.03295,-3.0775l9.98938,5.90827l14.70683,6.64738l12.07469,3.99363l12.74204,0.80866l12.10581,-0.8171l15.92093,6.51888l16.31572,9.79558l23.01519,11.16219l1.85718,5.95571l8.97351,16.1434l17.05464,14.15714l15.36167,18.05185l4.71928,-0.29213l0.70919,4.9258l-1.63059,9.83637l3.78058,16.83717l9.0859,11.23709l6.18622,10.87325l12.21873,16.26247l0.48281,15.0764l-0.15397,11.37789l3.25892,15.74067l-12.71811,17.38599l-5.64178,17.08954l-11.23929,14.30406l-2.19407,10.85829l1.29126,16.20907l-4.23372,16.69463l-0.53063,15.98191l-12.65887,4.4041l-18.52785,14.54662l-12.44505,12.0416l1.00443,9.14363l-18.16589,3.81465l-19.55797,11.0275l-15.01325,7.12996l-10.84878,8.47209l-18.16846,-2.84149l-4.75597,1.23315l-19.29339,8.1847l-11.41483,4.49068l-12.09041,0.57654l-19.42185,0.25281l-17.37131,-5.60267l-13.84156,-7.50725l-19.64283,1.85911l-14.03502,-1.18852l-11.07399,-4.49489l-12.20435,-8.3483l-4.28081,-4.1234l-15.86483,-4.92817l-17.2643,-15.4216l-6.69443,-21.71187l-2.46142,-13.46344l-8.12553,-13.68572l-15.07313,-2.73253l-14.89686,-3.46234l-10.97207,-15.15843l-3.56911,-21.69125l3.38986,-18.55333l0.94337,-21.0071l3.49516,-9.61963l-4.04517,-8.52884l3.06429,-15.6183l-2.58097,-15.31777l-1.68674,-11.52026l-3.51799,-17.19609l2.66866,-16.4686l9.11418,-16.69159l16.48826,-8.77845l13.88354,-8.65417l10.43627,-20.80727l2.60373,-12.15551l3.62517,-14.29811l14.63673,-2.76963l19.65543,-1.98848l5.14716,-17.82015l9.96295,-11.76852l10.34881,-8.38733l16.19122,-4.18129l15.92554,-2.93128l20.2545,-6.42639l12.255,3.65001l17.90784,0.48674l15.12363,-0.27965l11.81227,7.33455l16.82294,5.27538l10.34222,6.79463l11.54078,4.01564l12.68788,3.26696l16.78557,1.30326l15.93223,5.44219l17.33298,8.93356l6.32988,11.57042l6.63559,8.37434l16.2587,13.11849l18.18984,16.86523l7.72031,10.3789l2.90993,5.25246l-3.35493,7.70768l2.66437,17.3392l5.45356,11.58542l12.6493,5.69674l5.19701,17.20006l6.86955,15.39694l-0.86228,12.24329l-0.5285,14.76886l-2.92444,18.98684l-5.20712,16.14337l-12.6813,14.55019l-6.90067,10.16047l-3.14454,15.81988l2.59427,21.13687l-2.9423,11.53708l-0.97421,12.82736l-18.4195,8.83663l-18.64123,13.33411l-7.59042,13.49671l-2.34649,3.36997l-17.56125,7.34512l-16.27314,7.25616l-13.82499,10.34554l-12.57084,6.7665l-20.01313,1.998l-4.04444,-3.53284l-19.39622,3.4579l-13.99711,10.3284l-9.49617,-0.15898l-21.21795,-1.8824l-14.86301,-2.47651l-11.33685,-3.63458l-24.3378,-0.53449l-8.1457,-0.61406l-14.99474,-2.86538l-12.85436,-8.7722l-10.7678,-5.09447l-6.95534,-5.36548l-20.90459,-7.81061l-13.88893,-20.54676l-2.15477,-14.7138l-0.09816,-17.67774l-16.39224,-10.35948l-13.07055,-3.11724l-13.939,-6.99945l-7.13613,-15.47734l-3.35112,-20.13185l7.48792,-22.02984l-3.15223,-11.77475l-0.49486,-11.71648l1.52688,-14.53253l-0.34928,-17.23165l-0.92316,-11.43727l2.80662,-13.8709l-7.35574,-13.6426l4.12059,-13.99615l6.6013,-16.86722l15.73025,-9.29556l12.59402,-11.83927l14.82251,-18.33529l0.13465,-10.31909l0.92267,-18.24842l16.59367,-5.12928l20.78827,-3.71337l8.12451,-11.06131l7.93648,-11.62704l15.58681,-11.57555l15.32932,-4.30069l7.81637,-6.21087l23.01154,-3.6443l9.21108,-1.4681l15.60864,-3.46653l23.13975,2.77635l7.10281,3.75205l13.67129,9.63036l20.65693,4.65718l6.52883,5.43621l20.25454,3.96682l12.84304,2.25073l9.66795,5.02452l19.24294,0.6501l15.43469,12.52401l3.41681,14.91629l6.31203,7.74023l18.03777,7.79451l18.54376,16.66172l3.47579,12.93749l2.91671,8.92135l-0.57245,10.32011l5.15631,13.31287l3.76925,10.12342l14.93294,5.96469l4.74487,16.17875l3.82668,14.90509l0.27728,16.26785l0.31169,14.79865l-3.35622,20.12975l-0.25712,15.20437l-12.11087,10.61361l-8.24294,12.12067l-4.36783,16.93713l-3.32796,15.94221l-0.67264,20.27198l-2.05933,6.82654l-10.64224,10.96244l-15.81361,12.44982l-16.11766,13.40967l-4.59137,8.04387l-10.08956,6.63437l-13.15024,4.07301l-20.40884,9.8779l-5.72619,12.27384l-17.07893,3.05697l-15.66834,0.03698l-8.3698,-1.51369l-23.63292,4.33722l-8.6536,7.42311l-9.95098,1.57043l-25.10206,-7.44669l-13.0878,2.46566l-11.15057,-0.74873l-19.40114,-2.40558l-7.49633,-1.70527l-18.54527,1.32006l-16.16391,-9.82064l-8.19031,-8.55077l-9.61397,-7.31881l-20.26033,-6.67142l-11.76509,-19.32321l-4.25278,-13.88809l-1.88762,-18.46294l-14.45834,-8.89231l-11.71285,-9.23825l-12.67777,-8.52643l-7.59106,-7.23079l-5.16067,-18.01438l4.91918,-27.39351l0.01149,-9.94727l-3.80982,-10.67194l1.1895,-11.09281l2.06387,-18.727l-2.4558,-19.91526l3.29701,-10.14286l-2.13008,-16.90354l-1.55761,-12.05802l4.0604,-10.71606l8.6263,-14.89054l12.96748,-10.12089l12.13162,-11.51129l12.06713,-17.39708l3.25557,-18.28282l4.97137,-14.63366l11.73064,-2.22939l19.67392,-7.46591l9.37178,-4.13185l6.92693,-12.01859l17.46514,-13.20127l18.42201,-6.79448l8.58089,-6.42628l17.40993,-1.09152l12.20013,-4.37226l12.01598,-1.57129l27.30062,1.24461l5.76436,3.65088l12.38893,10.68003l20.18532,4.71388l11.45315,-0.21052l17.10062,8.54816l14.67959,4.17214l5.70513,4.60369l19.36697,-3.30874l16.13563,12.21102l8.60917,14.54202l5.59186,11.92938l18.34823,6.92691l13.049,9.62094l10.72539,18.70477l4.37296,10.46893l-0.00803,15.60074l6.17319,9.58167l3.66551,5.97414l8.71184,9.54892l11.08864,10.20539l2.85892,18.2676l-2.66152,11.26471l1.90389,20.23544l1.29192,19.30338l-0.37014,17.18353l-2.54587,13.81936l-9.55769,5.31846l-6.96508,14.0449l-6.79782,15.24602l-5.11363,18.55953l0.7698,18.791l-5.52488,11.66063l-9.11136,10.9258l-12.74111,7.97737l-16.74614,10.37847l-10.26818,11.35614l-5.87799,4.55032l-15.2046,9.04156l-16.80683,5.78404l-11.50573,12.84359l-7.10056,5.02912l-20.24894,2.70391l-14.63787,-1.17495l-15.81625,3.75714l-18.4723,1.0556l-2.33181,9.78793l-23.30702,-6.07564l-18.42892,-5.14611l-9.85202,3.64015l-15.0951,0.61383l-12.5323,1.62764l-13.55408,-6.99169l-19.38246,0.91508l-10.00577,-11.37601l-11.03805,-8.20591l-11.77994,-13.63962l-19.31494,-8.06236l-6.07741,-15.84355l-6.02962,-18.12584l-6.48441,-15.86185l-9.75115,-5.03685l-13.55966,-9.96732l-9.99167,-9.5605l-5.21842,-6.76495l-2.9344,-18.0141l0.06001,-24.83899l-1.50877,-6.7745l-7.31009,-14.84366l4.431,-10.99067l0.12909,-19.45058l-3.9004,-21.51919l5.71355,-4.36894l1.95816,-21.23099l0.89648,-17.01107l2.161,-6.55501l4.98734,-13.53784l10.3898,-13.98035l12.99137,-11.91299l8.26098,-12.81764l7.41956,-19.71683l6.09027,-12.89153l7.24183,-11.56219l18.12255,-6.81409l11.5514,2.26538l11.45026,-3.6488l10.27033,-22.00178l17.89576,-10.83958l15.27183,-3.12167l11.32243,-8.25667l14.83842,-1.37957l9.59949,-3.79634l19.94089,-3.20103l22.08428,3.72738l5.2631,3.54732l13.78011,11.3247l18.16893,1.32379l15.29709,-1.25267l19.00933,11.95832l7.47953,7.49415l13.20695,3.0304l16.02289,-3.63971l13.44963,10.91471l10.66352,16.29293l6.8483,9.5702l13.75337,11.47599l12.68139,5.47998l12.42121,16.02137l9.76494,17.92313l1.89202,16.55308l1.38163,8.38134l10.66843,-3.18477l7.91718,17.08152l4.50018,7.78697l2.86407,18.79075l0.838,14.54998l2.36149,16.9218l0.05953,19.19713l-2.19981,18.23721l-0.92027,16.907l-2.52197,8.87098l-3.81969,10.28386l-7.28546,15.45466l-11.23994,9.73696l-1.37429,22.4283l-1.77507,15.96486l-10.04125,15.99294l-13.61011,10.62249l-11.26478,1.32262l-12.75198,16.0941l-7.77775,7.64667l-10.6366,5.25223l-10.59447,5.73977l-17.39783,7.01452l-13.63066,9.42969l-5.91075,4.83092l-20.75649,6.85511l-17.57658,2.48495l-13.98947,1.18918l-16.05038,1.61428l-4.41778,4.80417l-17.3528,-6.19239l-25.59216,-5.06928l-9.93573,5.61069l-15.75369,1.78293l-12.28945,3.98156l-8.33995,-6.32728l-21.98191,-2.52676l-9.51045,-7.40506l-13.7461,-11.5616l-12.04567,-15.25454l-16.32893,-10.79603l-9.41308,-8.80009l-9.26449,-14.07182l-7.98669,-18.09525l-10.44367,-10.76548l-3.2031,-8.71431l-13.35123,-9.31921l-7.54856,-7.01795l1.08734,-9.95244l-7.48936,-20.43064l-3.58561,-16.71282l-1.82587,-8.52373l-2.30508,-20.41708l-3.68786,-13.78169l3.1352,-21.3847l2.4386,-11.29316l0.91294,-11.62287l3.09801,-19.51428l9.94363,-12.9505l-0.98162,-13.41776l3.36984,-9.94573l10.31526,-15.52183l9.19484,-11.1218l7.24905,-10.53002l4.17284,-17.86171l11.74696,-16.82715l6.4434,-5.88046l15.09451,-11.34537l13.96425,3.504l17.58671,-4.31536l5.64734,-17.59382l16.43613,-14.00661l19.52703,-5.92072l7.63379,-7.92815l10.45772,-0.39514l15.73471,-2.59191l15.61885,-5.76486l25.85149,-0.73749l13.35658,-1.02818l3.53616,8.92556l18.37418,9.92431l13.28554,-4.33799l17.07285,5.78059l20.48011,12.79345l8.05131,0.80373l13.12381,2.01319l15.77375,4.67235l7.28123,12.4226l8.97873,15.82523l13.36925,10.95922l11.37224,4.47286l9.49336,8.19856l11.71931,17.84527l13.20584,17.43792l3.02187,14.52866l6.24049,9.53466l11.53207,-2.0141l5.28235,18.37496l-2.36326,11.21935l3.7537,15.43637l2.17412,17.51591l0.5311,15.50719l-1.05525,18.79456l0.93954,15.35167l-2.83981,20.68655l-3.55865,13.61148l1.61512,10.82405l-2.43472,19.16605l-11.65355,4.64945l-7.26516,17.85846l-3.09945,21.04724l-13.55369,10.15799l-9.93831,15.72943l-12.24762,0.86298l-7.58081,14.54402l-14.74889,13.86526l-8.58603,2.18379l-8.62713,3.75869l-12.36335,3.93284l-12.84002,6.89927l-10.47002,12.0401l-15.00561,3.32991l-19.51087,6.4335l-17.60172,0.79006l-16.32157,4.04659l-4.09299,2.48681l-12.21082,3.43304l-18.19625,-9.45087l-25.61337,-1.93621l-13.5735,0.60417l-11.04921,8.57623l-8.56027,0.90003l-13.74681,-4.56785l-17.07822,-9.35977l-13.90353,-5.81579l-14.16072,-12.79125l-15.82214,-15.82883l-14.70245,-14.78598l-6.94169,-2.62971l-14.66056,-10.41742l-7.28184,-15.56932l-6.56611,-13.08206l-2.18455,-10.6385l-11.42446,-11.69811l-4.10502,-7.1294l-0.49311,-5.66991l-7.65262,-18.53787l-10.85721,-14.78071l-3.82267,-10.67429l-0.60631,-23.73151l-1.07059,-17.93567l-1.18674,-14.95229l2.43631,-15.81067l-1.25563,-11.19457l3.59671,-13.59902l10.38956,-18.52083l10.21873,-14.95375l0.14883,-12.49528l1.96492,-8.20479l10.63145,-15.15679l2.9062,-9.76176l6.75464,-13.33268l4.03521,-19.17102l17.80646,-10.57005l5.95252,-4.98155l12.79474,-9.87039l14.13987,-1.52952l20.29099,-2.40743l9.58137,-19.85229l18.72161,-13.74134l15.40238,-4.52888l5.63303,-8.87813l10.34295,2.76508l13.75156,-2.13889l24.59744,-7.63343l20.36336,-4.06768l13.24289,0.51283l6.7677,7.04526l13.09249,4.20175l13.66082,-0.43511l21.27165,3.51191l18.96902,13.90598l11.85343,2.29078l10.00201,7.18495l14.64025,3.10629l2.39522,11.80648l12.81526,16.13262l11.27446,12.83057l14.62268,2.45355l3.32261,2.74472l15.70157,11.83395l12.6628,23.0332l10.44048,17.49997l6.25992,11.42164l13.51809,4.41656l8.85808,6.28053l-5.21386,15.35169l-3.58154,15.63239l0.21804,17.05032l5.35534,13.80609l-0.84096,18.89317l1.17844,11.03147l-2.32115,20.02023l-4.67736,19.63044l2.89891,13.65453l5.1243,15.6239l-2.01096,16.12645l-10.92729,10.16546l-10.98214,14.394l-6.00629,18.49193l-15.42201,12.49719l-10.67789,12.92045l-13.06333,1.91826l-3.95068,17.82622l-16.39437,15.88991l-11.65052,3.02607l-9.04124,-0.39959l-6.46517,-0.10136l-10.21887,8.32141l-11.45816,12.86285l-12.07018,6.53846l-23.8511,4.44037l-20.36274,4.22163l-15.66801,0.51961l-4.09651,2.71748l-10.85745,2.54173l-15.81806,-1.30607l-23.14249,-10.44745l-18.9605,1.66303l-13.29149,0.94809l-6.57637,8.05609l-8.96079,-4.42905l-16.64377,-8.32573l-17.62597,-12.06248l-13.6099,-0.62868l-22.64317,-19.79137l-11.24333,-8.79412l-12.4855,-12.68747l-3.89841,-3.76918l-18.81958,-11.51936l-5.78245,-15.31771l-4.1105,-9.75703l-3.27984,-13.91759l-9.91755,-12.14684l0.2602,-6.03207l2.6502,-9.47515l-12.79557,-11.29382l-11.39996,-12.55828l-10.12349,-16.15243l2.16357,-28.11151l-0.31479,-14.74985l-0.80435,-16.01958l1.41808,-15.80938l-3.25547,-10.00943l9.042,-11.98934l10.01477,-15.65742l16.34909,-20.95221l-3.79782,-13.23696l-1.14937,-7.22693l10.3077,-13.91553l2.63952,-9.08586l2.44318,-14.21262l9.44652,-16.1719l12.67233,-16.86969l7.29355,-3.45659l10.67886,-4.3068l10.90278,-9.59156l22.23603,-2.09903l16.86956,-11.13032l15.0548,-12.73384l15.13967,-12.45424l12.33242,-5.8236l7.10144,-7.16221l9.0184,2.87246l16.83815,-4.44813l25.28534,-7.29586l18.65219,-3.61847l10.89886,5.917l4.62388,2.02749l13.1514,2.2009l20.36021,4.13978l21.91032,2.61813l15.05926,12.28653l13.08461,3.04657l12.42341,8.07522l7.88043,6.97188l3.13241,12.63085l12.40294,17.66203l12.94897,6.77053l13.66668,2.30914l9.16234,0.81808l7.41018,13.87366l13.81964,22.36345l13.96908,20.48873l3.86894,11.23578l13.94454,3.84228l16.25615,9.07462l-4.88598,13.71127l-5.42399,12.75129l-3.98345,17.29175l5.7132,12.70699l1.65074,17.85738l0.07653,15.61773l-1.19871,15.03076l-5.48793,22.79287l3.28208,15.62328l5.2402,17.28431l6.99125,15.9038l-16.87716,6.842l-13.35499,10.9123l-4.12195,20.83116l-13.54477,13.35028l-13.34174,13.43865l-6.46581,12.07312l-11.21862,5.42613l-11.52432,14.58749l-13.73334,20.27157l-12.11985,-1.01682l-5.38777,-3.2766l-5.34109,-0.75159l-11.51955,11.74522l-15.04556,13.23651l-12.20047,11.69955l-23.89239,-1.37063l-19.01167,4.9071l-15.13896,0.25643l-5.89608,-1.83496l-10.22971,4.64754l-17.37852,-1.48917l-20.32635,-8.26213l-20.56177,1.23528l-11.51716,1.79635l-8.29177,3.35854l-9.36251,-2.653l-17.26976,-5.123l-10.56929,-13.83199l-16.27637,-5.06677l-24.59112,-14.47633l-13.1193,-14.98369l-11.41328,-7.23781l-6.9703,-6.45465l-13.90257,-11.40367l-7.86949,-9.92513l-9.39276,-8.58787l-2.01964,-19.52901l-5.95282,-8.13569l-6.34652,-9.92476l0.67404,-2.97834l4.17664,-15.3382l-17.28895,-8.38031l-10.59397,-15.82998l-6.42947,-20.58545l0.79499,-24.3234l1.64216,-10.83351l-2.48833,-22.61319l-0.13386,-12.44837l0.36442,-11.59356l11.20227,-10.91255l17.61521,-17.41049l5.02376,-19.68344l-5.47661,-13.18661l1.03533,-5.18299l9.16722,-14.72318l-0.39747,-11.6631l7.9851,-13.83097l12.32944,-14.36653l12.66498,-14.96325l4.20576,-2.24101l9.23509,-9.32248l13.48995,-10.44978l19.8949,-2.82296l21.1094,-8.22893l12.66234,-13.95589l11.63176,-7.21416l14.88764,-10.90357l6.87846,-4.56133l12.17116,-2.38976l13.78328,-2.75191l22.02165,-4.28634l19.31585,-5.52592l14.28949,2.63075l8.05102,8.53552l10.37597,2.08384l18.07556,-3.169l19.5672,1.82934l17.40278,8.06266l13.97262,8.75305l17.11732,12.48474l11.45877,4.49571l1.4218,5.15372l8.29821,22.37211l12.22851,10.89288l16.38353,0.7533l8.20355,1.22368l10.88116,3.24377l7.53718,17.43764l13.24103,25.13116l10.84686,17.12403l5.82885,8.59375l12.60066,3.27528l18.24819,18.60658l-3.40842,7.33597l-7.35648,16.50916l-2.62415,16.72155l2.51055,11.14193l3.45313,15.56622l0.11317,16.27227l-3.43304,15.41815l-2.17893,21.01784l2.54434,16.89548l7.43723,20.44194l3.6578,16.10222l-17.99502,6.22122l-13.04336,11.62634l-5.843,19.31475l-9.65633,10.46019l-13.45585,15.09345l-8.19696,14.61094l-9.21944,7.84727l-7.5767,7.87041l-18.62821,23.56252l-12.15883,5.4078l-7.40537,-0.6893l-1.84208,-7.36397l-11.27896,7.37886l-17.4342,18.01738l-13.55776,10.09735l-15.95432,5.15067l-17.50196,-1.95026l-21.80993,4.18597l-11.23785,3.28237l-7.53312,-0.63984l-15.25378,-1.62404l-15.2794,-2.09135l-23.4651,-2.76291l-16.39409,-2.07306l-6.63176,2.4919l-12.43213,4.30714l-13.62672,-5.43004l-13.45686,-5.85176l-10.24389,-12.30712l-16.52429,-8.88058l-22.93941,-15.02709l-17.69973,-10.27203l-8.18419,-7.84604l-0.51773,-7.14482l-14.76822,-12.11446l-12.70701,-9.27106l-9.52118,-14.05335l-2.06834,-11.15263l-6.84545,-11.84749l-9.37767,-8.82191l3.14104,-3.27056l6.77404,-15.5948l-13.67735,-12.3906l-14.09385,-15.81172l-7.08332,-16.72592l-2.22174,-20.91221l6.25747,-12.65176l-1.32813,-18.3301l-5.53447,-22.34143l2.72105,-13.71883l8.35672,-8.29959l13.39672,-14.35104l12.76948,-17.65406l-7.86855,-17.20068l-3.27591,-11.61797l9.76915,-8.90845l7.40765,-11.77895l2.71851,-12.45075l9.22252,-10.04916l13.60535,-16.6414l13.66022,-13.30121l-0.08286,-1.03053l7.98474,-11.52767l18.89556,-8.93955l22.39305,-6.93947l14.7541,-7.67836l10.37764,-7.35593l14.47624,-7.38312l13.61583,-11.21201l13.91844,-8.28678l6.16399,0.65677l14.80649,-4.61688l26.87913,-3.65381l11.00199,-0.52324l18.08647,4.84616l7.89273,5.9451l10.0217,1.45323l22.50744,-7.00114l17.39954,5.16088l15.65922,4.16289l11.81621,13.23215l14.41444,8.28541l15.58115,6.82286l4.32039,2.19877l7.7175,22.55132l5.59528,10.45719l23.67938,3.47573l12.19858,3.78117l4.75357,1.66715l9.10919,8.25647l11.53488,24.53526l9.86886,21.3138l4.42146,8.38933l9.50686,4.50729l17.54476,15.73195l11.96834,15.38934l-6.35961,14.27864l-7.57735,16.0866l0.10988,12.25566l1.89235,11.65298l14.00786,17.361l-11.52627,13.18976l-3.86291,19.06841l-1.35579,14.12671l8.76547,26.97708l3.33052,18.29157l-4.30384,12.95987l-19.69278,3.68991l-11.98591,10.90238l-3.97631,14.57096l-6.48656,14.47114l-12.57797,17.68246l-11.20568,14.82599l-3.22917,6.19986l-9.33268,10.85035l-22.54422,22.57428l-11.10181,6.70526l-4.89016,-5.10566l-5.14294,-2.34016l-15.10002,4.0277l-14.75958,17.35676l-11.16115,10.16165l-15.56379,7.0254l-14.77993,-3.12323l-23.33688,7.54354l-13.17691,6.06804l-4.9696,0.86796l-18.26406,-4.9615l-13.25234,1.37919l-19.77259,-5.70331l-21.14161,-2.43978l-7.14952,-1.70046l-12.43874,4.19347l-12.59875,-0.1666l-16.58733,-6.61845l-14.64562,-5.59964l-10.08136,-11.01532l-17.86777,-13.26095l-17.40509,-14.54945l-19.51377,-9.38835l1.96339,-12.33836l-9.08992,-4.76477l-17.77219,-12.27792l-7.81408,-9.90337l-4.54866,-18.03158l-7.85561,-6.96715l-13.50592,-10.43534l-5.60091,-6.28931l7.01688,-8.94545l5.58262,-15.87829l-13.38656,-16.05227l-10.41192,-15.69467l-10.15602,-16.84832l-3.48997,-15.18571l13.09592,-10.74217l-4.78817,-18.27711l-7.06495,-26.60689l2.35624,-10.77544l12.82099,-10.11572l9.05642,-15.87682l11.93727,-12.84748l-7.88508,-20.7125l-7.47026,-10.32731l10.8459,-12.51126l13.59925,-10.73142l6.34504,-11.84072l4.97169,-12.57757l11.79268,-13.74276l14.23323,-13.97835l5.65703,-7.18348l2.91174,-3.78042l19.90403,-12.60842l16.55328,-7.68411l14.90981,-5.8397l10.59853,-5.20678l15.88657,-9.05904l14.05544,-10.73005l15.37057,-5.9756l10.21041,-9.34811l8.44738,1.23887l23.98383,-4.07683l17.14735,2.25441l14.19038,-0.11035l17.50241,4.54425l4.12007,5.12863l17.09006,-2.81828l20.5448,-4.37213l14.05408,4.02809l14.9106,11.08069l12.43736,13.178l11.4276,6.47842l16.86893,3.97006l5.23381,2.31684l9.31528,21.09926l10.40693,11.16833l22.18526,6.00856l9.22776,5.28477l3.28889,0.86483l12.4647,6.35859l14.60917,24.84934l4.45569,16.99906l-4.31578,9.44071l14.2606,6.8527l20.5817,15.94162l9.42631,17.27062l-1.41677,14.33949l-4.62526,15.91665l-4.68365,13.56763l1.74059,9.84923l13.3678,14.75961l-4.08787,16.81044l-9.67307,12.32746l-1.71719,14.02046l9.19563,29.72631l1.38471,21.96601l0.30404,10.90148l-15.74605,8.85124l-21.977,4.47703l-3.75102,11.95667l3.60396,13.55686l-9.53203,16.97451l-13.99172,17.74946l-8.36408,14.69352l-6.92876,7.64486l-11.31083,16.48314l-21.32404,16.7144l-6.35021,3.58695l-9.72231,-4.42939l-10.34513,-0.6629l-16.95535,4.88375l-10.32475,17.26486l-13.42374,10.09735l-14.07743,4.8063l-14.03886,1.00036l-22.44349,6.51604l-10.32191,4.27552l-7.48256,1.42864l-20.34748,-3.32796l-9.66392,-2.98013l-22.25568,-2.91753l-19.70332,-2.94251l-6.76491,0.35329l-14.92775,0.63512l-14.82726,-1.60471l-14.20338,-6.51688l-17.27751,-7.04407l-9.80668,-6.32884l-14.71613,-15.40664l-15.4602,-11.75523l-17.09325,-9.81909l-1.65816,-15.36105l-10.31013,-8.00106l-13.13236,-9.85719l-11.06625,-8.4445l-4.75417,-18.73384l-5.59266,-11.19018l-19.36732,-4.86853l-12.0735,-10.3568l10.49951,-7.12273l3.77307,-16.95144l-7.31694,-18.2561l-7.53759,-13.14806l-14.40983,-17.0115l-1.28067,-14.2125l4.90715,-13.34415l4.57725,-8.44469l-7.74428,-29.01726l-2.48909,-17.41288l5.2863,-12.14867l12.45353,-7.15526l6.61263,-16.3132l6.2025,-16.07758l-6.0512,-16.18847l-9.65244,-12.04026l17.70099,-12.93209l15.13673,-12.36476l4.7809,-11.99586l8.5593,-11.95174l10.59965,-14.83795l13.44833,-10.46069l7.7452,-10.31634l4.23074,-5.19547l15.73014,-13.91944l19.13203,-4.40831l10.65127,-3.73228l11.2695,-3.11303l18.71152,-13.07799l10.77005,-9.81576l16.93096,-3.96779l12.7904,-10.77939l7.56599,1.1423l21.10852,-2.1045l20.72837,2.00077l8.87774,0.17985l20.86674,6.08659l8.15124,4.07238l10.09835,-1.53762l22.78836,-7.77315l13.18382,5.52938l13.07448,6.8702l15.51871,11.69415l10.7999,9.7508l16.71507,2.49444l13.01706,5.77178l7.69055,7.64045l7.89972,18.66374l21.15333,3.9815l11.0355,15.4764l7.19509,2.29245l9.90834,3.50513l10.31945,10.72379l11.04599,22.47873l-1.37599,10.03173l-1.86338,11.61738l21.61514,12.18253l14.76253,15.68496l2.07557,15.59533l2.05242,15.58914l-5.08611,14.70963l0.48571,11.55933l4.64985,15.33284l6.03088,15.5266l-2.67466,9.79437l-6.01818,12.14449l-3.70181,15.3558l5.84253,29.93693l0.51279,20.28121l-3.13309,12.26456l-9.72192,8.65309l-21.06253,7.36434l-6.48177,11.45475l6.14755,12.13576l-7.27587,15.69035l-13.28061,20.1974l-8.84295,16.58954l-7.36389,8.29613l-9.27751,13.3479l-19.06804,14.89794l-11.77675,7.98471l-7.19483,4.22067l-8.66546,-5.23862l-20.39252,0.48313l-13.85658,11.59931l-10.54645,15.04753l-15.47297,7.38582l-10.56933,3.22377l-21.51055,3.04152l-14.37067,3.11805l-8.80469,4.90745l-15.16412,-3.77394l-15.15074,0.49754l-14.57328,-3.82379l-20.89515,1.52345l-15.54644,-7.06299l-7.61068,-0.09757l-18.33221,-1.34475l-13.09431,-4.4127l-16.84267,-3.22522l-13.33832,-7.34271l-5.99823,-7.34908l-15.68809,-15.82193l-18.03022,-13.24568l-11.67779,-8.96833l-4.44888,-12.71974l-11.58063,-10.76912l-13.49791,-10.80385l-10.4125,-12.31198l-4.99468,-12.40189l-8.40791,-11.24766l-19.44802,-7.82798l-8.92998,-12.29037l7.4379,-8.12999l1.07451,-16.27634l-6.1761,-18.83467l-7.26414,-11.46332l-11.79115,-17.96223l-1.00157,-16.31311l2.00185,-9.78325l2.73497,-11.41779l-2.28716,-20.69255l-2.22635,-18.15391l-0.373,-14.99823l11.68297,-8.10006l8.06659,-14.52079l5.38518,-13.12366l-0.38158,-14.97405l-5.46425,-14.93179l5.09417,-15.47381l19.53681,-14.9103l9.52958,-15.06231l3.26871,-5.04089l10.65976,-15.18353l16.53029,-17.01706l9.04299,-7.51853l6.39726,-3.03928l11.96271,-12.82966l14.76963,-16.12121l14.38335,1.74907l8.25271,1.23692l12.43154,-12.22866l17.03563,-15.71533l12.19723,-2.74202l19.05527,-7.88254l7.10227,-6.00768l14.95222,0.42781l19.89219,-1.73517l16.30302,1.59626l13.0368,0.58956l17.40865,10.37297l9.7536,0.47581l12.0941,-2.76125l18.93726,-5.73684l16.06436,4.98294l12.56167,7.54162l14.93639,10.29428l14.41437,13.49804l16.31855,0.99086l11.49345,2.14548l9.71963,9.13082l12.78425,12.69489l13.29633,13.35094l13.44523,11.42198l8.37432,10.9149l7.0132,0.5579l9.14436,8.52089l14.22985,20.4289l1.35479,10.77115l-4.32642,13.42089l17.27424,10.3127l14.65968,13.99877l4.02429,14.37723l3.05925,9.4912l-3.28994,20.98534l-2.929,12.59422l4.63614,20.98184l4.50644,11.19725l1.06903,13.12607l-5.06024,9.88647l-4.73933,10.39443l2.5607,21.12825l4.44992,29.98301l-3.09263,16.19879l-3.40331,8.13602l-12.95356,9.312l-16.6751,12.17232l0.86093,8.17379l-0.98566,13.77125l-10.86165,14.72261l-11.09132,20.38146l-6.86212,14.71006l-4.94973,4.55899l-13.64735,18.85838l-13.58152,14.66018l-12.76689,9.02231l-10.11145,4.18896l-11.17687,-4.28396l-18.4561,-0.78268l-11.60071,11.00279l-12.87804,15.8164l-16.10447,7.36253l-12.97105,5.07723l-20.82051,2.02366l-14.03929,4.44408l-10.73345,3.18995l-13.55386,-3.39142l-17.04634,0.36485l-13.65218,-7.93111l-19.09043,6.37765l-18.71139,-6.93785l-7.82872,-1.71029l-10.76531,-2.66404l-17.70085,-5.61056l-12.79321,-6.58806l-12.94861,-5.96149l-10.79637,0.26761l-14.8276,-15.9831l-15.05187,-11.50116l-9.38352,-13.1106l-10.77605,-10.78195l-10.16148,-5.97226l-10.58316,-13.76466l-14.46743,-11.87494l-7.2751,-14.08476l-4.50692,-9.98456l-13.22903,-11.65388l-17.68054,-10.15539l1.43912,-10.68316l2.86703,-10.09037l-5.7887,-19.55999l-6.60712,-13.79871l-9.19166,-12.1812l-9.70992,-23.75557l4.19952,-11.06876l-0.98627,-12.73563l0.55364,-13.19792l-0.0663,-19.12059l-2.0881,-13.35157l-0.20442,-17.85951l10.96123,-9.42055l9.01925,-15.11842l5.70024,-8.43412l0.97436,-13.0866l-0.77559,-17.614l3.76117,-15.73971l18.34655,-19.87387l8.72724,-16.79289l5.55536,-2.34143l8.3246,-11.76637l16.1481,-17.55817l8.93502,-9.16269l8.9717,-3.20572l11.68927,-11.7142l10.09959,-19.42334l14.74266,0.40395l12.82892,2.35218l11.91522,-6.74746l14.28999,-16.07073l10.65959,-7.43854l22.90404,-1.94096l2.61765,-6.71439l11.93017,-6.76494l19.38632,-2.61532l18.45281,8.08187l13.59918,-3.50023l17.46168,9.12876l11.32931,4.20034l13.30419,-1.02565l12.3711,-0.2448l23.63535,-9.3543l13.31368,8.9184l14.24744,4.094l13.70377,18.66147l13.12013,6.67507l16.6961,2.96182l9.37447,-1.21846l12.4907,11.14419l13.25162,14.77768l13.76965,18.87117l14.52476,6.85394l5.11011,8.51806l5.8354,4.36428l16.77322,13.9425l8.46879,15.88062l-1.26812,9.78427l3.49034,14.94685l11.60286,10.73981l12.22184,7.32222l4.20567,12.24407l0.63624,13.87104l-4.65254,19.24051l-1.25259,13.97075l9.09886,22.34411l0.60971,11.94999l0.83325,13.79723l-0.54433,11.25266l-6.65443,6.55159l-5.62994,19.37144l6.00139,27.40277l6.01837,22.24454l-5.02105,10.48337l-9.91449,12.74776l-9.04238,6.33265l-9.76847,11.49558l0.69323,10.10432l-5.84444,13.49592l-9.97674,16.6622l-14.30863,17.65297l-4.48081,7.61035l-11.35892,13.48755l-11.78301,16.14815l-11.22698,12.22703l-15.48382,7.6879l-10.48966,4.1933l-12.9292,-3.43452l-14.78907,3.63013l-14.74136,8.47066l-15.08867,13.43173l-5.3906,4.02954l-27.08882,8.04226l-18.60227,1.9923l-10.55565,7.70117l-11.0607,0.83769l-17.12134,-4.60963l-13.76321,-0.52419l-15.7334,-5.53553l-16.9531,7.57089l-18.82189,-8.03862l-8.50451,-7.18447l-6.31855,-1.25249l-21.33225,-6.57386l-12.34359,-8.26933l-11.33228,-2.88451l-11.64565,-2.5926l-15.39601,-14.54371l-14.30427,-10.74375l-7.65839,-9.50789l-12.30669,-9.01347l-10.02216,-6.92434l-12.57969,-15.5544l-12.94802,-9.9077l-1.74506,-13.52876l-9.62408,-13.90396l-11.91793,-10.84119l-13.72016,-9.44808l-2.50783,-13.7684l-3.74512,-10.31196l-1.54337,-16.58578l-2.34926,-11.25818l-16.70906,-15.74047l-11.27446,-18.41509l2.76833,-17.68869l4.00781,-9.29506l-1.81689,-10.76679l0.02941,-14.59106l-1.721,-21.11054l-2.55459,-15.68441l4.786,-15.72241l12.53545,-10.74994l9.08678,-14.25698l5.5353,-6.52138l-0.07703,-16.54201l3.93687,-16.2336l5.81837,-21.41163l16.73901,-18.58377l7.42585,-12.84833l4.66461,-3.03367l6.17203,-14.74746l16.80134,-11.18883l11.20436,-11.02372l9.25436,-5.29559l10.35144,-10.39659l9.52301,-22.86985l15.93328,6.45348l12.76391,-0.14844l12.06125,-1.94203l12.03825,-14.9638l13.25154,-7.80673l22.29025,-4.40527l1.48637,-7.23413l13.21699,-7.63952l16.65591,-0.3673l20.53995,5.08236l10.97261,1.05514l16.70471,5.88455l14.39484,3.62608l11.57548,2.45097l12.66964,-1.81676l22.63157,-10.72699l18.40007,4.21474l8.98499,7.05277l16.32082,13.9959l16.95562,9.91535l14.69042,4.1356l9.38484,-1.03443l11.42507,6.68896l16.47329,15.09868l10.74792,18.73451l11.93146,13.25377l8.5765,8.64929l6.47557,4.76992l16.88938,12.09199l8.52711,16.88217l6.65292,7.78384l0.45963,14.76238l10.36976,8.80329l9.06138,10.01111l7.09517,5.39894l7.44962,15.05713l-7.09813,18.70432l-5.41591,19.95351l3.92319,12.22436l6.17779,21.41265l2.02473,11.42834l-0.3347,17.67582l-2.34565,5.86578l-5.52756,11.26613l-3.0431,20.35966l5.58084,29.933l6.34874,16.69495l-7.24193,8.5084l-6.66631,17.22535l-9.49389,8.18919l-9.56218,11.32427l-0.16619,6.3641l-7.93238,12.38812l-8.85501,14.06264l-17.3717,17.97862l-4.79171,6.52476l-8.8273,18.04014l-11.49538,9.71029l-11.08194,13.08691l-16.47956,8.53777l-10.8865,8.14603l-9.63912,3.6351l-13.88936,-1.00816l-18.05706,5.51368l-16.46317,10.86552l-9.11278,1.81493l-16.39878,11.72301l-23.02376,5.55034l-16.3833,3.91483l-9.38981,1.42052l-14.86686,5.7277l-16.48553,-7.33507l-11.39298,-5.22059l-19.20524,5.31655l-15.83488,-1.50697l-13.7617,-9.02246l-3.84165,-2.47668l-18.60222,-4.90804l-15.77323,-8.38725l-13.20047,-4.36344l-7.00048,-9.29792l-15.96235,-3.92516l-16.57731,-11.16217l-10.62116,-14.11281l-7.99639,-4.41595l-9.45427,-7.57899l-14.12091,-9.35362l-15.32139,-9.88786l-8.8684,-11.45626l-0.55062,-13.41108l-11.605,-17.39272l-8.21021,-9.38801l-10.73516,-9.68296l-4.61851,-17.02376l-4.21928,-10.54256l-5.19677,-13.09085l-1.73937,-11.78764l-15.73595,-15.19326l-7.3174,-20.0297l-2.4679,-9.51752M50,372.11729l1.62668,-5.26971l3.1224,-10.73115l-2.46876,-12.86706l-2.28033,-18.24547M50,304.21785l4.37839,-18.92233l8.99103,-10.05883l14.47693,-12.71829l1.37843,-11.02005l6.17316,-15.70649l0.53144,-10.8051l7.26396,-21.10225l12.72424,-17.28525l6.71596,-18.47929l8.23527,-7.24027l-0.50572,-8.60645l15.49095,-11.78146l14.61711,-13.30204l10.92755,-9.27186l12.02237,-2.66892l7.70955,-16.30579l11.03645,-11.22249l15.94355,4.5241l15.62533,0.46587l5.97562,-8.52648l13.59658,-7.42916l18.08191,-11.42692l17.31876,-6.51626l5.47635,-8.49859l2.22457,-0.31326M313.84982,50l17.07276,7.83774l11.05133,-0.96738l19.05205,1.51259l10.0476,3.5663l13.05501,4.21491l19.69953,-4.56569l23.74296,-9.65898l10.90322,-0.14399l10.60847,13.63098l13.5055,8.5511l21.47122,12.16482l10.93396,5.50216l9.53098,-2.01647l14.88586,8.53197l16.01265,17.4027l11.18417,17.4191l11.49317,15.88876l5.9451,3.73158l3.95212,10.47403l18.49073,13.441l11.79839,11.90243l8.14111,7.74329l5.30161,13.36001l5.15438,10.59386l11.40551,8.6664l4.64823,8.03972l5.59727,12.85766l-2.99166,17.46091l-2.79669,22.36377l-0.70482,12.44722l0.99568,15.48982l5.95812,14.61948l5.21977,16.33337l-6.93919,12.94196l-4.77798,11.18349l0.108,14.7748l0.64793,21.72029l7.04264,24.52848l-3.68421,12.1312l-6.57726,14.9019l-4.05796,15.96686l-10.30437,10.93992l-3.5307,6.28321l-9.89116,2.80038l-5.21738,11.0098l-13.84127,14.87144l-15.73977,15.99428l-4.78344,15.4569l-4.55215,11.68608l-15.70789,6.59919l-10.16437,6.26632l-17.23942,19.10929l-13.51431,7.67571l-7.78318,6.37795l-16.07387,-5.28654l-17.21522,6.3204l-11.34568,12.97284l-10.68888,3.15421l-14.04342,8.61674l-21.69227,4.4142l-23.59718,8.00096l-4.90186,0.1926M354.61151,650l-14.06248,-2.87605l-12.09608,-1.5709l-23.62656,2.30549l-11.73076,-0.65523l-8.6737,-5.8813l-6.24376,-6.72058l-20.17724,-3.28745l-17.28284,-10.70336l-14.77521,0.88161l-6.38301,-9.9754l-15.14759,-10.73708l-16.29075,-4.32041l-8.15219,-14.30871l-9.42916,-12.1868l-11.6029,-4.77045l-11.16224,-6.09645l-14.65592,-9.72614l-16.05466,-6.93456l-2.98282,-5.5407l-2.73409,-22.49463l-11.30498,-12.40336l-6.07634,-12.13136l-10.53901,-12.66832l0.48397,-18.5249l-8.83252,-7.38721l-6.71053,-12.77494l-6.37155,-15.67951l-10.33464,-14.7226l-1.66194,-4.44375M50,353.65196l0.23652,-0.22237l-0.23652,-0.53619M50,282.15115l1.26475,-3.98372l9.89876,-7.27913l6.31874,-13.52401l6.81906,-11.99482l9.1692,-17.78863l-1.14847,-10.30929l11.02874,-17.10947l5.56139,-19.69354l11.23733,-13.30538l2.12479,-9.88177l3.58618,-6.52866l15.45695,-17.77857l14.06485,-7.12182l13.08056,-7.01939l10.06174,-5.74118l10.70806,-13.53294l6.4956,-12.54164l14.90943,3.5622l16.85706,-4.92824l6.93376,-2.66974l13.20523,-11.86806l16.29987,-8.03521l21.72567,-9.55356l3.204,-3.52457M317.06429,50l8.487,4.85862l12.94407,-2.52076l14.89034,-2.33786M354.98257,50l10.77616,2.81878l10.79092,7.4794l21.10373,-0.13839l21.99237,-10.15979M441.15863,50l5.40469,7.67l10.1719,2.1543l15.77322,9.79929l18.04769,10.1902l8.31551,-0.03521l14.21246,5.26177l18.12796,16.91501l11.1938,15.377l16.5876,16.06997l5.11021,9.60467l4.52557,8.52107l9.62021,14.73742l13.88918,10.01861l13.87106,10.22991l6.48762,7.35562l8.10039,11.11045l4.6253,11.41744l9.86324,9.79618l1.65405,10.8361l5.16637,12.7872l0.34504,21.45429l-3.62957,21.11367l0.33546,14.11693l1.18138,12.28613l1.60618,13.74498l8.25484,16.73002M650,350.64419l-11.84495,13.11282l2.73628,15.70713l-0.73391,10.68169l0.25773,17.46526l2.58884,20.08159l-3.50246,16.74345l-2.8877,14.49392l0.96055,18.72901l-14.13943,14.27952l-1.48346,7.30995l-10.74289,4.30028l-6.8104,4.50024l-13.91757,9.66086l-16.79538,18.41615l-3.6128,16.35154l-6.62295,10.92835l-9.52109,1.81102l-12.99344,8.96096l-11.31102,19.21721l-20.51969,14.2643l-12.12358,7.77781l-7.6252,-5.19486l-19.35249,3.04953l-15.6368,6.45877l-11.57996,14.14885l-7.70372,4.16824l-19.04784,5.35323l-20.95392,6.57898M288.07692,650l-5.90379,-4.57804l-10.49677,-2.32284l-20.40562,-9.0584l-16.87742,-5.74478l-12.51401,-3.74717l-7.3242,-4.44409l-19.03683,-10.30346l-13.55353,-10.81119l-4.4133,-12.51909l-12.8743,-14.1886l-10.65613,-6.43127l-10.81725,-0.64805l-14.9753,-6.21368l-16.94476,-9.23838l-1.40163,-3.24939l-4.10975,-22.57802l-8.76673,-12.91485l-3.93466,-12.37546l-12.20152,-13.96759l0.34799,-22.89319l-13.43814,-7.45699l-8.26883,-14.12347l-2.55244,-15.01863l-6.95801,-7.79411M50,277.48226l2.52371,-1.59034l6.00052,-14.45141l0.22928,-11.47601l11.50656,-17.03215l7.99166,-14.1219l6.13263,-7.30445l9.45677,-23.91455l2.7085,-16.44797l8.3613,-9.75161l3.7092,-8.26768l4.35517,-10.47014l20.53962,-12.2429l11.98322,-8.2659l8.97654,-4.75823l13.02849,-11.77083l8.10283,-10.9664l6.43977,-7.02546l17.81273,0.80623l16.54043,-10.24831l9.70035,-2.34449l13.01791,-11.60143l14.15034,-11.97159l4.2644,-2.26475M373.35878,50l3.91949,2.3218l21.26598,1.78289l9.74982,-4.1047M442.5164,50l0.76119,0.80511l15.34657,2.7848l11.47423,8.50764l21.20471,8.03949l8.81147,2.96025l11.21044,3.67062l19.83717,19.59104l10.86264,11.35269l12.69837,13.18159l12.27085,10.52095l5.91895,10.98025l3.13443,14.14841l16.46553,10.50944l12.13786,5.55036l10.854,13.95877l12.27749,5.10613l2.65545,12.04138l9.28468,15.18416l-0.25277,12.77629l-0.89109,13.58182l8.89642,14.92712l0.3888,19.65541l-2.82694,17.37286l-3.13153,10.8417l3.10251,17.08576l4.99218,9.74243M650,365.93882l-4.97032,5.03617l-3.63343,15.05926l3.3594,13.49574l3.72509,13.02947l-0.54017,17.1574l-9.67781,17.95875l2.07443,18.18742l-1.00335,18.20203l-7.93308,11.89784l-2.67204,8.65819l-13.01983,6.39823l-12.02769,4.7224l-11.42704,9.93311l-15.25059,14.11379l-4.01825,15.71761l-4.82966,10.5322l-12.67649,1.95654l-12.38252,9.98884l-11.4503,22.00007l-18.82468,9.73382l-10.83461,10.56918l-9.17307,-2.24443l-20.37593,-0.26982l-11.93039,8.59878l-17.2712,13.56178l-9.17626,7.28892l-13.52782,0.87289l-8.68705,1.90502M277.21515,650l-6.84474,-2.91829l-18.32106,-1.75407l-12.14211,-10.8137l-12.56787,-0.70156l-12.76621,-7.23474l-11.77528,-3.31316l-17.48164,-11.70334l-10.59837,-9.70703l-5.41996,-16.65064l-14.8574,-13.6681l-10.39958,-3.41311l-9.90834,-1.90745l-21.8662,-1.06112l-6.89277,-11.55888l-4.99123,-11.89065l-7.87698,-17.62061l-2.71243,-13.32366l-2.45942,-11.69133l-12.10664,-13.12025l-4.72794,-21.53908l-13.70972,-12.05865l-6.78926,-13.26493M50,265.71697l1.91709,-4.3074l-1.91709,-6.3339M50,247.14828l14.11738,-16.9581l6.68965,-11.04104l9.17108,-7.09916l10.5785,-19.89961l-0.20984,-18.20475l1.83641,-9.78177l7.11612,-12.9397l6.43482,-8.64817l13.97231,-9.54067l18.31593,-6.87764l8.92585,-9.61492l10.19083,-11.66243l12.54018,-10.4017l7.11915,-6.17967l14.82084,-1.06686l17.15019,-9.95123l7.46397,-9.21291l12.66719,-10.07587l10.24688,-6.29211l2.73479,-1.69996M460.22049,50l3.45824,1.59637l15.89433,7.52172l17.78557,7.01863l9.23558,-1.05535l10.92463,12.94785l18.25409,15.86618l9.70975,10.2914l14.15347,9.52326l13.09936,8.59214l1.27182,15.34895l8.07871,15.79952l10.62225,7.69521l9.93712,2.09005l17.50375,13.97421l14.92533,8.6474l4.08252,10.90032l1.71959,16.71056l4.55557,15.4775l-6.01319,17.77029l10.58103,7.00404M650,288.29023l-0.22434,1.6943l-6.38383,9.26827l6.60817,17.83798M650,383.07267l-1.19049,2.5719l0.59088,16.2342l-0.8438,11.14245l1.44341,3.06119M650,431.51811l-4.53622,11.68166l-3.55228,13.91318l3.83627,20.81754l-6.95756,14.66831l-0.58242,11.78412l-7.9112,3.20633l-17.15774,8.49777l-12.87541,7.78794l-13.56594,14.20005l-9.33521,10.63891l-2.12482,17.63617l-7.12334,9.82502l-14.95951,-1.73533l-8.10241,17.94324l-17.87456,14.88946l-15.25112,9.98617l-7.80978,11.91752l-11.57735,-7.15969l-17.82736,4.70736l-17.07531,8.07115l-21.42657,13.229l-2.24614,1.97601M267.19897,650l-18.6181,-2.99845l-15.99605,-6.65513l-7.83173,-3.26674l-9.52967,-3.87059l-11.33002,-4.422l-17.45447,-7.94014l-13.65697,-10.49355l-7.39652,-16.18819l-12.90345,-14.93785l-9.30189,-6.46874l-11.43,0.09587l-17.25296,1.68652l-13.11973,-13.22008l-10.14363,-13.28878l-6.84938,-19.64053l5.30695,-6.96721l-3.2315,-11.59398l-10.83379,-13.52807l-12.16619,-19.75877l-5.64386,-17.15502l-7.81601,-5.35658M50,236.7611l10.8125,-9.02157l2.39593,-8.27911l15.02566,-16.00269l8.76119,-13.42627l0.39657,-15.99935l-2.11272,-12.11424l4.87737,-16.61441l11.55661,-4.12969l17.8283,-8.16164l11.33875,-9.57577l12.65126,-10.7968l9.95175,-14.26109l11.94108,-5.68776l6.99938,-5.83814l15.36785,2.19815l16.70637,-13.17879l11.20899,-12.83456l9.59153,-13.03737M479.73808,50l12.1274,8.86149l14.35217,-0.98398l8.70351,10.45323l13.9595,15.51104l17.81303,11.31156l9.4059,8.13859l14.22217,9.8399l7.80028,7.69717l3.33345,18.20856l6.39325,12.14705l14.06447,6.3938l11.54177,5.74886l20.33055,10.81481l9.96404,11.92131l-2.9389,16.43037l7.33167,12.81992l1.67021,16.70042l-5.08324,17.23291l5.27069,3.40436M650,437.61555l-1.15694,2.65618l-0.56701,15.27198l1.72395,11.92692M650,479.98238l-8.99627,14.98538l2.38641,10.9081l-5.27202,7.67934l-15.47773,7.12607l-16.03318,7.97062l-13.99063,12.55393l-8.59184,9.93041l-2.74416,19.24058l-8.2802,11.23115l-9.91794,-3.15961l-12.66402,17.2744l-13.12376,11.24565l-19.37995,12.72859l-8.64112,15.88373l-10.32872,-2.21061l-15.22372,2.18593l-18.73209,2.13479l-20.11572,10.70109l-2.29913,1.60805M244.73168,650l-7.04675,-1.27139l-11.77793,-6.67778l-5.79676,-4.77341l-13.19021,-1.38803l-11.4512,-1.21072l-16.87999,-6.4484l-13.31722,-13.86409l-4.8073,-17.41181l-12.04192,-12.44235l-8.30596,-1.17607l-17.9465,-1.78383l-11.11805,-0.99157l-17.00422,-14.07637l-6.62398,-21.25658l-5.10474,-13.17082l2.9752,-10.74244l-4.67568,-7.34025l-14.41709,-17.71661l-7.89282,-15.71113l-6.10685,-17.89435l-2.20171,-1.42906M50,231.37105l0.49633,-0.36907l8.23291,-10.88353l3.57649,-13.59377l16.52438,-13.50356l5.67731,-15.99173l-4.10323,-8.5127l7.67052,-19.5447l2.8834,-12.71993l16.76401,-5.34269l11.1525,-2.49038l18.44184,-16.38664l9.17008,-13.32517l12.11634,-12.24093l4.80656,-2.52641l10.12636,1.43876l16.61118,-2.65221l12.54058,-16.17593l15.35067,-12.46817l1.55201,-4.08229M488.57709,50l4.32593,3.05446l13.87713,0.11195l9.20925,10.53067l13.04421,12.2331l20.87641,18.26654l11.18183,3.60698l13.69863,10.09902l3.59455,6.42574l11.20947,14.67456l2.3976,13.61433l14.47136,11.30731l10.44218,6.04804l16.8011,12.5684l13.6156,5.9629l-3.71442,16.22764l6.39211,12.49956M650,494.62026l-3.35608,5.0301l-0.62567,9.08401l-5.07497,11.73111l-18.47219,6.57368l-9.98929,13.29093l-14.23281,9.35738l-7.09991,12.22184l-9.67011,20.16142l-4.18232,4.27657l-10.05573,2.59064l-11.71648,12.91243l-15.62178,14.50243l-17.96897,8.8067l-8.58711,13.55647l-11.93557,2.45697l-12.50924,4.35806l-22.26294,1.35389l-6.47018,3.11512M232.82816,650l-4.74058,-2.29484l-10.00016,-6.67133l-5.15959,2.38536l-14.10882,-1.45693l-14.63801,-4.17433l-16.32675,-7.50262l-7.8105,-20.33012l-8.44515,-12.86458l-11.83733,-1.43654l-12.93773,-3.89459l-16.55919,-5.67024l-11.15946,-7.31862l-11.24428,-18.33226l-4.24686,-21.6979l-7.34257,-11.7988l1.84153,-8.06254l-10.51107,-11.86063l-11.54682,-15.47662l-4.01798,-15.24716l-2.03686,-3.85242M50,220.72742l1.17125,-2.28013l4.43493,-13.90379l12.9898,-15.5256l6.74883,-14.38452l0.81172,-6.67643l6.45543,-17.17991l4.64993,-16.60722l12.51831,-4.92213l10.18542,-2.33207l16.96912,-12.69864l13.05656,-17.39292l11.14229,-15.04041l8.39989,-8.57152l8.85678,4.41322l16.94402,-2.72566l13.68323,-13.86195l13.42228,-9.58307l0.37022,-1.45468M508.38852,50l7.32339,0.8149l7.11866,12.24583l17.26166,13.89383l14.76861,12.56982l13.25402,6.79592l9.93292,9.08897l3.27527,4.70733l10.46147,16.7228l6.29626,12.85982l13.99766,10.46884l14.04017,9.29213l9.45294,10.94756l12.18383,6.57517l-0.26642,20.12196l2.51104,5.16966M650,500.11852l-3.67985,8.64716l0.81256,9.06272l-15.72592,15.8843l-6.49223,8.6943l-13.8743,9.506l-15.70077,12.08659l-4.55809,16.96512l-8.87857,13.75138l-4.60101,0.14197l-12.11494,6.14596l-11.69221,13.69899l-15.54342,5.88527l-15.1216,13.50618l-8.63435,8.67563l-13.98505,5.9015l-5.67521,1.32843M227.46495,650l-14.80827,-4.6783l-4.73153,1.84061l-9.27696,2.8377M195.86951,650l-13.22125,-5.64189l-15.92859,-8.54888l-7.40473,-16.74098l-13.67699,-13.73119l-8.91187,-1.02331l-11.49777,-6.32599l-18.77456,-8.89908l-12.02137,-4.70127l-12.80081,-15.35559l-0.85717,-26.31987l-3.38541,-14.11589l-9.76812,-5.97376l-6.33613,-8.90711l-11.28474,-14.08028M50,191.13599l11.73679,-12.0427l4.11055,-7.33828l11.9866,-7.41811l2.09805,-18.5877l0.82519,-13.27967l15.17214,-4.35662l10.95508,-5.36882l19.19922,-14.02011l9.89596,-17.4676l10.93214,-17.50066l13.28973,-7.25113l6.20506,2.71871l17.53255,-8.06996l13.54965,-9.34594l2.34716,-1.80741M517.92525,50l4.94363,2.79043l16.53072,15.68428l15.79554,8.18141l9.00189,11.39138l13.99537,9.92155l4.49114,3.73816l9.92997,11.25879l5.08408,13.12894l13.17344,13.28749l14.04201,12.52875l11.31804,11.99417l7.54116,5.08504l2.01102,12.16488l4.21673,14.06192M650,503.58681l-3.25441,5.58599l-0.58902,14.14507l-8.92426,10.91579l-5.09518,12.32839l-14.89682,8.60815l-16.33109,14.22704l-5.89854,12.93737l-10.05089,16.09636l-1.65048,5.38201l-14.86865,-3.84633l-10.83633,15.66518l-9.83457,6.84689l-18.40829,10.38457l-10.04078,6.72874l-10.99685,9.85807l-1.38274,0.54991M216.62243,650l-8.51317,-1.73299l-6.19072,1.68796l-0.13444,0.04503M183.96592,650l-12.62979,-6.4528l-10.23812,-8.59754l-8.27162,-11.39558l-16.52958,-9.56176l-8.28246,-3.31166l-13.62912,-7.78914l-15.1704,-12.81697l-12.70299,-4.11813l-8.84233,-20.12584l-1.03102,-24.52293l-5.6378,-9.90751l-12.74872,-5.85404l-8.25196,-6.86641M50,174.7193l5.41415,-2.88521l12.60264,-7.82409l7.22552,-7.364l1.9865,-27.43961l6.88349,-8.79017l13.48167,1.2768l13.87427,-8.76687l14.77093,-20.48775l7.44209,-15.27514l15.49936,-13.86421l9.36556,-4.36663l9.86704,-0.78421l13.95323,-8.14821M528.31989,50l12.44417,12.59988l14.62098,8.64266l7.51094,5.88918l16.28618,15.52779l8.09247,2.6908l7.23106,12.58184l6.32895,9.35482l13.29219,14.21591l16.07731,16.54444l7.94234,11.50724l3.08466,6.1488l7.63153,14.28098l1.13733,7.91073M650,516.67428l-7.17289,12.38754l-5.33546,9.0311l-4.93258,16.39291l-14.4838,11.12858l-15.25359,12.7475l-6.02071,15.55805l-6.90984,9.85631l-7.28605,4.44867l-18.7104,1.26544l-5.02963,11.57192l-13.24722,6.79237l-16.83376,8.70145l-9.86629,9.45192l-5.10176,3.99197M179.58013,650l-6.96224,-2.84931l-14.59393,-8.01656l-5.94194,-7.835l-15.08551,-6.70422l-15.87454,-6.01742l-1.66504,-4.64968l-18.41523,-14.29141l-14.52707,-6.57411l-12.13283,-14.4373l-1.41163,-20.2538l-5.71391,-20.37053l-14.57712,-5.08987l-2.67913,-2.63179M50,165.80718l9.44002,-3.22325l10.66707,-10.37619l0.80351,-27.55551l6.76776,-11.75048l14.27394,-1.52922l15.71979,-5.60837l11.37288,-20.53845l3.18473,-9.49005l21.27671,-15.73561l12.24374,-9.22257l2.25083,-0.77748M537.20928,50l15.27325,12.30518l8.26648,-0.52927l5.06518,11.78041l23.05569,12.79762l5.22404,8.47276l7.80676,6.33229l4.93505,15.6069l13.81823,9.67287l17.05724,18.05402l1.50414,10.07114l5.76217,11.96117l5.02248,12.87061M650,524.1976l-2.76453,5.10437l-7.55272,4.72172l-1.36937,14.70842l-12.92344,17.09952l-14.98803,14.16431l-6.54612,14.31867l-8.39422,9.76931l-1.11712,4.71503l-23.07668,5.88473l-10.24616,6.73393l-4.7602,9.55757l-18.33164,4.16786l-11.35552,10.24521l-3.57657,4.61175M165.61388,650l-10.96057,-5.02629l-6.22868,-7.26915l-18.70029,-7.40794l-15.39723,-7.10862l1.09049,-3.11128l-18.64283,-13.5832l-12.05573,-7.29849l-13.71277,-16.22158l-6.12437,-14.46231l-3.26867,-22.94912l-11.61322,-8.09233M50,156.31733l5.01303,-2.21116l6.41287,-20.32364l4.23207,-18.69841l8.88038,-12.4397l17.27758,-2.27534l17.61233,-7.13338l1.62468,-14.77108l9.97855,-15.78808l17.51189,-11.68976l1.54968,-0.98679M546.26598,50l4.75026,4.64345l6.81268,3.00323l6.25371,1.95419l16.03882,17.29143l16.02049,9.72832l6.43913,4.68201l1.82399,11.89242l12.45066,12.16036l14.73285,17.58792l9.51981,9.87186l3.4023,14.6378l5.48933,9.93016M650,529.78047l-7.34467,3.23402l-2.34407,15.65222l-13.64737,23.37268l-12.81461,15.23649l-9.80411,10.93772l-3.09011,7.59303l-7.66719,2.67839l-18.3001,11.33127l-12.30949,4.33754l-5.87303,10.33037l-8.67662,3.5109l-14.04953,12.0049M151.02371,650l-16.21485,-7.67732l-18.47361,-6.68741l-8.98472,-11.12047l-6.65735,-6.78237l-12.14214,-12.07653l-19.09899,-6.19262l-7.85537,-14.6757l-6.4842,-15.53754l-5.11247,-18.24545M50,138.07389l3.70714,-5.7482l4.14252,-15.90572l5.97124,-15.52044l17.89327,-5.52336l11.43422,-4.78015l9.02892,-12.14691l11.08447,-13.29768l14.71936,-13.12084l3.35256,-2.03058M557.39689,50l5.60703,4.80909l7.03605,1.82893l11.80122,14.07168l13.83836,11.03957l10.43441,4.96622l2.08117,10.87133l12.87093,13.04358l11.39914,18.80909l10.18761,9.14817l7.34718,12.62082M650,535.75147l-3.95473,5.565l-8.37588,17.28868l-11.64621,23.65095l-12.68461,12.48921l-5.45366,6.4051l-8.3263,6.29666l-13.54815,6.5517l-11.10235,12.4923l-7.9827,8.63975l-7.47427,4.8837l-10.38833,9.98549M140.06158,650l-2.95605,-2.7903l-17.40086,-8.18544l-14.40413,-7.5704l-12.02823,-12.20459l-9.20281,-8.78844l-13.03194,-8.38934l-10.08167,-6.51453l-8.69624,-18.03428l-2.25966,-3.69089M50,121.11231l4.48707,-9.27672l6.11494,-15.7035l14.9239,-5.10849l9.58165,-4.01897l11.65894,-14.27109l12.97783,-10.41939l15.41159,-10.03447l2.67804,-2.27969M568.59136,50l2.04212,2.78277l9.18644,7.9283l8.60781,9.17054l11.76273,9.151l8.89644,11.41742l10.01854,7.88825l13.6867,13.30169l9.60259,14.78358l6.88869,14.34219l0.7166,1.60788M650,547.868l-5.91731,9.18858l-8.0073,21.27386l-13.75991,17.63694l-9.55663,9.48202l-8.65012,5.01484l-13.40852,7.84187l-7.7821,8.03343l-7.72335,8.34509l-7.75372,12.1641l-3.66609,3.15127M128.35478,650l-12.19584,-11.32431l-16.31369,-3.84113l-14.85172,-12.33552l-8.38802,-8.91251l-11.06301,-8.46165l-10.54747,-6.48268l-4.72121,-17.85222l-0.27383,-0.35947M50,107.97507l2.55365,-7.17789l9.04686,-12.7741l12.44452,-1.84256l7.41051,-4.81696l14.80866,-17.03448l15.59873,-10.65128l7.79483,-3.67779M578.53305,50l2.34895,6.8056l6.83562,6.36126l13.02487,7.11101l12.31621,11.39523l6.35751,12.09997l14.96404,7.3501l9.77074,15.63331l5.84901,9.55758M650,565.66871l-6.80908,16.23616l-14.34313,18.24883l-13.05372,14.7673l-9.99661,3.25959l-12.26702,9.58696l-6.94212,5.17044l-4.90267,9.13453l-6.29643,7.92748M124.47904,650l-1.18325,-1.14735l-15.21616,-10.88729l-20.87685,-3.31028l-10.24771,-15.98393l-8.90068,-5.06663l-12.19283,-9.26004l-5.14389,-11.95109l-0.71767,-1.87229M50,100.98959l0.71058,-1.47467l5.28302,-13.51976l11.73304,-4.67694l7.66531,0.27047l10.54455,-14.94436l23.05946,-14.16122l2.9393,-2.48311M589.09769,50l1.47827,1.9472l0.90554,4.53728l14.02814,13.41092l12.41743,14.94132l12.66894,4.01951l14.25556,10.43017l5.14844,5.86457M650,584.78199l-5.35987,9.28638l-14.75644,15.18714l-10.07424,15.1409l-13.99487,6.83921l-14.48399,6.31634l2.09414,4.1521l-7.28783,8.29593M120.84544,650l-7.63016,-8.23334l-26.31799,-1.09792l-12.62286,-12.74582l-5.69749,-10.94345l-14.76408,-8.91574l0.06854,-12.44991l-3.8814,-10.1326M50,100.96998l3.23682,-5.11175l0.06502,-12.19454l15.45102,-1.88873l4.97279,-7.10858l9.76087,-13.72232l25.36269,-10.94406M595.98523,50l6.75237,9.15209l20.31172,15.48263l4.98057,8.06189l18.53103,5.83931l3.43909,2.90433M650,595.65947l-9.62634,8.16609l-13.40281,23.33453l-9.98287,11.21512l-20.45123,4.78423l2.57969,4.72705l-0.48758,2.11352M106.15549,650l-0.40248,-0.20631l-27.31314,-8.85894l-6.2512,-10.31649l-4.95113,-9.26673l-14.36181,-12.06199l-1.61341,-14.93353l-1.26233,-3.14871M50,92.88057l3.61655,-3.24245l2.03305,-7.89893l14.87641,-8.77925l0.91093,-9.21885l21.04548,-10.67203l4.80071,-3.06906M601.0756,50l4.3733,5.53279l21.5561,14.32639l5.32819,7.72029l17.64007,6.97155l0.02674,0.02327M650,604.30844l-4.90872,5.28729l-13.16541,23.22183l-10.58029,10.85371l-19.69238,2.39749l0.4397,3.93124M77.16344,650l-7.12997,-5.41048l-1.74107,-11.60317l-15.15421,-13.96039l-2.55264,-14.20556l-0.58556,-1.02726M50,89.08778l2.7009,-10.68858l14.48477,-7.83447l2.92161,-12.61251l10.35882,-7.95222M611.44777,50l7.36198,4.89417l15.48266,12.37512l8.87836,6.55705l6.82923,3.74089M650,615.57077l-8.39018,11.03832l-8.67384,15.52272l-15.68148,6.18615l-3.30149,1.68204M69.30189,650l-5.22065,-12.81641l-12.0752,-10.7878l-2.00604,-13.41538M50,79.2943l1.71008,-7.60105l12.10603,-11.62397l4.956,-10.06928M623.66102,50l9.07574,8.89211l8.03721,4.61824l9.22603,6.12257M650,623.34927l-3.62633,4.34043l-9.34966,14.36835l-9.56543,7.94195M60.50231,650l-4.55183,-12.0386l-5.95048,-6.24413M50,65.15166l3.79731,-5.0882l4.35972,-10.06346M631.96069,50l0.25337,0.25199l15.62732,9.07623l2.15862,1.54662M650,636.71792l-17.95643,12.64161l-0.43055,0.64048M50,51.3719l1.25816,-1.3719M636.41163,50l0.32267,0.43802l13.2657,3.61935M650,640.32907l-11.58815,7.55458l-0.93244,2.11635M650,648.56737l-2.54563,1.43263" fill="none" stroke="rgb(0,0,0)" stroke-width="2" data-clipped="true"/></g><path fill="none" stroke="rgb(0,0,0)" paint-order="fill stroke markers" d=" M 32.5 20 A 12.5 12.5 0 1 1 32.49999375000052 19.987500002083326 Z" stroke-opacity="1" stroke-linecap="round" stroke-miterlimit="10" stroke-width="2" stroke-dasharray=""/><path fill="none" stroke="rgb(0,0,0)" paint-order="fill stroke markers" d=" M 0 20 L 40 20" stroke-opacity="1" stroke-linecap="round" stroke-miterlimit="10" stroke-width="2" stroke-dasharray=""/><path fill="none" stroke="rgb(0,0,0)" paint-order="fill stroke markers" d=" M 20 0 L 20 40" stroke-opacity="1" stroke-linecap="round" stroke-miterlimit="10" stroke-width="2" stroke-dasharray=""/></g></svg>