<svg version="1.1" xmlns="http://www.w3.org/2000/svg" xmlns:xlink="http://www.w3.org/1999/xlink" width="700" height="700" viewBox="0 0 700 700"><g><g><g/><path d="M334.49337,347.20696l0.69003,1.04235l-0.93482,1.21737l-2.73058,0.10124l2.769,-3.14145l5.95133,-1.53071l0.96272,3.25027l0.97524,5.85096l-2.8942,2.79332l-11.48737,-2.34282l2.08335,-9.41312l15.42268,-6.50112l2.55112,7.08802l1.48556,8.86073l-2.81355,11.92646l-19.29154,-7.68256l-3.40894,-12.46392l18.67511,-16.6402l9.36233,7.76777l6.81753,9.6343l-3.68713,15.96556l-3.80143,14.11011l-20.69954,-11.57665l-12.05803,-10.94463l0.64679,-8.88947l16.81334,-19.5143l18.72385,-1.49842l7.53277,14.35725l3.99775,7.31241l-3.73718,16.80133l-3.54662,11.75283l-8.94938,7.50047l-19.6678,-11.9345l-16.27952,-8.21108l0.12608,-10.18349l6.83549,-14.83248l17.00334,-13.73876l16.21205,-6.20437l7.77562,11.47747l7.01501,8.44699l6.63585,14.22315l-6.85244,12.41983l-7.50161,12.70758l-6.84336,10.61392l-15.11875,-4.36389l-19.47749,-7.58673l-8.53841,-8.4239l-0.96883,-8.92937l1.03054,-27.41545l10.36592,-5.11067l21.35548,-10.73714l15.0646,0.49605l6.0355,5.50325l10.61611,7.41497l6.67521,16.35931l-1.31699,15.30916l-9.10838,10.67536l-7.81456,13.62488l-8.45945,9.92956l-16.41694,-6.79066l-18.85812,-0.42544l-10.65193,-9.2323l-5.34441,-9.59093l-0.34691,-15.18951l4.65303,-29.05629l10.71841,-6.91373l16.5412,-4.33744l18.78868,-5.38889l9.36867,2.80258l9.51849,9.41888l7.51375,5.18806l8.153,19.30987l-2.46423,15.02738l-5.63579,9.1032l-7.03952,16.79345l-10.6553,11.43757l-9.9915,4.68336l-18.97791,-8.85528l-14.71882,-0.23866l-13.39924,-8.19067l-7.99746,-13.7304l3.22066,-12.90449l-3.85831,-24.64023l12.87024,-17.91042l11.41815,-4.58181l15.64211,-6.05973l18.09489,-8.45233l10.10144,9.59166l15.67192,5.20077l7.50544,3.08108l1.3277,21.32398l10.43252,19.80533l-9.66569,7.45512l-1.02696,13.24564l-7.03266,14.81646l-15.34884,7.13168l-11.36096,5.24738l-14.79435,-0.52903l-19.76177,-2.44516l-9.47681,-2.75785l-13.27002,-14.27462l-4.13148,-17.23205l2.32774,-14.75074l-5.13977,-15.68721l11.77234,-20.71346l10.76555,-13.05941l10.87377,-0.0978l15.75047,-8.65578l14.82765,0.30319l13.16512,5.48257l14.52763,4.56969l10.49706,7.03197l4.27718,28.70115l8.15779,14.5919l-0.65437,14.17945l-10.39658,5.25043l-3.02728,15.61143l-14.04029,13.1887l-9.41832,2.58618l-16.5012,4.97575l-15.70498,1.71457l-14.97546,-1.38926l-12.76619,-5.34545l-10.31861,-16.82973l-4.61006,-13.97933l-2.8654,-18.54223l-0.5353,-11.00632l3.0205,-9.27098l3.45314,-23.18632l8.92789,-16.61892l14.82823,-2.22413l13.09434,-8.09559l17.07822,0.00233l15.46891,4.1885l9.17451,8.0383l15.94515,2.05144l8.31397,14.84636l13.65727,29.96855l1.37225,12.28362l-2.513,15.23934l-6.93725,6.23848l-9.54637,10.97664l-14.36899,15.68954l-9.30052,5.86328l-12.70296,5.95337l-15.18981,1.70188l-13.51781,-1.89067l-17.97387,-0.94349l-12.4581,-8.29869l-7.78115,-17.95775l-5.58016,-13.28142l-0.60335,-20.08092l1.29987,-9.4813l1.78519,-3.88975l-3.16334,-20.33205l10.80598,-23.06604l4.36462,-9.82973l18.4778,-1.42686l12.60541,-11.51902l17.15579,1.55795l15.15505,1.49938l9.44948,17.22717l14.96832,4.77866l12.70503,-0.37702l8.36691,28.55221l9.17456,19.53855l4.76768,11.6761l-4.21884,17.28322l-13.4984,5.97503l-6.05522,8.00263l-15.58977,18.30096l-11.54678,8.39466l-10.83738,2.22625l-15.1347,5.04011l-17.23708,-0.53091l-13.22669,-2.79331l-17.9769,-9.22508l-5.7519,-10.51002l-6.6606,-20.8857l-3.13669,-11.39422l-2.90949,-14.2479l1.4053,-12.1136l1.64959,-7.44964l-0.35374,-13.21413l5.66622,-16.982l7.39276,-17.61395l13.17417,-5.47395l17.10397,-5.94748l12.86052,-6.97146l12.49228,0.10042l16.92731,6.38494l9.31059,15.2578l16.38781,2.95196l14.58302,4.76193l9.6215,19.47794l7.05495,24.19459l5.79645,11.4668l-5.07642,20.7222l-5.31884,10.32272l-9.81797,5.31486l-13.66377,8.82851l-15.14318,21.58224l-11.4478,5.35216l-12.55787,1.94894l-14.32239,7.2582l-16.14733,-5.3424l-15.31221,-4.08951l-15.68609,-5.92227l-7.35624,-11.72589l-7.96913,-19.20508l-3.22576,-17.02242l-2.63613,-4.80259l0.99141,-17.84684l-3.24846,-8.56883l0.87406,-10.24748l7.64858,-10.59188l0.72492,-15.14853l10.70757,-17.96938l12.71583,-6.01335l12.77529,-4.74618l15.566,-11.62411l14.39105,-2.83917l13.88555,2.21242l15.80658,18.32766l13.25843,7.50407l11.08281,4.63037l16.6233,10.0858l5.66085,14.731l6.16077,22.68155l6.60718,12.06852l-6.59435,24.68831l-5.98427,9.92228l-7.16154,7.5506l-14.25964,3.45722l-10.72844,20.14638l-13.54336,14.42975l-17.01771,-2.32362l-12.83573,5.44814l-13.42237,3.12165l-18.12122,-8.7205l-11.3453,-0.5068l-11.28072,-7.64835l-12.11917,-17.18288l-4.68327,-15.80477l-9.35176,-19.93164l-1.18227,-0.75749l1.21503,-16.10669l-1.28972,-11.10599l-1.47541,-11.29673l3.03955,-11.33383l10.54027,-13.86776l6.57021,-10.53256l9.92378,-15.75917l9.82944,-5.32705l13.92933,-6.96293l19.35727,-6.3714l12.70291,-6.43167l13.31876,5.81807l16.20679,16.30327l16.52582,3.03561l9.68121,9.28614l13.2964,10.80111l3.87598,10.9894l8.24443,20.83457l9.13281,17.9798l-1.62323,18.6011l-8.60174,13.19437l-7.46727,12.70539l-2.40041,5.54142l-12.76039,9.52765l-9.69719,14.57238l-18.06263,13.27039l-14.02801,-0.0497l-14.48629,4.35579l-11.18347,3.48339l-20.76493,-10.28294l-14.78912,3.11132l-9.09661,-3.44025l-8.64112,-11.34786l-10.46769,-19.78873l-11.34185,-20.71251l-6.77118,-9.59071l-0.11457,-8.14543l6.24988,-14.45105l-5.1649,-10.45304l-1.48227,-12.1691l2.8835,-10.24483l13.92897,-11.57851l7.99118,-13.07292l12.9697,-15.38575l3.90898,-6.75687l16.47816,-3.93481l14.1064,-9.44495l17.29189,0.35644l10.52972,-2.81197l15.4721,10.75983l15.96845,10.18891l19.44139,2.82177l9.68956,3.52334l8.19392,18.29632l1.12014,8.18736l9.55067,22.04093l9.41292,18.64659l2.15408,14.5591l-10.30966,12.30761l-9.42351,12.93325l-1.57015,12.46089l-3.15766,9.16566l-11.52773,12.66251l-16.38677,10.89711l-18.37451,10.05106l-14.27249,-1.53571l-12.11901,2.14855l-15.07123,-2.4132l-17.16842,-2.09213l-13.74608,7.42173l-9.31583,-7.14356l-5.54152,-8.7991l-9.56802,-21.52458l-15.19577,-16.34843l-14.70934,-14.38037l1.19829,-8.78699l5.96922,-11.76027l1.13016,-14.6709l-6.52202,-13.33785l-3.46564,-11.5132l10.21538,-10.47271l21.53447,-8.57152l4.31154,-17.7703l12.04014,-9.80944l1.64842,-8.53565l14.79344,-6.6539l15.16985,-8.86136l18.25877,4.66686l12.12805,-1.62768l13.63755,5.99493l14.56064,9.55814l26.67519,8.35853l9.97306,0.88419l13.35976,11.41434l-4.13584,14.00587l0.91964,9.74824l12.94987,22.89552l9.83964,14.53937l0.38032,17.09508l-13.57402,7.30013l-10.60341,14.85736l2.30215,13.60065l1.16257,10.37831l-14.70835,16.38889l-16.19541,9.27546l-21.29858,8.20489l-14.93654,2.01178l-13.61471,-3.69368l-12.06981,2.85225l-17.2136,-4.15176l-16.5909,5.60007l-11.53563,0.13525l-4.26697,-6.09291l-8.29469,-10.8335l-7.0616,-19.31493l-18.44408,-15.71268l-15.06445,-11.81277l0.49399,-13.47451l6.19201,-12.50308l-1.43672,-14.33305l-2.85629,-15.2594l-5.82831,-16.42029l9.61418,-10.94761l21.52493,-3.73919l7.57988,-19.09604l11.68702,-6.72351l0.99773,-6.52115l12.55413,-7.6784l14.27122,-13.19441l11.15147,2.77279l16.70243,2.3756l17.91797,-0.29466l12.25151,3.96305l12.92217,6.06241l24.18769,6.6887l12.36084,6.82557l15.45752,8.73059l-3.23832,15.03041l-0.14522,3.42069l11.42042,22.72384l7.38447,13.09019l1.3044,12.59362l-2.94698,18.60004l-13.65014,8.7916l-5.11714,16.54389l4.32523,12.01102l-4.75687,18.9078l-13.81171,10.60443l-19.59347,8.30598l-16.6642,0.87582l-15.22418,8.62899l-17.73434,-2.27969l-10.50754,0.10585l-19.12797,-0.14112l-11.73075,4.71711l-13.68702,0.32783l-9.76958,-6.55043l-4.67187,-7.29229l-6.67097,-18.27527l-14.73245,-11.98329l-18.02555,-15.4594l-5.94244,-15.10929l3.4162,-14.2726l-0.10065,-8.34467l-2.8623,-12.87825l2.78853,-24.81749l-2.9929,-15.52375l7.60388,-8.5155l18.78545,-7.92912l12.59118,-17.09493l6.67544,-8.27828l3.4219,-2.16971l11.27277,-8.00475l13.32621,-10.77988l10.5691,2.95542l19.40067,5.35435l10.46751,-5.08051l18.93236,3.89121l14.64179,2.82735l15.92568,6.65784l21.0996,2.79981l14.43701,11.09036l7.55463,9.09736l-0.81668,16.63796l5.14049,0.57034l8.60321,18.21404l2.43316,12.95899l1.97163,12.32398l-1.86552,22.29706l-4.71759,12.2615l-9.90481,15.83374l0.98245,15.41813l-4.72106,17.55562l-10.59299,13.21657l-17.48355,2.22029l-20.30732,3.99499l-8.07958,12.35488l-21.63207,2.58065l-17.40499,-5.97978l-10.63319,0.46084l-16.27358,6.27164l-12.11627,0.70129l-14.75985,-2.71032l-8.56748,-8.25283l-7.23438,-6.0978l-7.24026,-16.80692l-13.20992,-9.75063l-13.16059,-17.30734l-3.67145,-18.26137l-5.87055,-14.87082l-1.87765,-3.70798l-0.84825,-15.24241l1.23019,-24.42925l5.60948,-18.65694l1.7808,-9.5492l10.68216,-17.47029l10.29679,-1.75483l13.02276,-14.82829l2.81549,-5.3378l9.31336,-3.21251l15.85246,-8.63115l9.84172,-7.94819l8.8961,5.89052l21.14181,-3.52709l8.82764,2.18802l20.53631,2.26066l18.97163,2.07098l10.14646,6.19521l14.63641,2.14281l20.79586,9.61342l6.90927,6.71784l9.23933,19.8422l5.43682,5.57071l8.17314,13.13023l-3.55165,14.05793l3.07002,9.24591l0.23316,11.86419l-2.89649,29.02637l5.02708,15.20535l-11.487,11.26856l-5.05035,12.00705l-9.2801,16.86947l-9.44067,11.45777l-20.99313,0.71595l-11.36944,11.55077l-9.2849,12.80601l-19.8836,2.21682l-19.8525,-6.62173l-8.897,2.05182l-21.2021,-1.94947l-9.50615,6.03131l-8.86904,-0.32475l-17.40544,-6.99428l-15.84947,-8.79649l-2.37861,-8.66259l-9.45068,-14.53448l-11.22164,-10.34072l-8.94259,-19.05731l3.93737,-18.23094l-13.78453,-11.053l-3.18552,-5.66666l-0.64238,-13.00259l-1.39567,-24.74985l12.45692,-18.55696l2.80965,-13.78762l4.83657,-16.89375l6.28578,-1.20935l13.97791,-9.56347l2.80007,-13.35432l8.60599,1.14715l17.90893,-9.45138l16.16685,-14.74102l5.28142,2.69057l16.18056,6.00968l15.70563,-4.98148l11.34974,4.0784l22.55233,5.60079l14.07598,4.66518l11.6165,-4.85549l9.92033,4.14257l22.46877,12.10282l9.41568,7.89138l6.44878,18.45567l6.99017,7.70501l16.80982,13.58332l-7.47532,12.15366l0.9907,11.60491l1.41592,9.14594l-3.13069,28.69632l6.46891,19.7961l-8.9484,10.02454l-8.42025,7.97023l-9.70996,10.39827l-3.98358,16.76649l-20.36112,10.43696l-16.89504,2.8125l-6.99853,15.23786l-10.64653,12.9046l-18.21008,-0.00745l-19.50517,-6.92041l-13.23749,0.01543l-17.57934,1.49394l-7.90287,5.10355l-12.1299,-1.90526l-17.53039,-8.81207l-18.15837,-6.11028l-6.73702,-8.33362l-1.21867,-13.3591l-14.66163,-14.13799l-8.12955,-13.14641l-3.86999,-20.29863l-1.05497,-14.74308l-12.61496,-6.98179l1.84161,-7.48974l-4.07854,-17.3308l5.58994,-21.87101l14.45736,-16.83086l-7.75358,-14.07252l8.92911,-9.24309l9.45829,-13.25035l13.48672,-2.50711l-4.27343,-12.48658l12.68532,-3.15727l16.24745,-7.15344l18.75063,-17.78003l11.41885,0.53911l11.64677,3.25686l15.22771,-1.63103l12.94228,5.091l21.54732,1.56401l14.83766,8.18055l7.90348,-3.06653l9.92002,-5.15793l15.99225,10.17852l21.49366,13.56443l7.98384,12.4537l6.91498,19.04452l4.68642,7.63942l16.14824,12.24208l-3.8165,13.86888l-2.68011,13.25726l5.09444,10.93941l-6.43488,28.32112l6.70939,10.68082l-7.46288,13.86441l-13.56175,8.05171l-0.51765,10.9198l-9.84563,12.46969l-13.10391,13.659l-22.31817,4.04525l-10.53696,10.74261l-8.47254,15.11522l-12.63873,10.55083l-20.6751,-3.86885l-11.01993,-4.76024l-14.99811,-3.36944l-19.27412,8.4836l-7.69472,8.12598l-15.43557,-12.77541l-19.35564,-8.04824l-15.52634,-5.69583l-2.38005,-9.80228l-5.28775,-11.76842l-10.85907,-17.04598l-12.43197,-11.19593l-3.45426,-18.29144l-0.98821,-16.269l-9.32936,-6.89114l-2.79225,-8.37192l1.9281,-15.92775l-2.24904,-17.53315l11.01559,-23.51401l3.3729,-12.13541l-2.68922,-10.16374l16.52488,-10.80058l7.49114,-11.25817l8.5348,-7.72188l0.70381,-10.76368l14.31719,-2.60826l14.89773,-10.03768l17.06796,-11.4793l11.33157,-1.07598l16.12309,0.83589l14.84328,0.52915l13.13188,1.43142l18.79347,2.70454l14.20391,7.4573l9.08185,0.88644l11.65168,-9.31598l13.73712,9.72847l21.93646,16.72074l10.06161,12.47797l9.63159,20.31789l-1.74884,10.90735l17.03673,10.17985l2.47577,12.73031l-4.35691,19.36047l3.79196,3.44237l-1.53287,18.71224l0.17787,22.18984l1.12708,9.88269l-8.62499,12.89588l-6.85002,4.31815l-5.55173,16.15831l-9.8704,13.84794l-16.07786,11.17949l-19.54537,5.56044l-9.79068,13.51338l-10.55748,14.88703l-10.59762,9.60574l-21.37396,-1.8639l-12.06903,-1.90087l-14.59234,-8.30275l-17.32149,11.61645l-11.07157,0.70461l-14.33714,0.79753l-16.7023,-11.92999l-16.67907,-9.19256l-9.29328,-9.44231l-3.02636,-2.38479l-9.61663,-23.58058l-5.26713,-8.18169l-15.25213,-15.57087l0.23929,-18.69038l-5.3226,-10.20343l-13.39078,-8.18198l1.72329,-15.59055l-0.02214,-14.45355l-2.07489,-18.09652l14.227,-22.47717l4.07727,-12.08061l1.17509,-11.87372l14.25585,-8.30634l4.2282,-17.6433l9.04824,-2.48265l3.57569,-8.6059l8.92613,-6.74194l17.80983,-7.61034l14.65665,-11.11426l15.30998,-6.7236l10.58299,-3.71723l18.04773,1.54122l15.26453,0.86828l10.05636,6.0435l23.86903,3.35767l9.60523,6.09396l11.82094,-4.78358l8.37827,-6.89374l17.19332,15.93985l17.45952,20.64787l12.8708,13.87508l11.61005,14.74021l3.9101,15.76566l9.08651,9.92738l1.70844,14.54473l-5.72541,19.01197l3.6012,4.2113l0.79207,11.8025l-3.89078,25.06576l8.34333,11.50558l-5.68436,12.14084l-8.32074,8.14073l-4.41747,11.14572l-14.17374,10.67386l-12.48114,13.90607l-16.2572,6.3618l-16.24766,6.7897l-6.70147,16.46376l-14.22976,14.54164l-10.13769,9.12119l-21.18671,-2.9827l-11.85189,-6.6281l-15.47624,1.25733l-20.19146,2.10457l-7.85874,2.55358l-15.4562,-2.23287l-14.17083,-10.00427l-18.1582,-7.71213l-10.05791,-9.93474l-6.69289,-4.51795l-10.97416,-14.30305l0.78061,-13.01822l-9.42996,-13.40853l-5.70283,-14.95361l-6.15424,-14.47711l-11.32071,-7.96078l-7.00886,-20.30784l3.77721,-9.32829l-3.8671,-16.14802l7.02525,-18.95024l10.66766,-17.60163l6.68059,-20.85779l6.01959,-11.9202l8.4473,-2.98344l-1.71129,-19.28352l11.09972,-1.51651l7.22994,-3.61917l8.38723,-11.2597l18.20742,-7.49365l14.89036,-11.4304l17.70619,-2.34621l6.19833,-5.20291l20.88057,-0.84469l15.03614,0.44265l8.38909,5.44298l23.15077,3.32214l11.60306,7.62729l11.96642,-4.70253l8.06206,-5.30313l16.81016,10.39843l15.45825,16.20278l8.93307,23.50508l20.10942,9.69896l9.97591,10.2225l6.87783,18.81422l1.84975,12.80379l0.00882,13.00774l-2.59753,15.3153l2.65934,3.11663l-4.91165,16.75505l3.98872,21.62825l2.32527,10.55542l-1.97661,12.80661l-4.82575,9.93082l-8.35473,9.51603l-14.84897,12.1759l-13.24717,13.08816l-14.91414,8.69796l-14.12536,7.29119l-10.94773,12.20566l-12.07173,20.7153l-12.08209,4.46538l-15.35234,2.65614l-19.19966,-4.11499l-9.47044,1.94774l-18.4694,-1.97311l-13.54842,-0.3912l-11.32534,-2.86847l-17.72902,-6.81269l-13.28662,-3.75406l-17.24987,-7.384l-9.48672,-8.63422l-7.5241,-9.08719l-11.04534,-6.6337l0.99551,-17.12849l-3.79833,-10.24311l-6.91419,-18.5666l-12.61102,-8.27143l-6.9209,-12.62615l-8.20364,-24.34335l2.80303,-13.97753l-3.77425,-14.63803l5.93571,-8.39281l9.51947,-15.26857l8.04048,-24.55491l8.29778,-22.61462l4.89253,-6.14111l1.15637,-11.96354l6.50217,-7.58437l7.92391,-3.23523l11.21203,-7.34726l12.3629,-5.03626l14.46178,-9.60681l13.07398,-11.02675l16.9531,-0.89595l11.10331,-5.99073l21.65383,-0.28472l14.50983,2.36163l8.35322,8.67111l19.10821,5.95749l12.94535,0.42758l15.0155,-4.76935l8.12271,-2.2714l16.55448,12.08676l11.89229,18.32605l7.86336,17.96179l18.04304,9.05814l17.81034,10.79315l5.98842,17.42752l0.64567,14.80379l3.72092,13.07125l-3.0369,14.38474l-0.44823,3.10094l3.7745,12.82107l-7.0827,28.93055l5.57322,8.57734l-4.26932,16.19061l3.15477,11.23144l-1.51408,6.37756l-18.06382,10.61525l-16.60392,11.49071l-9.30013,9.83589l-13.55661,10.64523l-13.84515,11.42891l-8.79673,13.44516l-14.43252,19.92272l-17.33779,-0.0775l-13.02536,-0.6792l-15.53473,0.90937l-6.30449,1.01469l-17.68706,0.22807l-21.18998,-5.82823l-10.65558,-5.05917l-18.12357,-1.52486l-10.18577,-4.02572l-16.33124,-7.06115l-10.04937,-5.59518l-11.46618,-7.49614l-12.25156,-11.16961l-4.16914,-13.9743l3.9588,-7.57868l-10.3872,-12.29444l-8.58436,-17.29476l-9.70601,-7.11618l-8.61743,-16.36347l-3.56772,-30.12076l4.40379,-11.5663l-5.18527,-17.80638l5.34926,0.27355l6.63001,-13.88214l12.58104,-24.14086l8.35325,-28.05144l6.31584,-9.97555l-3.80522,-9.97048l7.65686,-14.27384l11.34526,-3.72524l11.91678,-4.96502l10.64721,-1.3249l15.21429,-10.90116l9.05171,-11.98173l17.69327,5.13041l12.73162,-9.5075l21.33812,-6.13629l16.68428,4.99334l6.48564,7.03322l14.32129,12.21639l13.64896,-0.77943l17.31891,-2.6797l15.10066,-5.56745l9.86448,8.06212l15.75618,15.21783l10.48377,17.91644l8.69182,12.28846l19.1564,4.97808l18.49319,13.29724l0.99021,16.88042l3.03071,17.83309l1.48342,10.7756l-2.69503,16.00521l1.10512,2.15284l5.0098,11.24599l-7.17596,29.48692l2.72592,14.24266l-1.41919,9.96805l2.71174,13.91613l-6.03373,6.84806l-7.57046,10.94212l-17.6126,12.25392l-14.192,11.51763l-7.87512,13.45229l-11.73162,4.14542l-15.92584,16.78053l-9.79779,18.54012l-18.53641,6.83447l-13.1593,-5.62928l-14.56853,4.4864l-12.83557,-1.34286l-11.07541,3.1319l-19.79922,-2.00506l-16.02878,-5.65612l-14.69286,-4.06933l-15.02434,-3.40573l-9.05901,-5.12026l-16.53662,-5.31492l-8.53239,-2.24057l-12.2566,-11.43755l-14.21397,-9.89193l-4.01979,-11.89867l-0.87413,-9.93902l-7.64968,-6.95107l-6.74519,-20.86216l-9.70574,-8.12802l-7.37824,-10.80092l-7.99423,-31.031l3.94755,-13.16327l-2.71639,-21.26915l0.10887,-5.29482l10.01464,-7.9481l5.35003,-14.97826l8.23409,-27.97223l11.73704,-19.71826l5.04797,-10.42945l-4.68672,-13.24686l7.95826,-11.22374l16.174,-4.41496l12.97016,-8.97275l11.63018,-3.47502l12.76798,-9.97721l10.4198,-11.08568l12.89274,8.97807l18.61687,-7.45186l18.47446,-5.66084l15.14573,5.92221l10.57884,2.09298l14.19754,10.10079l12.51675,5.86161l14.73893,-8.42625l18.5384,0.99368l10.99197,4.28742l15.98799,19.08302l9.58274,12.0587l6.65797,12.10507l16.3522,7.97049l16.81813,8.20532l5.57681,16.0941l5.61684,19.03166l3.70059,15.57858l0.69205,13.01819l-0.84202,13.47682l2.80661,0.49599l0.15416,15.88822l-2.41572,23.3964l0.50875,13.04154l-0.27152,14.9007l-4.15308,9.24959l-5.47285,9.62363l-4.9002,12.4874l-14.89583,13.67363l-17.67584,11.58542l-6.32049,10.54007l-9.91715,7.72123l-14.41167,15.59874l-11.03299,20.34642l-19.00366,4.11696l-15.13726,-2.62028l-12.19427,-0.70506l-14.00925,-2.38695l-8.79642,3.4978l-13.58352,1.01501l-19.4524,0.24698l-21.37002,-7.8042l-13.59023,-1.87214l-13.27355,-6.25378l-8.26562,-5.21494l-14.09355,0.11702l-13.50897,-4.3198l-12.67894,-12.86593l-13.03571,-11.25219l3.09643,-18.3946l-7.62911,-5.83779l-10.78575,-6.61534l-6.52873,-22.21564l-6.07398,-11.04935l-8.00304,-11.69773l-1.87812,-22.30807l0.26765,-14.43808l0.53553,-21.31747l-0.93965,-6.66125l5.05467,-5.20134l6.74609,-19.46839l5.7,-27.01599l6.61663,-17.91049l10.34701,-11.93345l3.77255,-9.24133l0.83269,-19.85329l16.22801,-6.63395l13.43333,-6.79876l9.36548,-9.34781l15.63522,-5.71356l7.36362,-12.71911l14.73945,3.85486l14.99862,7.0004l18.34549,-12.63443l20.27997,0.72192l14.71305,-1.83914l10.05043,6.71589l11.2558,9.81469l14.3946,1.07873l12.8868,-5.13744l19.50612,5.37813l10.82241,9.18742l17.00508,11.23551l8.29167,11.45529l4.90288,16.95875l17.00488,5.4416l15.79077,9.50565l4.45095,14.351l7.47706,18.67271l4.30895,11.74733l1.2597,18.04168l0.3114,13.33585l6.09863,5.32324l1.70074,9.51622l-4.68663,15.88012l-3.59924,22.52464l-1.07106,16.96947l0.05227,8.64927l-7.4929,9.94002l-5.07749,11.12279l-3.8229,15.10498l-19.73706,7.01248l-13.75157,13.8878l-8.11809,14.18232l-5.20698,9.13365l-17.09674,16.06217l-13.51249,21.11848l-16.99603,-3.38636l-11.91776,-8.07955l-14.34171,2.53692l-10.79617,-1.07659l-10.34355,10.78258l-13.56332,-1.69531l-22.79895,-7.64155l-19.7197,-4.19817l-11.2227,-1.24538l-17.69749,-5.27234l-8.82444,-7.99799l-12.89111,-0.76211l-10.13483,1.19557l-14.90017,-9.32706l-14.20877,-15.10022l-4.44954,-18.5609l-2.73292,-10.13776l-11.12109,-1.98687l-6.73561,-13.82137l-6.58764,-21.90569l-8.03464,-10.03297l-4.65523,-18.73126l0.3223,-16.91092l3.8519,-8.99324l-3.07367,-20.53881l-1.27013,-6.44524l3.80109,-11.30088l7.59607,-23.49707l6.92032,-23.28768l6.1931,-14.04224l10.46141,-9.4084l4.58046,-12.3139l2.67388,-20.84609l14.00674,-7.22848l13.79173,-6.01283l14.17866,-10.0275l9.31317,-6.41065l9.48464,-9.88207l16.73412,-1.97329l12.71467,7.63741l20.11013,-10.07607l20.30655,-4.36999l14.44173,7.24776l11.50039,-3.41474l12.41566,14.28255l14.00392,3.31404l10.18887,-5.54717l15.69546,2.21372l17.50939,10.04372l16.72713,9.42769l6.54194,7.57731l8.35867,14.03048l8.33434,16.58202l19.43885,5.52843l10.87955,12.80504l3.82938,12.99323l5.35413,14.10111l5.34754,9.67837l1.35212,17.06098l3.01662,13.38116l6.54076,7.64693l2.42245,11.80442l-6.82495,13.38652l-2.83486,23.24596l-1.95074,15.78843l-2.31437,13.68992l-4.60812,7.17395l-5.14209,13.9842l-4.94446,13.52869l-12.54105,7.94057l-17.3815,12.22663l-9.33214,16.67214l-5.08812,13.37165l-10.1579,6.8679l-17.96081,21.28866l-18.05728,5.26803l-11.64905,-9.56641l-12.99735,-4.32069l-11.50908,4.36757l-11.99732,5.9532l-12.15077,10.52114l-17.41946,-6.63692l-17.96474,-9.43616l-18.52118,-4.11027l-14.75554,1.40321l-17.17625,-4.12844l-8.62975,-7.38012l-7.51602,0.32932l-12.64009,-3.78666l-19.82249,-8.71736l-11.77378,-14.10992l-2.16517,-21.2826l-5.94004,-10.25297l-10.62224,-2.38885l-8.98832,-7.05898l-5.61542,-23.73128l-5.4939,-18.44457l-6.48375,-12.36082l0.08445,-19.41529l5.18065,-8.81066l-1.24682,-17.74939l-3.55744,-11.78294l0.69239,-6.90585l6.80892,-20.8514l2.76354,-22.23167l8.72056,-17.78069l8.15165,-2.46278l12.65788,-17.46627l2.05862,-13.59322l4.913,-16.48283l15.46562,-6.64308l19.87837,-4.62682l7.91726,-15.18547l6.975,-8.20943l13.02333,-9.04006l17.28171,1.36557l10.53291,3.53514l19.66097,-10.05561l18.92928,0.75493l17.21821,1.49712l13.87464,-0.06304l9.26134,13.20958l14.85871,4.42538l11.69369,-7.30604l11.40306,2.57752l17.87594,8.82883l20.20402,11.10663l12.2891,6.06961l0.67904,10.35167l11.07216,21.11008l19.60072,12.55006l10.49325,8.366l2.62704,6.70184l4.14677,13.29215l7.48316,9.33045l4.58689,10.2012l0.61265,20.15494l6.48484,11.64357l6.20783,9.90792l0.30478,11.30278l-6.196,17.20908l-6.68354,20.34813l-0.43456,17.27386l-4.99285,12.30401l-6.81527,8.5418l-3.75256,16.77838l-0.89179,16.36083l-10.34526,3.68605l-20.98496,16.85208l-10.91754,15.3346l0.69904,9.57911l-11.90327,6.41903l-23.00052,13.63228l-16.86943,11.06851l-8.71868,-7.67677l-14.06923,-2.53318l-14.69489,0.4614l-7.09872,12.76558l-15.98625,2.83005l-15.98164,2.08254l-18.12462,-6.26683l-18.51222,-7.66925l-12.74044,-0.82416l-12.20879,-4.17136l-21.64853,-2.14371l-6.40329,-6.82529l-2.77145,0.96895l-16.96433,-4.09922l-22.56372,-20.45013l-5.60964,-15.66518l1.47329,-18.8038l-12.09121,-3.87401l-13.73307,0.93289l-9.76541,-11.79459l-3.14057,-23.87668l-6.34203,-21.76959l-1.19335,-13.43595l0.52453,-18.37525l2.64,-7.76996l1.65173,-19.74403l-3.61559,-8.83747l-2.80433,-8.09079l4.25273,-19.37235l1.79436,-21.42026l8.16074,-18.84355l10.00688,-2.50721l20.14181,-13.90834l5.99419,-17.15337l-2.70516,-15.701l8.66992,-6.50417l27.39219,-1.98476l9.91541,-14.95138l-0.31656,-11.36827l11.64067,-10.49178l20.48366,-2.61384l11.99612,-3.44849l17.04599,-1.37957l19.84537,-3.00339l14.87887,3.5326l13.92258,2.84587l14.38992,2.81033l10.36262,8.6158l13.72242,1.84722l17.40811,-0.39723l6.07657,-1.72539l17.1904,11.54503l25.36142,9.27818l14.26755,10.97774l-6.00141,10.10251l14.16782,18.44505l24.14817,15.40407l9.51071,4.89771l-5.27788,5.30917l3.26016,8.52282l3.80574,12.76157l8.2366,10.03779l6.69019,19.12915l7.22192,12.635l6.63242,11.37843l-0.82725,10.43722l-3.52366,14.81186l-5.50265,20.65857l-8.11967,16.74254l-6.09714,16.11206l-7.42052,7.08479l0.2779,15.64767l-1.53121,19.87933l0.41488,14.91629l-16.88011,2.61841l-17.04705,17.44548l-8.11985,11.96863l-0.17541,6.71297l-22.84363,10.51964l-20.51717,9.15036l-11.73112,2.95982l-15.57302,3.04946l-12.3257,-2.5068l-12.55021,2.15269l-10.65582,12.87109l-11.5454,-1.00307l-19.44353,5.91941l-18.20822,-7.50465l-14.53003,-7.92828l-18.07566,-2.78416l-11.54958,1.1118l-17.73379,-2.69278l-9.25039,-10.62106l-1.42852,1.24126l-10.8831,-5.49751l-28.10962,-16.70453l-7.5844,-20.10547l4.07264,-16.07298l-7.90076,-12.4334l-22.70707,0.31054l-10.36441,-3.15012l-10.39936,-20.40136l-1.44741,-24.62068l0.56279,-11.98956l2.26146,-22.13637l3.49693,-6.3516l-2.45758,-12.25613l3.24344,-14.46868l-5.7595,-13.98143l-0.65105,-12.15164l-1.98782,-18.23479l4.69805,-21.99441l13.03158,-14.53785l8.7111,-1.45944l21.60262,-18.88436l5.66353,-12.00765l-0.79295,-17.29062l7.51904,-5.27012l28.04236,-3.18426l6.28254,-13.06098l2.32892,-16.42483l12.11369,-4.76027l17.15576,-8.47627l11.98651,-1.0231l21.19072,-4.92043l13.34996,2.4564l19.07481,5.18042l17.27723,-3.41642l9.39122,6.51236l14.68773,7.20551l11.76275,4.10007l12.54312,0.40181l11.87321,-1.54724l16.19829,6.54446l16.70176,10.09407l24.2753,11.50937l0.65686,5.56842l8.71366,16.87516l17.8585,14.55389l16.06328,18.82663l4.25107,-1.80012l-0.12722,3.97074l-2.62965,9.40604l3.55343,17.19142l9.62172,10.87314l6.50346,10.42902l13.39157,16.4381l0.38063,15.09276l-0.19843,10.94349l3.75824,15.83287l-14.00247,17.68869l-5.9448,17.37963l-12.08395,14.29263l-1.8261,10.47568l2.20114,16.52019l-3.8674,17.12469l0.3946,16.3958l-13.07998,3.50631l-19.55031,14.95144l-12.64132,12.2387l2.51116,9.09272l-18.87822,3.2303l-20.36408,11.42043l-15.20924,7.17202l-10.48914,8.79647l-18.64046,-3.74972l-3.58115,0.94197l-19.83533,8.85816l-10.99335,4.85297l-11.74184,0.60215l-19.95477,0.37279l-17.66971,-6.05266l-13.7377,-8.05438l-20.2661,2.56536l-14.02576,-0.72124l-10.75907,-4.301l-12.08367,-8.4975l-3.27653,-3.65099l-16.3261,-4.44301l-17.9768,-16.09223l-6.2292,-23.04037l-1.58575,-13.71213l-8.03341,-13.87857l-15.92432,-1.53636l-15.84165,-2.2874l-11.56517,-15.32933l-3.39701,-22.59735l4.27067,-19.04333l1.40172,-21.76141l4.12902,-8.98687l-4.44796,-7.75426l3.38242,-15.69323l-3.07216,-15.36513l-2.20149,-11.13006l-4.38164,-17.51466l2.42069,-16.73693l9.51605,-17.03291l17.65516,-8.22533l14.62242,-8.14989l10.65104,-21.83335l1.77376,-12.22324l2.81909,-14.71025l15.06005,-1.89258l20.59616,-1.11837l4.26968,-18.95641l9.59415,-12.29046l9.96549,-8.62013l16.45685,-4.03004l16.11612,-2.75415l20.93056,-6.79557l11.94648,4.36101l18.2625,0.68775l15.13856,-0.30172l11.43378,8.09507l17.05921,5.65835l9.82373,7.23085l11.19837,3.99136l12.5245,3.02855l17.16421,0.70831l16.26741,5.22701l17.90349,9.0251l5.65522,11.87133l6.08036,8.19047l16.94809,13.40896l19.20742,17.51716l7.58412,10.17157l2.30461,4.35674l-4.59892,7.04142l2.26018,17.77195l5.50533,11.27962l13.68894,4.64511l5.46922,17.49876l7.47109,15.45847l-1.0588,11.91495l-0.55476,14.74156l-3.10825,19.47309l-5.53581,16.30517l-13.77944,14.54683l-7.17994,9.66549l-2.85079,16.04811l3.69543,22.05591l-2.39094,11.36533l-0.07683,12.8797l-19.51103,8.48705l-19.66068,13.6085l-7.19145,13.88173l-1.23276,2.6373l-18.19508,7.19283l-16.68185,7.20189l-13.87739,10.77545l-12.41854,6.88454l-20.70833,1.66499l-2.78665,-4.40548l-19.95292,3.55051l-13.88735,11.37344l-8.83696,-0.24348l-21.96529,-2.04449l-14.85696,-2.58103l-10.92609,-3.75025l-25.51468,-0.15202l-7.41601,-0.11735l-15.13218,-2.51802l-12.78871,-9.01643l-10.51375,-4.78433l-6.31369,-4.97959l-22.0143,-7.61517l-14.24133,-21.78254l-1.19034,-15.15882l1.01557,-18.39443l-17.33702,-10.12117l-13.72511,-1.94064l-14.8108,-6.22743l-7.30866,-15.66963l-3.18996,-20.83814l8.82642,-22.92807l-3.21609,-11.41545l-0.36692,-11.33229l1.76942,-14.47746l-0.46014,-17.50083l-1.23076,-11.02059l2.81977,-13.7648l-8.68722,-13.53662l4.04344,-13.96892l6.70194,-17.22948l16.81001,-8.80257l13.18519,-11.71299l15.57356,-19.05778l-0.97917,-10.15633l-0.19318,-19.12091l17.26797,-4.51782l21.88221,-3.0285l7.62217,-11.36035l7.3424,-12.10126l15.84941,-12.15548l15.50774,-4.12356l7.04832,-6.38232l24.03057,-3.62996l8.54646,-1.31703l15.69302,-3.6813l24.11811,3.18374l6.15599,4.1492l13.52093,10.60591l21.36204,4.90988l5.56462,5.6579l20.97218,3.88988l12.7146,1.84835l9.2101,4.83888l19.99374,-0.17262l15.79587,13.01853l2.41062,15.59532l5.73506,7.4611l18.95628,7.43091l19.61754,17.27768l2.84165,13.02892l2.32089,8.46051l-1.47691,9.96438l5.05347,13.26145l3.61765,9.64262l16.24162,4.9466l4.95399,16.35668l4.05034,14.90924l0.20087,16.42339l0.36575,14.77462l-3.61608,20.75105l-0.0196,15.24907l-13.17167,10.13061l-8.71745,11.85035l-4.25775,17.28508l-2.97667,16.21933l0.11,21.12524l-1.33467,6.13065l-10.8439,10.83457l-16.5375,12.5792l-16.7855,13.73965l-3.78973,7.82159l-9.86802,6.34037l-13.22333,3.57437l-21.28768,10.18336l-4.78551,12.97857l-17.45095,2.77115l-15.82964,-0.49261l-7.62221,-2.10817l-24.69239,4.56799l-7.89968,8.14872l-9.3456,1.719l-26.3164,-8.25474l-12.87075,2.97208l-10.72004,-0.50412l-19.98824,-2.23753l-6.69084,-1.33317l-19.10989,2.17237l-16.49502,-10.19144l-7.62461,-8.65935l-9.28659,-7.17419l-21.28514,-6.34872l-11.85185,-20.42378l-3.52581,-14.24742l-0.97052,-19.28855l-15.14888,-8.49347l-12.17809,-8.81203l-13.36746,-7.95331l-7.78295,-6.44839l-5.17696,-18.48016l5.99358,-28.9471l0.37579,-9.37796l-4.02696,-10.1687l1.44829,-10.62774l2.30307,-19.17431l-2.88339,-20.51006l3.43601,-9.57845l-2.76482,-17.1724l-2.2443,-11.77581l3.92967,-10.31145l8.92825,-15.03356l13.67868,-9.74607l12.63489,-11.3654l12.4596,-18.0268l2.49265,-19.09508l4.32186,-15.09081l11.80571,-1.28697l20.622,-7.24653l9.01017,-3.61232l6.20557,-12.55017l17.94939,-13.98377l18.96975,-6.92092l7.90426,-6.62454l17.75743,-0.76826l11.89536,-4.56346l11.67038,-1.54869l28.77889,1.48184l4.65649,4.05323l12.08271,11.80243l20.82981,4.99769l11.07331,-0.63891l17.43025,9.05145l14.75856,4.03347l4.75494,4.403l20.11164,-4.56917l16.55538,12.70682l8.19568,15.21599l4.893,12.19332l19.26324,6.49957l13.4172,9.43181l10.90945,19.52694l3.89454,10.23073l-0.90769,15.91329l6.12393,9.11418l3.42762,5.02356l9.19494,8.98494l11.97498,9.68579l2.87774,18.68921l-3.18363,10.82798l2.05207,20.86554l1.48943,19.82034l-0.24955,17.45319l-2.56464,13.70072l-10.29752,4.20337l-7.27536,14.00876l-6.97208,15.39378l-4.97283,19.15246l1.72602,19.46681l-5.21864,11.54319l-9.13463,10.78958l-13.10407,7.5634l-17.49923,10.33503l-10.15928,11.51833l-5.16385,3.98963l-15.5378,9.11873l-17.26736,5.57382l-11.27236,13.58817l-6.28826,4.94725l-20.97181,2.45743l-14.65265,-1.76989l-15.94568,3.87309l-18.90183,0.96792l-0.81408,10.86963l-24.30415,-6.77567l-18.84677,-5.61289l-9.25494,4.34872l-15.14965,1.07895l-12.30979,2.33229l-13.49256,-7.20584l-20.06642,1.76236l-9.61809,-11.89444l-10.83504,-8.2386l-11.73371,-14.22342l-20.24729,-7.88077l-5.50194,-16.50485l-5.53501,-18.97585l-6.13649,-16.36105l-9.89244,-4.16436l-14.25983,-9.6205l-10.36972,-9.10593l-5.13341,-5.92327l-2.68823,-18.47819l0.5499,-26.08565l-1.32489,-5.82487l-7.94174,-14.84178l5.08783,-10.51395l0.14871,-19.98471l-4.48528,-22.30534l6.16194,-3.10897l1.83661,-22.01442l0.52989,-17.31603l1.83068,-5.64098l4.8834,-13.50514l10.82457,-14.0516l13.63244,-11.79423l8.23267,-12.87246l7.19317,-20.67122l5.61229,-13.10487l6.81543,-11.69997l18.92108,-6.47163l11.48681,3.60265l11.30549,-3.1207l9.92275,-23.77981l18.40911,-11.38574l15.42352,-2.85262l10.96092,-8.71761l14.86727,-1.13138l8.97595,-3.9561l20.54253,-3.40858l22.93533,4.23127l4.09585,3.90941l13.64315,12.50021l18.57485,1.18016l15.38251,-1.82312l19.57212,12.85746l6.69827,7.74427l13.15996,2.63447l16.36802,-4.94303l13.54716,11.2548l10.49462,17.17962l6.29588,9.55614l14.10993,11.60179l12.9954,4.80299l12.79539,16.53201l9.91667,18.5909l1.19979,16.99195l0.73298,7.78196l11.24259,-5.22263l8.27264,17.4324l4.55966,6.98678l2.84337,19.28296l0.69188,14.51301l2.51696,17.15701l0.05805,19.70085l-2.35311,18.62913l-0.80125,17.15057l-2.47743,8.16935l-3.81469,9.77863l-7.58226,15.60442l-11.89973,9.24253l-0.74171,23.50606l-1.08562,16.32328l-10.24275,16.4178l-14.1433,10.47248l-11.4248,0.13242l-13.00396,16.75815l-7.35193,7.3842l-10.47891,4.79474l-10.36306,5.43779l-17.92073,6.96682l-13.64624,9.77696l-4.95176,4.73487l-21.53806,7.11341l-17.94309,2.33271l-13.89963,0.99723l-16.18966,1.59055l-3.1507,5.28135l-17.63529,-6.91627l-26.86854,-5.53999l-9.34627,6.53934l-15.88304,2.36888l-12.03136,4.94634l-7.64368,-6.48672l-22.96576,-2.11992l-9.04794,-7.47649l-13.849,-12.02826l-12.0083,-16.06479l-16.87572,-10.97614l-9.20621,-8.65039l-9.12176,-14.46965l-7.77797,-18.89641l-10.62213,-10.61349l-2.60964,-8.24885l-14.07666,-8.8655l-7.68253,-6.23404l1.88154,-9.47362l-7.83532,-21.16934l-3.57643,-16.97288l-1.72066,-7.77608l-2.37389,-21.07921l-4.03996,-13.63782l3.48415,-22.15112l2.5864,-10.85422l0.76075,-11.2368l3.09227,-20.09608l10.64524,-12.77305l-1.70303,-13.33217l3.06123,-9.4865l10.73379,-15.78177l9.37613,-10.91059l7.09801,-10.31121l3.55819,-18.5924l11.95151,-17.5094l5.92697,-5.33045l15.53717,-11.53782l14.19807,5.00188l18.18814,-3.85196l4.75539,-18.82412l16.78484,-14.91042l20.19955,-5.96148l6.83911,-8.31985l9.96915,0.00474l15.854,-2.56989l15.70633,-6.23923l27.15655,-0.72508l13.15949,-1.16755l2.16546,9.86383l18.79643,10.86622l13.11706,-5.22268l17.38618,5.99657l21.23694,13.73945l7.35845,0.20196l13.08838,1.45051l16.11181,4.32614l6.66219,12.90762l8.63163,16.62402l13.62323,11.08418l11.46642,3.73458l9.44723,7.82783l12.03038,18.55832l13.78995,18.03426l2.48271,14.71434l6.19012,9.06603l12.22256,-3.91684l5.3316,18.87759l-3.12034,10.82911l3.84373,15.52523l2.18916,17.83474l0.46453,15.57282l-1.19613,19.25001l1.15412,15.3968l-2.96311,21.38217l-3.65352,13.47582l2.25438,10.37897l-2.17004,19.75432l-12.38607,3.53513l-7.36481,18.37557l-2.59618,22.00006l-14.20554,9.86367l-10.061,16.1695l-12.55657,-0.40913l-7.24371,14.99109l-15.19111,14.31369l-8.21336,1.31826l-8.18986,3.1746l-12.311,3.46633l-12.7878,6.88927l-10.08291,12.75096l-15.11906,3.10252l-20.1282,6.68804l-17.96033,0.47902l-16.50415,4.23958l-2.79303,2.60705l-11.87727,3.78196l-18.58061,-10.53267l-26.89483,-2.00114l-13.42457,0.95847l-10.61903,10.00039l-7.8603,1.51459l-13.70516,-4.49999l-17.4792,-9.76004l-13.97313,-5.68687l-14.3173,-13.39889l-16.2405,-16.7043l-15.05488,-15.44383l-6.43701,-1.74093l-15.16177,-10.38021l-6.98233,-16.07267l-6.2702,-13.21485l-1.45674,-10.41185l-11.90333,-11.53854l-3.80705,-6.36789l0.13361,-4.68615l-7.99249,-19.05794l-11.69139,-14.81653l-3.92434,-10.19101l-0.43508,-24.79595l-1.06908,-18.2927l-1.31368,-14.94668l2.6296,-15.91073l-1.61949,-10.75063l3.70192,-13.46079l11.19804,-18.99755l10.89665,-15.03379l-0.48946,-12.31861l1.43942,-7.55833l11.0439,-15.39621l2.2931,-9.41177l6.50872,-13.4753l3.37263,-20.08421l18.71074,-10.52667l5.35361,-4.34835l12.9415,-9.90958l14.37825,-0.65812l21.20359,-1.73592l9.15104,-21.37252l19.33667,-14.63006l15.57428,-4.41694l4.59448,-9.39552l9.83835,3.53528l13.63175,-2.06849l25.762,-8.33497l21.00985,-4.45476l13.03213,0.56161l5.78432,7.76421l12.87966,4.4663l13.53489,-0.8392l22.08476,3.47071l19.53849,15.00318l11.60851,1.88757l9.58103,7.26519l14.8284,2.59638l1.17276,12.24342l12.90797,16.99546l11.25279,13.20821l15.07875,1.50165l2.50376,1.74842l16.4541,11.85431l13.14105,24.329l10.74654,18.06915l6.16252,11.20487l14.39322,3.30893l9.27849,5.35284l-6.3751,15.47546l-4.43782,15.75957l-0.07155,17.32431l5.79419,13.67443l-1.03293,19.3627l1.34186,10.55543l-2.46473,20.62777l-4.99129,20.20322l3.60551,13.52922l6.20789,15.7609l-1.67554,16.35657l-11.55606,9.71978l-11.51443,14.5018l-5.84155,19.14389l-16.29071,12.48833l-10.88475,13.02684l-13.46813,0.77451l-3.17823,18.6669l-17.03635,16.57879l-11.64963,2.25659l-8.65914,-1.49042l-5.71159,-1.06261l-9.85939,8.46836l-11.19727,13.65555l-11.83901,6.67591l-24.99649,4.43224l-21.0591,4.29552l-15.77739,0.25919l-2.80062,2.83196l-10.36315,2.74708l-15.91632,-1.45014l-24.12396,-11.57625l-19.45142,2.09921l-13.12035,1.40925l-5.6245,9.47961l-8.32689,-4.39616l-16.97031,-8.65507l-18.11532,-12.73748l-13.66857,0.16809l-23.84318,-21.19781l-11.13856,-8.78836l-12.59862,-13.06052l-3.05524,-2.98811l-19.84618,-11.58918l-5.32857,-15.76931l-3.54437,-9.4727l-2.70649,-14.06951l-10.23689,-12.02915l1.06268,-5.12957l3.63703,-8.94107l-13.76724,-10.9397l-12.31132,-12.3242l-10.99055,-16.32467l2.66076,-29.70068l-0.22608,-14.72433l-0.88593,-16.14204l1.49162,-15.90914l-3.85393,-9.42264l9.8089,-11.65644l10.7893,-15.78779l17.77632,-21.74776l-4.89357,-13.14307l-2.03018,-6.45466l10.70174,-13.99499l2.01664,-8.64093l1.70362,-14.44393l9.4582,-16.70498l12.98627,-17.55853l6.88184,-2.61296l10.59811,-3.64708l10.77885,-9.65238l23.40752,-1.35125l17.33823,-11.56057l15.2528,-13.45423l15.3011,-13.24185l12.11653,-5.91897l6.22385,-7.52391l8.34345,3.60736l17.08087,-4.70074l26.52777,-8.00026l19.09151,-3.99227l10.40747,6.57656l3.38601,2.10964l12.95016,2.19383l21.04407,4.25641l22.80692,2.44464l15.167,13.16762l12.99509,2.7155l12.30051,8.24689l7.26442,6.91349l2.00458,13.15727l12.45118,18.7017l13.13174,6.41683l14.00976,1.3381l9.04395,-0.40914l7.16516,14.14087l14.43163,23.58249l14.69079,21.42139l3.474,11.00242l14.85723,2.67201l17.54765,8.48869l-6.02768,13.64449l-6.52433,12.53851l-4.80335,17.59957l6.16573,12.44703l1.72545,18.20454l0.07245,15.69195l-1.24568,15.0371l-5.93986,23.73995l3.9915,15.726l6.29234,17.60895l8.35964,16.09193l-18.26886,5.97828l-14.22229,10.57886l-3.78232,21.73595l-14.24006,13.41128l-13.92033,13.56989l-6.13079,12.10566l-11.36961,4.73144l-11.63213,15.06758l-14.03113,21.51387l-12.15397,-2.24461l-4.54928,-4.68694l-4.43779,-1.76655l-11.30419,12.32568l-15.2058,14.09477l-11.9779,12.4749l-25.03771,-2.05987l-19.54256,5.07694l-15.18287,-0.02452l-4.81517,-2.25846l-9.65978,5.11108l-17.66405,-1.65257l-20.96988,-9.12891l-21.24444,1.61707l-11.13196,2.35347l-7.54353,4.20983l-8.7732,-2.41807l-17.66608,-5.0815l-10.20447,-14.73505l-16.64533,-4.8203l-26.0126,-15.26448l-13.22454,-15.74171l-11.37956,-6.97916l-6.47433,-6.01902l-14.31427,-11.4834l-7.6376,-9.75366l-9.42836,-8.18718l-1.25915,-20.37779l-5.75665,-7.55929l-6.29324,-9.51078l1.47116,-1.68442l5.29286,-15.48715l-18.85206,-7.66022l-11.45897,-15.97607l-6.90148,-21.28084l1.08209,-25.45248l1.92241,-10.3355l-2.81252,-23.52699l-0.28416,-12.14722l0.16577,-11.20122l12.19693,-10.45637l19.2735,-17.75839l5.06684,-20.33475l-6.79576,-13.09519l0.39787,-4.1741l9.40863,-14.90801l-1.39761,-11.53535l7.90055,-14.02355l12.67971,-14.68887l12.97313,-15.42776l3.42084,-1.25424l8.98042,-9.26541l13.67757,-10.61216l20.78801,-2.15823l22.09058,-8.30463l12.57784,-14.81382l11.37738,-7.36102l14.98374,-11.59368l5.97934,-4.59308l11.8793,-2.2655l13.66335,-2.77712l22.8752,-4.60278l19.83605,-6.09889l14.20436,2.92848l7.2216,9.43383l9.83633,2.10043l18.47709,-3.88939l20.17131,1.60335l17.77701,8.48089l13.97124,9.15236l17.53535,13.23245l11.24568,4.18805l0.05787,4.83141l7.81855,24.02579l12.28486,11.08256l17.0079,-0.35624l7.92055,0.09245l10.99822,2.2814l7.33594,18.10984l13.81117,26.663l11.22024,17.63676l5.69392,8.03012l13.37515,2.02642l19.7998,19.15634l-4.35393,6.49814l-8.67219,16.74314l-3.26689,16.95829l2.5902,10.69269l3.75287,15.63786l0.1195,16.425l-3.74488,15.47115l-2.23328,21.75198l3.16302,17.15047l8.74815,21.14433l4.61876,16.31189l-19.5307,5.27933l-13.88537,11.37322l-5.7241,20.03023l-9.90108,10.16478l-14.06587,15.41119l-8.08882,14.9332l-9.1508,7.42539l-7.2319,7.5236l-19.53502,25.17562l-12.21947,4.92347l-6.83072,-1.82017l-0.54013,-9.20699l-11.05513,7.39716l-17.90028,19.40752l-13.5157,10.63501l-16.16277,5.195l-17.86509,-2.65578l-22.66509,4.32072l-10.80566,3.41386l-6.64393,-0.87293l-15.28496,-1.86863l-15.31387,-2.28526l-24.4884,-2.93088l-16.58171,-2.05231l-5.66699,3.1654l-12.18867,5.30208l-13.55797,-5.50164l-13.40506,-5.87411l-9.84969,-13.00666l-16.93258,-9.07423l-24.17186,-15.8667l-18.36307,-10.4528l-7.77043,-7.65116l0.74639,-6.78526l-15.28841,-12.27499l-13.05846,-9.01867l-9.57301,-14.3079l-1.31231,-10.99716l-6.75262,-11.71872l-9.68184,-8.2788l4.24315,-2.01561l8.21363,-15.77884l-14.79256,-12.1561l-15.36148,-15.95973l-7.61359,-16.96169l-2.27359,-21.63457l7.11742,-12.37331l-1.48452,-18.72975l-6.30166,-23.22539l2.83885,-13.57727l9.0459,-7.52312l14.58689,-14.32227l13.78205,-18.04926l-9.43305,-17.57505l-4.38763,-11.36184l10.12702,-8.37229l7.38916,-11.63792l2.0475,-12.44637l9.24564,-9.8178l14.07182,-17.26727l14.05474,-13.59714l-1.41172,0.07068l7.55434,-11.76568l19.7096,-8.95049l23.56697,-6.79754l14.95676,-7.71557l10.00596,-7.44796l14.55279,-7.57461l13.55127,-11.96155l13.85818,-8.7859l5.14714,1.1286l14.80673,-4.8815l28.31418,-3.90744l10.52403,-0.5064l18.45707,5.40189l7.04468,6.52737l9.43988,1.39163l23.44078,-8.18129l17.74285,5.33733l15.82259,4.1183l11.55318,14.17646l14.50369,8.53893l15.85651,6.80624l3.296,1.53552l7.15757,24.24181l4.84255,10.61131l25.16346,2.71078l12.3763,2.97564l4.11359,0.535l9.0717,7.84667l11.87211,26.01533l10.09336,22.34872l4.08272,7.81993l9.87175,3.42403l18.97019,15.95319l12.82289,15.53267l-7.60417,14.25769l-8.86618,16.2575l-0.15336,11.94773l1.94704,11.25964l15.62101,17.64563l-12.87241,12.97295l-4.18479,19.56224l-1.27267,14.03881l10.16644,28.44855l4.18139,18.74407l-4.26856,12.80174l-21.40552,2.45436l-12.67739,10.57295l-3.61275,14.72791l-6.33321,14.66764l-13.06772,18.32103l-11.44636,15.18347l-2.43201,5.58869l-9.1913,10.86827l-23.91584,24.07442l-11.03247,6.38051l-4.01228,-6.76453l-4.2372,-3.58049l-15.33607,3.6414l-14.90702,18.66275l-10.8345,10.69961l-15.72878,7.28467l-14.81991,-3.98221l-24.37856,8.06576l-12.98017,6.51566l-3.77473,0.79495l-18.65728,-5.63011l-13.04292,1.57564l-20.3504,-6.25272l-21.89451,-2.49401l-6.24015,-1.56323l-12.18676,5.13955l-12.39448,0.35636l-16.89593,-6.77148l-14.76105,-5.53434l-9.69439,-11.5063l-18.46581,-13.93061l-18.00338,-15.28601l-20.42584,-9.42126l3.5631,-12.64461l-8.88663,-4.08546l-18.68507,-12.42764l-7.61034,-9.70002l-4.0352,-18.74012l-7.82461,-6.28933l-14.24181,-10.12011l-5.47997,-5.4282l8.55759,-8.36007l6.85454,-16.08738l-14.48961,-16.25039l-11.25831,-15.82378l-11.07332,-17.09558l-3.70993,-15.21904l14.76304,-10.23381l-5.37066,-18.67042l-8.02412,-28.0032l2.42453,-10.28135l14.04269,-9.55774l9.7251,-16.0313l12.85178,-12.66535l-9.4474,-21.50676l-9.0789,-9.91352l11.34149,-12.40315l14.33419,-10.45863l6.12142,-11.7551l4.49846,-12.63935l12.05671,-14.0081l14.71267,-14.34025l5.03393,-6.80259l1.89011,-3.06783l20.85689,-13.03567l17.0442,-7.60448l15.1486,-5.62604l10.27015,-5.00745l16.14819,-9.41495l14.05816,-11.38183l15.49749,-6.15426l9.69011,-10.03063l7.69325,1.72622l25.0776,-4.32902l17.41011,2.65956l14.09354,-0.09181l17.80415,5.01843l2.82292,5.57029l17.36217,-3.43232l21.25013,-5.27378l14.00492,4.03457l14.99428,11.83518l12.25987,14.08775l11.16999,6.49001l17.31063,3.58896l4.33078,1.64847l8.95849,22.599l10.24239,11.39396l23.49995,5.53627l9.05776,4.65076l2.48056,-0.3703l12.8357,5.71636l15.31936,26.36422l4.0327,17.5149l-5.70303,8.99749l15.19364,6.052l22.3669,16.18993l9.96867,17.64215l-2.07786,14.32855l-5.5721,16.06984l-5.53698,13.4195l1.75962,9.24122l14.88413,14.73294l-4.56393,17.02779l-10.71713,12.01058l-1.70471,13.91627l10.61875,31.52212l1.97056,22.85158l0.85889,10.48595l-17.02023,8.22187l-23.90392,3.3604l-3.39816,11.78055l4.92949,13.62089l-9.69564,17.50181l-14.6065,18.42774l-8.22298,15.06774l-6.53856,7.24034l-11.37355,17.21054l-22.51959,17.54489l-5.68454,2.92123l-9.40152,-5.97449l-10.0441,-1.6702l-17.39752,4.63082l-9.92633,18.58911l-13.35753,10.65532l-14.05538,4.82523l-13.98338,0.66023l-23.37333,6.9369l-9.77958,4.52775l-6.58761,1.4403l-20.99016,-3.78555l-9.02415,-3.29428l-23.13225,-3.12262l-20.28466,-3.04954l-5.81037,0.74201l-14.97511,1.15679l-14.89047,-1.25413l-14.2251,-6.65982l-17.70684,-7.15639l-9.38345,-6.26381l-14.93106,-16.34206l-15.81837,-12.16651l-17.70607,-9.91526l-0.48202,-16.04294l-10.23983,-7.72414l-13.47246,-9.73134l-11.23407,-8.08163l-4.24384,-19.54256l-5.26566,-11.03513l-20.77915,-3.90109l-12.69881,-9.99909l12.49165,-6.33314l4.86442,-17.30273l-7.65202,-18.73071l-7.99647,-12.9819l-15.79208,-17.28667l-1.1872,-14.13509l5.64263,-13.15147l5.17215,-7.65866l-8.72907,-30.70022l-2.94416,-17.70926l5.66388,-11.82495l13.59161,-6.24956l6.95139,-16.52921l6.39508,-16.29357l-7.42428,-16.4514l-11.55082,-11.84431l18.99421,-12.88723l16.03406,-12.30089l4.35026,-11.94165l8.49997,-11.95085l10.70649,-15.24651l13.82202,-10.41137l7.36342,-10.32117l3.36026,-4.66112l16.17696,-14.5109l19.92896,-3.94073l10.37711,-3.26899l11.021,-2.66367l19.31256,-13.91522l10.37976,-10.35459l17.24689,-3.89991l12.58175,-11.62563l6.70814,1.62857l21.85903,-2.10702l21.42208,2.39095l8.14379,0.25113l21.5715,6.76617l7.33579,4.40992l9.52777,-1.97312l23.75736,-9.05595l13.02255,5.74495l12.92778,7.15015l15.69834,12.45817l10.45152,10.18882l17.11987,1.97121l13.02641,5.5539l7.11385,7.56173l7.40589,19.82584l22.31217,3.30312l11.04671,16.1024l6.81601,1.26521l9.92925,2.55628l10.46769,10.57832l11.36277,23.68543l-2.46538,9.69099l-2.92395,11.41793l23.46187,12.00683l15.87913,15.89056l1.7639,15.75638l1.83386,15.72093l-6.06399,14.71275l0.27487,11.16672l5.03793,15.38085l6.68442,15.5912l-2.96585,9.16997l-6.61078,11.80654l-3.91706,15.41315l6.87128,31.75947l0.99961,20.96596l-2.98746,12.01357l-10.27226,8.00029l-22.88097,6.59365l-6.45994,11.21673l7.77301,12.02624l-7.17586,16.05895l-13.81881,21.16305l-8.76954,17.18292l-7.03738,7.95924l-9.10876,13.68623l-20.00621,15.49515l-11.77617,7.82883l-6.58497,3.693l-8.17716,-6.81836l-21.26122,-0.32406l-13.89556,12.21463l-10.14778,16.16755l-15.63013,7.67943l-10.10791,3.11272l-22.33723,3.00489l-14.32107,3.18809l-8.07308,5.29063l-15.18702,-4.33352l-15.16887,0.54985l-14.52446,-4.19072l-21.61276,1.8972l-15.63545,-7.6212l-6.76606,0.27759l-18.79817,-1.02293l-12.961,-4.36421l-17.1936,-2.94117l-13.30823,-7.46177l-5.13178,-7.38024l-16.03369,-16.78377l-18.71078,-13.81516l-11.65446,-8.94444l-3.62078,-13.06927l-11.67516,-10.81142l-13.89325,-10.78095l-10.51201,-12.40472l-4.52194,-12.44426l-8.42588,-11.09477l-20.8749,-7.21252l-9.18151,-12.16291l9.06122,-7.46064l1.84276,-16.5469l-6.37131,-19.37964l-7.68492,-11.09635l-12.85153,-18.353l-0.86462,-16.48917l2.40106,-9.1643l3.12354,-10.98898l-2.60004,-21.3761l-2.63057,-18.53763l-0.65304,-15.0135l12.75216,-7.30313l8.60535,-14.51524l5.50702,-12.97661l-1.04532,-15.08037l-6.82959,-15.06943l4.90629,-15.71784l20.99494,-15.13289l9.70239,-15.35402l2.6087,-4.18543l10.80833,-15.60497l17.30839,-17.72249l8.85128,-7.15209l5.82059,-2.20707l11.99045,-13.2476l15.07499,-17.01278l14.58754,2.92018l7.67096,2.26197l12.3057,-12.9067l17.42157,-16.90132l11.96681,-2.46283l19.61713,-8.31363l6.20423,-6.30872l14.97587,0.80285l20.4936,-1.71679l16.46404,1.91663l12.80151,0.69099l17.69899,11.5502l9.1317,0.36739l11.76474,-3.35559l19.44607,-6.78493l16.25064,5.12565l12.35502,7.89715l15.04719,10.88757l14.49999,14.38514l16.675,0.28865l11.31798,1.49583l9.38298,9.23613l12.87149,13.14756l13.50543,13.80519l13.7367,11.57102l8.12568,10.93299l6.67332,-0.7331l9.13581,8.12321l14.91039,21.40217l0.57219,10.53185l-5.70613,13.45047l18.57377,9.92488l15.73489,14.01367l3.91468,14.40285l2.92699,8.90083l-4.08949,21.74971l-3.58945,12.33228l4.98019,21.71225l4.93221,10.74463l1.17992,12.90131l-5.58722,9.27467l-5.13042,9.85058l3.14245,21.88472l5.35439,31.81955l-2.99835,16.40388l-3.25279,7.40135l-13.85722,8.75124l-17.9354,11.9925l1.79269,7.55666l-0.19019,13.873l-11.1687,14.99027l-11.34627,21.38429l-6.53307,15.09265l-4.31809,3.78782l-13.98992,19.87135l-13.85049,15.24124l-12.8764,9.00212l-9.84478,3.66727l-10.98485,-5.74092l-19.08888,-1.73526l-11.36676,11.55117l-12.75806,17.03136l-16.3372,7.65396l-12.79829,5.18705l-21.56524,1.86113l-13.95096,4.66724l-10.23427,3.35874l-13.38418,-3.91567l-17.29205,0.3884l-13.49211,-8.80599l-19.58971,7.31667l-19.17716,-7.50036l-7.00571,-1.54998l-10.31694,-2.52374l-18.11206,-5.73076l-12.64778,-6.73409l-12.85898,-5.94277l-10.49038,1.12125l-15.0519,-16.99452l-15.35413,-11.89237l-9.06097,-13.61544l-10.68019,-10.93097l-10.05547,-5.47105l-10.59517,-14.12902l-15.01659,-11.94675l-7.03564,-14.3599l-4.01295,-9.70993l-13.86236,-11.52609l-18.93143,-9.79872l2.39671,-10.34531l3.90784,-9.64157l-5.87671,-20.21253l-6.88519,-13.72977l-9.87321,-11.89301l-10.54818,-24.83622l4.93495,-10.61199l-0.96923,-12.46904l0.65901,-12.98213l-0.13189,-19.61601l-2.49267,-13.16039l-0.47887,-18.22012l11.93148,-8.78443l9.6623,-15.18708l5.85212,-7.72671l0.4678,-12.96846l-1.58168,-18.07496l3.41201,-16.01631l19.66249,-20.69173l8.80626,-17.29068l5.17394,-1.15904l8.19869,-11.77314l16.88746,-18.32213l8.7387,-8.98521l8.71331,-2.38306l11.69434,-11.98567l9.85528,-20.69623l15.00105,1.431l12.80754,3.5309l11.73854,-6.74536l14.35721,-17.27439l10.25481,-7.69536l23.93705,-1.62888l1.18964,-7.06747l11.59799,-7.21771l19.93224,-2.66476l18.87513,9.22073l13.4326,-3.84705l17.75726,10.20139l10.89277,4.58563l13.11353,-1.36306l12.08244,-0.58346l24.71739,-10.88015l13.1811,9.49238l14.25581,3.99759l13.68061,20.22337l13.06537,6.71077l17.11352,2.46628l8.96084,-2.29886l12.50291,11.46676l13.41124,15.4586l14.05157,19.96875l14.96132,6.43821l4.4846,8.23429l5.36811,3.51805l17.69295,14.18553l8.46954,16.30015l-2.35539,9.42038l3.05711,15.15495l12.22856,10.40005l13.00939,6.53393l4.12075,12.0127l0.21411,13.80599l-5.61682,19.79578l-1.71524,13.87458l9.97288,23.23866l0.56013,11.58821l0.90591,13.65314l-0.5415,10.80431l-7.28954,5.54525l-6.04732,19.91466l7.07382,28.92594l7.18588,23.16987l-5.08651,10.0234l-10.4769,12.59038l-9.41168,5.44104l-10.13845,11.26374l1.66283,9.75027l-5.57768,13.59797l-10.12691,17.19756l-14.90262,18.36467l-3.82262,7.17831l-11.45663,13.82592l-11.86569,16.87449l-11.18074,12.55492l-15.89013,7.54634l-10.24246,3.7106l-12.92475,-4.75159l-14.96217,3.24428l-14.86757,8.75142l-15.22,14.3956l-4.32629,3.95473l-28.60121,8.54009l-19.07403,1.85654l-10.04449,8.34391l-10.59777,0.751l-17.37831,-5.2553l-13.61482,-0.58466l-15.82407,-6.10245l-17.19777,8.67136l-19.30342,-8.71721l-7.7655,-7.66729l-5.33966,-0.93129l-22.18226,-6.80036l-12.14695,-8.60999l-11.05094,-2.49153l-11.44311,-2.07921l-15.68914,-15.38135l-14.51631,-11.04484l-7.12701,-9.58287l-12.39121,-8.95429l-9.89448,-6.54279l-12.82452,-16.14017l-13.30616,-9.75113l-0.83124,-13.74571l-9.73123,-14.10883l-12.37871,-10.62548l-14.47825,-9.01636l-2.00392,-13.81061l-3.47537,-9.89934l-1.09706,-16.89052l-2.08903,-10.89277l-18.26288,-15.88684l-12.26821,-18.86113l3.36666,-18.03114l4.66109,-8.61877l-1.9568,-10.26053l0.01662,-14.5421l-2.0382,-21.84724l-3.06587,-15.77825l5.06212,-15.834l13.64887,-10.28291l9.69483,-14.23368l5.62697,-5.59747l-0.74744,-16.85292l3.66135,-16.54442l5.68392,-22.38523l17.83262,-19.26381l7.32201,-12.89014l4.15227,-1.95185l5.76639,-15.12938l17.60019,-11.20558l11.26387,-11.08616l9.01571,-4.73958l10.18399,-10.52488l9.19955,-24.57015l16.32649,8.19391l12.72838,0.71906l11.89728,-1.37285l11.83181,-16.04252l13.1555,-8.11381l23.24828,-4.3931l-0.07797,-7.65179l13.03919,-8.19742l16.87445,-0.14509l21.21311,5.86527l10.4911,1.26107l16.90936,6.57609l14.32552,3.95275l11.17594,2.54309l12.41436,-2.32975l23.58952,-12.40137l18.8728,4.24228l8.35519,7.33109l16.60323,15.01919l17.35066,10.36256l14.85455,3.80484l8.95753,-2.06772l11.29203,6.50284l16.99955,15.84477l10.64456,19.84285l12.03132,13.63348l8.33856,8.40881l6.05372,3.99974l17.78863,12.13992l8.49738,17.44819l6.4756,7.2053l-0.38094,14.97259l10.80076,8.25398l9.41989,9.56664l7.30422,4.36536l7.78942,15.15144l-8.41439,19.20983l-6.43938,20.58715l4.11232,11.91349l6.73013,22.19215l2.17184,11.00232l-0.37733,17.99695l-2.53621,4.772l-6.00683,10.82753l-3.13164,21.02424l6.61901,31.76311l7.5699,16.95796l-7.56207,7.81517l-6.82928,17.6089l-9.9098,7.52367l-9.90188,11.07464l0.70386,5.56325l-7.91445,12.35833l-8.87059,14.28603l-18.3349,18.72809l-4.17394,5.95969l-8.62565,18.92045l-11.54914,9.65798l-11.02488,13.50999l-17.01273,8.48822l-10.6949,8.12559l-9.24824,3.15213l-13.96306,-1.9671l-18.58971,5.42081l-16.76775,11.50033l-8.50297,1.45088l-16.63551,12.63669l-24.03233,5.81336l-16.57656,4.07272l-8.7301,1.37101l-12.96231,5.4863M354.11777,650l-15.04567,-7.44864l-10.96111,-5.78878l-19.71624,6.10554l-15.95162,-1.44448l-13.64458,-9.77018l-2.55374,-2.34817l-19.10985,-4.9817l-15.97024,-8.7902l-13.12211,-4.19695l-6.21588,-9.63882l-16.29525,-3.53867l-17.03027,-11.56374l-10.40972,-14.79058l-7.52425,-3.85494l-9.21513,-7.32529l-14.50347,-9.24372l-15.91315,-9.77618l-8.75426,-11.47035l0.4901,-13.60094l-11.96528,-18.00533l-8.24031,-8.98891l-11.14796,-9.27217l-4.37932,-17.45094l-4.01627,-10.15335l-5.19702,-12.97317l-1.41231,-11.48378l-17.17746,-15.27281l-7.83882,-20.66898l-1.29657,-4.77223M50,368.58l0.79383,-2.0792l3.57873,-10.22077l-2.77578,-12.61117l-1.59678,-11.53041M50,298.26275l3.3616,-14.13883l9.69247,-9.50594l15.74693,-12.50622l0.9881,-10.63043l6.27117,-15.90998l-0.13289,-10.45557l7.32413,-22.02786l13.35839,-17.79651l6.55023,-19.18162l8.17552,-6.64567l-1.68795,-8.23137l16.15771,-11.84666l15.11153,-13.61251l10.91507,-9.16486l12.08059,-1.8389l7.19319,-17.18454l10.86606,-11.5664l16.31269,5.99202l15.911,1.36663l5.0622,-8.78717l13.56083,-7.64252l18.55191,-12.20611l17.66916,-6.79381l3.82611,-7.94792M314.69562,50l15.72287,7.97562l10.57825,-1.0321l19.53879,1.65355l9.45822,3.86192l12.83561,4.49693l20.29121,-5.42818l24.8382,-11.22266l4.88288,-0.30507M438.68177,50l9.93554,14.33579l13.45444,8.90996l22.41224,12.87297l10.65094,5.32841l9.12418,-3.17266l15.17024,8.56378l16.48473,18.42377l11.13307,18.36971l11.539,16.58626l5.38846,2.90389l3.22289,10.39243l19.57582,13.65592l12.15301,11.87683l8.13221,7.16649l5.02985,13.40901l4.94519,10.26676l12.02881,8.06798l4.54492,7.33032l5.69381,12.69496l-3.83836,17.82358l-3.5313,23.29224l-1.09871,12.16769l0.89633,15.56197l6.54529,14.57839l5.80968,16.49377l-7.71693,12.69586l-5.2051,10.73149l0.35807,14.76349l1.05303,22.55677l8.30449,25.72083l-3.62127,11.85927l-6.77451,14.9903l-3.86745,16.21526l-10.77974,10.62159l-3.11151,5.44676l-10.1557,1.59076l-4.84391,10.83405l-14.4281,15.21166l-16.48263,16.52551l-4.1427,15.98347l-3.81795,11.82338l-16.24996,6.19253l-9.98225,5.88923l-17.85096,20.34577l-13.62723,7.61525l-7.16062,6.23938l-16.40246,-6.74495l-17.64113,6.33684l-11.03182,13.87146l-10.26507,2.96015l-13.99539,9.16519l-22.53977,4.54659l-23.11362,8.11189M352.22387,650l-12.51445,-2.84661l-11.74845,-1.70512l-24.66763,2.72722l-11.35395,-0.49839l-7.94421,-6.2618l-5.24135,-7.11286l-20.86998,-3.17988l-17.65578,-11.39913l-14.87909,1.6611l-5.51594,-10.41542l-15.37252,-11.18711l-16.69717,-3.9212l-7.6302,-15.03119l-9.11245,-12.5803l-11.60275,-4.20236l-11.16844,-5.61877l-15.14398,-9.61838l-16.7764,-6.42943l-2.20481,-4.80932l-1.99798,-23.7423l-11.67182,-12.38834l-5.89267,-12.03578l-10.9701,-12.59321l1.29431,-19.11266l-9.22338,-6.60267l-6.93165,-12.60539l-6.63836,-15.83127l-11.16463,-14.73669l-0.92805,-2.32952M50,353.89117l0.07902,-0.0595l-0.07902,-0.16428M50,278.30078l0.53524,-1.60792l10.68944,-6.39702l6.59218,-13.41344l7.06615,-11.72727l9.61336,-18.24715l-2.0257,-9.90531l11.53137,-17.56068l5.32862,-20.49803l11.60863,-13.39039l1.32802,-9.60685l2.89287,-5.90593l16.11907,-18.56392l14.49385,-6.68983l13.32855,-6.6398l9.88792,-5.27595l10.55571,-14.07337l5.7853,-13.03645l15.16007,4.92398l17.29657,-4.66351l6.1416,-2.21433l13.12886,-12.5987l16.56223,-8.3899l22.61075,-10.17595l1.98925,-2.64306M316.38239,50l8.64274,5.35565l12.69923,-2.7418l14.91878,-2.61386M354.35718,50l10.30492,3.04551l10.29571,8.18878l21.8577,-0.43233l21.18665,-10.80196M442.39079,50l3.98239,6.65436l9.7045,1.78796l16.01127,10.26686l18.59608,10.62298l7.73748,-0.9092l14.38742,4.94588l18.82195,17.92234l11.10852,16.12716l17.20597,16.83341l4.41108,9.52531l3.81933,8.24779l9.59146,15.14944l14.44178,9.8071l14.49331,9.99l6.29826,6.7207l8.18135,10.87978l4.36824,11.18117l10.31573,9.32691l1.20422,10.45727l5.22241,12.61231l-0.09171,22.29351l-4.45633,21.89037l0.0724,14.03673l1.10845,11.97334l1.67338,13.59879l9.40025,17.37882M650,350.1774l-13.40384,13.13696l3.20743,15.79769l-0.59018,10.17851l0.60887,17.78983l3.30733,20.73822l-3.42833,17.02193l-2.65445,14.52915l1.7395,19.30334l-15.09023,14.35493l-0.83512,6.58806l-11.12733,3.26022l-6.64683,3.53099l-14.53318,9.36142l-17.68525,19.22145l-2.85247,16.96666l-6.15851,10.95355l-9.34219,0.80616l-13.17225,8.88112l-11.23237,20.43797l-21.49406,14.96321l-12.04205,7.77333l-6.95929,-6.67878l-20.05316,2.6343l-15.85489,6.53394l-11.2786,15.22981l-6.90874,4.136l-19.58991,5.54898l-21.18169,6.82366M320.80816,650l-0.8566,-0.20088l-1.36593,0.20088M286.92654,650l-4.85381,-4.63516l-10.00976,-2.16661l-21.1313,-9.62465l-17.20755,-5.8289l-12.3525,-3.50858l-6.57594,-4.20781l-19.73407,-10.69089l-13.63663,-11.18221l-3.44719,-13.02l-12.97477,-14.81724l-10.54519,-6.05904l-10.78378,0.48534l-15.50217,-5.68394l-17.77243,-9.0105l-0.43151,-2.24499l-3.53475,-23.83862l-8.8233,-12.96496l-3.48652,-12.31359l-12.82277,-14.0533l1.15328,-24.01036l-14.36843,-6.68617l-8.66169,-14.12104l-2.34367,-15.09616l-7.08007,-6.89135M50,276.54429l2.4585,-1.20192l6.27295,-14.44215l-0.27601,-11.13382l12.27067,-17.38497l8.25162,-14.15783l6.08884,-6.55865l9.73312,-25.20223l2.09838,-16.88374l8.3551,-9.4316l3.07279,-7.82097l3.72693,-10.34257l21.78696,-12.38622l12.14018,-7.99333l8.7122,-4.12914l13.1931,-12.05052l7.62247,-11.21955l5.70947,-6.87823l18.40042,1.81835l16.93242,-10.63984l9.23235,-1.86666l12.91276,-12.31535l14.14985,-12.81246l2.73363,-1.51089M371.17184,50l4.5632,3.056l22.03883,1.72327l10.14995,-4.77928M444.21662,50l13.92761,2.25108l11.19131,8.83221l22.12548,8.22757l8.28495,2.46039l11.01549,3.17961l20.72478,20.93632l10.72422,11.63764l12.83459,13.61686l12.41342,10.57054l5.36011,11.02146l2.30528,14.50936l17.30281,10.37646l12.52522,4.76838l11.15924,14.13535l12.82786,4.17352l2.12767,11.89781l9.6309,15.37832l-0.97074,12.646l-1.60372,13.51663l9.44166,14.99586l-0.00228,20.26813l-3.5183,17.6924l-3.773,10.36245l3.29619,17.34496l6.43263,11.62627M650,365.24481l-6.41862,5.50072l-3.89781,15.0746l4.0212,13.33393l4.51717,12.82641l-0.17435,17.46859l-10.32397,18.38913l2.92185,18.67235l-0.44339,18.71983l-8.12444,11.69421l-2.15363,8.10473l-13.66672,5.61625l-12.48126,3.78566l-11.73663,9.67154l-15.94961,14.40722l-3.30267,16.26012l-4.14759,10.51224l-12.87517,0.97031l-12.48818,10.03216l-11.3896,23.55314l-19.59782,9.88587l-10.60137,10.89482l-8.69649,-3.38089l-21.20348,-1.09174l-11.70806,8.92051l-17.65727,14.56016l-8.5624,7.6171l-13.41166,0.51497l-10.20227,2.24127M302.68685,650l-0.94912,-0.29295l-3.77228,0.29295M277.264,650l-7.17202,-3.25585l-18.78642,-1.47876l-11.89154,-11.54221l-12.39794,-0.13462l-12.65356,-7.37133l-11.58104,-2.90044l-18.01325,-12.22062l-10.34874,-9.91003l-4.59722,-17.61441l-15.2189,-14.20394l-10.28119,-2.65092l-9.78925,-0.8999l-23.24335,0.10978l-6.53731,-11.58897l-4.47453,-11.905l-7.77612,-18.2703l-2.0638,-13.4089l-1.85467,-11.5354l-12.7359,-13.09415l-4.54999,-22.48534l-14.68955,-11.83319l-6.6077,-12.40007M50,265.42293l2.09017,-4.47017l-2.09017,-5.34847M50,246.14401l14.61961,-16.74167l6.80294,-10.70327l9.50289,-6.3235l11.00173,-20.69889l-1.15669,-18.84321l1.06177,-9.45563l6.90401,-13.04213l6.07242,-8.28859l14.4485,-9.34438l19.25023,-6.42108l8.67317,-9.54908l10.03283,-11.90735l12.6102,-10.56306l6.48806,-5.90461l15.06681,-0.25082l17.63209,-10.27605l6.74357,-9.52587l12.53497,-10.57093l9.79184,-6.4133l2.04332,-1.32059M345.58846,50l1.77494,1.29433l2.48067,-1.29433M461.93545,50l1.20522,0.56544l16.14937,7.71029l18.30365,7.0685l8.76748,-2.05087l10.70263,13.55822l18.95855,16.75442l9.43922,10.44069l14.4698,9.5129l13.34598,8.40521l0.15894,15.91081l7.84536,16.35637l10.75955,7.22353l10.06024,0.89295l18.60534,14.15372l15.79025,8.14164l3.72115,10.6224l1.15146,17.09099l4.40631,15.6748l-7.35058,18.21137l11.57462,6.48786M650,281.47639l-1.3288,8.00426l-7.43314,8.60291l8.76193,22.44768M650,380.45794l-2.82643,5.40602l0.89244,16.39717l-0.6295,10.70744l2.5635,4.26564M650,430.33548l-5.14473,12.94407l-3.41343,13.87379l4.94258,21.63557l-7.06715,14.78113l0.1507,11.58729l-7.98167,2.02027l-18.26393,7.99034l-13.39605,7.24246l-14.1001,14.47451l-9.29484,10.53974l-1.155,18.4335l-6.69192,9.74484l-15.40995,-3.1401l-7.67456,18.96527l-18.56713,15.61295l-15.57992,10.19158l-7.20008,12.42726l-11.37772,-8.86459l-18.33931,4.50304l-17.46227,8.34874l-22.30471,14.20536l-1.862,2.14749M293.76624,650l-7.15259,-0.67056l-0.96268,0.67056M270.16517,650l-0.49844,-0.24946l-22.11323,-3.35821l-16.20629,-6.88959l-7.09094,-3.01413l-9.02511,-3.61146l-11.07768,-4.15167l-17.97686,-8.01645l-13.76698,-10.80271l-6.80204,-17.1093l-13.01988,-15.63982l-9.03944,-6.08778l-11.4793,1.32862l-18.06036,3.17143l-13.49332,-13.46558l-10.22495,-13.48715l-6.60279,-20.54889l6.94251,-6.30579l-2.69256,-11.44217l-11.28122,-13.56622l-12.84949,-20.50602l-5.62219,-17.55489l-8.18461,-5.05993M50,236.19892l11.44942,-8.83271l1.97435,-7.61819l16.04236,-16.3039l8.95062,-13.45722l-0.49135,-16.3815l-3.37325,-12.07602l4.3864,-17.16537l11.8003,-3.23485l18.7603,-7.80608l11.43041,-9.44831l12.84166,-10.87711l9.7624,-14.82104l11.93773,-5.28539l6.3535,-5.5227l15.67997,3.40681l17.1363,-13.88858l10.93993,-13.57817l8.76787,-13.30858M480.96562,50l10.8401,8.22612l14.47989,-1.93714l8.19436,10.79859l14.12546,16.3914l18.48912,11.61823l9.12406,7.99707l14.5723,9.83758l7.43679,7.37538l2.4938,19.08854l5.98335,12.24294l14.64028,5.74559l11.88245,4.97269l21.79576,10.5992l10.25728,11.79446l-4.12002,16.80402l7.45881,12.72325l1.19541,17.03594l-6.28954,17.60253l6.47474,3.28197M650,435.19084l-2.09408,4.63203l-0.07269,15.39474l2.16677,11.83643M650,481.49934l-8.95053,14.54162l3.46867,10.60262l-5.0342,7.02536l-16.39194,6.44808l-16.94346,7.43971l-14.58744,12.62199l-8.47479,9.73574l-1.86191,20.21826l-8.00146,11.30571l-9.77769,-4.75116l-12.79816,18.19834l-13.26095,11.51205l-20.21892,13.2412l-8.14571,16.84542l-9.99344,-3.34774l-15.43689,1.65078l-19.33084,1.66961l-20.84865,11.34155l-2.8752,2.20153M249.05565,650l-12.94058,-2.22446l-11.49025,-6.89054l-4.82056,-4.67916l-13.13406,-0.8105l-11.22274,-0.5365l-17.34283,-6.32907l-13.39574,-14.56296l-3.91112,-18.46681l-12.06356,-12.83367l-7.93203,-0.15048l-18.78512,-0.76875l-11.19577,0.17834l-17.84951,-14.41966l-6.28743,-22.40744l-4.65211,-13.30035l4.3289,-10.53268l-4.31074,-6.67757l-15.29376,-18.25778l-8.06105,-15.97374l-6.13691,-18.38455l-2.55865,-1.46329M50,231.23874l0.84189,-0.56934l8.54149,-10.52271l3.24987,-13.59141l17.67672,-13.5271l5.455,-16.35399l-5.57026,-8.02095l7.54739,-20.42349l2.11911,-12.82959l17.60105,-4.61994l11.25436,-1.48112l19.35927,-17.10349l8.91853,-13.73587l12.16486,-12.58528l3.92744,-1.77117l9.83826,2.60142l17.05713,-2.05097l12.45724,-17.27l15.56711,-13.19155l1.2618,-4.1922M489.41642,50l3.32568,2.45154l13.9449,-0.70404l8.75676,10.89225l13.0951,12.72821l21.91355,19.41698l11.10512,2.93181l13.97644,10.13878l2.71524,5.96309l11.30211,15.14277l1.49361,13.89907l15.07953,11.26182l10.63253,5.32102l17.82245,12.5765l14.32471,5.13418l-5.01294,16.58982l6.10879,11.8709M650,496.01495l-3.09826,4.489l0.11545,8.56981l-4.79509,11.57366l-19.72919,5.8397l-10.15959,13.40859l-14.84574,9.05167l-6.7926,12.31153l-9.60939,21.25839l-3.40379,3.52466l-9.92543,1.69636l-11.7317,13.31923l-16.0548,15.16488l-18.63584,8.85277l-8.08347,14.24172l-11.79227,1.88146l-12.39662,4.08366l-23.28599,0.79364l-8.00769,3.92432M234.1056,650l-7.35098,-3.69793l-9.51793,-6.83161l-4.12746,3.38796l-14.18499,-0.84082l-14.81545,-3.81138l-16.74787,-7.46795l-7.2539,-21.76559l-8.01204,-13.33712l-11.86162,-0.47288l-13.14731,-3.16345l-17.25936,-5.09221l-11.27034,-6.88107l-11.42656,-19.16175l-3.65309,-22.87952l-7.1862,-11.74375l3.03192,-7.51342l-10.87306,-11.72471l-12.10501,-15.73528l-3.74634,-15.44228l-2.59802,-4.78352M50,221.61543l1.62472,-3.074l4.21358,-13.93759l13.72161,-15.78991l6.66001,-14.55108l-0.05942,-5.96042l6.19369,-17.76983l4.10582,-17.17695l12.85498,-4.14112l10.18112,-1.29453l17.72039,-12.96208l13.28248,-18.27925l11.08542,-15.70646l7.96374,-8.52567l8.42824,5.95067l17.44181,-2.11351l13.74873,-14.65669l13.41873,-9.93668l0.28855,-1.69036M516.12067,50l6.18897,12.32106l17.8299,14.57091l15.08394,13.02115l13.43682,6.48967l9.76927,8.99547l2.36754,4.02805l10.47357,17.42792l5.86855,13.0466l14.55652,10.31669l14.66882,8.94964l9.59796,10.75756l12.72539,5.81739l-1.14819,20.94985l2.46026,5.05754M650,500.68212l-3.62073,8.66136l1.77197,8.57004l-16.68096,16.25056l-6.27094,8.24122l-14.4726,9.1968l-16.45417,12.13646l-3.91257,17.65264l-8.69213,14.10819l-3.84442,-1.0768l-12.20584,5.70771l-11.68095,14.22949l-15.94574,5.54276l-15.42768,14.14492l-8.1194,8.80342l-14.07274,5.76694l-6.5163,1.38217M229.77117,650l-1.33596,-1.16439l-16.9715,-5.25083l-3.64821,2.77826l-8.51249,3.63696M195.08973,650l-12.3866,-5.12613l-16.29977,-8.64333l-6.79627,-17.75049l-13.86741,-14.31355l-8.57958,-0.0169l-11.5277,-5.89433l-19.7323,-8.71702l-12.22592,-3.95881l-13.15854,-15.83761l0.15632,-28.06628l-2.73953,-14.34934l-9.95448,-5.18459l-6.17894,-8.42739l-11.79901,-14.20136M50,190.52169l12.26874,-11.97466l3.68437,-6.67145l12.43753,-6.80334l1.29632,-19.35875l-0.19323,-13.46211l15.81364,-3.51945l11.03117,-4.70694l20.2077,-14.4528l9.73372,-18.37288l10.84259,-18.47115l13.43422,-7.05513l5.4534,4.04552l18.09717,-8.10534l13.59635,-9.60381l2.42994,-2.00939M519.3066,50l3.21817,1.80956l16.99465,16.60189l16.2155,8.13226l8.65375,11.66304l14.29639,9.95462l3.7043,2.96927l9.85102,11.33484l4.48136,13.37437l13.60153,13.49954l14.63668,12.60006l11.65033,11.95445l7.48671,4.17226l1.36132,12.06069l4.54167,16.03184M650,503.08831l-3.81143,6.35991l0.20177,14.26204l-9.0648,10.6848l-4.70914,12.30946l-15.62185,8.18826l-17.16517,14.5297l-5.41986,13.1363l-10.01195,16.72801l-0.54738,4.7841l-15.29815,-5.49307l-10.73103,16.4207l-9.56087,6.60727l-19.11808,10.63458l-9.70402,6.60708l-10.73538,10.18077l-2.48503,0.97178M222.73044,650l-0.95973,-0.93258l-14.47959,-2.61652l-5.29449,2.63429l-1.97769,0.91481M183.52794,650l-12.61124,-6.39164l-9.93957,-8.67645l-7.78041,-11.7441l-17.07551,-9.62605l-7.88768,-2.56386l-13.92755,-7.51878l-15.70797,-13.09241l-13.00112,-3.29462l-8.7362,-21.17071l-0.04878,-26.04555l-5.27175,-9.62913l-13.30135,-5.04491l-8.23881,-6.21324M50,174.02299l5.23427,-2.19155l13.15106,-7.24284l7.06316,-6.77113l1.13189,-29.30222l6.55506,-8.46398l13.88577,2.75925l14.26857,-8.54396l15.21833,-21.72808l6.95808,-15.94901l15.93291,-14.43003l9.01646,-3.85608l9.53435,0.09093l14.36503,-8.3943M528.75417,50l11.90127,12.47632l14.8988,8.65057l6.98174,5.50338l16.85889,16.23742l7.73344,1.80099l6.82267,12.82224l5.86871,9.15367l13.72627,14.54631l16.9065,17.10509l7.85832,11.41694l2.48264,5.37179l7.6419,14.43901l1.56469,14.82232M650,514.9176l-0.34703,1.68803l-7.32531,12.61441l-5.02251,8.58796l-4.50604,16.87591l-15.14007,11.02538l-15.94093,12.88677l-5.54098,16.0854l-6.47992,9.75276l-6.84676,3.75192l-19.59,0.24473l-4.21806,11.84819l-13.37494,6.55738l-17.3478,8.7598l-9.50299,9.66641l-5.73857,4.73736M201.13672,650l-2.64088,-0.80521l-0.7607,0.80521M180.4967,650l-8.24363,-3.28714l-14.80503,-8.04697l-5.15642,-7.77807l-15.44161,-6.44791l-16.37242,-5.61698l-0.50748,-4.02549l-19.31991,-14.76681l-15.01982,-6.06834l-12.39522,-14.82242l-0.44665,-21.28672l-5.32647,-21.36988l-15.31651,-4.21065l-2.14552,-1.95347M50,165.83763l9.39814,-2.41514l10.9177,-10.14478l-0.19192,-29.43117l6.42762,-11.77772l14.77627,-0.38062l16.33957,-5.00244l11.41732,-21.77966l2.19533,-9.46322l22.40961,-16.51815l11.77077,-8.92474M537.61841,50l15.22068,12.4202l7.79696,-1.64347l4.25774,12.08188l24.45593,13.16169l4.53577,8.26054l7.48212,5.80816l4.3218,16.14301l14.32915,9.44664l18.01711,18.78581l0.65988,9.79987l5.49299,11.8743l5.81145,15.5846M650,522.80758l-3.64332,6.73997l-7.52509,3.74961l-0.53511,14.97584l-13.41285,17.69772l-15.6643,14.45676l-6.15052,14.67865l-8.16369,9.63484l0.04111,4.02786l-24.50149,5.39402l-10.08164,6.40335l-3.89022,9.62612l-19.0457,3.65189l-11.1906,10.52258l-3.92136,5.6332M166.30193,650l-12.15824,-5.38792l-5.47905,-7.14211l-19.49091,-7.23503l-15.83777,-6.83919l2.57968,-2.30359l-19.57287,-13.97569l-12.24888,-6.88258l-14.16056,-16.82453l-5.71951,-14.80465l-2.58111,-24.2629l-11.63271,-7.55907M50,156.6363l4.6872,-1.72948l6.13021,-21.30206l3.62707,-19.52748l8.77452,-12.5659l18.12282,-1.23241l18.44336,-6.72636l0.48509,-15.33575l9.79171,-16.53211l17.70217,-11.68475M546.46944,50l4.72854,4.75081l6.15574,2.33119l5.57434,1.09527l16.58082,18.21392l16.60988,9.68622l5.93069,3.97947l0.81593,12.0025l12.77414,12.25226l15.38858,18.28322l9.61033,9.59583l2.82091,14.89084l6.54065,11.93608M650,529.0613l-8.40798,2.59546l-1.62299,16.03544l-14.22107,24.72556l-13.22862,15.65877l-9.79908,10.89233l-2.22368,7.19684l-7.29647,1.74528l-19.15404,11.49153l-12.39563,3.71565l-5.14029,10.48672l-8.23633,2.90989l-15.39968,13.48523M151.01883,650l-16.59492,-7.56557l-19.25422,-6.40492l-8.67306,-11.31112l-6.11519,-6.39561l-12.30928,-12.27031l-20.15428,-5.62776l-7.61691,-15.07851l-6.13871,-15.99583l-4.16226,-16.73583M50,136.83051l3.07512,-4.80767l3.54377,-16.38646l5.53371,-16.00158l18.83015,-4.85384l11.54186,-4.07272l8.79595,-12.37696l11.04847,-13.7214l15.07218,-13.58092l1.72761,-1.02895M557.58813,50l5.01747,4.43978l6.45324,0.95149l11.83669,14.60543l14.16711,11.1535l10.40575,4.29745l1.10336,10.85943l13.24322,13.24285l11.65214,19.65305l10.35442,8.78806l8.17846,14.24663M650,533.20202l-4.8168,6.68905l-8.35251,17.8861l-11.95546,25.05534l-13.06051,12.60011l-4.9058,5.83415l-8.06917,5.76321l-13.86577,6.10152l-11.07681,12.80974l-7.53543,8.55163l-6.921,4.40348l-11.14709,11.10365M140.10481,650l-3.02622,-2.96029l-18.04153,-8.09771l-14.73017,-7.35056l-12.11647,-12.48444l-9.00158,-8.60393l-13.34197,-8.10458l-10.09151,-5.95463l-8.59568,-18.80881l-1.15968,-1.94946M50,118.41071l3.35575,-7.33105l5.69088,-16.20976l15.50175,-4.39164l9.4653,-3.22188l11.74082,-14.75686l13.16914,-10.49758l15.84838,-10.12305l2.17457,-1.87889M568.53662,50l1.54081,2.3078l8.88085,7.75827l8.27942,9.09341l11.86179,9.0173l8.70257,11.50349l10.0124,7.50074l14.17582,13.51591l9.65857,15.13003l6.67775,14.59242l1.67341,3.90151M650,545.25277l-6.82839,10.66887l-7.89321,22.38299l-14.27871,18.35423l-9.51547,9.26757l-8.44654,4.3134l-13.72435,7.53085l-7.37328,7.79862l-7.26019,8.20285l-7.24918,12.53716l-4.17985,3.69069M128.31501,650l-12.63288,-11.92469l-16.87347,-3.1681l-15.28278,-12.62652l-8.09234,-8.73939l-11.13933,-8.18308l-10.61495,-5.91739l-3.67926,-16.51576M50,103.89662l1.27201,-4.09108l8.95085,-12.94917l12.70281,-0.75424l7.0133,-4.13606l15.24987,-17.87219l16.08753,-10.77744l7.40507,-3.31644M578.40719,50l1.56699,6.52545l6.28382,5.95956l13.26332,6.7455l12.51927,11.49199l5.89718,12.23149l15.5901,6.86394l9.82906,16.0956l6.64307,11.02632M650,563.43593l-7.19917,18.21935l-14.92495,19.0452l-13.42637,15.19223l-9.94987,2.35205l-12.44216,9.48921l-6.42975,4.59517l-4.09917,9.08929l-6.26618,8.58156M125.09614,650l-1.70847,-1.69354l-15.62065,-11.08951l-22.00539,-2.5479l-10.14768,-16.68887l-8.68802,-4.40987l-12.42622,-9.05684l-4.4997,-11.8013M50,98.60813l0.0126,-0.02815l4.74637,-13.7748l11.91746,-3.91799l7.31057,1.57391l10.48627,-15.51787l24.45598,-14.6938l2.64367,-2.24944M589.1087,50l1.03733,1.49703l-0.35137,3.90909l14.39298,13.79492l12.63804,15.45821l12.97073,3.17699l14.80063,10.31018l5.40295,6.07482M650,584.14358l-5.60664,9.96698l-15.3613,15.63825l-10.06457,15.63304l-14.40487,6.38375l-14.90382,5.84867l3.71052,3.47712l-7.41102,8.90863M122.11536,650l-8.35271,-9.29704l-28.09171,-0.07933l-12.79896,-13.072l-5.09036,-11.00219l-15.2947,-8.68191l1.2662,-12.59291l-3.75311,-10.83406M50,100.50857l3.22417,-5.30349l-1.10656,-12.29811l16.07396,-0.80231l4.28841,-6.69721l9.60305,-14.15517l27.34263,-11.25228M595.4713,50l5.76356,8.35103l21.45404,16.09048l4.33233,7.73022l19.55988,5.19384l3.41888,2.78369M650,595.16879l-9.97023,8.21085l-13.801,24.80221l-9.92036,11.27595l-21.59648,4.12272l4.24465,4.10988l-0.202,2.30961M107.50985,650l-1.34514,-0.66303l-29.21505,-8.7612l-5.67111,-10.34186l-4.26241,-9.11611l-14.85163,-12.19864l-0.62447,-15.36852l-1.54004,-4.34175M50,92.48222l3.59898,-3.02148l1.07033,-7.5112l15.40486,-8.54412l-0.28468,-9.0853l22.21971,-10.7635l5.64592,-3.55662M600.19799,50l3.7468,5.02202l22.84069,14.80283l4.71355,7.35546l18.50097,6.45214M650,603.70912l-4.99991,5.34825l-13.52478,24.68544l-10.58028,10.88024l-20.73849,1.45819l1.08097,3.91875M75.78841,650l-7.01266,-5.23118l-0.64503,-11.75579l-15.71537,-14.3476l-1.65101,-14.57576l-0.76435,-1.40121M50,89.98656l0.04086,-0.01012l2.01966,-11.40577l14.97229,-7.48008l1.97386,-12.87931l10.65519,-8.01451l0.34538,-0.19677M611.00625,50l7.08982,4.58142l16.04877,12.60668l8.69968,6.04304l7.15548,3.57821M650,615.18809l-8.76325,11.65263l-8.46639,16.08866l-16.26754,5.67906l-2.93569,1.39156M68.3621,650l-4.54879,-12.95099l-12.26166,-10.79942l-1.55165,-15.07512M50,79.7635l1.19145,-7.85839l12.29644,-11.73568l4.42508,-10.16943M623.38351,50l9.02324,8.87173l7.73718,3.89141l9.85607,6.2772M650,622.74353l-4.05719,4.8776l-9.22666,14.79254l-9.26706,7.58633M59.68203,650l-4.10467,-12.27944l-5.57735,-5.86141M50,64.7494l3.30356,-4.55391l4.01499,-10.19549M631.73229,50l15.85901,8.68078l2.40871,1.64644M650,636.52058l-0.17181,0.29649l-18.85401,12.87329l-0.19854,0.30965M50,50.45683l0.41422,-0.45683M635.38403,50l0.09645,0.13695l14.51952,3.31985M650,639.84223l-12.86284,8.09745l-0.82415,2.06032M650,648.04907l-3.66588,1.95093" fill="none" stroke="rgb(0,0,0)" stroke-width="2" data-clipped="true"/></g><path fill="none" stroke="rgb(0,0,0)" paint-order="fill stroke markers" d=" M 32.5 20 A 12.5 12.5 0 1 1 32.49999375000052 19.987500002083326 Z" stroke-opacity="1" stroke-linecap="round" stroke-miterlimit="10" stroke-width="2" stroke-dasharray=""/><path fill="none" stroke="rgb(0,0,0)" paint-order="fill stroke markers" d=" M 0 20 L 40 20" stroke-opacity="1" stroke-linecap="round" stroke-miterlimit="10" stroke-width="2" stroke-dasharray=""/><path fill="none" stroke="rgb(0,0,0)" paint-order="fill stroke markers" d=" M 20 0 L 20 40" stroke-opacity="1" stroke-linecap="round" stroke-miterlimit="10" stroke-width="2" stroke-dasharray=""/></g></svg>