<svg version="1.1" xmlns="http://www.w3.org/2000/svg" xmlns:xlink="http://www.w3.org/1999/xlink" width="700" height="700" viewBox="0 0 700 700"><g><g><g/><path d="M336.36662,347.5353l3.02521,3.40257l-3.00657,4.52326l-7.24916,-4.51286l6.02542,-9.59359l15.86935,-7.03168l7.62889,10.63051l-0.70346,17.90829l-3.67095,13.80261l-17.6888,-4.87633l-17.27517,-7.9604l-4.38865,-8.16661l2.33735,-17.78255l13.09517,-11.98726l19.57144,-11.6941l11.88985,7.87866l8.19648,6.66384l9.51171,8.61942l3.00896,17.04793l-4.55675,9.65429l-8.701,16.53074l-9.12188,12.4087l-11.16724,4.336l-19.76807,-8.33424l-15.27434,0.70506l-12.22553,-13.99593l-2.35953,-11.35379l-0.47832,-15.67601l0.44281,-23.99741l12.94491,-16.54982l10.20763,-2.60921l18.91387,-6.90236l14.1903,-4.89929l12.58787,7.04621l14.371,3.59476l10.10463,6.20541l4.64663,27.30192l8.66002,15.24142l-0.77848,13.72422l-8.46326,7.20891l-5.3267,14.91107l-14.17163,14.31352l-8.07447,2.73065l-16.43438,5.9781l-17.08557,1.96776l-12.89478,-2.60522l-19.37969,-5.77381l-6.28458,-14.34375l-10.57588,-13.34139l2.49076,-17.53934l0.32342,-13.6187l-1.28445,-7.76932l-5.52436,-12.96471l10.15657,-20.08012l5.72127,-16.77098l13.26568,-3.4555l16.61497,-7.61204l14.68793,-2.82496l13.05041,-2.16809l15.56195,9.75298l9.78564,11.53869l15.78736,0.6089l13.52494,8.10954l9.76597,24.11783l5.29699,19.04017l2.79525,11.0121l-2.32235,22.05949l-7.88062,6.70939l-10.99264,7.10701l-11.91918,15.09739l-14.19885,17.82774l-12.90972,2.35759l-14.76569,1.58161l-11.05813,7.37781l-18.91248,-7.26566l-13.86469,-0.97598l-13.16648,-6.52723l-9.80269,-14.86416l-6.89305,-14.67073l-8.2053,-20.25214l-3.12786,-2.38596l-0.074,-15.87556l-0.63109,-11.90702l-1.84024,-11.98682l2.18079,-10.99373l11.43398,-14.10636l5.58335,-10.65092l12.06348,-16.52551l8.10284,-4.92709l14.03012,-7.35055l16.62506,-6.4322l16.80301,-3.12049l10.70847,0.83319l14.04475,11.67075l19.45037,10.67165l13.97846,0.41354l12.33562,9.49789l3.81869,12.92665l6.84563,12.53974l8.5592,23.38721l9.17224,14.26009l-4.10699,16.34647l-8.32715,8.61113l-8.38101,17.20988l3.51982,8.87417l-10.95293,11.1141l-7.11638,15.84747l-25.52223,10.14129l-11.90652,2.83578l-13.76759,0.55711l-14.35208,1.97806l-15.72324,-4.16623l-15.78296,1.36016l-15.5223,5.94555l-6.50693,-7.41082l-7.00301,-9.58993l-6.98829,-18.13609l-15.53296,-15.16795l-17.4681,-12.92098l-2.63513,-11.53342l5.80586,-13.59834l-0.47672,-15.39177l-2.51696,-13.87891l-5.93671,-18.63195l6.12971,-9.68194l18.91652,-7.58149l11.51439,-15.77548l8.58897,-9.96513l5.33177,-5.20711l10.38234,-7.86905l12.46354,-13.09699l11.45815,0.92018l19.17943,7.49849l12.12793,-6.92251l16.94098,3.02192l13.70698,2.68099l17.32999,7.91673l18.94862,6.43433l15.15703,9.73186l4.79959,9.5573l0.33702,14.76534l7.57853,5.02031l7.80012,17.1407l2.30165,11.83929l0.2044,15.50922l-1.57467,19.9572l-4.07672,13.44497l-8.3996,14.10826l-2.26129,12.81702l-5.44972,21.14704l-12.67453,8.51381l-16.86065,3.1282l-16.64808,6.89654l-9.83249,14.12692l-21.06147,-1.24412l-13.85032,-6.07783l-13.64159,3.26388l-17.42942,4.3763l-8.22208,1.37475l-15.35256,-4.24572l-14.25176,-7.75661l-9.20305,-7.10348l-6.16853,-13.22686l-13.1788,-11.40296l-8.47188,-13.71311l-4.15941,-19.66938l-7.14436,-16.07783l-8.36612,-6.54695l0.59747,-9.80094l-0.54458,-21.02374l4.41261,-22.92412l10.72316,-10.8827l-2.61343,-16.04811l6.70512,-9.36638l13.34017,-9.40519l6.60096,-9.20974l3.44239,-7.06534l17.33326,-2.87187l14.90372,-14.62668l12.72029,-4.96829l8.05401,4.04284l17.80038,-2.64801l14.78881,-0.27065l16.24245,4.45306l19.45087,5.70507l10.27103,2.61418l9.50445,-6.87578l11.27231,7.81382l25.11463,13.31872l6.86576,11.83698l7.91437,17.93978l3.66627,8.6289l17.98148,12.43666l-2.65236,12.42438l-3.31742,14.67014l6.52459,10.04139l-6.76992,26.68414l5.95137,12.3161l-5.12419,14.66677l-16.1482,8.22972l2.0975,10.48404l-10.78034,12.67632l-10.87932,14.29921l-21.87828,5.63985l-10.45435,10.77368l-11.6322,12.74793l-11.18676,12.86472l-17.42464,-1.37679l-13.57729,-3.02854l-14.93483,-4.69313l-16.98695,8.41277l-11.04217,2.86966l-14.5793,-0.37044l-18.09066,-10.91039l-14.95676,-9.36777l-10.12442,-8.52758l-2.64031,-3.74301l-10.73147,-23.04505l-6.58354,-7.72206l-14.72362,-14.58365l1.03184,-18.53765l-7.24303,-9.14608l-10.81923,-10.92605l1.09505,-15.21946l-0.16642,-14.85006l-1.11517,-17.36227l13.79266,-21.34564l2.29673,-13.40374l3.4771,-11.91709l12.66931,-7.83058l3.30539,-17.22431l8.58692,-3.42709l5.78939,-7.95402l10.38734,-8.61092l17.42189,-8.38291l13.50525,-9.42133l14.80248,-6.0356l9.37488,-1.71814l19.33885,-0.91899l15.42934,-1.20203l12.71181,6.20635l20.47876,2.6463l10.10909,7.30224l14.15266,-3.12911l7.99465,-5.51597l15.50842,13.75732l14.7352,17.39624l11.62771,16.17035l17.36133,12.49698l7.18013,15.92154l7.06422,12.51483l2.9281,13.1817l-1.89215,13.91638l-1.88146,11.05444l4.84121,8.12339l-3.56352,22.53881l2.20601,13.21421l0.03233,14.71688l0.42805,12.32573l-6.79667,8.88858l-10.31609,10.23949l-19.12372,12.24964l-9.0138,11.93091l-13.93516,6.81237l-14.70207,12.37514l-8.67646,13.66528l-13.9324,17.22426l-12.87322,0.32226l-16.53404,2.564l-14.88528,-1.44639l-10.8911,2.42668l-20.93106,-4.22168l-13.0082,-0.99072l-15.27564,-2.49162l-13.28979,-5.63418l-13.08619,-3.30839l-16.49825,-5.46146l-10.63134,-7.65824l-9.44634,-12.3462l-11.35788,-5.58847l-2.73802,-17.68338l1.66128,-6.80702l-12.57005,-15.93458l-12.69625,-12.51788l-3.6646,-7.47811l-9.25252,-29.29516l1.85135,-18.07302l-1.106,-14.57442l-0.27576,-9.69006l8.5436,-8.17828l4.20726,-14.42937l10.57538,-27.93791l12.31526,-19.06471l-1.24187,-9.40137l0.00204,-12.30262l10.61756,-9.81836l12.786,-3.88433l9.30401,-6.02247l15.5969,-6.10385l12.96874,-12.95971l8.49398,-4.71451l16.00451,2.98464l15.34866,-8.09408l21.19581,-2.8864l15.89815,1.36298l8.85426,9.73162l13.65696,8.67857l13.74225,-2.13837l17.90946,-3.35111l15.55636,0.94254l11.95617,9.59787l12.65748,15.79947l7.29469,15.81597l10.24721,7.72926l21.7556,6.35803l11.93791,13.19265l2.45432,17.03827l4.54265,14.89708l1.90329,16.37393l-0.94922,14.92321l2.89916,6.60086l5.38294,7.14937l-4.9093,22.54118l-2.31015,18.39754l-0.33769,12.02386l-0.50535,12.014l-5.65854,10.86097l-3.28353,11.09478l-8.25452,15.04753l-21.47941,6.45911l-10.10532,20.17335l-7.9553,5.58075l-7.90534,11.06771l-15.80322,16.57374l-14.9159,16.51244l-14.72808,-3.90472l-14.6725,-3.78959l-8.95588,5.07041l-13.09564,-3.43102l-15.33003,7.05729l-15.37235,-2.59048l-16.24543,-4.10986l-19.16322,-4.92905l-14.36377,-0.67559l-13.73262,-10.34624l-11.65287,-3.82477l-7.65889,6.0267l-19.14392,-9.13294l-11.63743,-12.10671l-10.65464,-14.24725l2.08689,-18.0916l-12.20799,-4.45965l-8.27384,-8.03537l-6.66558,-19.50656l-7.99219,-16.37681l-4.19226,-9.70771l-3.36559,-21.44571l5.82686,-11.39763l-0.77216,-16.09584l-5.55663,-13.65257l2.36312,-7.99428l5.28233,-19.34922l6.00166,-22.5088l7.49425,-16.58947l8.72202,-10.33305l9.38083,-11.79341l-0.30826,-16.73876l9.45534,-12.66769l14.18972,-7.86642l17.20818,-6.17511l9.96103,-9.58682l10.59839,-9.42278l9.78178,-9.19852l19.37617,3.72876l9.97319,1.38037l21.03967,-12.53259l19.51785,5.42073l14.62076,1.13968l9.5173,3.1536l9.02218,14.67245l21.38033,-7.45016l8.96363,0.41245l15.8166,2.0556l16.58753,12.11456l18.06232,6.89822l5.96683,9.4047l6.47833,16.91615l13.81329,12.5854l17.28677,8.9679l6.57862,11.22346l3.68595,10.07645l4.34366,11.45415l8.65013,9.13185l1.32516,17.09594l6.02806,14.86176l4.19135,10.28871l4.14547,9.8578l-5.55706,15.97681l-2.4485,18.75681l-4.33098,17.60304l-1.48207,16.91648l-8.32186,7.91952l-4.12592,13.55004l-2.77099,16.84496l-4.43439,13.46012l-17.04217,6.62619l-15.86316,15.13735l-2.62952,14.46656l-5.07602,7.1295l-21.57239,10.4116l-19.75139,12.71577l-6.68435,-0.05187l-17.22175,-1.59137l-13.42219,-2.72845l-13.15522,7.14118l-11.51541,8.1032l-12.55983,3.05329l-16.19037,1.41644l-19.86217,-10.75831l-15.90231,-4.94137l-16.59885,3.17071l-11.99038,-3.08227l-16.87557,-6.43727l-5.84636,-6.22629l-3.19854,-0.47015l-21.74797,-11.06054l-13.90984,-17.52741l-4.10874,-18.44679l-2.71514,-13.80533l-16.10996,-5.21451l-13.29601,1.78474l-13.45842,-14.75349l-4.649,-21.00625l-1.82274,-19.74361l1.63297,-14.87685l4.1785,-19.19683l-1.80882,-7.0527l0.82466,-15.4589l-1.00554,-13.67109l-5.19279,-11.57978l0.71838,-17.64997l0.26541,-17.21201l7.09103,-18.20533l14.03632,-8.85908l16.77133,-7.57802l10.62906,-19.90977l2.17059,-12.73967l4.81983,-15.34552l16.0862,-0.28745l18.31771,-6.16541l2.1414,-17.90713l10.58422,-8.92709l11.53264,-7.97519l14.64173,-2.2999l18.16464,-4.59462l14.97689,-3.01188l16.19589,-0.64618l19.56275,1.87596l12.70516,2.703l11.81574,5.44946l19.73446,4.40174l4.22839,6.73625l17.93148,1.95669l10.87575,-0.10525l15.43566,6.32584l18.35179,6.9672l19.43173,10.90846l1.03332,9.29563l9.8222,10.85415l18.11189,11.85214l15.89511,18.86168l2.11223,3.66847l3.40882,6.47123l-2.96845,11.70356l2.64305,15.74998l7.84124,10.83074l11.57831,7.06935l7.84534,18.2398l0.91837,16.04819l0.76263,10.38194l1.51255,17.79428l-6.33287,17.16274l-5.92295,14.71722l-12.22702,14.50316l-3.996,11.96043l-4.21065,17.62608l4.04284,18.70621l-3.22097,9.00611l-7.81998,13.37532l-18.8388,9.82647l-16.48139,13.20753l-5.60747,12.97843l-7.02794,4.13366l-12.86044,4.88161l-19.86315,9.89542l-9.82106,10.68554l-15.02393,3.56514l-16.45676,-0.9448l-6.17373,-0.44041l-22.45619,6.17528l-10.72837,8.91715l-11.62897,-0.82551l-21.81627,-4.36707l-13.7872,-0.16436l-13.11353,-2.8848l-20.32855,-0.47724l-6.34681,-1.30309l-18.69032,-0.09395l-12.94644,-8.40491l-10.50378,-7.81639l-9.89194,-6.81748l-19.51229,-8.66138l-12.04937,-18.17662l-2.77398,-15.6937l-2.99327,-17.89081l-15.62115,-8.7447l-12.65587,-6.3884l-11.49675,-10.87378l-8.28661,-7.11191l-2.69367,-21.20567l6.19514,-24.03069l-3.37833,-8.15772l-2.3603,-11.89793l0.39686,-13.95678l1.26035,-20.29905l-0.59766,-13.67512l3.38149,-12.26791l-4.12502,-19.22957l0.43404,-9.36067l4.2621,-10.43824l7.88645,-14.20322l15.1081,-12.66207l12.27721,-13.12991l8.65431,-15.20338l6.16196,-19.7883l2.9994,-12.33532l13.80612,-2.95243l17.71896,-6.60401l9.29287,-1.58722l7.12512,-16.55686l18.07943,-13.03448l18.06364,-5.61l9.39391,-7.17138l15.50197,-1.51536l11.30281,-3.52437l14.18457,-2.45813l26.93984,1.01725l5.05211,3.12017l12.01274,11.29996l20.04807,4.55171l14.26777,-3.25949l17.27196,10.3623l11.48869,6.78052l10.1821,5.21406l16.71344,-6.53606l14.28362,12.06072l11.18702,15.18217l5.32537,9.65512l15.15259,11.74294l13.87302,6.36529l11.6489,14.79923l9.20091,17.58734l1.97003,15.52326l1.90909,9.27291l9.78003,-2.77011l8.40041,16.42549l5.21246,7.74241l3.20437,18.93673l0.76417,14.25667l2.52914,17.01159l0.16949,19.09424l-2.02094,18.30168l-1.01763,16.87132l-2.22958,9.38182l-3.11531,10.7409l-6.60885,15.42757l-11.50329,9.43927l-1.84291,22.13336l-1.60384,16.30198l-10.34126,15.61292l-14.29328,12.17064l-10.03018,0.09532l-12.44762,17.54012l-9.06678,8.24454l-10.26779,3.79841l-7.36183,5.18476l-19.40581,8.17929l-12.69761,8.74798l-5.7111,5.76397l-21.53055,6.31469l-18.78685,3.52653l-12.0862,2.35859l-16.68578,0.21334l-3.18219,4.51739l-15.50245,-3.06723l-26.31822,-7.88134l-12.80797,4.67154l-17.1998,2.04211l-11.21353,5.92721l-6.98529,-3.54991l-19.38369,-8.01715l-16.30412,-7.13321l-6.68422,-6.27199l-20.87286,-13.52149l-14.0745,-18.02504l-10.5757,-4.98967l-8.05543,-6.84291l-14.41697,-14.02404l-3.1321,-17.82046l-3.70818,-9.22127l-10.88914,-11.66874l-6.65512,-7.00013l-1.46501,-6.60229l-3.42719,-16.01808l-12.96457,-14.7628l-5.42442,-12.6338l-1.82186,-17.56834l-2.7158,-22.28094l-1.224,-14.76269l1.29301,-17.36797l0.77041,-9.75485l1.46089,-13.78095l9.29311,-18.22183l13.47666,-14.91398l2.9102,-16.53286l-1.13615,-6.85639l7.47957,-14.27705l5.8937,-10.67514l4.64902,-12.12271l2.42497,-15.38625l16.62795,-17.34934l6.88948,-3.69505l11.26666,-6.00553l10.78946,-9.63495l22.23322,-0.29169l12.38551,-15.30927l16.94765,-10.82869l16.60473,-12.6864l10.17184,-3.99645l6.67313,-5.33853l13.07886,4.73618l16.91339,-9.52105l24.16219,-4.98502l16.25171,-4.45468l11.09339,7.51421l3.58055,1.61689l15.59109,0.29823l20.97703,4.21761l23.68447,10.13981l11.99603,6.90677l12.8917,4.65373l9.07754,1.4562l8.35588,10.60585l5.53834,15.7443l12.99883,15.80531l14.36342,3.72756l9.3224,-0.56083l10.89658,6.9646l9.20795,18.7508l15.25907,22.0439l9.73278,17.32805l8.83663,6.26825l11.45301,4.04592l12.0377,14.40342l-7.88459,13.01147l-2.94553,14.60411l-0.8628,16.84873l4.0317,12.17955l2.11995,20.77456l-1.71323,10.64242l-1.78357,20.1621l-3.51084,18.81871l4.50851,14.50356l8.95372,19.91758l-4.26148,11.95186l-13.22742,6.3174l-12.38586,16.75551l-6.15694,15.0759l-15.71441,16.82539l-10.08603,12.70953l-8.70275,9.15468l-6.12058,6.92955l-16.36466,20.01976l-12.55353,14.55877l-11.9939,-2.93791l-2.52292,-5.96533l-5.37811,3.05678l-16.80104,16.22634l-14.29017,11.80756l-14.74391,10.08856l-21.52588,-2.17797l-17.333,3.86296l-13.11525,2.28064l-8.76939,-2.75654l-11.54837,2.62355l-17.90389,-1.34344l-20.93683,-5.2025l-17.8899,-0.34349l-10.1488,1.85555l-9.91134,4.54135l-12.65871,-4.3622l-13.29969,-4.9608l-9.98027,-13.11723l-17.01559,-7.94632l-23.69016,-13.49228l-16.37903,-13.13435l-9.72364,-5.69556l-2.75896,-7.4386l-14.6694,-12.35368l-11.11469,-8.95723l-9.5319,-13.73975l-2.46206,-11.6975l-6.75576,-11.04671l-8.73487,-9.33857l2.46329,-2.77272l6.53847,-15.52755l-13.7907,-12.02801l-14.34506,-16.03217l-7.04162,-16.67037l-2.38446,-21.26012l5.98627,-12.5257l-1.34095,-18.24857l-5.79885,-22.54925l2.53135,-13.57293l8.5677,-8.46838l12.82655,-14.45312l12.6854,-17.13615l-8.15974,-17.82545l-3.85298,-11.47043l10.04146,-9.31584l8.00284,-11.41669l2.86508,-13.47056l8.63825,-8.9953l14.0288,-16.75316l13.53133,-14.70367l0.29656,-0.36216l6.42536,-10.34943l20.57781,-10.70321l20.27964,-7.85747l14.73895,-5.55141l10.06441,-8.84049l15.16979,-6.66401l13.72353,-13.42865l13.62793,-6.45934l8.33993,-1.26718l11.55851,-4.07652l27.21117,-4.49374l12.87379,1.98536l14.86666,3.27256l14.08389,4.42518l6.16241,1.54685l19.15171,-5.19983l18.67954,2.74985l16.14761,2.30797l12.86904,13.55665l11.91386,11.34149l16.26509,6.01759l10.74317,1.31098l8.22496,17.06147l3.792,13.37647l20.25406,6.02054l16.42335,7.05345l6.53637,2.07215l7.77035,0.82798l13.11669,19.03959l10.36747,23.65131l0.19461,9.07591l2.42213,8.23445l20.88926,12.10277l17.51938,17.62662l-1.21637,12.97392l-1.37095,16.32765l-8.4572,18.10037l1.81836,6.81609l9.6429,13.03172l4.87075,17.07418l-12.96243,12.6218l-2.09638,16.18083l4.85902,21.66798l4.78028,26.08465l0.36832,14.18505l-7.16586,10.77319l-20.16288,6.08037l-16.85402,9.00728l5.63511,12.54373l-2.311,16.39222l-13.94424,16.43386l-9.98738,18.41792l-5.56991,11.3743l-7.28522,10.8496l-19.99656,17.73998l-13.73025,10.6458l-9.47929,-2.24768l-4.78412,-1.29779l-18.32911,-0.7789l-13.2145,11.37549l-8.56727,17.3998l-17.15047,7.17046l-10.94271,4.18421l-20.6773,0.88191l-17.27336,5.55861l-7.34313,3.15999l-13.70624,-3.08553l-17.11505,2.2146l-13.17189,-3.58827l-21.90453,-1.40337l-15.02262,-4.49975l-8.68791,0.35152l-17.22893,0.45299l-12.88309,-4.91628l-17.24274,-4.39833l-13.85708,-6.40081l-5.97355,-8.32847l-17.5812,-15.62287l-16.85316,-13.16849l-12.35543,-9.34667l-3.02581,-12.46507l-12.24526,-10.85355l-12.91155,-9.70133l-10.20929,-11.9509l-4.74168,-13.58679l-8.99985,-11.71173l-20.52688,-6.72399l-7.47961,-11.98479l7.85218,-8.01365l-0.00092,-16.81058l-5.9988,-18.28169l-7.81149,-12.13687l-11.91719,-18.68828l-0.22417,-15.06057l2.25777,-10.49129l1.95479,-11.19152l-3.01753,-21.54064l-1.99785,-17.13735l0.34543,-15.62577l11.66521,-7.43697l7.63667,-14.15661l5.44302,-13.81607l-1.40256,-15.09068l-5.41523,-14.92069l6.97869,-15.57306l18.87043,-16.97697l8.5313,-13.48028l3.42126,-5.56409l11.2535,-14.62357l17.32084,-17.68398l8.03729,-6.91953l6.96742,-3.19991l12.37883,-13.68596l13.62956,-17.04934l14.62352,3.3246l8.5092,0.64313l12.8348,-11.6036l16.39998,-16.68618l11.0565,-4.04417l18.85926,-7.27876l6.78127,-3.56382l14.92818,-1.65044l19.38514,-3.37781l17.04144,3.34062l12.67401,-0.7917l16.87833,11.8793l11.08284,0.04737l9.92409,-0.93549l18.41737,-5.12614l23.454,1.70816l7.32529,5.63581l17.45235,10.14047l13.91056,16.4712l15.07635,2.11821l12.57751,2.41613l10.36368,0.59285l14.85908,12.92756l11.33781,16.56604l13.00206,14.44447l12.23659,11.13932l4.34784,2.43325l12.35426,5.0256l11.389,21.21934l6.34862,8.784l-2.62735,14.73462l11.16088,10.6396l11.23021,10.71577l9.10778,9.97567l4.16018,13.82891l-4.3614,16.08575l-5.74135,18.80118l7.04225,17.39561l5.3798,19.16917l0.90692,6.79359l-0.79402,15.49325l-1.10297,8.40248l-9.09285,10.29174l2.37522,25.73559l5.86835,28.46381l-2.17412,13.34194l-4.24708,9.77042l-11.18529,11.75999l-9.34398,11.0296l-5.14597,5.26067l2.50909,15.96571l-8.00356,13.34561l-17.39113,20.20705l-8.36067,6.92192l-4.77214,12.40899l-13.01638,16.20935l-12.94203,13.36077l-13.73781,8.4974l-14.02155,7.52867l-7.99639,2.57793l-13.00493,-0.96078l-15.87597,4.76739l-16.32621,13.3145l-12.72888,5.49381l-10.27966,5.55973l-27.92507,10.35334l-14.04127,3.05745l-10.48906,1.65578l-12.88809,3.53849l-17.63072,-2.41496l-12.69597,-6.31516l-16.51423,1.04751l-20.01204,4.43326l-14.6372,-11.00989l-2.4214,-4.05347l-15.97872,-1.83046l-17.71014,-8.99334l-11.23092,-5.03579l-8.69354,-6.12333l-15.21042,-3.9025l-16.25078,-13.55097l-12.72011,-12.53004l-6.76212,-7.16878l-11.97513,-6.4844l-11.71189,-7.60518l-14.81522,-12.27343l-10.8507,-11.27003l0.07404,-12.66586l-11.27699,-16.211l-8.61113,-10.85588l-12.32199,-9.27902l-4.58795,-15.46233l-3.0465,-11.74014l-6.08315,-13.71719l-1.3566,-10.47348l-15.34643,-15.20368l-8.21654,-19.84735l-2.69945,-11.4927M50,373.49283l1.56258,-6.08996l2.97051,-10.78749l-1.9375,-12.42483l-2.59559,-19.75932M50,303.33017l4.12865,-17.68485l7.92623,-9.7801l14.79094,-12.49399l1.29993,-11.69238l6.43179,-16.05229l0.30763,-10.22449l8.2342,-19.74197l11.0374,-18.49461l7.18496,-17.61136l7.69948,-8.74717l-0.21503,-7.38347l14.07242,-14.28931l15.44429,-12.04594l12.59259,-8.76285l9.77226,-3.6639l9.06025,-13.04117l9.09959,-14.75456l15.10107,4.43767l16.7162,-1.17125l4.91957,-4.74849l14.6982,-10.24922l16.77447,-10.42853l20.84848,-7.63527l4.3573,-7.07069M316.2298,50l11.32139,5.77055l12.70988,-0.50651l16.70373,-2.21022l10.60414,3.99099l10.61473,7.32694l23.72847,-4.23819l19.79232,-10.13356M439.69479,50l9.34088,10.92259l11.11194,3.98767l15.29188,10.78537l17.71567,9.57621l6.77336,-3.43816l15.63909,9.05888l16.77078,16.29595l10.04392,16.01867l16.91456,15.04747l5.28197,8.29269l4.65692,8.35582l13.10622,14.81812l14.82129,8.20093l7.64028,12.29593l10.66099,5.87449l4.5242,13.22056l8.50651,10.60227l4.50049,7.34947l3.90157,13.87598l4.10753,15.88471l-0.6065,21.04955l-1.1983,18.77853l0.22708,14.72659l-2.4892,10.2633l9.53146,16.25007l1.24191,18.75905l-10.68953,10.13619l3.10942,13.91174l0.93646,13.33558l1.25499,20.09333l-0.06533,19.67065l-4.94707,13.37358l-2.1326,22.91108l-1.70862,12.439l-9.17382,11.87061l-3.45549,5.43353l-12.3993,5.70849l-6.2564,6.44157l-14.48123,10.85731l-16.20181,20.05752l-1.06756,14.17984l-7.82288,7.99033l-13.11564,1.50744l-10.89301,10.01539l-15.20235,22.74549l-18.73712,13.0683l-8.49778,7.00007l-9.35738,-6.30477l-18.15612,3.80283l-14.86216,9.08349l-12.97792,10.05047l-10.74251,6.7918l-16.72386,3.33461l-11.4316,3.64186M285.64088,650l-4.87407,-2.22832l-14.66708,-2.42749l-19.78148,-8.61233l-12.71029,-6.17955l-16.27801,-2.25892l-5.6142,-5.42442l-17.47605,-7.31465l-15.40483,-9.88767l-5.57898,-15.59914l-12.02187,-14.2361l-11.0959,-7.727l-9.53933,0.69279l-15.89896,-4.18782l-16.79448,-10.83379l-4.284,-5.25423l-6.80413,-17.96709l-4.09454,-11.9789l-1.5168,-15.65801l-11.20911,-10.90461l-6.91102,-21.39212l-8.28042,-12.60106l-14.7788,-14.94037l2.72055,-11.73161l-2.74707,-4.81762M50,248.70724l5.51198,-11.27796l13.12631,-14.42457l5.36072,-6.39573l12.7934,-17.51365l2.76519,-19.5095l0.29218,-9.45503l6.1351,-13.94283l6.21255,-9.14331l7.989,-9.10557l21.10925,-9.58744l10.57903,-12.85214l9.68766,-6.72539l14.02075,-12.39071l5.67464,-3.13964l10.94957,-5.91127l18.28257,-0.93939l13.65033,-16.63739l9.21963,-9.69121l10.12784,-9.09384l0.882,-0.97066M473.95127,50l15.27204,9.62687l14.49312,0.67361l6.67574,5.12122l14.13138,16.86112l18.09557,11.19256l10.30604,10.23987l13.761,7.59394l8.83419,9.1245l3.9378,17.42016l6.84408,13.44727l11.455,6.61877l11.20772,3.168l22.87213,12.13508l10.86116,11.31901l-0.70112,15.01774l3.92572,14.03739l3.55809,14.31176l-6.36264,20.47009l6.88173,3.63683M650,440.75773l-2.09336,12.47445l2.09336,11.65007M650,480.416l-7.09715,12.43693l0.38849,12.11197l-3.02322,7.91284l-13.02822,8.38731l-17.61388,8.08553l-13.45217,12.92887l-10.51991,9.52412l-2.86304,16.82746l-8.78888,13.80935l-7.17594,-2.2918l-13.3156,14.97216l-12.30304,10.84817l-19.55759,11.45147l-9.21681,17.54582l-9.8784,1.68844l-14.62381,1.77347l-17.3704,1.19599l-20.36424,9.29698l-2.59931,1.07892M239.0862,650l-10.02828,-3.72947l-9.22139,-6.0358l-5.96367,1.39957l-14.56145,-1.83191l-14.73515,-3.14333l-16.6065,-9.4871l-6.12567,-18.29338l-9.31604,-14.06048l-11.57557,-2.90667l-12.58765,-2.54699l-16.77965,-3.59504l-11.48306,-8.07747l-11.39254,-18.76608l-4.23295,-21.37273l-7.24498,-10.89241l2.14219,-8.16145l-11.37206,-12.3561l-11.48551,-15.02116l-3.49393,-15.77127l-3.02233,-5.10339M50,217.35537l0.01178,-0.02549l4.45786,-14.90106l13.0134,-14.80538l5.72175,-13.67832l3.04707,-6.77l5.28498,-17.86588l4.6518,-15.54599l11.82925,-4.55776l10.85964,-2.90302l17.12544,-13.04718l13.41118,-17.85425l9.6226,-15.58597l10.58729,-9.14885l8.69014,4.04714l16.01878,-4.24971l13.78762,-11.43619l11.66652,-9.02745M517.35763,50l7.05775,6.8822l16.12785,14.3983l15.14468,8.23076l10.69782,12.02568l11.955,10.22289l5.21952,3.44108l9.52583,12.58271l4.86026,11.59167l15.52749,12.5819l13.25279,13.94498l8.29072,9.07763l10.30079,6.729l0.52716,14.00263l4.15471,13.04286M650,506.08765l-3.70695,5.99649l-1.7419,13.75392l-7.37561,10.86504l-8.1525,13.35152l-13.52424,7.41047l-15.18928,15.9656l-4.27244,14.68903l-10.6604,13.01501l-2.94763,2.55879l-15.51592,-1.5796l-11.45911,15.87128l-10.34795,6.51146l-16.63873,10.27997l-10.54267,8.21614l-7.67451,7.00724M203.22302,650l-4.636,-1.21346l-2.22652,1.21346M181.84688,650l-12.31068,-5.71882l-11.77004,-9.50907l-7.41993,-6.46228l-17.74893,-6.47011l-9.07562,-7.58728l-8.51363,-3.81204l-17.85953,-15.16055l-12.86206,-5.33199l-9.63117,-18.87884l-0.50405,-21.94174l-8.41543,-13.07548l-14.56864,-5.81868l-1.16718,-1.59905M50,162.37412l10.51537,-1.73053l8.10571,-16.42442l1.68224,-25.31868l9.25203,-10.31334l12.94544,-1.01955l19.84318,-9.14642l3.58336,-16.4066l8.6422,-14.7082l20.90749,-13.43497l4.36223,-3.87141M544.13277,50l9.75935,7.83418l5.41015,0.55322l7.9779,9.20673l21.17405,11.73044l7.20334,11.02552l6.59053,5.35642l5.96735,15.0474l13.47898,7.93496l15.78928,18.70862l3.4897,9.57259l4.13415,13.84139l4.89243,11.21175M650,529.55688l-0.2903,0.42054l-6.45196,9.43074l-5.12296,17.09816l-15.23899,22.17282l-11.94158,12.48959l-5.84641,11.13218l-7.11591,3.00734l-10.2875,6.39642l-14.99052,11.85192l-10.61638,7.91647l-5.99798,5.65096l-12.27562,8.57573l-4.63936,4.30025M141.70065,650l-9.1212,-7.25136l-18.116,-5.96239l-10.61747,-10.17911l-9.51533,-8.82583l-11.03254,-9.60979l-15.44466,-7.20312l-8.98133,-12.50115l-8.87211,-14.20659M50,116.27509l4.45414,-10.64856l9.0276,-13.77996l14.49317,-1.184l8.15159,-8.51272l13.75646,-13.83755l13.0726,-12.32183l15.69404,-5.99046M576.22226,50l4.56208,9.22344l8.5828,6.80601l13.15474,8.97416l10.51338,12.49665l8.73243,8.8441l15.82099,9.95277l8.44225,16.15938l3.96907,9.69517M650,565.05822l-0.89586,1.20447l-8.09853,21.26397l-15.28309,18.2215l-11.028,12.14384l-11.45173,5.25206l-10.95906,6.86751l-5.3661,4.36846l-4.64539,11.46466l-3.30471,4.15531M121.36518,650l-10.5128,-10.51428l-25.7839,-1.70233l-10.72482,-12.55239l-6.55769,-10.03031l-12.90355,-8.95365l-3.14828,-12.20725l-1.73415,-4.48345M50,99.95727l3.81722,-6.04957l0.97273,-11.66883l15.90693,-1.08061l1.53824,-8.2813l14.37088,-14.55348l16.84716,-8.32347M600.21267,50l2.93533,5.47685l21.63965,14.71794l5.32898,7.53028l17.99227,7.46529l1.8911,1.42396M650,606.20917l-2.83977,3.33424l-13.91782,23.34922l-9.90161,11.06179l-19.39401,3.14184l-0.6142,2.90373M70.51622,650l-3.1808,-12.59473l-10.56113,-8.24506l-5.88178,-22.30544l-0.89251,-0.75984M50,71.3628l10.44024,-8.2524l5.15947,-13.1104M628.14033,50l11.06397,9.30218l10.7957,3.25983M650,634.8483l-9.16432,10.23192l-4.84091,4.91977" fill="none" stroke="rgb(0,0,0)" stroke-width="8" data-clipped="true"/></g><path fill="none" stroke="rgb(0,0,0)" paint-order="fill stroke markers" d=" M 32.5 20 A 12.5 12.5 0 1 1 32.49999375000052 19.987500002083326 Z" stroke-opacity="1" stroke-linecap="round" stroke-miterlimit="10" stroke-width="8" stroke-dasharray=""/><path fill="none" stroke="rgb(0,0,0)" paint-order="fill stroke markers" d=" M 0 20 L 40 20" stroke-opacity="1" stroke-linecap="round" stroke-miterlimit="10" stroke-width="8" stroke-dasharray=""/><path fill="none" stroke="rgb(0,0,0)" paint-order="fill stroke markers" d=" M 20 0 L 20 40" stroke-opacity="1" stroke-linecap="round" stroke-miterlimit="10" stroke-width="8" stroke-dasharray=""/></g></svg>