<svg version="1.1" xmlns="http://www.w3.org/2000/svg" xmlns:xlink="http://www.w3.org/1999/xlink" width="700" height="700" viewBox="0 0 700 700"><g><g><g/><path d="M330.79386,346.53744l3.75594,3.59919l-2.33824,5.33366l-7.70425,-4.29739l7.54693,-9.25042l17.07573,-8.20429l5.84671,10.68629l-0.58175,18.79242l-0.45457,15.21545l-18.57416,-6.94899l-19.16176,-7.57322l-3.96321,-5.69046l2.1238,-18.87714l14.35482,-12.13919l21.70707,-14.16978l10.58172,10.41356l6.29059,6.13792l9.95249,7.0004l3.19162,17.8771l-4.96912,7.61042l-8.63149,18.22242l-7.65524,14.11613l-9.69263,4.87569l-21.69546,-10.70141l-16.09962,3.94246l-13.12707,-15.04233l-1.02575,-10.29037l-0.30899,-15.90922l-0.93341,-27.75326l14.84622,-18.09067l9.63323,0.19705l20.89042,-7.37011l13.85294,-6.29614l11.70207,8.67924l14.77474,2.22506l9.79288,4.50663l3.46203,33.01119l10.59827,15.50011l-1.00988,13.18143l-10.19128,4.2925l-4.35799,15.70156l-15.5245,15.82703l-6.06782,0.83353l-17.19365,6.77574l-17.89271,2.63788l-12.17798,-2.29857l-21.75229,-5.36541l-4.21734,-16.16586l-11.27115,-13.79812l5.79393,-18.989l1.42099,-13.11984l-2.20535,-4.86668l-9.48136,-12.38593l11.23344,-22.88111l3.94527,-19.03492l13.63603,-1.38738l17.69637,-8.35502l14.63509,-2.89808l12.25369,-3.26032l15.95205,12.16903l8.30327,13.48562l17.37388,-2.87347l15.07047,6.73789l10.8265,28.46085l5.69734,20.88773l3.38276,9.42164l-2.5824,24.90214l-9.20022,3.66083l-12.47317,4.68592l-12.80573,16.53761l-15.18543,21.19261l-12.74813,0.4998l-14.91239,0.47368l-9.49738,9.70338l-20.48222,-9.66826l-13.61314,0.24103l-13.0314,-6.48986l-8.89832,-17.21762l-5.55863,-16.1294l-8.25978,-23.27696l-2.11487,2.23237l1.13045,-16.33883l-0.71217,-10.65755l-3.46635,-10.83323l1.13587,-9.69062l13.12808,-14.46885l4.06776,-10.20873l12.38763,-19.14757l6.22766,-3.73759l14.06351,-8.04552l17.39751,-7.73431l17.51685,-4.10302l9.02465,0.42524l13.90152,14.6172l21.83301,12.29068l14.68098,-2.9212l13.01865,9.04529l1.84249,13.2113l6.9162,12.16761l10.21644,26.99533l12.01689,14.00888l-5.61561,16.87466l-10.57368,6.14241l-9.73086,18.42552l7.79428,7.13975l-11.67824,10.78775l-5.61051,18.0401l-30.79032,10.77392l-11.26061,1.34687l-13.5284,-0.9844l-14.14506,1.90104l-16.0019,-5.7889l-16.16111,2.85492l-16.00655,10.15555l-3.72358,-7.7076l-4.87552,-9.98598l-5.41953,-21.25788l-18.04004,-16.50358l-21.48501,-12.86454l-1.51555,-10.54356l9.46204,-13.1776l-0.19808,-15.55694l-3.92515,-13.43409l-9.57151,-20.2086l6.4924,-7.91992l23.61113,-5.33523l12.52698,-17.26872l7.78568,-9.6915l2.66736,-3.6706l9.27744,-8.10699l11.83583,-16.19031l10.18414,2.63058l20.86438,11.01414l10.97848,-10.00808l17.81763,3.09054l13.50238,1.8144l18.89314,8.3851l21.57686,5.60365l16.77648,9.57982l2.86379,8.77184l-2.72781,15.58575l8.12193,1.5593l9.186,18.24429l2.27028,10.64257l0.13037,15.70665l-1.56415,21.96608l-4.28484,12.98563l-9.58214,14.15186l-0.27394,12.67754l-4.07519,24.76208l-13.59013,7.57906l-18.92316,0.61438l-18.17842,6.52649l-8.27647,17.33552l-23.72905,-3.45925l-13.46109,-9.4759l-13.09403,4.36639l-18.41993,6.68848l-5.64902,3.23948l-15.8447,-3.89951l-14.6059,-8.12l-7.9237,-6.55643l-4.13821,-14.53533l-14.48426,-11.45215l-8.48623,-14.22839l-3.09069,-22.18736l-7.95149,-16.86263l-10.373,-3.30988l1.44681,-7.74532l-0.88825,-23.42751l5.31971,-26.14836l13.43733,-9.43901l-5.92561,-16.90457l6.46404,-7.86528l15.14147,-8.31057l5.14811,-8.49738l0.22845,-6.01788l19.24541,-0.72385l15.48679,-17.80288l12.15018,-4.93965l5.4183,6.9908l18.94698,-3.0783l14.69833,-0.45872l16.78452,5.44883l21.40952,6.50881l8.77059,1.51094l7.98627,-12.41441l10.82169,7.55124l30.62742,14.70575l5.56528,12.13342l7.57243,20.24013l2.20938,6.83371l22.8721,11.86378l-5.36518,11.61961l-5.62625,14.61288l8.8336,8.0594l-9.09553,31.36392l9.39075,11.33059l-5.45385,14.77904l-20.24994,5.9977l5.90003,9.45379l-11.56192,12.88825l-11.17924,15.58568l-26.10851,3.94232l-9.70314,11.6574l-11.00233,14.99018l-10.09485,15.75628l-18.61295,-3.55307l-13.08276,-5.21847l-14.91167,-6.89156l-17.78563,12.11634l-9.53598,5.00996l-14.6317,1.11437l-19.75979,-13.022l-15.64999,-10.27092l-9.2241,-8.53819l0.85696,-1.32454l-10.91962,-27.87911l-5.60815,-6.0107l-17.54052,-15.25722l3.9467,-20.49341l-8.23591,-7.10908l-13.86078,-9.43047l2.18783,-15.33773l-0.21559,-14.78482l-2.17995,-18.33386l18.06326,-24.00943l1.35653,-13.05496l2.41862,-11.20093l14.72569,-5.76724l1.08859,-19.26247l7.99509,-0.34281l3.63592,-7.12472l9.67996,-8.53122l19.18872,-8.73594l13.42261,-10.74485l15.01536,-6.585l7.2548,-1.1394l21.10524,-0.63162l15.59624,-1.64455l11.81943,8.11141l22.78362,2.51891l8.41792,8.4425l14.29017,-6.73634l5.93705,-10.62726l16.77818,15.83717l16.0676,20.44976l12.13501,18.29262l20.62141,12.75425l6.86356,17.20196l7.22838,12.13809l1.99067,12.83209l-4.18476,13.67795l-3.58266,9.54694l6.42447,5.37848l-4.74443,25.55467l3.92704,12.55412l1.46858,14.77016l2.59219,11.59181l-6.97339,7.00404l-11.37735,9.17201l-23.21551,12.31243l-8.60439,12.23846l-15.07655,5.48695l-15.77572,13.72729l-7.01196,16.01941l-14.09178,21.51655l-12.38222,-1.60807l-17.3343,2.08695l-14.90792,-2.95792l-9.2537,3.04171l-23.3033,-5.68643l-12.26071,-0.58668l-15.53954,-2.12001l-12.9175,-5.96532l-12.84258,-2.17364l-17.87936,-4.67585l-9.97272,-7.26728l-8.66483,-13.37866l-11.73276,-3.50224l-0.09362,-20.05928l5.60388,-4.49945l-14.81004,-16.99077l-15.50079,-11.96812l-3.38988,-4.72301l-11.76082,-35.12872l3.22716,-19.3318l-1.47517,-14.40051l-0.87452,-7.58189l10.91613,-5.53713l4.29889,-14.41175l12.68265,-33.49683l14.60615,-21.29576l-4.86257,-8.0346l-3.58216,-12.40745l10.84999,-9.28128l13.4912,-1.3629l8.25997,-4.77955l16.75455,-5.34695l12.8031,-15.42489l6.31192,-4.3834l16.64732,5.87588l15.59823,-10.16718l23.70263,-3.41811l16.25401,1.98508l6.41041,13.1555l13.20138,11.14032l13.43653,-4.5351l19.43373,-6.75115l16.34828,-1.24057l11.56079,10.398l12.837,18.6268l5.66248,18.22543l10.16556,6.51185l26.67985,4.2352l13.36724,13.48468l0.54842,18.58989l3.95251,15.3559l0.75619,17.23118l-2.72423,15.05319l3.18677,3.30119l7.19336,4.01523l-6.68461,25.55693l-2.51693,19.7959l0.76696,10.95914l1.04425,11.07721l-5.67256,9.63905l-1.868,10.18514l-8.36956,15.97855l-26.45172,4.25291l-10.12363,23.78715l-6.74051,3.72525l-6.33146,11.80524l-17.08575,19.93926l-15.57928,20.30302l-15.09242,-7.81092l-14.83252,-7.16276l-6.69015,5.74139l-12.39055,-5.6511l-15.46777,9.54761l-15.52064,-3.44249l-16.78095,-5.05499l-20.94776,-5.69312l-14.35353,0.76084l-13.63692,-12.29221l-10.93288,-2.69302l-5.58782,11.5481l-21.95031,-9.2496l-11.75942,-13.01331l-10.73397,-15.63951l6.72408,-20.68259l-13.69561,-1.29271l-8.61837,-6.02946l-6.81795,-21.85752l-9.14359,-17.28342l-4.30593,-7.79457l-3.64123,-24.11691l8.72869,-9.98059l-1.01274,-16.53127l-8.21359,-13.12604l2.37523,-5.26168l5.97049,-21.25716l6.49653,-25.8196l8.11904,-17.71089l9.38785,-9.16818l9.88025,-11.46524l-4.09143,-18.67568l9.19635,-13.29541l15.47141,-6.9228l19.37468,-4.93162l8.93863,-10.10941l9.57531,-10.30311l8.21242,-10.43149l21.46226,7.20842l8.15418,3.44962l23.54255,-16.50913l21.34707,8.13862l14.46622,1.65522l7.33652,3.98503l6.69826,19.62526l24.09384,-11.82584l6.8431,-1.28778l16.60736,0.55597l17.89293,14.19773l20.19861,6.47277l3.53886,9.58114l4.55995,19.72037l15.16285,13.30683l20.38635,7.92026l5.7798,10.78641l2.13657,8.92117l3.48283,10.62424l9.9535,7.18237l0.1534,18.17759l7.20262,14.93223l5.10367,8.45004l5.51614,7.80483l-7.58947,16.36759l-2.76138,20.29368l-4.92554,18.75011l-0.47352,17.89766l-9.59631,5.44683l-3.28252,13.50963l-0.96227,18.33645l-2.88639,13.84407l-20.1538,4.55372l-18.14315,16.77545l0.71838,16.16938l-2.39984,6.25534l-25.21723,11.23061l-22.42126,14.85684l-3.91316,-2.5999l-18.4848,-4.32231l-13.01922,-5.4691l-12.53454,8.80299l-10.1637,10.61113l-11.58692,4.00643l-16.66696,2.18107l-21.84089,-14.39909l-16.36629,-5.79543l-17.44592,6.01414l-11.13305,-2.29732l-18.14485,-6.56418l-2.90889,-5.85374l0.56205,2.60243l-25.67273,-11.84632l-14.99282,-20.54409l-1.59082,-21.49933l0.01659,-14.69523l-19.10178,-2.38955l-15.54766,7.65886l-16.17788,-15.27562l-4.2626,-23.84204l-0.73631,-21.91946l3.6612,-14.98449l6.777,-20.94488l-2.05803,-3.88984l1.17385,-15.63979l-1.843,-13.15264l-8.1567,-10.27487l-0.32703,-18.8571l-1.39905,-18.36122l7.72955,-19.90166l17.03864,-6.99824l20.46862,-5.4165l11.48789,-22.92184l-0.71596,-13.15222l2.65254,-17.09501l18.10839,3.66737l20.94051,-4.90312l-1.97168,-21.70335l9.61093,-9.51149l10.73062,-8.57523l14.90556,-1.04016l19.69103,-4.67473l15.11347,-2.89009l16.73779,-0.01616l21.40186,3.07238l11.78465,3.78581l10.55578,7.1869l21.69103,5.27905l0.06393,8.11163l19.36143,0.99217l9.62766,-2.31266l16.18598,6.28493l20.47215,6.79125l22.21562,11.93385l-3.28398,9.31909l9.30377,11.16447l21.2162,12.24709l18.44139,21.76947l-0.50595,0.23308l1.67605,3.91746l-6.86929,11.03082l1.38365,16.51254l9.0698,9.47186l14.72003,4.08239l9.91961,19.62828l0.65275,16.49847l0.86847,8.53556l2.3527,18.91414l-8.19822,18.06265l-7.1956,14.70267l-15.59873,14.49739l-3.66106,11.06205l-3.55778,19.14777l8.38838,20.84221l-1.40417,7.47174l-7.48238,13.82456l-22.56652,9.11706l-18.94384,14.13496l-3.41951,14.12066l-5.13029,2.0648l-13.04221,3.4574l-22.61792,10.83904l-8.35753,12.32245l-15.46761,2.74412l-17.32797,-3.16858l-2.81509,-2.05233l-25.52341,7.62658l-9.04714,11.88684l-10.28069,-1.32867l-24.5457,-5.8622l-13.33778,0.44457l-12.45711,-2.94487l-22.64994,0.83904l-3.19607,0.08827l-20.62565,2.1766l-12.76015,-9.07502l-9.54269,-7.88104l-8.91361,-6.12797l-22.63365,-8.372l-12.45987,-21.37466l0.23004,-17.60016l-0.39243,-20.39938l-18.40515,-7.34105l-14.60401,-3.81257l-13.34629,-9.88761l-9.23013,-4.44259l-1.78916,-24.02233l10.25682,-27.85338l-3.55165,-5.53527l-2.5373,-10.70407l0.90854,-13.54762l1.70196,-22.41675l-1.31404,-13.16193l3.84467,-11.2391l-7.0719,-21.06094l-1.09014,-7.34783l3.8767,-8.98702l8.56861,-14.41515l18.30881,-12.44043l13.98923,-13.3031l8.57627,-16.43741l4.76304,-23.11034l0.02997,-12.95153l14.87374,-0.11085l20.08718,-5.53698l8.04842,1.15559l4.79469,-20.14828l19.93616,-15.57711l19.74463,-5.55508l7.46345,-8.12355l15.89763,-0.5962l9.92864,-3.80655l13.90019,-2.71639l31.72212,1.74359l1.07143,4.28105l10.83597,15.32688l22.13245,5.4761l14.11412,-5.85835l18.42072,12.81964l10.45102,7.42069l8.77416,4.85295l18.0951,-11.96049l14.89427,13.72479l10.78283,17.75921l2.82213,9.7018l16.84648,12.32267l15.34072,4.51066l12.53064,16.05488l9.42379,19.71605l-0.36394,16.60632l-0.10011,7.65886l11.28038,-9.37442l9.7205,17.35095l5.63768,5.07135l3.21367,20.64577l0.19001,14.0221l3.05711,17.83368l0.15153,20.73049l-2.51712,19.62841l-0.71626,17.65974l-2.0202,7.23438l-2.8726,9.22279l-7.38279,15.89517l-13.86272,7.64736l0.02403,25.57901l0.70929,17.59837l-11.18565,16.83948l-16.39558,12.24765l-10.12025,-4.40992l-13.21487,20.28006l-8.2103,7.55172l-9.63982,1.62951l-5.34015,3.88837l-21.99187,8.41284l-12.41288,9.55385l-2.46732,5.73229l-24.47382,6.86902l-20.51615,3.33941l-11.04346,2.08456l-17.41609,-0.53366l1.53048,5.88032l-15.70168,-4.34828l-30.85292,-10.69826l-11.97296,7.26378l-18.18095,3.96723l-9.88433,9.78605l-4.07327,-3.1088l-21.5633,-8.99793l-17.40733,-7.405l-4.1174,-5.85495l-24.18109,-15.67238l-14.88377,-21.65931l-10.22566,-3.10685l-6.9563,-5.41478l-16.13911,-15.19922l-0.63343,-20.26361l-1.74833,-7.99367l-12.12396,-11.20948l-6.53119,-4.48403l0.38895,-3.75962l-2.71382,-16.7969l-16.43011,-14.91781l-6.24459,-11.83911l-1.57688,-18.67328l-3.20794,-25.2209l-1.50107,-14.66962l1.64054,-18.31565l0.52771,-7.68022l1.11572,-13.36385l11.70621,-19.65206l17.19414,-15.11561l2.03907,-17.49971l-3.97937,-4.0929l7.73896,-14.64405l5.18628,-9.78488l3.12377,-12.01546l-0.29607,-16.80802l19.29688,-19.79862l5.38787,-0.94258l11.25792,-4.45382l10.34995,-9.82703l26.15034,2.94723l12.16252,-18.39671l18.3691,-12.45496l17.72983,-15.39722l8.58646,-3.58179l3.57326,-5.81883l12.44901,7.92143l17.74809,-12.4078l27.85041,-6.42979l16.75312,-6.0616l9.53225,10.32017l-0.96161,1.69033l15.90047,-0.52688l23.51107,4.59313l27.39442,12.52243l11.14575,7.64117l12.53657,4.14001l7.35476,-0.674l6.52296,11.80874l2.77669,18.68773l13.43861,18.47143l15.58434,1.27511l8.77937,-5.00079l11.25178,5.27897l9.17134,21.54106l17.94051,25.93093l10.51409,19.12721l9.58145,3.46158l13.5767,0.18871l14.73661,14.54845l-12.8055,12.48032l-5.53529,14.61234l-2.25892,17.67919l4.95763,11.08902l2.64772,23.09117l-2.35125,8.89782l-2.0827,22.23949l-4.13568,20.39528l7.45342,14.41279l14.0342,22.07306l-4.11543,11.0233l-16.32327,3.25846l-14.809,18.01586l-5.76205,15.82852l-18.82687,18.46134l-10.64348,12.90135l-8.41628,8.14469l-4.52473,5.26671l-18.60503,23.84634l-13.02404,16.46947l-12.01204,-7.74319l1.45818,-11.68581l-2.34665,1.25291l-18.1654,20.00888l-14.49649,14.15083l-14.99822,12.08089l-24.3801,-4.74839l-18.41817,4.05868l-12.44271,2.19785l-6.30938,-4.49643l-10.17244,3.3955l-19.06433,-1.79773l-23.32625,-6.84043l-19.09789,0.32032l-8.31905,3.75398l-8.06642,7.86469l-12.01332,-4.25534l-13.03164,-4.75532l-8.52528,-15.84433l-18.53493,-8.2843l-28.05824,-15.73823l-18.01962,-14.93817l-8.91636,-4.23737l0.60338,-6.40461l-16.31772,-13.0271l-11.60235,-8.02874l-9.66149,-14.49706l-0.05157,-11.42759l-6.36236,-10.32376l-9.44341,-7.75786l5.91414,1.59002l11.2911,-16.13036l-17.5053,-11.11439l-18.62304,-16.6237l-8.74471,-17.44109l-2.57483,-23.81128l8.79164,-11.54842l-1.82021,-19.54663l-8.41496,-25.57465l2.89491,-13.03566l10.99587,-5.93781l16.61204,-14.38543l16.0731,-18.23081l-13.44538,-19.3048l-7.74399,-10.53613l11.38845,-7.66698l8.22402,-10.77383l0.73123,-13.83268l8.5252,-7.76785l15.7959,-18.84576l14.83672,-16.209l-3.94049,3.62182l4.40631,-10.62158l24.00202,-11.39106l23.38335,-7.69325l15.44229,-4.76203l8.73157,-9.67401l15.731,-6.94315l13.57684,-16.73772l13.33274,-7.31149l5.83874,-0.3789l10.27365,-4.65289l32.13621,-5.5812l12.03276,3.14315l14.81177,4.59787l13.725,5.86436l2.66408,1.48886l20.89815,-8.29984l20.30587,2.49l16.84934,1.53641l12.36663,16.95546l11.15537,13.53208l17.39132,5.76447l9.82261,-1.12992l6.47624,20.62566l0.46578,15.18252l23.7242,4.61196l18.58785,5.79856l4.98709,-1.42116l6.96922,-3.39451l14.7213,21.88532l11.15138,28.1411l-2.80081,7.55132l0.6174,6.20605l26.77993,11.47195l22.37849,19.07354l-3.52839,12.44632l-3.4159,17.04677l-13.00308,19.45275l1.71981,3.59811l13.01374,12.26263l6.67366,17.90409l-17.95161,11.6722l-2.39882,16.67565l7.67712,24.39771l7.90223,30.64021l2.05672,14.0588l-8.16507,9.37879l-26.04102,2.92369l-21.09596,7.15403l10.69329,12.25511l-0.13595,17.8099l-16.13726,18.05141l-10.32341,21.02797l-3.87651,11.3808l-6.02814,10.87443l-23.58763,20.76272l-14.59253,11.0854l-8.43371,-6.69901l-1.66844,-5.09162l-20.45542,-4.07747l-13.13548,13.23561l-6.48688,21.97488l-18.37831,7.96636l-9.58017,4.10448l-23.11942,-0.19458l-18.28306,6.68125l-4.3284,3.65488l-13.20307,-4.75496l-17.96044,3.00025l-12.44378,-4.78863l-24.69193,-1.39556l-15.09829,-5.39827l-6.28913,1.72273l-18.32421,2.18996l-12.33559,-5.00684l-18.55227,-3.96756l-13.94272,-6.46384l-3.05292,-8.86328l-19.46707,-18.78497l-18.62701,-15.06806l-12.52457,-9.44727l0.32796,-13.55414l-12.80207,-11.05123l-13.97087,-9.20422l-10.43612,-12.13326l-3.04152,-14.21733l-9.27386,-11.40089l-25.69257,-4.24205l-7.71637,-11.44704l13.44995,-5.74364l2.15013,-17.93226l-6.55873,-19.88183l-9.41371,-11.18649l-15.48333,-20.28352l0.56183,-15.14761l3.70903,-8.71147l2.95588,-9.67072l-4.33481,-24.15649l-3.23617,-18.00697l-0.28297,-15.92383l15.23982,-4.51043l9.27844,-13.98654l5.89034,-13.59582l-4.0051,-15.48345l-9.92818,-15.36547l7.12516,-16.41519l23.4835,-18.53307l8.72755,-13.8056l1.30207,-2.90581l12.00628,-15.78635l20.25093,-20.282l7.01634,-5.43597l5.29357,-0.46517l12.65793,-15.39405l14.21125,-20.36215l15.4196,7.89179l6.69135,3.85879l12.59444,-13.57413l17.44885,-20.98492l9.84739,-3.5881l20.66726,-8.42441l3.67095,-3.53638l15.00658,-1.17459l21.19355,-3.91299l17.87698,5.17052l11.74466,-0.93825l17.63027,16.47731l9.53359,-0.4106l7.94572,-2.10822l19.88795,-8.29426l27.00793,0.95806l4.51326,6.14541l18.79323,12.14579l13.95306,20.70877l15.71935,0.3215l12.37062,0.45331l9.43589,-2.37598l15.90857,14.6253l11.17188,19.462l13.7083,16.24546l12.85586,11.38346l2.04295,-1.02763l13.49472,2.39186l12.39683,24.86668l5.60376,7.27472l-6.68993,15.43751l12.89468,9.55127l13.28044,9.51999l10.6045,8.36156l3.97924,13.64979l-7.64453,16.71929l-9.26584,20.44729l8.94511,18.42255l6.934,20.86535l0.9898,3.51623l-1.07309,15.68935l-1.18745,5.77276l-12.05633,8.44504l4.31387,30.11049l9.5162,33.99062l-1.43513,12.89701l-4.03382,7.99003l-13.44937,10.88442l-10.57994,9.98639l-4.41826,2.04955l6.57536,17.19099l-7.87448,13.69152l-20.75862,23.47998l-7.86763,5.0765l-2.60612,12.96679l-13.9219,18.50779l-13.6037,14.75171l-14.51628,8.18574l-14.72512,7.08238l-6.11515,0.4136l-12.96645,-4.26968l-16.83977,4.02858l-17.33884,16.28047l-12.18656,5.62375l-8.65714,6.01381l-33.27596,13.02732l-13.76988,3.11939l-8.74415,1.46636l-12.06641,4.41363l-18.68604,-3.60842l-11.77369,-8.75548l-17.13189,1.86508l-22.05774,6.91669l-14.57805,-14.39425l2.46297,-4.34873l-16.59423,-0.93373l-19.11076,-10.66357l-10.1477,-4.83018l-6.71824,-6.06606l-15.97938,-2.67714l-17.58765,-15.91292l-12.81031,-14.21991l-4.64806,-6.45952l-12.13807,-5.2565l-11.97366,-6.59112l-16.53418,-12.90318l-11.21088,-11.28651l3.84621,-13.04091l-12.29264,-17.81697l-8.81707,-10.1458l-14.27739,-7.77777l-3.72264,-16.28793l-1.84456,-10.94475l-6.38209,-13.59517l-0.05668,-8.95149l-19.93892,-15.48648l-8.95344,-19.12956M50,363.494l3.17016,-6.43585l-2.69181,-11.39356l-0.47836,-2.77336M50,284.88639l0.84317,-3.28565l9.89412,-7.81264l19.2052,-11.68138l0.02236,-10.64364l6.9164,-16.84696l-1.94238,-8.80217l8.87624,-22.25512l12.52919,-20.65128l6.87202,-19.5708l7.33703,-7.33018l-3.9895,-5.60294l15.77643,-15.46528l17.47087,-12.53042l13.26319,-8.15109l9.11087,-1.24011l7.92214,-14.60579l7.79772,-17.25138l16.03315,9.36225l18.14098,1.24626l1.48598,-4.03269l15.05035,-12.01112l17.84568,-12.54544l23.45242,-8.9233l0.76076,-4.25552M315.65718,50l10.1199,6.53914l11.79886,-0.43568l17.3841,-3.12413l8.85383,5.25453l8.8931,9.62284l27.29197,-6.8686l16.15956,-10.98811M444.21498,50l4.36081,7.51493l9.93619,3.47941l15.90107,12.71602l19.42124,10.74919l4.24239,-7.73805l16.808,9.49819l18.55869,19.37865l9.31974,18.74782l19.12915,17.15488l3.04539,7.47488l2.38303,7.35047l14.43504,16.19593l17.06882,6.74163l7.25722,12.29635l11.73651,3.14047l3.40316,13.2719l9.24373,9.46639l3.90716,4.78607l3.34637,13.81056l3.91755,16.52421l-2.39484,23.67068l-2.9324,20.42143l-0.64295,14.69348l-4.14957,8.40438l12.97702,16.76016l1.67007,20.2619l-14.73549,8.19391l4.88077,13.4985l2.1349,12.72547l2.87496,22.23456l1.31771,21.70555l-5.22914,12.96672l-1.00559,26.41042l-0.13375,11.85457l-10.31245,11.1775l-2.04052,2.29754l-14.3026,2.82738l-5.45088,4.01117l-16.72219,10.36284l-18.89635,23.42449l2.51689,15.38839l-6.72515,6.92651l-13.93001,-1.93583l-10.6242,10.19876l-16.47451,28.25352l-21.25217,14.94671l-6.75823,6.70043l-7.81536,-11.6697l-20.00016,2.74434l-15.26834,10.40678l-12.52357,12.03552l-9.30085,7.75313l-17.59548,3.19692l-13.39684,4.59196M316.14852,650l-3.57515,-1.38443l-7.7363,1.38443M284.36253,650l-3.60068,-2.75234l-14.70781,-1.95974l-21.94518,-10.33572l-12.13641,-6.65127l-17.23552,-0.88872l-2.42369,-5.05229l-19.16063,-7.43666l-16.40384,-10.78373l-2.80273,-18.532l-11.98967,-16.38392l-10.87159,-7.03986l-8.88162,4.9701l-17.98482,-1.65004l-19.44825,-10.75176l-2.15279,-2.74825l-5.90913,-20.36507l-2.35229,-11.8118l1.01212,-16.80448l-12.80879,-10.00376l-7.0498,-24.55274l-9.23133,-12.12445l-16.27808,-13.38358M50,436.6338l3.30493,-6.28877l-3.30493,-4.54503M50,244.49912l4.8441,-8.92488l16.22034,-14.59418l5.08197,-3.46386l15.22689,-19.15163l0.93287,-22.08082l-2.77698,-8.15155l5.16291,-14.5931l5.03914,-8.04366l7.30248,-8.17154l25.45616,-9.03731l10.50865,-13.80901l9.06549,-5.44215l14.94696,-13.59321l3.08834,-0.86979l10.31033,-4.98612l20.42518,1.73109l13.80052,-20.49638l7.4702,-11.02825l8.08102,-9.79278M343.88595,50l9.25926,2.5027l2.92232,-2.5027M478.46113,50l11.0983,7.59545l14.92869,-1.75232l4.1178,4.22383l14.70076,20.41589l20.40699,12.24335l9.66893,10.68076l14.68368,6.7559l7.97409,8.68685l1.31678,20.09814l5.59245,14.34307l12.26337,4.6002l12.14111,-0.40341l28.70298,11.98877l12.12658,10.6957l-3.81497,15.73482l2.91442,14.23497l2.65715,14.50377l-10.96945,23.02238l11.02923,1.52222M650,274.71777l-1.56916,8.11293l-3.71901,9.02061l5.28817,17.05233M650,391.78773l-2.13896,12.62776l0.14994,14.72359l1.98902,0.42941M650,431.53057l-2.59823,5.5217l-1.65679,14.88446l4.25501,14.53102M650,485.15101l-6.86635,11.08945l3.12646,11.53988l-1.40032,5.78733l-15.16396,6.58926l-21.34731,6.31555l-15.29161,13.25578l-10.96491,8.65913l-0.032,19.06383l-8.12358,15.02814l-5.66997,-7.31459l-14.07954,17.06261l-12.48592,11.505l-22.47653,12.57344l-7.84431,21.33669l-8.62636,-0.62562l-15.137,-0.26226l-18.8608,-0.82061l-22.94253,10.77614l-7.50703,3.28985M285.45017,650l-0.15352,-0.08142l-0.81616,0.08142M260.86209,650l-1.74131,-0.27834l-19.13278,-1.78092l-15.53893,-6.07426l-7.285,-6.35922l-2.82624,4.30664l-14.97681,0.03383l-15.34503,-1.55647l-18.10107,-10.19818l-3.57483,-22.29398l-8.19875,-16.14202l-11.5296,-0.30833l-13.1238,0.40556l-19.17926,-0.85978l-11.95964,-6.9421l-12.03709,-21.7223l-2.22594,-25.19737l-6.66272,-10.36065l6.25219,-6.38332l-12.90159,-12.11244l-13.30045,-15.71103l-2.35797,-16.63984l-5.11545,-7.70263M50,220.13967l1.23252,-2.50893l3.74846,-15.40266l15.4816,-15.38716l5.03438,-13.93865l1.0571,-4.40699l3.96413,-20.09152l2.85873,-17.00399l12.69578,-1.79044l11.13492,0.34692l19.71203,-14.0431l14.32581,-20.96974l8.84469,-17.99899l10.02764,-9.19957l7.21382,9.05501l17.32624,-2.78718l14.06535,-13.08117l11.29285,-10.19812l0.03151,-0.73338M520.44059,50l3.15091,4.11619l17.51366,16.93991l16.28573,8.08269l10.21838,13.17984l12.14605,10.44754l2.89305,0.75238l9.10724,13.35817l2.76911,11.78673l17.90481,12.99794l14.92932,14.74034l8.1986,7.76967l11.23551,4.33501l-2.21854,14.38164l5.42557,20.07856M650,504.97202l-5.53789,7.95443l0.44838,13.99469l-7.21013,10.08239l-8.07523,13.70546l-15.37964,5.53958l-17.50163,17.67765l-2.01636,16.0603l-10.76551,13.89514l0.21825,-0.55682l-17.19991,-6.15592l-11.3517,18.47748l-9.6365,5.58303l-18.2934,11.07494l-9.61838,8.40787l-8.22375,9.28777M219.81042,650l-1.58504,-1.85486l-12.60136,-3.30522l-7.6944,-1.01258l-4.62536,6.17265M183.42095,650l-15.53791,-6.90404l-11.35727,-10.18409l-5.40767,-5.69936l-20.01814,-5.49751l-8.0344,-6.85549l-7.41523,-1.37126l-20.67549,-17.0678l-13.86311,-3.12431l-9.53162,-21.91461l3.04725,-26.0359l-8.23472,-13.4652l-16.39265,-3.03304M50,163.31727l10.24019,1.04578l7.88388,-18.09417l-1.3154,-30.6988l9.08266,-9.85261l14.06095,2.98908l23.53278,-8.56616l0.59186,-18.91571l7.5052,-16.73057l23.45827,-14.49411M545.27628,50l9.37848,7.86084l2.6814,-2.69974l6.42724,9.21176l25.06125,12.54816l5.66974,11.37145l4.9871,3.25217l4.29741,16.64463l15.00358,6.52021l18.43471,21.44455l1.41844,8.50379l2.52988,14.33851l8.76686,21.89212l0.06763,0.10107M650,522.94788l-3.49029,4.4516l-5.85939,8.10994l-3.78927,18.98101l-17.74817,26.23078l-12.93453,12.8278l-4.21067,11.08899l-5.80429,-0.1165l-10.0681,4.80496l-16.48349,12.62652l-10.19869,7.30753l-3.58004,4.33294l-12.22423,8.63083l-7.32067,7.77572M141.2757,650l-9.65565,-8.00242l-20.55923,-4.75026l-10.21321,-10.45926l-8.82997,-8.37672l-11.12133,-9.29312l-17.4728,-5.7497l-8.6056,-13.00024l-4.81791,-8.48138M50,102.27545l8.64543,-14.55854l16.21465,2.74663l7.1612,-7.68248l14.83983,-15.31304l13.72155,-13.37345l14.77985,-4.09455M575.45139,50l1.64275,7.83581l7.45723,5.62618l14.01789,8.48214l10.48696,13.24077l8.16732,7.96122l18.27143,9.35452l8.12749,17.89232l5.60046,17.3537l0.77709,1.54579M650,558.54793l-2.93257,3.8555l-7.70323,24.99486l-17.57551,20.88298l-11.43832,12.52903l-11.85781,3.04227l-11.00091,5.47232l-3.01043,2.1485l-1.8482,12.26416l-3.42452,6.26244M124.73674,650l-12.90258,-13.97761l-31.47995,1.44914l-10.55052,-13.56345l-4.87659,-9.86121l-13.92735,-8.189l-0.44279,-12.58582l-0.55696,-2.07783M50,99.39971l3.89044,-7.43473l-2.57123,-11.8043l18.16468,2.86403l-2.11731,-7.37858l15.68897,-16.3275l21.06724,-9.31862M596.91974,50l0.91681,3.42555l25.9276,16.49055l3.25269,6.26431l21.14739,6.01608l1.83577,1.1679M650,604.11392l-2.85171,3.3404l-15.44289,28.25385l-9.65597,11.20688l-22.78713,0.28041l0.63188,2.80455M66.6936,650l-0.48773,-13.55177l-10.51581,-7.32683l-4.12461,-26.85534l-1.56543,-1.16427M50,70.831l9.49925,-6.76914l3.82603,-14.06186M626.4363,50l11.09921,8.92993l12.02259,0.57439l0.44191,0.28115M650,632.88009l-11.83889,13.34885l-3.68785,3.77106" fill="none" stroke="rgb(0,0,0)" stroke-width="8" data-clipped="true"/></g><path fill="none" stroke="rgb(0,0,0)" paint-order="fill stroke markers" d=" M 32.5 20 A 12.5 12.5 0 1 1 32.49999375000052 19.987500002083326 Z" stroke-opacity="1" stroke-linecap="round" stroke-miterlimit="10" stroke-width="8" stroke-dasharray=""/><path fill="none" stroke="rgb(0,0,0)" paint-order="fill stroke markers" d=" M 0 20 L 40 20" stroke-opacity="1" stroke-linecap="round" stroke-miterlimit="10" stroke-width="8" stroke-dasharray=""/><path fill="none" stroke="rgb(0,0,0)" paint-order="fill stroke markers" d=" M 20 0 L 20 40" stroke-opacity="1" stroke-linecap="round" stroke-miterlimit="10" stroke-width="8" stroke-dasharray=""/></g></svg>