<svg version="1.1" xmlns="http://www.w3.org/2000/svg" xmlns:xlink="http://www.w3.org/1999/xlink" width="700" height="700" viewBox="0 0 700 700"><g><g><g/><path d="M341.93937,348.53316l2.29447,3.20596l-3.6749,3.71285l-6.79406,-4.72832l4.5039,-9.93676l14.66297,-5.85907l9.41106,10.57474l-0.82517,17.02417l-6.88732,12.38976l-16.80343,-2.80367l-15.38858,-8.34757l-4.8141,-10.64276l2.5509,-16.68795l11.83552,-11.83532l17.43582,-9.21842l13.19798,5.34376l10.10237,7.18975l9.07093,10.23845l2.8263,16.21876l-4.14439,11.69815l-8.77051,14.83905l-10.58853,10.70127l-12.64185,3.7963l-17.84068,-5.96706l-14.44906,-2.53234l-11.32399,-12.94953l-3.69332,-12.4172l-0.64766,-15.4428l1.81903,-20.24155l11.04361,-15.00898l10.78203,-5.41547l16.93733,-6.4346l14.52766,-3.50244l13.47366,5.41318l13.96726,4.96446l10.41638,7.90419l5.83124,21.59265l6.72176,14.98274l-0.54709,14.26701l-6.73524,10.12531l-6.29542,14.12058l-12.81876,12.8l-10.08112,4.62778l-15.67512,5.18045l-16.27843,1.29763l-13.61159,-2.91188l-17.00709,-6.18221l-8.35182,-12.52163l-9.88061,-12.88465l-0.81242,-16.08967l-0.77415,-14.11756l-0.36354,-10.67196l-1.56735,-13.5435l9.07971,-17.27912l7.49727,-14.50703l12.89534,-5.52361l15.53357,-6.86906l14.74076,-2.75183l13.84713,-1.07587l15.17184,7.33692l11.26801,9.59176l14.20083,4.09127l11.97942,9.48118l8.70544,19.77481l4.89665,17.19261l2.20774,12.60255l-2.06231,19.21684l-6.56102,9.75795l-9.51211,9.5281l-11.03263,13.65718l-13.21227,14.46288l-13.07131,4.21538l-14.619,2.68954l-12.61887,5.05223l-17.34274,-4.86306l-14.11625,-2.193l-13.30156,-6.56459l-10.70705,-12.5107l-8.22747,-13.21206l-8.15082,-17.22733l-4.14085,-7.00429l-1.27845,-15.4123l-0.55001,-13.1565l-0.21412,-13.14042l3.2257,-12.29683l9.73988,-13.74387l7.09893,-11.0931l11.73932,-13.90345l9.97803,-6.11659l13.99673,-6.65558l15.85261,-5.13009l16.08916,-2.13796l12.3923,1.24115l14.18798,8.72431l17.06774,9.05262l13.27593,3.74828l11.6526,9.9505l5.79489,12.64199l6.77506,12.91186l6.90196,19.7791l6.32759,14.51129l-2.59837,15.81827l-6.08063,11.07985l-7.03116,15.99423l-0.75464,10.60859l-10.22761,11.44045l-8.62225,13.65484l-20.25414,9.50867l-12.55243,4.32468l-14.00677,2.09863l-14.55911,2.05508l-15.44457,-2.54357l-15.40481,-0.1346l-15.03805,1.73556l-9.29029,-7.11403l-9.13049,-9.19388l-8.55705,-15.0143l-13.02588,-13.83233l-13.45118,-12.97743l-3.7547,-12.52327l2.14968,-14.01909l-0.75536,-15.22659l-1.10877,-14.32373l-2.30191,-17.05529l5.76703,-11.44397l14.22192,-9.82776l10.5018,-14.28224l9.39226,-10.23876l7.99618,-6.74362l11.48725,-7.63112l13.09125,-10.00368l12.73216,-0.79022l17.49449,3.98284l13.27739,-3.83694l16.06434,2.9533l13.91159,3.54757l15.76683,7.44835l16.32039,7.26501l13.53759,9.8839l6.73539,10.34275l3.40185,13.94493l7.03513,8.48131l6.41424,16.03712l2.33302,13.036l0.27842,15.31179l-1.58519,17.94831l-3.8686,13.9043l-7.21707,14.06466l-4.24864,12.9565l-6.82424,17.532l-11.75892,9.44856l-14.79813,5.64203l-15.11774,7.26659l-11.38851,10.91832l-18.39388,0.97102l-14.23955,-2.67975l-14.18916,2.16137l-16.43892,2.06411l-10.79513,-0.48999l-14.86042,-4.59193l-13.89762,-7.39323l-10.48239,-7.65053l-8.19886,-11.91839l-11.87333,-11.35377l-8.45753,-13.19782l-5.22814,-17.1514l-6.33723,-15.29302l-6.35923,-9.78403l-0.25187,-11.85655l-0.2009,-18.61996l3.50552,-19.69988l8.009,-12.32639l0.69875,-15.19165l6.94619,-10.86748l11.53887,-10.4998l8.0538,-9.92209l6.65634,-8.1128l15.42111,-5.01988l14.32064,-11.45049l13.29041,-4.99693l10.68972,1.09489l16.65377,-2.21772l14.87928,-0.08258l15.70039,3.45729l17.49222,4.90134l11.77147,3.71742l11.02262,-1.33714l11.72292,8.07639l19.60183,11.9317l8.16624,11.54054l8.25632,15.63943l5.12315,10.42409l13.09085,13.00954l0.06046,13.22915l-1.00858,14.72741l4.21557,12.02338l-4.44431,22.00436l2.51198,13.30162l-4.79452,14.5545l-12.04646,10.46174l-1.70503,11.51428l-9.99877,12.4644l-10.5794,13.01274l-17.64806,7.33738l-11.20557,9.88995l-12.26207,10.50568l-12.27867,9.97315l-16.23634,0.79949l-14.07183,-0.8386l-14.95798,-2.49471l-16.18828,4.7092l-12.54835,0.72935l-14.5269,-1.85524l-16.42152,-8.79878l-14.26352,-8.46461l-11.02473,-8.51697l-6.13758,-6.16147l-10.54333,-18.211l-7.55893,-9.43343l-11.90672,-13.91008l-1.88303,-16.5819l-6.25014,-11.18308l-7.77769,-12.42162l0.00226,-15.10119l-0.11726,-14.9153l-0.05039,-16.39067l9.52206,-18.68184l3.23694,-13.75251l4.53558,-12.63325l10.61292,-9.89392l5.52218,-15.18615l9.17875,-6.51137l7.94286,-8.78331l11.09471,-8.69061l15.65505,-8.02988l13.5879,-8.09781l14.58961,-5.48621l11.49496,-2.29689l17.57246,-1.20636l15.26244,-0.75951l13.60419,4.3013l18.17391,2.77368l11.80027,6.16198l14.01516,0.47812l10.05224,-0.40468l14.23867,11.67747l13.4028,14.34272l11.12041,14.04808l14.10126,12.23972l7.4967,14.64112l6.90006,12.89156l3.86553,13.53131l0.40046,14.15482l-0.18025,12.56194l3.25795,10.8683l-2.38261,19.52295l0.48499,13.8743l-1.40392,14.66361l-1.73609,13.05966l-6.61995,10.77313l-9.25483,11.30696l-15.03192,12.18686l-9.4232,11.62337l-12.79377,8.13778l-13.62841,11.02299l-10.34097,11.31116l-13.77302,12.93198l-13.36421,2.25259l-15.73378,3.04104l-14.86264,0.06514l-12.5285,1.81166l-18.55883,-2.75693l-13.75569,-1.39477l-15.01174,-2.86324l-13.66208,-5.30304l-13.32979,-4.44314l-15.11713,-6.24707l-11.28996,-8.04919l-10.22785,-11.31375l-10.98301,-7.67469l-5.38242,-15.30748l-2.28132,-9.11459l-10.33005,-14.87838l-9.8917,-13.06765l-3.93933,-10.2332l-6.74421,-23.46159l0.47554,-16.81425l-0.73684,-14.74833l0.32301,-11.79824l6.17106,-10.81944l4.11563,-14.44699l8.46811,-22.37898l10.02437,-16.83366l2.37883,-10.76814l3.58624,-12.19779l10.38513,-10.35545l12.0808,-6.40575l10.34805,-7.26539l14.43925,-6.86074l13.13438,-10.49454l10.67604,-5.04563l15.3617,0.0934l15.09909,-6.02097l18.68899,-2.3547l15.54229,0.74088l11.2981,6.30773l14.11253,6.21681l14.04797,0.25836l16.38519,0.04893l14.76443,3.12566l12.35156,8.79773l12.47797,12.97214l8.92689,13.4065l10.32887,8.94667l16.83135,8.48086l10.50857,12.90061l4.36023,15.48666l5.13278,14.43826l3.05039,15.51669l0.8258,14.79324l2.61155,9.90054l3.57251,10.28351l-3.134,19.52542l-2.10336,16.99918l-1.44233,13.08857l-2.05494,12.95079l-5.64453,12.08288l-4.69907,12.00441l-8.13949,14.11652l-16.50711,8.66531l-10.08702,16.55955l-9.17008,7.43624l-9.47923,10.33018l-14.52068,13.20822l-14.25253,12.72186l-14.36374,0.00148l-14.51249,-0.41642l-11.22162,4.39943l-13.80074,-1.21095l-15.19228,4.56697l-15.22406,-1.73846l-15.70991,-3.16474l-17.37869,-4.16499l-14.37401,-2.11201l-13.82831,-8.40027l-12.37286,-4.95652l-9.72997,0.50531l-16.33752,-9.01628l-11.51545,-11.20011l-10.5753,-12.85499l-2.5503,-15.5006l-10.72038,-7.62659l-7.92931,-10.04128l-6.51322,-17.1556l-6.84079,-15.47021l-4.07858,-11.62085l-3.08994,-18.77451l2.92502,-12.81466l-0.53158,-15.66042l-2.89968,-14.1791l2.35101,-10.72688l4.59416,-17.44128l5.50679,-19.19801l6.86947,-15.46806l8.05618,-11.49793l8.88141,-12.12158l3.4749,-14.80184l9.71433,-12.03998l12.90803,-8.81003l15.04169,-7.41861l10.98342,-9.06422l11.62146,-8.54244l11.35114,-7.96554l17.29009,0.2491l11.79221,-0.68889l18.53679,-8.55605l17.68864,2.70285l14.77529,0.62415l11.69808,2.32217l11.3461,9.71964l18.66682,-3.07448l11.08416,2.11267l15.02585,3.55522l15.28213,10.03139l15.92604,7.32368l8.3948,9.22827l8.3967,14.11192l12.46372,11.86398l14.18719,10.01553l7.37744,11.6605l5.23533,11.23174l5.20449,12.28406l7.34677,11.08133l2.49692,16.01428l4.85351,14.79129l3.27903,12.12737l2.7748,11.91077l-3.52464,15.58604l-2.13563,17.21993l-3.73642,16.45596l-2.49062,15.9353l-7.04741,10.39221l-4.96932,13.59046l-4.57971,15.35346l-5.98239,13.07617l-13.93054,8.69865l-13.58316,13.49925l-5.97742,12.76373l-7.7522,8.00366l-17.92754,9.59259l-17.08153,10.57469l-9.45555,2.49615l-15.9587,1.13957l-13.82516,0.0122l-13.7759,5.47937l-12.86713,5.59528l-13.53274,2.10015l-15.71379,0.6518l-17.88345,-7.11753l-15.43832,-4.08731l-15.75177,0.32727l-12.84772,-3.86722l-15.6063,-6.31036l-8.78383,-6.59884l-6.95913,-3.54273l-17.8232,-10.27476l-12.82685,-14.51073l-6.62666,-15.39425l-5.44687,-12.91544l-13.11814,-8.03947l-11.04437,-4.08938l-10.73896,-14.23136l-5.0354,-18.17046l-2.90918,-17.56775l-0.39525,-14.76922l1.58001,-17.44879l-1.55961,-10.21556l0.47546,-15.27801l-0.16808,-14.18955l-2.22888,-12.88469l1.76379,-16.44284l1.92986,-16.0628l6.45252,-16.50901l11.03399,-10.71993l13.07403,-9.73953l9.77023,-16.89771l5.05713,-12.32711l6.98712,-13.59602l14.06401,-4.24228l15.6949,-7.42769l6.25447,-14.11091l11.55751,-8.34269l12.33465,-7.37516l14.3779,-3.55965l16.63826,-4.51452l14.84031,-3.13367l15.654,-1.27619l17.72363,0.67955l13.62567,1.6202l13.07569,3.71201l17.77788,3.52442l8.39286,5.36086l16.50153,2.92121l12.12384,2.10217l14.68534,6.36676l16.23142,7.14315l16.64784,9.88308l5.35062,9.27216l10.34064,10.54382l15.00759,11.45718l13.34883,15.95388l4.73041,7.10386l5.14159,9.02501l0.93238,12.3763l3.90244,14.98742l6.61268,12.18963l8.43659,10.05632l5.77107,16.85132l1.184,15.59791l0.65679,12.22832l0.67239,16.67442l-4.46752,16.26283l-4.6503,14.73177l-8.85531,14.50893l-4.33095,12.85882l-4.86352,16.10439l-0.3027,16.57021l-5.03778,10.54047l-8.15758,12.92608l-15.11108,10.53589l-14.01895,12.28009l-7.79543,11.8362l-8.9256,6.20252l-12.67868,6.30582l-17.10837,8.9518l-11.2846,9.04863l-14.58026,4.38616l-15.58556,1.27899l-9.53236,1.1715l-19.38898,4.72398l-12.4096,5.94746l-12.97724,-0.32235l-19.08683,-2.87194l-14.23663,-0.77328l-13.76994,-2.82473l-18.00716,-1.79352l-9.49754,-2.69445l-16.75499,-2.3645l-13.13273,-7.7348l-11.46488,-7.75174l-10.87027,-7.50698l-16.39092,-8.95077l-11.63887,-14.97858l-5.778,-13.78723l-5.59411,-15.38224l-12.83714,-10.14836l-10.70772,-8.96424l-9.6472,-11.85995l-7.34309,-9.78123l-3.59817,-18.389l2.13347,-20.208l-3.20501,-10.78016l-2.1833,-13.0918l-0.11483,-14.36593l0.81875,-18.18135l0.11872,-14.18831l2.91831,-13.29673l-1.17813,-17.3982l1.95821,-11.37351l4.64751,-11.88945l7.20429,-13.99128l11.90739,-12.8837l10.56518,-12.95671l8.73236,-13.96935l7.56088,-16.46627l5.96882,-11.7191l12.7385,-5.794l15.35073,-7.67105l10.53732,-4.33003l9.45555,-12.96543l16.2227,-10.49185l16.38265,-5.66492l11.32437,-6.2192l15.10631,-2.43453l12.67699,-3.24219l14.46896,-2.19987l22.15756,0.2909l9.03279,1.9593l13.18951,7.27304l17.96369,3.62732l14.42142,-0.66062l16.12319,7.90495l12.52635,6.14035l11.59005,5.57518l15.33178,-1.11164l13.67297,10.39664l11.59121,12.60513l7.82862,9.60845l13.4587,11.16322l12.40532,8.21992l10.76716,13.54359l8.97803,15.45863l4.30399,14.44021l3.91829,10.88695l8.27967,3.83421l7.08032,15.50004l4.78724,10.41348l3.19506,17.22769l1.33834,14.49124l2.00117,16.18951l0.18745,17.458l-1.52476,16.97494l-1.31901,16.0829l-2.43896,11.52927l-3.35802,12.259l-5.83492,14.95998l-9.14387,11.23119l-3.70984,18.68771l-3.91697,15.00559l-9.49687,14.38636l-12.19098,12.09363l-9.94011,4.60057l-11.68037,14.80017l-9.92326,8.93737l-10.89575,5.9673l-9.38351,6.48116l-16.81974,7.94574l-12.98235,7.94211l-8.95489,5.79564l-18.58729,5.76035l-17.05754,3.71365l-13.12894,2.63261l-15.95546,0.96034l-7.89485,3.15445l-15.30321,-1.78618l-21.78352,-5.06441l-13.64298,2.07929l-16.21864,0.11698l-12.54272,2.06837l-9.89731,-3.99102l-17.20409,-7.03638l-15.2009,-6.86142l-9.25105,-6.68902l-17.56464,-11.37059l-13.26523,-14.39076l-10.92573,-6.87248l-9.15457,-8.27103l-12.69482,-12.84885l-5.63076,-15.37731l-5.66804,-10.44887l-9.65432,-12.12799l-6.77905,-9.51623l-3.31898,-9.44495l-4.14056,-15.23925l-9.49903,-14.60778l-4.60426,-13.42849l-2.06684,-16.46341l-2.22366,-19.34099l-0.94694,-14.85576l0.94547,-16.42028l1.01311,-11.82948l1.80607,-14.19805l6.88,-16.79159l9.75919,-14.71234l3.78132,-15.566l1.70706,-9.61987l7.22018,-13.91005l6.60113,-11.5654l6.17426,-12.22997l5.14601,-13.96449l13.95902,-14.90005l8.39108,-6.44751l11.2754,-7.55724l11.22898,-9.44286l18.31611,-3.5306l12.6085,-12.22182l15.52621,-9.20242l15.47962,-9.97558l11.75722,-4.41112l9.77299,-4.85824l13.70872,1.55093l16.07868,-6.63429l20.47396,-3.54025l15.75031,-2.84777l12.65454,4.70824l8.12271,1.54345l15.28171,1.12334l18.44298,3.8421l19.97453,7.75718l12.84631,6.17237l13.24684,5.16745l10.80031,3.58641l10.1888,9.40297l8.29999,12.80086l12.55905,13.13919l13.1425,6.18001l9.86544,3.87914l10.54137,8.65024l9.24455,15.96055l12.57763,18.15687l8.95146,15.5289l8.0918,9.07492l9.32933,7.90313l9.33878,14.25838l-2.96369,13.54263l-0.35576,14.59589l0.53332,16.01827l3.10577,13.27007l1.59217,18.45795l-1.07521,12.38703l-1.48443,18.0847l-2.886,17.24215l1.5636,14.59433l3.87324,17.76209l-4.40752,12.88042l-10.13158,9.37635l-9.96273,15.49517l-6.55183,14.32329l-12.60194,15.18945l-9.52858,12.51771l-8.98922,10.16466l-7.71642,8.59239l-14.12429,16.19317l-12.08302,12.64806l-11.97577,1.86737l-6.50402,-0.24486l-8.40957,4.86065l-15.43668,12.4438l-14.08385,9.46429l-14.4896,8.09622l-18.67166,0.39245l-16.24783,3.66723l-13.78779,2.36342l-11.22941,-1.01665l-12.9243,1.8516l-16.74345,-0.88915l-18.54741,-3.56458l-16.68191,-1.00731l-11.97854,-0.04288l-11.75626,1.21801l-13.3041,-4.46906l-13.56774,-5.16628l-11.43525,-10.39013l-15.49626,-7.60835l-19.32209,-11.24632l-14.73843,-11.33053l-10.53091,-7.15375l-6.12129,-8.4726l-13.02108,-11.68026l-10.62702,-9.88572l-9.4023,-12.98244l-4.87255,-11.96741l-7.14916,-11.76967l-8.02632,-10.91928l-0.98756,-7.13546l1.78585,-14.92474l-10.0761,-12.94164l-10.06709,-15.44064l-5.33852,-15.89965l-2.19409,-18.70896l3.1809,-13.50297l-0.86169,-16.9505l-3.18274,-19.52385l2.1678,-14.11019l6.13953,-10.99894l9.04106,-14.52081l9.29771,-16.04149l-2.8741,-16.34611l0.03804,-12.40474l8.69446,-10.96469l7.78165,-12.05955l4.99892,-13.10844l8.7513,-10.22276l12.26169,-14.66056l12.22594,-13.19834l4.53361,-4.34613l8.4444,-10.07729l17.1536,-10.01536l17.17593,-8.02169l14.03561,-6.34078l11.39725,-8.00696l14.60859,-6.38486l13.87021,-10.11958l13.92312,-5.60718l10.84113,-2.15545l12.84337,-3.50016l22.28613,-3.40627l13.71482,0.82756l14.92155,1.94724l14.44278,2.98599l9.66074,1.60484l17.40527,-2.09982l17.05322,3.00971l15.44587,3.07954l13.37145,10.15784l12.67235,9.1509l15.13885,6.27071l11.66373,3.75187l9.97367,13.49728l7.11823,11.57042l16.78393,7.42911l14.25885,8.30834l8.08564,5.56546l8.57149,5.05048l11.51207,16.19386l9.58356,19.16152l3.19003,10.6005l4.22686,10.26286l14.99859,12.73359l12.66028,16.17969l1.09565,13.50152l0.67399,15.60853l-3.91131,16.74798l1.91691,10.03408l6.27206,13.80082l3.06784,16.24427l-7.97325,13.57141l-1.79394,15.68602l2.04092,18.93825l1.65834,21.5291l-1.32008,14.31131l-6.16666,12.16759l-14.28474,9.23706l-12.61209,10.86053l0.57692,12.83235l-4.48605,14.97454l-11.75122,14.81632l-9.65136,15.80787l-7.26331,11.3678l-8.54229,10.82477l-16.40549,14.71723l-12.86798,10.2062l-10.52486,2.20364l-7.89979,2.49605l-16.2028,2.51968l-13.29352,9.51537l-10.64765,12.82472l-15.92263,6.37457l-12.30524,4.26395l-18.23518,1.9584l-16.26367,4.43597l-10.35786,2.66511l-14.20941,-1.41609l-16.26966,1.42894l-13.9,-2.38792l-19.11713,-1.41118l-14.94696,-3.60123l-11.08668,-1.01968l-16.13365,-1.28399l-13.43058,-4.82571l-15.93321,-4.8291l-13.77144,-6.33778l-8.89417,-7.79366l-15.69532,-12.46077l-15.0793,-11.26892l-12.18628,-9.24607l-6.37959,-11.376l-11.68844,-10.65586l-11.85223,-10.19845l-9.98246,-11.76855l-6.44183,-12.95625l-8.72585,-12.02257l-15.3612,-9.20593l-7.24285,-12.52254l2.25442,-10.28367l-2.15197,-15.68889l-5.43887,-16.68155l-6.20927,-13.08724l-8.35106,-17.09304l-1.01017,-14.97354l0.80652,-12.2711l0.95371,-12.71233l-1.70024,-18.92479l-0.75953,-16.26773l0.97384,-15.32771l8.09059,-10.3635l5.99489,-14.32669l4.9957,-14.03633l1.19999,-14.6979l-0.90228,-14.47592l6.83222,-14.73093l14.25735,-15.42088l8.33505,-13.15497l5.54046,-8.22238l10.50071,-13.46079l14.39074,-15.08597l9.05824,-8.40309l8.64126,-5.93465l12.09973,-11.97788l13.04786,-13.73653l13.82745,-1.2426l10.32706,-2.57252l13.07516,-9.63306l15.35111,-12.38743l12.26561,-4.50025l17.05126,-6.13311l9.89159,-3.59127l14.84978,-2.12629l17.57673,-2.84263l16.2059,1.51071l13.60337,-0.64515l16.1264,7.28129l12.63209,0.50533l11.90245,0.23725l16.94679,-1.95802l19.90008,2.45826l10.13732,5.12622l16.11146,8.13515l13.86807,12.23362l14.43335,3.91491l12.78441,4.37895l11.29147,3.56167l13.80958,11.22981l11.50373,13.67009l12.29582,12.64347l11.61731,10.89517l6.65272,5.89414l11.21381,7.65934l10.38117,17.572l7.09347,10.29329l1.43522,14.03174l9.42707,11.72793l9.17998,11.91156l7.61106,11.58977l4.34111,14.00803l-1.07827,15.45221l-2.21686,17.15506l5.13938,16.36868l3.82559,17.47299l0.82404,10.07095l-0.51496,15.29715l-1.01848,11.0322l-6.12937,12.13843l0.43657,21.36069l2.2205,22.93699l-2.91311,13.78686l-4.46034,11.55081l-8.92121,12.63556l-8.10802,12.07281l-5.87368,8.47179l-1.55719,14.74043l-8.13264,12.9997l-14.02364,16.93412l-8.85372,8.76733l-6.93817,11.85118l-12.11085,13.91092l-12.28036,11.96982l-12.95935,8.80906l-13.31797,7.97496l-9.87763,4.74226l-13.04341,2.34812l-14.91218,5.50621l-15.31357,10.34854l-13.27121,5.36386l-11.90219,5.10564l-22.57418,7.67935l-14.31267,2.99551l-12.23397,1.8452l-13.70977,2.66335l-16.5754,-1.2215l-13.61825,-3.87484l-15.89657,0.22994l-17.96634,1.94982l-14.69635,-7.62554l-7.30576,-3.75822l-15.36321,-2.72718l-16.30953,-7.32311l-12.31413,-5.24141l-10.66885,-6.1806l-14.44146,-5.12785l-14.91391,-11.18902l-12.62992,-10.84017l-8.87618,-7.87804l-11.81219,-7.71229l-11.45013,-8.61925l-13.09626,-11.64368l-10.49053,-11.25355l-3.69814,-12.29082l-10.26133,-14.60503l-8.4052,-11.56596l-10.36659,-10.78028l-5.45326,-14.63672l-4.24844,-12.53553l-5.7842,-13.83921l-2.65653,-11.99547l-10.75395,-14.92088l-6.17559,-17.77895l-3.22322,-15.63847l0.96277,-12.19927l1.4535,-12.46472l-1.18319,-13.4561l-1.52148,-19.76408l0.63274,-15.80543l3.59006,-17.45712l5.95834,-11.74756l10.37669,-13.30659l2.57751,-12.74113l5.94719,-15.25761l2.55763,-11.6468l7.59217,-17.22881l9.54561,-16.33793l7.4979,-15.65191l8.06193,-10.16416l3.55944,-9.16399l12.36841,-13.11334l13.41771,-11.56147l11.92198,-9.37462l10.43365,-6.08769l10.19836,-11.47654l10.40146,-12.25775l14.16898,-0.4869l15.29142,-3.58875l8.35316,-5.46429l14.34606,-8.48732l15.70325,-8.31162l18.24454,-6.34725l9.17061,-6.91436l11.54098,-2.97149M314.06601,50l15.25929,5.00196l13.6209,-0.57734l16.02336,-1.2963l12.35444,2.72745l12.33636,5.03104l20.16497,-1.60779l19.20758,-5.59429l14.52444,1.55589l11.93818,9.08963l12.28769,4.49594l14.68269,8.85473l16.01011,8.40322l9.30432,0.86174l14.47019,8.61956l14.98287,13.21325l10.7681,13.28953l14.69997,12.94006l7.51854,9.11049l6.93081,9.36116l11.7774,13.4403l12.57375,9.66024l8.02334,12.2955l9.58547,8.60851l5.64525,13.16921l7.76929,11.73814l5.09382,9.91287l4.45676,13.9414l4.29751,15.24521l1.18184,18.42841l0.53581,17.13564l1.09711,14.7597l-0.82882,12.12222l6.08591,15.73997l0.81375,17.2562l-6.64356,12.07847l1.33807,14.32497l-0.26199,13.94569l-0.36498,17.9521l-1.44837,17.63575l-4.66501,13.78043l-3.2596,19.41174l-3.28349,13.02342l-8.0352,12.56372l-4.87045,8.56952l-10.496,8.58959l-7.06192,8.87198l-12.24027,11.35179l-13.50727,16.69054l-4.65201,12.97129l-8.92061,9.05415l-12.30127,4.9507l-11.16181,9.83203l-13.9302,17.23745l-16.22208,11.1899l-10.23732,7.29971l-10.89939,-0.93984l-16.31209,4.86132l-14.45599,7.7602l-13.43227,8.06542l-12.18416,5.83046l-15.85223,3.4723l-9.44031,2.69176M286.24556,650l-5.47378,-1.70431l-14.62635,-2.89523l-17.61778,-6.88894l-13.28418,-5.70783l-15.32049,-3.62912l-8.80471,-5.79654l-15.79146,-7.19263l-14.40583,-8.99162l-8.35523,-12.66628l-12.05408,-12.08829l-11.32021,-8.41414l-10.19705,-3.58453l-13.81311,-6.72559l-14.14071,-10.91582l-6.41521,-7.76022l-7.69912,-15.56911l-5.83679,-12.14601l-4.04573,-14.51154l-9.60943,-11.80546l-6.77225,-18.2315l-7.32952,-13.07767l-10.95875,-14.58907l-0.18459,-12.75841l-2.18921,-5.02877M50,253.66129l6.17986,-14.37697l10.03229,-14.25497l5.63947,-9.3276l10.35991,-15.87567l4.59751,-16.93818l3.36134,-10.75851l7.10728,-13.29256l7.38595,-10.24297l8.67552,-10.0396l16.76235,-10.13757l10.64941,-11.89528l10.30983,-8.00862l13.09454,-11.18821l8.26095,-5.40949l11.5888,-6.83643l16.13997,-3.60987l13.50013,-12.7784l10.96906,-8.35416l11.6289,-7.73356l3.55182,-2.60266M465.46736,50l7.51327,2.64909l15.90654,9.0092l14.05755,3.09954l9.23368,6.0186l13.56199,13.30634l15.78416,10.14177l10.94316,9.79897l12.83832,8.43198l9.69429,9.56215l6.55883,14.74219l8.09572,12.55147l10.64662,8.63734l10.27433,6.73941l17.04127,12.28138l9.59575,11.94232l2.41272,14.30067l4.93701,13.8398l4.45903,14.11974l-1.75583,17.9178l2.73423,3.11801M650,475.26908l-7.32794,14.19631l-2.34948,12.68406l-4.64613,10.03835l-10.89248,10.18537l-13.88046,9.85552l-11.61273,12.60196l-10.07491,10.38912l-5.69408,14.5911l-9.45419,12.59056l-8.68191,2.73099l-12.55166,12.8817l-12.12016,10.19133l-16.63864,10.3295l-10.5893,13.75494l-11.13044,4.00251l-14.11062,3.8092l-15.87999,3.21259l-15.21058,6.68582M232.34916,650l-9.84015,-5.03779l-9.1011,-1.50749l-14.14609,-3.69766l-14.12526,-4.73019l-15.11194,-8.77603l-8.67651,-14.29278l-10.43334,-11.97894l-11.62153,-5.505l-12.0515,-5.49955l-14.38005,-6.33031l-11.00647,-9.21284l-10.74799,-15.80986l-6.23996,-17.54809l-7.82723,-11.42418l-1.96781,-9.93959l-9.84254,-12.59975l-9.67058,-14.33129l-4.6299,-14.9027l-0.92922,-1.78677M50,213.66003l3.95829,-11.03048l10.54521,-14.22359l6.40913,-13.41799l5.03704,-9.13302l6.60584,-15.64023l6.44487,-14.08799l10.96272,-7.32508l10.58435,-6.15296l14.53886,-12.05126l12.49655,-14.73877l10.40051,-13.17294l11.14695,-9.09812l10.16646,-0.96073l14.71132,-5.71225l13.50989,-9.79122l10.84182,-7.1234M507.2343,50l7.87205,1.85319l10.13292,7.79503l14.74205,11.85668l14.00362,8.37883l11.17727,10.87152l11.76395,9.99823l7.54599,6.12979l9.94441,11.80726l6.9514,11.39662l13.15016,12.16587l11.57625,13.14962l8.38284,10.3856l9.36606,9.12298l3.27287,13.62363l2.88386,7.59664M650,507.88566l-1.876,3.35618l-3.93217,13.51314l-7.54108,11.64769l-8.22977,12.99758l-11.66883,9.28135l-12.87692,14.25355l-6.52853,13.31777l-10.55529,12.13488l-6.11352,5.6744l-13.83193,2.99672l-11.56652,13.26507l-11.0594,7.4399l-14.98406,9.485l-11.46695,8.02441l-6.36943,4.7267M180.41733,650l-9.22798,-4.5336l-12.1828,-8.83406l-9.43219,-7.22519l-15.47972,-7.44272l-10.11684,-8.31906l-9.61203,-6.25281l-15.04356,-13.25329l-11.86102,-7.53966l-9.73072,-15.84307l-4.05535,-17.84758l-8.59613,-12.68576l-12.07546,-8.48051l-3.00353,-4.45052M50,162.79175l10.79055,-5.86762l8.32754,-14.75468l4.67989,-19.93857l9.4214,-10.77407l11.82993,-5.02818l16.15357,-9.72667l6.57486,-13.89749l9.7792,-12.68582l17.29898,-11.72229l9.99542,-7.97158l1.34692,-0.42478M542.80053,50l10.32895,7.80753l8.13891,3.80618l9.52856,9.2017l17.28686,10.91272l8.73694,10.6796l8.19397,7.46067l7.6373,13.45017l11.95437,9.34971l13.14386,15.9727l5.56097,10.6414l5.73843,13.34426l0.95037,1.96666M650,536.99622l-4.13484,6.31068l-6.45664,15.21531l-12.72982,18.11486l-10.94863,12.15139l-7.48216,11.17538l-8.42754,6.13117l-10.5069,7.98788l-13.49756,11.07733l-11.03408,8.5254l-8.41592,6.96899l-12.32701,8.52062l-1.03179,0.82477M142.13331,650l-8.59448,-6.5003l-15.67278,-7.17452l-11.02172,-9.89897l-10.2007,-9.27494l-10.94375,-9.92647l-13.41651,-8.65654l-9.35706,-12.00207l-9.1511,-13.26069l-3.7752,-7.57571M50,124.47347l2.13285,-3.36558l6.87488,-12.29774l9.31034,-12.83392l12.77168,-5.11464l9.14198,-9.34297l12.6731,-12.36206l12.42366,-11.27021l14.46658,-7.40357l0.62064,-0.4828M575.72572,50l1.1124,0.9809l7.63641,9.63016l9.70837,7.98583l12.29158,9.46618l10.53981,11.75253l9.29755,9.72697l13.37054,10.55102l8.75702,14.42645l1.5606,3.03727M650,572.47691l-7.35298,15.17812l-12.99067,15.56002l-10.61767,11.75864l-11.04566,7.46184l-10.91722,8.2627l-7.72176,6.58843l-7.44258,10.66516l-2.0968,2.04818M117.60802,650l-7.73742,-7.05094l-20.08784,-4.85379l-10.89912,-11.54133l-8.2388,-10.19941l-11.87975,-9.71831l-5.85376,-11.82868l-2.91134,-5.48814M50,101.10758l3.744,-5.25717l4.51669,-11.53335l13.64919,-5.02525l5.19379,-9.18402l13.05278,-12.77946l12.74472,-7.32832M602.51324,50l5.94621,7.52816l17.35169,12.94533l7.40526,8.79624l14.83715,8.9145l1.94644,1.74466M650,608.3029l-2.82782,3.32961l-12.39275,18.44459l-10.14724,10.9167l-16.00088,6.00327l-1.82941,3.00292M74.56428,650l-6.0993,-11.63769l-10.60645,-9.1633l-7.63894,-17.75553l-0.21958,-0.21183M50,72.17966l11.38123,-10.02072l6.8907,-12.15894M629.91838,50l10.95471,9.67443l9.12691,5.26647M650,636.77833l-6.48975,7.15318l-6.01339,6.06849" fill="none" stroke="rgb(0,0,0)" stroke-width="8" data-clipped="true"/></g><path fill="none" stroke="rgb(0,0,0)" paint-order="fill stroke markers" d=" M 32.5 20 A 12.5 12.5 0 1 1 32.49999375000052 19.987500002083326 Z" stroke-opacity="1" stroke-linecap="round" stroke-miterlimit="10" stroke-width="8" stroke-dasharray=""/><path fill="none" stroke="rgb(0,0,0)" paint-order="fill stroke markers" d=" M 0 20 L 40 20" stroke-opacity="1" stroke-linecap="round" stroke-miterlimit="10" stroke-width="8" stroke-dasharray=""/><path fill="none" stroke="rgb(0,0,0)" paint-order="fill stroke markers" d=" M 20 0 L 20 40" stroke-opacity="1" stroke-linecap="round" stroke-miterlimit="10" stroke-width="8" stroke-dasharray=""/></g></svg>