<?xml version="1.0" standalone="no"?><!DOCTYPE svg PUBLIC "-//W3C//DTD SVG 1.1//EN" "http://www.w3.org/Graphics/SVG/1.1/DTD/svg11.dtd"><svg xmlns="http://www.w3.org/2000/svg" style="position: fixed; background: white;" width="800" height="800" viewBox="0 0 800 800"><path style="stroke-width: 2px; fill: none; stroke: black" d=" M800.66,802.66 M792.50,802.50L782.32,802.32L772.21,802.21L762.04,802.04L751.88,801.88L744.89,796.89L735.12,800.12L726.27,800.27L718.18,790.18L713.34,789.34L704.49,776.49L703.45,798.45L696.48,792.48L689.44,791.44L679.52,787.52L672.51,777.51L662.53,756.53L654.54,740.54L644.29,734.29L644.26,725.26L637.40,736.40L628.45,755.45L622.58,758.58L613.66,750.66L603.60,751.60L594.46,758.46L587.31,748.31L581.22,736.22L571.16,742.16L562.40,737.40L553.45,735.45L548.31,739.31L534.30,749.30L530.30,733.30L522.43,725.43L514.24,727.24L509.83,717.83L498.69,711.69L492.79,701.79L486.91,681.91L477.04,658.04L473.10,647.10L464.20,644.20L462.03,633.03L451.69,610.69L441.37,603.37L439.11,594.11L437.94,583.94 M429.74,587.74L430.74,587.74L438.01,576.01L440.36,579.36L445.65,588.65L451.73,598.73L452.95,608.95L454.93,618.93L463.87,624.87L465.94,630.94L463.04,642.04L473.17,653.17L477.99,661.99L482.06,669.06L490.26,679.26L478.30,683.30 M479.85,688.85L461.09,689.09L441.70,688.70L422.17,688.17L402.93,687.93L383.82,687.82L364.74,687.74 M371.41,682.41L376.39,692.39 M365.79,698.79 M369.49,703.49L379.41,719.41L386.18,731.18L390.02,740.02L398.90,741.90L394.86,750.86L397.54,760.54 M402.73,765.73L421.54,746.54 M422.32,755.32L441.24,755.24L459.80,754.80L478.41,754.41 M469.51,753.51L459.65,754.65L459.75,735.75L450.78,739.78 M439.59,734.59L458.46,734.46L477.77,734.77L497.16,735.16L516.23,735.23L534.83,734.83 M535.53,727.53 M535.37,725.37L554.29,725.29L573.48,725.48L592.47,725.47 M591.86,726.86L572.76,745.76 M574.58,745.58L556.27,746.27L537.37,746.37L518.37,746.37L498.60,745.60L479.17,745.17L460.01,745.01L440.54,744.54L421.98,744.98L403.09,745.09L383.98,744.98L364.90,744.90L345.96,744.96 M358.29,732.29L362.46,742.46L346.46,746.46L336.57,753.57L326.90,745.90L317.12,745.12L304.12,748.12L301.20,738.20 M308.19,736.19L326.84,735.84 M326.45,727.45L330.58,737.58L333.58,747.58L344.63,756.63L341.69,766.69L336.76,773.76L338.71,782.71 M337.79,785.79L327.96,787.96L327.42,778.42L327.71,773.71L328.02,764.02L321.41,755.41L326.65,745.65L316.76,731.76L319.82,721.82 M324.23,725.23L343.03,706.03 M352.22,703.22L356.30,691.30L349.44,684.44L343.56,675.56L345.51,665.51 M356.44,668.44L356.58,658.58L349.78,648.78L346.80,638.80L340.70,631.70L339.66,621.66 M344.70,621.70L348.95,631.95 M360.30,621.30L362.12,612.12L357.24,603.24L352.47,588.47L345.53,583.53L352.58,577.58L352.71,567.71 M364.25,564.25L363.37,545.37L369.43,521.43L373.48,528.48L377.43,533.43 M385.04,528.04 M383.09,516.09L401.93,515.93L421.23,516.23 M417.85,524.85L422.02,515.02L418.03,511.03L411.94,501.94L410.82,491.82 M404.94,490.94L423.53,490.53 M421.03,497.03L440.18,497.18 M443.89,488.89L433.06,478.06L432.27,468.27L447.44,466.44L443.35,463.35L438.32,462.32L427.34,453.34L427.50,443.50L428.59,433.59 M421.32,421.32 M425.80,416.80L422.09,427.09L419.41,428.41L419.57,436.57L416.53,446.53L420.32,450.32L416.25,456.25L407.06,468.06L413.95,469.95L417.02,472.02L414.12,482.12L400.92,493.92L397.62,503.62L392.57,508.57 M388.26,509.26L396.00,501.00L396.80,490.80 M404.26,492.26L402.37,488.37L410.64,478.64L398.78,484.78L405.71,490.71L406.74,500.74L403.75,510.75L403.95,515.95L404.20,520.20L405.44,526.44L405.40,536.40L406.54,543.54 M400.70,543.70L419.98,543.98 M421.82,549.82L424.99,539.99 M422.28,536.28L403.31,536.31L384.13,536.13L364.89,535.89 M365.25,538.25L345.58,556.58L326.37,575.37 M326.87,573.87 M315.28,561.28L319.29,571.29L314.08,571.08L318.87,554.87L326.64,570.64L335.70,576.70L342.63,572.63L356.73,578.73L372.01,588.01L382.36,576.36L392.39,576.39L402.42,577.42L410.54,569.54L414.46,589.46L415.25,613.25L425.34,608.34L430.20,615.20L434.15,635.15L440.14,647.14L443.08,668.08L447.97,655.97L448.10,649.10L453.24,659.24L458.34,664.34L455.42,674.42L467.50,678.50L465.64,688.64L478.78,701.78L472.85,703.85L477.84,719.84L478.67,727.67L486.64,735.64L491.41,745.41L495.24,751.24L497.29,759.29L504.26,767.26L507.07,771.07L506.89,780.89L517.88,785.88L516.94,791.94L514.92,799.92L519.16,800.16L529.24,798.24L539.36,796.36L541.53,784.53L546.70,791.70L557.54,798.54L559.23,801.23L569.15,801.15L569.31,792.31L578.57,777.57L583.32,786.32L589.25,797.25L587.17,794.17L593.07,800.07L597.92,781.92L606.83,781.83L612.64,780.64L622.61,799.61 M628.72,799.72L609.86,799.86 M610.85,802.85L630.04,784.04L649.24,765.24L668.27,746.27L687.33,727.33L706.60,708.60 M707.93,707.93 M706.62,703.62L713.58,713.58L716.57,720.57L718.65,730.65 M712.36,740.36L704.42,726.42 M706.63,725.63L687.69,725.69 M686.92,734.92L667.74,734.74L649.01,735.01L630.39,735.39L611.42,735.42L592.22,735.22L573.15,735.15 M572.74,726.74 M561.76,714.76L559.54,704.54L561.85,695.85L560.05,686.05L553.22,676.22L545.33,669.33L547.28,659.28 M554.24,659.24 M562.92,654.92L572.68,664.68 M584.75,668.75L580.86,653.86L570.74,657.74L564.61,647.61L556.52,658.52L550.36,651.36L538.33,651.33L532.34,673.34L524.36,679.36L520.35,682.35L513.53,675.53L509.79,674.79L497.93,661.93L494.09,657.09L492.22,666.22L494.21,656.21 M496.51,658.51L515.44,658.44 M518.25,656.25L518.22,665.22 M517.37,650.37L498.00,650.00L478.32,649.32L458.64,648.64L439.56,648.56L421.06,649.06L402.24,649.24 M403.47,641.47L385.42,642.42L366.54,642.54 M363.71,648.71L344.25,648.25 M334.04,649.04L334.17,659.17L341.99,663.99L334.06,674.06 M328.63,670.63 M325.26,669.26L305.98,687.98 M308.30,688.30 M307.83,697.83L326.67,697.67 M325.25,701.25L325.31,708.31L339.24,713.24L342.26,723.26L338.30,734.30L344.48,738.48L347.57,747.57L356.01,756.01L355.21,766.21L356.25,774.25L351.19,784.19 M357.61,780.61L347.69,786.69L338.82,781.82L329.04,778.04L323.06,770.06L313.95,779.95L316.04,778.04 M319.76,782.76L318.90,787.90 M324.67,790.67L344.00,791.00L363.32,791.32L382.62,791.62L402.01,792.01 M402.17,782.17L421.52,782.52L440.94,782.94L460.21,783.21L479.24,783.24L497.99,782.99L517.56,783.56L537.40,784.40L556.75,784.75L575.55,784.55L594.47,784.47 M592.58,792.58L573.07,792.07L553.63,791.63L534.29,791.29L515.10,791.10L496.47,791.47L477.77,791.77L458.84,791.84L439.95,791.95 M440.12,788.12L450.09,786.09 M447.12,788.12L447.17,771.17L437.36,775.36L432.50,758.50L430.54,749.54L429.59,741.59L425.84,730.84L420.90,725.90L415.94,730.94L420.09,724.09L418.98,718.98L415.04,716.04L414.01,708.01L408.99,699.99L411.92,696.92L398.91,692.91L398.92,688.92L395.09,679.09L399.15,671.15L394.12,677.12L394.29,666.29L384.16,666.16L377.00,657.00L393.97,681.97L387.06,674.06L394.12,664.12 M387.37,662.37L388.32,652.32L387.38,639.38L380.26,640.26L375.18,650.18L359.06,654.06L357.78,647.78L352.67,636.67L348.66,613.66L337.80,621.80L331.00,613.00L321.23,617.23L313.28,607.28L307.24,600.24L305.11,576.11L295.00,551.00L289.93,541.93L285.80,528.80L274.00,525.00L267.05,531.05L263.93,542.93L253.66,544.66L243.50,548.50L237.61,545.61L223.84,534.84L211.99,529.99L212.09,525.09L205.12,523.12L198.08,522.08L193.24,517.24L189.23,508.23L180.20,505.20L171.26,512.26L165.15,515.15L161.26,505.26L154.34,505.34L144.29,504.29L134.02,498.02L123.90,496.90L113.48,497.48L103.23,493.23L93.20,497.20L98.16,494.16 M99.06,498.06L118.12,498.12L136.96,497.96 M138.65,499.65 M139.82,486.82L148.80,496.80L161.78,507.78L167.82,516.82 M152.68,505.68L146.82,495.82L136.92,490.92L127.09,487.09L118.23,496.23 M125.30,471.30L128.39,456.39L136.25,446.25 M135.52,443.52L125.48,446.48L128.59,463.59 M135.83,458.83 M145.71,467.71L137.75,462.75L129.79,473.79L119.93,476.93L114.14,491.14L102.35,501.35L92.43,505.43 M85.59,497.59L88.63,507.63L90.76,512.76L85.75,522.75L87.58,527.58L92.51,531.51L89.66,539.66L88.74,549.74L83.70,559.70 M87.98,559.98L92.05,553.05L82.27,544.27L82.06,534.06L80.81,523.81L79.67,513.67L80.67,501.67L81.72,491.72 M82.63,455.63L81.75,452.75L77.92,443.92L78.13,434.13L78.20,424.20L77.93,413.93L76.54,403.54L76.30,393.30L77.11,383.11L77.98,372.98 M79.03,383.03L98.18,383.18 M98.47,383.47 M96.34,378.34L93.26,380.26L103.26,376.26L113.09,374.09L123.77,369.77L133.60,365.60L143.31,357.31L152.87,357.87L162.56,353.56L172.25,351.25L188.25,349.25 M172.86,353.86 M156.61,365.61 M132.14,372.14L122.28,376.28 M116.44,373.44 M90.22,387.22L88.15,385.15L97.67,384.67L107.42,381.42L117.41,376.41L127.42,373.42L137.29,369.29L147.23,367.23L157.28,363.28L167.52,360.52L177.66,357.66L183.42,349.42L193.41,348.41L198.43,350.43L206.28,343.28L215.93,343.93L223.09,338.09L226.24,346.24L231.25,338.25 M212.38,345.38 M261.51,339.51L272.44,349.44L264.45,360.45L259.68,360.68 M267.77,368.77L261.85,361.85L267.80,369.80L287.70,357.70L296.52,353.52L295.28,371.28L303.44,360.44L307.48,357.48L317.62,348.62L317.97,340.97L323.13,325.13L333.02,325.02L338.74,311.74L344.59,307.59L353.49,311.49L360.35,307.35L366.45,321.45L376.78,322.78L386.96,313.96L389.86,303.86L396.80,300.80L407.00,282.00L410.26,279.26L413.37,275.37L422.46,279.46L432.49,275.49L442.50,272.50L451.26,262.26L463.02,269.02L466.88,256.88L472.91,244.91L481.83,232.83L491.97,229.97L492.16,245.16L504.34,248.34L512.31,244.31L517.01,248.01L522.79,246.79L526.46,235.46L533.99,238.99L523.82,242.82L514.08,253.08L515.45,258.45L508.70,268.70L501.83,278.83L504.92,283.92L494.09,291.09L488.97,297.97L496.73,307.73L491.49,313.49L491.36,318.36L496.29,320.29L499.46,323.46L495.66,332.66L504.70,334.70L501.49,335.49 M498.12,337.12L479.04,337.04 M477.66,329.66L466.73,326.73L462.88,310.88L468.05,299.05L478.11,286.11L488.22,273.22L498.28,274.28L503.22,284.22L511.17,282.17L521.16,275.16L516.12,278.12 M517.44,280.44 M512.29,282.29L507.22,292.22L515.44,297.44 M516.55,288.55L497.88,288.88L479.59,289.59L461.05,290.05 M464.99,292.99L451.12,314.12L448.17,313.17L443.13,304.13L437.16,307.16L433.02,316.02L427.03,308.03L422.02,296.02L414.06,305.06L413.04,314.04L409.01,314.01L401.75,322.75L395.53,335.53L385.46,335.46L369.60,335.60L359.59,338.59 M356.39,345.39L366.30,341.30L373.33,337.33L389.35,339.35L400.36,337.36L415.33,337.33L421.62,336.62 M415.31,341.31L394.08,342.08L394.01,352.01L390.00,342.00L383.90,335.90L395.00,326.00L396.12,317.12L401.27,307.27L412.39,303.39L410.21,293.21L405.22,307.22L396.98,294.98L387.72,287.72L376.68,276.68L375.72,281.72L368.51,278.51L369.47,289.47L361.43,290.43L367.35,301.35L372.59,307.59 M383.03,307.03 M395.38,315.38L377.35,328.35 M386.20,327.20L396.19,326.19 M408.20,336.20L402.22,320.22L419.06,307.06L423.24,303.24L421.16,293.16L417.30,292.30L420.24,276.24L428.02,264.02L431.99,253.99 M431.35,253.35L432.26,248.26L420.29,250.29L418.47,241.47L415.75,261.75L399.95,253.95L410.04,241.04L419.98,224.98L426.10,221.10L436.41,208.41L446.62,216.62L453.44,213.44L465.13,223.13L465.96,219.96L469.89,222.89L477.71,221.71L490.87,219.87L488.77,222.77L480.74,232.74L476.86,242.86L471.02,253.02L460.90,262.90L460.76,267.76L457.64,275.64L448.47,285.47L451.31,295.31L445.11,292.11L451.14,284.14L461.00,277.00L468.71,274.71L475.52,267.52L479.57,253.57L483.83,236.83L496.95,242.95 M496.89,230.89L515.96,230.96L534.86,230.86L554.22,231.22 M555.83,232.83L574.81,213.81 M571.32,210.32L590.51,210.51L610.06,211.06L629.50,211.50 M627.24,215.24L629.12,206.12L633.08,199.08L641.20,189.20L648.60,179.60L641.88,189.88L639.11,185.11L639.35,176.35 M632.90,176.90L651.71,157.71 M650.61,156.61L669.70,156.70 M668.94,165.94 M658.13,170.13L652.12,180.12 M648.39,192.39L629.57,192.57 M631.67,185.67 M629.90,175.90L648.78,156.78 M641.29,150.29L644.38,147.38L651.72,147.72L663.06,156.06L668.44,162.44L677.82,172.82L678.90,190.90L694.81,190.81L698.76,188.76L707.67,184.67L691.65,185.65 M692.40,180.40L691.19,168.19L683.21,160.21L682.29,150.29L676.11,143.11L688.47,135.47L689.89,122.89L688.24,114.24L689.58,106.58L686.63,96.63 M686.14,107.14 M700.24,112.24L710.58,103.58L713.63,96.63L701.63,102.63L693.46,107.46L680.49,94.49L671.68,106.68L665.77,100.77L655.59,98.59L645.30,90.30L642.08,86.08L631.85,97.85L624.59,89.59L614.84,83.84L610.89,89.89L618.81,74.81L634.63,58.63L627.33,52.33L632.16,42.16L637.13,33.13L636.20,22.20L635.44,10.44L621.51,18.51L614.61,16.61L604.66,28.66L596.65,31.65L586.47,25.47L583.21,37.21L578.39,45.39L568.45,47.45L560.50,58.50L552.62,60.62L546.62,55.62L538.56,71.56L527.61,84.61L524.75,71.75L511.98,77.98L501.10,67.10L493.06,72.06L481.99,69.99L467.99,70.99L459.06,56.06L452.12,63.12L442.21,59.21L433.48,78.48L423.59,64.59L414.56,73.56L403.76,75.76L393.67,68.67L387.59,60.59L377.61,56.61L376.71,69.71L378.72,70.72 M389.10,68.10L399.99,69.99L404.74,79.74L404.62,87.62L411.66,97.66 M402.83,99.83L408.95,109.95 M402.23,108.23L382.68,107.68 M375.76,113.76L380.74,111.74L371.66,101.66L373.50,91.50 M384.74,90.74 M383.28,117.28 M383.30,117.30 M384.76,127.76L381.77,126.77L374.83,123.83L384.96,119.96L395.02,110.02L405.11,116.11L406.41,124.41L398.66,134.66L395.90,123.90L406.21,125.21 M403.36,128.36 M417.46,139.46L417.51,149.51L416.62,159.62 M423.31,157.31L442.11,138.11L461.29,119.29 M459.88,117.88 M460.12,128.12 M462.79,133.79L472.89,131.89L484.08,122.08L483.00,121.00L475.62,129.62 M479.07,137.07L498.40,118.40L517.42,99.42 M516.01,98.01L534.85,97.85L554.28,98.28 M554.01,98.01L535.08,117.08 M536.06,118.06 M536.35,109.35 M544.66,104.66L542.93,115.93L550.99,119.99L564.72,109.72L574.22,95.22L586.97,104.97L594.58,91.58L604.49,94.49L603.38,81.38L602.23,81.23L599.16,91.16L596.27,105.27L598.32,115.32L584.39,125.39 M588.03,131.03L573.92,124.92L579.82,117.82 M571.90,115.90 M571.42,106.42 M560.58,97.58L556.49,97.49L548.48,112.48L533.69,99.69L529.78,107.78L523.99,107.99L516.01,123.01L512.08,138.08L502.09,146.09L494.18,154.18L494.09,159.09L485.96,159.96L488.86,145.86L478.80,145.80L465.77,146.77L455.71,154.71L449.74,156.74L439.66,164.66L429.62,167.62L420.55,152.55 M424.15,139.15L442.84,138.84L461.25,138.25L479.56,137.56L497.68,136.68L515.99,135.99L534.50,135.50L553.36,135.36 M555.96,137.96L575.16,119.16L593.94,99.94L612.68,80.68 M612.14,80.14L593.19,80.19 M592.63,79.63L611.66,60.66 M612.61,61.61 M610.82,69.82 M602.02,73.02L597.85,70.85L604.51,62.51L602.31,52.31 M597.59,41.59L604.67,45.67L613.71,35.71L618.88,26.88L628.20,29.20L637.39,38.39L654.20,28.20L659.13,13.13L671.01,24.01L680.70,17.70L685.50,21.50L676.66,25.66 M669.12,14.12L650.01,14.01L630.57,13.57 M623.81,13.81L615.70,3.70 M617.34,8.34L610.37,5.37L597.42,3.42 M593.58,14.58L574.41,14.41 M571.47,16.47L568.70,26.70L582.83,29.83L579.75,43.75L577.65,59.65 M578.53,57.53L581.53,66.53L591.55,61.55L598.51,52.51L602.45,65.45L605.41,65.41L612.45,75.45L625.25,83.25L643.06,80.06L656.88,85.88L666.79,86.79L682.75,77.75 M689.05,72.05L678.86,70.86L678.74,60.74L673.79,52.79L661.95,35.95L651.86,39.86 M662.82,34.82L666.78,44.78 M663.53,46.53L652.37,56.37 M658.49,61.49L651.45,48.45L653.46,38.46L652.31,25.31L644.13,10.13L652.03,6.03 M648.78,2.78L629.61,2.61 M633.51,6.51L635.44,16.44L638.20,26.20 M630.71,22.71 M629.73,21.73 M628.41,52.41L618.66,55.66 M621.79,65.79L631.69,64.69 M628.23,76.23L623.34,76.34L612.57,64.57L608.77,46.77L618.77,39.77L628.86,40.86L638.34,57.34L646.67,62.67L652.71,68.71 M648.39,69.39 M640.13,78.13L638.05,88.05 M647.02,87.02L654.86,96.86 M649.63,89.63 M648.05,107.05 M648.62,116.62 M648.89,116.89L629.58,135.58L610.71,154.71 M612.18,156.18 M617.16,158.16L612.27,168.27 M599.60,168.60L599.59,178.59L599.74,188.74 M593.73,184.73L583.76,186.76 M579.76,181.76L574.79,191.79L564.60,201.60L554.39,210.39L554.24,220.24L552.24,230.24L557.90,241.90L552.84,251.84 M554.82,252.82 M553.45,249.45L572.56,249.56 M569.10,257.10L558.89,248.89L552.54,252.54L564.24,240.24L568.90,229.90L574.53,219.53L584.69,209.69L597.70,212.70L600.64,202.64L605.54,192.54L610.37,185.37L599.34,182.34L591.44,164.44L583.63,162.63L575.95,169.95L572.05,172.05L560.15,186.15L558.20,191.20L549.17,182.17L538.95,193.95L529.65,209.65L518.80,213.80L513.86,217.86L506.96,224.96L501.16,223.16L500.25,214.25L492.29,204.29L486.39,211.39L482.53,199.53L475.73,214.73L466.76,203.76L454.63,200.63L445.48,197.48L435.41,190.41L431.43,187.43L421.47,203.47L414.56,212.56L405.82,241.82L399.92,260.92L390.88,256.88L387.06,259.06L377.94,255.94L368.81,257.81L357.77,278.77L350.80,293.80L342.72,291.72L332.45,283.45L324.38,295.38L311.28,302.28L306.10,302.10L309.83,314.83 M308.38,313.38L313.46,312.46L318.67,325.67L312.80,330.80L306.80,346.80L307.95,356.95L294.22,359.22L290.35,369.35L291.41,375.41L289.34,385.34L288.29,395.29L283.44,405.44L277.55,415.55L278.57,422.57L277.51,432.51L271.41,442.41L272.38,451.38L265.34,460.34L264.27,470.27L254.41,473.41L257.36,482.36L250.30,495.30 M252.13,510.13L255.91,519.91L249.68,521.68 M258.13,519.13L264.25,509.25 M270.31,517.31L289.17,517.17L308.10,517.10L327.16,517.16L346.19,517.19 M345.87,518.87 M346.00,512.00L349.08,502.08L347.37,489.37L357.62,484.62L343.66,474.66L341.47,464.47L340.37,454.37L342.51,444.51L343.59,434.59L343.76,424.76L344.77,414.77 M343.96,419.96L363.14,420.14 M364.30,412.30 M365.59,403.59L384.51,403.51 M383.76,387.76L391.49,375.49L370.46,365.46L361.39,363.39L365.56,358.56L358.58,348.58L372.45,341.45L376.30,336.30L376.38,326.38L389.58,315.58L389.54,306.54L393.31,296.31L387.17,286.17L400.29,277.29L401.27,279.27L395.21,273.21L390.21,274.21L384.23,266.23L375.27,260.27L380.06,258.06L380.99,247.99L379.94,239.94L377.75,233.75L372.70,246.70L362.86,252.86L357.02,264.02L347.22,282.22L361.17,277.17 M368.46,274.46L389.27,266.27L388.04,257.04L394.83,250.83L402.73,241.73L397.71,236.71L387.83,228.83L380.94,218.94L370.96,233.96L361.03,237.03L350.36,227.36L349.54,240.54L341.55,257.55L331.43,276.43L321.51,279.51 M326.07,269.07L345.06,269.06L364.39,269.39L383.49,269.49L402.47,269.47 M401.90,268.90L421.25,250.25 M419.61,248.61L438.71,248.71L457.74,248.74 M459.75,250.75 M447.52,249.52L429.62,243.62L423.56,233.56L421.58,226.58L423.56,217.56L429.50,206.50L439.54,201.54 M440.25,203.25L459.51,203.51L479.08,204.08 M478.68,209.68L483.66,199.66L477.68,189.68L482.64,176.64L481.64,166.64L478.72,156.72L478.79,146.79 M478.20,146.20 M479.12,156.12L498.21,156.21L516.83,155.83 M515.59,145.59 M504.35,145.35L508.06,152.06L517.76,154.76L524.70,164.70L550.74,175.74L555.70,171.70L566.79,152.79L571.14,160.14L581.37,160.37L593.46,144.46L600.65,138.65L609.33,127.33L615.99,134.99L611.78,135.78L605.72,141.72L602.63,151.63L590.69,161.69L586.74,171.74L592.83,177.83L586.03,189.03L592.03,195.03L584.13,203.13L587.31,220.31L576.46,232.46L572.45,242.45L564.49,252.49L555.89,262.89L548.15,273.15L544.25,283.25L536.32,293.32L546.34,290.34L557.41,287.41L567.51,273.51L577.53,262.53L586.41,246.41L596.25,236.25L599.22,243.22L606.21,254.21L621.05,255.05L627.69,262.69L636.33,257.33L646.42,247.42L653.71,244.71L664.73,236.73L674.47,229.47L682.22,220.22L692.41,208.41L703.52,222.52L712.72,212.72L722.98,215.98L738.99,218.99L726.02,232.02 M726.02,232.02 M715.86,229.86L704.86,233.86L699.79,237.79L690.72,231.72L687.74,237.74L690.76,251.76 M692.39,251.39L697.48,247.48L700.46,237.46L704.51,238.51L708.53,228.53L700.39,209.39L702.33,199.33 M707.54,204.54L688.20,204.20 M686.43,194.43L667.13,213.13 M666.36,210.36 M674.37,200.37L662.29,205.29L648.69,216.69L648.24,222.24 M645.88,236.88L649.11,247.11L639.17,257.17L642.10,269.10L650.88,254.88L663.45,250.45L671.25,252.25L685.04,262.04 M687.27,260.27 M690.33,267.33L695.27,257.27 M707.13,253.13 M706.48,250.48 M709.35,249.35L712.19,239.19L719.99,233.99L714.96,241.96L706.90,251.90L699.86,258.86L681.86,261.86L676.95,249.95L666.97,245.97L662.94,227.94L652.90,233.90L633.95,240.95L629.82,250.82L617.52,245.52L608.31,258.31L600.39,271.39L590.66,279.66L580.75,295.75L570.63,298.63L560.54,298.54 M560.79,303.79L563.80,303.80L556.85,304.85L556.85,310.85L546.83,312.83 M534.45,306.45 M533.36,322.36L520.15,326.15L520.12,333.12 M534.01,325.01L552.83,324.83L572.18,325.18 M570.69,334.69L571.49,324.49L579.41,310.41 M574.37,308.37 M568.50,313.50L576.32,303.32L582.38,293.38L585.55,287.55L593.50,278.50L583.28,286.28L573.16,290.16 M565.43,293.43L572.47,283.47L579.43,274.43L585.29,264.29L592.53,254.53L596.85,250.85L587.06,263.06L577.30,276.30L579.36,280.36 M569.15,270.15L579.12,260.12L582.39,250.39L591.82,240.82L607.92,236.92 M610.36,232.36L629.71,213.71L648.44,194.44 M650.07,204.07 M672.09,190.09L669.05,200.05L659.10,196.10L669.15,182.15 M683.24,176.24L683.31,182.31L693.53,183.53L703.62,170.62L705.54,184.54L720.52,169.52L722.45,170.45 M729.89,160.89L731.84,162.84L721.86,166.86L710.72,167.72L700.48,160.48L698.32,161.32 M705.87,164.87 M710.08,147.08L718.99,134.99L715.98,139.98L701.06,135.06L691.15,130.15L684.02,112.02L673.02,115.02L667.17,123.17L651.30,107.30L641.23,131.23L630.99,146.99L627.87,161.87L620.69,157.69L612.49,164.49L604.41,179.41L594.62,195.62L587.76,188.76L586.01,206.01L582.42,198.42L576.64,193.64L571.51,206.51L561.51,212.51L563.59,191.59L553.70,211.70L545.57,204.57L536.69,201.69L524.60,199.60L521.36,192.36L511.03,197.03L501.93,182.93L492.76,194.76L482.73,185.73L477.88,195.88L466.05,201.05L474.06,191.06 M459.15,190.15L461.26,180.26 M458.65,173.65 M450.72,172.72L455.70,159.70L440.93,164.93L440.22,171.22L433.41,182.41L446.60,185.60L447.73,191.73L455.83,195.83L465.85,205.85L460.88,207.88 M453.02,220.02L462.91,228.91 M460.23,232.23 M459.26,231.26 M471.04,233.04L478.97,222.97L486.70,212.70L485.44,202.44 M478.90,212.90 M480.05,224.05 M488.14,234.14L484.27,237.27 M481.58,244.58 M478.17,260.17 M482.53,265.53L489.39,255.39L497.33,240.33L507.39,230.39L512.47,220.47L492.55,218.55L501.69,208.69L491.69,205.69L485.40,191.40L488.94,182.94L503.67,177.67L509.65,170.65L516.60,160.60L527.41,149.41L530.21,139.21L530.28,132.28L546.62,129.62L543.74,120.74L548.74,110.74L553.65,104.65L558.65,94.65L567.76,84.76L567.95,74.95L569.84,71.84L561.82,84.82L552.90,72.90L544.89,66.89L534.93,60.93L534.22,55.22L524.30,59.30L516.29,70.29L506.37,65.37L496.53,51.53L482.45,45.45L475.38,48.38L465.28,44.28L456.17,38.17L449.00,40.00L438.77,32.77L435.62,22.62L425.64,17.64L417.66,19.66L416.75,10.75 M412.74,3.74L413.79,6.79L423.93,10.93L433.91,10.91L443.80,13.80L453.67,25.67L458.65,23.65L468.50,20.50L478.41,25.41L488.30,25.30L498.27,20.27L513.28,17.28L523.16,16.16L531.94,25.94L539.72,9.72L546.50,24.50L554.63,10.63L565.91,4.91L574.01,9.01L584.02,10.02L594.13,10.13L604.05,11.05L603.77,11.77L620.76,24.76L614.95,34.95L614.00,43.00L615.12,51.12L614.25,65.25L610.46,80.46L616.69,81.69L630.85,71.85L640.63,74.63L650.41,71.41L654.24,56.24L658.20,62.20L662.16,78.16L670.94,90.94L681.92,88.92L694.89,66.89L693.92,60.92L690.94,72.94L684.91,74.91L680.83,85.83L672.89,92.89L678.95,99.95L680.91,109.91L681.71,115.71L677.27,125.27L665.96,131.96L663.89,141.89L661.89,151.89L665.84,161.84L662.18,171.18L668.49,171.49L668.69,181.69L661.74,191.74L653.95,201.95L642.90,213.90L633.87,215.87L624.91,223.91L620.17,234.17L622.04,244.04L622.90,253.90L615.78,263.78 M613.53,254.53 M609.55,248.55L628.86,248.86L648.55,249.55L667.97,249.97 M658.83,251.83L648.77,261.77L640.41,271.41 M631.98,270.98L650.63,270.63 M657.57,274.57L662.50,264.50 M665.24,272.24L664.26,282.26L669.02,294.02L659.83,303.83 M661.58,299.58L658.45,306.45L648.30,312.30 M650.22,310.22L631.23,329.23 M630.26,326.26L611.18,326.18 M610.63,327.63 M608.67,328.67L606.62,324.62L612.98,332.98L623.23,332.23L637.21,312.21L643.22,304.22L654.24,293.24L663.06,280.06L668.93,275.93L677.96,267.96L680.79,269.79L691.90,284.90L701.01,292.01L711.24,294.24L720.48,289.48L730.39,298.39L734.41,298.41L742.45,315.45L750.27,319.27L759.90,322.90L769.91,326.91L771.72,338.72L771.67,335.67 M769.23,333.23L766.13,343.13L771.08,350.08L781.04,348.04L788.04,364.04L787.97,364.97L787.17,375.17L787.57,385.57L780.82,388.82L781.82,399.82L788.85,409.85L787.80,419.80L787.91,429.91L787.74,439.74L787.42,449.42L787.38,459.38L787.16,469.16L786.90,478.90 M782.84,480.84 M781.72,477.72L762.60,477.60 M776.81,475.81L775.78,476.78L779.79,466.79L779.78,456.78L779.73,446.73L779.76,436.76L779.94,426.94L780.10,417.10L781.27,407.27L784.45,403.45L784.60,395.60L774.60,395.60L772.52,381.52L774.49,380.49 M776.19,378.19L776.41,367.41L772.49,364.49L780.34,359.34L784.24,349.24 M780.55,338.55L774.49,328.49 M764.81,327.81L745.40,327.40L726.25,327.25 M723.82,326.82 M725.09,317.09 M724.43,314.43L734.39,305.39L751.58,312.58L761.65,312.65L771.72,315.72L761.70,322.70 M762.38,327.38 M765.36,338.36L746.27,338.27 M738.47,346.47L742.51,356.51 M734.98,357.98L736.00,372.00L753.98,370.98L747.10,367.10L738.94,353.94L733.91,343.91L725.12,352.12L734.47,374.47 M738.64,375.64L734.76,394.76L725.90,396.90L731.02,403.02 M736.33,395.33L742.20,391.20L742.16,394.16 M746.58,385.58L765.48,385.48L784.22,385.22 M783.34,386.34 M782.82,393.82L763.71,393.71 M763.64,402.64L782.69,402.69 M782.97,404.97 M782.26,412.26 M782.77,421.77L763.66,421.66 M745.73,416.73L743.65,426.65L737.61,435.61 M741.99,437.99L761.07,438.07L780.57,438.57 M781.30,441.30 M781.13,449.13 M782.48,459.48L763.78,459.78 M755.25,451.25L755.48,441.48 M745.11,443.11L743.13,449.13L736.42,465.42L738.64,477.64L743.76,455.76L745.79,465.79L748.84,480.84L749.76,495.76L774.57,492.57L784.33,484.33L779.26,487.26L783.37,497.37L779.64,503.64L777.78,518.78L772.71,528.71 M769.99,533.99L759.10,538.10L766.02,532.02L769.84,521.84L769.81,511.81L773.85,521.85L763.70,515.70L748.39,518.39L744.17,514.17L740.05,499.05L733.94,492.94L730.75,482.75L725.62,486.62L729.62,478.62 M732.99,482.99L738.88,492.88L733.66,503.66 M743.33,506.33L762.57,506.57L782.05,507.05 M779.16,504.16L769.17,502.17L771.10,501.10 M783.58,500.58 M783.76,498.76L764.58,498.58L745.44,498.44 M756.95,508.95L757.07,499.07L765.14,490.14L765.25,480.25L765.48,470.48L765.31,460.31L765.08,450.08L764.01,440.01L765.00,430.00L764.90,419.90L765.00,410.00L762.12,400.12L757.27,392.27L757.39,382.39L757.21,372.21 M762.25,373.25L781.64,373.64 M782.97,366.97 M764.18,365.18L761.28,355.28 M761.16,353.16 M762.71,346.71 M765.28,347.28 M764.12,365.12L744.71,364.71L725.13,364.13 M724.41,354.41 M731.79,350.79L733.86,340.86 M725.75,345.75L706.68,345.68 M706.27,336.27L687.63,336.63 M691.51,334.51L690.36,327.36L686.20,320.20L693.97,310.97L700.08,302.08L720.54,297.54L716.77,302.77L703.84,300.84L693.78,312.78 M697.87,310.87L707.87,313.87L710.64,312.64L709.57,313.57L701.76,322.76 M709.94,317.94L693.97,325.97L688.95,299.95L698.86,290.86L708.86,283.86L701.90,289.90L691.96,299.96L681.99,309.99L675.19,320.19L667.35,330.35L681.50,345.50L667.46,355.46 M668.25,364.25L648.33,363.33L628.85,362.85L609.90,362.90L590.85,362.85L572.09,363.09L552.78,362.78L533.73,362.73L515.13,363.13L496.80,363.80 M490.46,352.46L491.21,362.21L497.13,372.13L491.17,376.17L488.28,386.28L491.28,393.28L493.24,403.24L492.80,412.80L491.61,422.61L482.66,430.66 M478.04,421.04L497.19,421.19L516.96,421.96 M514.72,421.72 M515.20,430.20 M518.29,442.29L499.32,442.32 M499.12,440.12L509.06,441.06L514.99,445.99L519.99,449.99L517.06,460.06L516.10,470.10 M518.28,470.28L517.29,480.29L505.19,490.19L506.02,499.02L509.85,504.85L503.86,504.86L515.05,515.05 M515.77,515.77L496.89,515.89L477.76,515.76 M476.88,507.88L473.89,497.89 M475.50,485.50L477.67,482.67L470.59,492.59L471.31,502.31L469.98,511.98L465.74,511.74L462.62,521.62L464.44,521.44L468.42,527.42L469.64,536.64L469.86,542.86L466.68,550.68L469.52,547.52L469.42,562.42L463.32,572.32L457.34,586.34L468.70,595.70L476.01,606.01 M472.55,610.55L464.54,614.54L465.62,602.62L455.78,596.78 M459.23,602.23 M459.31,611.31L440.13,611.13L421.14,611.14L402.35,611.35L383.70,611.70 M383.03,602.03L379.10,596.10L377.05,588.05L374.91,577.91L370.89,568.89L378.04,565.04L369.39,561.39L374.72,577.72L366.65,570.65L360.47,576.47L349.43,564.43L341.43,561.43L331.46,556.46 M345.81,554.81 M337.35,541.35L331.42,532.42L331.42,522.42L334.10,513.10L327.89,500.89L333.94,495.94L330.06,489.06L326.94,478.94 M312.95,488.95 M320.56,495.56L310.39,494.39L306.18,480.18 M297.12,480.12L300.92,489.92 M307.77,497.77L288.82,497.82L270.22,498.22 M270.30,489.30L289.01,489.01 M287.76,496.76 M279.74,490.74L275.63,515.63L273.52,503.52L252.45,512.45L258.48,507.48L266.57,505.57L271.51,488.51L277.68,495.68L280.04,481.04L288.53,482.53L295.67,489.67L299.58,481.58L310.14,476.14L319.78,481.78L329.53,483.53L331.54,485.54L341.50,503.50L343.37,514.37L346.33,523.33L355.49,524.49L359.71,516.71L368.58,504.58L376.53,494.53L384.47,501.47L387.24,512.24L397.12,513.12L407.30,494.30L413.52,489.52L419.77,496.77L433.01,533.01L439.06,535.06L441.84,555.84L448.73,556.73L455.59,559.59L462.52,554.52L467.52,537.52L478.78,515.78L488.31,534.31L496.58,523.58L503.51,512.51L511.54,530.54L521.55,540.55L524.66,526.66L531.56,534.56L541.24,535.24L540.23,508.23L557.24,525.24L568.31,534.31L574.38,545.38L576.41,549.41L577.30,543.30L561.16,541.16L581.11,540.11L590.97,539.97L589.00,529.00L598.27,546.27L608.27,548.27L613.25,560.25L615.25,577.25L624.16,593.16L627.17,598.17L634.12,593.12L638.11,603.11L646.90,607.90L645.68,616.68L655.70,617.70L663.50,628.50L667.20,611.20L681.13,616.13L690.25,619.25L699.38,620.38L708.47,617.47L711.64,627.64L719.75,630.75L728.70,632.70L735.83,637.83L739.00,652.00L743.23,653.23L751.35,665.35 M747.92,668.92L742.98,658.98L744.14,649.14 M744.61,651.61 M744.25,659.25 M732.34,651.34L741.44,645.44L730.63,637.63L736.95,624.95L741.05,618.05L737.15,608.15L741.20,604.20L741.17,590.17L744.95,586.95L734.65,587.65 M743.60,582.60L730.65,571.65L735.76,568.76L727.66,558.66L728.82,548.82L726.99,543.99L721.20,534.20L737.44,530.44L737.47,517.47 M745.26,527.26L764.24,527.24 M763.85,535.85 M780.94,531.94L784.08,525.08L783.32,516.32L773.39,531.39L775.42,530.42L760.54,530.54L756.29,529.29L750.07,519.07L748.03,509.03L735.08,510.08L741.03,498.03L745.97,487.97L746.25,478.25L742.70,468.70L750.30,466.30L745.59,457.59L742.67,447.67L733.38,445.38L729.19,436.19L727.13,422.13L724.25,421.25L719.15,415.15L729.07,411.07L723.05,407.05L719.04,400.04L728.99,392.99L733.76,386.76L737.73,378.73L744.67,372.67L744.63,364.63L745.77,349.77L747.76,347.76L745.59,331.59L742.54,330.54L738.57,317.57L729.66,323.66L726.63,337.63L721.49,349.49L712.42,352.42L705.62,375.62L688.71,375.71L685.66,371.66L677.65,355.65L669.86,357.86L661.22,348.22L654.49,359.49L645.51,333.51L637.36,325.36L632.37,337.37L650.47,349.47L654.43,337.43 M648.71,335.71L630.15,336.15 M625.49,335.49L622.59,345.59 M618.64,348.64L619.88,338.88L635.18,335.18 M649.75,345.75L630.99,345.99L612.65,346.65L594.00,347.00L574.94,346.94L555.94,346.94L537.10,347.10L518.18,347.18L499.13,347.13L480.18,347.18L460.96,346.96L441.68,346.68L422.36,346.36L403.01,346.01 M404.28,347.28 M402.36,355.36 M411.58,356.58L410.30,342.30L413.21,336.21L420.07,326.07L427.02,320.02L433.77,317.77L438.42,310.42L434.33,303.33L430.51,293.51L433.60,285.60L432.70,273.70L441.78,271.78L448.85,266.85L454.76,256.76L456.52,241.52L454.36,231.36L450.32,226.32L457.13,216.13L459.38,195.38L462.67,182.67L469.89,180.89L472.93,171.93L471.22,156.22L459.44,151.44L468.48,142.48L464.48,132.48L463.63,128.63L471.65,122.65L477.52,112.52L478.48,102.48L478.43,95.43L475.26,84.26L477.19,86.19L468.29,82.29L462.47,99.47L457.69,109.69L447.99,96.99L440.17,83.17L435.03,99.03L425.66,118.66L418.39,127.39L408.30,139.30L401.11,138.11L390.75,137.75L371.39,138.39L361.35,143.35L356.61,139.61L360.70,129.70 M345.65,117.65L326.74,117.74 M325.94,116.94 M333.73,113.73L332.50,109.50L327.09,99.09L332.80,92.80L332.62,83.62L345.39,73.39L341.28,62.28L347.19,55.19L357.24,44.24L364.39,35.39L363.49,25.49 M364.23,22.23L383.21,22.21 M381.37,20.37 M384.39,17.39L378.38,19.38L381.55,14.55L391.76,16.76L396.07,18.07 M388.14,37.14L383.17,47.17L382.09,55.09L372.85,63.85L374.57,73.57L370.49,83.49L360.67,88.67L358.85,98.85L359.01,104.01L350.16,108.16L355.43,123.43L351.29,136.29L355.24,153.24L363.32,162.32 M360.29,160.29 M365.05,166.05L346.24,166.24 M341.77,164.77L341.68,153.68L327.73,157.73 M324.93,160.93L322.94,170.94 M316.94,182.94L308.91,192.91 M321.18,198.18L316.09,208.09L317.08,219.08L328.01,217.01L332.99,222.99L328.78,232.78L333.69,237.69L343.48,242.48L328.49,250.49L325.58,260.58L325.48,270.48L317.44,279.44L315.34,289.34L307.45,297.45L305.72,307.72 M306.96,306.96 M314.01,309.01L320.08,299.08L325.91,288.91L328.51,278.51L330.28,273.28L337.51,263.51L342.62,253.62L347.60,243.60L351.51,233.51L345.44,231.44L346.61,221.61L350.74,213.74L346.87,210.87L340.07,193.07L341.27,183.27 M336.02,177.02L346.01,177.01L354.91,165.91L357.81,171.81L359.64,170.64 M363.61,173.61L344.57,173.57 M332.78,181.78L333.73,191.73L330.83,204.83L316.83,210.83L311.78,220.78L316.67,225.67L311.87,229.87L304.10,240.10L309.18,253.18L301.02,256.02L300.05,262.05L288.90,275.90L291.04,282.04L286.16,290.16L285.35,306.35 M303.72,298.72L301.45,288.45L303.34,278.34L312.44,268.44L311.48,258.48 M324.51,258.51 M308.04,242.04 M305.58,219.58L306.58,210.58L315.42,199.42L320.32,181.32L327.23,188.23L337.27,191.27L345.38,179.38L355.70,177.70L360.86,178.86L368.84,164.84L369.73,159.73L380.83,152.83L373.96,157.96 M372.26,152.26L369.46,153.46L366.58,150.58L358.62,155.62L348.79,155.79 M343.99,153.99L351.02,164.02L346.16,174.16L356.18,183.18L349.17,193.17 M364.39,193.39L383.77,193.77 M385.82,186.82L366.57,186.57 M382.64,174.64L392.47,175.47L400.50,171.50L413.57,181.57L412.72,181.72L406.59,192.59L401.72,202.72L384.63,210.63L377.47,224.47L371.33,234.33L368.29,239.29L362.35,249.35L356.29,259.29L352.39,269.39L347.72,278.72L342.04,288.04L339.02,298.02L336.92,303.92L327.96,313.96L331.11,329.11L329.15,339.15L327.91,347.91L327.88,351.88 M314.53,343.53L301.54,343.54L303.33,337.33L305.09,328.09L311.01,335.01L319.06,334.06L327.92,345.92L330.82,341.82L338.85,336.85L340.99,342.99L350.20,355.20L351.97,360.97L358.89,366.89L355.73,380.73L362.36,393.36L362.11,403.11L363.01,413.01L363.19,423.19L363.30,433.30L343.32,436.32L355.28,413.28L367.29,400.29L365.19,445.19L380.02,466.02L389.85,472.85L391.86,470.86L400.05,463.05L410.38,465.38L415.55,454.55L415.48,458.48L429.48,463.48L450.46,484.46L457.65,465.65L469.94,464.94L474.25,472.25L484.30,467.30L488.54,490.54L494.86,482.86L500.99,487.99L512.01,502.01L526.92,510.92L549.85,520.85L556.35,529.35L549.96,519.96L554.83,526.83L548.81,536.81L535.67,533.67L535.52,541.52 M540.76,536.76L533.70,534.70L535.67,524.67L540.72,524.72L544.63,525.63 M552.58,535.58L533.45,554.45 M537.20,556.20L555.84,555.84L574.62,555.62L593.22,555.22L611.41,554.41 M612.51,561.51L613.25,553.25L604.11,544.11L611.04,528.04L610.90,517.90 M614.86,518.86L615.68,528.68L615.52,538.52L619.42,539.42L622.32,546.32L627.34,548.34 M617.68,545.68L619.87,555.87L620.11,566.11L616.24,576.24 M611.51,575.51 M611.34,564.34L592.23,564.23L573.17,564.17L554.28,564.28L535.10,564.10 M535.75,573.75 M536.48,584.48 M539.92,586.92L529.96,583.96L524.99,591.99L518.12,583.12L500.17,588.17L494.13,583.13L486.16,593.16L476.02,581.02 M483.52,579.52L493.56,577.56L507.50,560.50L511.69,560.69L522.12,568.12L538.48,565.48L537.45,565.45L551.26,574.26L548.15,583.15L545.09,598.09L548.86,606.86L555.95,612.95L556.79,618.79L550.74,625.74L562.86,631.86L566.05,644.05L561.00,645.00L568.01,651.01L580.09,654.09L582.15,664.15L568.22,681.22L561.25,694.25L553.43,702.43L547.37,711.37L553.08,711.08L543.81,714.81L559.73,720.73L561.86,727.86L561.87,733.87L565.72,743.72 M558.13,737.13L556.07,747.07L554.19,763.19 M552.65,764.65L562.79,768.79L571.97,756.97L582.17,762.17L592.51,765.51L599.98,763.98L608.06,766.06L629.31,768.31L637.38,767.38 M632.84,772.84L637.78,787.78 M631.22,783.22L650.44,783.44L669.64,783.64 M668.34,784.34L649.58,803.58 M651.10,800.10L655.00,795.00L653.02,785.02L642.05,778.05L638.89,767.89L632.13,758.13L632.32,752.32L637.36,748.36L636.28,738.28L630.23,717.23L620.27,702.27L611.26,697.26L599.11,690.11L596.86,690.86L600.64,680.64L604.65,670.65L614.75,661.75L612.83,654.83L613.70,640.70L618.47,633.47L609.56,622.56L611.51,622.51L600.36,626.36L602.20,620.20L591.97,611.97L577.08,617.08L570.54,612.54L567.77,618.77L557.84,609.84L556.78,598.78L554.77,591.77L545.47,585.47L546.44,577.44L536.64,594.64L530.90,591.90L517.12,615.12L508.27,612.27L494.31,616.31L478.16,620.16L474.96,612.96L466.87,618.87L455.82,608.82L443.82,585.82L441.82,569.82L426.73,569.73L425.45,566.45L415.18,560.18L408.05,543.05L398.12,550.12L388.21,543.21 M401.41,536.41 M416.46,528.46L412.13,518.13L416.05,507.05L417.02,497.02L420.73,489.73L419.34,472.34L424.22,462.22 M430.73,459.73L426.89,469.89L428.19,480.19L425.61,490.61L428.03,492.03L422.20,497.20L422.46,507.46L416.96,513.96L425.18,519.18L423.13,528.13L423.13,538.13L415.91,540.91L415.68,547.68L416.39,561.39L429.21,574.21 M423.07,566.07 M420.86,555.86 M419.89,552.89L438.86,552.86L458.03,553.03 M457.08,555.08L452.07,571.07L458.99,570.99L468.82,562.82L487.57,555.57L493.42,564.42L498.52,567.52L504.74,576.74L498.80,578.80L499.69,588.69L498.44,593.44L498.52,601.52L490.53,604.53L501.57,594.57L502.64,586.64L513.62,600.62L514.54,592.54L516.29,602.29L520.09,611.09L513.98,622.98L525.04,634.04L533.23,652.23L530.65,659.65L538.95,669.95L544.23,680.23L535.56,691.56L532.70,701.70L526.91,705.91L523.13,725.13L531.14,729.14L530.97,738.97L524.96,750.96L534.96,751.96L531.72,760.72L531.42,767.42L551.23,773.23L549.84,785.84L545.69,795.69L548.73,798.73 M555.06,804.06 M566.04,796.04L559.21,788.21L576.19,777.19L564.16,772.16L563.20,762.20L564.27,751.27L569.30,757.30L559.33,746.33L550.51,746.51L540.74,751.74L536.85,756.85L527.72,766.72L520.48,751.48L518.08,745.08L504.68,762.68L498.60,764.60L495.49,753.49L489.62,730.62L480.86,736.86L478.14,704.14L473.24,682.24L465.40,678.40L451.30,671.30L445.09,672.09L439.72,670.72L432.68,660.68L445.51,657.51L440.44,647.44L441.39,629.39L433.42,618.42L420.34,626.34L427.10,611.10L427.01,600.01L419.92,596.92L421.90,586.90L413.85,573.85L400.74,567.74L401.70,558.70L397.84,549.84L392.99,547.99L384.98,537.98L379.84,527.84L392.79,517.79L389.88,518.88L380.16,520.16L380.40,509.40 M372.54,509.54L379.45,497.45L387.48,486.48L392.36,476.36L398.43,466.43L397.52,454.52L408.69,439.69L415.81,447.81L410.91,455.91 M407.62,437.62L412.42,427.42L409.50,424.50L414.72,414.72 M423.12,404.12 M402.99,383.99L384.31,384.31L365.66,384.66L346.94,384.94L327.94,384.94L308.79,384.79L289.73,384.73 M289.19,384.19 M289.74,394.74 M289.39,403.39L308.85,403.85L328.20,404.20 M351.71,401.71L351.62,411.62L355.42,412.42L351.49,425.49L348.63,430.63L349.66,440.66L349.57,450.57L349.54,460.54L350.59,470.59 M354.06,469.06L355.98,458.98 M363.93,458.93L344.59,458.59 M346.05,460.05 M348.07,464.07 M343.68,467.68 M346.32,479.32L365.32,479.32 M364.02,480.02 M363.91,471.91L362.72,466.72L363.67,456.67L362.70,446.70L363.80,436.80 M365.67,441.67L346.75,441.75 M345.18,440.18 M344.40,430.40 M338.78,430.78L332.84,431.84L332.98,441.98L333.14,452.14L328.25,459.25 M337.02,448.02L335.13,438.13 M345.74,450.74L364.84,450.84 M380.66,452.66L377.42,462.42L381.41,464.41L381.43,474.43 M374.87,493.87L373.80,503.80 M364.02,497.02 M365.85,489.85 M356.12,498.12L355.24,508.24L358.51,506.51L354.63,517.63 M339.11,513.11L341.26,503.26 M328.11,509.11L309.81,509.81L290.93,509.93 M290.27,518.27L309.09,499.09 M308.10,500.10L288.64,518.64 M285.21,519.21L281.31,529.31L283.23,539.23L294.19,547.19L294.37,557.37L298.57,557.57L299.57,565.57L303.49,570.49L303.47,580.47L301.40,587.40L308.17,592.17L304.33,602.33 M307.75,602.75 M315.12,599.12 M325.53,610.53 M331.22,629.22L332.19,644.19L338.14,650.14L345.07,658.07L355.12,672.12L373.26,673.26L374.86,702.86L385.60,708.60L385.51,700.51L395.54,698.54L401.68,712.68L409.42,723.42L414.31,711.31L425.29,723.29L428.34,731.34L424.38,738.38L427.53,748.53L435.53,751.53L436.58,761.58L441.63,770.63L439.77,780.77L448.83,781.83L449.27,789.27L453.50,796.50L453.60,799.60 M458.28,802.28 M438.34,801.34 M426.26,800.26L420.56,791.56L416.59,798.59L419.89,791.89L416.23,782.23L411.58,772.58L408.78,769.78L407.67,759.67L405.38,746.38L397.14,743.14L390.86,732.86L379.77,722.77L384.72,712.72L376.84,708.84L367.80,699.80L368.60,689.60L368.51,679.51L366.51,672.51L366.50,662.50L359.46,652.46L358.48,643.48L354.64,639.64L356.63,627.63L349.70,617.70L349.80,613.80L350.85,607.85L342.87,599.87L335.99,593.99L335.89,583.89L333.90,575.90L342.01,569.01L350.84,565.84L339.72,559.72L341.69,552.69L339.65,549.65L341.64,539.64L337.69,529.69L343.69,523.69L333.38,522.38L330.21,504.21L319.23,507.23L319.34,519.34L309.31,524.31L300.33,518.33L293.49,532.49L290.79,542.79L292.98,532.98 M287.80,525.80L306.77,525.77 M307.66,518.66 M304.24,518.24L301.23,528.23L309.17,536.17 M311.84,517.84L312.02,528.02L316.10,538.10L313.99,547.99L318.75,547.75L321.40,558.40L326.22,570.22L321.23,576.23L323.23,586.23L327.20,596.20L337.06,606.06L325.14,613.14L327.37,619.37L317.40,629.40 M308.01,631.01 M301.00,626.00L309.02,627.02L316.08,625.08L325.13,632.13L339.14,631.14L358.11,628.11L363.11,623.11L370.03,637.03L383.07,634.07L393.16,634.16L394.35,637.35L403.26,639.26L413.29,649.29L421.47,655.47L431.75,662.75L431.95,679.95L442.04,696.04L440.98,701.98L443.10,712.10L440.41,716.41L450.62,727.62L453.44,736.44L464.13,740.13L463.96,749.96L466.89,759.89L469.71,769.71L471.87,778.87L462.77,790.77L458.74,797.74L459.86,801.86L467.02,788.02L470.90,783.90L478.76,791.76L483.64,779.64L480.47,789.47L484.31,797.31 M479.35,804.35L498.33,785.33 M500.94,782.94L500.90,792.90 M497.35,803.35 M518.06,805.06L537.00,786.00 M530.57,792.57L537.60,779.60L530.55,775.55L537.51,765.51L540.34,749.34L537.03,739.03L549.12,731.12L544.36,721.36L536.56,711.56L540.86,700.86L543.06,699.06L534.27,706.27L518.28,696.28L508.46,695.46L505.57,688.57L498.60,683.60 M497.83,678.83 M493.68,680.68L499.42,690.42L504.31,700.31L509.29,710.29L514.34,725.34L514.38,735.38L523.53,738.53L523.53,748.53L508.58,756.58 M505.59,758.59L510.54,771.54L520.50,771.50 M517.72,764.72L498.67,764.67L479.77,764.77L460.80,764.80L441.55,764.55L422.42,764.42 M420.81,764.81L402.18,784.18L383.28,803.28 M390.01,798.01L389.14,788.14L388.43,779.43L381.72,774.72L371.69,761.69L370.11,751.11L365.38,751.38L360.52,741.52L359.68,732.68L351.77,724.77L356.64,714.64L355.62,709.62L356.65,703.65L348.75,685.75L339.67,682.67L332.65,689.65L322.50,696.50L311.37,698.37L303.26,686.26L294.27,674.27L288.14,667.14L271.09,667.09L265.05,655.05L257.97,639.97L244.72,642.72L235.58,644.58L227.38,645.38L221.22,635.22L219.05,642.05L220.88,639.88 M227.57,630.57L236.58,635.58L240.30,641.30L244.30,649.30L240.51,653.51L244.43,658.43L247.35,668.35L249.27,678.27L245.10,686.10 M236.56,686.56L231.66,676.66L226.55,674.55L229.54,664.54 M231.89,678.89L250.71,678.71 M252.41,670.41L271.00,670.00 M270.02,671.02L289.21,652.21 M286.25,647.25L305.72,647.72 M305.01,658.01L287.27,652.27L281.43,650.43L281.52,640.52L276.72,630.72L273.89,620.89L261.03,613.03L269.04,606.04L266.03,596.03L255.20,587.20 M249.84,584.84L243.99,590.99L254.00,588.00L256.96,589.96L268.05,600.05L283.20,610.20L288.99,598.99L300.95,590.95L313.83,578.83L319.63,593.63L329.59,586.59L331.61,605.61L339.55,594.55L348.62,599.62L355.83,609.83L363.83,602.83L372.83,621.83L383.68,593.68L389.60,591.60L392.59,601.59L394.60,611.60L387.64,611.64L392.56,620.56L395.61,627.61L401.68,635.68L407.67,643.67L416.88,648.88L425.06,659.06L429.01,669.01L424.81,672.81L428.67,682.67 M420.91,677.91L439.70,677.70 M442.29,670.29L461.41,670.41L479.98,669.98L498.47,669.47 M490.51,684.51L495.60,694.60L496.80,697.80L507.84,708.84L520.72,716.72L532.77,709.77L539.86,720.86L542.14,713.14L551.38,705.38L556.67,721.67L561.78,727.78L571.58,728.58L573.23,708.23L578.89,728.89L586.59,718.59L596.56,725.56L604.26,714.26L611.14,717.14L613.00,737.00L616.79,730.79L619.63,734.63L613.62,744.62L614.65,749.65L612.77,759.77L607.09,767.09L603.05,777.05L614.25,780.25L610.41,789.41L614.57,796.57L610.65,791.65L620.77,795.77L621.69,790.69 M630.88,792.88 M631.30,804.30 M649.12,782.12L639.02,775.02 M631.54,774.54L650.55,774.55 M650.64,764.64L670.13,765.13 M670.65,767.65L663.57,757.57L659.58,748.58L648.62,735.62L657.63,724.63L658.84,715.84L652.92,710.92L657.76,698.76L650.54,688.54L661.85,679.85L664.05,671.05L654.22,657.22L651.33,651.33L642.28,643.28L651.50,634.50L658.42,632.42L661.16,622.16L663.77,616.77L678.56,606.56L676.47,597.47L672.30,590.30L654.26,586.26L651.32,574.32L649.32,565.32L648.21,555.21L654.27,548.27L653.27,540.27L655.18,539.18L661.18,536.18L657.26,515.26L671.41,544.41L675.59,571.59L675.78,574.78L676.71,564.71 M673.13,562.13L678.98,565.98L689.02,576.02L699.33,588.33L706.80,601.80L709.11,591.11L725.19,581.19L740.39,578.39L740.70,577.70L736.08,588.08L730.12,597.12L726.13,605.13L724.03,614.03L718.94,623.94 M725.34,630.34 M728.02,626.02L729.21,616.21 M744.84,611.84 M750.31,623.31L752.30,636.30L747.30,632.30L748.43,622.43L754.24,609.24L752.83,610.83L744.69,614.69L738.79,611.79L737.91,597.91L731.04,608.04L719.10,619.10L717.20,609.20L714.03,592.03L703.69,574.69L695.37,597.37L684.11,586.11L677.94,586.94L667.08,580.08L663.32,590.32L654.39,588.39L652.42,584.42L646.54,553.54L647.29,545.29L646.07,540.07L654.03,550.03L643.08,540.08L647.03,536.03 M646.12,547.12L643.80,556.80L640.41,565.41L647.17,582.17L651.93,591.93L657.49,601.49 M648.81,593.81 M647.94,590.94L666.64,590.64L685.72,590.72 M685.95,600.95 M687.86,601.86L689.54,591.54L683.53,580.53L687.65,571.65L680.63,561.63 M663.52,566.52L658.41,576.41L668.43,581.43 M668.16,583.16 M651.03,586.03L655.34,599.34L658.51,612.51L669.55,597.55L676.60,601.60L686.57,612.57L695.15,610.15L696.89,611.89L715.89,600.89L726.05,598.05L729.94,584.94L734.01,568.01L743.04,571.04L750.36,576.36L755.90,584.90L752.16,583.16 M744.21,575.21 M745.56,565.56 M756.81,569.81L753.83,566.83L743.96,562.96L734.35,556.35L742.85,553.85L734.92,547.92 M744.36,545.36 M758.70,553.70L756.89,548.89L739.04,539.04L745.93,531.93L750.74,520.74L749.77,538.77L741.61,525.61L724.63,526.63L723.80,519.80L714.96,502.96L707.17,498.17L691.23,493.23L682.39,504.39L672.32,497.32L673.03,490.03L665.98,488.98 M668.39,478.39L649.46,478.46 M630.95,497.95L611.52,497.52L592.02,497.02 M591.49,515.49L610.87,515.87L630.52,516.52 M638.67,525.67L635.58,529.58L636.14,533.14 M657.94,528.94L663.65,518.65L666.46,516.46L658.48,514.48 M657.65,516.65L659.73,526.73 M662.55,508.55L658.68,509.68L652.69,501.69L653.65,511.65L654.66,519.66L651.52,529.52L653.24,533.24L640.17,539.17L630.05,543.05L637.85,545.85L623.86,550.86L634.63,558.63L628.67,563.67L631.80,567.80L635.93,579.93L643.10,590.10L650.08,599.08L653.06,612.06L647.12,617.12L642.34,627.34L639.52,634.52L619.50,645.50 M611.15,651.15 M610.53,658.53L591.23,658.23 M591.96,650.96L611.10,632.10 M593.39,631.39L580.40,632.40L588.54,631.54L597.57,636.57L602.42,650.42L612.03,662.03 M612.61,671.61L631.78,652.78 M636.97,652.97L637.10,663.10L634.24,673.24L635.34,679.34L648.42,682.42L647.50,695.50 M648.93,688.93 M647.66,676.66L628.49,676.49 M634.59,675.59L636.44,664.44L646.53,666.53L645.51,666.51L649.31,667.31L652.33,677.33L665.66,674.66L669.99,681.99L671.31,691.31L669.59,696.59L679.70,697.70L683.81,707.81L674.82,712.82L673.72,722.72L682.65,732.65L686.57,746.57L691.28,755.28L698.88,763.88L692.76,766.76L693.85,776.85 M687.94,773.94 M688.61,766.61L700.46,763.46L690.30,772.30L702.11,772.11 M705.66,764.66 M708.23,765.23L726.77,764.77 M725.29,765.29L743.75,745.75 M744.76,744.76 M745.53,752.53L747.88,742.88L742.13,743.13L733.20,732.20L735.22,722.22L734.91,711.91L728.57,711.57L718.39,706.39L713.49,695.49L702.47,688.47 M706.06,689.06 M706.20,687.20L687.28,687.28 M687.21,678.21 M687.25,670.25 M670.70,664.70L666.77,654.77 M666.48,657.48L647.74,657.74 M649.42,651.42L630.99,670.99L612.73,690.73 M611.04,687.04L630.14,687.14 M628.50,687.50 M631.35,697.35L628.15,707.15 M611.37,706.37L592.17,706.17L573.26,706.26L554.21,706.21 M565.21,705.21L573.15,715.15L588.07,730.07L594.84,740.84L596.52,750.52L592.50,764.50 M599.28,766.28L604.33,756.33L604.35,748.35L599.52,744.52 M611.91,744.91L630.90,744.90 M613.35,748.35 M612.90,764.90L593.87,764.87L574.75,764.75L555.83,764.83 M555.22,755.22L574.15,755.15L593.07,755.07L611.94,754.94L631.02,755.02L650.29,755.29L668.53,754.53 M667.84,743.84L686.80,743.80 M688.41,747.41 M700.66,746.66L690.58,734.58L693.47,724.47L685.25,713.25L696.07,709.07L688.14,699.14L686.10,689.10L680.16,682.16L679.13,677.13L680.89,670.89L686.80,655.80L680.98,649.98L685.10,643.10L678.22,632.22L685.38,625.38L691.47,619.47L677.76,612.76L686.70,606.70L697.67,604.67L714.72,594.72L721.63,587.63L721.79,580.79L720.89,576.89L713.98,565.98L702.05,556.05L699.27,544.27L704.06,534.06L708.81,524.81L711.67,514.67L703.67,509.67L708.72,508.72L709.65,499.65L706.48,493.48L715.60,484.60L721.97,479.97L718.00,470.00L708.95,464.95L718.17,461.17L716.24,458.24L722.08,448.08L720.89,437.89 M706.87,440.87L687.88,440.88L668.68,440.68L649.55,440.55 M650.44,422.44L669.15,422.15L687.41,421.41 M687.43,402.43L668.95,402.95L650.51,403.51L631.61,403.61L612.27,403.27L593.22,403.22 M610.98,420.98 M556.96,404.96 M555.92,384.92L574.86,384.86L593.70,384.70L612.16,384.16L630.38,383.38L649.05,383.05L667.94,382.94L686.99,382.99 M684.92,387.92L693.09,384.09L690.23,377.23L695.05,374.05L685.95,372.95L692.07,371.07L687.22,367.22L684.07,357.07L688.02,347.02L706.86,331.86L714.84,321.84L720.05,317.05L728.96,307.96L740.85,297.85L745.47,285.47L745.35,298.35L728.54,287.54L718.91,275.91L711.06,281.06L700.34,281.34L693.54,283.54L684.52,293.52L676.66,306.66L670.46,325.46L669.42,319.42L661.30,318.30L651.13,317.13L640.96,327.96L651.87,311.87L646.72,302.72L623.76,292.76L614.89,310.89L628.69,316.69 M623.01,310.01L627.17,304.17L637.08,296.08L643.12,291.12L652.23,280.23L645.15,288.15L637.34,298.34L619.68,314.68L618.88,325.88L614.89,335.89L601.93,336.93L598.88,337.88L608.75,340.75 M592.89,355.89L573.83,355.83L554.29,355.29L534.54,354.54L515.32,354.32 M516.33,353.33L521.42,356.42L510.77,366.77L504.02,374.02L501.07,381.07L504.21,412.21L504.30,414.30L496.58,420.58L498.60,430.60L506.47,438.47L514.59,449.59L503.50,463.50L508.34,467.34L502.32,480.32L500.35,490.35L493.44,499.44L490.27,509.27L478.06,515.06L478.89,524.89 M479.25,527.25L498.23,527.23L517.65,527.65 M516.88,535.88L535.78,535.78L554.16,535.16L572.70,534.70 M578.04,541.04L575.93,535.93L565.74,531.74L563.77,521.77 M549.12,510.12L536.06,512.06L525.69,506.69L526.28,516.28L537.96,517.96L524.80,529.80L520.56,532.56L526.58,536.58 M514.91,535.91 M515.29,544.29 M512.32,563.32L511.28,569.28L518.35,573.35L517.59,582.59L510.98,586.98 M497.96,592.96L478.81,592.81 M483.23,584.23L468.21,573.21L462.21,593.21L468.27,595.27L471.29,600.29L483.17,610.17 M495.58,609.58 M496.55,620.55 M491.20,632.20L487.11,625.11L481.23,618.23L486.52,608.52L484.54,602.54L484.33,593.33L474.07,585.07L471.15,575.15L473.34,571.34L479.51,561.51L474.69,556.69L484.87,546.87L486.61,538.61L498.29,530.29L490.16,524.16L501.17,523.17L495.10,513.10L501.19,511.19L500.46,501.46L494.76,491.76L491.96,481.96L485.98,476.98L474.31,470.31L467.67,460.67L457.82,458.82L447.82,458.82L453.77,455.77 M459.78,459.78L440.47,459.47 M453.00,471.00L448.84,475.84L442.00,479.00 M449.73,485.73L455.67,475.67L451.63,470.63L460.77,460.77 M466.90,464.90L472.90,466.90L458.61,473.61L464.60,479.60L456.89,486.89 M461.23,480.23L442.03,480.03L422.90,479.90 M422.31,481.31 M456.86,511.86L456.53,521.53L457.32,532.32L461.08,542.08L460.81,551.81L451.49,556.49L454.46,566.46L449.34,579.34L454.37,589.37L457.50,599.50L462.34,605.34L464.42,615.42L460.47,619.47L467.56,621.56L473.64,629.64L472.63,639.63L477.85,640.85L481.18,650.18L482.26,657.26L490.21,665.21L492.20,671.20L497.03,675.03L503.04,685.04L508.03,692.03L510.89,701.89 M515.82,705.82L496.52,705.52 M497.30,708.30L503.16,708.16L511.11,718.11L508.97,733.97 M499.20,727.20 M493.92,719.92L491.91,709.91 M498.65,709.65 M497.78,716.78L517.11,717.11L536.36,717.36L555.57,717.57 M556.62,729.62 M572.14,698.14L572.32,708.32L574.33,703.33L583.34,698.34L591.38,702.38L595.32,715.32L601.28,717.28L608.25,707.25L603.13,717.13L606.04,726.04L618.20,732.20L623.12,744.12L626.12,754.12L628.90,763.90L634.57,773.57L643.46,783.46L645.46,793.46L644.29,789.29L653.34,793.34L658.61,784.61L668.71,780.71L668.65,780.65L677.51,783.51L667.45,797.45L667.35,791.35L674.32,798.32L683.25,790.25 M688.86,787.86L682.68,780.68L665.60,776.60L658.52,767.52L656.36,758.36L650.42,756.42L649.44,746.44L642.52,738.52L639.70,728.70L638.86,718.86L635.85,710.85L634.86,706.86L626.59,699.59L614.40,699.40L604.33,692.33L603.19,686.19 M617.21,692.21L616.19,681.19L610.34,671.34L620.45,668.45L628.52,655.52L627.54,659.54L618.62,646.62L612.53,641.53L602.31,619.31L594.24,611.24L586.40,599.40L588.29,601.29L582.18,606.18L577.13,595.13L569.79,601.79L557.65,604.65L551.56,612.56L543.34,616.34L542.98,606.98L544.82,601.82 M536.62,593.62L555.36,593.36 M563.80,591.80L567.74,601.74 M573.53,602.53 M579.32,605.32L580.32,615.32L585.26,625.26 M591.40,629.40L572.56,629.56 M572.89,619.89L566.77,613.77L565.82,604.82L561.89,598.89L556.93,588.93L560.01,579.01 M573.93,583.93L593.05,584.05 M593.10,576.10 M591.33,572.33L610.55,572.55L629.99,572.99L649.37,573.37 M652.36,569.36L658.44,560.44L659.29,546.29L674.12,537.12L681.94,549.94L692.86,538.86L697.81,540.81L713.77,538.77L711.71,538.71L719.78,549.78L724.92,538.92L735.94,533.94L743.04,544.04L748.23,556.23L753.35,546.35L763.26,546.26L769.11,549.11L771.86,559.86L768.68,558.68 M764.24,517.24 M781.08,468.08 M782.22,461.22 M783.23,432.23 M783.01,424.01 M733.79,380.79L723.75,380.75L706.65,360.65L708.52,340.52L718.47,332.47L708.47,333.47 M714.76,351.76L705.74,362.74L703.56,372.56L699.44,379.44L700.52,380.52L700.41,390.41L704.60,393.60L704.78,403.78L706.08,414.08L710.38,422.38L710.34,425.34L709.38,435.38L710.44,445.44L710.27,455.27L706.90,464.90L704.90,474.90L701.72,484.72L693.71,485.71L692.71,500.71L689.76,506.76L683.99,507.99L677.88,517.88 M670.35,510.35L670.43,520.43L665.34,527.34L662.37,528.37L669.52,534.52L657.52,549.52L661.74,555.74L651.89,556.89 M651.10,556.10 M648.38,555.38 M649.15,564.15 M631.17,602.17L634.41,592.41L619.80,594.80L620.12,584.12L616.93,572.93L602.50,568.50L595.20,566.20L588.97,553.97L598.82,552.82L611.62,545.62L611.68,535.68L615.61,534.61L618.35,524.35L617.22,514.22 M599.62,520.62L598.49,530.49L602.54,530.54L598.51,540.51L591.34,542.34L591.32,552.32 M593.73,557.73 M598.90,565.90L603.68,555.68L593.53,542.53L584.68,547.68L594.87,535.87L591.92,531.92L585.83,528.83L592.66,526.66 M602.70,535.70L602.69,545.69 M572.83,544.83L554.08,545.08 M555.09,557.09 M573.71,556.71 M571.44,591.44L575.52,601.52L588.53,591.53L600.57,582.57L610.64,582.64L608.62,589.62L617.54,602.54 M611.26,592.26L592.42,592.42 M630.26,602.26 M632.06,613.06L651.57,613.57L670.68,613.68 M674.89,624.89L674.95,634.95L673.09,645.09L686.05,648.05L688.94,647.94L695.11,657.11L687.90,663.90L697.76,673.76L696.73,683.73L709.66,682.66L720.58,690.58L731.54,694.54 M726.50,691.50L719.46,681.46L714.48,671.48L721.64,665.64L721.63,656.63L718.70,649.70L706.80,646.80L705.85,637.85L696.87,629.87 M690.59,632.59L697.61,642.61L707.55,655.55L705.62,664.62 M705.58,667.58L686.76,667.76L668.02,668.02L649.65,668.65L631.22,669.22L612.54,669.54L593.77,669.77 M573.25,678.25L554.07,678.07L535.20,678.20 M529.85,681.85L536.90,690.90L540.92,664.92L551.01,661.01L560.10,673.10L576.34,676.34L581.42,683.42L589.39,679.39L600.44,678.44L621.51,674.51L631.68,674.68L636.72,658.72L644.09,652.09L646.30,659.30L657.40,660.40L670.24,667.24L676.14,676.14L684.86,662.86L692.62,656.62L706.49,651.49L716.60,658.60L721.68,660.68L733.08,677.08L739.48,685.48L745.72,691.72L739.85,696.85L747.74,709.74L749.51,705.51 M744.47,697.47L725.78,697.78 M716.78,690.78L726.81,694.81L737.70,699.70 M732.45,682.45L729.60,679.60L728.55,669.55 M730.44,651.44L724.51,647.51L714.61,647.61L702.66,639.66L693.65,635.65L687.47,632.47L681.21,625.21L673.39,631.39L667.45,642.45L661.50,639.50L659.62,638.62L656.62,633.62 M648.87,629.87 M651.93,623.93 M649.70,613.70 M630.36,620.36L629.29,630.29 M630.95,640.95 M685.70,628.70 M688.33,641.33 M689.03,651.03L669.65,650.65L650.37,650.37L630.83,649.83L611.28,649.28L591.77,648.77L572.28,648.28L552.96,647.96 M542.29,647.29L538.34,642.34L548.40,637.40L557.52,627.52 M554.55,621.55L535.19,621.19 M537.17,632.17L518.44,632.44 M503.99,630.99L503.00,641.00L504.14,653.14L520.26,664.26L522.50,674.50L524.65,691.65 M515.94,686.94L535.08,687.08 M540.29,684.29L550.35,678.35L567.29,682.29L573.39,684.39 M573.79,687.79 M573.41,689.41 M573.21,697.21L553.60,696.60L534.10,696.10L514.79,695.79 M524.26,708.26L518.12,704.12L519.07,695.07L517.14,686.14L518.19,677.19L507.22,672.22L518.05,662.05L513.99,651.99L507.80,642.80L500.59,640.59L495.35,633.35L486.35,625.35L485.35,608.35L480.50,598.50L480.85,584.85L488.02,575.02 M498.86,574.86 M490.99,587.99L486.83,597.83L493.60,607.60L494.36,617.36L499.12,625.12L496.84,632.84L499.04,644.04L505.12,653.12 M478.89,630.89L459.86,630.86L440.65,630.65L421.46,630.46 M433.51,622.51 M436.06,621.06L436.84,630.84L437.73,640.73 M440.80,632.80 M442.16,604.16L443.99,593.99 M441.25,593.25L422.69,593.69L403.75,593.75 M412.19,601.19L416.08,595.08L411.12,583.12L408.13,573.13 M421.36,594.36 M448.69,581.69L456.79,581.79L467.08,584.08L473.32,571.32L476.41,552.41L486.35,547.35L488.59,559.59L500.96,570.96L504.11,581.11L509.06,575.06L534.01,570.01L545.17,573.17L555.08,566.08L559.12,568.12L559.23,571.23L568.15,581.15L581.34,591.34L591.68,592.68L601.88,598.88L595.89,598.89L610.93,606.93L606.88,610.88L606.75,625.75L592.52,637.52L591.43,645.43L591.41,655.41L601.12,656.12L593.64,665.64L589.34,672.34L587.24,685.24L596.34,697.34L590.21,707.21L597.06,707.06 M594.92,718.92L613.95,718.95 M619.52,724.52L610.51,731.51L600.53,733.53L601.54,730.54 M630.34,725.34L649.40,725.40 M650.26,717.26 M649.76,706.76L668.82,706.82 M669.18,698.18L687.85,697.85 M704.36,701.36L715.52,697.52L721.61,707.61L725.74,717.74L729.86,726.86 M735.60,732.60L745.67,740.67L746.74,751.74L754.85,742.85 M724.52,743.52L725.46,753.46 M706.10,738.10L715.01,751.01L723.84,759.84L722.52,771.52L719.23,778.23L733.81,795.81 M726.95,798.95L710.75,784.75L706.45,772.45L709.34,762.34L712.39,756.39L719.59,761.59L703.76,758.76L704.85,756.85L699.96,747.96L696.29,734.29L687.41,732.41L676.51,733.51L668.72,728.72L661.65,730.65 M668.67,728.67L672.73,738.73L679.83,748.83L683.02,759.02 M668.00,727.00 M687.39,716.39L706.42,716.42 M707.57,671.57 M705.89,658.89 M687.40,651.40 M720.29,639.29L724.56,649.56 M726.45,650.45 M754.27,682.27L750.83,678.83L749.77,679.77L738.63,686.63L723.58,687.58L718.53,681.53L705.53,663.53L703.38,677.38L691.34,667.34L685.29,674.29L675.31,694.31L667.42,694.42L664.68,676.68L657.54,646.54L651.51,639.51L644.60,637.60L636.86,620.86L627.26,611.26L614.12,605.12L610.07,602.07L606.14,603.14L599.19,598.19L598.22,592.22L585.05,585.05L575.99,578.99L566.80,579.80L560.59,574.59L545.35,590.35L542.35,583.35L535.35,577.35L531.50,568.50L523.85,559.85L516.02,551.02L517.09,552.09L507.28,529.28L496.39,552.39L491.29,546.29L474.29,535.29L447.48,556.48L437.51,552.51L432.45,542.45L429.33,529.33L431.36,530.36 M434.95,528.95L434.88,538.88L432.92,539.92L428.10,541.10L421.48,557.48L435.68,560.68 M459.63,564.63 M478.53,545.53 M477.07,536.07L496.50,517.50L515.77,498.77 M516.03,497.03 M517.28,489.28 M516.99,480.99L498.07,500.07 M487.66,495.66L486.64,485.64L489.74,474.74L488.89,467.89L488.99,457.99 M516.39,459.39L535.41,459.41 M525.37,439.37L526.43,429.43L529.52,419.52L530.29,409.29L527.98,398.98L520.78,388.78L519.47,378.47L511.34,382.34L515.26,372.26L510.15,365.15L510.26,355.26 M508.71,354.71L507.85,364.85L505.15,371.15L497.45,379.45L500.69,389.69L498.00,395.00L501.94,402.94 M508.42,408.42L509.24,398.24L507.12,388.12 M498.94,384.94L517.74,384.74 M515.54,384.54 M516.46,393.46 M515.45,403.45 M518.04,404.04 M516.42,412.42 M482.96,414.96L480.79,404.79 M478.56,402.56 M472.84,391.84L472.70,381.70 M477.66,380.66L477.52,390.52L473.54,394.54L477.34,404.34L473.06,407.06L472.91,416.91 M516.08,374.08 M555.04,375.04 M570.85,357.85L570.82,347.82L572.92,341.92L574.06,338.06L580.01,329.01L592.09,318.09L592.33,309.33L587.54,307.54L599.53,302.53L612.33,292.33L622.22,280.22L628.01,270.01L626.76,259.76L614.62,268.62L604.73,276.73L594.74,291.74L593.83,294.83L600.08,285.08L608.15,275.15 M612.92,280.92 M613.46,290.46L632.08,290.08 M631.71,299.71 M649.53,307.53 M669.65,306.65L681.33,305.33 M686.82,297.82L667.88,297.88 M668.82,288.82L688.12,289.12 M675.15,285.15 M688.81,270.81L707.80,270.80L726.84,270.84L745.78,270.78 M741.41,274.41L744.70,284.70L749.86,298.86L760.08,304.08L770.32,311.32L773.55,314.55 M764.33,310.33 M762.54,306.54L742.96,305.96 M734.75,307.75L739.82,317.82L739.71,327.71 M728.88,299.88L726.82,289.82 M725.55,288.55L744.52,288.52 M746.05,292.05 M763.02,292.02L762.84,290.84L757.81,288.81L744.85,270.85L728.70,271.70L720.39,261.39L718.17,249.17L724.05,245.05L734.94,234.94L737.75,220.75L739.62,225.62L725.62,236.62L723.61,211.61L716.73,200.73L712.83,195.83L702.83,198.83L691.73,203.73L688.90,196.90L679.16,190.16L668.40,205.40L663.52,214.52L649.51,209.51L650.63,221.63L642.72,231.72L635.55,223.55L630.23,228.23L619.10,213.10L615.19,211.19L607.41,222.41L599.49,212.49L593.34,217.34L583.24,212.24L573.31,221.31L565.31,214.31L545.26,218.26L541.36,241.36L531.60,255.60L521.56,269.56L510.63,268.63L501.85,283.85L496.12,287.12L494.42,283.42 M482.08,289.08L479.18,299.18L473.21,309.21L482.38,313.38L490.65,308.65L497.67,321.67L502.78,304.78L508.90,306.90L519.96,313.96L526.86,306.86L532.75,293.75L534.60,288.60L546.39,267.39L550.26,278.26L558.25,273.25L564.30,278.30L556.53,285.53L549.83,295.83L548.91,298.91L548.81,312.81L554.78,322.78L544.84,331.84 M556.31,290.31 M554.39,279.39 M554.52,269.52L535.86,269.86 M537.74,262.74 M551.96,265.96L562.16,256.16L572.31,249.31L574.27,242.27L584.12,223.12L593.90,220.90 M593.25,223.25 M592.68,217.68L592.78,207.78 M591.82,192.82L572.62,192.62L553.22,192.22 M553.89,192.89L573.09,174.09 M571.39,180.39L573.51,172.51L568.46,170.46L581.38,167.38L592.38,154.38L596.54,144.54L601.67,135.67L612.55,125.55L616.32,115.32L623.24,105.24L629.29,95.29L621.43,85.43 M613.17,91.17L594.47,91.47 M592.90,98.90 M598.74,101.74L608.84,99.84 M610.27,107.27 M611.00,117.00 M612.09,118.09L593.22,137.22L574.40,156.40L555.40,175.40 M549.43,180.43L541.45,190.45L537.72,202.72L538.93,209.93L541.06,220.06L534.14,226.14 M535.83,212.83 M516.22,211.22L512.34,209.34L511.44,210.44L516.49,203.49L528.53,202.53L530.40,210.40L526.54,220.54L517.39,230.39L509.24,240.24L510.06,250.06L529.91,234.91L535.13,216.13L540.98,217.98L539.87,225.87L533.93,235.93L527.86,247.86 M518.83,271.83L526.57,261.57L531.52,251.52L539.71,241.71L546.00,230.00L547.14,214.14L549.11,204.11L556.31,200.31L561.47,193.47L559.64,183.64L552.76,177.76L557.90,167.90L564.02,158.02L552.86,147.86L562.74,144.74L571.77,134.77L576.87,125.87L577.71,115.71L582.89,105.89L589.96,102.96L586.13,91.13L580.44,87.44L576.62,89.62 M590.92,79.92L585.97,69.97 M574.22,61.22 M573.83,60.83L555.08,80.08 M556.10,81.10 M555.26,90.26 M536.66,90.66L527.00,94.00L543.46,81.46L549.88,69.88L557.34,69.34L560.52,59.52L563.66,50.66L573.62,39.62L569.74,40.74L563.99,32.99L552.10,32.10L541.89,44.89L529.54,43.54L522.24,34.24L517.90,24.90L507.53,34.53L502.69,28.69L493.70,38.70L489.64,32.64L476.54,32.54L465.37,28.37 M479.57,23.57 M479.71,23.71 M479.58,33.58L488.64,43.64L496.75,45.75L492.80,56.80L497.73,67.73L497.67,76.67L494.73,85.73 M480.27,91.27 M477.45,97.45 M483.91,106.91L484.88,117.88L477.92,119.92 M492.23,113.23L490.12,103.12L495.03,90.03L504.10,81.10L513.32,71.32L522.38,65.38L524.23,55.23L518.05,52.05L508.06,52.06L499.21,41.21L508.34,31.34 M517.16,23.16 M515.79,21.79 M508.63,18.63L510.45,28.45L521.10,29.10L523.97,33.97L516.01,40.01L515.86,49.86 M529.01,48.01L527.22,38.22 M533.59,58.59 M528.04,67.04L530.14,77.14 M534.07,69.07L515.35,69.35 M505.17,64.17L499.05,54.05 M497.59,60.59 M498.23,61.23 M486.34,46.34L485.41,56.41L483.51,66.51L479.53,80.53 M479.70,80.70L460.74,80.74 M458.66,78.66L439.52,97.52L420.26,116.26 M420.96,116.96 M428.02,105.02 M421.55,98.55L440.68,98.68 M442.95,99.95L439.76,109.76L432.65,119.65L430.65,129.65L426.74,137.74 M421.12,136.12L402.05,155.05 M405.96,147.96L405.59,138.59L412.35,127.35L420.41,121.41L422.32,111.32L415.08,108.08L402.79,102.79L392.69,94.69L389.76,101.76L383.06,109.06L373.24,107.24L370.31,99.31L363.57,87.57L356.94,86.94L352.40,82.40L345.76,76.76L335.07,87.07L340.24,89.24 M308.08,109.08 M316.34,138.34L310.18,142.18L303.05,152.05L308.89,156.89L310.72,162.72 M307.03,155.03 M295.91,157.91L293.94,167.94L299.13,176.13L291.33,182.33L287.48,192.48L282.54,202.54L286.75,212.75L280.11,227.11L272.32,230.32 M290.81,214.81 M288.43,193.43 M288.19,193.19 M289.80,185.80 M261.17,201.17L264.12,194.12L269.31,188.31L272.52,184.52L271.78,175.78L272.80,165.80L279.97,156.97L288.00,149.00L294.00,138.00L292.04,137.04L288.14,143.14 M282.80,143.80L294.58,133.58L289.47,123.47L294.35,116.35L300.19,107.19L306.03,102.03L306.11,98.11L304.40,88.40L309.65,84.65L316.74,74.74L323.73,63.73L328.76,58.76L328.84,50.84L335.79,40.79L331.78,34.78L336.80,24.80 M346.32,6.32L356.18,6.18 M379.93,3.93L381.88,13.88L392.75,26.75L394.52,35.52L404.43,39.43L406.41,49.41L409.12,54.12L400.64,35.64L410.34,33.34L414.24,48.24L424.34,37.34L421.21,47.21L418.06,55.06L423.05,64.05L432.23,80.23L429.38,90.38L420.32,102.32L416.10,100.10L425.03,87.03L442.12,68.12L457.23,69.23L467.34,65.34L470.57,66.57L454.77,73.77L455.77,90.77L459.86,105.86L454.34,116.34L444.67,126.67L437.71,136.71L427.51,148.51L426.53,158.53L419.38,160.38L414.47,171.47L407.47,181.47L395.35,185.35L403.22,190.22L392.19,200.19L400.01,217.01L407.81,220.81L407.76,230.76L411.76,239.76L403.79,249.79L396.60,255.60 M404.26,259.26L395.29,269.29L387.28,280.28 M382.51,271.51 M385.08,252.08 M382.37,249.37 M369.99,253.99L365.96,263.96L361.78,273.78L355.69,283.69L368.68,288.68L361.50,295.50L360.66,304.66L357.63,313.63L349.63,323.63L350.63,333.63 M345.07,326.07 M342.05,320.05L339.17,318.17L344.50,305.50L349.59,295.59 M365.54,289.54L346.82,289.82L328.18,290.18L309.25,290.25 M315.17,316.17L325.00,319.00L334.63,305.63L346.26,312.26L357.94,326.94L374.84,327.84L377.80,344.80L384.74,341.74L395.81,347.81L404.07,330.07L409.12,335.12 M412.69,325.69L419.64,315.64 M420.38,316.38 M419.17,324.17L428.38,323.38L438.48,315.48L451.62,314.62 M445.73,305.73L455.83,302.83L460.04,291.04L467.27,279.27 M473.88,273.88L470.72,283.72L465.69,293.69L459.49,308.49L463.32,318.32L460.31,327.31 M430.74,327.74L437.56,323.56L438.38,316.38L436.25,306.25 M422.04,299.04 M419.94,305.94L439.13,306.13L458.57,306.57L477.78,306.78L496.76,306.76 M501.30,297.30L500.38,301.38L510.52,296.52L520.38,302.38L504.98,301.98L505.69,307.69L509.46,319.46L513.17,323.17L508.05,324.05L522.20,317.20L532.28,316.28L531.18,303.18L540.01,309.01L546.00,317.00L556.20,317.20L570.42,309.42L577.47,314.47L587.40,301.40L596.55,307.55L601.76,300.76L617.80,274.80L627.70,273.70L628.67,265.67L641.72,278.72L652.91,277.91L658.93,269.93L668.78,260.78L678.77,259.77L688.74,251.74L692.65,271.65L702.74,267.74L712.63,260.63L717.52,267.52L714.45,252.45L707.48,262.48L694.57,271.57L689.51,275.51L685.68,288.68L687.04,294.04L676.53,301.53L669.67,311.67L660.58,321.58L652.14,333.14L648.78,340.78L653.53,347.53L653.54,357.54L662.50,356.50L667.37,361.37L672.33,361.33L676.49,371.49L677.71,379.71L682.58,380.58L687.53,384.53L686.47,392.47 M698.24,384.24L699.20,394.20L698.87,403.87L701.68,413.68L701.64,423.64L704.43,433.43L711.68,442.68L703.01,452.01L703.21,461.21L703.24,471.24L700.13,479.13 M696.24,475.24L696.27,465.27 M706.10,459.10L687.60,459.60L668.98,459.98 M686.57,506.57 M687.40,529.40L684.54,539.54L687.77,543.77L693.83,547.83 M694.20,539.20L694.26,529.26 M687.07,530.07L687.13,540.13 M708.39,528.39 M704.17,564.17 M706.70,564.70 M705.79,575.79L712.87,585.87 M724.84,591.84 M698.64,587.64L692.69,577.69 M554.83,611.83 M508.80,615.80L506.79,605.79 M496.42,550.42L492.34,540.34 M477.63,534.63 M463.76,537.76L462.67,531.67 M518.44,509.44 M517.88,479.88 M385.91,452.91L390.72,457.72L400.67,451.67L408.58,444.58L411.52,440.52L419.61,439.61L432.37,457.37L439.08,460.08L446.88,461.88L462.89,474.89L474.89,484.89L487.88,470.88L501.78,472.78L508.93,464.93L519.13,456.13L529.12,442.12L529.35,457.35L524.48,465.48L520.64,475.64L520.90,485.90L522.98,495.98L521.79,505.79L518.49,515.49L517.33,525.33L515.31,532.31L499.34,536.34L498.23,546.23L508.21,547.21L510.38,553.38L513.69,560.69L517.69,570.69L524.64,571.64L528.65,581.65L521.69,585.69L531.72,596.72L538.84,596.84L541.01,607.01L535.90,611.90L523.89,617.89L533.99,629.99L532.87,636.87L524.85,646.85L520.80,656.80L510.70,649.70L520.63,650.63L523.64,659.64L532.48,653.48L539.46,642.46L547.50,631.50L557.51,640.51L565.51,637.51L576.60,648.60L588.80,643.80L588.84,657.84L595.72,671.72L605.77,674.77L613.86,662.86L619.14,670.14L622.38,695.38L632.67,691.67L642.78,688.78L645.58,676.58L648.23,683.23L651.89,681.89L659.59,703.59L665.56,713.56L673.26,702.26L684.14,689.14L691.00,700.00L692.79,709.79L701.63,721.63L710.62,732.62L714.65,741.65L720.77,743.77L727.09,763.09L731.05,773.05L734.25,780.25L740.41,782.41L750.57,777.57L750.65,777.65L754.77,780.77 M742.88,771.88 M742.35,801.35 M724.63,802.63 M708.18,798.18L710.05,789.05 M708.77,792.77 M705.16,800.16 M707.12,804.12 M685.05,801.05 M666.03,801.03 M592.26,803.26 M584.60,801.60L574.78,801.78L582.19,795.19L585.47,787.47L585.56,777.56L571.59,784.59L560.35,781.35L551.25,774.25L545.18,766.18L539.19,775.19L535.41,785.41L525.39,789.39L518.33,787.33L515.41,781.41L508.67,775.67L496.87,773.87L489.72,779.72L477.50,784.50L477.45,773.45L474.49,772.49L470.34,770.34L465.25,773.25L455.25,772.25L451.27,764.27L441.24,761.24L448.02,764.02 M441.58,766.58L422.68,785.68L403.44,804.44 M421.57,803.57L440.35,784.35L459.53,765.53 M459.24,763.24L454.42,773.42 M498.24,766.24 M517.79,755.79 M490.23,737.23L485.40,722.40L475.46,712.46L465.37,699.37L461.32,689.32L462.38,679.38 M459.19,670.19 M448.23,661.23L454.23,664.23L460.06,685.06L468.93,698.93L471.86,711.86L478.80,704.80 M478.90,697.90L459.73,697.73L440.80,697.80L421.78,697.78L402.50,697.50 M401.59,705.59L420.53,705.53 M403.54,709.54 M403.55,717.55L422.60,717.60L441.83,717.83L460.66,717.66 M461.68,727.68L443.02,728.02 M449.88,714.88L441.06,695.06 M444.97,699.97L448.96,709.96 M452.27,710.27L448.08,724.08L443.99,712.99L437.97,706.97L431.89,698.89L427.78,683.78L420.61,666.61L410.55,666.55 M412.56,659.56L414.58,641.58L407.59,631.59L405.47,623.47L403.36,615.36L395.97,598.97L389.71,588.71L383.62,586.62L381.68,576.68 M384.59,584.59 M366.60,594.60 M363.03,601.03 M359.52,582.52L363.50,592.50L365.24,604.24L371.16,613.16L375.13,623.13L372.94,632.94L374.79,648.79L373.57,658.57 M384.67,669.67L403.77,669.77 M400.21,657.21L419.23,657.23 M421.01,662.01L421.05,649.05L409.26,635.26L402.65,626.65L395.01,612.01L387.27,619.27L388.31,608.31L375.31,592.31L355.45,597.45L345.57,589.57 M362.11,560.11L367.26,550.26L367.10,540.10L356.88,536.88L367.73,522.73L366.68,507.68L361.66,506.66L365.66,502.66L364.64,493.64L356.74,494.74L361.89,487.89L373.99,482.99L373.85,472.85L370.83,468.83L372.90,458.90L373.16,449.16L373.38,439.38L375.42,429.42L373.74,419.74L371.91,409.91L368.80,399.80L368.85,389.85 M383.69,374.69 M391.90,374.90L385.04,370.04L389.13,367.13L383.41,364.41L381.57,352.57L388.75,352.75L388.98,347.98L379.06,356.06L379.93,345.93 M364.55,345.55L345.56,345.56 M352.12,360.12L348.98,344.98L348.04,339.04L357.02,335.02L360.97,324.97L364.95,314.95L370.17,305.17L377.31,295.31L383.31,292.31L387.15,293.15L377.20,293.20 M397.76,293.76L412.03,285.03L410.31,278.31L415.31,267.31L413.30,257.30L421.41,247.41L417.32,237.32 M423.54,233.54 M420.33,230.33L439.55,211.55 M440.29,212.29 M434.39,214.39L436.35,224.35L443.55,228.55L442.70,238.70 M447.05,255.05L447.10,250.10L457.03,253.03L461.99,237.99L467.16,241.16L491.41,256.41L501.56,255.56L493.62,265.62L487.70,275.70L477.69,285.69L472.79,295.79L472.69,303.69L472.47,318.47L469.34,328.34L473.25,337.25L472.30,337.30L482.25,330.25L492.55,329.55L502.70,329.70L501.77,309.77L504.60,321.60L514.50,307.50L515.17,296.17L521.85,289.85L530.61,281.61L531.60,263.60L538.54,271.54L548.78,258.78L545.00,264.00L535.09,273.09L531.09,283.09L531.89,295.89L542.63,301.63L539.48,311.48L536.52,325.52L531.62,332.62L523.72,330.72L524.91,326.91L530.20,321.20L538.48,325.48L544.56,331.56L550.41,329.41L556.41,324.41L561.19,323.19L566.76,325.76L575.49,324.49L585.42,331.42L588.45,358.45 M587.41,358.41L588.52,348.52L587.44,341.44L586.56,333.56L600.74,321.74L607.76,311.76L615.78,300.78L624.80,290.80L637.53,280.53L646.12,271.12L644.10,273.10L633.92,277.92L624.19,288.19L609.38,293.38L599.38,305.38L601.19,287.19 M592.96,298.96L573.59,298.59 M593.10,270.10 M600.53,271.53L611.36,261.36L615.26,252.26L612.16,237.16L625.19,232.19L618.02,235.02L614.89,224.89L617.85,219.85L624.87,215.87 M616.24,212.24L618.36,207.36L624.34,197.34L632.37,190.37L640.42,180.42L646.35,170.35L651.03,160.03L654.97,144.97L640.05,139.05L650.92,132.92L644.98,124.98L649.87,114.87L650.74,104.74L643.61,100.61L633.56,104.56 M623.87,121.87L633.67,123.67L637.41,104.41L633.33,113.33L635.39,122.39L640.41,123.41L636.19,138.19L631.18,146.18L623.25,156.25L629.35,166.35 M630.16,165.16L611.14,165.14L592.09,165.09L572.80,164.80 M574.57,156.57L555.73,156.73 M555.29,147.29 M546.51,142.51L546.39,152.39 M536.61,166.61 M534.73,173.73L553.65,173.65L572.80,173.80L591.60,173.60L610.01,173.01L628.72,172.72 M638.26,148.26 M641.31,145.31L643.21,137.21L653.07,132.07L656.95,125.95L656.86,125.86L674.89,129.89L684.87,129.87L695.73,138.73L695.72,137.72 M712.30,147.30L697.09,148.09L679.72,145.72L673.68,143.68 M668.01,127.01 M632.52,129.52L613.70,129.70L594.49,129.49L575.52,129.52L556.21,129.21L536.86,128.86L517.53,128.53L498.28,128.28 M499.44,119.44 M500.50,111.50 M501.94,109.94L502.13,103.13L500.27,90.27L494.25,106.25L486.33,105.33L482.29,95.29L474.22,117.22L465.07,130.07L450.87,122.87L440.86,126.86L430.88,149.88L425.92,154.92L417.12,179.12L408.04,180.04L399.94,206.94L391.48,198.48L386.21,213.21L376.14,222.14L376.93,211.93 M384.02,213.02L402.96,212.96 M409.88,212.88L423.18,206.18L428.26,196.26L437.31,193.31 M442.94,179.94L454.67,174.67L452.65,164.65L458.60,156.60 M460.78,140.78 M460.08,137.08L441.47,156.47 M441.03,156.03L421.59,155.59L401.85,154.85L382.45,154.45 M382.69,145.69 M376.17,142.17 M385.74,138.74 M387.96,139.96L387.90,149.90L388.70,160.70L396.61,170.61 M405.04,168.04 M420.14,173.14 M422.70,185.70 M418.98,191.98L417.02,202.02L414.99,217.99 M398.97,228.97L392.05,221.05L404.98,217.98L394.79,216.79 M390.80,217.80L400.87,233.87 M404.42,243.42L423.32,243.32 M438.17,258.17 M438.24,267.24 M442.83,276.83L432.73,283.73 M421.50,288.50L402.30,288.30 M421.29,279.29 M421.14,326.14L439.53,325.53L457.88,324.88L476.48,324.48L495.36,324.36 M497.10,269.10L477.92,268.92 M515.40,202.40 M516.06,193.06L496.95,192.95 M499.86,191.86L505.74,181.74 M498.27,185.27 M497.12,174.12 M498.65,166.65L479.84,166.84L460.92,166.92L441.74,166.74 M442.02,148.02 M441.24,109.24 M447.96,95.96L441.07,91.07L442.01,77.01L446.95,66.95 M440.68,60.68L421.42,60.42 M434.46,71.46L437.52,61.52L446.45,51.45 M441.14,42.14 M436.98,45.98L436.07,38.07L438.12,51.12L436.07,40.07L427.16,48.16L418.12,46.12L417.91,61.91L404.70,64.70L392.54,54.54L387.63,46.63 M392.23,54.23L404.28,64.28 M402.81,70.81 M410.28,43.28L412.27,33.27 M423.54,15.54L442.36,15.36 M441.60,10.60L451.68,20.68L456.08,31.08L463.48,42.48L467.72,43.72 M475.27,48.27L480.43,39.43L470.56,34.56L462.73,24.73L457.93,14.93L456.14,5.14 M457.03,1.03L476.29,1.29 M463.31,3.31L474.55,13.55L483.74,10.74L493.90,8.90L495.96,6.96 M514.66,1.66L533.74,1.74L552.88,1.88 M553.94,4.94L550.01,15.01 M554.51,22.51L573.59,22.59 M574.67,23.67 M570.34,14.34L561.18,17.18L572.80,34.80L577.53,28.53L587.40,19.40L595.43,22.43L602.21,31.21L594.01,35.01L590.00,46.00L587.23,56.23L578.45,66.45L571.52,69.52L582.46,79.46L578.57,89.57L572.84,99.84L564.11,110.11L558.35,120.35L547.64,132.64L541.82,142.82L535.72,152.72L529.66,162.66L529.93,172.93L519.99,182.99L515.72,191.72 M532.26,186.26L537.30,178.30L540.44,168.44L552.68,159.68L554.62,145.62L553.49,158.49L543.56,169.56L533.74,184.74L528.84,169.84L519.82,179.82L515.80,162.80L512.87,173.87L522.01,178.01L521.98,167.98 M499.15,144.15L502.35,134.35L504.45,126.45L513.55,113.55L516.62,103.62L525.60,100.60L528.41,89.41L522.14,86.14L518.82,95.82L516.67,93.67 M515.87,88.87 M477.53,69.53L458.41,69.41 M455.40,60.40L452.51,53.51L454.59,43.59 M440.94,33.94L440.87,23.87 M441.53,23.53 M440.05,22.05 M434.29,4.29L444.44,4.44L454.55,6.55L468.57,10.57L478.51,17.51L488.41,17.41L502.38,9.38L512.34,10.34L522.27,6.27L533.41,7.41L531.36,9.36L532.30,19.30L541.06,30.06L544.85,39.85L537.53,44.53L539.29,56.29L535.43,58.43L539.47,71.47L536.43,75.43L537.47,93.47L532.47,103.47L522.12,113.12L512.91,123.91L514.94,133.94L501.10,146.10L483.98,150.98L495.00,153.00L487.98,165.98 M492.12,142.12L502.08,136.08L506.11,125.11L516.17,134.17 M498.27,137.27 M536.37,137.37 M572.53,138.53L572.38,148.38L567.47,141.47L572.47,146.47L586.35,125.35L596.22,123.22 M595.30,139.30 M593.74,147.74L612.85,147.85 M621.72,132.72L625.86,122.86 M631.88,137.88 M611.37,203.37 M593.03,232.03 M592.36,233.36 M599.05,241.05L600.90,250.90 M592.74,260.74L574.19,261.19 M581.82,241.82L580.84,240.84L571.78,224.78L563.61,221.61L553.62,228.62 M554.22,222.22 M563.45,227.45L566.44,217.44 M553.43,202.43 M555.59,185.59 M569.03,193.03L582.85,179.85L587.84,180.84L594.79,188.79L605.62,190.62L615.49,190.49L625.56,195.56L629.86,200.86L638.15,201.15L652.47,178.47L660.78,165.78L666.81,179.81L675.70,166.70L683.67,166.67L692.63,158.63L696.69,146.69L698.65,159.65L704.80,169.80L710.75,179.75L700.68,183.68L692.80,191.80L682.78,201.78L689.79,207.79L688.84,214.84L680.76,224.76L672.73,234.73L662.74,245.74L667.65,255.65L677.40,262.40L684.11,277.11L674.03,279.03L666.19,289.19L652.35,295.35L645.47,301.47L639.58,311.58L638.80,321.80L645.61,329.61L639.51,338.51L630.55,341.55L627.75,342.75L635.86,347.86L635.72,368.72 M630.61,355.61 M650.45,359.45L644.87,348.87L656.08,349.08L662.08,339.08 M669.06,339.06L671.96,351.96L686.15,347.15L696.44,341.44L695.74,357.74L703.83,330.83L713.85,322.85L722.95,321.95L732.97,315.97L725.87,324.87L736.75,330.75L728.66,337.66L717.64,345.64L718.62,351.62L724.77,359.77L724.00,372.00L715.17,379.17L719.28,383.28 M706.62,404.62L707.81,414.81L716.08,422.08 M678.75,352.75L676.60,356.60L663.39,350.39L657.26,345.26L658.25,355.25 M669.08,327.08L687.62,326.62 M668.72,317.72 M707.48,308.48 M709.32,293.32L719.13,289.13 M724.06,289.06 M726.71,280.71L707.51,280.51 M706.18,271.18 M706.25,241.25 M688.94,232.94 M687.25,233.25 M684.98,231.98L681.91,241.91 M677.71,249.71L670.82,239.82 M655.65,237.65L666.63,218.63L676.48,213.48L680.48,204.48L678.44,210.44L675.22,220.22L670.93,221.93L658.89,221.89L649.67,227.67L640.38,233.38L633.13,242.13 M628.20,250.20 M630.37,260.37 M630.27,262.27L631.14,272.14 M651.49,281.49 M669.21,223.21L688.09,223.09 M687.28,193.28 M723.95,194.95L712.01,205.01L722.08,208.08L723.18,217.18 M728.28,244.28L728.51,246.51L734.91,254.91L743.08,257.08L754.01,266.01L759.02,267.02 M751.90,273.90L741.85,266.85L734.89,272.89L730.09,267.09L736.24,257.24 M715.26,132.26L713.35,122.35 M724.51,118.51 M688.31,71.31 M687.55,68.55L678.73,58.73 M672.11,61.11L669.01,56.01 M688.48,42.48 M710.27,46.27L708.20,56.20 M747.99,54.99L751.98,53.98L762.07,61.07 M788.95,81.95L789.11,92.11L789.18,111.18 M802.65,3.65L802.51,13.51L802.55,23.55L802.40,33.40L802.25,43.25L802.31,53.31L802.25,63.25L802.22,73.22L802.25,83.25L802.16,93.16L802.14,103.14L802.17,113.17L802.09,123.09L801.85,132.85L801.57,142.57L801.49,152.49L801.67,162.67L801.85,172.85L802.01,183.01L802.16,193.16L802.43,203.43L802.29,213.29L802.24,223.24L802.32,233.32L802.55,243.55L802.67,253.67L802.54,263.54L802.38,273.38L802.38,283.38L802.46,293.46L802.51,303.51L802.39,313.39L802.22,323.22L801.92,332.92L801.59,342.59L801.45,352.45L801.36,362.36L801.20,372.20L801.23,382.23L801.45,392.45L801.49,402.49L801.48,412.48L801.31,422.31L801.27,432.27L801.33,442.33L801.59,452.59L801.84,462.84L802.24,473.24L802.57,483.57L802.81,493.81L802.99,503.99L802.96,513.96L802.78,523.78L802.69,533.69L802.68,543.68L802.50,553.50L802.66,563.66L802.63,573.63L802.63,583.63L802.63,593.63L802.64,603.64L802.69,613.69L802.79,623.79L802.79,633.79L802.61,643.61L802.73,653.73L803.01,664.01L803.14,674.14L803.17,684.17L803.25,694.25L803.34,704.34L803.26,714.26L803.26,724.26L803.09,734.09L802.77,743.77L802.60,753.60L802.31,763.31L801.87,772.87L801.56,782.56L801.25,792.25 M783.39,804.39 M762.88,802.88 M592.56,773.56 M576.18,770.18L586.16,760.16L592.19,752.19L580.13,751.13L577.05,741.05L579.98,728.98L571.97,718.97L579.02,712.02L580.15,702.15 M612.48,698.48 M555.41,669.41L536.12,669.12 M457.76,704.76 M403.62,726.62 M402.80,727.80L384.02,747.02L365.10,766.10L346.07,785.07L327.21,804.21 M338.77,795.77L332.76,795.76L314.74,797.74L311.70,790.70L310.68,781.68L301.50,769.50L305.52,767.52L304.84,757.84L317.07,749.07L316.15,742.15L317.21,737.21L309.95,733.95L310.68,723.68L304.59,714.59L308.78,707.78L301.85,701.85L308.98,693.98L303.12,689.12L296.18,686.18L292.14,676.14L288.20,666.20L288.03,657.03L284.78,646.78L277.66,633.66L265.54,634.54L258.56,624.56L252.72,611.72L236.88,613.88L235.01,611.01L232.10,612.10L240.10,611.10 M249.39,612.39 M252.00,613.00 M249.59,607.59L249.61,617.61L244.53,628.53 M234.05,630.05L233.91,639.91 M259.67,658.67L264.66,653.66L260.80,649.80L260.00,640.00L255.23,629.23L264.28,626.28 M268.14,658.14L286.85,657.85 M269.77,658.77L266.61,668.61L271.55,678.55L272.51,686.51L275.42,696.42L278.30,705.30L282.27,714.27L285.37,724.37L282.34,734.34 M289.18,728.18L307.87,708.87 M309.48,710.48L312.57,709.57L322.48,709.48L334.48,715.48L344.54,698.54L353.71,706.71 M351.00,713.00L341.97,702.97L353.06,699.06L347.12,694.12L333.03,682.03L317.95,676.95L317.89,666.89L313.78,661.78L312.49,652.49L306.70,649.70L315.66,648.66L327.46,641.46L315.29,637.29L297.36,639.36L300.49,629.49L288.73,622.73L295.97,612.97L320.09,611.09L305.92,612.92L293.83,608.83L287.70,598.70L286.45,588.45L280.08,578.08L279.82,567.82 M286.45,592.45 M289.72,593.72 M308.30,584.30 M329.69,633.69L328.83,643.83L323.24,655.24L327.43,665.43 M346.04,679.04 M332.22,693.22L332.31,703.31 M344.73,715.73L363.88,715.88 M363.37,716.37L361.23,726.23 M364.12,727.12L344.69,745.69L325.94,764.94 M326.83,763.83L307.94,763.94L288.98,763.98L270.14,764.14 M270.98,766.98 M282.88,767.88L278.89,764.89L281.07,755.07L277.26,749.26L274.29,739.29L272.24,729.24L269.41,719.41L265.64,710.64L261.67,700.67 M256.46,698.46L257.35,708.35L261.39,718.39L264.54,724.54L265.68,732.68L268.75,737.75L272.03,748.03L271.11,758.11L268.18,768.18L275.20,781.20 M267.14,787.14L254.91,769.91L251.78,759.78L241.93,746.93L233.78,749.78L222.73,759.73L215.66,758.66L207.50,752.50L194.55,746.55L184.54,741.54L175.61,745.61L159.79,735.79L154.95,731.95L146.95,718.95L142.99,708.99L147.78,705.78L161.66,700.66L158.66,688.66L160.61,679.61L154.72,670.72L144.85,666.85L134.94,659.94L135.07,667.07L131.09,661.09 M137.72,666.72L147.81,676.81L155.98,683.98 M155.78,678.78 M140.20,661.20L144.14,675.14L154.18,680.18L157.12,697.12L166.98,698.98L169.85,698.85L163.78,705.78 M167.13,709.13L147.18,715.18L142.21,717.21 M138.95,727.95 M131.92,741.92L134.16,757.16L136.24,770.24L144.36,781.36L151.53,788.53L157.70,793.70 M151.74,797.74L136.06,793.06L147.15,779.15L146.13,769.13L140.11,759.11 M140.10,764.10L139.01,774.01 M138.34,765.34 M158.31,755.31L163.02,737.02L145.83,736.83L143.73,730.73L155.67,729.67L141.81,722.81L136.01,720.01L126.06,720.06L125.88,720.88L127.67,701.67L135.68,698.68L128.61,699.61L116.56,694.56L115.64,689.64L105.60,692.60 M78.35,676.35L79.39,677.39L71.17,677.17L59.31,680.31L54.49,674.49L53.66,666.66L43.81,667.81L33.68,667.68 M42.40,669.40 M42.81,669.81 M39.52,676.52L58.70,676.70 M40.36,681.36L50.40,675.40L52.56,681.56L47.60,689.60L49.58,706.58L49.56,716.56 M43.36,708.36 M39.73,704.73 M38.95,704.95L40.95,714.95L45.79,719.79L55.61,716.61L52.54,710.54L63.55,718.55L73.50,723.50 M71.77,719.77L77.83,729.83 M70.11,735.11L64.22,726.22 M66.91,732.91L62.94,722.94L60.14,712.14L68.30,699.30L60.44,695.44L65.74,677.74L47.86,675.86L58.66,669.66L60.64,660.64L65.71,655.71L68.72,643.72L56.66,631.66L53.41,620.41L51.29,612.29L41.30,607.30L27.43,605.43L17.48,605.48 M15.24,605.24L10.17,615.17L12.16,625.16 M21.59,629.59 M23.09,631.09 M28.97,636.97L19.08,632.08L21.14,631.14L24.15,624.15L18.20,614.20L21.34,596.34L25.25,596.25L15.46,591.46L8.54,592.54L7.42,598.42L5.39,593.39 M4.05,593.05L22.89,592.89 M25.85,591.85L15.95,585.95L10.05,572.05 M45.80,561.80L44.67,550.67L43.63,540.63L46.86,536.86 M57.80,568.80L58.89,578.89L60.13,590.13 M62.89,575.89 M98.92,577.92L101.05,588.05 M135.50,574.50L133.66,584.66L138.93,588.93 M174.53,574.53L165.42,587.42L168.52,577.52L171.80,571.80L178.17,572.17L188.26,577.26L191.34,589.34L196.54,578.54L205.52,574.52L221.38,572.38L228.52,575.52L233.40,582.40L222.34,577.34L213.29,584.29L214.16,594.16L211.95,584.95 M209.72,576.72L200.78,566.78L195.92,564.92 M211.99,569.99L219.17,580.17 M225.06,569.06L234.99,556.99L231.77,546.77L224.71,536.71 M227.42,530.42L235.30,540.30 M249.80,544.80L268.73,544.73 M274.33,537.33L272.57,531.57L266.76,513.76L268.84,503.84L262.79,493.79L261.76,487.76L272.64,480.64L268.42,471.42L286.13,466.13L278.11,464.11L276.29,452.29L265.62,441.62L266.77,431.77L266.90,421.90L267.21,412.21L266.08,408.08L274.99,397.99L268.98,395.98L278.06,386.06L278.15,376.15 M286.90,372.90 M280.94,355.94L286.14,351.14L288.30,350.30L278.44,353.44L271.74,348.74L261.86,345.86 M302.18,343.18L307.26,327.26 M305.38,353.38 M307.83,364.83 M345.41,364.41L364.32,364.32L383.14,364.14L401.88,363.88L420.79,363.79 M384.11,232.11L364.83,231.83 M363.96,220.96L361.78,218.78L358.45,208.45L362.35,199.35L366.49,189.49L370.59,179.59L380.74,170.74L380.02,163.02L390.13,155.13L401.97,145.97L400.62,151.62L390.48,152.48L381.44,157.44L375.28,174.28L368.52,181.52L361.70,195.70L351.80,204.80L346.85,223.85L341.77,235.77L336.70,251.70L328.60,254.60L323.57,240.57L315.58,255.58L310.51,273.51L300.63,284.63L295.78,273.78L286.90,279.90L285.04,286.04L275.17,285.17L269.91,282.91L259.87,282.87L241.90,280.90L228.95,277.95L218.74,274.74L216.69,273.69L218.49,252.49L217.18,251.18L206.84,247.84L195.89,240.89 M191.23,260.23L177.04,257.04L165.90,257.90L155.87,257.87L160.01,255.01 M159.73,240.73L162.76,242.76L152.70,242.70 M146.12,226.12L143.35,209.35L146.47,208.47L136.49,209.49 M139.68,212.68L149.72,216.72L159.54,215.54L169.43,217.43L176.49,219.49 M184.99,182.99L169.29,173.29L166.45,170.45L156.55,171.55L154.68,161.68L144.47,163.47L136.19,163.19L126.07,161.07L116.01,159.01L120.97,152.97 M136.66,127.66L141.91,143.91L151.95,137.95L152.09,154.09L169.49,126.49L177.84,126.84L188.08,129.08L190.24,126.24L199.36,121.36L195.29,137.29L202.26,142.26 M196.02,139.02 M194.18,137.18 M184.03,131.03L175.92,117.92L177.82,107.82L175.82,93.82L176.96,83.96L166.90,90.90L161.66,80.66L164.55,72.55L152.43,68.43L153.42,56.42L143.66,56.66L151.99,65.99L145.04,56.04 M155.03,56.03L160.19,66.19L149.35,78.35 M155.78,70.78 M157.55,62.55 M156.69,61.69 M165.71,47.71L155.88,38.88 M159.87,34.87L169.94,44.94 M172.62,45.62L165.57,35.57 M162.09,32.09L160.89,41.89 M180.65,22.65L180.57,12.57 M172.10,1.10 M155.19,4.19L156.47,11.47L146.56,11.56L145.59,3.59 M116.43,50.43 M119.53,73.53L129.46,73.46L127.18,70.18L131.04,85.04 M163.69,83.69L176.48,80.48 M174.32,96.32L163.38,86.38L161.46,95.46L161.29,99.29 M174.36,98.36 M176.13,100.13 M183.73,111.73L182.50,110.50L172.58,115.58 M175.93,128.93 M209.18,129.18L199.43,133.43L209.61,130.61L220.92,126.92L227.29,123.29L228.43,121.43L223.55,133.55L224.72,135.72 M235.19,142.19L248.20,133.20L249.18,120.18L253.35,111.35L252.69,103.69L253.07,94.07L257.20,86.20L262.33,71.33L249.25,58.25L253.11,57.11L240.96,57.96L231.00,62.00 M240.56,70.56L238.41,80.41L239.41,90.41L231.19,100.19L222.76,100.76 M231.57,98.57 M232.23,99.23 M222.05,91.05L214.19,93.19L222.23,110.23L229.15,103.15L230.96,104.96L223.99,114.99L216.93,117.93 M207.01,103.01L219.90,90.90L217.84,77.84L223.88,73.88L224.95,62.95L239.03,55.03L232.99,40.99L235.83,30.83 M230.52,40.52L211.78,40.78 M203.59,45.59L206.85,55.85 M198.06,75.06L205.29,65.29L225.45,59.45L224.49,50.49L232.50,49.50L222.51,58.51L212.45,64.45L224.35,78.35 M211.80,87.80L223.71,88.71L233.72,98.72L236.65,73.65L248.52,73.52L254.70,67.70L260.73,78.73L269.00,71.00L275.23,77.23L279.29,62.29L290.31,73.31L292.21,78.21L282.07,90.07L276.95,99.95L278.86,112.86L273.89,122.89L268.87,136.87L258.73,146.73L260.72,155.72L253.82,158.82 M232.97,162.97L231.92,157.92L238.61,140.61L242.32,146.32L232.19,156.19L234.13,163.13L230.01,172.01 M200.02,170.02L200.93,153.93L197.72,155.72L183.30,150.30L175.87,150.87L165.57,146.57L150.43,136.43L146.20,129.20L137.93,134.93L137.90,124.90 M154.65,154.65 M161.37,161.37L173.33,168.33 M155.16,165.16 M144.26,175.26L154.22,175.22L149.42,187.42L147.63,194.63 M145.79,192.79L138.65,189.65 M62.97,184.97L66.79,181.79L50.59,180.59L40.44,175.44L31.30,169.30L33.40,159.40 M35.69,162.69L39.71,172.71 M48.20,184.20L38.22,183.22L34.22,163.22L22.30,171.30L12.29,160.29L2.28,160.28 M3.17,165.17 M1.54,167.54L11.68,167.68L15.03,169.03 M19.02,162.02L25.17,172.17 M24.16,176.16 M31.49,191.49L37.48,190.48L47.31,191.31L51.27,195.27L46.33,200.33 M43.27,195.27 M40.29,192.29 M32.80,198.80L42.84,198.84L52.84,204.84 M43.40,215.40L39.46,213.46L29.87,212.87L20.26,209.26L10.57,206.57L6.75,198.75L11.81,193.81 M3.74,193.74L22.98,174.98L42.26,156.26 M43.30,157.30 M37.36,154.36L27.27,151.27L17.30,139.30L15.51,124.51 M22.45,127.45 M21.03,134.03L29.20,134.20L36.46,144.46 M41.47,136.47 M40.78,135.78L30.69,135.69L25.72,133.72L15.97,128.97L7.12,116.12 M4.47,118.47 M1.97,115.97L21.34,97.34 M23.29,99.29 M24.72,100.72L16.63,85.63L6.61,77.61 M4.06,80.06 M4.80,80.80 M6.50,84.50L13.47,94.47L20.24,99.24L26.32,104.32L36.64,100.64L47.00,108.00 M41.55,108.55 M37.32,109.32L27.46,108.46 M28.98,95.98L19.22,86.22L7.56,76.56L5.69,66.69 M4.87,71.87 M1.58,54.58L11.82,49.82L20.16,59.16L22.35,66.35L37.33,66.33L47.44,63.44L61.78,60.78L63.97,57.97L64.07,68.07 M43.69,72.69 M25.88,62.88L11.84,56.84L13.84,46.84L18.89,37.89L9.90,31.90L15.98,24.98L14.93,14.93 M25.52,24.52L24.57,34.57 M23.99,33.99L5.03,34.03 M2.20,35.20L12.10,30.10L14.10,35.10L28.04,29.04L31.93,36.93 M15.69,38.69L5.70,39.70 M1.69,49.69 M2.27,2.27 M24.60,3.60L25.50,10.50L35.17,11.17L33.85,3.85 M45.50,21.50L45.46,31.46L54.41,29.41L56.14,34.14 M61.89,33.89 M67.82,37.82L67.90,27.90 M82.37,35.37L82.43,45.43 M63.33,99.33L62.42,109.42 M67.02,103.02L69.85,112.85 M44.59,149.59L40.49,135.49L39.48,126.48L37.67,128.67L27.60,122.60L17.67,116.67L5.03,112.03L10.11,111.11 M18.85,139.85L26.63,149.63 M22.32,146.32 M7.17,182.17L16.99,191.99L20.69,201.69 M22.35,203.35 M20.81,209.81L21.96,194.96L21.99,195.99L11.91,185.91L1.87,181.87 M3.54,184.54 M2.29,192.29 M9.75,207.75L5.51,217.51L9.50,220.50L19.47,218.47L29.31,222.31L39.32,223.32L49.06,237.06L47.99,246.99L47.81,259.81L52.54,271.54L46.51,276.51L51.63,281.63 M42.22,274.22L39.09,267.09L33.18,277.18 M36.53,272.53L28.55,256.55L15.48,248.48L5.58,238.58 M1.94,229.94 M5.39,248.39L9.42,258.42L12.17,268.17L19.91,271.91L16.64,281.64L18.43,296.43L13.61,306.61 M4.33,308.33L23.42,289.42L42.23,270.23 M42.10,270.10L22.73,269.73 M26.78,271.78L32.58,281.58L34.48,293.48L32.40,299.40 M41.17,298.17L22.23,298.23L3.42,298.42 M4.17,305.17L11.04,315.04L21.90,311.90L31.78,313.78L49.63,312.63 M48.46,315.46L50.50,300.50L41.86,303.86L33.93,294.93L21.87,294.87L14.98,293.98L10.13,284.13L4.91,273.91 M4.77,280.77L23.78,280.78 M23.23,278.23L22.15,280.15L27.43,273.43L30.53,287.53L38.45,297.45L48.26,299.26 M23.37,289.37L4.47,289.47 M3.75,284.75L5.69,294.69L12.96,305.96L10.11,300.11L10.26,315.26L20.35,318.35L29.50,322.50L31.67,321.67 M21.12,316.12 M25.44,333.44L35.35,339.35 M30.75,340.75L31.89,342.89L21.85,336.85 M20.70,352.70L24.66,347.66L15.65,350.65L5.63,349.63L3.48,337.48 M3.35,345.35 M4.83,346.83 M7.42,350.42L12.34,357.34 M3.78,355.78 M3.50,307.50 M4.21,251.21 M2.56,249.56 M31.68,229.68L34.44,228.44L44.30,234.30 M41.38,231.38 M41.41,241.41 M39.85,220.85 M23.35,213.35 M82.79,387.79L82.90,397.90L87.01,414.01L87.24,422.24L89.48,430.48L88.39,439.39 M83.05,444.05L85.52,434.52L84.90,424.90L84.10,415.10L88.23,405.23L87.46,395.46 M79.78,393.78 M81.20,404.20 M79.76,412.76 M77.79,419.79 M79.45,431.45 M78.80,439.80 M148.37,437.37L137.48,452.48L137.44,433.44L143.18,442.18L150.84,452.84L166.41,448.41L176.46,447.46L185.60,432.60L191.83,447.83L195.03,455.03L199.98,460.98L205.03,452.03L213.32,455.32L212.39,466.39L209.23,469.23 M212.61,459.61 M212.48,454.48L214.68,445.68L210.89,435.89 M217.66,439.66L216.03,436.03L215.44,426.44L218.83,422.83L221.02,413.02 M226.51,416.51L227.52,428.52 M247.13,452.13L250.17,462.17L252.07,466.07 M268.55,477.55 M289.61,465.61L288.55,475.55L285.48,475.48L286.73,479.73L279.16,485.16L271.27,486.27L273.26,498.26L278.27,507.27L279.34,517.34L271.36,527.36 M253.34,547.34L244.16,540.16L231.97,537.97L227.83,532.83L219.91,525.91 M239.24,517.24L240.23,527.23L242.45,549.45L242.44,559.44L237.35,569.35L231.40,575.40 M231.71,573.71 M202.40,586.40L198.37,575.37L178.14,565.14L173.06,562.06 M182.36,587.36L178.48,590.48 M194.81,517.81 M198.08,514.08L185.02,509.02L182.97,498.97 M169.88,459.88L168.63,449.63 M173.63,439.63 M168.34,426.34L163.38,429.38L151.44,433.44L153.27,423.27L155.90,430.90L163.90,425.90L176.72,432.72L189.71,434.71L188.71,442.71L182.76,446.76L192.99,453.99L175.88,455.88L180.66,460.66L186.47,453.47 M199.05,458.05L201.96,447.96 M149.62,460.62L148.83,450.83L140.13,448.13L141.03,438.03L146.84,428.84L152.80,418.80L148.79,417.79L145.67,407.67 M268.82,420.82 M268.87,420.87L287.74,420.74 M289.20,412.20L289.97,421.97L280.89,429.89L284.73,439.73L279.36,441.36 M271.00,442.00L289.65,441.65 M270.51,441.51 M271.46,433.46 M270.91,451.91 M327.13,519.13 M359.07,535.07L361.33,545.33L371.54,550.54L374.52,555.52 M383.75,630.75L365.02,631.02 M379.08,632.08L378.92,641.92 M383.45,632.45 M382.85,677.85 M372.58,677.58L378.54,687.54L382.51,697.51L382.56,707.56 M385.44,719.44L395.39,724.39L392.47,728.47 M383.91,735.91L402.50,735.50 M401.55,745.55 M383.71,754.71L364.59,754.59 M365.21,747.21 M379.12,755.12L376.13,764.13L381.16,761.16L385.07,775.07 M386.24,766.24L367.41,766.41 M371.72,772.72L376.69,762.69L381.11,753.11L366.38,738.38L369.52,732.52L365.68,728.68L356.77,716.77L349.64,716.64L340.62,721.62L329.65,724.65L319.75,729.75L313.67,725.67L303.65,710.65L297.50,695.50L289.37,694.37L294.26,690.26L299.27,697.27 M306.66,705.66 M307.42,716.42 M290.91,727.91L272.37,728.37 M268.55,726.55 M269.98,735.98L250.98,735.98 M247.40,729.40L245.40,719.40L242.59,709.59L231.62,696.62L228.39,686.39L221.08,685.08 M214.31,689.31L233.17,689.17 M230.27,688.27L249.74,669.74 M275.83,679.83L280.88,689.88L282.95,699.95L286.00,710.00L291.00,720.00L291.87,729.87L291.92,739.92L293.78,749.78L297.72,758.72 M289.17,759.17L286.12,764.12L290.11,762.11L300.90,770.90L309.68,762.68L319.70,763.70L322.50,750.50L330.20,757.20L347.13,758.13L355.25,762.25L357.38,781.38L365.47,786.47 M364.79,784.79L345.44,803.44 M344.74,800.74L363.76,800.76L383.06,801.06L402.25,801.25L421.38,801.38L440.50,801.50L459.30,801.30L477.91,800.91L496.77,800.77L515.85,800.85L534.68,800.68 M536.07,804.07 M555.57,774.57L536.73,774.73L517.61,774.61L498.53,774.53L479.45,774.45L460.18,774.18L440.90,773.90L421.48,773.48L402.36,773.36L383.62,773.62L364.89,773.89 M364.96,782.96L346.43,783.43L328.10,784.10L309.28,784.28 M326.33,784.33L307.20,803.20 M287.96,802.96 M286.86,792.86L288.87,782.87L289.83,786.83L275.76,775.76L275.78,764.78L264.82,741.82L258.83,725.83L245.76,742.76L235.63,734.63L243.56,718.56 M236.52,726.52L238.63,736.63 M231.14,746.14 M229.59,752.59L225.89,743.89L229.23,734.23L225.58,724.58L221.78,724.78 M219.31,720.31L221.32,730.32 M212.02,735.02 M213.31,745.31 M213.72,747.72 M214.22,751.22L212.91,740.91L209.65,730.65L197.34,713.34L199.22,703.22 M214.27,691.27 M212.73,681.73L209.83,691.83L217.09,700.09L212.16,710.16L203.17,715.17L198.37,724.37L201.26,726.26L204.22,736.22L206.22,746.22L208.27,756.27L214.31,761.31L219.32,774.32 M228.63,783.63L223.55,793.55L229.46,799.46 M231.61,803.61 M231.20,792.20 M245.80,785.80L234.70,773.70L233.74,761.74 M230.03,753.03L210.80,752.80L191.32,752.32 M194.88,747.88 M193.19,744.19L199.08,754.08L197.94,763.94L183.86,777.86L182.86,787.86L184.82,797.82 M191.39,799.39L189.72,790.72L186.91,780.91 M197.84,776.84L196.03,767.03L191.14,757.14L184.05,747.05 M181.01,744.01L183.04,747.04L189.83,765.83L199.73,774.73L201.72,792.72 M207.28,796.28L205.12,786.12 M192.23,802.23 M173.63,802.63 M155.89,803.89 M136.99,803.99 M115.57,801.57 M98.89,803.89 M81.58,805.58 M59.10,802.10 M59.16,800.16L39.77,799.77 M42.02,804.02 M21.89,802.89 M22.01,792.01 M9.31,781.31L10.26,771.26 M25.29,766.29L44.20,766.20L63.04,766.04 M60.89,765.89 M60.40,775.40L63.15,765.15L49.94,749.94L39.80,742.80 M40.50,734.50 M40.47,734.47L50.67,738.67L47.75,748.75 M55.68,745.68L49.77,735.77 M32.82,729.82L26.89,727.89L28.98,717.98 M17.32,725.32L14.32,715.32 M10.72,711.72L8.75,721.75L8.74,731.74 M20.74,695.74L40.00,696.00L59.53,696.53 M63.58,703.58L56.17,697.17L39.83,681.83 M41.37,687.37 M42.38,688.38 M32.70,686.70L38.56,685.56L34.23,676.23L24.95,660.95L32.65,653.65L22.23,651.23L16.04,652.04 M22.91,659.91 M1.57,676.57 M22.78,621.78L41.46,621.46 M44.39,627.39L47.09,626.09L37.94,635.94L28.04,629.04L18.19,616.19 M41.18,611.18 M56.55,644.55L58.49,648.49L58.46,657.46L67.30,663.30L77.10,661.10L73.20,662.20 M39.89,756.89L49.83,756.83L60.03,763.03L68.15,775.15 M48.25,776.25L43.35,766.35L49.32,764.32 M43.03,765.03 M41.39,765.39 M38.77,757.77L38.67,767.67L44.04,778.04 M42.89,774.89 M2.37,801.37L12.46,801.46L22.60,801.60L32.64,801.64L42.73,797.73L52.88,801.88L62.80,800.80L72.91,801.91L82.91,801.91L92.73,801.73L102.74,801.74L112.70,801.70L122.80,801.80L132.96,801.96L137.21,794.21L145.27,795.27L155.13,794.13L165.15,800.15L175.10,801.10L183.99,799.99L195.80,801.80L204.87,800.87L213.93,801.93L222.86,796.86L232.76,801.76L242.94,794.94L250.79,789.79L260.72,787.72L273.72,801.72L283.63,798.63L294.62,801.62L304.61,800.61L314.78,795.78L327.84,800.84L332.82,800.82L341.77,795.77L354.85,794.85L363.96,792.96L364.03,797.03 M364.21,803.21 M326.03,754.03L306.87,753.87 M327.29,726.29L346.09,726.09L364.94,725.94 M364.29,708.29L345.08,727.08 M364.84,706.84 M271.69,704.69L264.79,694.79 M253.04,711.04L235.08,718.08L228.13,691.13L216.07,718.07L216.02,688.02L225.11,678.11L221.03,682.03L240.78,680.78L251.71,684.71L252.79,681.79L253.91,691.91L248.81,695.81L239.69,703.69L234.52,705.52L236.43,715.43L241.36,725.36L250.48,728.48L247.45,738.45L243.54,754.54L241.57,755.57L251.54,739.54L249.63,749.63L251.75,759.75L261.66,770.66L265.39,780.39L270.31,790.31 M268.45,791.45L287.96,791.96 M288.32,784.32L269.24,803.24 M268.63,800.63 M265.25,799.25L262.26,789.26L259.14,779.14L255.91,768.91L258.78,758.78L254.93,748.93 M250.13,744.13L269.40,744.40 M255.44,801.44L245.54,798.54L242.52,790.52L239.55,782.55L240.49,768.49L233.19,763.19L224.96,754.96L233.01,751.01L229.10,741.10L227.27,734.27L216.38,740.38L204.61,720.61L201.79,731.79L190.00,721.00L179.27,716.27L168.46,715.46L169.60,723.60L170.72,722.72L177.61,712.61 M175.53,707.53L165.71,717.71 M172.41,714.41 M173.21,705.21 M155.10,727.10 M193.71,763.71 M214.95,805.95 M249.49,802.49 M4.18,804.18 M571.62,793.62L575.63,783.63 M573.19,801.19 M573.53,803.53 M555.10,242.10 M459.21,193.21L440.43,193.43L421.63,193.63 M382.53,202.53 M365.99,209.99L372.98,199.98L376.06,190.06L380.15,182.15L384.02,191.02L374.02,196.02L369.17,204.17L362.30,215.30L347.23,212.23L345.99,198.99L341.87,210.87L331.69,216.69L322.49,220.49L320.41,231.41L310.62,233.62L297.76,229.76L293.01,231.01L286.42,245.42L272.64,259.64L261.51,256.51L248.51,257.51L237.59,252.59L227.70,253.70L239.57,252.57 M242.87,274.87L243.07,285.07 M231.43,279.43 M271.35,258.35L280.25,253.25L292.08,247.08L288.81,237.81L294.62,228.62L295.89,220.89L300.96,212.96L308.86,211.86L302.79,206.79L312.73,196.73L312.92,189.92L320.45,185.45L326.87,182.87L334.08,170.08L339.08,158.08L336.21,151.21L336.21,141.21L340.21,133.21L344.24,122.24L358.31,128.31L354.32,121.32L341.49,132.49L332.69,138.69L326.72,132.72L316.88,131.88L310.92,136.92L304.03,158.03L292.84,186.84L287.40,190.40L268.10,190.10L265.23,189.23L255.22,201.22L246.07,207.07L235.85,213.85L237.67,209.67 M231.40,231.40 M326.33,203.33 M346.08,223.08 M386.35,225.35 M327.67,137.67 M326.00,136.00 M270.76,137.76 M268.87,135.87 M262.17,137.17L266.16,127.16L268.15,117.15L271.15,107.15 M269.80,117.80 M270.04,118.04 M267.90,76.90L282.01,67.01L276.21,64.21L274.38,54.38 M281.92,43.92L280.88,40.88L282.96,32.96L286.84,30.84L279.81,39.81L271.78,39.78L261.79,36.79L260.78,30.78 M269.42,41.42 M269.97,41.97 M250.59,40.59L256.67,50.67L266.85,49.85L274.80,58.80L267.58,62.58L269.26,72.26 M296.26,70.26L297.24,61.24L298.57,54.57L296.77,47.77L306.83,41.83L309.99,31.99 M364.89,32.89 M382.42,2.42 M477.06,40.06 M480.10,43.10 M479.54,52.54 M468.00,85.00L464.08,95.08 M420.87,97.87 M525.25,14.25L523.22,4.22 M538.92,5.92L540.94,15.94L544.04,26.04L549.23,30.23L553.35,39.35L553.26,49.26 M575.37,53.37 M590.55,30.55 M555.32,23.32 M660.87,2.87L660.93,5.93L670.93,10.93L684.07,4.07"/></svg>