<?xml version="1.0" standalone="no"?><!DOCTYPE svg PUBLIC "-//W3C//DTD SVG 1.1//EN" "http://www.w3.org/Graphics/SVG/1.1/DTD/svg11.dtd"><svg xmlns="http://www.w3.org/2000/svg" style="position: fixed; background: white;" width="800" height="800" viewBox="0 0 800 800"><path style="stroke-width: 2px; fill: none; stroke: black" d=" M795.53,803.53 M785.64,804.64 M781.29,811.29 M764.78,805.78 M750.48,802.48 M741.95,804.95 M734.08,808.08 M721.09,806.09 M718.56,801.56 M709.46,805.46 M696.54,803.54 M684.78,802.78 M673.03,802.03 M662.46,802.46 M652.63,803.63 M645.07,807.07 M633.39,806.39 M626.26,810.26 M620.37,796.37 M610.42,805.42 M596.50,802.50 M593.47,810.47 M577.60,805.60 M566.32,805.32 M554.91,804.91 M554.62,796.62 M555.27,794.27L544.22,805.22 M533.58,805.58 M526.11,809.11 M513.32,807.32 M504.26,809.26 M485.51,801.51 M477.14,804.14 M469.51,807.51 M460.90,809.90 M456.98,797.98 M446.17,806.17 M434.45,805.45 M424.45,798.45 M422.07,804.07 M416.83,809.83 M401.19,805.19 M390.50,805.50 M381.62,807.62 M369.32,806.32 M356.29,804.29 M345.18,804.18 M334.18,804.18 M336.36,793.36 M334.10,785.10 M328.52,768.52 M348.91,755.91 M382.22,767.22 M400.11,749.11 M391.16,729.16 M391.25,727.25 M415.22,712.22 M423.93,728.93 M426.05,729.05 M422.25,730.25 M435.31,688.31 M457.40,674.40 M456.62,671.62 M446.38,650.38 M443.73,641.73 M438.36,625.36 M426.25,608.25 M425.56,598.56 M421.36,597.36 M422.41,593.41 M412.41,585.41 M412.37,583.37 M416.16,576.16 M411.89,573.89 M409.21,574.21 M400.90,554.90 M408.37,540.37L419.76,540.76L431.96,541.96L443.93,542.93L455.72,543.72L467.52,544.52L479.41,545.41 M477.97,549.97L466.62,549.62 M466.82,540.82L477.52,529.52L487.84,517.84L498.71,506.71 M500.79,506.79L490.20,507.20L479.13,507.13L468.41,507.41 M465.73,506.73 M469.78,513.78L480.31,513.31L490.75,512.75L500.96,511.96 M496.48,515.48 M490.76,509.76L479.87,520.87L469.28,532.28 M470.16,531.16L480.41,530.41L489.87,528.87 M479.90,523.90L468.58,523.58 M469.51,519.51L480.01,519.01 M476.34,506.34L465.37,517.37 M450.41,527.41 M449.28,532.28 M444.06,538.06 M434.06,541.06L423.20,552.20 M424.11,551.11L435.32,551.32 M423.51,555.51L434.25,555.25L444.70,554.70L455.63,554.63L467.16,555.16L478.94,555.94 M469.68,563.68L459.09,564.09L449.02,565.02L438.43,565.43 M434.46,566.46L445.40,566.40L457.03,567.03L468.07,567.07 M466.07,562.07 M456.75,563.75 M444.65,562.65 M447.81,554.81 M444.93,576.93 M445.85,583.85 M444.27,584.27 M442.95,585.95 M456.24,599.24 M457.16,606.16 M458.67,609.67 M456.60,610.60 M469.11,623.11 M468.08,628.08 M466.56,628.56 M468.64,633.64 M477.14,642.14 M478.93,649.93 M475.42,651.42 M480.44,653.44 M488.69,664.69 M487.66,671.66 M486.73,673.73 M490.93,672.93 M496.74,689.74 M503.09,690.09 M502.40,697.40 M502.70,700.70 M512.05,710.05 M510.24,716.24 M513.42,717.42 M514.58,723.58 M520.74,729.74 M522.86,737.86 M524.21,741.21 M531.61,757.61 M535.78,755.78 M544.12,775.12 M547.90,775.90 M565.85,758.85 M566.99,753.99 M553.03,735.03 M556.02,732.02 M547.23,718.23 M545.78,718.78 M542.75,718.75 M543.05,708.05 M536.33,701.33 M535.56,697.56 M532.98,692.98 M524.26,675.26 M520.94,674.94 M523.07,672.07 M513.43,653.43 M509.45,652.45 M510.38,648.38 M502.99,634.99 M504.51,633.51 M502.15,629.15 M488.51,615.51 M489.22,610.22 M490.38,606.38 M485.48,603.48 M477.33,595.33 M477.22,593.22 M478.02,588.02 M499.98,582.98 M498.65,575.65 M514.28,591.28 M511.24,594.24 M511.06,596.06 M514.43,602.43 M521.81,615.81 M519.94,618.94 M523.25,619.25 M533.24,632.24 M532.30,637.30 M532.67,639.67 M533.93,643.93 M544.63,654.63 M545.92,661.92 M545.34,663.34 M555.35,673.35 M556.27,677.27 M550.64,677.64 M553.86,682.86 M566.22,693.22 M566.55,695.55 M567.10,699.10 M576.54,716.54 M581.15,719.15 M578.69,721.69 M587.26,736.26 M589.78,743.78 M598.89,752.89 M600.11,760.11 M599.23,761.23 M613.46,778.46 M634.81,766.81 M635.86,762.86 M633.03,762.03 M632.63,753.63 M625.13,746.13 M645.14,728.14 M641.32,718.32 M630.49,707.49 M631.34,705.34 M621.24,687.24 M612.31,675.31 M611.66,672.66 M610.22,665.22 M602.65,654.65 M598.63,653.63 M596.42,646.42 M591.06,632.06 M588.72,632.72 M577.24,616.24 M575.38,608.38 M570.95,603.95 M568.78,598.78 M567.51,595.51 M568.02,590.02 M570.19,587.19 M575.38,575.38L586.10,575.10L597.25,575.25L608.66,575.66L620.09,576.09L630.88,575.88L642.39,576.39 M645.18,574.18L634.02,574.02L622.59,573.59L611.46,573.46L601.07,574.07L591.02,575.02L579.91,574.91 M578.94,564.94L589.97,553.97L601.23,543.23 M597.96,537.96L609.09,538.09 M615.76,527.76L604.56,527.56L592.88,526.88L581.90,526.90L571.61,527.61L560.70,527.70L548.71,526.71L536.63,525.63L525.06,525.06L513.70,524.70L502.29,524.29 M505.23,522.23 M508.08,525.08L519.24,525.24L530.67,525.67L541.93,525.93L553.55,526.55L565.24,527.24 M566.79,530.79L555.86,541.86 M554.19,549.19L565.64,549.64L577.51,550.51L588.70,550.70L599.30,550.30L610.15,550.15L621.58,550.58L633.26,551.26L643.77,550.77L653.31,549.31L664.06,549.06L675.35,549.35L686.37,549.37L697.44,549.44 M699.40,556.40L688.46,556.46 M688.12,553.12L699.53,542.53L709.82,530.82L720.41,519.41 M719.60,516.60L707.55,515.55L695.99,514.99 M699.02,520.02L687.33,530.33L675.51,540.51L664.19,551.19L653.54,562.54 M651.50,563.50L640.91,563.91L630.52,564.52L620.43,565.43L610.39,566.39L600.03,567.03L590.16,568.16L580.30,569.30L570.45,570.45L559.72,570.72 M555.93,563.93L566.86,552.86L578.07,542.07 M577.53,539.53L566.90,539.90 M565.39,540.39L554.06,551.06 M546.66,563.66L557.62,563.62L567.40,562.40L577.38,561.38L587.87,560.87L598.86,560.86L610.53,561.53L621.78,561.78L633.51,562.51L645.59,563.59L657.25,564.25 M665.04,574.04 M666.11,578.11 M668.49,586.49 M668.27,588.27 M675.34,595.34 M677.25,595.25 M676.98,599.98 M688.10,611.10 M691.51,620.51 M695.84,624.84 M696.33,627.33 M700.13,634.13 M711.94,645.94 M711.54,653.54 M711.35,656.35 M714.83,654.83 M720.72,660.72 M722.98,664.98 M723.24,668.24 M729.99,680.99 M733.42,686.42 M746.56,702.56 M721.54,710.54 M711.64,700.64 M709.45,695.45 M709.76,693.76 M708.14,686.14 M699.73,674.73 M697.84,675.84 M693.52,660.52 M687.31,660.31 M678.00,645.00 M676.55,640.55 M677.73,639.73 M668.48,624.48 M666.45,619.45 M665.14,616.14 M662.67,624.67 M658.02,609.02 M654.89,607.89 M652.28,608.28 M653.91,598.91 M647.49,598.49 M644.51,589.51 M643.59,585.59 M644.84,584.84 M622.92,584.92L611.53,584.53L600.58,584.58L589.11,584.11 M587.01,584.01L597.72,572.72L609.35,562.35L620.47,551.47 M601.75,554.75L590.64,565.64 M589.88,575.88L600.95,564.95 M611.81,575.81L623.23,565.23L634.30,554.30L645.48,543.48 M643.67,539.67L654.36,539.36L664.10,538.10L674.57,537.57L685.96,537.96L697.89,538.89L708.96,538.96 M711.49,535.49L699.98,534.98L688.49,534.49L677.18,534.18L665.91,533.91L655.09,534.09L644.37,534.37L633.46,534.46L622.50,534.50L611.55,534.55L600.86,534.86L590.02,535.02L579.03,535.03L568.12,535.12L557.46,535.46L546.41,535.41L534.76,534.76L523.66,534.66L512.93,534.93L502.37,535.37 M509.90,537.90L520.73,537.73L532.64,538.64 M531.30,539.30L519.91,549.91 M520.34,548.34L531.78,548.78 M532.10,551.10L543.19,540.19L554.23,529.23 M556.24,518.24L545.26,518.26L533.43,517.43L522.66,517.66 M524.37,521.37L513.89,532.89 M523.13,531.13 M523.12,542.12 M510.61,543.61L522.44,544.44L534.08,545.08L545.34,545.34L556.61,545.61L568.00,546.00L579.25,546.25L589.76,545.76L600.35,545.35L610.94,544.94L621.95,544.95L632.56,544.56L643.13,544.13L653.88,543.88L664.65,543.65L675.65,543.65L686.99,543.99L697.91,543.91L709.07,544.07L720.62,544.62 M713.76,545.76 M720.01,552.01L709.08,563.08 M711.53,568.53 M710.62,573.62 M709.55,574.55 M700.03,563.03 M692.76,571.76 M688.32,575.32 M691.42,581.42 M697.06,593.06 M701.80,591.80 M710.49,608.49 M709.66,610.66 M716.16,623.16 M723.37,624.37 M732.17,641.17 M733.78,640.78 M732.06,644.06 M743.48,655.48 M744.64,623.64 M742.49,618.49 M743.31,617.31 M739.06,607.06 M733.07,607.07 M729.63,597.63 M721.69,589.69 M721.22,586.22 M721.51,584.51 M734.31,569.31 M732.41,564.41 M720.54,555.54 M721.72,551.72 M733.77,535.77 M731.81,530.81 M732.94,529.94 M722.48,524.48L711.65,524.65L700.39,524.39L688.78,523.78L676.67,522.67L664.83,521.83L653.55,521.55L642.43,521.43 M634.68,530.68L623.86,530.86 M609.53,510.53L620.77,510.77L631.93,510.93L642.97,510.97L653.98,510.98L664.55,510.55L675.55,510.55L686.53,510.53L697.59,510.59L708.96,510.96L720.54,511.54 M711.64,521.64L700.71,532.71L688.97,542.97L677.18,553.18 M668.45,558.45L657.37,558.37L646.01,558.01L635.28,558.28L623.78,557.78L612.51,557.51L600.85,556.85L588.67,555.67L576.58,554.58L565.47,554.47L554.78,554.78L543.93,554.93L533.22,555.22L522.54,555.54 M534.78,567.78 M531.11,575.11 M532.28,584.28 M535.75,585.75 M535.31,590.31 M547.19,602.19 M547.25,608.25 M545.89,608.89 M543.02,609.02 M555.40,621.40 M556.59,628.59 M555.09,632.09 M558.85,632.85 M564.26,636.26 M566.14,640.14 M569.58,646.58 M565.37,648.37 M576.43,661.43 M578.27,661.27 M577.26,665.26 M588.07,682.07 M587.75,683.75 M593.08,692.08 M600.71,705.71 M604.63,711.63 M608.56,715.56 M612.16,717.16 M610.16,720.16 M651.92,695.92 M656.64,695.64 M645.07,684.07 M645.59,678.59 M645.33,675.33 M634.77,662.77 M629.20,651.20 M624.65,646.65 M619.20,636.20 M614.10,625.10 M610.33,618.33 M608.49,614.49 M599.84,607.84 M598.69,609.69 M598.66,604.66 M601.06,601.06 M600.68,597.68 M590.82,590.82 M620.31,587.31 M620.75,584.75L631.57,573.57L642.57,562.57L653.95,551.95L665.81,541.81L677.70,531.70 M677.57,529.57L666.64,529.64L655.94,529.94 M654.51,541.51L642.81,551.81L631.57,562.57L620.66,573.66 M623.10,596.10 M624.10,599.10 M623.51,601.51 M630.11,605.11 M635.60,608.60 M633.47,611.47 M631.11,615.11 M641.53,625.53 M642.32,628.32 M642.67,631.67 M656.30,645.30 M654.01,649.01 M655.94,655.94 M659.02,656.02 M663.23,658.23 M663.95,660.95 M665.39,665.39 M663.05,669.05 M674.25,680.25 M677.21,685.21 M678.51,689.51 M688.55,699.55 M684.07,703.07 M690.66,707.66 M696.10,718.10 M699.69,727.69 M708.99,736.99 M708.80,738.80 M711.83,744.83 M718.51,757.51 M731.84,775.84 M707.48,784.48 M694.98,766.98 M689.83,755.83 M689.69,752.69 M690.44,751.44 M678.98,733.98 M673.44,725.44 M667.11,717.11 M664.40,716.40 M667.28,711.28 M656.84,744.84 M665.39,759.39 M667.89,763.89 M666.44,765.44 M674.84,781.84 M673.63,783.63 M678.27,783.27 M643.57,781.57 M585.52,794.52 M580.69,778.69 M574.68,778.68 M732.84,732.84 M733.47,728.47 M743.64,743.64 M742.95,577.95 M744.61,546.61 M740.75,539.75 M741.71,516.71 M743.97,512.97 M746.42,512.42 M734.47,498.47 M731.67,497.67 M730.00,499.00 M722.37,491.37L710.53,490.53L698.90,489.90L687.64,489.64L676.86,489.86L665.60,489.60L654.36,489.36L642.80,488.80L631.17,488.17L619.31,487.31L607.66,486.66 M634.83,480.83 M654.17,484.17 M656.65,480.65 M655.59,468.59L666.85,468.85 M669.48,460.48L679.86,459.86 M670.01,450.01 M667.30,436.30L678.35,436.35L689.52,436.52L701.05,437.05L713.13,438.13L725.68,439.68L736.27,439.27 M734.72,443.72L723.28,443.28 M723.31,445.31L733.89,433.89 M731.67,429.67 M742.14,423.14 M733.92,411.92 M731.32,412.32 M721.69,402.69L710.99,402.99L700.34,403.34L688.53,402.53L676.68,401.68L665.03,401.03L654.34,401.34 M655.40,413.40 M658.00,427.00 M678.67,414.67L690.10,415.10L700.36,414.36L710.55,413.55 M709.53,418.53 M709.22,407.22 M719.89,397.89L730.60,386.60 M733.05,387.05 M733.23,392.23 M741.76,400.76 M746.01,383.01 M731.99,365.99 M730.83,362.83 M731.42,357.42 M743.26,353.26 M743.78,347.78 M736.10,340.10 M736.76,337.76 M735.85,334.85 M742.87,324.87 M731.82,308.82 M733.36,304.36 M740.32,295.32 M723.73,289.73 M722.63,282.63 M709.52,291.52 M707.88,295.88 M701.44,305.44 M698.81,308.81 M693.65,319.65 M688.08,320.08 M688.78,322.78 M689.23,326.23 M678.17,332.17 M668.50,344.50L656.79,343.79L645.28,343.28L634.21,343.21L623.28,343.28L611.59,342.59 M608.86,330.86 M601.56,326.56 M601.39,323.39L590.72,334.72 M578.40,331.40L567.50,331.50L556.42,331.42L545.43,331.43 M547.90,327.90L536.18,327.18L524.88,326.88L514.02,327.02L503.72,327.72 M500.05,332.05L510.91,320.91L522.72,310.72 M523.30,309.30 M523.55,314.55 M512.66,320.66L501.10,320.10L489.78,319.78 M494.21,318.21L482.77,317.77L470.93,316.93L459.73,316.73L448.64,316.64L438.02,317.02 M437.96,311.96 M442.65,310.65 M447.38,299.38 M449.76,295.76 M444.47,290.47L433.04,301.04 M431.68,299.68 M415.83,294.83 M411.99,290.99 M412.38,286.38 M425.75,271.75 M435.12,254.12 M435.37,248.37 M445.81,236.81 M445.52,236.52 M458.13,222.13 M475.64,228.64 M477.80,235.80 M480.02,238.02 M479.28,243.28 M467.58,253.58 M465.93,256.93 M467.58,258.58L456.25,269.25 M458.73,271.73 M453.27,272.27 M446.71,287.71 M468.14,298.14 M467.22,302.22 M468.32,303.32L457.12,314.12 M466.70,312.70 M468.74,320.74L458.63,321.63L448.03,322.03L437.03,322.03 M425.79,326.79L436.86,326.86L448.75,327.75L459.71,327.71L469.63,326.63L480.17,326.17 M481.13,316.13 M487.73,311.73L499.22,301.22 M497.15,299.15 M496.68,293.68 M494.03,274.03 M491.09,271.09 M502.52,260.52 M502.53,255.53 M500.25,247.25 M511.25,242.25 M510.53,235.53 M510.13,235.13L521.21,224.21 M522.10,220.10 M521.21,213.21 M531.45,207.45 M536.65,206.65 M530.39,200.39 M529.53,194.53 M544.52,187.52 M550.09,187.09 M557.47,172.47 M557.54,167.54 M553.55,168.55L564.72,157.72 M567.61,160.61 M569.38,157.38 M565.25,147.25 M577.43,137.43 M578.53,138.53 M590.64,123.64 M608.35,135.35 M608.76,141.76 M600.44,155.44 M597.57,157.57 M603.71,163.71L592.60,174.60 M591.13,173.13 M578.14,188.14 M576.04,191.04 M582.08,197.08L570.96,207.96L559.98,218.98 M554.00,213.00 M566.40,203.40 M568.67,200.67 M587.29,213.29 M590.35,222.35 M579.58,227.58 M576.64,232.64L566.47,244.47 M565.27,246.27 M567.68,254.68 M557.89,260.89 M554.10,263.10 M544.28,275.28 M542.34,278.34 M546.06,279.06 M534.74,292.74 M532.97,296.97 M554.48,301.48 M555.83,308.83 M543.90,318.90 M554.80,331.80 M566.29,332.29L555.51,343.51 M555.91,352.91 M555.65,354.65 M557.42,370.42L568.54,370.54L580.01,371.01L590.46,370.46L600.19,369.19L610.77,368.77L620.66,367.66 M620.06,378.06L609.25,378.25 M610.62,363.62 M612.51,356.51 M620.72,356.72L609.40,356.40L598.70,356.70L587.20,356.20L576.16,356.16L564.69,355.69L552.94,354.94L540.84,353.84L529.47,353.47 M538.20,357.20 M538.44,340.44L548.97,339.97L559.12,339.12L568.75,337.75L577.97,335.97L587.76,334.76L597.79,333.79L607.82,332.82L618.25,332.25L629.39,332.39L641.04,333.04 M642.64,342.64 M631.47,342.47L620.67,353.67 M630.03,350.03 M641.32,355.32L652.19,355.19L662.21,354.21L672.95,353.95L684.68,354.68 M689.17,348.17 M675.20,351.20L664.64,351.64 M665.04,346.04L654.01,346.01L643.18,346.18L632.99,346.99L623.24,348.24L613.02,349.02L602.39,349.39L590.67,348.67L580.31,349.31L569.17,349.17L558.08,349.08L547.25,349.25L536.48,349.48L525.20,349.20L514.21,349.21L503.79,349.79L494.03,351.03L483.81,351.81 M487.65,350.65 M488.60,356.60L500.04,357.04L511.41,357.41 M509.95,350.95 M502.91,343.91L492.62,344.62L482.49,345.49 M469.34,337.34L480.05,337.05L490.12,336.12L500.24,335.24L510.89,334.89 M521.92,329.92L511.53,330.53L500.76,330.76L489.65,330.65 M501.44,322.44 M523.61,342.61 M524.62,370.62L514.06,371.06L502.80,370.80L490.90,369.90L479.24,369.24 M487.84,377.84L498.92,377.92L509.56,377.56L520.69,377.69 M514.75,377.75L504.35,378.35 M500.45,387.45 M500.56,396.56L511.33,396.33L521.69,395.69 M522.32,390.32L511.51,390.51L500.47,390.47L489.38,390.38L478.01,390.01 M485.68,381.68L497.16,382.16L509.03,383.03L520.68,383.68 M525.55,390.55L515.17,402.17 M521.68,406.68L510.47,406.47L499.53,406.53 M501.19,399.19 M513.65,411.65 M522.24,412.24L510.45,411.45L499.73,411.73L489.58,412.58L479.34,413.34 M479.46,402.46L490.67,402.67L501.75,402.75L512.94,402.94L524.70,403.70L536.08,404.08 M522.01,409.01 M524.31,420.31L513.93,420.93 M521.22,428.22 M524.93,425.93L515.22,427.22L504.61,427.61 M512.93,435.93L524.26,436.26 M524.94,447.94L514.07,448.07 M513.64,442.64 M519.49,453.49 M527.16,472.16L515.12,471.12L503.47,470.47L492.24,470.24L481.29,470.29L469.72,469.72L457.67,468.67L445.87,467.87L434.47,467.47L423.25,467.25 M432.80,462.80 M433.80,461.80L444.65,461.65L455.03,461.03 M455.02,455.02L443.68,454.68L432.94,454.94L421.23,454.23L409.56,453.56L398.12,453.12L386.98,452.98L375.31,452.31 M377.16,451.16 M377.29,462.29L366.93,473.93L355.47,484.47 M354.52,481.52L366.19,482.19L377.82,482.82L389.25,483.25 M390.67,486.67 M392.43,480.43L381.82,480.82L369.62,479.62L357.44,478.44L345.51,477.51L333.91,476.91L322.29,476.29L311.07,476.07L299.99,475.99L289.36,476.36L278.58,476.58L267.75,476.75 M267.03,476.03L278.86,465.86 M280.27,462.27L269.25,462.25 M267.37,465.37L278.70,465.70L290.30,466.30L301.74,466.74 M295.46,460.46L283.95,459.95L271.82,458.82L260.77,458.77 M258.41,451.41 M257.93,444.93L269.63,434.63L280.52,423.52 M280.00,429.00L268.55,428.55L257.00,428.00L245.63,427.63L234.12,427.12L223.01,427.01 M227.05,425.05L237.58,424.58L248.78,424.78L260.27,425.27L271.49,425.49L281.92,424.92L292.89,424.89 M290.01,433.01L277.98,431.98L266.99,431.99L255.88,431.88L244.75,431.75L233.44,431.44L222.52,431.52L211.32,431.32 M215.77,441.77L226.06,441.06 M225.99,434.99L236.98,423.98L248.50,413.50L259.90,402.90 M257.44,400.44L246.52,400.52L235.39,400.39 M234.05,405.05 M225.16,412.16L236.51,412.51L248.15,413.15L259.73,413.73L271.38,414.38L283.16,415.16L294.35,415.35 M288.68,415.68L277.68,415.68L266.72,415.72 M260.85,425.85 M259.62,435.62L270.40,424.40L281.05,413.05 M280.29,407.29 M283.22,404.22L293.62,392.62 M301.15,400.15L290.89,400.89L280.32,401.32 M282.54,398.54 M280.86,390.86L291.70,379.70L302.95,368.95L313.86,357.86 M317.36,361.36L327.84,360.84L337.83,359.83L348.15,359.15L358.55,358.55L369.01,358.01L380.28,358.28L390.99,357.99L402.11,358.11L413.99,358.99 M411.38,362.38L400.29,362.29 M400.09,356.09L411.44,345.44L422.94,334.94 M422.11,329.11 M411.14,334.14L422.59,334.59L434.09,335.09L444.86,334.86 M446.95,331.95 M435.21,336.21L424.57,347.57 M427.20,350.20L414.92,348.92L402.67,347.67L390.71,346.71L379.16,346.16L368.42,346.42L358.20,347.20L347.68,347.68L336.67,347.67L325.20,347.20 M325.68,353.68L336.18,353.18 M337.46,348.46 M348.10,348.10 M356.08,345.08L345.61,356.61 M358.26,358.26L369.68,347.68 M366.25,350.25L377.72,350.72 M380.17,347.17L369.03,358.03 M379.14,363.14L369.22,364.22L358.72,364.72 M348.78,370.78L359.81,370.81L370.79,370.79L381.90,370.90L392.94,370.94L403.07,370.07L414.59,370.59 M414.07,381.07L402.78,380.78L391.21,380.21L379.62,379.62L368.44,379.44L357.45,379.45L346.42,379.42L335.79,379.79L325.73,380.73L315.20,381.20L304.54,381.54L292.54,380.54L281.22,380.22L270.55,380.55L259.09,380.09 M259.04,386.04L269.88,385.88 M265.56,375.56L254.72,386.72L243.76,397.76L232.78,408.78L222.04,420.04L211.76,431.76L201.59,443.59L190.83,454.83 M187.21,462.21L198.22,451.22 M193.44,441.44L183.12,442.12L171.81,441.81 M170.73,445.73L182.33,435.33 M189.50,431.50L178.65,431.65L168.26,432.26L158.31,433.31L147.05,433.05 M145.99,426.99L156.90,426.90L167.63,426.63L178.95,426.95 M170.62,423.62L159.44,423.44 M160.39,424.39L148.93,434.93L138.26,446.26L126.91,456.91 M116.22,457.22L104.38,467.38 M113.64,471.64L124.08,471.08L134.69,470.69L145.44,470.44 M140.27,470.27 M146.25,465.25L135.13,465.13L124.19,465.19L113.37,465.37L103.07,466.07L92.59,466.59 M91.80,465.80L102.74,454.74 M94.91,457.91 M92.54,461.54L104.14,462.14L115.46,462.46L126.52,462.52L137.34,462.34L148.79,462.79 M151.28,470.28 M147.07,477.07L136.10,477.10L125.42,477.42L115.18,478.18 M126.77,467.77 M138.75,457.75L127.74,457.74L117.65,458.65L107.20,459.20L96.75,459.75L86.59,460.59 M83.42,457.42 M82.79,451.79 M84.55,447.55 M84.52,447.52 M81.08,439.08 M82.28,434.28 M80.87,421.87 M86.28,394.28L97.03,394.03 M93.82,390.82L105.30,380.30 M105.28,380.28L116.11,380.11L126.90,379.90 M127.35,380.35L138.05,369.05 M137.25,368.25L148.42,368.42L159.11,368.11L170.17,368.17 M176.18,363.18L186.60,362.60L196.85,361.85L207.10,361.10 M204.09,358.09L215.09,347.09 M217.55,349.55L228.42,349.42L238.93,348.93L249.29,348.29L259.45,347.45L269.92,346.92 M267.93,344.93 M260.69,343.69L250.15,344.15L238.92,343.92L227.75,343.75 M225.57,346.57 M237.48,347.48L248.65,336.65 M246.99,334.99L257.58,334.58 M262.23,350.23 M266.43,354.43 M272.81,355.81 M273.27,361.27L284.21,361.21 M280.65,357.65 M268.47,362.47L279.83,362.83L291.36,363.36L302.51,363.51L313.07,363.07L323.15,362.15 M323.03,373.03 M321.92,376.92 M327.94,371.94L316.36,371.36L305.50,371.50L295.39,372.39L285.49,373.49 M278.12,372.12L289.35,372.35L299.99,371.99 M293.99,370.99L283.10,382.10 M288.41,382.41 M259.91,369.91 M259.43,397.43L248.11,397.11 M255.18,404.18 M238.67,392.67L250.39,393.39L261.02,393.02L271.24,392.24L280.99,390.99L291.18,390.18L302.01,390.01L313.04,390.04L323.97,389.97 M324.17,385.17 M321.54,398.54 M342.93,397.93L354.48,398.48L366.31,399.31L378.24,400.24 M380.60,391.60L369.59,391.59L358.51,391.51L347.66,391.66 M356.50,384.50L367.79,384.79 M369.37,402.37 M366.06,405.06 M368.95,412.95L357.64,412.64L346.72,412.72 M343.95,426.95L354.89,426.89L366.23,427.23 M369.00,424.00L358.49,435.49L348.37,447.37 M347.66,446.66L336.72,446.72 M337.55,453.55L348.32,453.32L359.58,453.58 M356.08,461.08L345.29,461.29 M348.14,458.14L336.35,457.35 M332.84,464.84L344.03,454.03 M347.43,465.43 M345.50,472.50 M347.22,476.22L335.65,486.65L324.32,497.32L313.47,508.47L302.79,519.79 M305.24,520.24L293.56,519.56 M293.82,524.82L304.43,524.43 M313.19,533.19 M310.93,536.93 M311.26,542.26 M313.63,541.63 M324.02,566.02 M325.06,573.06 M335.15,588.15 M331.33,592.33 M338.71,597.71 M337.19,601.19 M346.15,621.15 M324.30,632.30 M302.15,638.15 M280.91,643.91 M267.25,674.25 M272.74,676.74 M249.78,673.78 M248.66,677.66 M247.30,665.30 M228.65,674.65 M227.84,675.84 M228.86,679.86 M215.21,705.21 M201.90,726.90 M202.95,730.95 M227.78,744.78 M246.19,738.19 M248.04,738.04 M248.49,743.49 M269.65,739.65 M271.69,744.69 M288.04,739.04 M294.03,742.03 M314.65,738.65 M313.79,731.79 M336.90,721.90 M328.47,702.47 M326.20,689.20 M315.11,673.11 M315.57,667.57 M344.86,680.86 M346.76,684.76 M348.02,689.02 M369.72,677.72 M380.18,699.18 M402.61,688.61 M411.56,642.56 M402.86,622.86 M390.09,599.09 M380.55,578.55 M378.92,573.92 M371.79,555.79 M369.91,551.91 M368.08,544.08 M379.19,530.19 M380.90,529.90L391.97,529.97L403.15,530.15L413.68,529.68L423.86,528.86 M425.80,524.80L414.84,524.84L403.98,524.98L393.00,525.00L382.34,525.34L371.36,525.36L360.35,525.35L349.30,525.30 M347.96,520.96L358.81,509.81L369.58,498.58L380.11,487.11L390.83,475.83 M390.41,473.41L379.57,473.57L369.34,474.34 M368.65,486.65 M357.08,495.08L368.69,495.69L380.46,496.46 M380.39,507.39 M378.30,518.30 M369.91,520.91 M369.42,518.42L359.38,519.38L348.36,519.36 M359.06,521.06 M352.84,501.84L342.99,502.99L332.37,503.37L320.65,502.65L309.41,502.41L298.54,502.54L287.40,502.40L276.34,502.34 M273.96,499.96L284.35,499.35L295.09,499.09L305.73,498.73L316.46,498.46 M312.78,496.78 M304.53,491.53L293.08,502.08 M291.93,511.93L303.09,501.09 M292.89,490.89L282.13,502.13 M281.90,501.90L292.80,501.80L304.16,502.16L315.77,502.77L327.10,503.10L338.72,503.72L349.33,503.33L359.56,502.56L369.59,501.59L379.63,500.63L389.90,499.90L401.35,500.35L412.84,500.84 M415.70,498.70L405.58,499.58 M393.46,500.46 M405.23,512.23 M400.57,516.57L411.94,516.94 M412.98,519.98L401.99,530.99 M397.57,535.57L409.12,536.12L421.65,537.65 M412.69,541.69 M392.72,532.72L403.09,521.09 M413.22,512.22L402.84,512.84L392.02,513.02L380.82,512.82L369.11,512.11L357.63,511.63L346.63,511.63L335.68,511.68L324.77,511.77L313.98,511.98L303.00,512.00L291.82,511.82L281.24,512.24 M288.80,516.80 M273.37,493.37L284.17,482.17 M280.15,489.15 M270.96,490.96L282.11,491.11L293.05,491.05L303.56,490.56L313.75,489.75L323.83,488.83L334.33,488.33L345.79,488.79L356.70,488.70L367.44,488.44L378.55,488.55L388.83,487.83L399.65,487.65L411.48,488.48L423.55,489.55L435.17,490.17L446.54,490.54L458.42,491.42 M447.88,488.88 M445.10,484.10 M438.71,477.71 M435.31,479.31L445.90,478.90L456.05,478.05L466.65,477.65L478.07,478.07L489.57,478.57L501.42,479.42L512.91,479.91L524.64,480.64 M524.01,486.01 M522.70,486.70 M521.05,488.05L510.41,488.41 M518.98,493.98 M525.64,498.64 M526.27,504.27L515.15,504.15L503.90,503.90 M519.40,508.40L530.54,508.54L542.59,509.59L553.99,509.99 M546.74,502.74 M522.37,506.37 M519.92,505.92 M512.48,476.48 M512.59,474.59L501.67,474.67L490.63,474.63L479.38,474.38 M479.07,485.07L489.96,484.96 M489.51,489.51L478.08,489.08 M477.08,485.08 M481.02,498.02 M481.25,503.25L470.71,503.71L460.58,504.58L450.16,505.16L438.74,504.74 M447.65,513.65 M432.86,528.86 M414.57,508.57 M425.90,499.90 M426.09,489.09L436.65,477.65L446.88,465.88 M459.01,476.01 M486.92,461.92 M485.39,458.39L497.17,459.17 M500.38,464.38 M501.22,476.22 M478.99,434.99 M427.05,435.05L415.52,445.52L403.61,455.61L392.08,466.08 M389.73,466.73L379.50,467.50L369.02,468.02L358.41,468.41L347.92,468.92L336.89,468.89 M326.57,486.57L315.00,486.00 M293.23,486.23L281.91,485.91L270.84,485.84 M269.41,473.41L280.24,473.24 M268.95,466.95L279.37,455.37 M278.59,449.59 M281.90,446.90L271.60,458.60 M279.63,439.63L290.43,439.43 M293.11,447.11L281.96,446.96L270.53,446.53L259.20,446.20L247.94,445.94L237.18,446.18L226.28,446.28L214.56,445.56L203.23,445.23L192.49,445.49L181.84,445.84L170.94,445.94 M173.62,437.62 M182.48,446.48 M182.08,452.08L193.27,452.27L204.56,452.56L215.74,452.74 M219.24,461.24L207.57,460.57L195.72,459.72L183.71,458.71L172.26,458.26 M192.18,467.18 M193.51,463.51 M195.36,470.36L206.62,459.62 M240.30,438.30 M247.96,440.96L258.58,440.58 M278.15,432.15 M236.05,418.05L224.51,417.51 M227.15,414.15 M213.18,378.18 M203.82,368.82L193.09,369.09 M193.11,364.11L182.37,364.37L171.46,364.46L160.83,364.83 M160.25,369.25L171.08,358.08 M177.77,353.77 M193.47,358.47 M196.36,356.36L207.30,356.30L217.98,355.98 M193.25,380.25 M168.94,410.94L158.46,411.46L147.22,411.22 M161.17,420.17 M160.57,435.57 M149.66,446.66L138.70,446.70 M139.47,453.47 M136.29,439.29 M151.09,492.09 M150.11,497.11L139.17,497.17L128.12,497.12L116.44,496.44 M116.73,501.73 M107.54,503.54L97.05,515.05 M94.71,512.71L83.75,512.75 M82.55,500.55L93.24,500.24L104.36,500.36L116.05,501.05L128.27,502.27L139.94,502.94L151.51,503.51 M149.67,507.67L160.74,507.74 M162.12,514.12 M160.99,523.99L171.62,523.62L182.06,523.06 M173.61,520.61 M170.16,522.16L181.99,511.99 M179.41,504.41 M191.40,510.40 M193.27,512.27L182.30,512.30L171.04,512.04L159.45,511.45L148.07,511.07 M141.88,504.88 M146.70,498.70 M141.51,526.51 M156.73,530.73L168.52,531.52 M160.20,545.20 M172.02,557.02 M167.71,563.71L156.44,574.44 M161.97,568.97 M150.02,568.02L139.14,579.14 M138.56,584.56L127.63,584.63L116.63,584.63L105.72,584.72 M104.94,588.94L115.83,588.83L126.88,588.88 M127.91,578.91L139.15,568.15 M119.71,570.71 M117.16,568.16L128.26,568.26L139.01,568.01L149.72,567.72L161.08,568.08L172.31,568.31L183.41,568.41L194.23,568.23L205.44,568.44L216.90,568.90L227.82,568.82L237.97,567.97 M237.06,567.06 M237.56,573.56L225.77,572.77L214.24,572.24L203.61,572.61L192.81,572.81 M193.14,578.14L204.21,567.21 M218.88,570.88 M224.73,576.73L214.24,577.24L203.30,577.30L192.65,577.65L181.77,577.77L170.62,577.62L159.90,577.90L149.43,578.43L138.72,578.72L128.17,579.17L117.49,579.49L106.71,579.71 M104.94,572.94L115.82,572.82L128.18,574.18L140.21,575.21L151.83,575.83L162.99,575.99L173.91,575.91 M180.14,565.14 M180.48,587.48L191.93,587.93L203.28,588.28 M203.77,583.77L193.28,584.28 M226.93,567.93 M240.47,559.47 M235.61,549.61 M240.06,548.06 M236.54,544.54 M227.70,535.70 M224.55,532.55 M212.96,526.96 M214.28,522.28L203.66,522.66 M205.42,524.42 M204.12,518.12 M213.23,521.23 M283.13,577.13 M282.90,579.90 M284.11,587.11 M287.46,595.46 M293.23,607.23 M290.89,609.89 M270.87,606.87 M269.62,607.62 M265.28,606.28 M225.40,621.40 M237.24,644.24 M260.69,708.69 M261.28,712.28 M240.90,713.90 M284.27,713.27 M302.34,698.34 M359.41,717.41 M359.77,651.77 M369.23,611.23 M359.37,587.37 M355.81,586.81 M358.11,578.11 M351.73,566.73 M346.11,566.11 M346.67,563.67 M347.03,556.03 M344.89,550.89 M345.47,549.47 M336.04,509.04 M344.31,506.31 M338.29,498.29 M344.88,438.88 M344.96,432.96 M350.03,427.03L360.92,426.92L371.43,426.43 M366.69,432.69 M366.09,440.09 M368.10,440.10 M379.43,434.43L367.83,433.83L355.96,432.96L344.57,432.57L333.72,432.72 M368.89,418.89 M400.70,389.70 M398.26,382.26 M403.65,376.65 M412.75,396.75 M413.12,402.12 M420.04,409.04 M413.02,424.02 M420.83,426.83 M421.86,432.86L410.88,432.88 M411.34,439.34L422.35,439.35 M423.17,445.17L411.70,444.70 M402.81,452.81L413.69,452.69L425.25,453.25 M425.78,455.78 M428.26,447.26L416.90,457.90 M419.78,480.78 M388.94,460.94 M391.50,534.50L402.59,534.59L413.72,534.72L424.99,534.99L436.59,535.59L448.41,536.41L459.22,536.22L469.83,535.83L480.39,535.39 M478.19,539.19L467.81,539.81 M475.54,538.54 M568.98,565.98L579.25,554.25 M590.44,530.44 M595.68,526.68 M589.17,512.17 M632.18,506.18L643.50,506.50L655.23,507.23 M664.27,516.27 M690.03,509.03L700.80,508.80 M698.70,508.70L709.72,497.72L720.09,486.09 M720.52,484.52 M723.67,481.67L713.10,482.10L702.47,482.47 M707.26,484.26L718.42,473.42L729.74,462.74L741.42,452.42 M741.85,450.85 M735.93,449.93L725.62,450.62L714.30,450.30L701.96,448.96L690.88,448.88 M698.82,451.82L709.60,451.60L720.30,451.30 M720.70,453.70L731.05,442.05 M723.07,459.07L711.91,458.91L701.46,459.46 M694.46,458.46L705.91,458.91L716.72,458.72 M722.49,466.49 M730.50,466.50L718.43,465.43L706.34,464.34L694.28,463.28 M709.38,473.38L721.01,474.01L732.92,474.92 M743.07,485.07 M747.15,483.15 M743.76,457.76 M717.26,428.26 M711.21,431.21 M701.80,426.80L691.41,427.41 M685.64,427.64 M688.05,410.05 M686.41,395.41L696.99,394.99L707.60,394.60L718.83,394.83 M711.45,392.45L701.09,393.09L689.62,392.62L678.19,392.19L666.76,391.76L654.93,390.93L642.78,389.78L631.69,389.69 M645.82,376.82L656.22,376.22 M652.57,377.57L663.25,377.25L675.08,378.08 M677.00,375.00L687.93,374.93L698.16,374.16 M698.74,368.74L687.77,368.77L677.19,369.19L666.67,369.67L655.77,369.77L644.99,369.99 M634.64,365.64 M658.11,367.11 M657.38,357.38L668.58,346.58 M675.12,353.12 M678.43,365.43L689.13,365.13 M689.36,367.36 M701.78,368.78L712.46,357.46 M709.72,352.72 M707.18,355.18 M721.28,347.28 M723.57,344.57 M715.24,336.24 M712.45,327.45 M700.99,337.99 M724.61,317.61 M689.04,288.04 M686.84,287.84L675.54,298.54L664.56,309.56L653.66,320.66 M657.26,322.26 M657.10,327.10 M668.24,316.24 M665.58,308.58 M677.39,303.39 M676.29,297.29 M666.68,276.68 M673.93,263.93L663.48,275.48L653.03,287.03 M652.47,289.47 M655.60,287.60 M647.16,306.16 M635.22,316.22 M632.77,319.77 M621.76,330.76 M622.22,333.22 M611.90,314.90 M611.64,309.64 M597.04,317.04 M588.71,302.71 M589.63,300.63L578.57,311.57 M575.48,311.48 M585.81,294.81 M597.09,284.09 M599.94,280.94 M610.46,275.46 M609.10,268.10 M624.04,261.04 M621.23,255.23 M620.06,252.06 M616.09,237.09 M608.31,231.31L596.92,241.92 M598.03,246.03 M591.99,261.99 M587.83,263.83 M575.18,267.18 M576.72,274.72 M575.83,278.83 M579.41,279.41L568.49,290.49 M566.69,286.69 M562.93,287.93 M523.54,270.54 M523.24,270.24L513.05,282.05 M512.32,281.32 M524.52,266.52 M534.82,254.82 M535.78,249.78 M532.74,246.74 M542.71,234.71 M543.09,230.09 M525.65,228.65 M509.99,229.99 M491.01,227.01 M490.17,221.17 M488.16,213.16 M498.58,207.58 M501.65,204.65L512.52,193.52 M509.20,190.20 M509.41,185.41 M512.45,182.45L522.99,170.99L534.17,160.17 M533.97,159.97 M537.79,158.79 M532.84,147.84 M532.41,147.41L544.08,137.08 M544.53,132.53 M548.18,141.18 M557.12,123.12 M559.94,119.94 M556.53,116.53 M567.70,105.70 M566.62,99.62 M576.80,92.80 M579.24,90.24 M578.01,83.01 M574.99,79.99L586.34,69.34 M584.49,67.49 M597.37,53.37 M614.32,42.32 M631.96,59.96 M635.84,63.84 M622.91,78.91 M614.27,97.27 M615.22,98.22 M599.17,104.17 M620.86,125.86 M622.17,127.17 M634.40,117.40 M635.08,113.08 M631.97,103.97 M641.29,97.29 M645.00,95.00 M645.11,95.11L655.76,83.76 M652.91,80.91 M666.33,67.33 M673.42,46.42 M657.61,30.61 M653.58,26.58 M685.83,80.83 M691.00,86.00 M698.74,71.74 M707.47,97.47 M720.46,88.46 M698.23,112.23 M699.00,116.00 M685.41,124.41 M669.68,119.68L659.00,131.00 M656.50,128.50 M667.39,117.39 M669.20,114.20 M675.52,92.52 M677.74,144.74 M678.78,147.78L667.20,158.20L656.06,169.06 M655.13,166.13 M652.99,168.99 M654.42,176.42 M644.37,188.37 M645.19,191.19L633.98,201.98 M635.99,201.99 M633.61,204.61 M624.41,217.41 M643.13,225.13 M653.32,213.32 M658.14,215.14L669.63,204.63L680.76,193.76 M677.86,188.86 M676.22,181.22 M684.25,167.25 M678.17,150.17 M663.00,152.00 M666.01,160.01 M644.49,144.49 M631.77,153.77 M631.02,158.02 M618.64,167.64 M622.67,171.67 M614.28,185.28 M610.25,187.25 M609.89,191.89 M600.86,199.86 M598.26,202.26 M597.47,201.47 M579.46,233.46 M575.16,234.16 M633.47,237.47 M633.01,243.01 M653.14,252.14 M656.06,257.06L644.05,267.05L632.71,277.71 M633.36,276.36 M632.70,280.70 M620.73,290.73 M641.82,267.82 M655.97,259.97 M664.81,241.81 M665.00,236.00 M677.19,226.19 M675.61,221.61L686.92,210.92L697.68,199.68L709.34,189.34 M711.61,189.61 M706.25,178.25 M716.99,166.99 M722.51,169.51 M714.63,150.63 M713.18,147.18 M720.50,132.50 M701.88,162.88 M699.33,199.33 M695.82,200.82 M686.03,208.03 M684.63,211.63 M666.24,204.24 M665.89,198.89 M652.31,207.31 M646.78,195.78 M684.63,244.63 M686.47,252.47 M677.95,265.95 M695.48,266.48 M699.36,276.36 M710.25,265.25 M711.29,260.29 M719.31,246.31 M733.09,238.09 M718.82,212.82 M718.86,207.86 M729.77,201.77 M731.57,200.57L719.67,210.67L708.37,221.37 M706.19,222.19 M700.74,238.74 M729.38,267.38 M733.24,200.24 M658.69,347.69 M700.16,381.16 M709.69,387.69 M712.42,388.42 M720.89,374.89 M719.61,367.61 M696.94,482.94 M689.61,497.61 M688.69,498.69 M679.30,481.30 M709.43,500.43L698.71,500.71L688.09,501.09L677.59,501.59L666.52,501.52L655.35,501.35L644.38,501.38L632.93,500.93 M600.24,457.24 M576.08,389.08L565.23,389.23L555.10,390.10 M575.04,377.04 M588.49,363.49 M574.97,349.97 M566.07,341.07 M576.40,331.40 M457.68,347.68 M422.38,351.38L411.44,351.44L400.68,351.68 M388.80,355.80L400.00,345.00L410.62,333.62 M414.35,343.35 M388.93,344.93 M393.01,327.01 M392.06,326.06 M404.14,311.14 M382.91,294.91 M375.97,287.97 M375.94,282.94 M359.43,282.43 M359.13,277.13 M366.27,256.27 M365.63,255.63 M365.75,250.75 M379.73,236.73 M382.12,239.12 M399.18,251.18 M399.31,256.31 M393.89,272.89 M394.62,273.62 M392.36,277.36 M415.23,245.23 M413.29,237.29 M413.28,237.28 M423.98,214.98 M422.03,213.03 M405.24,207.24 M399.49,196.49 M410.38,185.38 M414.63,183.63 M410.75,179.75 M426.05,173.05 M422.96,164.96 M423.79,159.79 M431.74,145.74 M438.28,147.28 M447.55,128.55 M449.37,125.37 M460.07,114.07 M467.04,93.04 M468.83,89.83 M481.88,74.88 M479.11,72.11 M492.55,52.55 M502.99,40.99 M499.49,37.49 M497.39,30.39 M530.58,35.58 M565.34,48.34 M571.06,49.06 M581.12,37.12 M541.16,74.16 M544.66,82.66 M534.11,94.11 M533.10,93.10 M523.95,111.95 M521.62,114.62 M522.51,115.51 M512.93,133.93 M502.08,150.08 M504.21,152.21 M489.76,159.76 M489.08,165.08 M478.27,181.27 M478.29,181.29 M469.76,200.76 M467.01,203.01 M468.74,204.74 M499.98,202.98 M501.95,199.95 M514.52,184.52 M521.02,169.02 M521.98,164.98 M482.75,130.75 M468.00,144.00 M466.85,147.85 M470.94,151.94 M446.30,182.30 M433.34,191.34 M432.96,196.96 M394.04,218.04 M389.99,213.99 M369.38,204.38 M368.92,203.92 M356.30,224.30 M360.51,228.51 M346.13,247.13 M327.56,245.56 M327.41,239.41 M325.47,237.47 M323.48,230.48 M335.59,220.59 M334.66,213.66 M334.02,213.02 M316.89,206.89 M314.61,210.61 M315.27,200.27 M310.01,200.01 M326.87,189.87 M327.47,184.47 M321.99,178.99 M304.24,172.24 M302.60,170.60 M282.66,172.66 M281.43,171.43 M279.40,164.40 M281.24,160.24 M291.66,148.66 M290.64,142.64 M292.27,138.27 M272.84,140.84 M268.48,136.48 M265.99,128.99 M248.51,127.51 M246.90,131.90 M246.65,136.65 M246.99,136.99 M229.08,136.08 M229.63,130.63 M225.64,126.64 M214.63,110.63 M214.92,104.92 M214.69,104.69 M204.37,116.37 M206.54,85.54 M203.61,82.61 M201.20,75.20 M224.36,76.36 M227.74,73.74 M224.11,70.11 M247.54,71.54 M251.13,75.13 M247.40,77.40 M238.20,101.20 M238.80,106.80 M256.87,102.87 M261.27,107.27 M280.74,104.74 M282.43,106.43 M282.46,112.46 M303.46,116.46 M313.60,93.60 M315.17,90.17 M334.59,92.59 M341.07,105.07 M356.41,109.41 M359.08,117.08 M361.01,119.01 M346.68,132.68 M347.70,138.70 M348.14,139.14 M328.70,125.70 M326.52,128.52 M313.03,143.03 M311.02,146.02 M317.22,152.22 M335.17,159.17 M338.00,162.00 M359.78,167.78 M344.60,185.60 M344.89,190.89 M345.91,191.91 M379.26,181.26 M380.97,182.97 M389.50,164.50 M391.34,160.34 M388.37,157.37 M400.35,147.35 M402.13,144.13 M416.62,130.62 M414.90,128.90 M415.68,124.68 M424.79,111.79 M422.74,103.74 M433.87,81.87 M447.87,73.87 M448.57,69.57 M455.93,54.93 M457.84,50.84 M453.22,46.22 M427.86,53.86 M424.96,50.96 M412.16,71.16 M415.41,74.41 M400.40,87.40 M384.34,76.34 M370.61,90.61 M348.16,84.16 M325.66,67.66 M305.14,58.14 M301.93,59.93 M284.24,59.24 M284.30,53.30 M262.28,48.28 M291.99,77.99 M291.07,82.07 M294.59,85.59 M338.56,47.56 M337.59,40.59 M366.52,36.52 M367.95,32.95 M394.13,53.13 M390.17,104.17 M390.36,104.36 M390.82,110.82 M380.30,127.30 M381.21,128.21 M290.14,197.14 M270.38,188.38 M267.34,190.34 M249.14,189.14 M245.77,190.77 M243.91,188.91 M239.67,212.67 M246.58,213.58 M250.84,217.84 M244.77,233.77L234.18,234.18 M229.68,235.68 M233.78,255.78 M225.57,280.57L214.46,280.46 M214.77,280.77 M182.62,303.62 M150.27,370.27 M134.86,371.86L123.81,371.81 M113.12,377.12 M106.68,387.68L95.33,387.33 M97.49,510.49 M95.92,519.92 M94.75,523.75 M91.27,526.27 M90.75,530.75 M95.75,535.75 M95.93,541.93 M92.90,543.90 M91.79,548.79 M96.69,547.69 M98.50,527.50 M115.03,577.03 M300.50,572.50 M304.88,568.88 M305.10,580.10 M310.50,596.50 M314.39,606.39 M282.23,777.23 M261.80,775.80 M259.53,776.53 M261.37,808.37 M273.04,809.04 M280.55,805.55 M289.68,803.68 M302.63,805.63 M312.47,804.47 M322.90,803.90 M248.47,806.47 M235.13,804.13 M226.85,806.85 M218.08,809.08 M208.27,810.27 M203.11,797.11 M194.20,807.20 M180.84,804.84 M171.54,806.54 M160.85,806.85 M146.85,803.85 M140.18,808.18 M127.69,806.69 M118.31,808.31 M102.59,803.59 M97.49,809.49 M84.87,807.87 M74.32,808.32 M61.86,806.86 M51.76,807.76 M39.93,806.93 M26.66,804.66 M16.18,805.18 M2.53,802.53 M344.16,372.16 M357.68,335.68 M370.51,315.51 M369.12,314.12 M346.29,302.29 M326.35,293.35 M323.08,290.08 M325.04,287.04 M307.23,285.23 M305.71,289.71 M302.95,280.95 M295.70,295.70L285.22,296.22 M272.61,289.61L261.17,289.17 M270.80,265.80 M288.61,244.61 M293.39,249.39 M313.31,258.31 M313.97,258.97 M338.29,267.29 M314.41,309.41 M312.05,312.05 M309.45,309.45 M292.23,314.23L281.29,314.29L270.75,314.75L259.55,314.55 M259.51,314.51 M282.42,315.42 M280.35,225.35 M280.08,225.08 M279.57,219.57 M302.28,225.28 M303.51,226.51 M257.45,164.45 M259.71,160.71 M258.66,159.66 M238.33,161.33 M234.14,163.14 M204.68,204.68 M194.46,227.46 M498.49,91.49 M500.41,93.41 M505.14,93.14 M513.02,73.02 M712.77,498.77 M710.63,529.63L699.01,529.01"/></svg>