<?xml version="1.0" standalone="no"?><!DOCTYPE svg PUBLIC "-//W3C//DTD SVG 1.1//EN" "http://www.w3.org/Graphics/SVG/1.1/DTD/svg11.dtd"><svg xmlns="http://www.w3.org/2000/svg" style="position: fixed; background: white;" width="800" height="800" viewBox="0 0 800 800"><path style="stroke-width: 2px; fill: none; stroke: black" d=" M794.74,801.74 M794.90,794.90 M792.49,791.49L802.86,777.86L792.96,762.96L787.76,748.76L791.51,734.51L790.48,720.48L802.45,705.45L789.29,698.29L788.97,683.97L786.83,669.83L786.83,655.83L786.80,641.80L790.66,627.66L786.54,613.54L786.48,599.48L786.50,585.50L786.45,571.45L786.43,557.43L786.33,543.33L786.17,528.17L788.41,515.41L788.45,501.45L788.40,487.40L788.35,473.35L788.45,459.45L788.46,445.46L788.66,431.66L787.83,417.83L791.02,404.02L788.03,390.03L787.98,375.98L788.78,361.78L786.82,347.82L787.01,334.01L787.00,320.00L787.16,308.16L792.36,294.36L787.48,280.48L787.52,266.52L789.62,252.62L787.68,238.68L792.77,224.77L792.96,211.96L799.17,206.17L788.15,192.15L803.16,171.16L795.33,170.33L788.33,156.33L791.26,152.26L795.28,141.28L803.11,137.11L790.86,132.86L802.81,117.81L790.92,115.92L803.13,106.13L790.11,102.11L792.02,92.02L789.87,79.87L787.65,66.65L794.56,52.56L793.33,44.33L793.22,30.22L786.90,15.90L793.37,13.37L801.21,25.21 M795.89,28.89 M796.62,36.62 M794.50,40.50 M794.76,47.76 M794.95,53.95 M797.03,63.03 M801.24,62.24L801.23,76.23L801.24,92.24 M794.52,92.52 M795.64,87.64 M794.38,79.38 M796.33,68.33 M795.07,106.07 M796.01,114.01 M794.76,118.76 M795.44,126.44 M795.71,132.71 M793.97,137.97 M795.34,145.34 M795.85,158.85 M795.11,171.11 M796.20,185.20 M795.80,197.80 M795.97,204.97 M796.51,211.51 M802.24,207.24L802.21,221.21L802.26,235.26L802.23,249.23L802.01,263.01L801.96,276.96L801.95,290.95L801.75,304.75L801.61,318.61L801.61,332.61L801.65,346.65L801.67,360.67L801.76,374.76L801.77,388.77L801.69,402.69L801.62,416.62L801.73,430.73L801.66,444.66L801.78,458.78L802.14,473.14L802.34,487.34L802.44,501.44L802.31,515.31L802.13,529.13L801.87,542.87L801.72,556.72L801.48,570.48L801.37,584.37L801.29,598.29L801.13,612.13L800.83,625.83L800.97,639.97L801.11,654.11L801.23,668.23L801.42,682.42L801.56,696.56L796.78,711.78L785.99,724.99L796.15,704.15L791.13,744.13 M793.92,741.92 M800.97,748.97L801.04,735.04L801.13,721.13L790.23,712.23 M796.04,718.04 M797.32,706.32 M794.52,690.52 M794.47,677.47 M795.16,665.16 M795.27,652.27 M794.10,638.10 M795.13,626.13 M796.15,614.15 M794.68,599.68 M795.03,587.03 M794.86,573.86 M796.20,562.20 M796.01,549.01 M795.18,535.18 M795.76,522.76 M795.76,509.76 M796.98,497.98 M795.29,483.29 M794.65,469.65 M794.53,456.53 M794.32,443.32 M796.39,432.39 M795.37,418.37 M795.04,405.04 M790.74,393.74L790.90,379.90L790.98,365.98 M794.91,365.91 M795.70,353.70 M794.76,339.76 M796.65,328.65 M794.46,313.46 M796.02,302.02 M794.64,287.64 M796.23,276.23 M796.62,263.62 M795.35,249.35 M795.03,236.03 M796.49,224.49 M730.34,230.34L717.39,243.39L704.18,256.18 M703.47,255.47 M704.69,253.69L719.62,237.62L737.52,262.52L726.40,263.40L712.21,277.21L700.15,291.15L686.17,305.17 M690.22,307.22 M690.42,310.42L704.18,296.18L718.17,282.17L728.31,274.31L721.54,277.54L709.59,291.59L695.81,305.81L680.90,314.90L673.95,327.95L668.88,338.88 M679.21,322.21L692.09,309.09L704.81,295.81L717.83,282.83L731.00,270.00 M730.06,269.06 M730.61,262.61 M718.45,250.45 M717.15,243.15 M730.11,236.11 M729.85,229.85 M723.08,208.08L732.01,194.01 M730.30,191.30 M730.04,191.04 M729.55,196.55 M717.47,210.47 M705.00,224.00 M699.01,209.01L686.82,209.82L700.36,195.36L714.11,178.11 M717.58,171.58 M717.28,165.28 M709.45,156.45L700.53,152.53 M704.99,145.99 M705.27,140.27L718.09,127.09 M716.85,125.85 M719.66,129.66L722.61,116.61L708.52,127.52 M702.89,137.89 M691.99,119.99 M691.61,113.61L704.51,100.51L717.57,87.57 M717.20,87.20 M720.88,88.88L707.77,102.77 M704.98,100.98 M704.40,93.40 M700.10,109.10L700.09,110.09L686.75,79.75L674.68,97.68L667.69,116.69L665.65,98.65L654.65,97.65 M665.25,106.25 M665.18,113.18 M652.50,119.50 M651.35,118.35L664.38,105.38L677.51,92.51 M678.38,93.38 M677.31,86.31 M667.15,77.15L659.22,91.22L647.08,90.08L635.13,103.13L631.36,109.36L623.30,109.30L609.48,128.48L599.76,148.76L597.91,156.91L591.84,164.84L604.61,150.61 M600.95,145.95 M600.93,145.93L613.79,132.79 M612.27,131.27 M612.83,125.83 M617.16,124.16L634.13,105.13 M627.53,107.53 M627.10,107.10L639.78,93.78 M638.57,92.57 M652.28,80.28 M654.47,76.47L646.62,74.62L629.59,70.59 M638.61,73.61L651.41,73.41 M666.24,62.24 M665.54,54.54L678.59,41.59 M677.60,40.60 M676.60,34.60L687.36,20.36 M651.85,27.85 M651.28,27.28 M663.94,52.94 M691.60,67.60 M692.66,68.66L705.67,55.67 M706.10,57.10L694.94,70.94 M704.03,61.03 M703.20,53.20 M757.48,62.48 M793.87,20.87 M795.69,15.69 M795.71,2.71 M689.76,111.76 M678.64,132.64 M665.01,152.01 M665.62,152.62L652.48,165.48 M652.01,165.01 M654.17,173.17 M647.50,180.50L657.30,166.30L667.37,152.37L677.38,138.38L685.17,127.17L692.05,115.05L689.09,109.09L689.26,102.26L704.23,92.23L717.24,78.24L718.14,83.14L715.15,92.15L706.16,89.16L694.15,104.15L685.26,116.26L682.70,119.70L670.93,121.93L667.92,140.92L668.00,158.00 M678.42,171.42 M682.17,174.17L671.27,188.27L664.06,201.06L653.93,212.93 M652.37,210.37 M651.63,203.63 M650.93,202.93L664.13,190.13L677.52,177.52 M678.75,178.75 M665.56,191.56 M663.97,195.97 M677.17,209.17 M678.90,217.90L666.32,231.32 M665.74,230.74 M664.92,235.92 M660.74,247.74L670.57,233.57L687.66,212.66L697.71,199.71L712.71,185.71L712.75,194.75L707.65,177.65L698.35,171.35L685.95,174.95L669.70,188.70L657.56,208.56L638.61,222.61 M624.71,208.71L615.83,221.83L613.65,223.65L616.62,209.62L624.75,193.75L638.66,180.66L652.56,173.56L666.46,154.46L678.43,138.43L692.40,138.40L693.45,145.45L716.51,135.51L720.45,120.45L706.24,133.24L705.95,143.95L688.87,154.87L678.05,169.05L667.31,183.31L653.41,197.41L644.35,211.35L639.43,225.43L630.64,230.64L627.73,236.73L617.75,247.75L608.67,261.67L606.64,272.64L596.66,280.66L589.71,289.71L582.64,301.64L576.56,312.56 M586.12,294.12 M599.48,312.48L609.50,307.50L617.45,292.45L628.43,283.43L630.33,269.33L642.17,267.17L650.41,254.41L653.45,241.45L663.40,227.40L677.35,221.35L680.45,207.45L690.46,193.46L701.66,179.66L696.83,172.83L713.02,168.02L726.03,154.03L719.98,159.98L708.78,149.78L705.82,152.82L704.01,136.01L691.00,154.00L687.16,159.16L675.36,174.36L661.48,194.48L647.52,217.52L643.62,226.62L630.68,227.68L622.77,246.77L613.96,266.96L605.17,268.17L621.15,256.15 M613.72,256.72 M613.33,256.33L626.34,243.34 M625.03,242.03 M613.04,223.04 M614.42,218.42 M613.14,217.14L626.19,204.19 M625.65,203.65 M625.40,196.40 M639.51,191.51 M640.44,185.44 M626.80,158.80 M626.25,158.25L613.13,171.13 M613.64,171.64 M599.23,190.23 M599.05,196.05L586.08,209.08 M588.91,211.91 M599.68,196.68 M576.52,186.52L563.47,199.47 M560.19,196.19 M560.86,203.86 M550.98,210.98L559.17,197.17L571.16,183.16 M575.15,185.15 M572.64,189.64L567.02,195.02L553.13,215.13L544.07,219.07L537.80,238.80L529.84,250.84L518.13,259.13L511.08,274.08L502.33,285.33L492.29,295.29L496.15,290.15L507.93,282.93L511.90,270.90L524.00,258.00L527.96,246.96L535.98,232.98L544.03,229.03L551.15,219.15L561.22,207.22L569.31,193.31L578.36,180.36L584.46,173.46L587.49,159.49L596.54,145.54L602.59,137.59L612.61,136.61L617.58,126.58L619.65,113.65L626.84,112.84L631.23,99.23L642.38,86.38L651.20,71.20L669.27,62.27L666.44,50.44L680.61,46.61L690.74,32.74L685.95,31.95L675.85,40.85L665.91,58.91L656.65,72.65L653.64,53.64L648.77,58.77L640.88,30.88L632.80,49.80L623.73,68.73L618.54,65.54L610.20,51.20L599.78,40.78L596.67,58.67L590.59,66.59L575.57,80.57L581.69,65.69L567.75,85.75L553.67,105.67L539.50,126.50L531.46,152.46L521.50,155.50L515.68,166.68L501.76,185.76L487.86,206.86L483.97,215.97L482.13,230.13L471.21,237.21 M471.17,237.17 M470.61,236.61L483.53,223.53 M482.86,222.86 M483.60,217.60 M495.46,209.46 M496.54,204.54 M496.24,197.24 M508.93,183.93 M510.22,179.22 M521.84,164.84 M522.50,158.50 M522.41,158.41L535.03,145.03 M536.03,146.03 M537.13,141.13 M526.63,153.63L521.70,167.70L513.82,181.82L503.96,195.96L495.99,209.99L500.92,207.92L489.82,219.82L480.01,234.01L466.11,248.11L461.19,256.19L457.19,270.19L449.06,271.06L453.07,276.07L442.12,289.12L433.17,298.17 M444.69,288.69 M461.97,295.97L472.04,282.04L478.13,271.13L486.23,258.23L496.30,244.30L504.25,244.25L507.37,229.37L514.76,229.76L515.10,216.10L526.20,212.20L525.32,205.32L535.47,196.47L540.62,185.62L546.74,169.74L554.64,169.64L558.37,155.37L562.13,153.13L562.98,147.98L573.17,134.17L579.07,130.07L590.10,116.10L597.27,109.27L604.60,97.60L613.70,85.70L620.76,76.76L615.68,72.68L620.54,63.54L632.23,55.23L625.15,57.15L616.22,82.22L602.45,101.45L590.58,116.58L584.61,123.61L571.72,136.72L557.85,155.85L553.92,161.92L540.85,186.85L530.73,196.73L524.52,208.52L511.19,224.19L505.73,241.73L495.38,245.38L485.05,271.05L495.90,249.90 M494.62,247.62 M496.98,256.98 M509.31,275.31 M509.92,282.92 M522.31,262.31 M536.90,244.90 M535.88,236.88 M535.24,236.24 M541.30,236.30L543.29,233.29 M548.35,223.35 M548.05,217.05 M522.90,210.90 M522.23,210.23 M521.04,216.04 M509.72,230.72 M472.27,245.27L463.30,237.30L476.49,225.49L486.51,211.51L494.71,197.71L503.70,183.70L512.68,169.68L520.56,155.56L539.35,140.35L549.40,126.40L559.48,114.48L566.42,94.42L575.36,89.36L583.36,78.36L591.39,64.39L591.40,51.40L592.63,35.63L612.92,34.92L616.02,21.02 M613.22,28.22 M614.35,29.35 M626.03,61.03 M612.36,79.36 M612.98,79.98 M606.62,83.62L609.81,79.81L601.82,91.82L584.66,97.66L573.69,91.69L563.88,100.88L561.02,113.02L547.06,130.06L534.94,136.94L543.00,123.00L552.89,108.89L560.69,94.69L571.54,80.54L580.54,66.54L587.55,61.55 M586.53,60.53 M587.65,67.65 M573.79,79.79 M573.68,86.68 M561.48,100.48 M561.47,106.47 M561.66,106.66L548.48,119.48 M548.15,119.15 M548.29,126.29 M574.57,138.57L560.50,154.50 M561.72,152.72 M563.09,160.09 M547.31,170.31 M549.84,179.84 M541.73,184.73 M535.35,191.35 M574.45,230.45L561.68,243.68 M561.56,243.56L575.47,223.47L561.32,242.32 M561.37,243.37 M560.95,248.95 M556.92,258.92L564.93,244.93L580.94,223.94L593.93,205.93L592.87,195.87L588.96,213.96L584.20,209.20L598.61,189.61L612.91,180.91L607.02,179.02L621.02,159.02L633.92,137.92L644.63,126.63L653.40,126.40L660.39,104.39L668.36,92.36L674.36,68.36L686.42,70.42L693.48,74.48L702.40,56.40L709.35,49.35L711.56,42.56L706.68,55.68L693.70,59.70L691.71,63.71L676.51,83.51L681.49,85.49L674.30,99.30L672.27,115.27L677.43,126.43L668.69,140.69L657.47,154.47L646.28,168.28L640.18,182.18L634.20,196.20L614.20,211.20L611.17,225.17L603.09,227.09L593.05,239.05L590.97,246.97L585.94,255.94L578.99,262.99L574.20,271.20L564.49,280.49L554.77,294.77L552.06,304.06 M560.51,287.51 M573.60,274.60 M550.41,264.41 M574.51,236.51 M574.59,230.59 M586.93,248.93 M599.08,235.08 M614.73,263.73 M599.33,274.33 M639.13,269.13 M639.91,262.91 M652.42,251.42L651.22,243.22L665.03,225.03L679.06,209.06L689.28,194.28 M690.34,196.34 M705.28,185.28 M689.90,156.90 M728.43,160.43L718.42,174.42L711.32,195.32L718.28,219.28L708.34,228.34L691.55,246.55L678.34,260.34 M677.90,255.90 M677.50,255.50 M668.56,268.56L675.72,254.72L688.88,239.88L706.80,230.80L712.59,222.59L716.34,253.34L725.91,231.91L731.36,224.36L726.89,237.89L727.54,242.54L711.52,254.52L698.55,268.55L690.71,277.71L676.95,293.95L656.20,309.20L652.36,321.36 M639.83,301.83 M652.78,288.78 M653.04,283.04L655.07,287.07L658.97,273.97L672.73,266.73L684.33,251.33L690.34,233.34L704.41,213.41L718.66,199.66L732.95,194.95L722.32,198.32L708.65,212.65L697.42,226.42L686.31,240.31L677.20,251.20L665.09,265.09L662.01,278.01L654.92,283.92L650.69,292.69L640.42,299.42L627.10,309.10L617.98,319.98 M626.61,314.61 M666.04,302.04 M678.30,295.30 M677.50,287.50 M685.04,278.04L699.00,263.00 M704.76,262.76 M691.52,275.52 M704.31,295.31 M716.86,281.86 M718.26,276.26 M729.08,294.08 M729.98,294.98 M729.97,300.97 M724.49,301.49L715.60,306.60L729.66,294.66L743.71,306.71L741.85,320.85 M730.66,327.66 M729.86,333.86 M731.55,335.55 M719.40,335.40L728.33,321.33 M716.26,313.26 M718.00,309.00 M703.12,320.12 M702.99,319.99 M705.54,326.54L719.70,314.70L733.58,299.58L737.50,295.50L723.45,309.45L710.62,321.62L709.75,342.75 M716.63,339.63 M704.16,327.16 M690.46,339.46 M704.39,353.39 M717.18,366.18 M733.99,372.99L719.99,384.99 M719.06,389.06L727.02,414.02L722.30,437.30L730.76,458.76L743.32,479.32L748.54,483.54L746.70,497.70L747.48,512.48L745.22,522.22L748.93,519.93 M744.49,517.49L731.59,530.59L718.56,543.56 M717.16,542.16L703.99,541.99L691.20,542.20L678.58,542.58L665.61,542.61 M665.55,542.55L652.92,555.92L640.14,569.14 M639.18,568.18L626.37,568.37L613.59,568.59L600.56,568.56L587.54,568.54L574.77,568.77 M574.84,574.84L587.87,574.87L601.03,575.03L614.19,575.19L627.32,575.32L640.33,575.33 M638.97,580.97 M639.59,581.59 M633.44,581.44L643.36,595.36L653.00,609.00L660.81,622.81L669.91,636.91L679.05,651.05L688.17,665.17L696.43,680.43L704.84,694.84L714.29,709.29L722.25,723.25 M729.29,723.29 M729.30,723.30 M730.76,717.76 M728.67,714.67L730.65,690.65L720.62,676.62L726.63,657.63L725.69,656.69L716.82,653.82L704.93,644.93L692.00,634.00L685.05,620.05L672.12,600.12L672.36,585.36L658.78,567.78L663.78,568.78 M666.71,572.71L673.47,586.47L683.19,600.19L691.99,613.99L700.78,627.78L709.75,641.75L718.89,655.89L728.95,669.95L737.93,683.93L746.93,697.93 M744.69,699.69 M743.14,698.14 M742.99,703.99 M742.55,690.55 M731.20,686.20 M730.26,685.26 M730.51,678.51 M743.13,665.13 M747.60,665.60L737.79,659.79L736.71,655.71L725.55,641.55L718.67,630.67L709.50,616.50L703.38,602.38L692.31,588.31L683.30,579.30L679.30,570.30L684.16,561.16L669.02,551.02L682.87,533.87L686.66,535.66L670.58,555.58L663.53,553.53L656.51,577.51L665.52,593.52L659.43,579.43L650.43,565.43 M652.89,561.89L639.67,561.67L626.78,561.78L614.21,562.21L601.46,562.46L588.51,562.51L575.27,562.27L561.92,561.92L548.46,561.46L535.28,561.28 M540.44,561.44L536.48,559.48L550.21,568.21L564.03,569.03L570.82,572.82L571.38,569.38L558.41,580.41L561.38,594.38L568.17,608.17L577.83,620.83L585.48,634.48L593.60,648.60L601.75,662.75L609.82,676.82L617.83,679.83L619.87,694.87L627.97,694.97L629.06,709.06L637.26,723.26L653.59,737.59L657.60,751.60L661.78,763.78L668.88,777.88L676.04,791.04L684.14,792.14L683.40,800.40 M678.98,802.98 M678.26,795.26 M679.50,790.50 M678.67,789.67L665.73,802.73 M653.14,803.14 M648.93,802.93L634.87,802.87L621.76,801.76L614.65,801.65L600.53,802.53L586.43,789.43L579.49,774.49L566.03,765.03L563.56,751.56L561.24,744.24L546.99,716.99L537.99,699.99L530.06,688.06L518.55,678.55L519.86,666.86L510.01,660.01L496.00,639.00L494.96,615.96L482.63,615.63L474.35,606.35L483.12,594.12L473.03,586.03 M476.56,581.56L484.66,595.66L491.72,609.72L498.69,623.69L504.65,634.65L510.76,648.76L511.98,662.98L519.20,677.20 M521.51,677.51 M511.01,654.01 M509.89,646.89 M509.68,646.68 M497.67,634.67 M494.72,631.72 M497.84,627.84 M496.22,620.22 M483.90,607.90 M482.35,606.35 M483.58,600.58 M484.07,595.07 M484.03,595.03 M463.41,593.41L467.53,581.53L454.56,589.56L461.51,608.51L463.46,614.46L473.27,635.27L480.20,666.20L494.25,690.25L502.43,692.43L503.75,710.75L513.78,737.78L525.72,751.72L534.62,757.62L538.66,776.66 M536.59,770.59 M540.20,762.20 M530.19,744.19L524.01,730.01L517.01,716.01L510.13,702.13L502.15,688.15L494.99,673.99L486.78,659.78L478.56,645.56L471.42,631.42L465.23,617.23L459.11,603.11L452.97,588.97L445.83,574.83 M444.14,581.14 M445.48,582.48 M443.23,586.23 M458.20,601.20 M456.22,606.22 M458.17,608.17 M457.86,613.86 M469.59,632.59 M469.82,632.82 M470.12,639.12 M475.39,641.39L488.30,664.30 M483.74,665.74 M484.37,660.37 M483.34,659.34 M495.31,677.31 M496.63,685.63 M496.81,685.81 M497.69,692.69 M510.77,705.77 M512.61,710.61L526.72,738.72 M524.37,739.37 M521.72,736.72 M523.19,731.19 M509.74,717.74 M510.81,712.81 M509.58,711.58 M535.94,704.94 M540.74,701.74L547.61,715.61L555.51,729.51L563.49,743.49L564.64,757.64L571.59,771.59 M574.91,769.91 M573.58,775.58 M574.45,776.45 M580.03,787.03L574.68,778.68L573.35,764.35L557.38,748.38L551.57,734.57L542.56,720.56L535.41,706.41L528.50,692.50L526.48,683.48L522.42,669.42L515.40,655.40L499.52,640.52L492.69,626.69L487.79,612.79L470.65,603.65L477.57,602.57L469.57,588.57L471.51,575.51L469.55,562.55L483.38,546.38L478.35,545.35L494.50,537.50L504.69,526.69L507.69,519.69L499.74,516.74L500.95,502.95L494.11,489.11L493.04,475.04 M481.94,468.94 M491.58,459.58L490.76,468.76L484.02,470.02L484.18,484.18L484.18,498.18L474.98,511.98L465.14,534.14L461.35,548.35 M457.32,555.32L470.50,542.50L483.99,529.99L497.18,517.18 M495.47,515.47L482.51,515.51 M484.39,504.39L497.21,504.21 M496.91,503.91L483.85,516.85L470.53,529.53 M469.84,528.84L482.59,528.59 M482.47,534.47L469.71,534.71 M469.95,527.95L469.83,513.83L473.84,499.84L472.87,485.87 M470.42,509.42L483.36,509.36L496.60,509.60 M496.26,496.26 M509.72,522.72L496.87,522.87L483.93,522.93L470.93,522.93 M469.75,541.75 M470.63,548.63L457.59,548.59L444.61,548.61L431.85,548.85L418.94,548.94 M419.05,543.05 M418.00,542.00 M417.23,534.23L404.12,534.12L391.24,534.24L378.26,534.26 M379.98,529.98L366.74,542.74 M365.46,541.46 M366.83,548.83 M364.85,552.85L371.81,566.81L379.70,582.70L379.72,596.72 M372.24,587.24L379.00,575.00L375.94,561.94L361.02,549.02L367.93,543.93L358.74,539.74L359.64,525.64 M355.19,521.19L337.16,529.16L342.11,543.11L357.19,556.19L353.47,576.47L352.70,584.70 M354.53,582.53 M353.67,581.67 M352.85,573.85 M346.19,554.19L342.21,545.21L338.01,520.01L327.72,538.72L316.41,529.41L315.28,522.28L309.30,522.30L289.31,541.31L303.24,564.24L317.95,576.95L328.78,572.78L333.81,586.81L337.11,602.11 M335.31,599.31L327.18,585.18L321.15,571.15L320.86,556.86L312.54,554.54L310.40,546.40L314.44,541.44L310.50,527.50L301.37,529.37 M301.23,529.23 M302.01,530.01L315.05,517.05L328.01,504.01 M327.53,503.53L314.56,503.56L301.67,503.67L288.84,503.84L275.86,503.86 M275.97,509.97L289.20,497.20 M300.62,495.62L287.69,508.69 M288.76,516.76L301.90,503.90 M302.05,517.05L315.13,504.13 M327.62,496.62L314.34,496.34L301.12,496.12L287.71,495.71L274.29,495.29L260.98,494.98L248.21,495.21L235.44,495.44L222.98,495.98L210.81,496.81L198.32,497.32L185.43,497.43L172.73,497.73L160.07,498.07L147.31,498.31L134.50,498.50L121.10,498.10L107.66,497.66L94.23,497.23L80.87,496.87L67.51,496.51L54.20,496.20L40.99,495.99L27.88,495.88L14.87,495.87L2.04,496.04 M1.81,482.81L14.81,482.81L27.98,482.98L41.03,483.03L53.95,482.95L66.87,482.87L80.30,483.30L93.62,483.62L106.89,483.89L119.96,483.96L132.66,483.66L146.06,484.06L159.28,484.28L172.32,484.32L185.24,484.24L198.17,484.17L210.69,483.69L223.12,483.12 M225.72,490.72L231.73,488.73 M236.70,477.70 M248.74,482.74L261.87,482.87L274.64,482.64L287.73,482.73L301.06,483.06 M301.05,490.05L287.92,489.92L274.80,489.80L261.69,489.69 M263.83,484.83 M262.41,477.41L275.59,477.59L288.67,477.67 M289.03,471.03L275.87,470.87L262.84,470.84L249.88,470.88L237.00,471.00L224.15,471.15L211.43,471.43L198.34,471.34L184.90,470.90L171.23,470.23L157.58,469.58L143.97,468.97L131.04,469.04L118.05,469.05L105.30,469.30L92.32,469.32L79.12,469.12L66.20,469.20L53.46,469.46L40.64,469.64L27.67,469.67L14.58,469.58L1.60,469.60 M1.45,456.45L14.42,456.42L27.66,456.66L40.95,456.95L54.27,457.27L67.67,457.67L81.13,458.13L94.43,458.43L107.59,458.59L120.77,458.77L133.81,458.81L146.63,458.63L159.20,458.20L172.12,458.12L185.23,458.23L198.13,458.13L211.01,458.01L224.06,458.06L237.13,458.13L250.32,458.32L263.57,458.57 M262.88,470.88 M250.49,465.49 M240.46,450.46L225.48,439.48L230.47,445.47L228.56,447.56L243.65,445.65L252.56,402.56L266.37,381.37L280.12,372.12 M274.04,365.04 M270.91,358.91L250.64,355.64L260.45,335.45L233.05,334.05L223.80,322.80L218.70,305.70L247.49,300.49L224.57,290.57L218.63,278.63L214.69,268.69L190.71,251.71L199.61,246.61L231.91,235.91L226.20,227.20L226.49,209.49L220.77,192.77L215.03,187.03L228.03,169.03L213.01,161.01L201.94,153.94L185.92,154.92L185.10,149.10L171.05,145.05L163.80,115.80L165.69,120.69L151.70,119.70L138.92,128.92 M141.71,123.71L139.98,107.98L154.30,108.30L133.34,98.34L123.10,116.10L125.94,117.94L136.93,132.93L136.81,139.81L157.79,144.79L178.05,155.05L196.16,161.16L210.13,169.13L210.01,159.01L213.91,153.91L225.83,138.83L235.59,120.59L242.69,146.69L253.69,114.69L256.66,145.66L250.55,159.55L241.63,180.63 M235.61,183.61L222.89,183.89L209.96,183.96L196.89,183.89 M197.67,178.67L184.63,178.63 M187.51,175.51L178.53,173.53L183.72,160.72L197.91,151.91L210.02,142.02L224.95,145.95 M230.92,151.92L230.00,133.00L230.10,119.10L220.29,126.29L223.30,112.30L244.14,113.14L248.23,99.23L269.22,88.22L259.25,80.25L249.28,76.28L235.31,85.31L225.25,88.25 M224.43,94.43L237.30,94.30 M235.27,92.27 M236.73,87.73 M236.05,80.05L223.20,93.20L210.22,106.22 M211.91,107.91 M214.87,100.87L211.97,86.97L219.03,73.03L223.00,56.00L229.97,41.97L233.83,27.83 M237.03,42.03 M239.01,52.01L228.96,65.96L244.51,65.51L226.01,71.01L234.51,78.51L228.31,80.31L229.40,91.40L246.50,94.50L226.51,105.51 M223.18,113.18L210.00,113.00L196.88,112.88 M211.34,120.34L224.43,120.43L237.42,120.42L250.37,120.37 M247.72,117.72 M250.45,107.45 M261.75,86.75 M263.36,81.36 M261.54,79.54L248.06,79.06L234.82,78.82 M224.82,75.82 M223.78,67.78L210.79,67.79 M222.26,66.26L235.28,53.28 M248.24,53.24 M249.37,54.37L236.32,54.32L223.39,54.39L210.31,54.31 M199.65,56.65L198.42,70.42 M197.31,80.31 M197.91,80.91 M196.49,86.49L183.40,86.40L170.48,86.48 M172.65,81.65L159.89,81.89L146.95,81.95 M132.28,79.28L137.25,80.25L144.07,76.07L150.84,79.84L154.59,58.59L158.30,83.30L164.23,75.23L178.26,84.26L184.33,91.33L195.35,89.35L203.30,63.30L209.25,94.25L217.48,73.48L224.60,71.60L229.68,58.68L240.67,63.67L250.51,68.51L263.48,36.48L267.48,62.48L269.49,53.49L275.46,68.46L284.37,47.37L286.39,31.39L301.31,35.31L309.15,26.15L297.30,47.30L297.35,58.35L296.43,72.43L288.61,86.61L282.73,100.73L278.71,106.71L272.85,106.85L261.90,108.90L242.69,115.69L238.36,129.36L252.34,132.34L249.50,141.50L262.79,149.79L257.87,163.87L242.72,175.72L245.62,190.62L233.56,192.56L225.55,197.55L247.69,209.69L252.97,217.97L253.06,236.06L252.21,259.21L262.10,261.10L265.99,263.99L274.85,258.85L275.90,268.90L292.18,279.18L301.50,276.50L311.70,246.70L318.72,231.72L325.67,220.67L321.58,238.58L314.55,251.55L304.49,262.49L310.41,264.41 M301.92,275.92 M302.42,276.42 M288.44,288.44 M275.86,290.86L281.76,284.76L295.54,289.54L302.36,299.36L313.16,317.16 M301.29,314.29L288.23,314.23L275.30,314.30L262.58,314.58L249.98,314.98L237.27,315.27L223.98,314.98L210.88,314.88L197.80,314.80L184.58,314.58L171.66,314.66L158.78,314.78L145.87,314.87L133.02,315.02L120.37,315.37L107.33,315.33L94.34,315.34L80.89,314.89L67.58,314.58L54.29,314.29L41.32,314.32 M32.47,317.47L33.71,326.71L57.62,298.62L68.49,305.49L73.53,302.53 M80.28,301.28L93.08,301.08L105.95,300.95L118.76,300.76L131.64,300.64L144.53,300.53 M131.28,307.28L144.34,307.34L157.79,307.79L171.07,308.07L184.29,308.29L197.50,308.50 M204.64,317.64L202.52,319.52L216.26,320.26L230.00,321.00L233.88,325.88L247.79,329.79L265.56,329.56 M261.84,339.84 M263.61,341.61 M273.75,350.75L256.73,339.73L230.64,342.64L216.43,349.43L202.35,353.35L188.41,358.41L174.31,362.31L160.05,365.05L145.87,367.87L131.95,372.95L118.24,378.24L104.45,384.45L90.51,388.51L86.45,392.45 M84.65,389.65L82.67,403.67L85.76,402.76L87.77,411.77L83.69,425.69L87.62,426.62L85.73,437.73L88.66,438.66L86.78,452.78L76.14,467.14L77.34,483.34L77.44,497.44L63.31,522.31L70.13,540.13L65.87,547.87L69.72,556.72L78.48,569.48L82.37,583.37L91.29,592.29L93.13,600.13 M94.96,608.96L107.72,608.72L120.05,608.05L132.55,607.55L145.23,607.23L157.97,606.97L170.59,606.59L183.54,606.54 M183.80,619.80L171.08,620.08L158.24,620.24L145.42,620.42L132.48,620.48 M132.79,626.79L119.11,626.11L106.03,626.03L92.70,625.70L79.49,625.49L66.46,625.46L53.36,625.36 M54.78,620.78 M46.90,618.90L42.98,615.98L55.13,621.13L54.19,635.19L47.07,634.07L47.01,653.01L61.25,653.25L54.33,673.33L62.33,681.33L67.29,683.29L82.39,672.39L84.45,673.45L81.35,687.35L84.28,688.28L75.28,701.28L80.08,719.08L73.29,722.29L69.34,727.34L63.35,734.35 M67.77,730.77 M66.28,729.28 M55.07,718.07L42.07,718.07 M43.93,716.93L42.98,706.98L40.00,711.00L44.00,718.00L58.13,713.13L63.24,726.24L76.24,730.24L80.34,722.34L93.61,714.61L115.88,726.88L124.07,736.07L136.27,720.27L135.16,726.16L142.96,733.96L150.69,733.69L156.34,742.34L163.28,740.28L176.04,743.04L184.85,742.85L186.70,756.70L190.83,764.83L198.75,769.75L202.09,787.09L207.21,790.21L207.14,800.14L222.08,798.08 M222.95,801.95 M217.94,794.94L218.57,778.57L213.52,769.52L221.49,753.49L212.86,744.86L219.96,732.96L224.76,728.76L228.51,727.51 M224.12,725.12L237.07,725.07 M236.25,717.25 M237.05,712.05 M235.40,703.40 M249.70,691.70 M250.70,686.70 M249.64,685.64 M249.84,678.84 M237.98,666.98L224.95,666.95L211.53,666.53L197.93,665.93L184.41,665.41L171.49,665.49L158.77,665.77L145.99,665.99L133.15,666.15L120.43,666.43 M132.25,659.25 M144.11,671.11 M132.14,678.14L145.49,678.49L158.91,678.91L172.15,679.15 M179.44,672.44L179.28,686.28L196.37,689.37L201.37,686.37L228.19,699.19L212.19,698.19L232.09,701.09L232.21,715.21L242.22,718.22L265.29,716.29L271.18,730.18L275.15,744.15L292.84,746.84L288.76,760.76 M276.91,757.91L289.79,757.79L302.76,757.76 M313.17,752.17L325.91,761.91 M328.11,770.11 M328.86,783.86 M336.52,792.52L330.68,784.68L330.62,769.62L322.50,766.50L321.41,758.41L315.35,754.35L318.18,741.18L310.27,735.27L305.36,727.36L311.50,720.50L299.60,706.60L302.75,692.75L290.66,694.66L271.70,677.70L262.77,684.77L235.87,691.87L226.03,682.03L224.40,661.40L215.75,662.75L206.95,667.95L203.04,653.04L219.87,657.87 M226.24,657.24L219.30,671.30L202.32,675.32L220.40,684.40L211.58,706.58L203.44,717.44L205.44,730.44L206.31,735.31L206.22,749.22L211.07,755.07L209.10,767.10L183.95,775.95L178.91,789.91L188.80,798.80 M183.13,801.13 M182.76,793.76 M184.36,789.36L171.00,802.00 M159.39,803.39 M156.37,797.37L148.17,792.17L145.09,781.09L142.14,767.14L139.26,758.26L131.15,744.15L128.05,725.05L127.03,719.03L125.16,711.16L118.51,705.51L114.77,689.77L126.65,677.65L111.63,663.63L90.47,660.47L84.21,655.21L74.09,641.09 M80.66,639.66L93.67,639.67L106.65,639.65L119.60,639.60L132.57,639.57L145.62,639.62L158.86,639.86L172.32,640.32L185.56,640.56L198.62,640.62L211.82,640.82L224.69,640.69L237.49,640.49L250.47,640.47 M253.39,637.39L238.23,637.23L242.21,651.21L222.43,646.43L237.83,655.83L245.05,660.05L250.76,673.76L244.46,677.46L253.27,681.27L246.19,695.19L246.16,702.16L255.35,717.35L263.60,731.60L265.79,745.79L276.76,756.76L277.87,766.87 M276.06,764.06 M275.05,763.05 M276.57,770.57 M275.49,776.49 M262.38,782.38 M262.62,789.62 M261.39,794.39 M262.02,802.02 M271.83,793.83L253.03,788.03L266.01,787.01L259.25,778.25L254.42,764.42L270.53,755.53L246.57,755.57L242.33,741.33L249.13,733.13L248.90,734.90L238.70,718.70L228.71,699.71L217.84,710.84L208.87,694.87L186.89,702.89L161.04,703.04L143.16,711.16L142.21,703.21L129.32,704.32L117.58,678.58L105.61,691.61L100.37,677.37L93.13,663.13 M93.13,652.13L106.11,652.11L119.37,652.37L132.50,652.50L145.66,652.66L158.62,652.62L171.30,652.30L184.12,652.12L197.01,652.01L209.79,651.79L222.51,651.51L235.75,651.75 M236.02,646.02 M235.12,645.12 M227.01,665.01L233.01,679.01L235.19,693.19L234.26,718.26L241.21,731.21L229.21,749.21L232.45,763.45L234.62,777.62L243.47,791.47 M236.89,789.89 M235.98,801.98 M248.98,801.98 M276.99,803.99 M288.74,802.74 M288.45,800.45L302.67,802.67 M301.76,802.76 M303.80,795.80L302.71,786.71L306.81,785.81L307.14,773.14L296.97,765.97L298.61,751.61L291.44,738.44L292.39,725.39L286.42,714.42L282.15,700.15L276.87,685.87L293.67,677.67L290.65,664.65L285.62,654.62L275.63,652.63L273.69,638.69L270.82,621.82L256.93,617.93L227.00,607.00L235.05,599.05L220.12,591.12L247.36,580.36L257.78,564.78L269.78,551.78L258.71,531.71L246.72,525.72L248.68,526.68L235.63,537.63L224.67,540.67L210.65,528.65L196.57,521.57L182.47,509.47L168.24,504.24L172.07,510.07 M171.61,509.61 M158.08,509.08L171.15,496.15L184.29,483.29 M183.79,489.79L170.75,489.75L157.99,489.99L145.46,490.46L132.72,490.72L119.77,490.77L107.15,491.15L94.14,491.14L81.34,491.34L68.34,491.34L55.31,491.31L42.47,491.47 M42.36,497.36 M41.92,509.92 M40.54,515.54L53.46,515.46L66.44,515.44L79.31,515.31 M80.43,509.43L67.77,509.77L54.77,509.77L42.02,510.02L29.30,510.30L16.39,510.39L3.52,510.52 M2.80,522.80L16.09,523.09L29.25,523.25L42.39,523.39L55.35,523.35L67.97,522.97L81.33,523.33 M81.19,523.19 M80.70,529.70L67.86,529.86L54.80,529.80 M42.90,540.90L52.93,560.93L76.15,569.15L93.29,552.29L105.33,564.33L119.08,565.08L133.13,564.13L146.84,561.84L160.80,559.80L175.07,559.07L188.13,563.13L202.02,562.02L215.64,561.64L229.53,549.53 M236.13,548.13 M236.52,548.52L249.75,548.75L262.74,548.74L275.64,548.64L288.73,548.73 M289.13,536.13L276.23,536.23L263.12,536.12L250.20,536.20L237.63,536.63L224.81,536.81 M223.08,529.08L236.20,529.20 M237.80,536.80 M236.83,542.83L249.79,542.79L262.76,542.76 M248.88,554.88L236.07,555.07 M235.33,560.33L222.22,573.22L209.30,586.30 M209.59,593.59L222.66,580.66L235.88,567.88 M237.61,562.61L250.58,562.58 M249.23,568.23L236.55,568.55L224.05,569.05L211.72,569.72L198.96,569.96L185.83,569.83L172.55,569.55L159.36,569.36L146.32,569.32L133.18,569.18L119.82,568.82L106.41,568.41L93.34,568.34L80.59,568.59L67.52,568.52 M62.75,572.75L63.65,586.65L80.92,601.92 M80.89,600.89L67.89,600.89L54.79,600.79L41.85,600.85L28.87,600.87 M28.35,594.35 M15.33,587.33 M15.73,574.73L28.70,574.70L41.61,574.61L54.52,574.52L67.47,574.47L80.49,574.49L93.56,574.56L106.69,574.69L119.78,574.78L133.03,575.03L146.20,575.20L158.89,574.89L171.79,574.79L184.73,574.73L197.65,574.65L210.59,574.59L223.66,574.66L236.86,574.86L250.25,575.25 M239.44,573.44 M235.98,580.98L222.84,580.84L209.54,580.54L196.35,580.35L183.52,580.52L170.75,580.75L157.94,580.94L145.09,581.09L132.39,581.39L119.66,581.66L107.00,582.00L94.02,582.02L80.65,581.65L67.40,581.40 M68.85,588.85 M81.16,595.16L94.13,595.13L107.34,595.34L120.43,595.43L133.42,595.42L146.33,595.33L158.95,594.95L171.64,594.64L184.46,594.46L197.38,594.38L210.22,594.22L223.44,594.44 M224.39,601.39L211.20,601.20L198.11,601.11L184.99,600.99L171.92,600.92L158.90,600.90L145.98,600.98L133.16,601.16L120.43,601.43L107.44,601.44 M117.77,598.77L131.16,586.16L144.49,573.49 M131.56,573.56L118.44,586.44 M105.69,586.69L118.62,573.62 M106.21,574.21L93.32,587.32 M92.79,573.79 M91.55,559.55L89.64,554.64L88.82,540.82 M81.27,543.27L68.43,543.43L55.77,543.77L43.00,544.00 M41.35,555.35L54.65,555.65L67.67,555.67L80.45,555.45 M80.73,561.73 M80.69,548.69L68.17,549.17L55.24,549.24L42.32,549.32L29.28,549.28L16.06,549.06L2.66,548.66 M8.39,558.39L13.56,572.56L6.71,580.71L21.65,588.65L25.33,599.33L40.23,607.23L19.17,621.17L21.03,647.03L24.77,660.77L22.47,671.47L30.17,674.17L31.31,688.31L38.54,690.54L46.62,691.62L25.56,706.56L29.54,725.54L39.67,739.67L53.59,741.59L39.46,762.46L50.23,779.23 M53.98,775.98 M55.78,764.78L42.66,764.66 M42.34,770.34 M57.48,759.48L48.51,763.51L54.55,758.55L56.50,771.50L63.43,768.43 M53.28,742.28 M41.86,737.86 M28.69,730.69L15.72,730.72 M16.78,730.78L13.60,716.60 M10.78,711.78L8.72,725.72 M15.75,724.75 M15.01,750.01 M41.07,711.07 M40.53,703.53 M40.96,690.96 M42.29,679.29 M41.38,678.38 M36.78,670.78L47.61,684.61L60.71,680.71L71.74,706.74 M70.60,700.60L70.79,684.79L66.71,677.71L72.55,660.55L67.67,656.67L51.50,640.50L49.38,635.38L32.31,629.31L24.30,622.30L17.30,608.30 M14.90,606.90 M9.48,604.48L26.54,602.54L40.66,605.66L45.80,617.80L48.83,613.83L61.83,637.83L70.97,642.97L78.29,673.29L90.45,680.45L98.48,663.48L112.51,664.51L121.76,692.76L131.96,690.96L145.86,689.86L154.49,700.49L160.52,687.52L165.57,696.57L168.94,720.94L180.00,726.00L192.85,717.85L200.78,676.78L212.67,682.67L216.51,686.51L211.24,716.24L218.81,692.81L217.47,729.47L227.56,736.56L235.47,749.47L252.30,718.30L259.08,714.08L264.11,730.11L270.11,725.11L284.42,745.42L291.64,760.64L296.71,764.71L305.87,770.87L313.12,795.12L327.57,800.57L341.82,797.82L347.88,802.88L361.90,802.90 M367.32,803.32 M379.15,802.15 M387.97,791.97L384.08,780.08L380.40,767.40L376.70,753.70L365.86,739.86L364.06,727.06L361.47,715.47L357.66,707.66L352.69,697.69L343.62,686.62L330.51,655.51L325.61,638.61L318.67,622.67L312.61,609.61L307.44,594.44L301.03,585.03L289.85,554.85L278.73,540.73L270.38,531.38L255.88,532.88L243.80,537.80L232.95,527.95L229.93,530.93L225.91,521.91L223.96,519.96L213.03,518.03L219.11,506.11L208.96,488.96L212.96,488.96L216.09,485.09L215.98,470.98L210.24,459.24L204.44,455.44L211.75,448.75L229.08,443.08L232.39,436.39L232.64,425.64L243.69,421.69L236.84,419.84L229.18,414.18L240.39,413.39L252.32,399.32L256.22,395.22L245.15,393.15L241.09,390.09L260.03,390.03L266.75,375.75L261.32,354.32L260.92,336.92L259.65,341.65L256.75,318.75L254.62,337.62L247.65,335.65L239.87,331.87L226.29,336.29L206.51,326.51L195.69,333.69L186.69,323.69L176.59,327.59L168.28,325.28L162.15,335.15L148.16,334.16L144.33,327.33L130.42,327.42L119.42,347.42L110.52,342.52L108.71,337.71L95.91,349.91L95.03,358.03L81.16,358.16L93.21,358.21 M93.53,366.53L80.03,379.03L66.94,391.94 M55.18,387.18L68.28,387.28L81.27,387.27L94.41,387.41 M106.26,379.26 M118.92,378.92L105.89,378.89L92.60,378.60L79.87,378.87L66.83,378.83L54.11,379.11L41.38,379.38L28.64,379.64L15.62,379.62 M4.98,374.98L3.86,360.86 M2.08,353.08L15.25,353.25 M24.71,352.71L28.66,346.66L18.60,343.60L13.49,329.49L27.48,323.48L8.77,314.77L35.83,311.83L34.65,296.65L23.57,281.57L16.53,276.53L37.60,264.60L55.51,259.51L63.30,244.30L61.39,238.39L55.41,230.41L52.49,216.49L54.60,202.60L50.73,178.73L62.76,177.76L39.69,183.69L39.82,172.82L31.90,168.90L16.96,161.96L3.15,161.15 M2.43,165.43L15.45,165.45 M16.40,172.40L2.32,168.32 M7.08,182.08L10.98,193.98L21.05,198.05 M16.70,198.70 M15.85,191.85L2.73,191.73 M2.93,198.93L14.85,193.85L16.88,216.88L30.87,221.87L35.86,228.86L31.79,229.79L47.57,235.57L47.23,244.23L57.94,264.94L52.65,273.65L48.46,291.46L49.54,298.54L45.86,308.86L39.35,327.35L36.86,339.86L28.12,336.12L32.41,343.41 M28.22,340.22 M26.86,332.86 M28.17,327.17L41.11,327.11L54.18,327.18L67.36,327.36L80.53,327.53L93.81,327.81L106.59,327.59L119.48,327.48L132.28,327.28L144.96,326.96L157.72,326.72L171.00,327.00L183.98,326.98L197.26,327.26L210.97,327.97L224.27,328.27L237.30,328.30L250.30,328.30L263.39,328.39L276.52,328.52 M286.71,339.71L263.81,344.81L273.14,335.14L283.97,326.97L273.61,308.61L251.44,308.44L255.39,305.39L269.42,295.42L282.15,292.15L291.87,277.87L287.67,270.67L284.65,258.65L284.62,246.62L287.63,237.63L288.69,232.69L296.82,229.82L298.93,215.93L304.00,207.00L310.05,203.05L313.12,191.12L317.36,176.36L323.78,166.78L322.78,166.78L302.71,168.71L285.72,135.72L277.68,159.68L260.63,141.63L255.67,120.67L247.65,114.65L237.57,157.57L228.47,163.47L222.24,191.24L216.07,217.07L215.27,200.27L203.31,201.31L197.34,211.34L186.54,177.54L184.78,170.78L175.86,178.86L170.03,173.03L167.17,176.17L157.18,177.18L154.22,162.22L144.27,147.27L137.14,135.14L131.90,145.90L126.76,137.76L112.77,141.77L117.57,157.57L127.50,164.50L131.42,170.42L141.18,172.18L143.98,175.98 M157.70,170.70 M159.56,172.56L172.55,172.55L185.50,172.50 M184.51,158.51L197.69,158.69L210.71,158.71L223.77,158.77L236.98,158.98 M235.33,157.33 M237.22,153.22 M240.58,159.58L247.38,150.38L242.13,136.13L243.99,106.99L230.80,114.80L223.62,109.62L206.47,127.47L189.35,125.35L188.36,138.36L194.52,130.52L157.72,127.72L179.71,109.71L183.69,135.69L172.59,122.59L167.54,147.54L159.51,128.51L154.49,114.49 M146.96,120.96L133.83,120.83L120.80,120.80 M132.45,139.45 M145.20,145.20L158.16,145.16L171.36,145.36 M173.07,134.07L185.79,133.79L198.65,133.65 M184.82,132.82 M171.41,126.41 M171.32,113.32 M172.66,107.66L159.56,107.56L146.34,107.34 M145.23,102.23L144.14,97.14L158.02,98.02L168.87,98.87L174.75,94.75L188.60,100.60L190.42,115.42L199.33,114.33L200.32,130.32L204.35,115.35L219.42,116.42L225.22,91.22L238.03,102.03L245.06,82.06L256.28,83.28L266.68,79.68L275.76,96.76L286.08,93.08L295.51,69.51L307.96,43.96L306.01,49.01L318.96,64.96L310.51,78.51L306.01,92.01L304.51,105.51L299.31,117.31L291.40,122.40L291.50,136.50L283.51,150.51L273.48,164.48L271.51,167.51L250.53,177.53L257.72,185.72L256.91,199.91L264.02,207.02L251.95,204.95L253.06,217.06L264.17,198.17L269.30,175.30L273.39,180.39 M275.08,171.08 M274.04,170.04 M276.02,166.02 M275.68,154.68L280.56,140.56L289.35,126.35 M287.99,131.99 M287.40,138.40 M288.23,145.23 M300.69,157.69 M300.91,157.91 M302.85,166.85 M287.90,183.90 M288.24,191.24 M287.89,196.89 M289.72,204.72L281.70,218.70L275.52,232.52 M276.32,231.32 M275.50,223.50 M274.97,222.97 M270.84,223.84L276.58,208.58L285.61,194.61L297.77,179.77L296.93,172.93L304.06,167.06L301.27,160.27L312.17,146.17L313.25,137.25L313.04,130.04L322.10,128.10L325.34,114.34L330.56,106.56L329.62,92.62L340.76,82.76L337.82,77.82L330.74,52.74L334.57,38.57 M326.39,47.39 M326.34,53.34 M326.94,53.94 M314.64,67.64 M313.54,73.54 M313.09,79.09 M314.79,80.79 M313.02,86.02 M311.64,95.64L298.48,117.48L289.38,129.38L270.28,111.28L253.07,135.07L232.95,169.95L218.92,156.92L214.77,137.77L204.60,120.60L183.60,95.60L194.80,88.80L193.83,80.83L204.00,80.00L208.15,66.15L217.11,67.11L203.05,61.05L188.24,57.24L169.59,71.59L173.81,83.81L170.93,81.93L172.87,93.87 M170.94,92.94 M159.00,101.00 M133.14,101.14 M133.31,75.31 M119.08,54.08 M157.19,60.19 M158.29,67.29 M159.93,68.93L172.72,68.72 M183.05,62.05L188.80,53.80L190.70,48.70L190.49,34.49 M198.64,49.64 M210.93,41.93 M211.05,42.05 M222.69,60.69 M248.55,60.55 M263.72,42.72 M263.74,36.74 M276.35,49.35 M274.83,53.83 M275.87,54.87 M275.07,67.07 M290.90,63.90L283.74,77.74L271.65,91.65L255.64,104.64L253.74,126.74L264.68,127.68L265.48,147.48 M262.33,145.33 M261.36,144.36L248.41,144.41L235.31,144.31 M235.40,144.40 M249.84,139.84L262.91,139.91 M269.88,132.88L274.93,118.93 M273.33,117.33 M275.02,113.02 M274.60,105.60 M274.14,105.14 M276.75,120.75 M299.68,104.68 M302.96,107.96 M301.16,100.16 M287.82,79.82 M287.02,79.02 M301.78,54.78 M301.07,54.07 M300.82,47.82 M302.47,42.47L289.18,42.18 M302.31,42.31 M347.52,55.52L349.55,69.55 M339.84,79.84 M339.90,79.90 M339.32,86.32 M341.57,86.57L334.64,100.64 M326.43,105.43 M326.31,105.31 M327.47,119.47 M314.68,132.68 M314.12,132.12 M313.62,138.62 M340.28,139.28 M340.91,145.91 M352.17,157.17 M353.74,165.74 M354.03,172.03 M365.92,154.92L372.13,141.13 M366.09,139.09 M367.32,133.32 M376.22,129.22L363.13,143.13L353.20,157.20L358.30,172.30L347.36,175.36L347.49,183.49L342.43,194.43L335.18,198.18L333.02,205.02L321.91,217.91L329.92,217.92L325.91,231.91L314.79,245.79 M313.85,242.85 M309.85,244.85L316.88,230.88L324.86,216.86 M327.88,217.88 M328.10,224.10 M341.23,205.23 M339.39,190.39 M313.79,190.79 M313.91,196.91 M302.37,218.37 M304.54,220.54L307.59,213.59L282.61,232.61L269.58,243.58L264.65,237.65L237.84,235.84L247.23,235.23L233.38,227.38L219.20,231.20L242.27,231.27 M248.80,235.80 M250.50,231.50 M263.67,237.67L250.54,237.54L237.39,237.39L224.55,237.55 M224.28,231.28 M217.80,218.80L210.75,208.75L195.73,200.73L198.86,186.86L208.03,181.03 M196.99,196.99 M197.68,197.68L184.30,197.30L170.94,196.94L157.56,196.56L144.29,196.29L131.23,196.23 M119.60,196.60L133.58,199.58L128.61,193.61L130.51,214.51L147.33,218.33L154.29,230.29L154.18,238.18L152.96,246.96 M158.20,243.20 M157.77,235.77L145.31,236.31L132.32,236.32 M129.99,236.99L137.20,251.20 M131.49,255.49 M144.08,248.08 M122.47,242.47L118.62,243.62L130.80,254.80L127.99,249.99L112.13,245.13 M106.27,262.27L119.24,262.24L132.17,262.17L145.10,262.10L158.05,262.05L170.78,261.78L184.04,262.04L197.23,262.23 M208.71,273.71 M210.51,275.51L223.64,275.64 M236.20,282.20 M235.80,287.80 M236.22,301.22L223.17,301.17L210.34,301.34L197.48,301.48L184.54,301.54L171.73,301.73 M181.74,300.74L183.73,291.73L190.69,289.69L206.49,289.49 M209.64,287.64L197.07,288.07L184.46,288.46L171.71,288.71L158.70,288.70L145.88,288.88L133.05,289.05L120.15,289.15L107.17,289.17L94.23,289.23 M87.86,285.86L100.87,273.87L100.91,263.91L91.91,252.91L84.84,243.84L80.80,236.80L78.62,228.62L65.81,207.81L63.82,202.82L39.66,198.66L31.69,191.69 M42.01,192.01 M42.53,198.53 M41.94,217.94L29.37,218.37L16.62,218.62 M8.33,220.33L9.09,207.09L13.09,206.09L27.13,214.13L41.11,216.11L55.04,222.04L65.83,237.83L80.51,225.51L87.24,240.24L97.15,250.15L97.14,267.14L107.02,270.02L111.99,248.99L124.13,259.13L132.43,235.43L141.67,256.67L160.73,243.73L159.55,250.55L168.55,250.55L172.67,250.67L183.82,238.82L188.64,249.64L199.55,246.55L206.55,235.55L203.68,255.68L213.59,253.59L217.28,272.28L228.12,273.12L227.20,285.20L227.41,290.41L246.44,302.44L248.36,305.36L257.00,307.00L254.81,293.81L259.91,327.91L269.05,335.05L270.17,331.17L281.43,365.43L293.84,349.84L298.29,342.29L302.25,338.25L315.19,317.19L330.98,318.98L337.01,302.01L348.12,293.12L354.22,270.22L365.32,260.32L368.40,245.40L383.39,226.39L388.33,208.33L399.32,200.32L406.30,189.30L416.11,159.11L423.92,159.92L425.85,141.85L436.66,126.66L431.75,132.75L427.88,152.88L419.01,167.01L405.11,179.11L403.41,193.41L397.29,198.29L391.01,206.01L386.74,219.74L378.58,232.58L371.58,236.58L370.41,247.41L361.24,254.24L357.15,268.15L348.09,280.09L344.15,294.15L340.22,302.22L330.22,312.22L332.28,322.28L326.40,332.40L325.54,329.54 M299.78,343.78L286.78,306.78L272.71,308.71L264.72,289.72L258.68,279.68L252.63,293.63L238.67,292.67L224.65,308.65L217.57,303.57L203.47,301.47L189.24,299.24L180.07,303.07L177.27,296.27L163.31,297.31L149.34,303.34L135.54,311.54L131.78,305.78L117.86,311.86L112.03,319.03L98.17,327.17L82.18,341.18L93.22,327.22 M92.33,333.33L105.28,333.28 M92.80,346.80L105.93,346.93L118.71,346.71L131.68,346.68L144.74,346.74L157.88,346.88L170.91,346.91L184.24,347.24L197.65,347.65L211.21,348.21L224.47,348.47 M223.24,340.24 M210.00,340.00L196.76,352.76 M184.29,353.29 M171.73,353.73 M170.81,359.81L157.61,359.61L144.56,359.56L131.75,359.75L119.33,360.33L106.58,360.58L93.59,360.59L80.43,360.43 M67.57,353.57 M66.50,346.50 M41.67,353.67L54.75,353.75L67.97,353.97L81.11,354.11L94.05,354.05L107.02,354.02L120.04,354.04L133.45,354.45L146.54,354.54L159.40,354.40L172.35,354.35L185.36,354.36L197.96,353.96L210.80,353.80 M198.01,367.01L184.83,366.83L171.75,366.75L158.78,366.78L145.81,366.81L132.59,366.59L118.98,365.98L105.79,365.79L92.88,365.88L79.66,365.66L66.95,365.95L54.31,366.31L41.55,366.55L28.69,366.69L15.93,366.93 M2.09,373.09 M2.63,392.63L15.54,392.54L28.35,392.35L41.35,392.35L54.39,392.39L66.94,391.94L80.18,392.18 M80.64,392.64L93.52,379.52L106.43,366.43L119.33,353.33 M129.01,341.01L117.85,336.85L98.64,343.64L76.54,359.54L71.58,380.58L68.65,394.65L67.65,408.65L67.67,422.67L67.82,436.82 M60.64,427.64L62.63,441.63L62.62,455.62L69.73,469.73L70.76,483.76L66.58,486.58 M79.29,482.29L92.36,469.36L105.76,456.76 M92.96,456.96L79.69,469.69 M81.05,478.05L94.00,478.00L106.81,477.81L119.82,477.82L132.80,477.80L145.66,477.66L158.90,477.90L171.90,477.90L185.02,478.02L198.42,478.42 M209.78,463.78L197.03,464.03L184.09,464.09L171.01,464.01L157.96,463.96L145.00,464.00L132.14,464.14L119.17,464.17L106.11,464.11L93.19,464.19L80.39,464.39L67.70,464.70L55.11,465.11 M55.00,478.00 M44.92,482.92L43.77,480.77L27.78,472.78L41.85,469.85L40.91,456.91L40.11,450.11L46.17,462.17L46.21,482.21L40.14,490.14L40.09,504.09L39.14,518.14L42.14,532.14L42.05,546.05L42.21,560.21L50.58,560.58L57.72,565.72L59.60,576.60L51.43,578.43L56.24,567.24L64.97,584.97L70.84,592.84L79.79,601.79L90.88,599.88L95.96,610.96L106.98,613.98L116.01,611.01L126.02,614.02L128.86,600.86L138.69,604.69L147.56,612.56L161.53,607.53L184.45,598.45L188.82,606.82L201.01,614.01L212.05,624.05L222.15,614.15L228.82,610.82L244.26,626.26L239.93,702.93L243.83,753.83L250.69,765.69L273.84,750.84L276.00,716.00L283.11,723.11L292.11,737.11L304.16,728.16L309.32,720.32L316.55,740.55L323.61,787.61L330.55,784.55L354.47,779.47L363.54,793.54L376.67,801.67L387.79,792.79L401.83,801.83L415.90,801.90L429.77,801.77L443.69,801.69L457.61,799.61L471.69,801.69L485.81,797.81L488.56,800.56L502.60,801.60L516.61,801.61L530.55,801.55L544.82,801.82L547.02,790.02L557.37,797.37L571.61,802.61L582.58,794.58 M587.09,795.09 M587.47,802.47 M600.10,802.10L613.15,789.15 M614.10,790.10 M613.20,782.20 M612.49,801.49 M626.56,799.56L617.73,795.73L611.06,789.06L606.38,775.38L602.30,769.30L602.35,755.35L595.46,755.46L590.54,741.54L586.64,727.64L585.81,733.81L583.73,723.73L569.63,700.63L558.41,693.41L546.12,667.12L531.86,656.86L524.35,630.35L509.86,604.86L497.54,583.54L495.46,569.46 M497.69,569.69L499.48,583.48L507.36,597.36L519.41,600.41L532.52,631.52L539.40,647.40L553.13,669.13L566.57,694.57L570.18,700.18L578.10,714.10 M574.62,711.62 M574.51,711.51 M573.89,716.89 M581.58,733.58L573.43,719.43L566.33,705.33L557.41,691.41L556.60,677.60L549.91,663.91L534.32,654.32L538.78,640.78L531.81,628.81L524.82,614.82L517.72,600.72L510.61,586.61L501.73,572.73 M497.80,575.80 M508.38,586.38 M509.51,594.51 M509.91,594.91 M508.50,599.50L516.41,613.41L522.56,627.56L531.57,641.57L540.38,659.38L549.35,673.35L554.68,687.68 M561.24,691.24 M587.26,685.26 M587.90,685.90 M587.61,678.61 M574.90,665.90 M574.57,659.57 M572.96,657.96 M574.14,656.14L588.14,680.14L602.05,703.05 M600.23,704.23 M608.75,710.75L599.68,696.68L582.66,680.66L574.87,666.87L567.36,653.36L559.58,639.58L552.61,625.61L543.40,611.40L536.47,597.47L527.76,583.76L523.67,569.67 M528.81,566.81L535.56,580.56L541.60,594.60L548.61,608.61 M548.09,613.09 M547.52,619.52 M548.69,620.69 M560.11,632.11 M560.13,632.13 M561.21,639.21 M586.50,632.50 M587.67,633.67 M587.57,626.57 M583.59,621.59L602.68,650.68L611.64,665.64 M613.13,672.13 M614.22,673.22 M614.39,679.39 M625.61,697.61 M626.75,698.75 M627.41,705.41 M633.90,703.90L641.65,717.65L645.25,735.25L653.02,749.02L672.91,768.91L677.85,782.85 M678.38,782.38 M674.03,774.03L663.00,767.00L661.97,753.97L648.83,744.83L645.89,733.89L640.77,717.77L626.74,701.74L620.85,685.85L614.16,672.16L600.11,647.11L590.28,644.28L582.54,630.54L569.87,615.87L569.02,592.02 M561.35,587.35 M560.03,593.03 M561.40,581.40L574.64,568.64L587.74,555.74 M588.13,549.13L574.86,548.86L561.62,548.62L548.50,548.50L535.39,548.39L522.46,548.46 M522.52,542.52 M527.43,536.43L516.64,534.64L511.73,523.73L525.75,536.75L530.67,535.67L539.64,536.64L544.66,523.66L555.71,531.71L560.64,535.64L564.56,537.56L573.48,541.48L588.44,543.44L587.59,546.59L591.74,544.74L605.92,552.92L605.16,546.16L615.27,548.27L620.36,554.36L630.49,556.49L637.63,541.63L651.78,537.78L654.61,544.61L664.71,530.71L678.74,539.74L680.49,557.49L689.33,569.33L698.32,561.32L702.33,537.33L710.27,546.27L709.20,549.20L721.98,559.98L724.95,573.95L739.01,583.01L737.07,621.07L746.20,630.20L749.47,626.47L737.31,614.31 M744.28,614.28 M745.61,617.61L722.29,603.29L722.19,595.19L710.21,593.21L705.11,612.11L698.81,598.81L684.78,587.78 M685.24,585.24L661.29,609.29L675.01,632.01L687.83,653.83L708.72,658.72L718.59,671.59L727.32,684.32L741.25,689.25L747.23,703.23L748.34,704.34L735.55,724.55L726.54,730.54L738.54,744.54 M742.67,742.67 M743.27,737.27 M741.94,748.94 M743.76,750.76 M731.66,731.66 M711.08,736.08L704.39,722.39L695.64,708.64L686.69,694.69L678.84,680.84L671.18,667.18L662.39,653.39 M651.77,651.77 M652.73,646.73 M651.37,645.37 M639.52,626.52 M625.74,612.74 M626.86,607.86 M625.62,606.62 M625.05,599.05 M613.59,587.59 M613.41,581.41L600.72,581.72L587.70,581.70L574.50,581.50L561.27,581.27 M568.83,582.83L571.92,596.92L579.00,611.00L587.08,625.08L594.20,639.20 M600.98,652.98 M620.77,643.77L628.72,657.72 M626.27,652.27 M625.98,645.98 M625.35,645.35 M617.62,638.62L627.65,659.65L648.67,681.67L662.87,707.87L677.15,730.15L694.42,729.42L681.39,734.39L688.44,748.44L693.61,755.61L702.97,769.97L708.14,784.14L713.81,788.81 M710.32,798.32L709.33,797.33L695.49,759.49L684.74,757.74L677.71,742.71L663.61,718.61L655.78,702.78L643.63,691.63L640.49,667.49L626.36,643.36L614.27,644.27L606.16,628.16L603.92,605.92L595.74,607.74L588.59,596.59L574.44,582.44L577.48,579.48 M573.77,580.77L586.81,567.81 M599.81,567.81L587.01,581.01 M593.13,582.13L599.02,596.02L601.64,608.64L603.53,617.53L611.65,617.65 M614.58,627.58 M599.62,612.62 M600.86,607.86 M599.68,606.68 M599.68,599.68 M590.42,597.42L580.37,583.37 M587.94,587.94 M596.03,585.03L597.77,582.77L610.49,589.49L621.20,604.20L627.91,625.91L639.61,622.61L643.71,639.71L653.69,643.69L655.63,659.63L669.57,682.57L674.49,677.49L688.70,700.70L702.80,722.80L703.05,750.05L713.45,755.45L721.64,771.64L729.91,783.91L724.32,769.32L734.64,783.64L743.73,796.73 M742.83,794.83 M742.54,801.54 M731.28,803.28 M717.56,802.56 M704.48,802.48 M690.79,801.79 M705.27,783.27 M702.84,779.84L689.14,765.14 M691.31,763.31 M691.93,763.93 M691.13,756.13 M677.61,742.61 M680.00,739.00 M679.13,738.13 M682.70,734.70L672.50,720.50L664.18,706.18L653.90,689.90 M652.46,691.46 M640.07,679.07 M638.77,671.77 M638.31,671.31 M666.82,666.82 M678.11,685.11 M679.47,686.47 M679.64,692.64 M675.91,691.91L687.90,710.90L711.77,690.77L719.50,702.50L732.22,693.22L720.75,692.75L720.42,703.42 M716.42,703.42 M716.66,710.66 M717.95,711.95 M704.71,724.71 M704.24,730.24 M707.37,732.37L721.62,752.62L735.78,777.78 M731.08,777.08 M730.53,776.53 M730.22,782.22 M744.10,781.10L731.07,767.07L724.22,755.22L718.31,761.31L719.44,745.44L741.44,734.44L744.58,740.58L742.40,751.40L736.32,740.32L725.30,732.30L723.24,734.24L718.22,717.22L707.23,699.23L699.19,672.19L689.07,668.07L674.96,644.96L664.30,628.30L650.56,606.56L637.62,601.62L625.47,592.47L631.21,574.21 M621.95,579.95L625.95,593.95L634.13,608.13L641.25,622.25L618.18,627.18L614.29,632.29L625.40,640.40L632.41,654.41L634.39,668.39L640.43,677.43L648.44,679.44L650.28,694.28L659.37,708.37L667.37,722.37L675.19,736.19L682.19,750.19L692.09,764.09L700.21,778.21 M717.91,756.91 M717.56,750.56 M707.70,742.70L695.50,728.50L691.18,714.18L681.90,698.90L672.85,684.85L664.99,670.99L656.10,657.10L652.21,648.21L651.06,636.06L641.97,634.97L633.69,620.69L624.55,606.55L612.56,594.56L601.62,580.62 M601.58,582.58L614.58,569.58 M612.02,580.02L625.01,567.01L638.22,554.22 M639.20,555.20L652.42,555.42 M639.73,548.73L652.60,548.60L665.48,548.48L678.29,548.29L690.91,547.91 M690.92,541.92L703.93,528.93L716.89,515.89 M717.02,516.02L704.06,516.06 M705.07,517.07 M705.77,510.77L718.80,510.80 M718.25,523.25L705.48,523.48 M704.09,529.09 M703.63,534.63L690.60,534.60 M690.44,539.44L690.13,529.13L695.97,514.97L696.90,500.90L704.02,487.02 M716.49,482.49 M717.98,477.98 M717.62,477.62 M723.00,475.00L729.01,489.01L717.82,497.82L728.78,502.78L718.98,519.98L722.03,529.03 M731.36,530.36 M729.96,534.96 M731.37,525.37L719.19,509.19L721.81,495.81L731.43,508.43L723.05,531.05L731.91,539.91L737.74,548.74 M742.82,547.82 M744.38,543.38 M745.54,542.54L739.64,538.64 M743.17,542.17 M748.44,547.44L750.50,557.50L748.37,561.37L734.28,548.28L735.22,541.22L725.15,529.15L730.14,523.14L719.24,509.24L700.39,506.39L703.60,499.60L707.74,485.74L711.90,471.90L713.98,457.98L715.98,443.98L717.90,433.90L715.90,419.90L730.94,411.94L712.99,404.99L712.54,387.54L707.19,382.19L702.05,377.05L698.08,370.08L696.01,359.01L708.16,348.16L729.13,334.13L742.13,320.13L729.06,323.06L726.94,335.94L713.08,342.08L706.24,352.24L697.24,332.24L679.23,349.23L691.24,335.24L702.26,322.26L714.23,308.23L727.41,294.41L742.64,269.64L731.68,272.68L727.62,257.62L718.48,272.48L704.19,288.19L689.81,301.81L684.63,312.63 M677.66,320.66 M651.68,281.68 M651.42,281.42 M665.08,275.08 M664.35,268.35 M652.99,249.99 M691.54,236.54 M679.53,218.53 M638.66,138.66 M651.52,125.52 M626.71,113.71 M599.77,92.77 M586.94,118.94 M574.88,139.88 M586.88,164.88 M508.96,131.96 M508.40,125.40 M495.12,144.12 M496.96,145.96 M483.25,165.25 M477.25,166.25L488.23,161.23L490.40,147.40L497.59,135.59L505.66,134.66L510.75,125.75L520.24,105.24L528.79,91.79L535.12,90.12L541.30,72.30L549.37,60.37L555.19,57.19L564.81,43.81L577.43,27.43L589.05,10.05L601.91,8.91L616.74,8.74L618.68,22.68L621.67,36.67L628.69,33.69L650.65,20.65L652.65,26.65L669.69,14.69L669.68,17.68L659.75,15.75L653.09,28.09L648.10,39.10L634.29,50.29L643.36,57.36L662.19,67.19L648.93,80.93L643.07,94.07L652.09,108.09L648.13,121.13L648.30,135.30L637.40,137.40L632.34,151.34L627.23,160.23L618.22,164.22L615.34,167.34L613.46,181.46L603.48,185.48L598.47,198.47L584.56,212.56L578.65,226.65L571.56,239.56L560.37,253.37L552.12,261.12L542.87,272.87L533.69,286.69L525.60,297.60L512.76,312.76 M484.37,276.37 M456.73,261.73 M456.47,261.47 M458.11,257.11 M471.57,244.57 M443.31,229.31 M438.74,243.74L440.84,229.84L446.89,223.89L455.87,214.87L461.63,200.63L465.80,189.80L473.75,180.75L480.73,173.73L481.86,163.86L491.03,150.03L496.89,144.89L501.50,130.50L507.30,124.30L518.37,110.37L520.38,102.38L532.17,88.17L538.05,75.05L544.09,74.09L548.26,69.26L545.23,55.23 M547.84,66.84 M549.49,68.49 M561.09,54.09 M560.46,47.46 M535.86,35.86 M535.49,28.49 M522.85,41.85 M520.62,46.62 M520.60,52.60 M521.91,53.91 M509.09,67.09 M499.90,88.90L492.12,103.12L487.33,111.33L496.40,79.40L506.38,80.38L508.38,67.38L519.34,49.34L525.43,41.43L532.50,38.50L538.49,10.49L542.30,22.30L528.29,41.29L524.29,49.29L516.32,63.32L514.33,67.33L513.22,69.22L504.29,84.29L493.36,91.36L482.38,105.38L477.44,114.44L476.42,128.42L462.47,151.47 M458.05,153.05 M457.20,158.20 M456.70,144.70 M470.77,132.77L466.84,131.84L472.78,119.78L471.82,121.82L466.10,134.10L457.22,148.22L448.19,162.19L447.04,173.04L444.91,176.91L433.80,190.80 M432.40,192.40 M431.62,197.62 M432.83,198.83 M419.00,218.00 M415.60,216.60L419.50,202.50L428.31,210.31L429.15,192.15L424.02,204.02L426.05,211.05L414.19,218.19L408.22,232.22L403.28,243.28L394.48,255.48L389.54,269.54 M391.41,261.41 M380.57,276.57 M380.11,283.11 M374.15,294.15L387.22,270.22L390.39,264.39L385.57,264.57L376.76,278.76L372.04,295.04L361.90,308.90L356.62,322.62 M366.57,301.57 M340.61,301.61 M339.75,300.75 M314.39,301.39 M313.83,300.83 M326.09,274.09 M315.35,250.35 M315.10,250.10 M339.71,248.71 M339.83,248.83 M340.69,243.69 M354.17,224.17 M355.23,221.23L366.18,205.18 M365.41,203.41 M367.05,198.05 M366.42,197.42 M365.92,190.92 M380.35,179.35 M379.89,171.89 M393.26,153.26 M390.34,144.34L388.59,163.59L378.80,182.80L367.88,199.88L356.72,212.72L348.56,227.56L341.76,248.76L335.91,259.91L327.88,271.88L318.76,296.76L311.75,308.75L308.66,320.66L301.53,313.53L292.43,314.43L278.29,313.29L274.33,298.33 M261.46,307.46 M246.61,320.61L244.45,310.45L252.53,291.53L260.82,280.82L243.04,278.04L227.10,280.10L210.05,279.05L204.00,275.00L194.01,282.01L191.01,277.01L180.09,269.09L181.15,268.15 M185.04,276.04L172.13,276.13L159.24,276.24L146.32,276.32L133.35,276.35L120.47,276.47L107.54,276.54L94.51,276.51L81.25,276.25L67.83,275.83L54.48,275.48 M42.04,270.04 M40.18,261.18 M54.08,256.08 M66.44,261.44 M67.69,254.69L62.47,273.47L84.28,269.28 M76.91,268.91L82.92,254.92 M92.47,248.47 M94.28,250.28 M84.81,279.81L70.81,281.81L56.85,281.85L49.93,289.93L49.94,303.94L36.11,302.11 M40.27,300.27L53.42,300.42 M62.19,290.19L73.06,289.06 M41.82,288.82L28.86,288.86 M27.38,287.38L14.35,300.35 M14.76,300.76L1.81,300.81 M2.51,295.51 M2.32,282.32 M3.69,272.69L8.84,286.84L8.00,297.00L12.11,306.11L8.11,329.11 M3.99,341.99L17.25,342.25L30.11,342.11L42.84,341.84L55.49,341.49L68.05,341.05L80.96,340.96L93.66,340.66L106.40,340.40L119.20,340.20L132.37,340.37L145.27,340.27L158.71,340.71L171.87,340.87L184.78,340.78L197.70,340.70L210.70,340.70L223.82,340.82L236.83,340.83 M236.95,334.95L223.82,334.82L210.72,334.72L197.60,334.60L184.14,334.14L170.70,333.70L157.75,333.75L145.17,334.17L132.32,334.32 M122.68,326.68L132.62,341.62L144.50,336.50 M144.87,339.87 M158.17,340.17L145.24,353.24L132.14,366.14 M131.52,372.52L118.40,372.40L105.59,372.59L92.58,372.58L79.64,372.64L66.82,372.82L53.95,372.95 M48.63,373.63L47.71,387.71L42.88,401.88L40.05,416.05L40.15,430.15L28.00,440.00 M27.42,437.42 M42.41,432.41 M41.55,425.55L54.55,425.55L67.45,425.45L80.36,425.36 M81.30,419.30L68.27,419.27L54.97,418.97L41.26,418.26L27.98,417.98L15.00,418.00L1.72,417.72 M2.66,405.66L15.58,405.58L28.80,405.80L41.88,405.88L54.98,405.98L68.27,406.27L80.98,405.98 M80.95,405.95 M79.22,411.22L66.34,411.34L53.72,411.72L41.13,412.13 M42.61,419.61 M53.20,437.20L66.15,437.15L79.45,437.45 M80.75,431.75L67.44,431.44L54.22,431.22L41.13,431.13L27.85,430.85L14.44,430.44L1.45,430.45 M2.76,444.76L15.62,444.62L28.47,444.47L41.41,444.41L54.38,444.38L67.47,444.47L80.57,444.57 M81.78,445.78 M80.72,451.72L67.79,451.79L54.58,451.58L41.42,451.42 M28.66,477.66 M27.37,502.37L40.47,502.47L53.54,502.54L66.87,502.87L80.37,503.37L93.37,503.37 M93.91,502.91L86.88,516.88L101.97,500.97L116.15,498.15L130.43,498.43L144.56,505.56L158.83,511.83L167.29,515.29L177.63,501.63L178.83,494.83L187.67,484.67L190.76,483.76L203.47,498.47L202.40,513.40L208.61,519.61L215.58,512.58L221.36,508.36L229.87,520.87L239.66,502.66L249.68,510.68L255.75,504.75L256.72,497.72L257.67,483.67L264.61,489.61L254.58,500.58L262.37,504.37L268.57,519.57L271.71,524.71L273.91,528.91L276.14,543.14L283.07,544.07L294.98,547.98L300.96,561.96L313.03,569.03L305.06,575.06L313.29,595.29L327.25,601.25L338.27,613.27L348.14,623.14L348.98,632.98L356.06,645.06L363.11,664.11L370.28,674.28L373.39,685.39L377.34,688.34L381.32,707.32L385.34,720.34L391.65,732.65L397.72,744.72L404.62,755.62 M406.61,757.61 M392.31,743.31 M392.94,737.94 M392.91,737.91 M393.20,731.20 M367.98,738.98 M379.44,763.44 M380.44,770.44 M392.24,795.24 M392.88,802.88 M406.40,803.40 M419.01,803.01 M431.47,802.47 M443.49,801.49 M453.74,794.74L446.69,784.69L439.67,767.67L439.66,764.66L434.64,749.64L425.34,733.34L421.19,726.19L416.15,713.15L401.89,700.89L398.98,685.98L392.97,675.97L392.04,662.04L386.13,653.13L377.23,641.23L379.30,636.30L370.25,624.25L358.37,612.37L366.76,607.76L351.10,596.10L343.20,581.20L349.32,567.32L349.47,553.47L336.62,552.62L334.74,546.74L331.64,532.64L326.37,525.37L328.13,522.13L333.98,500.98L323.17,490.17L302.07,484.07L295.10,480.10L283.27,474.27L273.60,474.60L258.70,475.70L261.76,461.76L267.68,458.68L264.54,451.54L261.23,440.23L255.15,434.15L252.22,458.22L235.45,475.45L234.58,456.58L220.61,455.61L229.72,459.72 M229.85,451.85L231.65,452.65L248.57,446.57L251.44,432.44L260.17,427.17L252.95,416.95L237.81,424.81L245.64,409.64L254.60,399.60L257.78,413.78L231.92,422.92 M236.18,425.18L223.29,425.29 M224.30,419.30L237.33,419.33 M235.67,430.67L222.60,430.60L209.69,430.69 M206.03,434.03L215.09,421.09L226.98,406.98L233.94,392.94 M237.66,406.66L250.39,406.39 M249.41,399.41 M249.87,392.87 M262.71,379.71 M276.72,354.72 M289.08,341.08 M294.82,339.82L280.69,333.69L287.60,317.60 M263.42,283.42 M260.81,260.81L273.85,260.85 M262.56,256.56L249.26,256.26L236.37,256.37 M235.80,261.80 M248.01,262.01L241.96,253.96L233.94,253.94L224.89,252.89L224.94,251.94 M209.91,248.91L196.85,248.85L183.79,248.79 M184.68,236.68 M171.32,217.32 M158.08,223.08L171.28,223.28L184.57,223.57L197.59,223.59L210.40,223.40 M209.95,209.95L222.68,209.68L235.47,209.47L248.53,209.53 M248.98,209.98L261.76,196.76 M262.60,197.60 M262.53,204.53 M275.82,217.82 M289.53,237.53 M287.88,242.88 M288.07,249.07 M288.86,249.86 M260.34,252.34L242.33,250.33L235.73,266.73L221.97,260.97L226.07,264.07L199.04,251.04L204.01,242.01L214.69,232.69L204.44,226.44L193.26,218.26L180.21,221.21L169.42,221.42L158.55,218.55L153.59,205.59L155.56,214.56L148.47,210.47 M145.61,210.61 M146.11,218.11 M157.87,209.87L144.96,209.96L131.78,209.78 M145.91,197.91 M159.70,192.70 M158.53,165.53L145.38,165.38L132.21,165.21L119.15,165.15 M121.43,160.43 M119.58,158.58L132.86,158.86 M119.96,145.96 M151.55,157.55L149.52,151.52L155.51,142.51L154.35,148.35L162.11,162.11L171.95,178.95L184.00,197.00L174.01,199.01L177.22,196.22L181.52,200.52L178.74,207.74L192.73,207.73L202.69,198.69L211.49,190.49L218.31,179.31L229.23,193.23L239.23,188.23 M236.48,191.48 M236.06,204.06L222.95,203.95 M223.65,197.65 M235.23,209.23 M249.23,178.23 M250.44,172.44 M248.54,170.54 M249.53,165.53 M263.65,153.65 M261.22,183.22 M301.45,223.45 M302.51,224.51 M328.48,166.48 M330.05,161.05L334.19,147.19L333.18,132.18L348.30,125.30L352.26,116.26L363.13,101.13L356.05,100.05L364.13,96.13L363.20,82.20L374.03,69.03L383.93,54.93L386.92,45.92L393.94,34.94L401.13,21.13 M417.13,21.13 M426.84,27.84L419.79,41.79 M417.81,53.81 M404.88,73.88 M397.96,92.96L390.95,106.95 M392.16,100.16 M394.05,95.05 M391.28,92.28 M366.93,87.93 M366.20,80.20 M366.81,67.81 M378.96,60.96 M394.12,43.12 M392.23,35.23 M366.74,28.74 M431.50,28.50 M448.11,14.11L437.99,9.99L436.64,5.64L436.32,10.32L452.10,22.10L455.76,14.76L470.81,8.81L473.76,4.76 M469.88,21.88 M456.72,40.72 M458.03,42.03 M449.49,60.49L439.48,63.48L428.40,88.40L416.13,109.13L411.75,125.75L401.43,133.43L393.35,142.35L380.50,162.50L372.66,178.66L374.86,173.86L391.81,156.81L409.84,129.84L416.67,115.67L413.62,107.62L427.69,95.69L428.79,87.79L438.90,73.90L446.07,60.07L449.01,50.01L450.73,41.73L463.57,27.57L462.59,33.59L453.94,45.94L443.16,38.16L424.11,35.11L414.99,22.99L397.03,28.03L382.95,57.95L364.83,85.83L361.84,46.84L358.87,45.87L363.80,32.80L369.02,27.02L359.13,43.13L349.11,70.11L335.18,99.18L327.17,102.17L314.12,74.12L302.07,86.07L313.06,88.06L315.19,79.19L326.19,64.19L322.11,54.11L331.01,40.01L335.82,25.82L330.92,51.92L320.99,68.99L292.96,57.96L278.82,62.82L269.70,65.70L248.63,65.63L232.76,54.76L222.84,53.84L207.91,49.91L204.93,43.93L192.84,47.84L184.85,67.85L170.84,62.84L168.62,42.62L166.23,45.23L161.17,31.17 M158.63,36.63L165.70,50.70 M171.33,48.33 M184.07,54.07 M183.59,60.59 M199.38,95.38 M209.59,99.59 M224.74,120.74 M223.24,126.24 M224.40,133.40 M211.61,140.61 M197.48,158.48 M184.15,152.15 M184.69,204.69 M210.55,243.55 M171.13,256.13 M125.23,272.23L115.34,260.34L90.40,268.40L82.30,257.30L67.13,265.13L59.09,249.09L43.07,244.07L28.93,240.93 M29.09,244.09L16.37,244.37 M26.80,236.80L27.60,250.60L10.60,261.60L25.77,275.77 M29.18,276.18 M28.44,282.44 M40.84,287.84 M15.34,269.34 M1.88,248.88 M3.47,237.47 M15.13,210.13 M2.15,184.15 M41.69,178.69 M44.43,151.43L30.30,145.30 M28.80,145.80 M40.07,151.07 M41.77,132.77L28.89,132.89 M29.73,127.73 M35.03,126.03L9.05,121.05L10.95,98.95L7.92,84.92 M3.79,81.79 M5.70,77.70L19.83,88.83L20.72,98.72L28.83,97.83L30.19,108.19L44.32,106.32L63.94,102.94L60.44,103.44L68.13,106.13 M67.12,106.12 M67.52,113.52 M39.92,104.92L26.64,104.64 M27.69,94.69L12.65,80.65L5.72,66.72 M2.60,75.60L9.63,52.63L2.31,40.31L14.24,37.24L14.43,30.43L13.28,14.28L20.33,34.33L12.34,49.34L14.31,57.31L14.19,56.19L27.03,63.03L42.12,62.12L43.35,70.35L65.63,63.63L65.96,61.96 M42.02,68.02 M14.58,53.58L1.59,53.59 M3.12,49.12 M2.99,28.99L16.16,29.16 M15.22,15.22 M22.07,7.07L36.16,7.16L34.07,4.07 M28.79,2.79 M2.08,2.08 M53.92,27.92 M66.90,34.90 M79.91,40.91 M142.42,6.42L156.64,6.64L154.75,3.75 M144.72,1.72 M171.51,2.51 M14.43,86.43 M14.28,92.28 M15.92,119.92L2.96,119.96 M23.30,127.30L17.18,129.18L14.19,116.19L28.05,123.05L29.79,135.79L43.50,131.50L26.35,139.35L18.36,140.36L20.21,143.21L31.88,152.88L32.94,159.94L32.89,173.89L34.94,189.94L48.96,193.96L74.01,200.01L93.12,204.12L97.40,233.40L113.65,237.65L131.71,221.71L141.61,197.61L142.58,233.58L149.76,227.76L171.02,237.02L171.18,242.18L185.18,221.18L198.98,215.98L201.14,224.14L215.35,230.35L220.45,221.45L234.36,222.36L234.39,205.39L234.56,216.56L241.71,199.71L247.65,169.65L254.33,171.33L263.23,193.23L272.17,165.17L281.03,164.03L289.77,195.77L305.47,202.47L310.17,203.17L313.31,192.31L322.54,177.54L331.62,150.62L342.56,125.56L363.54,121.54L372.67,123.67L379.59,114.59L383.46,97.46L393.23,85.23L399.02,76.02L409.07,71.07L404.20,66.20L394.37,67.37L390.57,83.57L391.86,89.86L381.89,104.89L386.97,109.97L404.99,121.99L407.04,135.04L397.04,149.04L390.28,150.28L380.39,164.39L383.53,173.53L370.66,186.66L369.72,200.72L362.54,201.54L353.71,215.71L349.73,226.73L349.66,240.66L344.54,242.54L337.56,253.56L333.53,264.53L325.38,278.38L321.09,287.09L307.00,301.00L303.00,302.00L310.26,305.26L292.53,313.53L304.72,331.72L278.71,339.71L275.61,352.61L279.54,361.54L285.32,363.32L272.13,377.13L268.13,391.13L256.87,402.87L265.69,418.69L249.61,423.61L260.48,429.48L240.40,430.40L235.46,444.46L252.88,441.88L247.03,446.03L255.92,450.92L248.89,460.89L231.98,471.98L237.34,471.34L243.69,487.69L244.03,502.03L237.09,507.09L255.84,514.84L255.55,528.55L240.39,535.39L245.36,537.36L251.30,549.30L253.26,554.26L253.29,547.29L263.33,546.33L263.40,549.40L277.52,563.52L282.38,564.38L291.20,567.20L301.97,552.97L312.68,548.68L312.44,555.44L323.47,545.47L327.48,574.48L333.59,612.59L339.70,619.70L348.64,625.64L352.63,641.63L360.82,664.82L365.92,679.92L378.05,695.05L387.01,715.01L396.77,737.77L402.63,758.63L403.55,761.55L407.37,769.37L419.16,786.16 M458.06,803.06 M470.55,802.55 M483.11,802.11 M495.69,801.69 M510.05,803.05 M523.35,803.35 M534.99,801.99 M548.22,802.22 M558.34,800.34L553.41,792.41L546.26,786.26L537.40,772.40L533.43,756.43L523.35,747.35L517.30,733.30L510.23,719.23L502.28,705.28L497.15,693.15L489.18,679.18L484.16,665.16L476.05,652.05L471.25,642.25L462.44,628.44L456.28,616.28L447.89,601.89L441.57,587.57L449.59,572.59L430.59,566.59L450.63,565.63L457.57,538.57L463.41,528.41L474.43,508.43L478.60,508.60L466.60,527.60L456.49,539.49L447.32,576.32L433.67,587.67L426.78,569.78L420.90,562.90L407.11,556.11L403.37,544.37L398.18,522.18L395.12,515.12L381.13,513.13L370.12,512.12L358.19,492.19L351.43,507.43L341.50,504.50L335.55,496.55L331.51,496.51L319.48,493.48L308.60,488.60L304.79,485.79L292.71,479.71L288.55,467.55L281.67,463.67L280.50,475.50L270.38,472.38L262.31,458.31L259.30,449.30L254.30,462.30L250.16,470.16L246.02,446.02L242.87,448.87L241.66,407.66L239.58,396.58L233.53,426.53L230.51,426.51L225.52,409.52L212.43,426.43L198.43,440.43L184.51,431.51L171.67,422.67L157.74,414.74L145.77,415.77L131.67,440.67L118.69,449.69L104.85,452.85L90.82,452.82L106.61,488.61L102.45,475.45 M105.32,495.32L118.56,482.56L132.07,470.07L145.44,457.44L158.69,444.69L171.78,431.78 M171.47,425.47L158.72,425.72L145.73,425.73 M144.84,430.84L158.05,431.05L171.12,431.12L184.06,431.06 M184.05,438.05L171.31,438.31L158.48,438.48L145.60,438.60 M132.03,439.03L142.08,425.08L144.00,411.00 M155.14,411.14L174.02,423.02L192.99,435.99 M196.31,443.31L183.17,456.17L170.22,469.22L157.42,482.42L144.52,495.52 M145.88,503.88L158.91,503.91L171.91,503.91L184.96,503.96 M197.12,509.12 M196.86,515.86L209.73,515.73 M211.41,523.41 M198.03,523.03L211.04,523.04L224.30,523.30L237.41,523.41L250.23,523.23L263.25,523.25L276.09,523.09L288.75,522.75L301.45,522.45L314.46,522.46L327.81,522.81L340.73,522.73L353.74,522.74L366.98,522.98L380.30,523.30L393.56,523.56L406.72,523.72 M405.27,529.27L392.19,529.19L378.86,528.86 M367.50,532.50L377.29,536.29L396.13,553.13L386.18,545.18L398.36,553.36L399.35,548.35L414.47,557.47 M418.29,555.29 M418.85,555.85L431.72,555.72L444.81,555.81L457.47,555.47L469.75,554.75 M470.28,555.28 M470.94,561.94L457.99,561.99L445.05,562.05L432.13,562.13L418.94,561.94 M423.21,562.21L431.07,543.07L417.74,535.74L406.56,526.56L402.53,517.53L399.74,511.74 M405.40,529.40L392.53,542.53 M391.35,541.35 M394.50,550.50 M392.19,529.19 M379.58,516.58L366.30,516.30L352.66,515.66L339.30,515.30L326.18,515.18L313.18,515.18L300.21,515.21L287.42,515.42L274.36,515.36 M276.78,497.78L289.44,484.44 M276.60,484.60 M249.95,503.95L236.81,503.81L223.64,503.64 M235.19,515.19L248.53,515.53 M289.15,526.15L295.28,532.28 M315.17,536.17 M314.16,542.16 M315.09,543.09 M314.15,548.15 M296.51,564.51L292.57,578.57L306.57,582.57 M301.45,581.45 M300.14,580.14 M301.35,574.35 M320.33,585.33L336.36,585.36L352.18,585.18L354.92,591.92L362.61,607.61L370.31,626.31L378.16,634.16L384.00,658.00L391.84,670.84L399.65,692.65L407.63,694.63L414.81,710.81L420.19,732.19 M417.78,716.78 M442.45,701.45L447.16,715.16L448.87,719.87L455.67,733.67L462.59,745.59L467.54,754.54L473.70,772.70 M506.47,771.47L501.62,758.62L490.59,739.59L479.53,721.53L475.46,707.46L472.32,700.32L463.17,688.17L458.15,679.15L452.21,665.21L443.40,653.40L442.52,642.52L438.62,629.62L432.69,615.69L428.50,608.50L427.10,590.10L419.91,590.91L412.99,575.99L402.00,569.00L409.97,557.97L399.06,575.06L385.19,575.19L394.21,609.21L405.22,626.22 M393.11,608.11 M391.94,606.94 M387.59,585.59L388.51,599.51L395.64,614.64L402.70,625.70L406.73,639.73L414.79,651.79L418.03,665.03L426.39,680.39 M419.01,653.01 M430.60,641.60L425.68,603.68L427.86,599.86L421.00,599.00L411.14,585.14L404.06,571.06 M406.81,569.81 M405.45,574.45 M419.27,595.27 M420.08,596.08 M419.70,601.70 M431.22,620.22 M431.68,620.68 M392.56,665.56 M380.06,705.06 M354.31,705.31 M353.23,711.23 M354.42,712.42 M351.21,698.21L345.21,685.21L338.23,675.23L337.34,661.34L332.43,649.43L331.60,641.60L322.36,635.36L320.27,623.27L306.09,613.09L310.81,602.81L304.61,590.61L293.59,588.59L284.65,598.65L264.81,614.81L260.07,606.07L259.38,592.38 M263.16,595.16L250.55,595.55 M250.51,601.51L263.55,601.55 M261.20,606.20 M262.26,607.26L248.99,619.99 M249.67,620.67 M253.11,619.11L263.13,633.13L263.31,646.31L267.66,660.66L261.08,666.08L268.05,680.05L267.00,694.00L259.79,702.79L278.78,706.78 M276.56,705.56 M275.48,698.48 M273.84,696.84L275.16,711.16L283.46,728.46 M287.84,729.84 M288.84,724.84 M287.81,723.81 M287.82,736.82 M289.13,738.13 M287.49,742.49 M275.61,750.61 M250.15,751.15 M249.34,750.34 M250.31,757.31 M248.16,742.16 M248.21,729.21L261.25,729.25 M262.05,717.05 M276.23,692.23 M275.65,685.65 M275.48,685.48 M293.93,690.93L298.03,705.03 M301.28,704.28 M301.47,698.47 M301.22,698.22 M302.41,692.41 M315.36,679.36 M314.80,672.80 M314.79,672.79 M314.43,665.43 M312.43,657.43L308.33,643.33 M302.81,647.81 M301.24,646.24 M301.82,639.82 M286.86,650.86L279.03,637.03L277.16,623.16L271.43,609.43L269.52,598.52L276.38,583.38L273.31,569.31 M275.52,568.52 M275.78,568.78 M279.45,565.45L284.35,579.35L287.40,588.40L283.45,597.45L293.41,605.41L292.17,618.17L298.33,622.33L304.43,636.43L299.45,644.45L303.50,653.50L310.48,669.48L317.54,677.54L322.66,684.66L320.80,698.80L335.83,717.83L338.83,729.83L340.97,739.97L345.29,751.29L348.45,765.45 M358.06,789.06L354.98,776.98L353.14,765.14L350.27,753.27L341.25,731.25L327.29,719.29L326.06,695.06L313.03,683.03L295.96,687.96L276.98,703.98L259.07,701.07L250.14,688.14L244.91,663.91L235.71,650.71L228.57,642.57L223.37,632.37L207.58,628.58L193.61,628.61L179.67,628.67L165.72,628.72L174.75,629.75 M170.45,632.45 M171.15,626.15L158.10,626.10 M157.49,625.49 M164.65,609.65L163.69,622.69L177.63,622.63L191.52,622.52 M205.48,596.48L219.60,593.60L210.75,596.75L224.82,597.82L225.83,588.83L238.87,568.87L246.97,578.97L253.06,585.06L255.26,593.26L262.59,620.59L266.60,609.60L272.78,626.78L285.88,613.88L289.04,591.04L326.14,604.14L343.40,582.40L355.46,549.46L359.62,552.62L373.68,522.68L380.69,546.69L392.81,569.81L405.75,563.75L404.78,573.78L412.76,599.76L419.75,613.75L431.74,627.74L440.65,639.65L450.56,655.56L461.57,679.57L465.74,688.74L475.00,703.00L484.80,721.80L491.59,739.59L499.42,759.42L507.12,776.12L516.71,790.71L518.59,790.59 M549.07,790.07 M548.85,782.85 M562.11,803.11 M573.19,801.19 M562.08,751.08 M561.26,750.26 M562.28,744.28 M548.70,724.70 M548.27,724.27 M587.28,737.28 M587.33,737.33 M589.05,745.05 M600.85,756.85 M624.95,748.95 M625.72,749.72 M626.63,756.63 M640.26,770.26 M639.56,773.56L640.42,773.42L628.23,763.23L622.11,753.11L616.97,737.97L609.83,717.83L603.13,713.13L589.29,692.29L576.37,670.37L572.48,651.48L560.72,643.72L546.87,618.87L533.13,597.13L524.31,563.31L515.44,549.44L504.34,535.34 M508.72,534.72L521.46,534.46L534.54,534.54L547.80,534.80L561.16,535.16 M561.08,542.08L548.16,555.16 M560.32,554.32 M574.70,555.70 M574.06,542.06L560.95,541.95L547.68,541.68L534.56,541.56L521.55,541.55L508.34,541.34 M508.20,541.20 M500.01,540.01L500.96,553.96 M508.65,528.65 M508.42,528.42 M534.74,541.74 M546.12,536.12L534.10,532.10L528.18,527.18L549.30,527.30L567.61,526.61L578.96,532.96L593.89,534.89L596.02,545.02L604.03,548.03L596.87,557.87 M599.95,554.95L587.04,555.04L574.22,555.22L561.44,555.44L548.59,555.59L535.53,555.53 M535.67,555.67L548.74,542.74 M533.98,585.98 M535.03,594.03 M535.82,594.82 M536.87,601.87 M523.72,614.72 M521.72,619.72 M522.72,620.72 M523.06,627.06 M534.17,638.17 M534.25,645.25 M536.12,647.12 M549.63,666.63 M574.34,613.34 M575.11,608.11 M572.60,605.60 M510.14,601.14 M473.59,561.59L472.46,558.46L479.40,558.40L495.39,532.39L503.41,518.41L507.43,537.43L520.16,555.16L527.86,568.86L534.75,582.75L548.81,610.81L556.06,620.06L563.02,634.02L571.30,647.30L579.76,661.76L587.32,676.32L589.54,690.54L597.70,704.70L607.48,717.48L614.22,722.22L616.93,733.93L623.90,741.90L625.12,755.12L632.33,755.33L633.40,767.40L643.38,774.38L648.38,785.38L658.34,799.34L654.43,795.43L668.50,802.50L677.49,781.49L679.30,802.30L686.29,797.29L700.29,802.29L707.32,788.32L721.33,800.33L735.22,796.22L739.29,786.29L747.36,802.36L761.38,802.38L775.44,802.44L789.42,793.42L798.47,802.47L800.25,795.25L802.18,799.18L791.22,762.22L799.16,765.16L790.18,765.18L787.26,779.26L788.19,787.19L787.93,781.93 M795.03,782.03 M794.69,768.69 M795.19,763.19 M796.90,757.90 M795.13,730.13 M781.76,801.76 M769.20,802.20 M754.90,800.90 M728.98,767.98 M704.99,737.99 M703.01,736.01 M691.58,717.58 M691.71,711.71 M690.25,710.25 M691.69,704.69 M704.74,691.74 M705.95,686.95 M703.88,684.88 M706.24,680.24L697.29,666.29L688.34,652.34L680.37,638.37L670.56,624.56L662.83,610.83L654.01,597.01L647.07,583.07L646.99,568.99 M666.14,575.14 M664.85,580.85 M665.20,581.20L678.40,568.40L691.44,555.44 M691.07,555.07 M690.57,566.57L696.73,580.73L705.01,595.01L721.07,620.07 M716.91,619.91 M716.76,619.76 M718.31,627.31 M730.17,639.17 M729.67,645.67L716.60,658.60 M716.63,658.63 M711.54,661.54L704.56,647.56L695.62,633.62L688.54,623.54L680.31,609.31L671.17,596.17 M670.74,594.74L689.62,610.62L703.47,634.47L720.32,631.32L729.20,646.20L743.10,652.10 M742.32,651.32 M741.90,657.90 M742.51,658.51 M747.28,656.28L738.17,642.17L729.00,628.00L718.86,613.86L716.87,587.87L708.93,573.93 M704.97,568.97L691.83,581.83 M690.62,580.62 M691.78,574.78 M697.27,583.27L700.60,567.60L714.70,555.70 M717.60,552.60L725.76,561.76L736.98,566.98L737.00,578.00L745.85,591.85 M742.85,586.85 M744.43,582.43L731.62,595.62 M729.61,593.61 M729.18,591.18L715.32,574.32L702.43,547.43L704.53,542.53L711.70,546.70 M716.42,547.42 M702.92,553.92L712.79,567.79L723.88,581.88L732.08,593.08L729.39,604.39 M729.51,599.51 M718.21,588.21 M717.23,581.23 M716.70,580.70 M704.00,568.00 M705.36,562.36 M730.81,561.81 M743.99,574.99 M743.05,581.05 M746.60,617.60L740.56,603.56L749.81,586.81L744.69,572.69L732.61,558.61L721.69,544.69L713.77,530.77L728.90,516.90L738.83,514.83L732.79,511.79L727.67,489.67L733.54,478.54L726.47,478.47 M730.20,477.20L719.99,472.99L720.94,458.94 M718.27,458.27 M717.64,451.64L730.50,438.50 M730.36,438.36L717.20,438.20 M717.77,438.77 M716.48,443.48L729.41,443.41 M731.53,448.53L746.41,462.41 M747.15,459.15L736.31,441.31L725.39,444.39L739.37,425.37L744.46,398.46 M731.20,406.20 M728.86,423.86 M730.39,431.39L716.97,430.97 M717.16,451.16 M718.03,465.03 M718.41,465.41 M716.13,469.13L729.32,469.32 M737.16,484.16L740.19,474.19L729.32,460.32L711.51,448.51L711.59,434.59L709.64,397.64L727.85,380.85L738.76,380.76L743.86,366.86L719.97,360.97L737.05,354.05L743.03,352.03 M744.25,348.25 M743.69,347.69 M730.49,353.49 M745.57,370.57L731.69,385.69L717.75,393.75 M718.13,393.13 M730.59,386.59 M730.73,379.73 M743.29,373.29 M745.49,417.49L734.46,431.46L739.36,443.36L747.31,457.31 M743.24,457.24 M743.34,483.34 M742.39,489.39 M731.67,497.67L718.81,497.81 M718.31,491.31 M717.28,490.28 M730.19,503.19 M743.66,509.66 M744.32,517.32 M679.61,562.61 M678.37,568.37 M667.02,589.02 M677.60,593.60 M679.75,601.75 M677.92,606.92L665.18,620.18 M664.60,619.60 M666.35,627.35 M678.63,639.63 M677.97,645.97 M678.99,646.99 M690.72,658.72 M691.40,659.40 M691.47,665.47 M717.04,665.04 M730.86,646.86 M744.49,627.49 M743.20,620.20 M704.72,607.72L691.73,620.73 M690.76,619.76 M691.10,626.10 M704.88,639.88 M704.21,607.21 M704.70,600.70 M692.16,588.16 M678.56,607.56 M653.58,608.58 M653.22,608.22 M651.95,599.95 M650.98,592.98 M639.96,587.96 M627.00,558.00L641.90,543.90 M664.04,534.04 M618.71,536.71L620.85,550.85L613.90,556.90 M664.05,710.05 M665.39,711.39 M665.70,717.70 M676.90,728.90 M652.44,743.44 M664.03,762.03 M665.72,763.72 M664.51,768.51 M639.87,776.87 M637.92,800.92 M626.88,802.88 M653.95,796.95 M613.17,730.17 M614.31,725.31 M639.01,717.01 M444.19,555.19 M432.90,556.90 M453.01,544.01L447.07,548.07L436.99,534.99L430.04,546.04L418.08,534.08L415.11,526.11L405.00,524.00L401.72,510.72L367.57,502.57L357.66,507.66L350.57,525.57L347.37,503.37L367.29,507.29 M365.87,515.87 M353.91,516.91 M339.47,515.47 M327.61,516.61 M340.40,542.40 M341.45,543.45 M338.90,546.90 M340.10,555.10 M340.11,555.11 M328.57,575.57 M326.76,580.76 M327.79,581.79 M327.33,587.33 M316.17,609.17 M316.41,609.41 M314.37,613.37 M288.51,607.51 M288.25,607.25 M288.51,600.51 M274.77,586.77L262.12,587.12L248.88,586.88L235.96,586.96L222.97,586.97L209.97,586.97L197.31,587.31L184.35,587.35L171.33,587.33L158.53,587.53L145.91,587.91L132.93,587.93L119.82,587.82L106.80,587.80L93.78,587.78L80.68,587.68L67.61,587.61L54.64,587.64L41.53,587.53L28.48,587.48L15.40,587.40L2.49,587.49 M2.82,581.82 M4.08,563.08L16.85,562.85L29.26,562.26L41.83,561.83L54.50,561.50L67.32,561.32L80.31,561.31L93.48,561.48L106.74,561.74L120.01,562.01L133.21,562.21L146.36,562.36L159.56,562.56L172.43,562.43L185.13,562.13 M185.17,575.17L172.04,588.04 M185.08,588.08L197.89,574.89 M196.51,586.51L209.71,573.71 M230.03,558.03L228.00,544.00L215.01,530.01L192.03,516.03 M172.64,523.64L159.65,523.65 M158.96,496.96L172.22,484.22 M198.05,458.05L211.24,445.24L224.35,432.35 M222.65,437.65L209.58,437.58 M210.25,451.25L197.34,451.34L184.23,451.23L170.98,450.98L157.90,450.90L145.06,451.06L132.11,451.11 M133.35,445.35L146.36,445.36L158.96,444.96L171.80,444.80L184.81,444.81L197.69,444.69L210.76,444.76L223.90,444.90L236.86,444.86L249.76,444.76 M222.18,443.18L209.34,456.34 M185.41,445.41L172.44,458.44L159.56,471.56L146.95,484.95L134.29,498.29 M131.71,508.71L144.71,508.71L158.04,509.04L171.42,509.42L184.70,509.70L197.89,509.89L210.73,509.73L223.78,509.78L236.91,509.91L250.04,510.04L263.01,510.01L276.08,510.08L289.20,510.20L302.29,510.29L315.36,510.36L328.39,510.39L341.30,510.30L354.27,510.27L367.20,510.20L380.02,510.02 M379.14,516.14 M353.60,496.60 M388.16,462.16L398.22,457.22L405.18,449.18L413.25,435.25L410.47,427.47L413.42,423.42 M406.17,445.17 M392.81,457.81 M365.85,554.85 M366.78,555.78 M378.64,573.64 M341.51,614.51 M353.24,639.24 M353.31,646.31 M327.75,639.75 M341.64,673.64 M341.26,679.26 M327.25,694.25L332.19,708.19L331.98,721.98 M326.62,716.62 M326.65,703.65 M327.19,698.19 M314.89,730.89 M314.65,737.65 M315.88,738.88 M313.61,742.61 M314.09,802.09 M326.55,801.55 M340.18,802.18 M355.12,804.12 M286.93,795.93L284.77,782.77L283.73,773.73L279.76,789.76L270.81,796.81L262.76,787.76L259.10,764.10L259.32,801.32L246.64,787.64L235.99,768.99L237.11,803.11L223.10,799.10L216.80,793.80L205.61,794.61L199.49,800.49L188.26,789.26L176.01,793.01L170.95,801.95L156.81,794.81L144.72,800.72L141.61,796.61L128.52,801.52L114.52,801.52L100.46,801.46L86.23,801.23L72.12,801.12L58.21,800.21L44.55,800.55L30.69,801.69L16.79,801.79L3.09,802.09 M1.42,801.42 M15.50,802.50 M29.88,803.88 M40.55,801.55 M54.10,802.10 M67.59,802.59 M79.48,801.48 M91.66,800.66 M106.96,802.96 M120.12,803.12 M132.08,802.08 M144.29,801.29 M157.54,794.54 M166.21,776.21L159.21,761.21L168.23,737.23L173.34,720.34L145.43,724.43L145.60,710.60 M132.60,717.60L145.82,717.82L158.93,717.93L171.92,717.92 M180.02,715.02L193.07,716.07L190.20,730.20L185.37,759.37 M197.14,769.14L210.27,769.27 M211.31,757.31L224.02,757.02 M211.97,751.97 M211.04,751.04 M209.67,742.67L222.57,742.57 M222.64,729.64 M223.12,724.12 M198.62,718.62 M197.16,730.16 M183.10,742.10 M158.71,756.71 M133.78,764.78 M131.02,762.02 M132.07,769.07 M120.42,731.42 M106.81,717.81 M131.14,703.14 M146.64,692.64 M170.39,703.39 M146.12,731.12 M182.88,780.88 M182.88,787.88 M197.91,802.91 M210.95,802.95 M235.93,775.93 M235.98,768.98 M211.92,692.92 M210.38,685.38L223.36,685.36 M222.85,677.85 M223.70,672.70 M222.29,671.29 M262.93,665.93 M264.26,661.26 M263.54,660.54 M263.53,653.53L276.52,653.52 M276.11,640.11 M276.17,634.17L263.23,647.23 M261.75,645.75 M274.58,632.58 M276.68,627.68 M275.27,620.27 M261.43,612.43L248.77,612.77L236.12,613.12L222.88,612.88L209.96,612.96L196.97,612.97L183.97,612.97L171.31,613.31L158.35,613.35L145.33,613.33L132.53,613.53L119.91,613.91L106.93,613.93 M80.27,613.27L67.24,613.24L54.20,613.20L41.22,613.22 M41.60,607.60 M15.12,613.12 M9.81,611.81L13.86,625.86 M14.88,625.88 M28.19,633.19 M27.95,651.95L41.05,652.05 M54.32,639.32 M66.08,651.08 M54.06,665.06L67.13,665.13L80.27,665.27 M80.80,691.80 M107.09,679.09 M132.56,600.56L145.57,587.57L158.59,574.59 M171.77,574.77L158.76,587.76L145.69,600.69 M223.88,607.88 M222.96,619.96 M223.73,626.73L236.49,626.49L249.49,626.49 M263.45,595.45 M274.01,580.01 M275.75,574.75 M288.88,665.88 M118.70,495.70L131.81,482.81L144.89,469.89L157.94,456.94L171.09,444.09 M158.90,431.90L145.66,444.66L132.50,457.50L119.06,470.06L105.71,482.71L92.64,495.64L79.61,508.61 M80.36,496.36L93.22,483.22L106.34,470.34L119.64,457.64L133.02,445.02L146.08,432.08L158.67,418.67 M158.80,418.80 M145.87,366.87L158.63,353.63L171.30,340.30L184.11,327.11 M197.37,321.37L210.35,321.35 M208.42,321.42L186.42,321.42L208.52,319.52L199.71,288.71L191.91,277.91L162.03,276.03L167.16,258.16L180.21,245.21L191.14,237.14L190.91,235.91L184.72,220.72L170.48,213.48L167.33,195.33L153.48,195.48L137.44,193.44L136.33,188.33L122.33,187.33L116.28,189.28 M93.29,197.29L80.05,197.05 M54.40,223.40 M41.59,236.59 M16.42,315.42 M29.31,322.31 M54.93,399.93L67.98,399.98L81.25,400.25 M79.30,417.30 M80.55,431.55 M80.01,457.01 M80.52,535.52L67.69,535.69L54.89,535.89L42.07,536.07L29.27,536.27L16.33,536.33L3.18,536.18 M54.22,548.22 M67.70,548.70L80.68,535.68 M1.70,677.70 M14.96,690.96 M221.78,416.78 M222.08,307.08L235.20,307.20 M158.13,321.13L145.24,321.24L132.50,321.50L119.73,321.73 M119.86,269.86 M354.19,276.19 M367.57,250.57 M379.02,230.02 M378.25,223.25L386.30,209.30 M393.04,211.04 M392.11,204.11 M378.96,222.96 M405.28,236.28 M418.06,223.06 M417.88,222.88 M430.53,248.53 M430.91,248.91 M419.77,276.77 M404.40,294.40 M456.86,209.86 M456.80,203.80 M471.08,185.08 M469.49,183.49 M445.07,172.07 M444.18,171.18 M418.57,165.57 M417.67,157.67 M417.22,157.22 M431.61,145.61 M432.40,140.40 M445.17,120.17 M444.55,119.55 M448.59,121.59L453.51,95.51L467.65,81.65L473.84,55.84L476.99,82.99L479.09,84.09L452.93,97.93L445.79,111.79L447.66,114.66L436.53,132.53L424.37,146.37L414.62,160.62L409.78,174.78 M404.30,183.30 M405.51,184.51 M406.16,133.16 M405.46,132.46 M380.74,120.74 M366.23,145.23 M354.85,107.85 M351.76,104.76 M421.10,108.10L427.74,82.74L436.73,68.73 M443.56,60.56 M431.00,80.00 M431.80,80.80 M457.28,93.28 M457.76,93.76 M457.32,100.32 M483.01,106.01 M496.53,93.53 M496.63,93.63 M496.02,87.02 M471.91,73.91L472.77,59.77L480.59,58.59 M482.63,53.63 M482.54,47.54 M496.11,35.11 M497.38,29.38 M521.61,105.61 M470.83,132.83 M744.90,419.90 M795.35,392.35 M796.07,380.07"/></svg>