<?xml version="1.0" standalone="no"?><!DOCTYPE svg PUBLIC "-//W3C//DTD SVG 1.1//EN" "http://www.w3.org/Graphics/SVG/1.1/DTD/svg11.dtd"><svg xmlns="http://www.w3.org/2000/svg" style="position: fixed; background: white;" width="800" height="800" viewBox="0 0 800 800"><path style="stroke-width: 2px; fill: none; stroke: black" d=" M65.00,366.00L65.00,383.00 M65.00,386.00L65.00,393.00 M65.00,438.00L65.00,465.00 M65.00,474.00L65.00,481.00 M65.00,491.00L65.00,508.00 M65.00,509.00L65.00,519.00 M78.00,348.00L78.00,364.00 M78.00,475.00L78.00,483.00 M78.00,553.00L78.00,564.00 M91.00,290.00L91.00,300.00 M91.00,325.00L91.00,351.00 M91.00,355.00L91.00,362.00 M91.00,573.00L91.00,596.00 M104.00,278.00L104.00,285.00 M104.00,294.00L104.00,343.00 M104.00,345.00L104.00,354.00 M117.00,269.00L117.00,279.00 M117.00,285.00L117.00,293.00 M117.00,295.00L117.00,308.00 M117.00,310.00L117.00,340.00 M130.00,267.00L130.00,279.00 M130.00,295.00L130.00,332.00 M143.00,295.00L143.00,327.00 M143.00,332.00L143.00,339.00 M156.00,300.00L156.00,325.00 M169.00,272.00L169.00,279.00 M169.00,287.00L169.00,325.00 M169.00,476.00L169.00,485.00 M182.00,171.00L182.00,179.00 M182.00,194.00L182.00,202.00 M182.00,244.00L182.00,251.00 M182.00,273.00L182.00,292.00 M182.00,300.00L182.00,315.00 M195.00,80.00L195.00,89.00 M195.00,247.00L195.00,291.00 M195.00,300.00L195.00,333.00 M208.00,100.00L208.00,113.00 M208.00,251.00L208.00,258.00 M208.00,273.00L208.00,332.00 M221.00,238.00L221.00,245.00 M221.00,279.00L221.00,301.00 M221.00,302.00L221.00,335.00 M221.00,467.00L221.00,489.00 M234.00,230.00L234.00,241.00 M234.00,254.00L234.00,265.00 M234.00,287.00L234.00,332.00 M234.00,488.00L234.00,497.00 M234.00,642.00L234.00,654.00 M247.00,55.00L247.00,63.00 M247.00,114.00L247.00,122.00 M247.00,169.00L247.00,181.00 M247.00,255.00L247.00,265.00 M247.00,283.00L247.00,291.00 M247.00,292.00L247.00,336.00 M247.00,392.00L247.00,399.00 M247.00,405.00L247.00,416.00 M247.00,417.00L247.00,431.00 M247.00,619.00L247.00,627.00 M247.00,682.00L247.00,690.00 M260.00,197.00L260.00,208.00 M260.00,235.00L260.00,249.00 M260.00,281.00L260.00,337.00 M260.00,378.00L260.00,410.00 M260.00,598.00L260.00,606.00 M260.00,657.00L260.00,665.00 M260.00,721.00L260.00,740.00 M273.00,108.00L273.00,116.00 M273.00,202.00L273.00,209.00 M273.00,211.00L273.00,234.00 M273.00,257.00L273.00,267.00 M273.00,287.00L273.00,346.00 M273.00,370.00L273.00,444.00 M273.00,570.00L273.00,583.00 M273.00,642.00L273.00,649.00 M286.00,197.00L286.00,205.00 M286.00,255.00L286.00,279.00 M286.00,286.00L286.00,309.00 M286.00,310.00L286.00,445.00 M286.00,601.00L286.00,613.00 M286.00,738.00L286.00,747.00 M299.00,101.00L299.00,111.00 M299.00,151.00L299.00,167.00 M299.00,220.00L299.00,227.00 M299.00,230.00L299.00,257.00 M299.00,260.00L299.00,268.00 M299.00,273.00L299.00,310.00 M299.00,311.00L299.00,415.00 M299.00,537.00L299.00,547.00 M299.00,579.00L299.00,586.00 M299.00,638.00L299.00,646.00 M299.00,700.00L299.00,707.00 M312.00,128.00L312.00,145.00 M312.00,178.00L312.00,187.00 M312.00,194.00L312.00,235.00 M312.00,250.00L312.00,289.00 M312.00,291.00L312.00,300.00 M312.00,301.00L312.00,432.00 M312.00,563.00L312.00,570.00 M312.00,608.00L312.00,627.00 M325.00,130.00L325.00,137.00 M325.00,158.00L325.00,181.00 M325.00,184.00L325.00,191.00 M325.00,194.00L325.00,202.00 M325.00,217.00L325.00,235.00 M325.00,236.00L325.00,262.00 M325.00,274.00L325.00,463.00 M325.00,532.00L325.00,551.00 M325.00,557.00L325.00,565.00 M325.00,580.00L325.00,591.00 M325.00,606.00L325.00,621.00 M325.00,721.00L325.00,732.00 M325.00,776.00L325.00,783.00 M338.00,142.00L338.00,149.00 M338.00,166.00L338.00,181.00 M338.00,196.00L338.00,254.00 M338.00,256.00L338.00,294.00 M338.00,302.00L338.00,411.00 M338.00,448.00L338.00,472.00 M338.00,550.00L338.00,560.00 M338.00,611.00L338.00,634.00 M351.00,103.00L351.00,115.00 M351.00,133.00L351.00,143.00 M351.00,168.00L351.00,215.00 M351.00,225.00L351.00,344.00 M351.00,345.00L351.00,418.00 M351.00,532.00L351.00,564.00 M351.00,581.00L351.00,609.00 M351.00,611.00L351.00,629.00 M351.00,662.00L351.00,670.00 M351.00,717.00L351.00,725.00 M364.00,13.00L364.00,20.00 M364.00,73.00L364.00,88.00 M364.00,111.00L364.00,119.00 M364.00,161.00L364.00,193.00 M364.00,205.00L364.00,243.00 M364.00,249.00L364.00,301.00 M364.00,302.00L364.00,492.00 M364.00,552.00L364.00,567.00 M364.00,575.00L364.00,596.00 M364.00,611.00L364.00,648.00 M364.00,671.00L364.00,678.00 M364.00,681.00L364.00,695.00 M364.00,712.00L364.00,719.00 M364.00,765.00L364.00,772.00 M364.00,776.00L364.00,784.00 M377.00,14.00L377.00,22.00 M377.00,139.00L377.00,146.00 M377.00,174.00L377.00,184.00 M377.00,185.00L377.00,221.00 M377.00,231.00L377.00,272.00 M377.00,283.00L377.00,421.00 M377.00,466.00L377.00,477.00 M377.00,544.00L377.00,557.00 M377.00,579.00L377.00,589.00 M377.00,597.00L377.00,628.00 M377.00,637.00L377.00,647.00 M377.00,656.00L377.00,674.00 M377.00,683.00L377.00,690.00 M377.00,706.00L377.00,717.00 M377.00,720.00L377.00,727.00 M377.00,730.00L377.00,739.00 M377.00,784.00L377.00,792.00 M390.00,0.00L390.00,7.00 M390.00,15.00L390.00,22.00 M390.00,53.00L390.00,60.00 M390.00,66.00L390.00,74.00 M390.00,85.00L390.00,120.00 M390.00,142.00L390.00,253.00 M390.00,262.00L390.00,409.00 M390.00,467.00L390.00,483.00 M390.00,552.00L390.00,566.00 M390.00,574.00L390.00,590.00 M390.00,604.00L390.00,616.00 M390.00,617.00L390.00,649.00 M390.00,664.00L390.00,680.00 M390.00,685.00L390.00,694.00 M390.00,735.00L390.00,747.00 M403.00,51.00L403.00,60.00 M403.00,98.00L403.00,106.00 M403.00,120.00L403.00,134.00 M403.00,140.00L403.00,173.00 M403.00,188.00L403.00,232.00 M403.00,241.00L403.00,397.00 M403.00,463.00L403.00,493.00 M403.00,577.00L403.00,626.00 M403.00,632.00L403.00,660.00 M403.00,700.00L403.00,710.00 M403.00,759.00L403.00,778.00 M416.00,8.00L416.00,23.00 M416.00,110.00L416.00,153.00 M416.00,165.00L416.00,208.00 M416.00,215.00L416.00,267.00 M416.00,275.00L416.00,385.00 M416.00,396.00L416.00,404.00 M416.00,416.00L416.00,439.00 M416.00,460.00L416.00,508.00 M416.00,602.00L416.00,612.00 M416.00,613.00L416.00,643.00 M416.00,657.00L416.00,665.00 M416.00,666.00L416.00,674.00 M416.00,736.00L416.00,746.00 M416.00,765.00L416.00,773.00 M429.00,8.00L429.00,15.00 M429.00,29.00L429.00,38.00 M429.00,49.00L429.00,61.00 M429.00,93.00L429.00,128.00 M429.00,147.00L429.00,186.00 M429.00,187.00L429.00,250.00 M429.00,251.00L429.00,416.00 M429.00,455.00L429.00,509.00 M429.00,575.00L429.00,597.00 M429.00,602.00L429.00,611.00 M429.00,621.00L429.00,639.00 M429.00,640.00L429.00,672.00 M429.00,693.00L429.00,700.00 M429.00,702.00L429.00,718.00 M429.00,737.00L429.00,746.00 M429.00,761.00L429.00,769.00 M429.00,774.00L429.00,786.00 M442.00,13.00L442.00,22.00 M442.00,38.00L442.00,45.00 M442.00,56.00L442.00,68.00 M442.00,83.00L442.00,97.00 M442.00,104.00L442.00,116.00 M442.00,117.00L442.00,168.00 M442.00,169.00L442.00,223.00 M442.00,233.00L442.00,427.00 M442.00,455.00L442.00,506.00 M442.00,588.00L442.00,603.00 M442.00,604.00L442.00,632.00 M442.00,650.00L442.00,658.00 M442.00,662.00L442.00,693.00 M442.00,715.00L442.00,748.00 M442.00,753.00L442.00,760.00 M442.00,777.00L442.00,792.00 M455.00,0.00L455.00,17.00 M455.00,53.00L455.00,60.00 M455.00,68.00L455.00,97.00 M455.00,98.00L455.00,198.00 M455.00,208.00L455.00,261.00 M455.00,262.00L455.00,364.00 M455.00,369.00L455.00,387.00 M455.00,454.00L455.00,485.00 M455.00,576.00L455.00,585.00 M455.00,611.00L455.00,618.00 M455.00,619.00L455.00,659.00 M455.00,683.00L455.00,727.00 M455.00,737.00L455.00,755.00 M455.00,768.00L455.00,776.00 M468.00,10.00L468.00,17.00 M468.00,29.00L468.00,36.00 M468.00,43.00L468.00,51.00 M468.00,53.00L468.00,71.00 M468.00,74.00L468.00,81.00 M468.00,95.00L468.00,108.00 M468.00,121.00L468.00,130.00 M468.00,133.00L468.00,179.00 M468.00,187.00L468.00,237.00 M468.00,243.00L468.00,313.00 M468.00,317.00L468.00,353.00 M468.00,424.00L468.00,434.00 M468.00,458.00L468.00,469.00 M468.00,584.00L468.00,615.00 M468.00,645.00L468.00,653.00 M468.00,658.00L468.00,686.00 M468.00,708.00L468.00,748.00 M468.00,776.00L468.00,784.00 M468.00,785.00L468.00,799.00 M481.00,0.00L481.00,13.00 M481.00,15.00L481.00,22.00 M481.00,60.00L481.00,76.00 M481.00,83.00L481.00,98.00 M481.00,101.00L481.00,111.00 M481.00,112.00L481.00,162.00 M481.00,171.00L481.00,215.00 M481.00,219.00L481.00,357.00 M481.00,558.00L481.00,589.00 M481.00,603.00L481.00,610.00 M481.00,612.00L481.00,653.00 M481.00,659.00L481.00,712.00 M481.00,735.00L481.00,742.00 M481.00,747.00L481.00,763.00 M494.00,21.00L494.00,28.00 M494.00,51.00L494.00,65.00 M494.00,68.00L494.00,85.00 M494.00,94.00L494.00,141.00 M494.00,149.00L494.00,191.00 M494.00,200.00L494.00,245.00 M494.00,253.00L494.00,375.00 M494.00,381.00L494.00,393.00 M494.00,407.00L494.00,432.00 M494.00,557.00L494.00,566.00 M494.00,576.00L494.00,611.00 M494.00,626.00L494.00,675.00 M494.00,685.00L494.00,738.00 M494.00,752.00L494.00,792.00 M507.00,13.00L507.00,21.00 M507.00,48.00L507.00,68.00 M507.00,78.00L507.00,120.00 M507.00,125.00L507.00,178.00 M507.00,179.00L507.00,226.00 M507.00,230.00L507.00,271.00 M507.00,275.00L507.00,438.00 M507.00,467.00L507.00,510.00 M507.00,552.00L507.00,583.00 M507.00,597.00L507.00,641.00 M507.00,650.00L507.00,700.00 M507.00,713.00L507.00,730.00 M507.00,732.00L507.00,742.00 M507.00,750.00L507.00,765.00 M507.00,784.00L507.00,791.00 M520.00,14.00L520.00,22.00 M520.00,41.00L520.00,50.00 M520.00,51.00L520.00,69.00 M520.00,85.00L520.00,99.00 M520.00,109.00L520.00,155.00 M520.00,168.00L520.00,205.00 M520.00,208.00L520.00,372.00 M520.00,386.00L520.00,476.00 M520.00,477.00L520.00,512.00 M520.00,577.00L520.00,606.00 M520.00,623.00L520.00,640.00 M520.00,642.00L520.00,666.00 M520.00,675.00L520.00,721.00 M520.00,738.00L520.00,749.00 M520.00,755.00L520.00,786.00 M533.00,0.00L533.00,7.00 M533.00,21.00L533.00,36.00 M533.00,44.00L533.00,51.00 M533.00,56.00L533.00,66.00 M533.00,72.00L533.00,80.00 M533.00,86.00L533.00,96.00 M533.00,98.00L533.00,234.00 M533.00,242.00L533.00,400.00 M533.00,438.00L533.00,469.00 M533.00,594.00L533.00,634.00 M533.00,645.00L533.00,686.00 M533.00,702.00L533.00,754.00 M533.00,762.00L533.00,791.00 M546.00,0.00L546.00,21.00 M546.00,26.00L546.00,33.00 M546.00,45.00L546.00,53.00 M546.00,73.00L546.00,117.00 M546.00,124.00L546.00,418.00 M546.00,438.00L546.00,461.00 M546.00,575.00L546.00,604.00 M546.00,613.00L546.00,658.00 M546.00,670.00L546.00,712.00 M546.00,735.00L546.00,770.00 M546.00,782.00L546.00,793.00 M559.00,2.00L559.00,15.00 M559.00,25.00L559.00,38.00 M559.00,42.00L559.00,53.00 M559.00,71.00L559.00,148.00 M559.00,154.00L559.00,195.00 M559.00,204.00L559.00,414.00 M559.00,596.00L559.00,621.00 M559.00,637.00L559.00,681.00 M559.00,693.00L559.00,737.00 M559.00,747.00L559.00,795.00 M572.00,8.00L572.00,26.00 M572.00,45.00L572.00,61.00 M572.00,68.00L572.00,136.00 M572.00,139.00L572.00,183.00 M572.00,185.00L572.00,408.00 M572.00,582.00L572.00,598.00 M572.00,613.00L572.00,647.00 M572.00,659.00L572.00,667.00 M572.00,668.00L572.00,705.00 M572.00,715.00L572.00,757.00 M572.00,771.00L572.00,784.00 M572.00,785.00L572.00,800.00 M585.00,8.00L585.00,22.00 M585.00,38.00L585.00,63.00 M585.00,74.00L585.00,81.00 M585.00,88.00L585.00,114.00 M585.00,115.00L585.00,204.00 M585.00,205.00L585.00,213.00 M585.00,214.00L585.00,441.00 M585.00,477.00L585.00,485.00 M585.00,487.00L585.00,495.00 M585.00,593.00L585.00,619.00 M585.00,634.00L585.00,674.00 M585.00,692.00L585.00,727.00 M585.00,735.00L585.00,784.00 M585.00,788.00L585.00,800.00 M598.00,5.00L598.00,38.00 M598.00,41.00L598.00,50.00 M598.00,51.00L598.00,98.00 M598.00,102.00L598.00,190.00 M598.00,193.00L598.00,231.00 M598.00,237.00L598.00,271.00 M598.00,279.00L598.00,478.00 M598.00,585.00L598.00,594.00 M598.00,607.00L598.00,642.00 M598.00,658.00L598.00,698.00 M598.00,710.00L598.00,747.00 M598.00,770.00L598.00,800.00 M611.00,2.00L611.00,9.00 M611.00,13.00L611.00,23.00 M611.00,40.00L611.00,47.00 M611.00,51.00L611.00,70.00 M611.00,88.00L611.00,104.00 M611.00,106.00L611.00,124.00 M611.00,136.00L611.00,210.00 M611.00,219.00L611.00,254.00 M611.00,257.00L611.00,517.00 M611.00,588.00L611.00,616.00 M611.00,635.00L611.00,667.00 M611.00,681.00L611.00,695.00 M611.00,696.00L611.00,713.00 M611.00,727.00L611.00,739.00 M611.00,747.00L611.00,773.00 M611.00,785.00L611.00,800.00 M624.00,0.00L624.00,13.00 M624.00,21.00L624.00,36.00 M624.00,38.00L624.00,66.00 M624.00,73.00L624.00,80.00 M624.00,90.00L624.00,236.00 M624.00,241.00L624.00,535.00 M624.00,614.00L624.00,634.00 M624.00,657.00L624.00,685.00 M624.00,701.00L624.00,740.00 M624.00,754.00L624.00,791.00 M637.00,0.00L637.00,13.00 M637.00,59.00L637.00,118.00 M637.00,121.00L637.00,138.00 M637.00,147.00L637.00,173.00 M637.00,174.00L637.00,182.00 M637.00,183.00L637.00,221.00 M637.00,222.00L637.00,260.00 M637.00,262.00L637.00,502.00 M637.00,588.00L637.00,614.00 M637.00,621.00L637.00,664.00 M637.00,670.00L637.00,711.00 M637.00,732.00L637.00,763.00 M637.00,770.00L637.00,778.00 M637.00,784.00L637.00,800.00 M650.00,38.00L650.00,48.00 M650.00,64.00L650.00,73.00 M650.00,85.00L650.00,97.00 M650.00,98.00L650.00,126.00 M650.00,128.00L650.00,239.00 M650.00,247.00L650.00,281.00 M650.00,282.00L650.00,509.00 M650.00,576.00L650.00,587.00 M650.00,608.00L650.00,638.00 M650.00,645.00L650.00,654.00 M650.00,656.00L650.00,676.00 M650.00,693.00L650.00,702.00 M650.00,706.00L650.00,725.00 M650.00,756.00L650.00,763.00 M650.00,768.00L650.00,776.00 M663.00,8.00L663.00,15.00 M663.00,38.00L663.00,61.00 M663.00,75.00L663.00,83.00 M663.00,86.00L663.00,113.00 M663.00,121.00L663.00,145.00 M663.00,159.00L663.00,180.00 M663.00,196.00L663.00,223.00 M663.00,236.00L663.00,262.00 M663.00,272.00L663.00,519.00 M663.00,561.00L663.00,569.00 M663.00,584.00L663.00,606.00 M663.00,624.00L663.00,648.00 M663.00,667.00L663.00,678.00 M663.00,679.00L663.00,702.00 M663.00,713.00L663.00,733.00 M663.00,738.00L663.00,746.00 M663.00,747.00L663.00,755.00 M676.00,15.00L676.00,22.00 M676.00,33.00L676.00,45.00 M676.00,79.00L676.00,91.00 M676.00,112.00L676.00,132.00 M676.00,164.00L676.00,210.00 M676.00,224.00L676.00,247.00 M676.00,252.00L676.00,285.00 M676.00,286.00L676.00,518.00 M676.00,571.00L676.00,589.00 M676.00,604.00L676.00,632.00 M676.00,647.00L676.00,674.00 M676.00,703.00L676.00,714.00 M676.00,739.00L676.00,746.00 M689.00,96.00L689.00,104.00 M689.00,108.00L689.00,117.00 M689.00,129.00L689.00,144.00 M689.00,161.00L689.00,181.00 M689.00,201.00L689.00,230.00 M689.00,234.00L689.00,267.00 M689.00,275.00L689.00,300.00 M689.00,301.00L689.00,513.00 M689.00,562.00L689.00,570.00 M689.00,582.00L689.00,607.00 M689.00,623.00L689.00,652.00 M689.00,708.00L689.00,717.00 M689.00,720.00L689.00,727.00 M702.00,133.00L702.00,147.00 M702.00,154.00L702.00,168.00 M702.00,192.00L702.00,199.00 M702.00,234.00L702.00,251.00 M702.00,254.00L702.00,289.00 M702.00,291.00L702.00,484.00 M702.00,544.00L702.00,551.00 M702.00,571.00L702.00,592.00 M702.00,596.00L702.00,621.00 M702.00,645.00L702.00,655.00 M702.00,702.00L702.00,710.00 M702.00,729.00L702.00,749.00 M715.00,161.00L715.00,168.00 M715.00,169.00L715.00,176.00 M715.00,225.00L715.00,232.00 M715.00,247.00L715.00,265.00 M715.00,280.00L715.00,306.00 M715.00,311.00L715.00,337.00 M715.00,340.00L715.00,364.00 M715.00,367.00L715.00,388.00 M715.00,395.00L715.00,432.00 M715.00,491.00L715.00,503.00 M715.00,520.00L715.00,533.00 M715.00,546.00L715.00,560.00 M715.00,581.00L715.00,602.00 M715.00,623.00L715.00,633.00 M715.00,704.00L715.00,715.00 M715.00,783.00L715.00,790.00 M715.00,792.00L715.00,799.00 M728.00,241.00L728.00,248.00 M728.00,278.00L728.00,296.00 M728.00,302.00L728.00,324.00 M728.00,330.00L728.00,381.00 M728.00,385.00L728.00,403.00 M728.00,412.00L728.00,425.00 M728.00,444.00L728.00,461.00 M728.00,472.00L728.00,490.00 M728.00,500.00L728.00,518.00 M728.00,539.00L728.00,551.00 M728.00,599.00L728.00,608.00 M728.00,638.00L728.00,648.00 M728.00,676.00L728.00,689.00 M741.00,270.00L741.00,277.00 M741.00,282.00L741.00,289.00 M741.00,292.00L741.00,321.00 M741.00,327.00L741.00,339.00 M741.00,343.00L741.00,366.00 M741.00,367.00L741.00,413.00 M741.00,422.00L741.00,449.00 M741.00,460.00L741.00,478.00 M741.00,487.00L741.00,503.00 M741.00,513.00L741.00,528.00 M741.00,546.00L741.00,556.00 M754.00,301.00L754.00,309.00 M754.00,322.00L754.00,333.00 M754.00,338.00L754.00,345.00 M754.00,347.00L754.00,536.00 M754.00,544.00L754.00,551.00 M767.00,330.00L767.00,338.00 M767.00,347.00L767.00,521.00 M767.00,527.00L767.00,535.00 M780.00,347.00L780.00,357.00 M780.00,358.00L780.00,372.00 M780.00,383.00L780.00,391.00 M780.00,393.00L780.00,493.00 M780.00,506.00L780.00,515.00 M793.00,0.00L793.00,800.00"/></svg>