<?xml version="1.0" standalone="no"?><!DOCTYPE svg PUBLIC "-//W3C//DTD SVG 1.1//EN" "http://www.w3.org/Graphics/SVG/1.1/DTD/svg11.dtd"><svg xmlns="http://www.w3.org/2000/svg" style="position: fixed; background: white;" width="800" height="800" viewBox="0 0 800 800"><path style="stroke-width: 2px; fill: none; stroke: black" d=" M0.00,26.00L26.00,26.00 M196.00,39.00L214.00,39.00 M251.00,39.00L271.00,39.00 M23.00,104.00L42.00,104.00 M23.00,130.00L41.00,130.00 M186.00,130.00L205.00,130.00 M157.00,143.00L174.00,143.00 M188.00,156.00L209.00,156.00 M30.00,195.00L50.00,195.00 M201.00,247.00L218.00,247.00 M120.00,260.00L196.00,260.00 M223.00,260.00L241.00,260.00 M99.00,273.00L119.00,273.00 M123.00,273.00L175.00,273.00 M86.00,286.00L135.00,286.00 M82.00,299.00L105.00,299.00 M177.00,299.00L201.00,299.00 M61.00,312.00L90.00,312.00 M105.00,312.00L255.00,312.00 M51.00,325.00L82.00,325.00 M90.00,325.00L241.00,325.00 M37.00,338.00L67.00,338.00 M82.00,338.00L231.00,338.00 M31.00,351.00L60.00,351.00 M89.00,351.00L204.00,351.00 M14.00,364.00L45.00,364.00 M60.00,364.00L151.00,364.00 M8.00,377.00L37.00,377.00 M57.00,377.00L115.00,377.00 M7.00,390.00L29.00,390.00 M44.00,390.00L82.00,390.00 M0.00,403.00L22.00,403.00 M37.00,403.00L86.00,403.00 M37.00,416.00L86.00,416.00 M146.00,416.00L164.00,416.00 M37.00,429.00L56.00,429.00 M59.00,429.00L86.00,429.00 M138.00,429.00L183.00,429.00 M208.00,429.00L230.00,429.00 M44.00,442.00L87.00,442.00 M129.00,442.00L214.00,442.00 M215.00,442.00L232.00,442.00 M40.00,455.00L210.00,455.00 M25.00,468.00L64.00,468.00 M66.00,468.00L205.00,468.00 M234.00,468.00L254.00,468.00 M37.00,481.00L189.00,481.00 M239.00,481.00L293.00,481.00 M0.00,494.00L22.00,494.00 M37.00,494.00L200.00,494.00 M258.00,494.00L326.00,494.00 M0.00,507.00L22.00,507.00 M37.00,507.00L89.00,507.00 M152.00,507.00L202.00,507.00 M222.00,507.00L249.00,507.00 M263.00,507.00L364.00,507.00 M477.00,507.00L498.00,507.00 M0.00,520.00L22.00,520.00 M37.00,520.00L89.00,520.00 M228.00,520.00L253.00,520.00 M280.00,520.00L307.00,520.00 M321.00,520.00L345.00,520.00 M370.00,520.00L399.00,520.00 M469.00,520.00L496.00,520.00 M691.00,520.00L710.00,520.00 M0.00,533.00L29.00,533.00 M37.00,533.00L90.00,533.00 M221.00,533.00L253.00,533.00 M382.00,533.00L414.00,533.00 M464.00,533.00L483.00,533.00 M0.00,546.00L37.00,546.00 M40.00,546.00L87.00,546.00 M229.00,546.00L257.00,546.00 M408.00,546.00L446.00,546.00 M458.00,546.00L475.00,546.00 M511.00,546.00L592.00,546.00 M638.00,546.00L699.00,546.00 M8.00,559.00L37.00,559.00 M52.00,559.00L87.00,559.00 M230.00,559.00L255.00,559.00 M433.00,559.00L466.00,559.00 M538.00,559.00L657.00,559.00 M14.00,572.00L52.00,572.00 M55.00,572.00L256.00,572.00 M576.00,572.00L639.00,572.00 M29.00,585.00L52.00,585.00 M63.00,585.00L235.00,585.00 M37.00,598.00L68.00,598.00 M94.00,598.00L233.00,598.00 M40.00,611.00L76.00,611.00 M112.00,611.00L136.00,611.00 M137.00,611.00L196.00,611.00 M221.00,611.00L249.00,611.00 M59.00,624.00L90.00,624.00 M112.00,624.00L140.00,624.00 M75.00,637.00L97.00,637.00 M218.00,637.00L237.00,637.00 M83.00,650.00L199.00,650.00 M204.00,650.00L230.00,650.00 M112.00,663.00L212.00,663.00 M125.00,676.00L172.00,676.00 M0.00,400.00L0.00,551.00 M13.00,369.00L13.00,566.00 M26.00,356.00L26.00,400.00 M26.00,529.00L26.00,581.00 M39.00,332.00L39.00,372.00 M39.00,400.00L39.00,417.00 M39.00,480.00L39.00,527.00 M39.00,566.00L39.00,611.00 M39.00,756.00L39.00,773.00 M52.00,317.00L52.00,355.00 M52.00,377.00L52.00,561.00 M52.00,589.00L52.00,624.00 M65.00,306.00L65.00,340.00 M65.00,362.00L65.00,465.00 M65.00,475.00L65.00,589.00 M65.00,597.00L65.00,634.00 M78.00,302.00L78.00,330.00 M78.00,347.00L78.00,602.00 M78.00,612.00L78.00,643.00 M91.00,281.00L91.00,302.00 M91.00,324.00L91.00,386.00 M91.00,451.00L91.00,503.00 M91.00,561.00L91.00,596.00 M91.00,634.00L91.00,662.00 M104.00,271.00L104.00,302.00 M104.00,325.00L104.00,382.00 M104.00,451.00L104.00,500.00 M104.00,563.00L104.00,612.00 M117.00,270.00L117.00,294.00 M117.00,309.00L117.00,376.00 M117.00,451.00L117.00,497.00 M117.00,563.00L117.00,617.00 M117.00,642.00L117.00,669.00 M130.00,253.00L130.00,287.00 M130.00,305.00L130.00,372.00 M130.00,440.00L130.00,497.00 M130.00,561.00L130.00,627.00 M130.00,642.00L130.00,680.00 M143.00,249.00L143.00,279.00 M143.00,302.00L143.00,321.00 M143.00,322.00L143.00,368.00 M143.00,423.00L143.00,504.00 M143.00,560.00L143.00,621.00 M143.00,642.00L143.00,679.00 M156.00,250.00L156.00,279.00 M156.00,302.00L156.00,363.00 M156.00,412.00L156.00,510.00 M156.00,559.00L156.00,627.00 M156.00,642.00L156.00,680.00 M169.00,294.00L169.00,361.00 M169.00,421.00L169.00,515.00 M169.00,558.00L169.00,619.00 M169.00,642.00L169.00,680.00 M182.00,245.00L182.00,264.00 M182.00,294.00L182.00,358.00 M182.00,429.00L182.00,497.00 M182.00,561.00L182.00,619.00 M182.00,649.00L182.00,669.00 M195.00,74.00L195.00,92.00 M195.00,243.00L195.00,264.00 M195.00,298.00L195.00,323.00 M195.00,324.00L195.00,355.00 M195.00,440.00L195.00,476.00 M195.00,490.00L195.00,519.00 M195.00,562.00L195.00,619.00 M208.00,93.00L208.00,112.00 M208.00,304.00L208.00,352.00 M208.00,429.00L208.00,471.00 M208.00,506.00L208.00,526.00 M208.00,562.00L208.00,611.00 M221.00,53.00L221.00,74.00 M221.00,320.00L221.00,346.00 M221.00,411.00L221.00,447.00 M221.00,516.00L221.00,534.00 M221.00,562.00L221.00,621.00 M234.00,74.00L234.00,96.00 M234.00,299.00L234.00,318.00 M234.00,497.00L234.00,596.00 M234.00,624.00L234.00,655.00 M247.00,161.00L247.00,181.00 M247.00,459.00L247.00,527.00 M247.00,528.00L247.00,573.00 M260.00,464.00L260.00,496.00 M260.00,533.00L260.00,550.00 M260.00,585.00L260.00,607.00 M260.00,644.00L260.00,662.00 M273.00,100.00L273.00,118.00 M273.00,466.00L273.00,519.00 M273.00,563.00L273.00,581.00 M273.00,681.00L273.00,701.00 M273.00,745.00L273.00,763.00 M286.00,472.00L286.00,530.00 M299.00,483.00L299.00,529.00 M312.00,488.00L312.00,519.00 M312.00,600.00L312.00,617.00 M325.00,494.00L325.00,522.00 M338.00,538.00L338.00,555.00 M351.00,503.00L351.00,523.00 M377.00,510.00L377.00,532.00 M390.00,515.00L390.00,546.00 M416.00,535.00L416.00,564.00 M429.00,542.00L429.00,563.00 M442.00,546.00L442.00,565.00 M442.00,574.00L442.00,592.00 M455.00,599.00L455.00,616.00 M468.00,526.00L468.00,559.00 M481.00,501.00L481.00,537.00 M494.00,495.00L494.00,523.00 M507.00,522.00L507.00,545.00 M507.00,701.00L507.00,718.00 M520.00,535.00L520.00,553.00 M533.00,533.00L533.00,557.00 M533.00,580.00L533.00,599.00 M546.00,535.00L546.00,565.00 M559.00,533.00L559.00,565.00 M572.00,539.00L572.00,570.00 M585.00,543.00L585.00,590.00 M598.00,552.00L598.00,580.00 M611.00,554.00L611.00,588.00 M624.00,556.00L624.00,576.00 M637.00,547.00L637.00,589.00 M650.00,542.00L650.00,564.00 M663.00,528.00L663.00,551.00 M689.00,533.00L689.00,557.00 M702.00,505.00L702.00,534.00 M715.00,434.00L715.00,491.00 M728.00,423.00L728.00,446.00"/></svg>