<?xml version="1.0" standalone="no"?><!DOCTYPE svg PUBLIC "-//W3C//DTD SVG 1.1//EN" "http://www.w3.org/Graphics/SVG/1.1/DTD/svg11.dtd"><svg xmlns="http://www.w3.org/2000/svg" style="position: fixed; background: white;" width="800" height="800" viewBox="0 0 800 800"><path style="stroke-width: 2px; fill: none; stroke: black" d=" M460.00,0.00L471.00,0.00 M604.00,0.00L611.00,0.00 M792.00,0.00L800.00,0.00 M413.00,13.00L420.00,13.00 M785.00,13.00L800.00,13.00 M630.00,26.00L637.00,26.00 M789.00,26.00L800.00,26.00 M407.00,39.00L415.00,39.00 M786.00,39.00L800.00,39.00 M593.00,52.00L600.00,52.00 M785.00,52.00L800.00,52.00 M362.00,65.00L373.00,65.00 M604.00,65.00L611.00,65.00 M645.00,65.00L654.00,65.00 M679.00,65.00L687.00,65.00 M785.00,65.00L800.00,65.00 M596.00,78.00L603.00,78.00 M626.00,78.00L648.00,78.00 M656.00,78.00L668.00,78.00 M789.00,78.00L800.00,78.00 M619.00,91.00L627.00,91.00 M787.00,91.00L800.00,91.00 M474.00,104.00L482.00,104.00 M556.00,104.00L566.00,104.00 M624.00,104.00L631.00,104.00 M641.00,104.00L659.00,104.00 M789.00,104.00L800.00,104.00 M332.00,117.00L339.00,117.00 M789.00,117.00L800.00,117.00 M532.00,130.00L547.00,130.00 M645.00,130.00L652.00,130.00 M789.00,130.00L800.00,130.00 M451.00,143.00L458.00,143.00 M649.00,143.00L656.00,143.00 M788.00,143.00L800.00,143.00 M582.00,156.00L590.00,156.00 M621.00,156.00L630.00,156.00 M785.00,156.00L800.00,156.00 M575.00,169.00L586.00,169.00 M670.00,169.00L680.00,169.00 M681.00,169.00L689.00,169.00 M785.00,169.00L800.00,169.00 M512.00,182.00L549.00,182.00 M573.00,182.00L581.00,182.00 M792.00,182.00L800.00,182.00 M413.00,195.00L420.00,195.00 M428.00,195.00L435.00,195.00 M446.00,195.00L455.00,195.00 M464.00,195.00L483.00,195.00 M502.00,195.00L513.00,195.00 M518.00,195.00L525.00,195.00 M531.00,195.00L558.00,195.00 M596.00,195.00L608.00,195.00 M611.00,195.00L625.00,195.00 M628.00,195.00L636.00,195.00 M791.00,195.00L800.00,195.00 M423.00,208.00L449.00,208.00 M456.00,208.00L487.00,208.00 M492.00,208.00L510.00,208.00 M526.00,208.00L551.00,208.00 M556.00,208.00L581.00,208.00 M589.00,208.00L610.00,208.00 M623.00,208.00L631.00,208.00 M789.00,208.00L800.00,208.00 M392.00,221.00L408.00,221.00 M415.00,221.00L443.00,221.00 M449.00,221.00L473.00,221.00 M483.00,221.00L509.00,221.00 M519.00,221.00L540.00,221.00 M549.00,221.00L575.00,221.00 M583.00,221.00L603.00,221.00 M612.00,221.00L636.00,221.00 M789.00,221.00L800.00,221.00 M346.00,234.00L370.00,234.00 M378.00,234.00L396.00,234.00 M412.00,234.00L434.00,234.00 M437.00,234.00L471.00,234.00 M477.00,234.00L499.00,234.00 M506.00,234.00L532.00,234.00 M534.00,234.00L563.00,234.00 M573.00,234.00L597.00,234.00 M602.00,234.00L625.00,234.00 M629.00,234.00L649.00,234.00 M704.00,234.00L712.00,234.00 M789.00,234.00L800.00,234.00 M321.00,247.00L332.00,247.00 M342.00,247.00L360.00,247.00 M368.00,247.00L395.00,247.00 M401.00,247.00L426.00,247.00 M431.00,247.00L461.00,247.00 M466.00,247.00L492.00,247.00 M500.00,247.00L525.00,247.00 M529.00,247.00L552.00,247.00 M560.00,247.00L586.00,247.00 M591.00,247.00L616.00,247.00 M623.00,247.00L644.00,247.00 M653.00,247.00L662.00,247.00 M790.00,247.00L800.00,247.00 M251.00,260.00L258.00,260.00 M306.00,260.00L313.00,260.00 M336.00,260.00L353.00,260.00 M358.00,260.00L382.00,260.00 M395.00,260.00L417.00,260.00 M425.00,260.00L454.00,260.00 M457.00,260.00L482.00,260.00 M491.00,260.00L515.00,260.00 M520.00,260.00L545.00,260.00 M551.00,260.00L579.00,260.00 M582.00,260.00L606.00,260.00 M610.00,260.00L637.00,260.00 M642.00,260.00L663.00,260.00 M673.00,260.00L683.00,260.00 M785.00,260.00L800.00,260.00 M308.00,273.00L324.00,273.00 M328.00,273.00L352.00,273.00 M353.00,273.00L374.00,273.00 M385.00,273.00L412.00,273.00 M420.00,273.00L443.00,273.00 M452.00,273.00L475.00,273.00 M477.00,273.00L506.00,273.00 M512.00,273.00L537.00,273.00 M538.00,273.00L568.00,273.00 M574.00,273.00L596.00,273.00 M603.00,273.00L626.00,273.00 M633.00,273.00L655.00,273.00 M661.00,273.00L682.00,273.00 M785.00,273.00L800.00,273.00 M298.00,286.00L312.00,286.00 M318.00,286.00L341.00,286.00 M349.00,286.00L371.00,286.00 M377.00,286.00L436.00,286.00 M441.00,286.00L468.00,286.00 M469.00,286.00L499.00,286.00 M503.00,286.00L530.00,286.00 M531.00,286.00L560.00,286.00 M565.00,286.00L588.00,286.00 M589.00,286.00L616.00,286.00 M622.00,286.00L645.00,286.00 M650.00,286.00L676.00,286.00 M680.00,286.00L703.00,286.00 M785.00,286.00L800.00,286.00 M234.00,299.00L268.00,299.00 M269.00,299.00L285.00,299.00 M294.00,299.00L307.00,299.00 M313.00,299.00L333.00,299.00 M339.00,299.00L348.00,299.00 M350.00,299.00L366.00,299.00 M368.00,299.00L396.00,299.00 M400.00,299.00L548.00,299.00 M549.00,299.00L607.00,299.00 M612.00,299.00L634.00,299.00 M641.00,299.00L666.00,299.00 M669.00,299.00L687.00,299.00 M701.00,299.00L710.00,299.00 M785.00,299.00L800.00,299.00 M242.00,312.00L249.00,312.00 M261.00,312.00L279.00,312.00 M307.00,312.00L329.00,312.00 M332.00,312.00L460.00,312.00 M471.00,312.00L511.00,312.00 M513.00,312.00L650.00,312.00 M654.00,312.00L684.00,312.00 M687.00,312.00L705.00,312.00 M789.00,312.00L800.00,312.00 M257.00,325.00L264.00,325.00 M293.00,325.00L353.00,325.00 M354.00,325.00L382.00,325.00 M383.00,325.00L446.00,325.00 M454.00,325.00L476.00,325.00 M484.00,325.00L509.00,325.00 M513.00,325.00L698.00,325.00 M705.00,325.00L723.00,325.00 M785.00,325.00L800.00,325.00 M272.00,338.00L279.00,338.00 M280.00,338.00L289.00,338.00 M290.00,338.00L301.00,338.00 M308.00,338.00L347.00,338.00 M348.00,338.00L413.00,338.00 M414.00,338.00L461.00,338.00 M483.00,338.00L493.00,338.00 M495.00,338.00L510.00,338.00 M520.00,338.00L687.00,338.00 M688.00,338.00L711.00,338.00 M718.00,338.00L727.00,338.00 M731.00,338.00L739.00,338.00 M785.00,338.00L800.00,338.00 M287.00,351.00L328.00,351.00 M357.00,351.00L445.00,351.00 M518.00,351.00L699.00,351.00 M702.00,351.00L726.00,351.00 M785.00,351.00L800.00,351.00 M282.00,364.00L417.00,364.00 M418.00,364.00L430.00,364.00 M495.00,364.00L502.00,364.00 M524.00,364.00L710.00,364.00 M723.00,364.00L736.00,364.00 M785.00,364.00L800.00,364.00 M280.00,377.00L356.00,377.00 M357.00,377.00L365.00,377.00 M369.00,377.00L382.00,377.00 M383.00,377.00L404.00,377.00 M538.00,377.00L545.00,377.00 M547.00,377.00L583.00,377.00 M584.00,377.00L602.00,377.00 M604.00,377.00L721.00,377.00 M742.00,377.00L752.00,377.00 M785.00,377.00L800.00,377.00 M271.00,390.00L332.00,390.00 M357.00,390.00L382.00,390.00 M383.00,390.00L390.00,390.00 M395.00,390.00L406.00,390.00 M506.00,390.00L520.00,390.00 M547.00,390.00L563.00,390.00 M614.00,390.00L644.00,390.00 M645.00,390.00L704.00,390.00 M725.00,390.00L740.00,390.00 M785.00,390.00L800.00,390.00 M266.00,403.00L306.00,403.00 M314.00,403.00L329.00,403.00 M361.00,403.00L382.00,403.00 M471.00,403.00L480.00,403.00 M507.00,403.00L528.00,403.00 M616.00,403.00L628.00,403.00 M649.00,403.00L706.00,403.00 M713.00,403.00L721.00,403.00 M738.00,403.00L759.00,403.00 M789.00,403.00L800.00,403.00 M266.00,416.00L289.00,416.00 M362.00,416.00L374.00,416.00 M487.00,416.00L528.00,416.00 M644.00,416.00L654.00,416.00 M655.00,416.00L708.00,416.00 M721.00,416.00L732.00,416.00 M744.00,416.00L763.00,416.00 M785.00,416.00L800.00,416.00 M267.00,429.00L284.00,429.00 M363.00,429.00L372.00,429.00 M495.00,429.00L525.00,429.00 M656.00,429.00L708.00,429.00 M716.00,429.00L723.00,429.00 M740.00,429.00L754.00,429.00 M756.00,429.00L764.00,429.00 M787.00,429.00L800.00,429.00 M325.00,442.00L333.00,442.00 M362.00,442.00L370.00,442.00 M517.00,442.00L528.00,442.00 M656.00,442.00L709.00,442.00 M741.00,442.00L767.00,442.00 M787.00,442.00L800.00,442.00 M326.00,455.00L346.00,455.00 M518.00,455.00L527.00,455.00 M662.00,455.00L707.00,455.00 M748.00,455.00L763.00,455.00 M787.00,455.00L800.00,455.00 M340.00,468.00L350.00,468.00 M415.00,468.00L436.00,468.00 M437.00,468.00L464.00,468.00 M662.00,468.00L704.00,468.00 M742.00,468.00L759.00,468.00 M787.00,468.00L800.00,468.00 M362.00,481.00L371.00,481.00 M391.00,481.00L456.00,481.00 M509.00,481.00L517.00,481.00 M657.00,481.00L687.00,481.00 M787.00,481.00L800.00,481.00 M409.00,494.00L437.00,494.00 M511.00,494.00L520.00,494.00 M669.00,494.00L689.00,494.00 M787.00,494.00L800.00,494.00 M512.00,507.00L520.00,507.00 M681.00,507.00L693.00,507.00 M787.00,507.00L800.00,507.00 M731.00,520.00L745.00,520.00 M787.00,520.00L800.00,520.00 M785.00,533.00L800.00,533.00 M734.00,546.00L743.00,546.00 M785.00,546.00L800.00,546.00 M785.00,559.00L800.00,559.00 M785.00,572.00L800.00,572.00 M785.00,585.00L800.00,585.00 M785.00,598.00L800.00,598.00 M528.00,611.00L536.00,611.00 M612.00,611.00L619.00,611.00 M785.00,611.00L800.00,611.00 M590.00,624.00L600.00,624.00 M649.00,624.00L661.00,624.00 M789.00,624.00L800.00,624.00 M543.00,637.00L553.00,637.00 M656.00,637.00L664.00,637.00 M785.00,637.00L800.00,637.00 M468.00,650.00L476.00,650.00 M498.00,650.00L505.00,650.00 M581.00,650.00L588.00,650.00 M787.00,650.00L800.00,650.00 M791.00,663.00L800.00,663.00 M573.00,676.00L580.00,676.00 M789.00,676.00L800.00,676.00 M786.00,689.00L800.00,689.00 M785.00,702.00L800.00,702.00 M558.00,715.00L573.00,715.00 M788.00,715.00L800.00,715.00 M532.00,728.00L543.00,728.00 M600.00,728.00L608.00,728.00 M789.00,728.00L800.00,728.00 M536.00,741.00L547.00,741.00 M566.00,741.00L573.00,741.00 M604.00,741.00L611.00,741.00 M789.00,741.00L800.00,741.00 M544.00,754.00L554.00,754.00 M571.00,754.00L579.00,754.00 M585.00,754.00L595.00,754.00 M785.00,754.00L800.00,754.00 M546.00,767.00L554.00,767.00 M579.00,767.00L594.00,767.00 M785.00,767.00L800.00,767.00 M521.00,780.00L531.00,780.00 M789.00,780.00L800.00,780.00 M596.00,793.00L604.00,793.00 M785.00,793.00L800.00,793.00"/></svg>