<?xml version="1.0" encoding="UTF-8" standalone="no"?>
<svg
   style="position: fixed; background: white;"
   width="800"
   height="800"
   viewBox="0 0 800 800"
   version="1.1"
   id="svg1"
   sodipodi:docname="max-k-hatched-less-detail-50.svg"
   inkscape:version="1.3.2 (091e20e, 2023-11-25)"
   xmlns:inkscape="http://www.inkscape.org/namespaces/inkscape"
   xmlns:sodipodi="http://sodipodi.sourceforge.net/DTD/sodipodi-0.dtd"
   xmlns="http://www.w3.org/2000/svg"
   xmlns:svg="http://www.w3.org/2000/svg">
  <sodipodi:namedview
     id="namedview1"
     pagecolor="#ffffff"
     bordercolor="#000000"
     borderopacity="0.25"
     inkscape:showpageshadow="2"
     inkscape:pageopacity="0.0"
     inkscape:pagecheckerboard="0"
     inkscape:deskcolor="#d1d1d1"
     inkscape:zoom="0.80887836"
     inkscape:cx="242.31085"
     inkscape:cy="209.54943"
     inkscape:window-width="736"
     inkscape:window-height="604"
     inkscape:window-x="0"
     inkscape:window-y="519"
     inkscape:window-maximized="0"
     inkscape:current-layer="svg1" />
  <defs
     id="defs1" />
  <path
     style="fill:none;stroke:#000000;stroke-width:1px"
     d="m 397.28,411.2325 m -4.945,0.555 m -2.175,3.325 m -8.255,-2.755 m -7.15,-1.65 m -4.265,1.235 m -3.935,1.565 m -6.495,-0.995 m -1.265,-2.265 m -4.55,1.95 m -6.46,-0.96 m -5.88,-0.38 m -5.875,-0.375 m -5.285,0.215 m -4.915,0.585 m -3.78,1.72 m -5.84,-0.34 m -3.565,1.935 m -2.945,-6.945 m -4.975,4.525 m -6.96,-1.46 m -1.515,3.985 m -7.935,-2.435 m -5.64,-0.14 m -5.705,-0.205 m -0.145,-4.145 m 0.325,-1.175 -5.525,5.475 m -5.32,0.18 m -3.735,1.765 m -6.395,-0.895 m -4.53,0.97 m -9.375,-3.875 m -4.185,1.315 m -3.815,1.685 m -4.305,1.195 m -1.96,-5.96 m -5.405,4.095 m -5.86,-0.36 m -5,-3.5 m -1.19,2.81 m -2.62,2.88 m -7.82,-2.32 m -5.345,0.155 m -4.44,1.06 m -6.15,-0.65 m -6.515,-1.015 m -5.555,-0.055 m -5.5,0 m 1.09,-5.41 m -1.13,-4.13 m -2.79,-8.29 m 10.195,-6.305 m 16.655,5.655 m 8.945,-9.055 m -4.475,-9.975 m 0.045,-0.955 m 11.985,-7.515 m 4.355,8.355 m 1.06,0.06 m -1.9,0.6 m 6.53,-20.97 m 11.045,-6.955 m -0.39,-1.39 m -5.12,-10.62 m -1.325,-4.325 m -2.685,-8.185 m -6.055,-8.555 m -0.345,-4.845 m -2.1,-0.6 m 0.525,-1.975 m -5,-4 m -0.02,-1.02 m 1.895,-3.605 m -2.135,-1.135 m -1.34,0.16 m -4.155,-9.655 m 3.735,-7.265 5.695,0.195 6.1,0.6 5.985,0.485 5.895,0.395 5.9,0.4 5.945,0.445 m -0.72,2.28 -5.675,-0.175 m 0.1,-4.4 5.35,-5.65 5.16,-5.84 5.435,-5.565 m 1.04,0.04 -5.295,0.205 -5.535,-0.035 -5.36,0.14 m -1.34,-0.34 m 2.025,3.525 5.265,-0.235 5.22,-0.28 5.105,-0.395 m -2.24,1.76 m -2.86,-2.86 -5.445,5.555 -5.295,5.705 m 0.44,-0.56 5.125,-0.375 4.73,-0.77 m -4.985,-2.485 -5.66,-0.16 m 0.465,-2.035 5.25,-0.25 m -1.835,-6.335 -5.485,5.515 m -7.48,5.02 m -0.565,2.435 m -2.61,2.89 m -5,1.5 -5.43,5.57 m 0.455,-0.545 5.605,0.105 m -5.905,2.095 5.37,-0.13 5.225,-0.275 5.465,-0.035 5.765,0.265 5.89,0.39 m -4.63,3.87 -5.295,0.205 -5.035,0.465 -5.295,0.205 m -1.985,0.515 5.47,-0.03 5.815,0.315 5.52,0.02 m -1,-2.5 m -4.66,0.84 m -6.05,-0.55 m 1.58,-3.92 m -1.44,11.06 m 0.46,3.46 m -0.79,0.21 m -0.66,0.84 m 6.645,6.645 m 0.46,3.46 m 0.755,1.755 m -1.035,0.465 m 6.255,6.255 m -0.515,2.485 m -0.76,0.24 m 1.04,2.54 m 4.25,4.25 m 0.895,3.895 m -1.755,0.745 m 2.51,1.01 m 4.125,5.625 m -0.515,3.485 m -0.465,1.035 m 2.1,-0.4 m 2.905,8.405 m 3.175,0.175 m -0.345,3.655 m 0.15,1.65 m 4.675,4.675 m -0.905,3.095 m 1.59,0.59 m 0.58,3.08 m 3.08,3.08 m 1.06,4.06 m 0.675,1.675 m 3.7,8.2 m 2.085,-0.915 m 4.17,9.67 m 1.89,0.39 m 8.975,-8.525 m 0.57,-2.43 m -6.98,-9.48 m 1.495,-1.505 m -4.395,-6.895 m -0.725,0.275 m -1.515,-0.015 m 0.15,-5.35 m -3.36,-3.36 m -0.385,-1.885 m -1.29,-2.29 m -4.36,-8.86 m -1.66,-0.16 m 1.065,-1.435 m -4.82,-9.32 m -1.99,-0.49 m 0.465,-2.035 m -3.695,-6.695 m 0.76,-0.74 m -1.18,-2.18 m -6.82,-6.82 m 0.355,-2.645 m 0.58,-1.92 m -2.45,-1.45 m -4.075,-4.075 m -0.055,-1.055 m 0.4,-2.6 m 10.98,-2.52 m -0.665,-3.665 m 7.815,7.815 m -1.52,1.48 m -0.09,0.91 m 1.685,3.185 m 3.69,6.69 m -0.935,1.565 m 1.655,0.155 m 4.995,6.495 m -0.47,2.53 m 0.185,1.185 m 0.63,2.13 m 5.35,5.35 m 0.645,3.645 m -0.29,0.71 m 5.005,5.005 m 0.46,1.96 m -2.815,0.185 m 1.61,2.61 m 6.18,5.18 m 0.165,1.165 m 0.275,1.775 m 4.72,8.72 m 2.305,1.305 m -1.23,1.27 m 4.285,7.285 m 1.26,3.76 m 4.555,4.555 m 0.61,3.61 m -0.44,0.56 m 7.115,8.615 m 10.675,-5.825 m 0.525,-1.975 m -1.415,-0.415 m -0.2,-4.2 m -3.75,-3.75 m 10.005,-8.995 m -1.91,-4.91 m -5.415,-5.415 m 0.425,-1.075 m -5.05,-9.05 m -4.465,-5.965 m -0.325,-1.325 m -0.72,-3.72 m -3.785,-5.285 m -2.01,-0.51 m -1.105,-3.605 m -2.68,-7.18 m -1.17,0.33 m -5.74,-8.24 m -0.93,-3.93 m -2.215,-2.215 m -1.085,-2.585 m -0.635,-1.635 m 0.255,-2.745 m 1.085,-1.415 m 2.595,-5.905 5.36,-0.14 5.575,0.075 5.705,0.205 5.715,0.215 5.395,-0.105 5.755,0.255 m 1.395,-1.105 -5.58,-0.08 -5.715,-0.215 -5.565,-0.065 -5.195,0.305 -5.025,0.475 -5.555,-0.055 m -0.485,-4.985 5.515,-5.485 5.63,-5.37 m -1.635,-2.635 5.565,0.065 m 3.335,-5.165 -5.6,-0.1 -5.84,-0.34 -5.49,0.01 -5.145,0.355 -5.455,0.045 -5.995,-0.495 -6.04,-0.54 -5.785,-0.285 -5.68,-0.18 -5.705,-0.205 m 1.47,-1.03 m 1.425,1.425 5.58,0.08 5.715,0.215 5.63,0.13 5.81,0.31 5.845,0.345 m 0.775,1.775 -5.465,5.535 m -0.835,3.665 5.725,0.225 5.935,0.435 5.595,0.095 5.3,-0.2 5.425,-0.075 5.715,0.215 5.84,0.34 5.255,-0.245 4.77,-0.73 5.375,-0.125 5.645,0.145 5.51,0.01 5.535,0.035 m 0.98,3.48 -5.47,0.03 m -0.17,-1.67 5.705,-5.295 5.145,-5.855 5.295,-5.705 m -0.405,-1.405 -6.025,-0.525 -5.78,-0.28 m 1.515,2.515 -5.845,5.155 -5.91,5.09 -5.66,5.34 -5.325,5.675 m -1.02,0.48 -5.295,0.205 -5.195,0.305 -5.045,0.455 -5.02,0.48 -5.18,0.32 -4.935,0.565 -4.93,0.57 -4.925,0.575 -5.365,0.135 m -1.895,-3.395 5.465,-5.535 5.605,-5.395 m -0.27,-1.27 -5.315,0.185 m -0.755,0.245 -5.665,5.335 m -3.7,6.3 5.48,-0.02 4.89,-0.61 4.99,-0.51 5.245,-0.255 5.495,-0.005 5.835,0.335 5.625,0.125 5.865,0.365 6.04,0.54 5.83,0.33 m 3.895,4.895 m 0.535,2.035 m 1.19,4.19 m -0.11,0.89 m 3.535,3.535 m 0.955,-0.045 m -0.135,2.365 m 5.56,5.56 m 1.705,4.705 m 2.165,2.165 m 0.245,1.245 m 1.9,3.4 m 5.905,5.905 m -0.2,3.8 m -0.095,1.405 m 1.74,-0.76 m 2.945,2.945 m 1.13,2.13 m 0.13,1.63 m 3.375,6.375 m 1.715,2.715 m 6.57,8.07 m -12.51,3.99 m -4.95,-4.95 m -1.095,-2.595 m 0.155,-0.845 m -0.81,-3.81 m -4.205,-5.705 m -0.945,0.555 m -2.16,-7.66 m -3.105,-0.105 m -4.655,-7.655 m -0.725,-2.225 m 0.59,-0.41 m -4.625,-7.625 m -1.015,-2.515 m -0.655,-1.655 m -1.235,4.265 m -2.325,-7.825 m -1.565,-0.565 m -1.305,0.195 m 0.815,-4.685 m -3.21,-0.21 m -1.49,-4.49 m -0.46,-1.96 m 0.625,-0.375 m -10.96,0.04 -5.695,-0.195 -5.475,0.025 -5.735,-0.235 m -1.05,-0.05 5.355,-5.645 5.815,-5.185 5.56,-5.44 m -9.36,1.64 -5.555,5.445 m -0.38,5.12 5.535,-5.465 m 5.43,5.43 5.71,-5.29 5.535,-5.465 5.59,-5.41 m -0.905,-1.905 5.345,-0.155 4.87,-0.63 5.235,-0.265 5.695,0.195 5.965,0.465 5.535,0.035 m 1.265,-1.735 -5.755,-0.255 -5.745,-0.245 -5.655,-0.155 -5.635,-0.135 -5.41,0.09 -5.36,0.14 -5.455,0.045 -5.48,0.02 -5.475,0.025 -5.345,0.155 -5.42,0.08 -5.495,0.005 -5.455,0.045 -5.33,0.17 -5.525,-0.025 -5.825,-0.325 -5.55,-0.05 -5.365,0.135 -5.28,0.22 m 3.765,1.265 5.415,-0.085 5.955,0.455 m -0.67,0.33 -5.695,5.305 m 0.215,-0.785 5.72,0.22 m 0.16,1.16 5.545,-5.455 5.52,-5.48 m 1.005,-5.495 -5.49,0.01 -5.915,-0.415 -5.385,0.115 m 0.855,1.855 -5.24,5.76 m 4.62,-0.88 m -0.005,5.495 m -6.255,0.745 5.915,0.415 5.82,0.32 5.63,0.13 5.635,0.135 5.695,0.195 5.625,0.125 5.255,-0.245 5.295,-0.205 5.295,-0.205 5.505,0.005 5.305,-0.195 5.285,-0.215 5.375,-0.125 5.385,-0.115 h 5.5 l 5.67,0.17 5.46,-0.04 5.58,0.08 5.775,0.275 m -3.43,0.57 m 3.125,3.125 -5.465,5.535 m 1.225,2.725 m -0.455,2.545 m -0.535,0.465 m -4.76,-5.76 m -3.635,4.365 m -2.22,1.78 m 1.55,3.05 m 2.82,5.82 m 2.37,-0.63 m 4.345,8.345 m -0.415,1.085 m 3.25,6.25 m 3.605,0.605 m 4.4,8.4 m 0.805,-0.195 m -0.86,1.64 m 5.71,5.71 m 0.58,-15.92 m -1.075,-2.575 m 0.41,-0.59 m -2.125,-5.125 m -2.995,0.005 m -1.72,-4.72 m -3.97,-3.97 m -0.235,-1.735 m 0.145,-0.855 m 6.4,-7.6 m -0.95,-2.45 m -5.935,-4.435 m 0.59,-1.91 m 6.025,-7.975 m -0.98,-2.48 m 0.565,-0.435 m -5.23,-2.73 -5.415,0.085 -5.63,-0.13 -5.805,-0.305 -6.055,-0.555 -5.92,-0.42 -5.64,-0.14 -5.56,-0.06 m -3.875,4.625 -5.41,0.09 m -7.165,-10.165 5.62,0.12 5.58,0.08 5.52,0.02 5.505,0.005 5.285,-0.215 h 5.5 l 5.49,-0.01 5.53,0.03 5.685,0.185 5.79,0.29 m -4.45,5.05 -5.465,5.535 -5.87,5.13 -5.895,5.105 m -4.365,2.635 -5.54,-0.04 -5.68,-0.18 -5.365,0.135 -5.75,-0.25 -5.635,-0.135 -5.83,-0.33 -6.09,-0.59 -6.045,-0.545 -5.555,-0.055 -5.345,0.155 -5.425,0.075 -5.355,0.145 -5.34,0.16 m 6.12,6.12 m -1.835,3.665 m 0.585,4.585 m 1.735,0.735 m -0.22,2.28 m 5.94,5.94 m 0.03,3.03 m -0.68,0.32 m -1.435,0.065 m 6.19,6.19 m 0.595,3.595 m -0.75,1.75 m 1.88,0.38 m 2.705,1.705 m 0.94,1.94 m 1.72,3.22 m -2.105,0.895 m 5.53,6.53 m 0.92,-0.08 m -0.505,1.995 m 5.405,8.405 m -0.16,0.84 m 2.665,4.165 m 3.815,6.815 m 1.96,2.96 m 1.965,1.965 m 1.8,0.8 m -1,1.5 m 20.88,-12.12 m 2.36,-0.14 m -5.785,-5.785 m 0.26,-2.74 m -0.13,-1.63 m -5.28,-6.28 m -2.785,-5.785 m -2.275,-2.275 m -2.725,-5.225 m -2.55,-5.55 m -1.885,-3.385 m -0.92,-1.92 m -4.325,-3.325 m -0.575,0.925 m -0.015,-2.515 m 1.2,-1.8 m -0.19,-1.69 m -4.93,-3.43 m 14.745,-1.755 m 0.22,-1.28 5.41,-5.59 5.5,-5.5 5.69,-5.31 5.93,-5.07 5.945,-5.055 m -0.065,-1.065 -5.465,0.035 -5.35,0.15 m -0.715,5.785 -5.85,5.15 -5.62,5.38 -5.455,5.545 m 1.22,11.22 m 0.5,1.5 m -0.295,1.205 m 3.3,1.8 m 2.745,1.745 m -1.065,1.435 m -1.18,1.82 m 5.21,5.21 m 0.395,1.395 m 0.175,1.675 m 6.815,6.815 m -1.145,1.855 m 0.965,3.465 m 1.54,0.04 m 2.105,1.105 m 0.36,1.36 m 0.72,2.22 m -1.17,1.83 m 5.6,5.6 m 1.48,2.48 m 0.65,2.15 m 5.02,5.02 m -2.24,1.76 m 3.295,2.295 m 2.72,5.22 m 1.795,4.795 m 4.65,4.65 m -0.095,0.905 m 1.515,3.015 m 3.34,6.34 m 6.665,9.165 m -12.18,4.32 m -6.25,-8.75 m -2.575,-5.575 m -0.07,-1.57 m 0.375,-0.625 m -5.73,-8.73 m -2.77,-4.27 m -3.165,-4.165 m -1.355,-0.355 m 1.44,-2.56 m -5.22,16.78 m 4.275,7.275 m 1.25,2.25 m -0.725,0.775 m 4.2,8.2 m -0.605,0.895 m 2.32,-0.18 m -17.35,-0.85 m -29.025,6.475 m -2.415,-7.915 m -3.005,-0.005 m 79.08,-22.92 m 0.315,-2.185 m 5.085,7.585 m -0.345,-82.845 m 0.83,-15.67 m -1.93,-3.43 m 0.48,-11.52 m 1.13,-1.87 m 1.225,-0.275 m -5.975,-6.975 m -1.4,-0.4 m -0.835,0.665 m -3.815,-3.815 -5.92,-0.42 -5.815,-0.315 -5.63,-0.13 -5.39,0.11 -5.63,-0.13 -5.62,-0.12 -5.78,-0.28 -5.815,-0.315 -5.93,-0.43 -5.825,-0.325 m 13.585,-2.915 m 9.67,1.67 m 1.24,-1.76 m -0.53,-6.03 5.63,0.13 m 1.315,-4.185 5.19,-0.31 m -4.925,-4.925 m -1.355,-6.855 5.525,0.025 5.585,0.085 5.765,0.265 6.04,0.54 6.275,0.775 5.295,-0.205 m -0.775,2.225 -5.72,-0.22 m 0.015,1.015 5.29,-5.71 m -1.11,-2.11 m 5.235,-3.265 m -4.11,-5.61 m -1.3,0.2 m -4.815,-4.815 -5.35,0.15 -5.325,0.175 -5.905,-0.405 -5.925,-0.425 -5.825,-0.325 -5.345,0.155 m 0.53,6.03 m 1.3,6.8 m 10.335,-6.165 5.715,0.215 5.13,-0.37 5.095,-0.405 m -0.51,2.49 m -0.155,-5.655 m 5.335,-4.665 5.355,-5.645 m 1.225,0.225 m 0.09,2.59 m 4.265,4.265 m 2.125,-8.875 m -7.01,-8.51 m -0.58,-1.58 m 0.295,-2.705 m 5.92,-2.08 m 0.26,-2.74 m -3.84,-3.84 m 0.33,-1.17 m -0.455,-1.455 m 3.51,-4.99 m -5.525,-8.025 m 0.77,-2.23 m 3.48,-4.52 m -8.295,-2.795 m -0.55,-3.55 m -6.555,4.445 m -0.82,2.18 m -3.22,4.78 m -1.315,1.685 m -2.58,5.42 m -2.785,0.215 m 0.35,1.35 m 0.225,1.725 m -5.53,2.97 m -4.835,6.165 -5.855,-0.355 -5.755,-0.255 -5.535,-0.035 -5.465,0.035 -5.845,-0.345 m -1.365,-5.865 m -3.65,-2.15 m -0.085,-1.585 -5.335,5.665 m -6.16,-1.66 -5.45,0.05 -5.54,-0.04 -5.495,0.005 m 1.235,-1.765 -5.86,-0.36 -5.65,-0.15 -5.43,0.07 -5.15,0.35 m -1.835,2.165 5.43,-5.57 5.905,-5.095 m 0.29,-0.71 m 0.125,2.625 m -5.445,3.055 -5.78,-0.28 -5.66,-0.16 m 2.215,-0.785 -5.72,-0.22 -5.92,-0.42 -5.6,-0.1 -5.545,-0.045 -5.31,0.19 m -0.03,-2.53 m 2.345,-0.655 m 2.365,-5.635 m 1.19,-1.81 m -2.645,-2.645 -5.715,5.285 m -0.68,-0.68 m -7.925,-2.425 m -1.92,-1.92 m 0.195,-2.305 m 6.685,-7.315 m 4.685,-8.815 m 0.125,-2.875 m 5.22,-5.78 m -0.145,-0.145 m 6.305,-7.195 m 8.755,3.255 m 1.08,3.58 m 1.11,1.11 m -0.37,2.63 m -5.85,5.15 m -0.825,1.675 m 0.825,0.825 -5.665,5.335 m 1.24,1.24 m -2.73,0.27 m -3.28,7.72 m 10.715,5.215 m -0.46,2.04 m 0.55,0.55 -5.6,5.4 m 4.79,-0.71 m 1.02,4.02 -5.055,0.445 -5.3,0.2 h -5.5 m -5.62,2.38 5.535,0.035 5.945,0.445 5.48,-0.02 4.96,-0.54 5.27,-0.23 m 0.48,-5.02 m 3.3,-2.2 5.745,-5.255 m -1.035,-1.035 m -0.235,-2.735 m -1.325,-9.825 m -1.47,-1.47 m 5.715,-5.285 m 0.005,-2.495 m -1.14,-4.14 m 5.5,-2.5 m -0.36,-3.36 m -0.2,-0.2 5.54,-5.46 m 0.445,-2.055 m -0.445,-3.445 m 5.12,-2.88 m 2.6,-0.4 m -3.13,-3.13 m -0.43,-2.93 m 7.495,-3.505 m 2.785,-0.215 m 3.69,-7.31 m 0.035,-2.465 m -1.995,0.505 5.585,-5.415 m 1.445,1.445 m 0.885,-1.615 m -2.065,-5.065 m 6.09,-4.91 m 0.55,0.55 m 6.055,-7.445 m 8.855,5.855 m 0.205,3.205 m -4.16,6.84 m -1.435,1.065 m 3.07,3.07 -5.555,5.445 m -0.735,-0.735 m -6.495,7.505 m -1.05,1.45 m 3.02,3.02 -5.56,5.44 -5.49,5.51 m -2.99,-2.99 m 6.2,-4.8 m 1.135,-1.365 m 9.31,6.31 m 1.53,4.53 m -5.385,2.615 m -1.47,2.53 -5.085,5.915 m -0.6,0.9 m 1.205,4.205 m -4.895,3.105 m -1.895,1.105 m -4.91,6.09 m -0.97,1.53 m 1.86,0.36 m -5.66,6.84 m -0.885,2.115 m 10.755,2.255 m 0.675,3.675 m -5.965,5.035 m 5.45,6.45 m 5.745,0.245 -5.39,5.61 m 0.2,4.7 m -0.13,0.87 m 0.885,7.885 5.56,0.06 5.735,0.235 5.225,-0.275 4.865,-0.635 5.29,-0.21 4.945,-0.555 m -0.3,5.2 -5.405,0.095 m 0.685,-7.315 m 0.945,-3.555 m 4.105,0.105 -5.66,-0.16 -5.35,0.15 -5.75,-0.25 -5.52,-0.02 -5.735,-0.235 -5.875,-0.375 -6.05,-0.55 -5.685,-0.185 m 4.365,1.865 m 0.12,-8.38 5.265,-0.235 5.075,-0.425 4.815,-0.685 4.61,-0.89 4.895,-0.605 5.015,-0.485 5.015,-0.485 5.215,-0.285 5.57,0.07 5.825,0.325 m 0.8,4.8 m -5.585,-0.085 -5.4,5.6 m 4.68,-1.82 m 5.645,2.645 5.435,-0.065 5.01,-0.49 5.37,-0.13 5.865,0.365 m 2.245,-3.255 m -6.985,1.515 -5.28,0.22 m 0.2,-2.8 -5.515,-0.015 -5.415,0.085 -5.095,0.405 -4.875,0.625 -5.11,0.39 -5.315,0.185 -5.86,-0.36 -5.18,0.32 -5.57,-0.07 -5.545,-0.045 -5.415,0.085 -5.385,0.115 -5.64,-0.14 -5.495,0.005 -5.21,0.29 -4.88,0.62 -5.11,0.39 m 1.92,-0.58 m 0.475,2.975 5.72,0.22 5.685,0.185 m -0.73,-3.23 m -3.52,-3.52 -5.145,0.355 -5.065,0.435 m -6.575,-4.075 5.355,-0.145 5.035,-0.465 5.06,-0.44 5.325,-0.175 m 5.515,-2.485 -5.195,0.305 -5.385,0.115 -5.555,-0.055 m 5.895,-4.105 m 11.085,10.085 m 0.505,14.005 -5.28,0.22 -5.63,-0.13 -5.95,-0.45 -5.83,-0.33 m 4.3,4.3 5.54,0.04 5.32,-0.18 5.565,0.065 m -2.97,0.03 -5.2,0.3 m -1.95,4.55 m 0.055,4.555 5.385,-0.115 5.18,-0.32 m 0.315,-2.685 -5.405,0.095 -5.52,-0.02 -5.545,-0.045 -5.685,-0.185 m 3.835,-4.165 5.74,0.24 5.935,0.435 5.825,0.325 m 2.435,3.435 -5.19,5.81 m 3.255,2.255 -5.605,-0.105 -5.47,0.03 m 0.83,-3.67 m 6.23,6.23 m 4.295,0.295 -5.895,-0.395 -5.36,0.14 -5.075,0.425 -5.12,0.38 m 0.06,-5.44 5.605,0.105 5.54,0.04 5.595,0.095 5.88,0.38 5.69,0.19 m -7.035,2.465 m 1.15,5.65 -5.19,0.31 m 3.645,3.645 m 1.855,-1.145 -4.855,0.645 -5.305,0.195 m 4.16,4.16 5.665,0.165 m 0.34,5.84 -5.435,0.065 m -0.215,-2.715 m 2.925,5.425 m 3.835,9.335 -6.02,-0.52 -5.825,-0.325 -5.615,-0.115 -5.475,0.025 -5.785,-0.285 -6.025,-0.525 -5.9,-0.4 -5.7,-0.2 -5.61,-0.11 m 4.775,-2.225 m 0.5,-0.5 5.425,-0.075 5.19,-0.31 m -0.005,-3.005 -5.67,-0.17 -5.37,0.13 -5.855,-0.355 -5.835,-0.335 -5.72,-0.22 -5.57,-0.07 -5.835,-0.335 m 0.925,-0.575 m 0.065,5.565 -5.18,5.82 -5.73,5.27 m -0.475,-1.475 5.835,0.335 5.815,0.315 5.715,0.215 m 0.71,1.71 m 0.88,-3.12 -5.305,0.195 -6.1,-0.6 -6.09,-0.59 -5.965,-0.465 -5.8,-0.3 -5.81,-0.31 -5.61,-0.11 -5.54,-0.04 -5.315,0.185 -5.39,0.11 -5.415,0.085 m -0.36,-0.36 5.915,-5.085 m 0.705,-1.795 -5.51,-0.01 m -0.94,1.56 5.665,0.165 5.8,0.3 5.72,0.22 m -3.14,-3.14 -5.755,-0.255 -6.065,-0.565 -5.525,-0.025 m -1.18,-3.68 m -0.24,-3.24 5.85,-5.15 5.445,-5.555 m -0.26,2.74 -5.725,-0.225 -5.775,-0.275 -5.685,-0.185 -5.755,-0.255 -5.555,-0.055 m 2.02,-0.98 5.265,-0.235 5.6,0.1 5.745,0.245 5.61,0.11 5.215,-0.285 5.485,-0.015 m -1.44,4.06 -6.015,-0.515 -5.495,0.005 -5.555,-0.055 -5.565,-0.065 -5.655,-0.155 -5.46,0.04 -5.6,-0.1 m 2.225,5.225 5.145,-0.355 m -0.035,-3.035 5.495,-5.505 5.76,-5.24 5.7,-5.3 m -1.23,-1.23 -5.46,0.04 -5.565,-0.065 m -0.67,2.33 m -4.445,3.555 5.675,0.175 5.82,0.32 5.79,0.29 5.825,0.325 5.89,0.39 5.595,0.095 m -2.835,0.165 h -5.5 l -5.48,0.02 m -2.935,5.065 m -0.615,4.885 5.39,-5.61 5.325,-5.675 m -0.38,-2.88 m 1.465,-1.535 5.2,-5.8 m 3.765,3.765 -5.13,0.37 -5.285,0.215 m 1.11,-1.39 m -0.84,-3.84 5.42,-5.58 5.625,-5.375 5.455,-5.545 m 1.75,1.75 5.24,-0.26 4.995,-0.505 5.16,-0.34 5.2,-0.3 5.23,-0.27 5.635,0.135 5.355,-0.145 5.56,0.06 5.94,0.44 m -1.305,1.695 -5.545,-0.045 m -0.1,-3.1 5.675,-5.325 5.75,-5.25 m -0.415,-2.915 m -5.485,2.515 5.725,0.225 5.75,0.25 5.385,-0.115 m 1.045,-1.455 m -5.87,2.13 -5.32,5.68 m 1.315,1.315 -6.14,-0.64 -6.125,-0.625 -5.98,-0.48 -5.775,-0.275 -5.37,0.13 -5.11,0.39 -5.26,0.24 -5.505,-0.005 -5.735,-0.235 m 0.24,3.24 5.25,-0.25 m 0.64,-2.36 m 5.32,-0.18 m 3.99,-1.51 -5.235,5.765 m 6.325,0.825 5.71,-5.29 m -1.715,1.285 5.735,0.235 m 1.225,-1.775 -5.57,5.43 m 5.055,2.555 -4.96,0.54 -5.25,0.25 m -4.97,3.03 5.515,0.015 5.49,-0.01 5.555,0.055 5.52,0.02 5.065,-0.435 5.76,0.26 m -0.26,5.24 -5.645,-0.145 -5.785,-0.285 -5.795,-0.295 -5.59,-0.09 -5.495,0.005 -5.515,-0.015 -5.315,0.185 -5.03,0.47 -5.265,0.235 -5.33,0.17 -6,-0.5 -5.66,-0.16 -5.335,0.165 -5.73,-0.23 m -0.025,2.975 5.42,-0.08 m -2.16,-5.16 -5.42,5.58 -5.48,5.52 -5.49,5.51 -5.37,5.63 -5.14,5.86 -5.085,5.915 -5.38,5.62 m -1.81,3.69 5.505,-5.495 m -2.39,-4.89 -5.16,0.34 -5.655,-0.155 m -0.54,1.96 5.8,-5.2 m 3.585,-1.915 -5.425,0.075 -5.195,0.305 -4.975,0.525 -5.63,-0.13 m -0.53,-3.03 5.455,-0.045 5.365,-0.135 5.66,0.16 m -4.165,-1.665 -5.59,-0.09 m 0.475,0.475 -5.73,5.27 -5.335,5.665 -5.675,5.325 m -5.345,0.155 -5.92,5.08 m 4.63,2.13 5.22,-0.28 5.305,-0.195 5.375,-0.125 m -2.585,-0.085 m 2.99,-2.51 -5.56,-0.06 -5.47,0.03 -5.41,0.09 -5.15,0.35 -5.24,0.26 m -0.395,-0.395 5.47,-5.53 m -3.915,1.585 m -1.185,1.815 5.8,0.3 5.66,0.16 5.53,0.03 5.41,-0.09 5.725,0.225 m 1.245,3.745 m -2.105,3.395 -5.485,0.015 -5.34,0.16 -5.12,0.38 m 5.795,-5.205 m 5.99,-5.01 -5.505,-0.005 -5.045,0.455 -5.225,0.275 -5.225,0.275 -5.08,0.42 m -1.585,-1.585 m -0.315,-2.815 m 0.88,-2.12 m -0.015,-0.015 m -1.72,-4.22 m 0.6,-2.4 m -0.705,-6.205 m 2.705,-13.795 5.375,-0.125 m -1.605,-1.605 5.74,-5.26 m -0.01,-0.01 5.415,-0.085 5.395,-0.105 m 0.225,0.225 5.35,-5.65 m -0.4,-0.4 5.585,0.085 5.345,-0.155 5.53,0.03 m 3.005,-2.495 5.21,-0.29 5.125,-0.375 5.125,-0.375 m -1.505,-1.505 5.5,-5.5 m 1.23,1.23 5.435,-0.065 5.255,-0.245 5.18,-0.32 5.08,-0.42 5.235,-0.265 m -0.995,-0.995 m -3.62,-0.62 -5.27,0.23 -5.615,-0.115 -5.585,-0.085 m -1.09,1.41 m 5.955,0.455 5.585,-5.415 m -0.83,-0.83 5.295,-0.205 m 2.325,7.825 m 2.1,2.1 m 3.19,0.69 m 0.23,2.73 5.47,-0.03 m -1.78,-1.78 m -6.09,2.41 5.68,0.18 5.765,0.265 5.575,0.075 5.28,-0.22 5.04,-0.46 m -0.06,5.44 m -0.555,1.945 m 3.01,-2.49 -5.79,-0.29 -5.43,0.07 -5.055,0.445 -4.95,0.55 m -3.685,-0.685 5.615,0.115 5.32,-0.18 m -3,-0.5 -5.445,5.555 m 2.655,0.155 m -14.25,-6.25 m -0.24,13.76 -5.66,-0.16 m 3.535,3.535 m -8.255,-5.755 5.86,0.36 5.315,-0.185 5.11,-0.39 4.875,-0.625 5.095,-0.405 5.415,-0.085 5.515,0.015 5.465,-0.035 m 0.1,-2.4 m -1.315,6.685 m 10.695,-0.305 5.775,0.275 5.915,0.415 5.965,0.465 m 1.18,-4.32 -5.505,-0.005 -5.54,-0.04 -5.425,0.075 m 4.42,-3.58 5.645,0.145 m 0.79,8.79 m -1.655,1.345 m 1.445,3.945 -5.655,-0.155 -5.46,0.04 m -1.385,7.115 5.47,-0.03 5.67,0.17 m 1.385,-1.615 -5.255,5.745 -5.06,5.94 m -0.355,-0.355 -5.47,0.03 m 0.415,3.415 5.385,-0.115 5.63,0.13 m -1.75,3.75 -5.395,0.105 m 1.425,-1.575 -5.895,-0.395 m -1.755,3.745 5.595,-5.405 m 1.7,5.7 m -0.965,3.535 m 0.86,1.86 -5.785,5.215 -5.665,5.335 -5.425,5.575 -5.34,5.66 m 1.225,0.225 -5.84,-0.34 m 0.13,2.63 5.305,-0.195 m 4.38,4.38 m -1.13,1.87 m 0.165,2.665 m 1.185,-0.315 m 5.195,12.195 m 0.52,3.52 m 5.045,7.545 m -1.91,2.09 m 3.69,2.69 m -0.76,1.74 m 4.48,9.98 m -10.925,5.575 m -11.075,2.925 m -10.62,2.88 m -6.83,15.17 m 2.745,1.245 m -11.48,-1.48 m -0.56,1.94 m -0.68,-6.18 m -9.325,4.675 m -0.405,0.595 m 0.51,2.01 m -6.825,12.675 m -6.655,10.845 m 0.525,2.025 m 12.415,6.915 m 9.205,-3.295 m 0.925,-0.075 m 0.225,2.725 m 10.58,-1.92 m 1.02,2.52 m 8.175,-2.825 m 2.995,1.495 m 10.31,-1.69 m -0.43,-3.43 m 11.555,-4.945 m -4.215,-9.715 m -1.135,-6.635 m -5.545,-8.045 m 0.23,-2.77 m 14.645,6.645 m 0.95,1.95 m 0.63,2.13 m 10.85,-5.65 m 5.23,10.73 m 11.215,-5.285 m 4.475,-23.025 m -4.35,-9.85 m -6.385,-11.885 m -4.77,-10.27 m -0.815,-2.315 m -3.565,-9.065 m -0.94,-1.94 m -0.915,-3.915 m 5.555,-6.945 m 0.855,-0.145 5.535,0.035 5.59,0.09 5.265,-0.235 5.09,-0.41 m 0.97,-2.03 -5.48,0.02 -5.43,0.07 -5.49,0.01 -5.33,0.17 -5.49,0.01 -5.505,-0.005 -5.525,-0.025 m -0.67,-2.17 5.425,-5.575 5.385,-5.615 5.265,-5.735 5.36,-5.64 m -0.21,-1.21 -5.42,0.08 -5.115,0.385 m -0.345,6.155 m -5.785,4.215 5.805,0.305 5.885,0.385 m -0.035,5.465 m -1.045,5.455 m -4.195,1.305 m -0.245,-1.245 -5.02,0.48 -5.51,-0.01 m 5.35,0.85 m -3.11,-9.61 -4.925,0.575 -5.31,0.19 -5.86,-0.36 -5.62,-0.12 -5.435,0.065 -5.57,-0.07 -5.53,-0.03 m -1.19,-1.19 5.195,-0.305 5.37,-0.13 5.32,-0.18 5.365,-0.135 m -1.84,-0.84 m -4.125,-2.625 -5.725,5.275 m -0.575,4.925 5.58,-5.42 m -5.1,-5.1 -5.38,5.62 m -0.115,-0.115 5.45,-0.05 5.68,0.18 5.805,0.305 5.665,0.165 5.81,0.31 5.305,-0.195 5.115,-0.385 5.015,-0.485 5.02,-0.48 5.135,-0.365 5.725,0.225 5.745,0.245 m 1.43,-1.07 -5.06,0.44 m -6.06,0.44 m 5.885,5.885 m -2.33,2.17 5.685,0.185 m 0.52,1.52 -5.495,5.505 m -2.21,2.29 5.775,0.275 6.265,0.765 m -4.48,2.02 m -9.985,-4.485 5.185,-5.815 m 5.065,-4.435 -5.19,0.31 -5.41,0.09 -5.6,-0.1 -5.855,-0.355 -5.74,-0.24 h -5.5 l -5.475,0.025 -5.455,0.045 -5.395,0.105 -5.49,0.01 -5.59,-0.09 -5.29,0.21 m 3.78,2.28 m -7.715,-11.715 5.4,-5.6 m -2.01,3.49 m -4.595,0.905 5.575,0.075 5.47,-0.03 5.255,-0.245 5.095,-0.405 5.04,-0.46 5.25,-0.25 5.73,0.23 5.455,-0.045 5.37,-0.13 5.555,0.055 5.14,-0.36 5.41,-0.09 5.915,0.415 6.035,0.535 5.81,0.31 5.685,0.185 5.94,0.44 m -5.27,-1.27 m -1.39,-2.39 m -3.195,-3.195 m -1.7,0.8 5.295,-0.205 5.075,-0.425 5.3,-0.2 5.71,0.21 5.75,0.25 5.925,0.425 5.745,0.245 5.865,0.365 m -0.315,2.685 m -0.655,0.345 m -0.825,0.675 -5.32,0.18 m 4.285,2.785 m 3.33,2.33 m 0.315,2.815 -5.56,-0.06 -5.625,-0.125 m 7.75,2.25 5.57,0.07 6.025,0.525 5.7,0.2 m -3.625,-3.625 m -12.185,1.815 m -1.225,-0.225 m -3.72,-14.72 m 0.055,-0.945 -5.46,0.04 -5.52,-0.02 -5.625,-0.125 m -0.155,5.345 5.445,-0.055 m -0.225,2.275 -5.715,-0.215 m -0.5,-2 m 1.97,6.47 m 0.115,2.615 -5.27,0.23 -5.065,0.435 -5.21,0.29 -5.71,-0.21 m 4.455,4.455 m -7.395,7.605 m -9.145,-10.145 m 5.665,-4.335 m 0.095,-5.405 5.28,-5.72 5.115,-5.885 m 6.065,5.065 m 13.955,-7.045 m -0.765,-1.765 5.89,0.39 m 1.605,2.605 m 0.42,5.92 m -11.115,-20.615 m -25.97,0.03 -5.765,5.235 -5.955,5.045 -5.765,5.235 m -1.175,0.325 -5.115,0.385 -5.24,0.26 -5.305,0.195 -5.245,0.255 -5.515,-0.015 m -5.16,8.84 -5.785,-0.285 m -10.885,0.115 -5.66,-0.16 -5.535,-0.035 m -0.715,-6.215 5.415,-0.085 m -5.645,-3.145 5.21,-5.79 m -0.39,-2.89 m 1.655,-1.345 -5.15,5.85 m 4.015,-9.485 5.4,-0.1 m 1.34,3.84 -5.575,-0.075 -5.715,-0.215 -5.665,-0.165 -5.63,-0.13 -5.38,0.12 -5.45,0.05 -5.86,-0.36 -5.665,-0.165 -5.37,0.13 -5.325,0.175 -5.45,0.05 m 1.34,-4.16 m 4.43,4.43 m -0.2,2.8 5.595,0.095 5.645,0.145 5.59,0.09 m 1.75,4.25 -5.835,-0.335 -5.925,-0.425 -6.005,-0.505 -5.725,-0.225 m 9.96,4.46 m 0.665,-1.835 m 0.925,3.425 5.63,-5.37 m 16.84,-10.66 m 3.83,1.33 5.31,-0.19 m 9.785,-4.215 m -21.05,-7.05 -5.77,-0.27 m 1.32,-1.68 m -6.985,-17.985 m -4.68,-4.68 -5.365,0.135 m 0.01,-2.49 -5.37,0.13 -5.455,0.045 -5.315,0.185 m -0.29,2.21 5.415,-5.585 m 3.345,-2.155 m 7.85,2.35 m 1.445,-1.055 5.47,-0.03 5.34,-0.16 m -12.365,12.135 m -12.155,15.345 -5.24,0.26 -5.62,-0.12 m 6.975,4.475 m -0.3,7.7 m -5.455,5.545 -5.48,0.02 m 0.385,3.385 m -1.59,-7.09 m 7.4,26.4 m -0.49,2.51 -5.47,0.03 -5.525,-0.025 -5.84,-0.34 m 0.145,2.645 m -4.595,0.905 -5.245,5.755 m -1.17,-1.17 -5.48,0.02 m -0.6,-6.1 5.345,-0.155 5.56,0.06 5.845,0.345 6.11,0.61 5.835,0.335 5.785,0.285 m -0.92,2.08 5.535,0.035 m 0.69,3.19 m -0.565,4.935 5.315,-0.185 5.22,-0.28 m -4.225,-1.225 m -1.725,0.775 5.915,-5.085 m -1.29,-3.79 m 5.995,2.995 m 0.935,0.935 -5.485,0.015 -5.63,-0.13 -5.795,-0.295 -5.69,-0.19 m -3.095,-3.095 m 2.41,-3.09 m -2.595,13.905 m 7.61,2.11 5.895,0.395 m -4.16,6.84 m 5.91,5.91 m -2.155,3.345 -5.635,5.365 m 2.765,-2.735 m -5.975,-0.475 -5.44,5.56 m -0.29,2.71 -5.465,0.035 h -5.5 l -5.455,0.045 m -0.39,2.11 5.445,-0.055 5.525,0.025 m 0.515,-4.985 5.62,-5.38 m -9.72,1.28 m -1.275,-1.275 5.55,0.05 5.375,-0.125 5.355,-0.145 5.68,0.18 5.615,0.115 5.55,0.05 5.41,-0.09 5.605,0.105 5.73,0.23 5.46,-0.04 5.075,-0.425 m -0.455,-0.455 m 0.25,3.25 -5.895,-0.395 -5.765,-0.265 -5.315,0.185 -5.4,0.1 m 0.165,2.665 5.535,-5.465 m 7.335,1.835 m 2.925,2.925 -5.245,0.255 -5.47,0.03 -5.325,0.175 -5.44,0.06 -5.575,-0.075 -5.36,0.14 -5.235,0.265 -5.355,0.145 -5.275,0.225 -5.34,0.16 -5.39,0.11 m -0.885,-3.385 5.44,-0.06 6.18,0.68 6.015,0.515 5.81,0.31 5.58,0.08 5.46,-0.04 m 3.115,-5.385 m 0.17,11.17 5.725,0.225 5.675,0.175 m 0.245,-2.255 -5.245,0.255 m 16.825,-8.175 m 6.77,-4.23 m -2.43,-4.93 m 2.225,-0.775 m -1.76,-1.76 m -4.42,-4.42 m -1.575,-1.575 m -5.795,-2.795 m 0.66,-2.34 -5.31,0.19 m 0.88,0.88 m -0.65,-3.15 m 4.555,1.555 m 34.95,27.95 m -0.115,1.385 m 0.605,3.605 m 1.675,4.175 m 2.885,5.885 m -1.17,1.33 m -10.01,-1.51 m -0.625,0.375 m -2.17,-0.67 m -19.94,7.56 m 5.92,11.42 m 11.725,32.225 m 0.295,1.795 m -10.19,0.81 m 21.685,-0.315 m 9.035,-7.465 m 28.535,9.535 m 0.18,-32.82 m 4.73,-20.27 m -4.93,-11.93 m -1.78,-0.28 m 1.15,-4.35 m -3.19,-5.69 m -2.81,-0.31 m 0.28,-1.22 m 0.18,-3.82 m -1.07,-2.57 m 0.29,-0.71 m -4.715,-20.215 m 4.135,-1.365 m -3.01,-4.01 m 3.295,-29.705 m 0.04,-2.96 m 2.535,-2.965 5.445,-0.055 5.255,-0.245 m -2.37,3.13 m -0.3,3.7 m 1.005,0.005 m 5.665,-2.835 -5.8,-0.3 -5.935,-0.435 -5.695,-0.195 -5.425,0.075 m 17.585,-6.915 m 15.905,-14.595 m -1.22,-3.72 m 2.695,-2.805 m 4.55,10.05 m 0.185,2.685 m 3.46,3.46 m -3.51,7.49 m 3.905,1.405 m 0.515,3.015 -5.49,0.01 m 0.23,3.23 5.505,0.005 m 0.41,2.91 -5.735,-0.235 m -4.445,4.055 5.44,-0.06 5.78,0.28 m 0.265,1.265 m 1.24,-4.26 -5.68,5.32 m 1.44,11.44 m -15.42,-9.92 m 1.28,36.78 5.545,0.045 5.565,0.065 5.635,0.135 5.8,0.3 5.91,0.41 5.405,-0.095 5.305,-0.195 5.28,-0.22 m -1.1,1.9 -5.19,0.31 m 3.865,-0.635 m 46.72,13.72 5.135,-5.865 m 5.595,-11.905 m 2.62,-1.88 m -3.255,-7.255 m 21.505,-2.995 5.66,0.16 5.865,0.365 m 4.52,4.52 m 12.88,-3.62 5.385,-0.115 m -1.05,-0.05 5.51,-5.49 5.185,-5.815 m 0.215,-0.785 m 1.575,-1.425 -5.285,0.215 -5.315,0.185 m 2.395,0.895 5.58,-5.42 5.66,-5.34 5.84,-5.16 m 0.215,-0.785 m -2.96,-0.46 -5.155,0.345 -5.66,-0.16 -6.17,-0.67 -5.54,-0.04 m 3.97,1.47 5.39,-0.11 5.35,-0.15 m 0.2,1.2 5.175,-5.825 m -3.99,8.51 -5.58,-0.08 -5.225,0.275 m -3.5,-0.5 5.725,0.225 5.405,-0.095 m 2.885,3.885 m 4.005,0.005 -6.035,-0.535 -6.045,-0.545 -6.03,-0.53 m 7.55,5.05 5.815,0.315 5.955,0.455 m 5.075,5.075 m 2.04,-0.96 m -1.695,-12.695 m -13.25,-14.75 m -3.025,1.475 m -4.705,-2.205 -5.195,0.305 m -2.885,0.115 m 1.205,-8.795 m -0.82,-7.32 5.29,-0.21 5.305,-0.195 5.615,0.115 m -3.69,-1.19 -5.18,0.32 -5.735,-0.235 -5.715,-0.215 -5.715,-0.215 -5.915,-0.415 -6.075,-0.575 -5.545,-0.045 m 7.065,-6.435 5.2,-0.3 m -1.825,0.675 5.34,-0.16 5.915,0.415 m 0.96,-1.54 5.465,-0.035 5.115,-0.385 m 0.29,-2.71 -5.485,0.015 -5.29,0.21 -5.26,0.24 -5.45,0.05 -5.39,0.11 m -5.175,-2.175 m 11.735,0.735 m -0.365,-4.865 5.6,-5.4 m 3.27,3.27 m 1.655,6.155 5.35,-0.15 m 0.115,1.115 m 6.21,0.71 5.34,-5.66 m -1.37,-2.37 m -1.27,1.23 m 7.05,-3.95 m 1.145,-1.355 m -4.165,-4.165 m -1.395,-4.395 m -5.73,5.27 m 11.81,-10.19 m -17.785,-14.785 m -1.1,-0.1 -5.65,5.35 -5.49,5.51 -5.45,5.55 m 1.8,0.8 m -0.08,2.42 m 5.57,-5.43 m -1.33,-3.83 m 5.905,-2.595 m -0.55,-3.05 m -4.805,-10.305 m 3.625,-6.375 -5.225,5.775 -5.225,5.775 m -0.28,1.22 m 1.565,-0.935 m -4.22,9.28 m -5.97,5.03 m -1.225,1.775 m -5.505,5.495 m 0.23,1.23 m -5.16,-9.16 m -0.13,-2.63 m -7.3,3.7 m -4.165,-7.165 m 0.46,-1.04 -5.53,5.47 m -1.545,-0.045 m 5.165,-8.335 m 5.64,-5.36 m 1.425,-1.575 m 5.26,-2.74 m -0.68,-3.68 m 7.47,-3.53 m -1.405,-2.905 m -0.585,-1.585 m -1.985,-7.485 m -3.89,-2.89 -5.695,5.305 m 0.555,2.055 m -3.02,7.98 m -2.08,0.92 m -6.325,1.675 m 0.77,3.77 m -0.445,2.055 m 1.79,0.29 -5.46,5.54 m -0.9,-1.9 m -1.88,0.62 m -19.695,-8.695 m -0.15,-0.15 -5.095,5.905 m -0.365,-0.365 m 6.1,-7.4 m 5.15,-5.85 m 0.48,-2.52 m -1.52,-1.52 m 4.985,-6.015 m 0.19,-2.31 m -8.72,-0.72 m -7.83,0.67 m -9.49,-1.49 m -0.42,-2.92 m -1.005,-4.005 m 5.21,-2.79 m 1.535,-1.465 5.435,-5.565 m -1.66,-1.66 m 0.105,-2.395 m 1.52,-1.48 5.27,-5.73 5.59,-5.41 m -0.1,-0.1 m 1.91,-0.59 m -2.475,-5.475 m -0.215,-0.215 5.835,-5.165 m 0.225,-2.275 m 1.825,4.325 m 4.47,-9.03 m 1.41,-1.59 m -1.705,-1.705 m 5.585,-5.415 m -0.54,-3.04 m 5.09,-3.41 m 1.22,-1.28 m -0.615,-3.615 m -1.51,-1.51 5.675,-5.325 m -0.925,-0.925 m 6.44,-7.06 m 8.475,-5.525 m 8.82,8.82 m 1.94,1.94 m -6.465,7.535 m -4.32,9.18 m 0.475,0.475 m -8.025,2.975 m 10.845,10.845 m 0.655,0.655 m 6.115,-4.885 m 0.34,-2.16 m -1.555,-4.555 m 4.66,-3.34 m 1.855,-1.145 m 0.055,0.055 5.325,-5.675 m -1.425,-1.425 m 6.71,-6.79 m 3.545,-10.455 m -7.905,-7.905 m -2.015,-2.015 m 16.125,27.125 m 2.585,2.585 m 3.87,-7.13 m 4.365,12.865 m 6.495,-4.505 m -11.115,11.885 m 0.385,1.885 m -6.795,4.205 m -7.865,-2.365 -5.34,5.66 m -1.25,-1.25 m 5.445,-5.555 m 0.905,-1.595 m 3.16,-10.84 m 1.11,26.11 m 0.52,1.52 -5.79,5.21 -5.57,5.43 m -0.465,-1.465 m -1.07,1.43 m 0.715,3.715 m -5.025,5.975 m 0.41,1.41 -5.605,5.395 m 1.005,0.005 m -1.19,1.31 m -4.6,6.4 m 9.36,3.86 m 5.095,-5.905 m 2.41,0.91 5.745,-5.255 5.565,-5.435 m -1.45,-2.45 m -0.82,-3.82 m 4.015,-6.985 m -3.04,-8.54 m -7.585,0.915 m 1.505,4.005 m -10.76,-7.76 m -6.36,4.64 m -0.375,2.125 m -6.19,4.81 m 2.015,2.015 m -4.195,6.805 m -2.015,0.985 m -0.18,2.32 m -4.515,3.985 m -1.3,1.2 m -0.395,-0.395 m -9.005,15.995 m -2.15,0.35 m 29.155,1.655 m -0.23,2.77 m 10.065,4.565 m 1.46,2.46 -6.005,4.995 -5.67,5.33 m 0.325,-0.675 m -0.33,2.17 m -5.985,5.015 m 10.545,-11.455 m 7.075,-3.925 m 4.42,-9.08 m 0.095,-2.905 m 6.095,-4.905 m -0.79,-2.29 5.655,-5.345 5.38,-5.62 5.83,-5.17 m 1.135,0.135 m -2.68,-5.68 m 5.37,-5.63 m 2.76,1.26 m -3.94,-9.44 m -0.725,-1.725 m 3.66,-7.34 m -9.31,15.19 m -1.275,18.225 m -1.755,0.745 m -4.895,3.605 m -0.7,1.8 m -9.195,-3.695 m -0.175,-2.675 m -6.79,4.21 m -2.765,-5.765 m 18.925,24.425 m 0.92,3.92 m -4.26,6.74 m 8.765,0.265 m 1.94,4.94 m 5.445,-5.555 m 0.52,-2.48 m 4.01,-6.99 m 6.89,-4.11 m -7.135,-12.635 m 0.02,-2.48 m 5.455,-3.045 m 0.9,-0.6 -5.95,5.05 -5.65,5.35 m -1.09,0.41 m -2.725,8.275 m 14.32,14.32 m 1.93,-33.57 m -37.275,73.725 m 20.735,16.735 m 4.765,3.265 m 1.365,0.365 m 4.235,-6.765 m -0.64,-3.64 m -11.335,57.665 m -3.665,7.335 m -0.46,0.54 m -4.695,-8.695 m 15.065,9.565 -5.36,0.14 -5.31,0.19 -5.25,0.25 -5.535,-0.035 -5.585,-0.085 -5.485,0.015 -5.725,-0.225 m -16.345,-21.845 m -12.08,-34.08 -5.425,0.075 -5.065,0.435 m 9.97,-6.53 m 6.725,-6.775 m -6.76,-6.76 m -4.45,-4.45 m 5.165,-4.835 m -59.36,8.14 m -17.65,1.85 -5.47,0.03 -5.38,0.12 m -5.94,2.06 5.6,-5.4 5.31,-5.69 m 1.865,4.865 m -12.71,0.79 m 2.04,-8.96 m -0.475,-0.475 m 6.04,-7.46 m -10.615,-8.115 m -3.47,-3.47 m -0.015,-2.515 m -8.255,-0.255 m -0.15,-2.65 m 3.57,-10.43 m -0.32,-0.32 m 0.06,-2.44 m 6.99,-7.01 m 1.195,1.195 m 8.53,6.03 m 0.065,2.565 m -2.71,8.29 m 0.365,0.365 m -1.13,1.87 m 11.435,-16.065 m -0.97,-3.97 m -0.005,-0.005 m 5.35,-11.15 m -0.975,-0.975 m -8.395,-2.895 m -2.875,-5.375 m 5.445,-5.555 m 2.125,-0.875 m -1.94,-1.94 m 7.65,-3.35 m -1.545,-4.045 m 0.415,-2.585 m 3.975,-7.025 m 3.27,0.77 m 4.635,-9.365 m 0.91,-1.59 m 5.35,-5.65 m 3.485,-10.515 m 0.895,-1.605 m 6.525,-7.475 m -1.385,-1.385 m 6.72,-9.78 m 5.22,-5.78 m -1.75,-1.75 m -1.05,-3.55 m 16.595,2.595 m 17.38,6.38 m 2.86,0.36 m 5.03,-5.97 m -19.98,18.52 m 1.75,4.25 m -5.275,5.725 m -0.505,-0.505 m -4.575,9.425 m -1.165,1.335 m 0.445,0.445 m -4.79,9.21 m -5.425,8.075 m 1.065,1.065 m -7.225,3.775 m -0.34,2.66 m -5.405,8.095 m 0.01,0.01 m -4.265,9.735 m -1.375,1.125 m 0.865,0.865 m 15.62,-0.88 m 0.985,-1.515 m 6.285,-7.715 m 3.25,-7.75 m 0.48,-2.02 M 240.89,74.8425 m -7.375,6.625 m -0.575,1.925 m 2.045,2.045 m -12.32,15.18 m -6.48,4.52 m -0.19,2.81 m -19.46,10.54 m -2.025,-2.025 m -10.305,-4.805 m -0.23,-0.23 m -6.31,10.19 m 2.105,2.105 m -7.19,9.31 m -9.285,-0.785 m -0.075,-3.075 m -0.97,-0.97 m -0.995,-3.495 m 6.055,-4.945 m -0.465,-3.465 m -0.32,-0.32 m -8.565,-3.065 m -1.14,1.86 m 0.33,-5.17 m -2.63,-0.13 m 8.43,-5.07 m 0.3,-2.7 m -2.74,-2.74 m -8.875,-3.375 m -0.82,-0.82 m -9.97,1.03 m -0.615,-0.615 m -1.015,-3.515 m 0.92,-2.08 m 5.21,-5.79 m -0.51,-3.01 m 0.815,-2.185 m -9.715,1.285 m -2.18,-2.18 m -1.245,-3.745 m -8.74,-0.74 m -0.805,2.195 m -0.125,2.375 m 0.17,0.17 m -8.955,-0.455 m 0.275,-2.725 m -1.995,-1.995 m -5.505,-8.005 m 0.145,-2.855 m -0.115,-0.115 m -5.16,5.84 m 1.085,-15.415 m -1.465,-1.465 m -1.205,-3.705 m 11.58,0.58 m 1.69,-1.31 m -1.815,-1.815 m 11.715,0.715 m 1.795,1.795 m -1.865,1.135 m -4.6,11.9 m 0.3,2.8 m 9.035,-1.965 m 2.2,2.2 m 9.735,-1.265 m 0.845,0.845 m 0.015,3.015 m 10.5,2 m 5.07,-11.43 m 0.785,-1.715 m 9.71,1.21 m 3.24,6.24 m 7.67,2.17 m 1.335,3.835 m 0.965,0.965 m -7.165,6.835 m 0.51,3.01 m 0.22,0.22 m -9.72,-6.72 m -1.09,1.41 m -6.745,7.255 m -1.005,1.495 m 3.1,3.1 m 8.975,3.475 m 1.415,1.415 m 10.89,2.89 m -7.59,8.91 m 0.145,2.645 m 0.51,0.51 m 16.675,-5.325 m 0.855,0.855 m 4.265,-9.235 m 0.92,-2.08 m -1.485,-1.485 m 5.99,-5.01 m 0.89,-1.61 m 7.245,-6.755 m -0.86,-0.86 m 0.39,-2.11 m 4.555,-6.445 m -1.025,-4.025 m 5.565,-10.935 m 7,-4 m 0.35,-2.15 m 3.68,-7.32 m 0.955,-2.045 m -2.31,-2.31 m -12.68,3.82 m -1.45,-1.45 m -6.4,10.1 m 1.625,1.625 m -7.505,6.495 m -8.03,-5.53 m -6.865,7.135 m -11.225,-3.225 m -11.25,-8.25 m -10.26,-4.76 m -1.605,0.895 m -8.845,-0.345 m 0.03,-2.97 m -11.01,-2.51 m 14.855,14.855 m -0.46,2.04 m 1.76,1.76 m 21.985,-19.015 m -0.485,-3.485 m 14.465,-2.035 m 0.715,-1.785 m 13.09,10.09 m -1.98,25.52 m 0.095,0.095 m 0.23,3.23 m -5.26,8.24 m 0.455,0.455 m -45.535,34.465 m -9.88,-4.38 m -1.52,0.98 m -9.1,-0.6 m -1.685,0.815 m -0.93,-0.93 m -2.12,11.88 m 3.455,0.455 m 2.13,2.13 m -3.035,7.965 -5.295,0.205 m -2.25,0.75 m 2.05,10.05 m -4.105,12.395 -5.555,-0.055 m 0.155,0.155 m -16.075,11.425 m -16.175,33.325 m -7.705,0.795 -5.525,-0.025 m -5.345,2.655 m -3.22,5.28 -5.675,-0.175 m 1.08,61.58 m -0.785,4.715 m -0.585,1.915 m -1.74,1.26 m -0.26,2.24 m 2.5,2.5 m 0.09,3.09 m -1.515,0.985 m -0.555,2.445 m 2.45,-0.55 m 0.905,-10.095 m 8.265,24.765 m 92.735,-2.265 m 2.19,-1.81 m 0.11,5.61 m 2.7,8.2 m 1.945,4.945 m -16.08,85.42 m -10.215,-0.715 m -1.135,0.365 m 0.92,15.92 m 5.835,0.335 m 3.755,-1.745 m 4.565,-0.935 m 6.475,0.975 m 4.92,-0.58 m 5.215,-0.285 m -37.215,1.285 m -6.67,-1.17 m -4.14,1.36 m -4.385,1.115 m -4.905,0.595 m -2.58,-6.58 m -4.455,5.045 m -6.68,-1.18 m -4.65,0.85 m -5.345,0.155 m -7,-1.5 m -3.335,2.165 m -6.245,-0.745 m -4.69,0.81 m -7.86,-2.36 m -2.55,2.95 m -6.31,-0.81 m -5.275,0.225 m -6.23,-0.73 m -5.05,0.45 m -5.915,-0.415 m -6.635,-1.135 m -5.24,0.26 m -6.825,-1.325 m 170.815,-215.185 m 6.76,-18.24 m 6.415,-10.085 m -0.695,-0.695 m -11.415,-5.915 m -9.97,-4.47 m -1.635,-1.635 m 0.98,-1.52 m -8.905,-0.905 m -0.76,2.24 m -1.38,-4.38 m -3.625,7.375 -5.24,0.26 m -6.305,-3.305 -5.72,-0.22 m 4.815,-11.685 m 8.905,-10.595 m 2.39,2.39 m 9.96,4.46 m 0.33,0.33 m 12.16,4.16 m -11.94,21.06 m -1.18,1.32 m -1.3,-1.3 m -8.61,2.39 -5.47,0.03 -5.27,0.23 -5.6,-0.1 m -0.02,-0.02 m 11.455,0.455 m -1.035,-45.035 m -0.135,-0.135 m -0.255,-2.755 m 11.355,2.855 m 0.615,0.615 m -23.03,-31.03 m 1.13,-1.87 m -0.525,-0.525 m -10.165,0.835 m -2.095,0.905 m -14.73,20.77 m -5.11,11.39 M 248.76,55.2125 m 0.96,0.96 m 2.365,-0.135 m 3.94,-10.06 m 99.875,212.875 m -1.07,15.43 -5.81,-0.31"
     id="path1" />
  <plotdata
     application="axidraw"
     model="1"
     plob_version="n/a"
     layer="-2"
     pause_dist="-25400"
     pause_ref="-25400"
     last_x="6.556422071923861e-14"
     last_y="2.587759867500594e-13"
     rand_seed="1"
     row="0" />
</svg>
