<?xml version="1.0" encoding="UTF-8" standalone="no"?>
<svg
   style="position: fixed; background: white;"
   width="800"
   height="800"
   viewBox="0 0 800 800"
   version="1.1"
   id="svg1"
   sodipodi:docname="max-c-linescan-45-rotate.svg"
   inkscape:version="1.3.2 (091e20e, 2023-11-25)"
   xmlns:inkscape="http://www.inkscape.org/namespaces/inkscape"
   xmlns:sodipodi="http://sodipodi.sourceforge.net/DTD/sodipodi-0.dtd"
   xmlns="http://www.w3.org/2000/svg"
   xmlns:svg="http://www.w3.org/2000/svg">
  <defs
     id="defs1" />
  <sodipodi:namedview
     id="namedview1"
     pagecolor="#ffffff"
     bordercolor="#000000"
     borderopacity="0.25"
     inkscape:showpageshadow="2"
     inkscape:pageopacity="0.0"
     inkscape:pagecheckerboard="0"
     inkscape:deskcolor="#d1d1d1"
     inkscape:zoom="0.34774859"
     inkscape:cx="404.02752"
     inkscape:cy="386.77368"
     inkscape:window-width="1280"
     inkscape:window-height="748"
     inkscape:window-x="0"
     inkscape:window-y="519"
     inkscape:window-maximized="0"
     inkscape:current-layer="svg1" />
  <path
     style="fill:none;stroke:#000000;stroke-width:2.87217px"
     d="m -415.36685,400.90523 829.6255,-795.47664 M -402.92247,412.83739 0.4829314,26.036863 M 22.260603,5.155604 426.70304,-382.63926 M -390.4781,424.76953 2.5569952,47.912473 M 50.260466,2.172567 439.14743,-370.70711 M -378.03369,436.70168 -1.591126,75.754154 M 75.149233,2.172567 451.5918,-358.77496 M -365.5893,448.63383 -1.591126,99.61846 M 100.03799,2.172567 464.03617,-346.84281 M -353.14494,460.56598 2.5569952,119.50536 M 124.92676,2.172567 476.48057,-334.91067 M -340.70056,472.49814 -1.591126,147.34705 M 147.74144,4.161253 488.92496,-322.97852 M -328.25617,484.43029 -1.591126,171.21135 M 174.70429,2.172567 501.36933,-311.04638 M -315.8118,496.36244 -1.591126,195.07567 M 199.59304,2.172567 513.81371,-299.11422 M -303.36741,508.29459 -1.591126,218.93995 M 224.48182,2.172567 526.2581,-287.18206 M -290.92301,520.22673 -0.554104,241.80991 M 249.37058,2.172567 538.70247,-275.24991 M -278.47864,532.15889 -1.591126,266.66855 M 274.25934,2.172567 551.14686,-263.31777 M -266.03425,544.09105 -1.591126,290.53285 M 299.1481,2.172567 563.59123,-251.38562 M -253.58988,556.02319 -1.591126,314.39715 M 324.03688,2.172567 576.03563,-239.45346 M -241.14549,567.95534 0.4829314,336.27277 M 348.92565,2.172567 588.48001,-227.52134 M -228.70111,579.88748 -1.591126,362.12574 M 41.96421,320.36322 59.593753,303.45935 M 373.8144,2.172567 600.92439,-215.58915 M -216.25674,591.81963 -0.554104,384.9957 m 7.2592272,-6.96041 22.8147038,-21.87562 m 1.037031,-0.99433 85.036602,-81.53636 m 1.03704,-0.99434 18.66658,-17.89824 m 93.33287,-89.49111 21.77766,-20.88127 M 398.70318,2.172567 613.36877,-203.657 M -203.81234,603.75179 164.33397,250.75903 m 90.22178,-86.50809 17.62955,-16.90389 M 423.59194,2.172567 625.81317,-191.72486 M -191.36795,615.68394 56.482658,378.03529 m 4.148116,-3.97739 53.925676,-51.70598 m 19.7036,-18.89257 67.40707,-64.63248 M 448.48071,2.172567 638.25753,-179.79272 M -178.92358,627.61609 160.18584,302.465 m 5.18518,-4.97174 44.59236,-42.75686 M 473.36946,2.172567 650.70192,-167.86057 M -166.4792,639.54823 88.630648,394.93916 m 8.296245,-7.95475 95.406937,-91.47983 M 498.25824,2.172567 663.14629,-155.92841 M -154.03481,651.48038 88.630648,418.80346 M 136.3341,373.06355 215.14852,297.49326 M 523.147,2.172567 675.5907,-143.99626 M -141.59044,663.41253 43.001242,486.41897 m 1.037031,-0.99434 45.629396,-43.75121 m 80.888491,-77.55899 67.40707,-64.63246 M 548.03576,2.172567 688.03507,-132.0641 M -129.14605,675.34469 106.26018,449.62818 m 94.3699,-90.48546 55.99974,-53.69467 M 572.92452,2.172567 700.47945,-120.13195 M -116.70166,687.27684 0.4829314,574.91575 M 7.7421552,567.95534 168.48211,413.83172 m 75.70331,-72.58724 21.77768,-20.88126 M 597.8133,2.172567 712.92383,-108.19981 M -104.25729,699.20897 -1.591126,600.76874 m 13.481419,-12.92649 79.851451,-76.56464 m 9.333286,-8.9491 81.9255,-78.55331 M 622.70207,2.172567 725.36822,-96.267665 M -91.8129,711.14113 -1.591126,624.63305 M 26.40873,597.7857 92.778765,534.14758 m 36.296125,-34.8021 69.48114,-66.62116 M 647.59082,2.172567 737.81259,-84.335518 M -79.368519,723.07328 -1.591126,648.49734 M 37.816093,610.7122 93.815798,557.01752 M 140.48225,512.27196 245.22246,411.84303 M 589.51704,81.720228 618.55392,53.878546 M 672.4796,2.172567 750.25696,-72.40337 M -66.924138,735.00542 0.4829314,670.37296 M 50.260466,622.64435 116.6305,559.00624 m 43.55534,-41.76255 87.11069,-83.52505 M 541.81358,151.32445 560.48014,133.42623 M 697.36836,2.172567 762.70139,-60.471223 M -54.479759,746.93758 -1.591126,696.22593 M 62.704849,634.5765 144.63037,556.02319 m 44.59237,-42.75688 25.92578,-24.85863 m 16.59251,-15.90954 23.85175,-22.86996 M 500.3323,214.96257 518.99887,197.06435 M 722.25712,2.172567 775.14575,-48.539062 M -42.035376,758.86973 -1.591126,720.09025 m 80.888486,-77.55897 24.88877,-23.86429 m 8.29625,-7.95479 59.11081,-56.67771 m 34.22205,-32.8134 64.29598,-61.64944 M 451.5918,285.56111 471.2954,266.66855 M 666.25739,79.73154 690.10914,56.861578 M 747.14588,2.172567 787.59013,-36.606914 M -29.590997,770.80188 -1.591126,743.95454 M 84.482521,661.42383 191.2968,559.00624 m 31.11096,-29.83039 63.25893,-60.6551 M 499.29526,263.6855 518.99887,244.79296 m 87.11067,-83.52506 18.66659,-17.89823 M 772.03466,2.172567 800.03451,-24.674766 M 112.48238,658.4408 146.70444,625.6274 m 4.1481,-3.97739 64.29598,-61.64945 m 18.66659,-17.89823 69.48113,-66.62116 M 668.33147,125.47144 702.55351,92.65804 M 124.92676,670.37296 171.59319,625.6274 m 7.25923,-6.96041 142.07337,-136.22538 M 140.48225,679.32207 196.48196,625.6274 m 15.55549,-14.9152 52.88862,-50.71164 m 22.81469,-21.87559 48.7405,-46.73426 M 660.0352,181.1548 688.03507,154.30747 M 817.66406,30.01425 837.36765,11.121677 M 20.186539,818.53049 43.001242,796.65488 m 124.443818,-119.3215 74.6663,-71.59289 m 89.18473,-85.51376 21.77768,-20.88125 M 590.55408,271.64029 608.18361,254.7364 M 729.51635,138.39795 750.25696,118.51102 M 816.62702,54.87289 849.81204,23.053826 M 32.630922,830.46262 65.815945,798.64356 M 207.88932,662.41818 226.55589,644.51995 m 25.92578,-24.85864 23.85173,-22.86995 m 76.74037,-73.5816 22.81471,-21.87561 m 260.295,-249.58078 30.07391,-28.83603 M 816.62702,78.737196 862.25643,34.98597 M 45.075306,842.39477 90.704702,798.64356 M 693.22023,220.92864 733.66447,182.14916 m 83.99959,-80.54202 57.03675,-54.688999 M 57.519678,854.32691 115.59346,798.64356 m 278.9616,-267.47901 17.62953,-16.90389 M 816.62702,126.4658 887.14518,58.850288 M 69.964073,866.25906 140.48225,798.64356 M 402.8513,547.07407 424.62896,526.19281 M 655.88708,304.45369 675.5907,285.56111 M 815.58999,151.32445 899.58958,70.782436 M 82.408456,878.19122 166.40805,797.64923 m 528.88623,-507.11638 63.25896,-60.65509 m 58.07378,-55.68337 95.40693,-91.479807 M 94.85284,890.12339 192.33383,796.65488 M 438.11039,560.99491 457.814,542.10233 m 25.92579,-24.85864 26.96283,-25.85298 M 818.70109,196.06999 924.47833,94.64673 M 107.29722,902.05554 215.14852,798.64356 M 457.814,565.96665 514.85073,511.27761 M 816.62702,221.923 936.92271,106.57888 M 119.74159,913.98769 240.0373,798.64356 M 816.62702,245.78728 949.36711,118.51102 M 132.18597,925.91982 267.00012,796.65488 m 471.84951,-452.42736 29.0369,-27.84167 M 816.62702,269.65159 961.81146,130.44318 M 144.63037,937.85198 289.81482,798.64356 m 249.9247,-239.63732 31.11094,-29.83039 m 162.81401,-156.1123 23.85175,-22.86996 M 816.62702,293.5159 974.25581,142.37533 M 157.07475,949.78412 314.70361,798.64356 m 242.66543,-232.67691 34.22207,-32.81342 m 142.07336,-136.22538 18.66657,-17.89823 m 64.29598,-61.64945 170.07323,-163.0727 M 169.51913,961.71627 339.59236,798.64356 M 581.22079,566.96098 609.22065,540.11365 M 816.62702,341.24448 999.14469,166.23962 M 181.96352,973.64843 364.48111,798.64356 M 592.62814,579.88748 627.88722,546.07973 M 816.62702,365.10879 1011.589,178.17176 M 194.4079,985.58058 389.36988,798.64356 M 617.51689,579.88748 645.51675,553.04016 M 816.62702,388.97309 1024.0333,190.10394 M 206.85227,997.5127 414.25865,798.64356 M 646.5538,575.9101 694.25726,530.17018 m 34.22206,-32.81338 17.62954,-16.9039 M 816.62702,412.83739 1036.4779,202.03607 M 219.29666,1009.4449 439.14743,798.64356 m 257.18388,-246.59777 45.62942,-43.7512 M 818.70109,434.713 1048.9222,213.96823 M 231.74103,1021.3771 464.03617,798.64356 M 818.70109,458.57729 1061.3665,225.90038 M 244.18542,1033.3092 488.92496,798.64356 M 818.70109,482.44161 1073.811,237.83253 M 256.62982,1045.2414 513.81371,798.64356 M 818.70109,506.3059 1086.2553,249.76469 M 269.07419,1057.1734 538.70247,798.64356 M 816.62702,532.15889 1098.6996,261.69684 M 281.51857,1069.1056 563.59123,798.64356 M 816.62702,556.02319 1111.144,273.62898 M 293.96295,1081.0378 588.48001,798.64356 M 818.70109,577.89879 1123.5885,285.56111 M 306.40734,1092.97 613.36877,798.64356 M 816.62702,603.75179 1136.0328,297.49326 M 318.85172,1104.9021 638.25753,798.64356 M 818.70109,625.6274 1148.4772,309.42542 M 331.29609,1116.8342 663.14629,798.64356 M 816.62702,651.48038 1160.9216,321.35758 M 343.74049,1128.7663 688.03507,798.64356 M 818.70109,673.35598 1173.366,333.28973 M 356.18488,1140.6986 713.96088,797.64923 M 816.62702,699.20897 1185.8105,345.22187 M 368.62925,1152.6307 741.96073,794.66618 m 74.66629,-71.5929 381.62778,-365.91926 M 381.07362,1164.5629 767.88653,793.67183 M 816.62702,746.93758 1210.6991,369.08617 M 393.51803,1176.4949 787.59013,798.64356 m 30.07393,-28.83603 405.47944,-388.7892 M 405.9624,1188.4271 812.47889,798.64356 m 4.14813,-3.97738 418.96098,-401.71569 m -1650.95485,7.95474 413.775724,396.744 m 2.0740574,1.98867 413.7757186,396.744 M -402.92247,388.97309 -1.591126,773.78492 M 25.371698,799.6379 426.70304,1184.4496 M -390.4781,377.04094 -1.591126,749.92061 M 50.260466,799.6379 439.14743,1172.5176 M -378.03369,365.10879 -1.591126,726.05632 M 75.149233,799.6379 451.5918,1160.5854 M -365.5893,353.17663 -1.591126,702.19201 M 100.03799,799.6379 464.03617,1148.6533 M -353.14494,341.24448 -0.554104,679.32207 M 124.92676,799.6379 476.48057,1136.7212 M -340.70056,329.31232 -1.591126,654.46343 M 149.81552,799.6379 488.92496,1124.7889 M -328.25617,317.38017 -1.591126,630.59913 M 174.70429,799.6379 501.36933,1112.8568 M -315.8118,305.44805 -1.591126,606.7348 M 199.59304,799.6379 513.81371,1100.9247 M -303.36741,293.5159 5.6680912,589.83094 M 224.48182,799.6379 526.2581,1088.9925 M -290.92301,281.58375 2.5569952,562.98361 M 15.001389,574.91575 100.03799,656.4521 M 248.33354,798.64356 538.70247,1077.0605 M -278.47864,269.65159 148.77848,679.32207 M 273.22232,798.64356 551.14686,1065.1282 M -266.03425,257.71943 53.371562,563.97795 m 2.074063,1.9887 47.703455,45.73989 m 8.29627,7.95477 74.66628,71.5929 M 299.1481,799.6379 563.59123,1053.196 M -253.58988,245.78728 188.1857,669.37861 m 17.62954,16.90388 19.7036,18.89257 m 96.44397,92.47417 254.07282,243.61467 M -241.14549,233.85514 93.815798,555.02884 m 7.259232,6.96042 62.22193,59.66075 m 5.18515,4.97172 38.37016,36.7908 m 50.81456,48.72295 18.66657,17.89821 m 71.55522,68.60987 240.59139,230.68824 M -228.70111,221.923 38.853114,478.4642 m 1.037033,0.99437 51.851597,49.71728 m 32.147996,30.82471 62.22189,59.66075 m 7.25923,6.96042 33.18503,31.81907 M 373.8144,799.6379 600.92439,1017.3997 M -216.25674,209.99085 91.741744,505.31155 m 54.962696,52.70033 55.9997,53.69466 M 398.70318,799.6379 613.36877,1005.4675 M -203.81234,198.05869 111.44535,500.33981 m 58.07378,55.68338 57.03676,54.68901 M 423.59194,799.6379 625.81317,993.5353 M -191.36795,186.12655 146.70444,510.28327 m 51.85159,49.71729 43.55533,41.76253 M 448.48071,799.6379 638.25753,981.60319 M -178.92358,174.19439 -0.554104,345.22187 m 11.407355,10.9378 77.777397,74.57594 m 20.740632,19.88691 70.51817,67.61553 m 44.59237,42.75686 33.18501,31.81908 M 473.36946,799.6379 650.70192,969.67105 M -166.4792,162.26225 -1.591126,320.36322 m 32.147984,30.82472 26.96282,25.853 m 2.074075,1.98868 29.036895,27.84169 m 41.481272,39.77383 81.92553,78.55332 m 25.92578,24.85865 25.9258,24.85864 M 498.25824,799.6379 663.14629,957.73889 M -154.03481,150.3301 1.519974,299.48197 m 23.851724,22.86995 69.481142,66.62117 m 44.59236,42.75687 125.48087,120.31583 M 523.147,799.6379 675.5907,945.80675 M -141.59044,138.39795 -1.591126,272.63464 m 45.629399,43.75121 68.444107,65.62681 m 37.33314,35.79646 111.99946,107.38934 m 2.07405,1.98869 21.77766,20.88126 M 548.03576,799.6379 688.03507,933.87459 M -129.14605,126.4658 -1.591126,248.77033 m 58.073784,55.68336 73.629262,70.59855 m 49.77753,47.72861 41.48128,39.77383 m 21.77766,20.88126 54.96269,52.70032 M 566.70232,793.67183 700.47945,921.94244 M -116.70166,114.53365 -1.591126,224.90603 m 67.407071,64.63247 34.222045,32.81342 m 4.14813,3.97738 45.6294,43.75122 m 63.25896,60.65509 110.9624,106.395 m 214.66559,205.82958 17.62955,16.90389 M 597.8133,799.6379 712.92383,910.01029 M -104.25729,102.6015 -1.591126,201.04173 m 89.184742,85.51375 81.925514,78.55331 m 53.92567,51.70598 26.96281,25.853 m 18.66658,17.89821 66.37003,63.63814 m 178.36949,171.02748 18.66659,17.89822 m 90.22177,86.50808 102.66615,98.44025 M -91.8129,90.66934 l 90.221774,86.5081 m 102.666156,98.44024 31.11094,29.83037 m 1.03704,0.99434 58.07379,55.68335 m 123.40681,118.32716 43.55533,41.76251 m 197.03605,188.92572 17.62953,16.90388 m 70.51818,67.61551 94.36989,90.48547 M -79.368519,78.737196 -1.591126,153.31314 m 127.554916,122.30454 85.03663,81.53634 m 151.40664,145.17449 29.0369,27.84167 m 67.40707,64.63247 20.74061,19.88694 m 191.85093,183.95397 78.81439,75.57028 M -66.924138,66.805049 -1.591126,129.44882 m 129.628996,124.29324 100.59208,96.45153 m 166.96213,160.08968 55.99972,53.69468 m 245.77656,235.65995 65.33303,62.64381 M -54.479759,54.87289 -1.591126,105.58454 m 11.407345,10.9378 19.703608,18.89256 m 105.777253,101.42328 36.29611,34.80211 m 1.03705,0.99435 17.62952,16.90386 m 10.37032,9.94347 44.59238,42.75686 m 208.4434,199.8635 29.0369,27.8417 m 126.51789,121.31018 17.62954,16.90388 m 95.40693,91.47981 52.88863,50.71166 M -42.035376,42.940743 3.5940273,86.691969 M 175.74133,251.75337 l 23.85171,22.86996 m 30.07394,28.83602 30.07393,28.83602 m 4.14812,3.9774 23.85173,22.86995 m 285.18376,273.44509 20.74065,19.88693 m 150.36961,144.18014 43.55535,41.76252 M -29.590997,31.008601 -1.591126,57.855933 M 153.96364,207.0078 l 31.11097,29.83038 m 7.25922,6.96042 17.62955,16.90388 m 331.8502,318.19066 18.66656,17.89822 m 51.85159,49.71729 18.66658,17.89823 m 57.03676,54.68902 17.62953,16.90388 m 66.37006,63.63812 27.99985,26.84736 M -17.146601,19.076452 1.519974,36.974681 m 190.813856,182.959629 17.62955,16.90387 m 282.07267,270.46207 22.81468,21.8756 m 5.18517,4.97173 30.07393,28.83603 m 24.88878,23.86429 22.81469,21.87562 m 118.22163,113.35542 24.88876,23.86428 m -199.11011,-214.77867 36.29612,34.8021 m 33.18502,31.81905 17.62954,16.90389 m -62.22194,-83.52504 51.8516,49.71729 m 25.92581,24.85865 19.70359,18.89256 m 55.99974,53.69467 23.85172,22.86996 m 74.66631,71.59289 18.66656,17.89823 M 20.186539,-16.720004 40.927189,3.166917 m 557.923131,534.958053 42.51832,40.76817 m 36.29611,34.80211 24.88876,23.86429 m 114.07351,109.37804 33.18502,31.81907 M 32.630922,-28.652153 65.815945,3.166917 m 569.330495,545.895853 26.96283,25.85298 m 54.9627,52.70034 17.62953,16.90386 m 81.92552,78.55333 45.62941,43.75123 M 45.075306,-40.584301 90.704702,3.166917 m 83.999588,80.542009 18.66657,17.898214 m 550.66392,527.99763 25.9258,24.85866 m 46.66644,44.74554 58.07379,55.68335 M 57.519678,-52.516448 115.59346,3.166917 m 583.84895,559.816693 22.81471,21.87559 m 94.3699,90.48549 70.51816,67.6155 M 69.964073,-64.448597 140.48225,3.166917 m 551.70094,528.991973 31.11097,29.83037 m 1.03702,0.99435 31.11097,29.83038 m 61.18487,58.66639 82.96256,79.54767 M 82.408456,-76.380743 165.37102,3.166917 m 547.55281,525.014583 18.66656,17.89823 m 22.81471,21.87561 19.70362,18.89256 m 42.5183,40.76819 95.40693,91.47981 M 94.85284,-88.312906 190.25976,3.166917 M 816.62702,603.75179 924.47833,707.16375 M 107.29722,-100.24505 215.14852,3.166917 M 818.70109,581.87618 936.92271,695.2316 M 119.74159,-112.1772 240.0373,3.166917 m 493.62717,473.308613 38.37019,36.79078 m 44.59236,42.75688 132.74009,127.27625 M 132.18597,-124.10935 264.92607,3.166917 m 472.88652,453.421693 35.25909,33.80774 m 43.55534,41.76254 145.18444,139.2084 M 144.63037,-136.0415 289.81482,3.166917 M 818.70109,510.28327 974.25581,659.43514 M 157.07475,-147.97365 314.70361,3.166917 M 818.70109,486.41897 986.70025,647.503 M 169.51913,-159.9058 339.59236,3.166917 m 479.10873,459.387763 180.4436,173.01617 m -817.18117,-807.40881 140.22659,134.454645 42.291,40.550232 M 818.70109,438.69038 1011.589,623.63869 M 194.4079,-183.7701 389.36988,3.166917 M 816.62702,412.83739 1024.0333,611.70654 M 206.85227,-195.70224 414.25865,3.166917 M 816.62702,388.97309 1036.4779,599.7744 M 219.29666,-207.6344 439.14743,3.166917 M 816.62702,365.10879 1048.9222,587.84225 M 231.74103,-219.56654 464.03617,3.166917 M 816.62702,341.24448 1061.3665,575.9101 M 244.18542,-231.49869 488.92496,3.166917 M 816.62702,317.38017 1073.811,563.97795 M 256.62982,-243.43084 513.81371,3.166917 M 818.70109,295.50458 1086.2553,552.04579 M 269.07419,-255.363 538.70247,3.166917 M 816.62702,269.65159 1098.6996,540.11365 M 281.51857,-267.29515 563.59123,3.166917 M 816.62702,245.78728 1111.144,528.1815 M 293.96295,-279.22731 588.48001,3.166917 M 815.58999,220.92864 1123.5885,516.24936 M 306.40734,-291.15945 613.36877,3.166917 M 818.70109,200.0474 1136.0328,504.31721 M 318.85172,-303.09159 638.25753,3.166917 M 816.62702,174.19439 1148.4772,492.38505 M 331.29609,-315.02373 663.14629,3.166917 M 814.55295,148.34142 1160.9216,480.4529 M 343.74049,-326.95588 688.03507,3.166917 M 816.62702,126.4658 1173.366,468.52075 M 356.18488,-338.88805 712.92383,3.166917 M 818.70109,104.59019 1185.8105,456.58861 M 368.62925,-350.8202 737.81259,3.166917 M 814.55295,76.748509 1198.2548,444.65647 M 381.07362,-362.75235 762.70139,3.166917 M 816.62702,54.87289 1210.6991,432.72432 M 393.51803,-374.68449 787.59013,3.166917 m 31.11096,29.83037 404.44241,387.794873 M 405.9624,-386.61663 812.47889,3.166917 m 8.29627,7.95476 L 1235.588,408.86"
     id="path1"
     sodipodi:nodetypes="ccccccccccccccccccccccccccccccccccccccccccccccccccccccccccccccccccccccccccccccccccccccccccccccccccccccccccccccccccccccccccccccccccccccccccccccccccccccccccccccccccccccccccccccccccccccccccccccccccccccccccccccccccccccccccccccccccccccccccccccccccccccccccccccccccccccccccccccccccccccccccccccccccccccccccccccccccccccccccccccccccccccccccccccccccccccccccccccccccccccccccccccccccccccccccccccccccccccccccccccccccccccccccccccccccccccccccccccccccccccccccccccccccccccccccccccccccccccccccccccccccccccccccccccccccccccccccccccccccccccccccccccccccccccccccccccccccccccccccccccccccccccccccccccccccccccccccccccccccccccccccccccccccccccccccccccccccccccccccccccccccccccccccccccccccccccccccccccccccccccccccccccccccccccccccccccccccccccccccccccccccccccccccccccccccccccccccccccccccccccccccccccccccccccccccccccccccccccccccccccccccccccccccccccccccccccccccccccccccc" />
</svg>
