<?xml version="1.0" standalone="no"?><!DOCTYPE svg PUBLIC "-//W3C//DTD SVG 1.1//EN" "http://www.w3.org/Graphics/SVG/1.1/DTD/svg11.dtd"><svg xmlns="http://www.w3.org/2000/svg" style="position: fixed; background: white;" width="800" height="800" viewBox="0 0 800 800"><path style="stroke-width: 2px; fill: none; stroke: black" d=" M795.08,802.08 M796.07,796.07 M791.53,791.53L777.37,802.37L763.33,802.33L749.33,802.33L741.19,802.19L735.06,797.06L723.01,802.01L718.10,793.10L696.91,800.91L691.80,801.80L683.77,798.77L679.81,791.81L673.58,772.58L667.21,787.21L660.96,784.96L651.87,792.87L646.78,793.78L645.96,782.96L631.26,801.26L623.52,795.52L613.69,794.69L605.87,801.87L603.82,794.82L589.96,792.96L589.02,800.02L575.01,802.01L562.07,800.07L563.07,795.07L555.02,798.02L546.01,774.01L537.90,797.90L533.86,771.86L529.00,788.00L519.15,802.15L517.20,795.20L516.31,781.31L501.54,788.54L498.38,797.38L489.28,802.28L479.09,794.09L469.89,800.89L461.80,801.80L453.67,779.67L445.66,800.66L445.72,794.72L431.70,800.70L423.80,776.80L415.96,791.96L405.92,800.92L390.87,787.87L383.96,793.96L380.98,771.98L374.19,756.19L365.36,746.36L358.58,759.58L353.58,728.58L343.41,711.41L342.48,692.48L328.59,689.59L321.59,674.59L313.68,689.68L306.98,682.98L301.89,640.89L291.60,624.60L283.47,611.47L289.53,573.53L275.63,570.63L267.55,569.55L268.53,546.53L266.55,537.55L258.49,537.49L252.45,514.45L249.14,539.14L234.08,522.08L232.91,530.91L233.60,505.60L226.48,524.48L214.72,523.72L201.78,505.78L194.57,498.57L188.17,502.17L172.02,505.02L166.01,513.01L151.11,487.11L142.05,476.05L135.91,472.91L127.66,468.66L116.75,473.75L107.78,457.78L96.98,482.98L95.26,494.26L85.48,500.48L72.85,496.85L65.05,481.05L46.29,484.29L43.56,472.56L29.46,474.46 M40.87,484.87L40.90,498.90L40.76,512.76L40.62,526.62 M39.82,536.82L41.70,540.70L41.66,554.66L56.69,573.69L61.83,573.83L55.88,587.88 M53.05,590.05L67.03,587.03L66.88,590.88L79.70,596.70L85.57,583.57L84.45,578.45L89.56,564.56L95.64,584.64L102.69,567.69L108.61,590.61L114.73,592.73L120.67,568.67L139.60,586.60L144.63,582.63L150.81,590.81L161.10,599.10L170.30,595.30L174.58,606.58L184.83,588.83L197.94,603.94L205.00,600.00L213.76,574.76L225.56,575.56L225.23,587.23L235.88,572.88L240.53,582.53L243.23,553.23L247.12,562.12L258.15,562.15L276.37,560.37L280.44,532.44L293.31,570.31L297.12,541.12L305.96,582.96L307.75,593.75L310.56,618.56L316.60,604.60L330.78,612.78L329.88,626.88L343.92,640.92L346.98,619.98L352.89,634.89L355.89,650.89L361.12,674.12L376.57,653.57L379.83,686.83L382.72,694.72L394.60,683.60L403.69,687.69L403.96,717.96L411.97,733.97L420.98,703.98L424.06,695.06L429.18,670.18L440.27,692.27L447.36,719.36L451.14,740.14L460.23,729.23L467.15,741.15L479.86,749.86L485.82,734.82L492.96,753.96L505.04,750.04L504.14,769.14L501.18,775.18L509.04,762.04L519.34,755.34L523.52,743.52L532.51,731.51L532.49,753.49L538.46,750.46L545.34,767.34L556.04,780.04L562.88,773.88L570.75,773.75L581.71,759.71L584.95,800.95L578.24,790.24L579.46,795.46 M575.05,803.05 M587.29,802.29 M600.27,802.27 M614.48,803.48 M613.93,795.93L601.02,796.02L587.99,795.99L574.77,795.77L561.45,795.45 M561.26,789.26L548.03,789.03 M548.28,802.28 M541.33,802.33L542.12,799.12L530.01,799.01L544.92,792.92L552.74,775.74L540.99,783.99L533.12,768.12L537.26,765.26L529.33,763.33L513.30,780.30L489.19,785.19L475.22,786.22L468.15,770.15L463.02,780.02L455.87,762.87L447.80,770.80L439.93,767.93L438.10,735.10L425.19,742.19L418.20,758.20L416.35,749.35L406.49,759.49L396.51,733.51L389.51,750.51L366.39,773.39L357.47,796.47L355.67,763.67L342.82,778.82L333.89,773.89L321.72,766.72L316.80,749.80L314.78,779.78L305.62,800.62L291.35,801.35L277.23,802.23L263.10,800.10L260.00,797.00L239.07,791.07L235.20,778.20L237.07,765.07L249.75,754.75L241.33,747.33L242.05,734.05L236.96,719.96L239.00,702.00L251.91,687.91L265.78,674.78L260.77,666.77L257.96,652.96L259.08,633.08L271.07,622.07L273.10,613.10L265.26,611.26L262.54,597.54L240.62,597.62L235.43,588.43L232.40,574.40L221.54,566.54L207.78,589.78L193.04,569.04L156.00,595.00L142.10,594.10L136.20,603.20L143.26,617.26L174.13,631.13 M172.64,628.64L140.51,620.51L145.25,615.25L144.14,593.14L153.16,591.16L161.90,583.90L149.70,586.70L140.68,583.68L144.72,574.72 M115.56,610.56L121.53,594.53L114.61,590.61L104.73,582.73L107.79,570.79L92.89,561.89L88.88,561.88L90.87,538.87L89.79,529.79L69.77,520.77L79.04,514.04L86.91,507.91L83.74,493.74L91.72,491.72L93.75,471.75L77.69,463.69L73.83,460.83L78.00,447.00L69.24,445.24L77.47,433.47L85.43,435.43L84.32,421.32L85.15,407.15L85.95,392.95L84.72,385.72L88.66,378.66 M93.54,366.54 M102.34,373.34L89.25,379.25L95.43,353.43L103.33,346.33L117.12,342.12L123.03,344.03L130.77,347.77L132.57,341.57L146.46,341.46L159.40,348.40L164.52,343.52L178.31,342.31L192.29,347.29L188.30,341.30L207.31,333.31L221.21,340.21L235.35,332.35L249.63,337.63L255.82,332.82L265.88,315.88L269.98,326.98L274.15,317.15L273.03,321.03L287.00,319.00L300.99,313.99L305.84,338.84L319.84,338.84L326.79,325.79L341.77,287.77L344.79,292.79L359.77,297.77L365.88,305.88L370.94,273.94L382.96,279.96L382.94,275.94L390.67,263.67L393.64,258.64L401.63,249.63L408.44,245.44L426.12,213.12L435.07,203.07L443.11,184.11L450.29,193.29L461.34,189.34L461.22,185.22L464.25,189.25L455.25,198.25L454.37,206.37L453.39,216.39L445.34,229.34L431.33,231.33L438.42,239.42L431.08,246.08L425.86,249.86L421.89,263.89L414.07,278.07L407.28,292.28L395.31,304.31L386.43,318.43L381.52,331.52L370.39,356.39L351.57,358.57L354.66,382.66L354.61,396.61L356.42,410.42L350.32,410.32L334.36,410.36L335.32,424.32L335.31,432.31L336.44,442.44L335.49,456.49L325.54,458.54L337.51,461.51L328.54,473.54L335.54,477.54L357.47,484.47L366.59,493.59L372.69,484.69L374.87,447.87L384.12,484.12L398.31,481.31L404.11,501.11L412.84,501.84L423.55,521.55L437.27,523.27L452.99,520.99L465.05,511.05L468.25,519.25 M457.30,517.30L457.19,503.19L457.18,489.18L461.24,478.24L469.02,472.02L479.73,465.73L466.71,466.71L477.83,467.83L467.73,472.73L455.78,501.78L440.90,495.90L429.89,495.89L405.90,485.90L381.97,492.97L364.20,484.20L355.19,475.19L374.29,484.29L376.49,470.49L377.72,456.72L381.66,451.66L381.40,426.40L385.19,421.19L388.07,414.07L380.88,412.88L383.91,412.91L394.04,399.04L400.12,392.12L417.13,395.13L406.17,386.17L392.99,384.99L384.03,382.03L365.01,360.01L355.94,351.94L340.99,344.99L350.99,333.99L361.92,316.92L368.89,297.89L376.74,284.74L386.66,271.66L394.78,266.78L396.90,252.90L403.95,242.95L409.08,232.08L421.33,218.33L425.21,210.21L415.15,214.15L399.01,249.01L394.86,226.86L384.80,227.80L379.72,212.72L368.78,235.78L357.92,230.92L353.01,226.01L344.20,246.20L342.46,252.46L330.48,272.48L325.46,270.46L324.56,251.56L311.55,244.55L302.67,219.67L288.69,222.69L282.68,199.68L279.42,226.42L269.97,222.97L263.77,235.77L258.59,213.59L248.33,211.33L236.22,208.22L225.37,214.37L220.23,207.23L209.99,203.99L202.99,203.99L187.26,201.26L187.63,198.63L173.86,198.86L157.16,222.16L154.50,218.50L146.71,229.71L149.87,239.87 M145.70,241.70L152.68,247.68L169.94,251.94L174.94,244.94L195.81,244.81L202.61,246.61L213.57,274.57L227.45,281.45L231.25,279.25L227.90,309.90L235.82,304.82L245.70,314.70L247.69,307.69L254.69,320.69L266.73,309.73L282.69,304.69L290.86,311.86L281.13,312.13L281.35,321.35L296.60,321.60L284.79,336.79L275.67,347.67L284.59,361.59L279.46,375.46L275.28,389.28L268.23,395.23L246.23,404.23L240.00,410.00L242.97,409.97L235.19,424.19L228.32,431.32L232.18,433.18L222.78,442.78L223.60,452.60L228.66,466.66L246.76,468.76L242.67,470.67L246.63,484.63L253.78,489.78L247.00,496.00L258.95,499.95L236.04,513.04L233.30,513.30 M224.53,503.53L235.59,495.59L224.57,492.57L223.62,480.62L212.75,475.75L212.04,462.04L212.09,448.09 M205.23,447.23L198.20,461.20L202.02,469.02L196.87,468.87L200.94,479.94L193.16,488.16L197.05,496.05L197.97,501.97L201.11,509.11L211.38,520.38 M196.26,508.26 M197.40,496.40 M185.18,484.18L172.11,484.11 M173.81,509.81L170.71,506.71L165.63,498.63L168.55,481.55L187.50,470.50L199.54,458.54L223.59,450.59L230.40,445.40L255.41,445.41L256.64,450.64L260.85,457.85 M263.07,460.07L254.04,462.04L241.03,465.03L241.01,485.01L240.97,498.97L241.73,512.73L249.72,517.72L244.78,528.78L254.86,530.86L261.91,542.91L257.95,543.95L252.15,555.15L245.23,558.23L238.19,575.19 M236.03,587.03 M250.54,575.54 M256.74,581.74L249.92,585.92L256.01,589.01L264.12,606.12L265.33,587.33L269.36,596.36L259.35,612.35L242.09,619.09L244.09,630.09L245.30,637.30L238.24,653.24L238.33,661.33L230.14,664.14L222.96,675.96L204.80,685.80L220.65,689.65L215.72,695.72L214.82,705.82L217.03,718.03L219.24,732.24L224.36,737.36L226.18,752.18L223.10,759.10L214.82,770.82L217.36,790.36 M210.09,802.09 M197.14,802.14 M182.89,800.89 M182.01,798.01L178.90,782.90L197.77,772.77L183.95,766.95L197.02,755.02L201.33,738.33L200.76,728.76L203.98,725.98L214.11,711.11L205.35,691.35L201.49,682.49L197.55,668.55L179.47,673.47 M176.54,684.54L153.49,666.49 M138.62,674.62L116.60,671.60L103.40,657.40 M81.63,647.63L91.87,661.87L98.01,662.01L108.12,680.12L116.29,688.29L131.42,699.42 M139.59,700.59L154.34,679.34L144.62,678.62L130.84,681.84L116.84,667.84L102.80,658.80L98.78,673.78L85.76,658.76L74.77,635.77L60.92,624.92L53.20,613.20L39.38,603.38 M48.68,621.68L53.41,612.41L39.40,598.40L31.37,583.37L29.33,568.33L46.23,550.23L46.18,536.18 M64.68,554.68L70.47,548.47L64.30,522.30L66.12,508.12L62.18,494.18 M67.51,496.51 M73.30,499.30L76.48,485.48L62.68,484.68L66.83,470.83L61.98,457.98L62.03,444.03L60.28,430.28L75.62,419.62L69.87,404.87L76.00,404.00L75.83,389.83 M67.96,392.96 M67.41,393.41L65.51,407.51L68.47,416.47L60.51,417.51 M39.44,415.44L42.45,401.45 M66.66,378.66 M80.69,353.69 M80.77,340.77L93.87,340.87L107.28,341.28L120.57,341.57 M126.34,337.34L131.39,333.39L146.29,328.29L163.23,326.23L182.27,319.27L188.15,317.15L196.98,333.98L220.03,338.03 M228.23,327.23L249.18,334.18L236.84,329.84L226.54,315.54L200.44,302.44L189.51,295.51L185.41,293.41L171.23,281.23L180.18,266.18 M172.62,276.62L185.48,276.48L198.36,276.36L211.20,276.20 M211.20,273.20L211.43,257.43L211.69,248.69L225.84,239.84L227.83,225.83L222.86,219.86L212.81,211.81L210.84,198.84L233.67,182.67L248.33,173.33L255.11,160.11L256.95,145.95L265.03,145.03L267.98,130.98L246.76,126.76L234.60,119.60L228.71,113.71L235.60,98.60L234.50,93.50L242.41,104.41L228.33,107.33L224.41,99.41L219.44,81.44L214.51,97.51L212.59,81.59L203.62,76.62L178.79,92.79L168.82,82.82L162.89,95.89L157.05,84.05L153.92,74.92L135.87,83.87L147.87,75.87L133.75,76.75L120.56,75.56L131.49,81.49 M131.70,95.70L143.64,102.64L135.51,99.51L146.59,101.59L156.79,98.79L170.94,103.94L183.90,99.90L190.94,100.94L199.11,114.11L199.36,122.36L204.49,124.49L210.43,122.43L218.20,139.20L230.13,125.13L236.31,116.31L243.60,111.60L250.93,103.93L270.39,113.39L298.71,121.71L306.85,151.85 M300.22,157.22 M301.25,165.25 M288.91,145.91 M288.46,139.46 M278.28,156.28L276.43,170.43L272.36,174.36L265.41,188.41L262.57,202.57L246.51,221.51L252.65,229.65 M252.54,226.54L228.14,238.14L227.01,243.01 M223.65,236.65L236.79,236.79L250.02,237.02 M251.07,225.07 M248.58,209.58L235.79,209.79 M261.43,203.43 M275.36,210.36L288.21,210.21 M287.89,203.89 M299.52,207.52L307.48,201.48L318.56,196.56L320.70,182.70L326.72,171.72L333.61,152.61L333.38,138.38 M339.24,144.24 M326.20,131.20L313.26,131.26 M314.35,145.35 M327.21,165.21 M327.20,171.20L340.30,171.30L353.38,171.38L366.49,171.49 M365.33,164.33 M354.16,166.16L366.06,165.06L376.18,155.18L364.05,154.05L360.93,139.93L340.84,135.84L359.87,129.87 M365.92,118.92 M365.76,118.76 M353.02,113.02 M352.56,105.56 M339.76,118.76 M330.95,88.95L329.62,102.62L322.38,112.38L318.30,126.30L316.25,146.25L323.22,151.22L344.33,155.33L341.17,164.17L348.11,179.11L328.14,185.14L332.94,191.94L325.96,207.96 M328.23,198.23L314.88,197.88L301.61,197.61 M314.38,210.38 M301.69,223.69L314.56,223.56L327.38,223.38L340.42,223.42 M340.27,210.27L353.19,210.19L366.40,210.40L379.43,210.43L392.26,210.26L405.17,210.17 M405.05,217.05 M406.56,224.56L393.62,237.62L380.38,250.38 M380.67,250.67L393.74,250.74L406.54,250.54L419.33,250.33L432.04,250.04L444.73,249.73L457.66,249.66L470.43,249.43L483.34,249.34 M483.29,249.29L470.45,262.45L457.51,275.51 M444.89,275.89L431.90,288.90L418.87,301.87L405.74,314.74L392.57,327.57L379.38,340.38 M379.27,347.27L392.35,347.35L405.14,347.14L418.03,347.03L431.24,347.24L444.39,347.39L457.13,347.13 M460.23,346.23L460.35,360.35L464.62,364.62L467.78,379.78L444.80,388.80L434.72,401.72L423.89,409.89L416.82,418.82L414.67,431.67L422.47,433.47L412.39,458.39L406.51,463.51L409.51,470.51 M417.04,476.04L429.97,475.97L443.30,476.30L456.59,476.59 M457.89,483.89L444.74,483.74L431.43,483.43L418.18,483.18L405.05,483.05L392.10,483.10 M391.61,476.61 M390.90,468.90L386.06,467.06L400.40,459.40L407.55,460.55L407.43,469.43L410.42,456.42L437.68,458.68L446.82,457.82L460.85,456.85L474.76,459.76 M471.07,471.07L457.91,470.91L444.64,470.64L431.37,470.37L418.23,470.23L405.14,470.14L392.34,470.34L379.55,470.55L366.78,470.78L354.03,471.03L340.91,470.91 M341.77,465.77 M340.45,464.45 M340.58,457.58L327.80,457.80 M328.06,452.06 M326.73,449.73L328.88,435.88L328.82,421.82 M327.76,412.76 M315.50,415.50L315.56,429.56 M314.11,431.11L327.22,431.22 M326.22,443.22 M317.01,439.01L313.00,441.00L304.98,433.98L305.00,420.00L309.08,418.08L311.15,418.15 M298.55,413.55L297.44,427.44L298.39,441.39 M289.96,439.96 M288.39,444.39L275.46,444.46 M276.22,432.22L288.98,418.98L301.66,405.66 M287.97,411.97L274.91,411.91 M274.80,417.80L287.86,404.86L300.66,391.66L313.59,378.59 M313.49,365.49L300.26,378.26L287.04,391.04L274.08,404.08 M276.00,400.00L288.65,399.65L301.43,399.43L314.36,399.36L327.31,399.31 M329.22,381.22 M339.65,378.65L352.85,365.85 M353.38,379.38L366.40,366.40L379.76,353.76L392.82,340.82L405.60,327.60L418.58,314.58L431.84,301.84 M441.44,290.44L451.51,275.51L459.59,262.59L459.62,251.62 M457.73,243.73L444.64,243.64L431.55,243.55L418.69,243.69 M417.07,235.07L430.26,222.26L443.43,209.43 M443.53,203.53L430.43,203.43L417.53,203.53 M418.58,197.58 M407.34,193.34 M417.74,183.74L430.80,183.80L443.67,183.67L456.60,183.60 M458.54,187.54L481.65,181.65L481.59,171.59L485.81,158.81L494.71,149.71L500.63,141.63L505.55,133.55L503.50,122.50L513.54,113.54L531.59,97.59L538.40,90.40L524.41,85.41L531.64,102.64L524.85,83.85L520.68,84.68L511.32,73.32L506.15,37.15L502.19,26.19L490.30,24.30L486.23,25.23L483.19,57.19L469.08,70.08L458.89,69.89L455.83,53.83L452.01,85.01L435.22,79.22L429.37,90.37L422.55,100.55L414.68,92.68L407.58,83.58L403.26,101.26L399.07,100.07L395.98,80.98L397.07,58.07L383.17,56.17L372.21,50.21L371.22,26.22L364.12,33.12L359.09,51.09L344.83,61.83L333.60,84.60L334.31,69.31L341.08,80.08L349.01,68.01 M366.25,67.25 M372.27,67.27L365.49,81.49L363.56,99.56L357.72,97.72L356.91,143.91L367.94,116.94L383.10,103.10L388.39,122.39L393.54,111.54L393.54,97.54L411.70,95.70L424.68,102.68L433.94,120.94L427.94,134.94L432.81,141.81L426.61,162.61L412.57,173.57 M417.63,164.63 M431.50,152.50 M434.50,145.50L447.30,122.30L441.34,119.34L446.47,106.47L442.51,96.51L453.47,92.47L469.36,83.36L480.55,74.55L482.74,54.74L484.79,47.79L480.69,36.69L458.66,29.66L477.74,21.74L486.76,10.76L471.57,12.57L454.23,9.23L440.14,10.14 M443.34,11.34L448.59,25.59L451.74,20.74L446.81,34.81L446.88,56.88L463.72,63.72L447.04,73.04L440.13,89.13 M443.65,92.65L456.94,92.94 M456.67,92.67 M455.99,85.99 M458.39,81.39L471.25,81.25 M470.19,67.19L483.04,67.04L496.25,67.25L509.25,67.25L522.16,67.16L535.45,67.45 M536.45,62.45L523.80,62.80L510.82,62.82 M501.56,54.56L510.33,50.33L511.22,42.22L502.35,41.35L526.18,38.18 M523.39,42.39 M523.29,49.29 M522.88,54.88L510.24,55.24L497.60,55.60 M497.20,50.20L495.06,64.06 M496.17,80.17 M497.40,81.40L510.48,81.48 M503.00,81.00L502.94,68.94L523.83,65.83L529.58,55.58L540.30,42.30L554.10,36.10L526.81,31.81L514.63,25.63L511.60,18.60L505.67,17.67L496.73,17.73 M496.91,28.91 M509.23,15.23 M507.77,7.77L505.85,13.85L511.90,6.90L512.88,16.88L520.76,15.76L530.69,27.69L538.57,23.57L542.35,38.35L553.16,52.16L558.17,45.17L563.20,41.20L537.16,47.16L556.38,55.38L568.62,61.62L575.72,63.72L546.67,71.67L555.74,68.74L563.96,89.96L577.10,81.10L576.27,54.27L597.34,109.34L608.04,106.04L612.84,120.84L619.79,121.79L624.72,111.72L620.65,122.65L633.75,135.75L640.83,150.83L660.84,146.84L674.91,147.91L680.16,127.16L697.05,112.05L703.96,94.96L711.00,103.00L720.22,75.22L718.49,79.49L703.47,93.47L706.58,94.58L685.72,115.72L667.79,127.79L667.87,137.87L682.90,135.90L677.76,147.76L674.62,161.62L681.55,162.55L691.51,171.51L682.33,175.33L691.22,184.22L696.15,191.15L690.20,200.20L686.16,206.16L686.91,209.91L672.89,219.89L663.90,233.90L650.76,239.76L667.78,252.78L675.69,258.69L685.62,263.62 M679.14,270.14 M678.03,269.03L664.76,281.76L651.89,294.89L639.08,308.08L626.63,321.63L613.98,334.98L601.22,348.22L588.34,361.34 M599.98,359.98L612.96,346.96L625.82,333.82L638.92,320.92L652.32,308.32L665.30,295.30L678.21,282.21 M677.21,274.21L664.14,274.14L651.34,274.34L638.56,274.56L625.69,274.69L612.69,274.69 M600.99,269.99L587.94,282.94L574.65,295.65L561.47,308.47L548.33,321.33L535.16,334.16 M522.62,334.62L536.01,322.01L549.38,309.38L562.58,296.58L575.59,283.59L588.43,270.43L601.53,257.53L614.42,244.42L627.35,231.35 M627.16,224.16L613.92,223.92L600.60,223.60L587.61,223.61L574.65,223.65L561.89,223.89L549.08,224.08L536.05,224.05L522.81,223.81L509.86,223.86L497.03,224.03L483.85,223.85L470.32,223.32L456.81,222.81L443.77,222.77L431.01,223.01L418.15,223.15L405.18,223.18L392.31,223.31 M392.61,230.61L405.69,230.69L418.59,230.59L431.28,230.28 M431.42,236.42L418.59,249.59L405.69,262.69 M405.47,256.47L418.45,256.45L431.84,256.84L444.94,256.94L457.76,256.76L470.83,256.83L483.93,256.93 M483.13,262.13L470.01,275.01L457.00,288.00L444.13,301.13L431.01,314.01L417.97,326.97L404.81,339.81L391.56,352.56L378.34,365.34 M385.75,374.75L385.68,388.68L397.85,394.85L412.87,401.87 M418.75,405.75L431.44,405.44L444.24,405.24 M445.48,393.48L432.30,393.30 M432.85,374.85 M431.82,360.82L431.70,374.70L432.69,388.69L419.69,409.69L423.73,417.73L420.69,431.69L418.86,445.86 M418.69,457.69L431.61,457.61L444.63,457.63L457.55,457.55 M456.88,463.88L443.69,463.69L430.62,463.62 M433.49,466.49 M442.14,466.14L435.97,464.97L431.20,457.20L421.50,453.50L415.70,435.70L414.77,403.77L400.89,402.89 M393.04,406.04L380.20,406.20L367.23,406.23L354.26,406.26L341.28,406.28L328.05,406.05L314.66,405.66L301.84,405.84L288.78,405.78L275.65,405.65L262.55,405.55L249.37,405.37 M249.27,418.27 M250.82,432.82 M275.85,431.85L288.67,431.67 M288.59,425.59L275.56,425.56 M275.24,418.24L288.10,418.10L300.98,417.98L314.00,418.00L327.26,418.26L340.64,418.64L353.93,418.93L367.25,419.25L380.43,419.43 M374.98,414.98L373.89,428.89L372.89,442.89L366.12,446.12 M366.61,444.61 M365.99,437.99 M367.02,432.02 M366.16,431.16 M365.29,424.29 M366.45,418.45 M365.56,411.56L352.47,411.47 M354.25,413.25L346.28,420.28L342.44,434.44L347.59,446.59L349.80,460.80L351.99,474.99 M347.58,484.58L368.47,470.47L370.49,459.49L363.22,453.22L364.00,439.00L364.96,424.96L363.05,411.05L362.16,397.16 M366.81,399.81L379.85,399.85 M383.85,398.85L395.77,391.77L370.79,390.79L352.99,436.99L344.25,454.25L336.53,433.53L321.45,401.45L308.39,405.39L305.33,403.33L291.29,445.29L273.34,474.34L270.25,448.25L268.39,401.39L263.64,393.64L264.85,376.85L278.68,372.68L283.70,379.70L274.72,392.72L283.61,370.61L300.46,358.46L325.28,351.28 M327.54,340.54L340.45,327.45L353.15,314.15L366.02,301.02L378.92,287.92 M365.96,287.96L352.73,300.73 M353.56,301.56L366.57,301.57L379.68,301.68L392.83,301.83L405.95,301.95L419.07,302.07L431.79,301.79L444.90,301.90L457.79,301.79L470.41,301.41L483.37,301.37L496.55,301.55L509.65,301.65L522.78,301.78L535.84,301.84L548.66,301.66L562.05,302.05L575.28,302.28L588.26,302.26L601.23,302.23L614.20,302.20L627.04,302.04L639.65,301.65L652.44,301.44L665.28,301.28L678.22,301.22L691.53,301.53L704.92,301.92L718.20,302.20L731.35,302.35L744.73,302.73 M736.55,304.55L699.34,308.34L712.80,294.80L719.54,281.54 M717.00,272.00L712.97,276.97L694.80,261.80L687.72,251.72L701.77,241.77 M703.16,235.16L690.15,235.15L677.28,235.28 M677.96,223.96L659.05,238.05L650.26,249.26L639.34,262.34L625.37,276.37L617.43,289.43 M627.50,283.50 M638.20,281.20L625.17,281.17L612.23,281.23L599.54,281.54L587.04,282.04L573.93,281.93L560.93,281.93L548.09,282.09L535.48,282.48L522.72,282.72L509.47,282.47L496.15,282.15L482.93,281.93L469.67,281.67L456.81,281.81L444.15,282.15L431.56,282.56L418.84,282.84L405.93,282.93L393.02,283.02 M393.72,276.72L406.68,276.68 M404.32,274.32L391.38,287.38L378.71,300.71L365.86,313.86L352.94,326.94L339.82,339.82 M339.83,346.83L327.13,347.13L314.23,347.23L301.11,347.11L288.14,347.14 M288.04,345.04L283.05,347.05L283.99,336.99L257.94,338.94L271.79,338.79L276.47,335.47L284.40,345.40L293.54,338.54L302.67,337.67 M301.48,340.48L314.53,327.53 M314.40,321.40L327.52,321.52L340.50,321.50L353.50,321.50L366.64,321.64L379.73,321.73L392.57,321.57L405.48,321.48L418.52,321.52L431.68,321.68L444.70,321.70L457.79,321.79 M457.88,327.88L444.99,340.99 M448.97,345.97L450.07,360.07L450.26,374.26L453.40,374.40L450.57,388.57L461.67,385.67L454.69,387.69 M457.59,379.59L444.24,379.24L430.96,378.96L417.71,378.71L404.41,378.41L391.22,378.22L377.99,377.99L364.85,377.85L351.91,377.91L339.09,378.09L326.22,378.22L313.14,378.14L300.30,378.30L287.19,378.19L273.98,377.98L261.03,378.03 M264.60,375.60L251.76,389.76L246.98,395.98L266.03,404.03L269.95,408.95L259.11,423.11L265.33,421.33L255.67,424.67L265.84,431.84L261.81,435.81L271.86,437.86L282.83,440.83L277.84,458.84 M279.35,457.35L263.49,453.49L279.51,446.51L286.51,433.51L286.39,419.39 M274.89,391.89L287.78,378.78L300.68,365.68 M301.57,353.57 M289.65,354.65L302.36,354.36L315.45,354.45L328.30,354.30L340.85,353.85L353.73,353.73L366.82,353.82L379.80,353.80L392.80,353.80L405.72,353.72L418.41,353.41L431.71,353.71L444.89,353.89L457.87,353.87L470.90,353.90L483.95,353.95L496.89,353.89L509.59,353.59L522.43,353.43L535.27,353.27L548.19,353.19L561.42,353.42L574.65,353.65L587.71,353.71L600.61,353.61L613.72,353.72L626.19,353.19L638.73,352.73L651.30,352.30L664.02,352.02L676.88,351.88L689.79,351.79L702.86,351.86L716.13,352.13L729.50,352.50L742.88,352.88L755.95,352.95L769.38,353.38L782.60,353.60L795.67,353.67 M794.71,359.71 M796.10,361.10 M796.59,367.59L783.09,367.09L769.56,366.56L756.31,366.31L743.23,366.23L729.92,365.92 M724.84,353.84L731.78,353.78L721.41,367.41L701.15,365.15L706.95,383.95L717.88,394.88L722.70,399.70L731.70,407.70L738.72,414.72L741.78,419.78L736.73,425.73L739.79,445.79L734.80,463.80L728.86,474.86L740.96,475.96L727.93,480.93L704.11,490.11L695.38,500.38L690.38,513.38L703.22,514.22L704.31,528.31 M717.23,529.23 M716.00,521.00 M730.40,509.40 M732.03,502.03L714.75,496.75L722.62,481.62L720.56,467.56L722.44,453.44L725.53,439.53L721.64,437.64L734.82,436.82L718.00,431.00L715.92,416.92 M716.75,411.75L703.77,411.77L690.93,411.93L678.10,412.10L665.03,412.03L651.87,411.87 M651.87,398.87L665.03,399.03L678.14,399.14L691.25,399.25L704.31,399.31L717.25,399.25L730.22,399.22 M730.75,399.75L717.95,412.95L705.11,426.11L692.09,439.09L678.95,451.95 M678.47,464.47L691.75,451.75L704.71,438.71 M704.16,438.16L691.00,438.00L677.84,437.84L664.74,437.74L651.41,437.41 M653.57,426.57L666.21,426.21L678.84,425.84L691.50,425.50L704.29,425.29 M703.86,411.86L690.74,424.74L677.61,437.61 M664.98,437.98L678.07,425.07L691.10,412.10L704.10,399.10 M704.20,392.20L691.43,392.43L678.36,392.36L665.55,392.55L652.63,392.63L639.61,392.61L626.69,392.69L613.69,392.69L600.62,392.62L587.62,392.62L574.46,392.46L561.41,392.41L548.61,392.61L535.79,392.79L522.86,392.86L510.01,393.01L497.30,393.30 M496.07,398.07L495.01,393.01L508.02,402.02L506.29,388.29L500.41,388.41L496.48,374.48L494.44,360.44L497.49,355.49 M489.37,356.37L488.22,370.22L493.33,384.33 M497.12,387.12L510.16,387.16 M513.23,390.23L515.19,386.19L535.08,392.08L523.89,386.89L522.83,372.83 M535.82,373.82L549.02,374.02L562.13,374.13L575.11,374.11L588.05,374.05L600.89,373.89L613.99,373.99L626.63,373.63L639.38,373.38L652.24,373.24L664.99,372.99L677.99,372.99L691.09,373.09L704.33,373.33L717.69,373.69L730.67,373.67L743.89,373.89 M741.99,384.99L755.00,385.00 M756.40,399.40 M757.00,400.00 M755.84,411.84 M757.09,413.09 M756.52,425.52 M755.36,437.36L754.17,451.17L746.01,462.01 M742.74,469.74L755.58,469.58L768.52,469.52L781.51,469.51L794.60,469.60 M795.87,464.87 M794.87,463.87 M795.00,457.00L781.96,456.96L769.00,457.00L755.94,456.94 M756.20,451.20 M756.15,451.15 M765.18,452.18L762.11,438.11L758.20,422.20L762.40,414.40L762.58,400.58L757.37,386.37L751.35,369.35L743.36,366.36L739.29,364.29L741.19,350.19 M742.29,359.29 M742.32,359.32 M730.01,347.01L716.98,359.98L704.06,373.06L691.21,386.21L678.17,399.17 M665.13,399.13L678.21,386.21L691.43,373.43L704.38,360.38 M704.68,366.68L691.75,366.75L678.84,366.84L665.74,366.74L652.85,366.85L640.15,367.15L627.13,367.13L614.12,367.12L601.11,367.11L587.81,366.81L574.34,366.34L561.02,366.02L547.98,365.98L535.09,366.09L522.25,366.25L509.33,366.33L496.46,366.46 M509.72,360.72 M506.33,354.33L507.32,368.32L503.11,368.11L499.89,378.89L489.87,388.87L481.73,396.73L489.42,406.42L483.19,422.19L482.16,436.16 M470.41,431.41 M464.92,433.92L463.88,424.88L463.78,410.78L463.60,396.60L463.56,382.56L459.75,378.75L458.96,364.96L463.12,351.12L462.31,337.31L473.44,336.44 M470.60,334.60L483.71,334.71L497.02,335.02L510.01,335.01L522.68,334.68L535.48,334.48L548.47,334.47L561.67,334.67L574.51,334.51L587.06,334.06L599.91,333.91L612.97,333.97L626.02,334.02L639.03,334.03L651.95,333.95L664.78,333.78L677.80,333.80L690.87,333.87L703.90,333.90L716.93,333.93L729.87,333.87L742.80,333.80 M743.34,321.34L730.58,321.58L717.82,321.82L704.88,321.88L692.05,322.05L679.42,322.42L666.39,322.39 M677.76,320.76L665.09,334.09L652.23,347.23L638.97,359.97L626.12,373.12 M626.73,386.73L639.68,386.68L652.31,386.31L665.09,386.09L678.05,386.05L690.98,385.98L704.03,386.03 M704.99,386.99L692.15,400.15L679.10,413.10 M662.19,433.19L652.39,440.39L648.61,442.61L653.59,449.59L656.32,453.32L659.19,467.19L658.33,477.33L654.34,482.34L651.21,490.21L652.08,504.08 M653.73,510.73L666.46,510.46L679.23,510.23L691.97,509.97 M693.01,505.01 M691.97,503.97 M692.10,497.10L678.79,496.79L665.41,496.41L652.21,496.21L639.43,496.43L626.72,496.72L613.87,496.87L600.90,496.90L588.14,497.14 M587.68,483.68L600.70,483.70L613.70,483.70L626.62,483.62L639.53,483.53L652.68,483.68L665.57,483.57L678.25,483.25L691.12,483.12L704.21,483.21 M703.92,476.92L690.49,476.49L677.06,476.06L664.09,476.09 M672.14,479.14L669.02,482.02L656.98,504.98L654.95,513.95L661.85,519.85L673.53,527.53L681.65,515.65L690.80,515.80L696.81,500.81L703.61,538.61L711.37,560.37L723.43,583.43L737.55,584.55L741.44,570.44L741.16,582.16L746.01,626.01L751.14,636.14L752.29,631.29L733.48,645.48L739.77,653.77 M730.58,646.58 M730.56,646.56 M728.07,637.07L742.17,618.17L747.10,612.10L726.96,609.96L747.07,591.07L742.95,583.95L725.72,582.72L739.55,577.55L755.42,566.42L748.29,564.29L770.12,561.12L753.01,580.01L736.87,590.87L730.63,554.63L721.89,575.89L711.26,567.26L698.70,570.70L696.25,581.25L698.77,560.77L684.89,556.89L695.97,554.97L695.07,564.07L706.18,566.18L709.19,571.19 M703.97,573.97 M692.47,562.47 M679.58,569.58L666.56,569.56 M665.26,568.26 M677.57,573.57 M677.81,580.81 M676.21,589.21L670.99,570.99L656.74,562.74L659.54,571.54L667.47,554.47L675.53,554.53L678.32,568.32L685.94,579.94L689.71,591.71L694.66,600.66L703.70,627.70L727.64,629.64L712.51,643.51L718.59,651.59L717.79,661.79L711.94,668.94L716.90,649.90 M703.91,651.91L690.89,651.89L677.74,651.74 M677.85,648.85L670.10,638.10L678.31,633.31L691.28,623.28L681.24,617.24L696.18,612.18L689.06,606.06L680.19,592.19 M690.81,599.81L703.61,599.61L716.47,599.47 M705.15,608.15 M704.46,607.46 M704.58,613.58 M718.09,627.09L704.90,626.90L691.90,626.90L678.77,626.77L665.34,626.34L651.88,625.88L638.57,625.57L625.43,625.43 M624.86,612.86L623.00,606.00L617.15,593.15L623.20,585.20L628.31,588.31L630.54,574.54 M628.73,576.73L619.67,585.67L633.61,591.61L636.68,585.68L647.75,586.75L651.59,596.59L658.49,591.49L663.49,595.49L669.46,618.46L679.36,625.36L688.19,621.19L694.03,631.03L701.95,638.95L706.88,647.88L712.99,646.99L717.90,681.90L722.81,667.81L725.59,677.59L736.51,682.51 M731.09,679.09 M730.69,691.69 M742.80,703.80 M754.77,681.77L743.70,695.70L741.67,700.67L731.69,696.69L725.86,694.86L732.00,686.00L728.80,676.80L715.72,678.72L704.61,673.61L689.43,671.43L686.22,666.22L676.11,653.11L672.87,649.87L649.68,650.68L642.58,629.58L629.62,626.62L638.73,612.73L632.70,598.70L630.66,599.66L610.62,602.62L607.44,589.44L602.68,582.68L582.82,592.82L571.80,596.80L573.70,596.70L577.62,592.62 M579.95,594.95L580.04,609.04L576.30,616.30L580.44,620.44L580.51,632.51L592.74,638.74L578.67,640.67L574.50,648.50L581.31,649.31L590.12,655.12 M587.22,652.22 M588.16,647.16 M569.81,635.81L569.78,643.78L578.81,641.81L583.70,633.70L592.38,629.38L595.20,613.20L609.17,621.17L616.07,626.07L612.99,639.99L605.88,646.88L599.95,658.95L591.96,664.96L594.79,687.79L582.72,696.72L599.87,707.87L599.85,721.85L614.11,720.11L619.36,732.36L620.65,739.65L619.93,746.93L626.04,753.04L620.98,764.98L638.78,773.78L636.81,783.81L641.08,784.08L654.06,772.06L666.08,780.08L679.96,771.96L693.83,762.83L698.70,775.70L696.58,788.58 M687.89,793.89L687.98,779.98 M691.14,769.14 M690.39,762.39 M679.50,757.50L666.78,757.78 M665.53,743.53L678.46,743.46 M682.04,748.04L685.93,750.93L695.65,748.65L708.36,724.36L722.11,718.11L709.85,706.85L705.87,721.87L696.72,703.72L703.79,664.79L689.96,657.96L677.95,646.95L671.88,658.88L666.99,642.99L660.07,653.07L658.17,618.17L653.20,616.20L651.38,604.38L643.70,603.70L642.81,606.81L634.78,608.78L621.81,611.81L599.67,619.67L592.75,600.75L587.79,594.79L585.79,622.79L574.76,620.76L564.38,609.38L548.97,596.97L543.77,573.77L533.72,576.72L519.47,555.47 M510.89,555.89L514.79,558.79L511.73,570.73L499.61,563.61L499.53,551.53L501.56,546.56L522.80,560.80L535.16,582.16L540.39,576.39L551.40,576.40L559.41,599.41L561.42,593.42L577.19,583.19L594.11,584.11L602.18,598.18L601.11,612.11L609.07,614.07L602.05,627.05L620.98,628.98L640.89,632.89L621.84,644.84L601.81,645.81L611.71,659.71L608.76,673.76L609.01,677.01L614.19,681.19L618.11,691.11L626.04,694.04L617.08,697.08L637.13,710.13L633.24,713.24L634.45,721.45L649.52,725.52L661.45,730.45L684.26,734.26L666.99,743.99L651.05,759.05L664.28,761.28L653.25,769.25L645.01,776.01L654.96,779.96L651.02,789.02L642.95,798.95L639.80,796.80 M640.25,796.25L653.18,796.18 M653.17,803.17 M665.69,802.69 M669.59,798.59L665.69,795.69L678.79,790.79L666.73,783.73L670.70,774.70L689.84,759.84L697.10,754.10L703.25,749.25L708.22,738.22L720.08,725.08L735.16,715.16L732.37,708.37L747.45,704.45L737.35,697.35L751.38,687.38L746.31,665.31L743.11,663.11L733.98,651.98L727.07,648.07L724.26,634.26L721.49,619.49L718.68,625.68L713.72,601.72L706.56,594.56L700.37,586.37L694.20,626.20L682.15,665.15L668.08,673.08L658.70,675.70L656.51,673.51L647.36,686.36L634.22,655.22L626.14,641.14L618.19,637.19L611.13,619.13L603.12,607.12L601.19,632.19L600.35,660.35L588.55,645.55L580.60,663.60L574.62,644.62L566.60,630.60L561.40,613.40L558.63,620.63L537.80,617.80L536.84,600.84L532.83,606.83L514.86,590.86L507.99,606.99L499.06,604.06L488.24,584.24L494.55,585.55L496.50,571.50 M501.28,569.28L509.30,583.30L514.04,584.04L524.85,591.85L508.81,598.81L501.54,598.54L520.20,603.20L522.04,611.04L522.13,626.13L532.29,630.29L545.34,640.34L556.37,645.37L567.43,656.43L577.38,656.38L579.42,659.42L587.49,673.49 M600.65,678.65 M614.00,692.00L600.99,691.99L588.10,692.10L575.05,692.05 M574.88,685.88 M573.39,677.39L560.66,677.66L547.73,677.73L534.99,677.99L522.42,678.42L509.64,678.64 M510.35,673.35 M508.31,671.31 M509.42,659.42 M507.87,657.87 M500.34,647.34L506.37,661.37L519.43,683.43L523.38,690.38L530.42,691.42L534.49,696.49L541.79,699.79L541.84,707.84L523.99,713.99L541.08,720.08L550.05,736.05L558.09,758.09L568.28,762.28 M560.97,762.97L547.70,762.70 M545.45,766.45L547.20,743.20L536.89,739.89L527.98,733.98L519.91,719.91L511.76,705.76L517.71,706.71L510.71,698.71L513.81,684.81L520.97,676.97L516.34,667.34L514.57,662.57L511.74,656.74L504.78,642.78 M496.62,632.62L507.63,622.63L486.60,616.60L467.69,614.69L460.95,600.95L468.87,588.87L461.94,578.94L477.85,570.85L474.86,567.86L486.94,553.94L492.07,540.07 M484.62,562.62L497.16,562.16L509.93,561.93 M515.16,567.16L523.91,580.91L536.89,582.89L544.90,596.90L556.76,602.76L569.78,609.78L570.69,621.69L560.62,625.62L555.40,630.40L516.19,637.19L525.23,646.23L539.10,654.10L534.16,655.16L539.17,668.17L538.21,675.21L554.53,679.53 M554.42,679.42L552.33,680.33L538.12,684.12 M548.48,685.48 M548.98,691.98 M561.52,711.52 M561.77,711.77L548.81,711.81L535.84,711.84 M535.37,717.37L521.91,716.91L508.40,716.40L495.32,716.32 M495.00,716.00L479.98,712.98L468.04,722.04L442.10,735.10L432.29,721.29L421.47,730.47L414.38,694.38L400.24,705.24L397.30,712.30L395.51,703.51L395.63,689.63L372.74,687.74L363.88,676.88L382.97,678.97L368.98,671.98L349.00,668.00 M354.55,666.55 M366.23,678.23 M370.53,686.53L361.70,688.70L352.91,649.91L334.95,643.95L326.86,658.86L320.80,640.80L311.67,650.67L299.80,659.80L287.89,669.89L282.94,656.94L274.20,635.20L267.06,630.06L263.27,618.27L257.27,620.27L251.91,610.91L242.84,621.84L236.76,619.76L242.80,629.80L243.86,637.86L253.95,653.95L270.81,686.81L280.90,696.90L256.67,707.67L257.50,721.50L263.44,733.44L267.49,747.49L270.61,758.61L272.87,766.87L279.95,778.95L285.94,747.94L305.84,730.84L313.78,723.78L320.41,711.41L324.15,716.15L327.95,735.95L336.88,732.88L339.70,767.70L358.70,734.70L370.72,724.72L376.78,717.78L381.73,724.73L389.79,747.79L399.80,751.80L401.86,778.86L411.96,762.96L400.93,770.93L383.11,780.11L387.38,785.38L371.38,795.38 M368.70,798.70L365.63,784.63L375.73,774.73L383.97,761.97L368.06,749.06L356.95,748.95L362.02,740.02L372.08,725.08L366.08,723.08L360.06,710.06L345.12,707.12L346.31,695.31L343.50,683.50L327.67,676.67L304.74,671.74L302.51,657.51L285.44,654.44L307.30,650.30L319.04,643.04L310.95,643.95L301.00,643.00L296.78,629.78L293.63,627.63L294.67,614.67L288.76,600.76L287.66,589.66L305.60,582.60L307.78,576.78L324.18,562.18L322.32,548.32 M328.54,549.54 M339.66,549.66L335.95,549.95L331.06,537.06L326.06,532.06L316.95,536.95L316.74,522.74 M314.14,535.14L327.27,535.27L340.55,535.55L353.77,535.77L367.01,536.01 M364.80,546.80L361.86,540.86L356.01,538.01L368.15,544.15L377.21,558.21L382.33,572.33L376.08,580.08L389.95,587.95L385.90,594.90L382.78,600.78L399.66,610.66L403.74,621.74L422.89,625.89L410.92,636.92L409.99,642.99L418.99,647.99L416.94,661.94L427.01,662.01 M417.62,664.62L430.74,664.74L443.48,664.48 M444.01,678.01L457.27,678.27L470.37,678.37L483.26,678.26 M470.05,665.05L483.20,665.20L496.05,665.05L509.15,665.15L522.52,665.52L535.55,665.55 M552.01,665.01L556.07,658.07 M560.13,658.13 M560.72,651.72L547.54,651.54L534.51,651.51L521.76,651.76L509.16,652.16L496.41,652.41L483.45,652.45L470.75,652.75L457.88,652.88L444.85,652.85L431.85,652.85 M431.30,639.30L418.04,639.04L404.84,638.84L391.74,638.74L378.81,638.81L365.84,638.84 M378.89,636.89L381.84,650.84L390.55,664.55L392.53,678.53 M392.01,678.01 M391.60,690.60L378.86,690.86L365.83,690.83L352.65,690.65 M354.14,686.14L357.15,700.15L342.26,718.26L344.46,732.46L334.62,746.62L328.64,754.64L332.42,768.42 M326.22,781.22 M313.92,787.92L326.80,779.80L324.65,766.65L313.47,761.47L308.04,759.04L303.97,744.97L296.75,741.75L310.56,734.56L305.47,724.47L314.56,720.56 M328.44,718.44 M334.45,709.45L334.39,695.39 M340.54,678.54 M331.51,666.51L341.31,655.31L352.08,653.08L344.94,638.94 M337.23,646.23L330.10,652.10L320.16,655.16L317.17,664.17L316.21,671.21L316.53,685.53L320.51,692.51L321.46,705.46L327.62,713.62L318.90,727.90L325.14,731.14L319.13,736.13L324.26,750.26L343.37,760.37L344.28,774.28L359.05,773.05L349.13,784.13L343.97,799.97 M340.63,802.63 M352.66,801.66 M359.73,789.73L366.70,775.70L349.66,768.66L355.74,754.74L364.82,756.82 M367.00,770.00 M366.51,782.51 M387.33,778.33L386.69,764.69L371.09,759.09L375.01,745.01L383.09,737.09L379.04,737.04L392.86,728.86L384.68,719.68L381.75,715.75L374.87,712.87L379.99,698.99L373.23,716.23L358.27,728.27L347.23,713.23L337.21,678.21L337.22,655.22L327.09,681.09L324.86,662.86L320.09,653.09L313.15,627.15L310.15,638.15L304.17,629.17L293.10,620.10L287.19,591.19L268.54,571.54L248.65,576.65L262.59,565.59L257.81,551.81 M250.95,562.95 M272.28,560.28L275.33,574.33L279.31,581.31L279.25,588.25 M283.75,575.75L282.79,561.79 M289.78,553.78L300.88,559.88L297.83,573.83L304.92,595.92L316.02,600.02L308.95,611.95L310.22,626.22L276.41,639.41L279.47,644.47L292.37,662.37L287.35,670.35L293.48,684.48L297.53,698.53L301.62,712.62L304.84,711.84L281.97,720.97L288.08,735.08L282.08,739.08L300.11,750.11L306.07,764.07L303.93,776.93L304.98,790.98 M302.73,803.73 M314.63,800.63L316.39,793.39L331.14,791.14L328.86,787.86L321.70,782.70L305.87,764.87L305.09,761.09L297.20,736.20L282.23,695.23L271.41,697.41L263.35,650.35L260.11,635.11L252.82,633.82L246.59,659.59L235.47,653.47L234.50,642.50L220.68,639.68L223.82,649.82L225.87,629.87L231.01,642.01 M223.52,639.52 M225.15,649.15L215.98,661.98L227.74,668.74L238.62,703.62L256.54,726.54L263.31,740.31L274.12,738.12L280.05,718.05L288.07,758.07L292.09,759.09L300.97,781.97L310.26,792.26L315.38,801.38L323.56,800.56L337.81,787.81L338.98,800.98L356.22,802.22L362.55,796.55L376.80,798.80L388.83,794.83L394.78,790.78L398.98,794.98L402.98,799.98L432.84,788.84L450.67,767.67L451.53,775.53L448.29,785.29L442.93,791.93L451.59,795.59L456.47,793.47 M457.79,802.79 M470.29,802.29 M469.97,794.97L483.05,795.05 M482.50,801.50 M495.45,801.45 M498.04,800.04L483.09,791.09L483.12,794.12L483.93,786.93L478.81,769.81L476.79,765.79L483.82,764.82L475.76,757.76L455.44,757.44L441.24,749.24L430.23,775.23L419.31,789.31L419.25,795.25L417.22,783.22L421.27,786.27L412.23,769.23L418.20,767.20L418.47,752.47L429.55,741.55L422.51,731.51L433.38,720.38L442.25,711.25L430.34,700.34L420.52,690.52L428.58,688.58L435.53,677.53L421.40,662.40L420.57,679.57L404.75,662.75L390.81,656.81L386.75,637.75L375.76,621.76L359.90,604.90L353.02,568.02L346.94,551.94L346.72,528.72L345.74,532.74L351.88,532.88L359.13,538.13L386.19,568.19L387.18,581.18L403.24,582.24 M405.14,587.14L392.06,587.06L379.22,587.22L366.30,587.30L353.53,587.53L340.89,587.89L328.24,588.24 M327.79,600.79 M314.00,613.00L327.29,613.29L340.78,613.78L354.15,614.15L367.30,614.30L380.46,614.46L393.65,614.65L406.94,614.94L419.95,614.95 M418.77,607.77 M418.33,600.33L405.39,600.39 M392.35,616.35L400.48,617.48L387.53,587.53L365.62,560.62L363.84,549.84L377.97,577.97L378.08,598.08L387.08,616.08L392.11,621.11L399.07,624.07L405.93,622.93L407.98,640.98L436.04,643.04L442.19,601.19L452.45,615.45L456.67,629.67L462.54,627.54L468.35,639.35L473.16,658.16L479.99,657.99L484.82,666.82L490.94,660.94L494.13,694.13L505.07,711.07L502.74,702.74L515.53,712.53L521.50,687.50L530.50,689.50L538.38,689.38L552.11,690.11L557.05,708.05L558.96,716.96L569.14,704.14L575.12,701.12L582.92,697.92L592.73,667.73L609.86,663.86L610.95,690.95L619.12,681.12L623.37,697.37L631.50,712.50L640.50,714.50L648.51,748.51L659.47,737.47L669.42,720.42L672.49,720.49L674.68,730.68L685.70,731.70L693.79,756.79L702.97,766.97L700.03,783.03L714.86,785.86L710.53,793.53L685.33,798.33L688.28,788.28L710.07,765.07L724.12,768.12L727.16,777.16L743.35,765.35 M744.09,770.09 M729.56,781.56 M718.74,766.74L716.63,761.63L726.42,760.42L738.28,752.28L743.23,743.23L750.14,737.14L746.35,742.35L736.56,729.56L730.57,709.57L724.35,734.35L716.40,733.40L704.38,730.38L698.51,725.51L690.45,721.45L684.25,712.25L681.06,683.06L678.08,691.08L671.27,682.27L667.25,695.25L657.05,714.05L650.99,702.99L645.27,698.27L641.55,675.55L637.84,675.84L632.11,690.11L623.31,704.31L612.12,696.12L601.87,664.87L578.69,672.69L575.59,663.59L565.47,652.47L560.54,642.54L545.54,632.54L543.51,619.51L537.54,636.54L533.49,634.49L524.44,647.44L517.31,619.31L512.32,612.32L508.36,628.36L496.32,637.32L486.42,635.42L485.61,624.61L485.66,618.66L481.57,607.57L484.39,578.39 M483.12,577.12L479.88,583.88L486.73,597.73L494.54,610.54L502.49,614.49 M508.71,612.71 M509.75,607.75L496.80,607.80L483.83,607.83 M483.60,613.60L470.17,613.17L456.83,612.83L443.78,612.78 M443.91,619.91 M457.21,626.21L444.27,626.27L431.29,626.29L418.14,626.14L405.10,626.10L392.11,626.11L379.21,626.21L366.01,626.01L352.68,625.68L339.73,625.73 M340.27,620.27 M353.76,600.76 M366.03,620.03 M380.36,601.36 M379.88,581.88 M367.02,562.02L353.74,561.74L340.44,561.44L327.30,561.30 M340.42,555.42 M353.28,548.28 M366.95,555.95 M377.88,546.88 M384.31,538.31L373.37,545.37L374.53,542.53L375.77,536.77L387.03,553.03L396.23,567.23L403.38,571.38L409.49,556.49L406.64,579.64L411.82,598.82L416.94,627.94L418.65,620.65L428.30,606.30L430.00,641.00L437.72,652.72L445.48,641.48L445.69,651.69L443.78,661.78L455.84,669.84L458.93,679.93L466.99,693.99L468.05,699.05L477.15,704.15L480.30,714.30L479.36,728.36L467.21,742.21L450.30,752.30L444.32,758.32L441.18,772.18L426.87,766.87L427.71,764.71L440.65,762.65L458.60,765.60L470.58,760.58L465.75,771.75 M470.37,782.37L457.24,782.24L443.89,781.89L430.68,781.68 M431.26,769.26L418.34,769.34L405.48,769.48 M418.55,756.55L431.78,756.78L445.08,757.08L458.31,757.31 M461.03,746.03L457.94,731.94L459.97,727.97L454.03,718.03L455.94,710.94L451.89,705.89L447.80,700.80L437.70,698.70L434.80,684.80 M445.08,692.08L457.88,691.88L470.72,691.72L483.48,691.48L496.11,691.11L508.80,690.80L521.59,690.59 M522.48,685.48 M522.13,685.13 M520.74,696.74 M522.24,704.24L535.46,704.46L548.69,704.69L561.64,704.64L574.37,704.37L587.07,704.07 M600.45,708.45L614.31,717.31L618.26,734.26L629.31,743.31L633.40,750.40 M638.72,742.72 M640.16,731.16L627.41,731.41L614.63,731.63L601.58,731.58 M604.06,731.06L608.08,745.08L606.08,757.08 M614.49,757.49L627.55,757.55L640.58,757.58 M638.12,762.12L624.89,761.89 M625.84,762.84 M625.35,768.35L612.04,768.04 M600.09,782.09L586.93,781.93L573.92,781.92L560.95,781.95 M561.57,769.57L548.63,769.63L535.99,769.99L523.02,770.02 M522.25,776.25 M522.70,782.70L535.54,782.54 M533.41,781.41L519.23,783.23L524.20,797.20L528.09,800.09 M521.24,801.24 M510.69,803.69 M507.13,800.13L515.14,786.14 M495.86,781.86 M493.99,780.99L502.16,783.16L515.35,775.35L526.54,762.54L522.67,756.67L527.45,749.45L511.19,747.19L497.04,740.04L492.98,734.98L488.93,738.93 M483.28,743.28L470.08,743.08L456.89,742.89L443.82,742.82L430.80,742.80L417.86,742.86 M412.58,739.58L409.62,725.62 M411.99,712.99L421.05,713.05L426.15,721.15L410.30,743.30L394.36,757.36L401.21,751.21 M403.13,745.13L396.17,731.17 M392.15,730.15L405.24,730.24L418.42,730.42L431.63,730.63L444.73,730.73 M453.07,737.07L440.04,741.04L429.07,752.07L431.89,753.89 M430.17,716.17L443.53,716.53L456.77,716.77L469.81,716.81 M470.18,724.18 M469.90,729.90 M495.67,729.67L508.39,729.39 M508.52,742.52L521.69,742.69L534.51,742.51L547.35,742.35 M549.30,751.30L562.18,751.18L575.08,751.08 M573.31,742.31L586.33,742.33L599.56,742.56L612.89,742.89 M613.20,737.20 M612.89,736.89 M600.97,724.97 M599.94,723.94L586.92,723.92L573.94,723.94 M574.54,730.54L561.55,730.55 M561.39,717.39L574.52,717.52L587.74,717.74L600.91,717.91 M588.40,725.40 M593.84,742.84L586.81,756.81 M587.94,756.94L574.99,756.99L562.00,757.00L548.91,756.91 M560.61,762.61 M573.82,775.82L586.75,775.75 M587.11,769.11 M582.67,783.67L593.84,775.84L596.98,768.98L583.98,760.98L576.78,746.78L578.83,736.83L587.80,727.80L581.55,720.55L569.22,711.22L559.98,709.98L579.81,702.81L567.56,692.56L559.38,692.38L568.26,681.26L577.97,684.97L564.09,687.09L556.07,660.07L553.05,645.05L544.12,650.12L539.31,672.31L529.54,636.54L526.62,630.62L523.74,607.74L523.98,591.98L527.15,589.15L515.09,575.09L511.09,565.09L504.14,593.14L495.16,582.16L490.48,565.48L480.64,560.64L472.86,593.86L476.87,595.87L453.68,585.68L456.54,571.54 M469.38,573.38L482.62,573.62 M471.73,581.73L468.62,595.62L480.52,603.52L473.54,619.54L465.74,632.74L470.03,644.03 M478.89,641.89L472.87,627.87L462.76,623.76L458.48,617.48L446.19,604.19L454.09,606.09L446.18,592.18 M443.23,593.23 M439.86,597.86L436.09,592.09L424.22,596.22L430.21,574.21L423.23,597.23L427.27,573.27L428.23,588.23L431.99,596.99L439.87,596.87L449.75,602.75L463.68,607.68L470.86,611.86L472.04,630.04L480.09,645.09L486.01,649.01L475.09,661.09L485.69,668.69L482.33,671.33L491.00,681.00L484.79,688.79L495.67,696.67L499.61,695.61L495.66,702.66L508.87,713.87L514.16,728.16L533.45,731.45L556.50,730.50L557.83,744.83L554.00,759.00L561.05,773.05L565.01,776.01L576.82,778.82L557.61,791.61L569.66,785.66L576.92,796.92L581.95,793.95L597.76,773.76L605.40,778.40L613.23,784.23L616.28,776.28L611.33,784.33L605.29,799.29L618.54,801.54L625.70,789.70 M625.32,781.32L638.38,781.38 M639.01,802.01 M626.58,802.58 M678.25,795.25 M679.20,803.20 M690.88,801.88 M703.80,801.80 M716.90,801.90 M717.27,795.27 M730.50,802.50 M743.65,802.65 M745.62,797.62L738.74,792.74L754.79,782.79L751.68,778.68L746.59,782.59L735.73,776.73L730.68,774.68L725.73,772.73L717.79,764.79L712.74,753.74L703.52,758.52L695.31,781.31L682.00,767.00L679.67,763.67L673.41,749.41L673.37,757.37L671.49,742.49L658.93,750.93L660.21,732.21L648.24,735.24L633.13,771.13L624.30,755.30L618.16,764.16L611.02,750.02L599.05,769.05L591.12,763.12L589.07,743.07L589.06,720.06L576.10,728.10L565.14,748.14L562.04,746.04L551.22,755.22L543.66,739.66L539.99,703.99L537.14,703.14L525.08,726.08L511.12,721.12L510.03,726.03L499.94,711.94L484.97,725.97L477.03,729.03L469.94,708.94L468.89,681.89L458.80,682.80L456.70,663.70L448.80,663.80L441.72,665.72L429.63,682.63L422.50,664.50L415.26,645.26L408.03,670.03L395.74,673.74L386.54,656.54L380.52,660.52L374.62,631.62L369.73,611.73L360.69,592.69L361.84,567.84L349.76,574.76L351.61,596.61L338.64,610.64L330.60,580.60L320.75,581.75L317.88,560.88L327.83,538.83L337.95,528.95 M344.88,531.88L345.09,546.09L344.31,560.31L346.37,571.37L344.19,577.19L356.95,589.95L360.00,597.00L354.14,611.14L360.04,610.04L368.80,623.80L374.68,618.68L374.86,631.86L378.06,636.06L389.31,647.31L398.64,652.64L405.92,664.92L401.80,672.80L402.73,686.73L398.53,689.53 M404.98,703.98L418.06,704.06L430.77,703.77 M456.82,703.82L469.81,703.81L482.65,703.65L495.61,703.61 M495.77,697.77 M502.53,686.53L495.75,673.75L489.88,659.88 M482.56,625.56 M469.11,619.11 M469.31,599.31 M457.51,587.51L470.73,587.73L484.00,588.00L497.09,588.09 M496.36,592.36L501.15,593.15L499.04,579.04 M508.08,573.08L521.30,573.30L534.77,573.77 M552.82,575.82L558.96,589.96L551.04,590.04L553.14,604.14L551.18,620.18 M549.25,621.25L536.26,621.26 M542.99,626.99L528.99,614.99L538.92,607.92L517.89,602.89L526.74,598.74L535.66,594.66 M534.19,606.19 M533.60,611.60L546.87,611.87L560.18,612.18 M560.97,599.97L547.92,599.92L535.12,600.12L522.05,600.05L508.95,599.95L496.02,600.02 M509.20,607.20 M509.23,620.23 M508.95,625.95L521.95,625.95L534.96,625.96L547.91,625.91L560.85,625.85L573.94,625.94 M586.65,612.65L599.73,612.73L613.00,613.00 M614.51,601.51 M599.30,608.30L593.65,606.65L590.94,592.94 M588.18,601.18 M599.66,586.66 M574.62,587.62 M548.33,587.33 M522.25,587.25 M547.65,619.65 M547.12,632.12 M547.81,638.81L560.80,638.80L573.82,638.82L586.93,638.93L600.18,639.18L613.22,639.22L626.46,639.46L639.39,639.39L652.56,639.56L666.00,640.00 M665.16,633.16 M664.08,632.08 M660.41,627.41L670.42,630.42L666.19,627.19L653.11,629.11L654.18,642.18L658.11,657.11L670.07,666.07L675.05,671.05L670.98,675.98L677.89,689.89L684.84,683.84L695.81,693.81L699.71,697.71L703.76,706.76L686.01,713.01L695.19,723.19L707.11,754.11L721.04,747.04L734.08,748.08L730.13,733.13L721.24,739.24L730.45,742.45 M717.37,756.37 M703.31,742.31 M703.33,736.33 M704.91,730.91 M694.87,731.87L673.57,721.57L659.46,718.46L653.24,709.24L648.95,698.95L646.71,687.71L652.75,683.75L635.88,678.88L633.04,669.04L628.34,665.34L622.46,659.46 M613.42,659.42 M613.21,659.21 M612.87,651.87 M612.39,645.39 M613.73,633.73 M611.78,631.78 M599.34,625.34 M600.62,620.62 M638.00,632.00 M643.71,634.71L667.43,620.43L665.46,604.46L674.75,600.75L663.85,589.85L679.04,581.04L673.15,581.15L664.31,567.31L662.55,559.55L680.83,552.83L686.54,551.54L684.43,544.43L671.24,530.24L667.00,531.00L658.00,524.00L670.04,513.04L670.22,499.22L690.37,493.37L693.35,489.35L706.16,480.16L710.20,476.20L702.33,472.33L700.19,472.19L705.78,470.78L710.39,456.39L710.36,442.36L710.55,428.55L712.66,414.66L711.68,407.68L710.78,393.78 M717.44,405.44L704.56,405.56L691.58,405.58L678.61,405.61L665.66,405.66L652.54,405.54L639.65,405.65L626.98,405.98L614.01,406.01L601.08,406.08L588.20,406.20L575.07,406.07L561.79,405.79L548.66,405.66 M549.09,419.09 M548.04,444.04L535.26,444.26L522.31,444.31 M521.52,450.52 M522.87,451.87 M523.74,458.74L536.58,458.58L549.29,458.29L561.97,457.97 M546.88,451.88L551.75,440.75L536.59,443.59L535.37,429.37L535.15,417.15L537.02,405.02L537.11,391.11L519.00,385.00L505.89,378.89L516.79,371.79L511.75,367.75L518.66,366.66L517.77,358.77L521.75,344.75L513.56,328.56L517.50,315.50L518.66,304.66L528.92,287.92L532.03,282.03L540.98,269.98L554.15,259.15L554.27,250.27L562.23,242.23L572.29,228.29L580.39,220.39L588.34,215.34L593.37,201.37L599.71,189.71L603.87,189.87L610.88,175.88L619.90,161.90L634.85,148.85L630.80,148.80L630.83,153.83L624.97,168.97L642.96,149.96 M652.05,152.05 M652.73,152.73 M653.51,146.51L666.49,146.49 M666.68,159.68L653.71,159.71L640.53,159.53L627.11,159.11L613.51,158.51L600.08,158.08L586.71,157.71L573.47,157.47L560.57,157.57L547.86,157.86L534.93,157.93 M534.82,151.82L522.00,152.00 M510.74,146.74L523.53,146.53L536.25,146.25L548.81,145.81L561.41,145.41L574.12,145.12L586.64,144.64L599.29,144.29L612.28,144.28L625.60,144.60 M625.92,151.92 M626.36,158.36 M624.32,163.32 M613.26,178.26 M612.37,183.37L599.32,196.32 M600.14,204.14L613.30,191.30 M613.16,191.16 M613.63,204.63L600.92,217.92L587.98,230.98L575.05,244.05 M575.20,244.20L588.21,244.21L601.03,244.03L614.10,244.10 M612.62,235.62L625.67,235.67L638.88,235.88L652.07,236.07 M652.57,230.57L639.55,230.55L626.31,230.31L613.10,230.10 M606.67,237.67L615.66,212.66L607.68,222.68L599.75,236.75L585.74,253.74L577.87,263.87L572.73,272.73L566.87,285.87L557.84,290.84L552.75,302.75 M561.45,282.45L548.32,295.32L535.32,308.32L522.51,321.51L509.70,334.70 M509.44,347.44L522.45,347.45L535.26,347.26L547.91,346.91L560.68,346.68L573.46,346.46L586.57,346.57L599.50,346.50L612.64,346.64L625.77,346.77L638.87,346.87L652.03,347.03L665.10,347.10L677.93,346.93L690.77,346.77L703.75,346.75L716.62,346.62L729.42,346.42 M729.70,339.70L742.78,339.78L755.99,339.99 M756.53,327.53 M743.26,321.26 M742.76,313.76L730.03,314.03L717.04,314.04L703.76,313.76L690.82,313.82L677.79,313.79L664.96,313.96L651.89,313.89L638.62,313.62L625.38,313.38L612.40,313.40L599.65,313.65L586.63,313.63L573.37,313.37L560.29,313.29L547.64,313.64L535.01,314.01L522.40,314.40L509.75,314.75L497.00,315.00L483.75,314.75L470.43,314.43L457.20,314.20L444.06,314.06L430.91,313.91L418.01,314.01L405.00,314.00L391.96,313.96L379.00,314.00L365.94,313.94L352.87,313.87L339.70,313.70L326.72,313.72L313.77,313.77L300.71,313.71L287.84,313.84L275.09,314.09L262.16,314.16L249.04,314.04L235.81,313.81L222.98,313.98L209.86,313.86L196.70,313.70L183.66,313.66L170.39,313.39L157.16,313.16L144.12,313.12L131.41,313.41L118.85,313.85L105.73,313.73 M105.71,307.71L119.69,310.69L107.56,307.56 M99.90,319.90L96.86,305.86L84.64,301.64L86.58,287.58 M93.15,295.15 M93.34,301.34L106.21,301.21L119.23,301.23L132.16,301.16L145.18,301.18L158.34,301.34L171.46,301.46 M185.04,289.04L197.93,288.93L211.11,289.11L224.43,289.43L237.70,289.70L250.48,289.48L263.51,289.51 M256.83,279.83L257.39,262.39L264.05,266.05L249.98,265.98 M234.95,260.95L248.02,261.02L261.04,261.04L274.12,261.12L287.25,261.25L300.21,261.21L313.45,261.45L326.79,261.79L339.79,261.79L352.59,261.59L365.70,261.70L378.78,261.78L391.99,261.99L405.30,262.30L418.64,262.64L431.90,262.90L445.10,263.10L458.23,263.23L471.43,263.43L484.67,263.67L497.82,263.82L510.44,263.44L522.98,262.98L535.60,262.60L548.24,262.24L560.92,261.92L574.20,262.20L587.32,262.32L600.39,262.39L613.51,262.51L626.59,262.59 M627.08,257.08L640.05,257.05L652.65,256.65L665.46,256.46 M665.46,256.46L652.54,269.54L639.33,282.33L626.22,295.22L613.34,308.34L600.26,321.26L587.03,334.03L573.74,346.74L560.63,359.63 M549.16,361.16L561.86,347.86L574.65,334.65L587.57,321.57L600.40,308.40 M600.24,295.24L587.38,295.38L574.63,295.63L561.99,295.99L548.89,295.89L536.05,296.05L523.11,296.11L510.13,296.13L497.02,296.02L483.82,295.82L470.94,295.94L458.18,296.18L445.08,296.08L431.66,295.66L418.44,295.44L405.78,295.78L392.94,295.94L379.93,295.93L366.97,295.97L354.06,296.06 M353.59,288.59 M343.19,286.19L348.01,272.01 M354.01,276.01 M366.64,275.64L353.65,275.65L340.69,275.69 M339.85,268.85L352.71,268.71L365.97,268.97L379.18,269.18L392.41,269.41L405.62,269.62 M405.62,288.62L392.25,301.25L379.08,314.08L365.95,326.95L353.00,340.00 M366.56,340.56L379.79,327.79 M366.62,360.62L379.43,360.43L392.29,360.29L405.44,360.44L418.78,360.78L431.75,360.75 M434.31,356.31L435.23,370.23L437.24,378.24L437.44,392.44L433.76,412.76L436.82,421.82L425.79,433.79L426.81,447.81L418.93,467.93 M417.29,489.29L430.55,489.55L443.81,489.81 M446.63,492.63 M444.49,496.49L431.21,496.21L417.99,495.99 M418.59,490.59L431.38,477.38L444.22,464.22 M445.89,478.89L432.93,491.93 M437.74,500.74L432.81,502.81L435.65,516.65 M438.72,516.72L443.70,502.70L440.80,499.80 M446.02,508.02L443.15,522.15 M430.59,508.59L417.48,508.48 M431.92,503.92 M423.70,524.70L421.68,510.68L401.85,506.85L416.64,500.64L426.39,496.39L453.25,501.25L452.34,487.34 M493.30,474.30L505.30,470.30L497.20,477.20L497.03,491.03L500.88,504.88 M508.02,508.02L521.13,508.13 M523.74,508.74L523.72,494.72L522.75,480.75L521.69,466.69 M510.64,471.64L523.51,471.51L536.65,471.65 M522.76,483.76L509.77,483.77L496.81,483.81 M507.63,475.63 M510.66,497.66L523.56,497.56 M546.33,508.33L547.42,522.42 M551.79,519.79L553.60,513.60L538.35,510.35L516.13,523.13L525.86,516.86L516.69,509.69L505.73,508.73L508.69,492.69L513.69,486.69L509.70,479.70L517.82,475.82L524.90,464.90L527.25,463.25L518.45,460.45L514.57,458.57L515.61,444.61L499.81,435.81L495.94,425.94L506.94,409.94L491.68,431.68L492.70,436.70L490.54,422.54L483.54,413.54L473.39,406.39L470.10,406.10L472.94,391.94L476.91,391.91L477.72,377.72L478.56,363.56L480.49,349.49L480.27,335.27L489.59,323.59L486.74,325.74L477.91,324.91L470.01,322.01L470.99,313.99L472.47,288.47L481.80,270.80L489.84,263.84L491.74,257.74L490.60,270.60 M497.48,270.48L510.17,270.17L523.03,270.03L536.01,270.01L549.09,270.09L562.03,270.03L574.97,269.97L588.07,270.07L600.93,269.93L613.45,269.45L626.27,269.27L639.35,269.35L652.14,269.14 M651.60,261.60L664.56,261.56L677.33,261.33L690.13,261.13L703.22,261.22L716.51,261.51L729.36,261.36L742.27,261.27 M730.05,256.05 M731.36,250.36L718.40,250.40L705.11,250.11L691.85,249.85 M692.02,244.02 M690.61,242.61 M691.62,230.62 M691.03,230.03 M691.40,223.40 M690.01,209.01L677.00,209.00L664.24,209.24L651.86,209.86L639.64,210.64L626.86,210.86L614.16,211.16L601.50,211.50L588.69,211.69L575.68,211.68L562.72,211.72L549.65,211.65L536.69,211.69L523.47,211.47L510.02,211.02L496.74,210.74L483.54,210.54L470.64,210.64L457.57,210.57L444.29,210.29L431.08,210.08 M430.46,209.46L417.43,222.43 M431.37,217.37L444.57,217.57L457.21,217.21L469.82,216.82 M468.95,202.95L482.16,203.16 M484.39,198.39L471.57,198.57L458.55,198.55L445.55,198.55L432.13,198.13L418.85,197.85L405.70,197.70L392.77,197.77L379.80,197.80 M368.44,193.44 M354.17,198.17 M352.87,183.87L365.70,183.70L378.46,183.46L391.25,183.25 M392.06,171.06L405.14,171.14L418.41,171.41L431.47,171.47L444.45,171.45L457.35,171.35L470.34,171.34 M483.36,165.36 M496.00,171.00L508.84,170.84L521.71,170.71L534.81,170.81L548.07,171.07L561.29,171.29L574.43,171.43L587.70,171.70L600.83,171.83L613.86,171.86L626.65,171.65L639.79,171.79L653.02,172.02L666.31,172.31L679.51,172.51L692.74,172.74 M691.36,178.36 M691.94,178.94L679.15,179.15 M677.75,177.75L690.76,164.76 M691.01,165.01 M690.54,157.54L703.59,157.59 M703.98,151.98L702.15,166.15 M717.28,171.28 M704.58,145.58L691.69,145.69 M692.24,140.24 M690.29,138.29L703.29,138.29 M704.67,139.67 M691.84,132.84L678.60,132.60L665.49,132.49L652.55,132.55L639.65,132.65L626.88,132.88L614.17,133.17L601.20,133.20L588.22,133.22L575.38,133.38L562.63,133.63L549.67,133.67L536.27,133.27L522.81,132.81L509.46,132.46L496.12,132.12L483.21,132.21 M482.62,144.62L469.59,144.59L456.65,144.65L443.60,144.60L430.56,144.56L417.91,144.91L405.01,145.01L391.97,144.97L378.79,144.79L365.63,144.63 M381.19,146.19L389.14,153.14L379.24,176.24L378.24,186.24L359.12,205.12L358.22,219.22L380.19,213.19L393.49,214.49L381.57,226.57L396.55,232.55 M392.52,243.52L379.66,243.66 M378.91,255.91 M387.94,257.94L378.96,271.96 M369.30,271.30L356.50,273.50L362.57,261.57L364.73,249.73L372.77,241.77L376.61,227.61L352.55,224.55L347.37,224.37L335.27,234.27L332.19,207.19L325.18,179.18L318.00,192.00L307.92,199.92L299.96,173.96L292.04,186.04L273.22,179.22L267.44,184.44L260.46,206.46L246.47,190.47L237.60,185.60L230.80,190.80L218.82,185.82L216.52,189.52L212.16,182.16L205.89,176.89L191.63,179.63L168.70,179.70 M172.21,191.21L158.24,199.24L167.06,195.06L180.81,196.81L166.49,193.49L173.40,221.40L176.44,227.44L178.49,229.49L192.39,227.39L206.22,225.22L210.16,222.16L205.13,226.13L211.08,233.08L206.19,236.19L187.41,242.41L165.73,244.73 M183.39,248.39L196.45,248.45 M199.75,242.75L195.90,221.90L195.08,223.08L180.97,220.97 M184.89,197.89 M173.12,197.12L186.23,178.23L191.53,159.53L194.88,154.88L190.23,154.23L162.56,154.56L164.76,149.76L165.00,148.00 M153.48,140.48L154.60,142.60L138.91,134.91L132.08,145.08L131.14,115.14L139.45,108.45L137.49,119.49L142.55,123.55L148.53,124.53L150.55,131.55L166.63,120.63L167.53,117.53L169.47,114.47L183.60,108.60L194.89,100.89L195.98,94.98L206.68,60.68L220.59,55.59L228.59,65.59L244.48,74.48L249.41,84.41L258.58,103.58L280.58,76.58L293.36,87.36L311.19,95.19L306.98,97.98L302.96,111.96L296.87,115.87L292.92,126.92L285.96,135.96L287.80,148.80L295.70,153.70L304.72,164.72L307.66,177.66L295.67,182.67L285.80,187.80L286.89,196.89L281.09,202.09L274.28,212.28L266.38,227.38L287.54,226.54L297.31,235.31L291.20,249.20L277.15,249.15L296.00,252.00L272.86,263.86L285.90,264.90L296.01,243.01L306.02,219.02L312.07,235.07L320.07,228.07L329.01,247.01L332.02,281.02L345.96,297.96L363.82,281.82L364.87,255.87L372.69,234.69L387.52,222.52L396.26,216.26L397.96,204.96L404.78,183.78L416.87,172.87L413.96,166.96L411.21,173.21L407.58,182.58L404.81,190.81L416.77,201.77L428.80,204.80L442.91,200.91 M445.66,197.66L447.70,194.70L453.82,180.82L454.82,175.82L445.87,170.87L445.00,162.00L456.15,157.15L456.13,143.13L466.10,144.10L470.12,131.12L478.10,124.10L470.13,119.13L483.30,112.30L492.18,107.18L501.11,90.11L493.20,84.20L510.40,80.40L521.58,75.58L539.37,83.37L536.35,58.35L527.36,55.36L523.29,31.29L512.19,56.19L507.26,82.26L493.34,89.34L484.42,112.42L478.65,83.65L474.00,77.00L452.97,97.97L440.85,99.85L438.75,114.75L429.58,134.58L420.54,125.54L412.63,116.63L397.55,136.55L372.32,138.32L368.12,136.12L360.16,165.16L356.12,161.12L352.11,155.11L347.29,166.29L342.50,190.50L338.60,195.60L335.64,168.64L326.68,147.68L316.57,159.57L306.38,178.38L303.14,165.14L290.03,144.03L283.72,138.72L275.58,171.58L258.73,136.73L253.97,167.97 M248.31,170.31 M249.35,178.35 M236.10,158.10 M236.37,152.37 M237.30,146.30 M248.67,131.67 M248.80,118.80 M271.96,125.96L276.84,111.84L276.78,104.78L274.74,90.74L286.79,82.79L296.74,67.74L294.69,62.69L302.52,53.52L305.46,39.46 M313.27,27.27 M317.24,60.24L331.16,55.16L333.24,35.24L337.28,32.28L330.16,41.16L335.22,46.22L325.25,62.25L321.48,65.48L313.57,79.57L311.54,89.54 M314.83,80.83 M313.74,66.74 M331.36,73.36L338.44,80.44L352.53,80.53L336.43,94.43L331.33,108.33L338.48,112.48L363.60,115.60L365.60,121.60L370.70,135.70L374.89,134.89L400.05,141.05L398.13,153.13L383.20,170.20L373.10,178.10L367.78,181.78L361.74,195.74L337.77,209.77L320.69,220.69L328.68,220.68L314.78,234.78L309.75,244.75L312.68,250.68L315.85,264.85L322.87,258.87L328.74,270.74L317.67,283.67L317.82,294.82L311.07,306.07L299.12,314.12 M288.27,321.27 M287.51,307.51 M275.17,295.17 M289.23,289.23L302.38,289.38L315.64,289.64L328.58,289.58L341.35,289.35L354.44,289.44L367.51,289.51L380.64,289.64L393.84,289.84L407.04,290.04L420.14,290.14L433.14,290.14L445.99,289.99L458.86,289.86L471.76,289.76L484.59,289.59L496.92,288.92L509.21,288.21L521.64,287.64L534.16,287.16L546.81,286.81L560.13,287.13L573.31,287.31L586.46,287.46L599.67,287.67L612.84,287.84L626.01,288.01L639.24,288.24L652.53,288.53L665.69,288.69L678.55,288.55L691.73,288.73L704.82,288.82L717.69,288.69L730.34,288.34L743.18,288.18 M748.90,290.90L755.89,304.89L755.90,317.90L768.97,320.97L773.20,312.20L768.19,310.19L763.29,316.29L771.49,311.49L778.72,334.72L767.66,341.66L751.40,340.40L751.19,330.19L761.07,323.07L756.88,321.88L752.91,314.91L751.04,302.04L750.12,294.12L738.13,289.13L731.17,269.17L711.99,263.99L704.03,253.03L714.01,245.01L714.94,233.94L694.99,230.99L708.99,228.99L699.92,212.92L708.89,209.89L713.74,205.74L712.66,192.66L700.78,192.78L715.90,176.90L717.95,170.95L699.08,154.08L707.33,148.33L714.21,139.21L712.15,125.15L718.01,121.01L718.86,129.86L707.80,150.80L707.72,130.72L697.78,131.78L685.92,121.92L694.01,116.01L697.20,107.20L690.46,108.46L680.48,94.48L688.46,73.46L690.56,67.56L672.55,88.55L664.67,106.67L653.69,113.69L640.68,102.68L641.42,91.42L633.97,83.97L631.77,58.77L623.59,62.59L622.33,34.33L622.22,15.22L611.37,29.37L609.23,22.23L599.99,27.99L595.99,40.99L591.26,58.26L585.63,42.63L568.86,29.86L562.16,17.16L557.50,26.50L547.71,36.71L534.87,6.87L534.70,10.70L523.70,21.70L510.54,28.54L482.15,43.15L468.90,33.90L461.99,51.99L456.95,44.95L443.69,56.69L439.29,83.29L431.20,104.20L427.30,76.30L417.56,51.56L414.69,52.69L417.75,42.75L403.68,31.68L425.91,50.91L420.01,40.01L429.17,42.17L437.34,57.34L441.36,57.36 M443.72,60.72 M445.04,55.04L432.32,55.32 M419.20,49.20 M405.07,54.07 M404.82,66.82 M393.36,75.36 M391.67,92.67L378.57,92.57 M391.73,92.73 M392.81,100.81 M391.73,105.73L404.75,105.75 M405.10,101.10L396.13,104.13L375.17,95.17L371.27,96.27L371.34,110.34L378.48,111.48L378.50,119.50L376.37,125.37L397.19,131.19 M404.31,131.31L417.24,131.24 M417.52,142.52L420.48,124.48L420.56,115.56L406.70,119.70L420.72,111.72L428.61,99.61L424.38,92.38L435.32,81.32L430.44,84.44L436.59,74.59L433.80,66.80L424.79,64.79L423.65,52.65L422.37,42.37L433.14,28.14L423.00,24.00L416.80,9.80 M418.39,15.39L431.33,15.33L444.25,15.25L457.17,15.17L470.28,15.28 M458.02,10.02 M457.95,2.95L470.91,2.91L483.72,2.72 M483.21,9.21 M484.35,49.35 M471.38,62.38 M457.83,74.83 M443.97,66.97 M420.34,68.34L404.52,66.52L401.57,56.57L415.52,46.52L405.40,40.40L388.35,34.35 M394.27,8.27L412.14,5.14L426.30,9.30L424.43,3.43L435.53,7.53L443.86,14.86L448.80,25.80L452.08,40.08L462.16,13.16L466.88,14.88L479.87,12.87L480.84,26.84L479.93,28.93L466.05,40.05L458.18,37.18L462.06,47.06L471.16,63.16L474.92,68.92L462.71,73.71L463.60,83.60L483.58,99.58L469.64,110.64L454.86,106.86 M459.49,102.49 M483.38,106.38 M482.32,92.32 M496.40,100.40 M508.96,105.96L495.93,105.93L482.74,105.74L469.65,105.65L456.52,105.52L443.47,105.47L430.43,105.43 M432.68,101.68L419.50,101.50 M418.40,113.40 M392.84,119.84L405.78,119.78L418.92,119.92L431.91,119.91L444.75,119.75L457.88,119.88L470.85,119.85L484.23,120.23L497.34,120.34L510.32,120.32L523.23,120.23L536.36,120.36L549.34,120.34L562.15,120.15L574.72,119.72L587.58,119.58L600.32,119.32L613.17,119.17L626.00,119.00L638.85,118.85L651.62,118.62 M653.18,114.18 M651.25,105.25L664.36,92.36 M665.86,93.86L652.77,93.77L639.67,93.67L626.46,93.46L613.21,93.21L600.08,93.08L587.08,93.08L573.93,92.93L560.73,92.73L547.86,92.86L534.98,92.98L521.87,92.87L508.77,92.77 M534.56,105.56L547.51,105.51L560.79,105.79L574.11,106.11L587.24,106.24L600.17,106.17 M598.55,107.55L593.51,107.51L591.38,99.38L609.25,90.25L606.34,77.34L587.52,63.52L615.58,49.58L625.53,35.53L610.40,45.40L609.57,52.57L628.75,72.75L639.81,69.81L643.75,55.75L652.76,54.76 M664.74,53.74 M665.96,54.96L653.20,68.20L640.18,81.18L626.95,93.95 M626.50,100.50 M627.17,107.17L639.98,106.98L652.93,106.93L665.98,106.98 M665.29,100.29L652.50,100.50 M652.67,93.67L665.61,80.61 M665.35,80.35L652.54,80.54L639.42,80.42L626.33,80.33L613.29,80.29L600.40,80.40L587.48,80.48L574.95,80.95L561.95,80.95L548.68,80.68L535.87,80.87 M562.06,75.06L575.00,75.00 M573.60,79.60L560.68,92.68 M560.20,97.20L563.17,95.17L558.88,97.88L569.87,97.87L576.07,84.07L588.40,100.40L582.27,110.27L585.33,119.33L583.28,122.28L576.19,136.19L575.18,140.18 M578.20,121.20L593.16,122.16 M588.94,114.94 M584.19,92.19L584.03,115.03L597.95,95.95L600.88,102.88L632.99,95.99L647.90,82.90L652.81,91.81L658.59,114.59L679.51,100.51L688.63,104.63L712.68,80.68 M704.08,100.08L690.92,99.92 M691.77,113.77 M692.59,120.59L679.90,120.90 M664.75,131.75 M652.86,132.86 M651.99,125.99 M643.12,104.12L636.11,98.11L631.29,84.29L627.50,59.50L637.60,45.60 M626.38,48.38 M626.04,54.04L613.19,54.19L600.29,54.29L587.44,54.44L574.47,54.47L561.40,54.40L548.30,54.30 M535.17,35.17 M534.98,27.98L548.21,28.21L561.48,28.48 M562.52,25.52L572.31,28.31L586.29,34.29L586.30,45.30L580.31,48.31L584.21,56.21L568.35,77.35L564.63,88.63L558.82,96.82L552.88,110.88L550.98,119.98L542.15,134.15L530.03,137.03L530.00,146.00L524.99,155.99L521.84,168.84L531.84,165.84L527.79,179.79L535.77,183.77L544.79,185.79L519.77,195.77L490.88,205.88L483.94,216.94L485.96,223.96L470.94,230.94L468.67,244.67L474.64,249.64 M484.33,244.33L497.32,244.32L510.57,244.57L523.56,244.56 M522.95,249.95L509.86,262.86L496.39,275.39L483.05,288.05L469.76,300.76L456.57,313.57 M457.45,301.45L444.37,314.37L431.22,327.22 M431.36,340.36 M444.48,334.48L431.70,334.70L418.99,334.99L405.82,334.82L392.90,334.90L379.86,334.86L366.79,334.79L353.60,334.60L340.33,334.33L327.40,334.40L314.62,334.62L301.52,334.52L288.12,334.12L274.94,333.94 M274.54,339.54L287.60,339.60L300.74,339.74L313.78,339.78L326.82,339.82L339.84,339.84L353.18,340.18L366.23,340.23L379.42,340.42L392.79,340.79L405.83,340.83L418.72,340.72L431.84,340.84L445.22,341.22L458.59,341.59L471.73,341.73L484.76,341.76L497.72,341.72L510.48,341.48L523.29,341.29L536.11,341.11L549.18,341.18L561.85,340.85L574.62,340.62L587.32,340.32L599.91,339.91L612.67,339.67L625.72,339.72L638.67,339.67L651.50,339.50L664.54,339.54L677.45,339.45L690.18,339.18L702.94,338.94 M704.72,334.72L691.70,347.70L678.56,360.56L665.44,373.44 M678.01,373.01L691.20,360.20L704.48,347.48 M717.05,360.05L703.98,359.98L691.07,360.07L678.28,360.28L665.42,360.42L652.40,360.40L639.48,360.48L626.42,360.42L613.18,360.18L600.08,360.08L586.93,359.93L573.85,359.85L560.78,359.78L547.87,359.87L534.80,359.80 M537.14,362.14L549.98,348.98L562.42,335.42L574.85,321.85L587.36,308.36L599.89,294.89L612.86,281.86L625.86,268.86 M627.63,296.63L640.64,296.64L653.33,296.33L666.11,296.11L678.92,295.92L692.04,296.04 M690.92,294.92L677.63,307.63L664.62,320.62L651.72,333.72L638.76,346.76L625.63,359.63L612.32,372.32 M612.58,359.58L625.51,346.51L638.64,333.64 M639.71,321.71L626.78,321.78L613.73,321.73L600.78,321.78L587.59,321.59L574.13,321.13L560.98,320.98L548.28,321.28L535.42,321.42L522.55,321.55L509.92,321.92L497.32,322.32 M496.92,334.92 M482.88,333.88L495.77,320.77L509.17,308.17L522.44,295.44 M524.21,310.21L537.16,297.16L549.52,283.52L562.05,270.05L574.70,256.70L587.42,243.42 M587.86,236.86L575.01,237.01L562.30,237.30L549.10,237.10L535.96,236.96L522.71,236.71L509.46,236.46L496.34,236.34L483.18,236.18L470.16,236.16L457.23,236.23L444.21,236.21L431.34,236.34L418.55,236.55L405.49,236.49L392.43,236.43L379.55,236.55L366.58,236.58L353.84,236.84L341.07,237.07L328.35,237.35L315.35,237.35L302.13,237.13 M301.80,249.80 M313.96,255.96L327.12,256.12 M328.10,250.10L341.26,250.26L354.26,250.26 M353.23,249.23L366.06,236.06 M352.94,235.94 M352.82,229.82 M353.85,243.85 M352.33,255.33 M353.17,262.17 M331.13,264.13L326.05,250.05 M327.15,249.15 M327.94,230.94 M365.83,222.83 M380.26,218.26 M391.47,248.47 M365.84,281.84L352.90,281.90L340.19,282.19L327.48,282.48L314.66,282.66L301.60,282.60 M300.79,294.79 M289.03,286.03L274.20,287.20L270.30,284.30L262.30,282.30L267.48,292.48L253.68,296.68L239.83,296.83L225.98,303.98L218.03,304.03L204.28,302.28L194.62,298.62L189.87,298.87L182.00,298.00L166.83,294.83L158.85,288.85L149.71,292.71L143.39,287.39L139.93,293.93L127.60,272.60L119.31,286.31L107.13,296.13L102.20,285.20L94.43,281.43L102.49,266.49 M106.69,279.69L108.77,293.77L129.83,288.83 M120.73,289.73 M120.32,276.32L133.33,276.33L146.20,276.20 M116.34,274.34L117.04,282.04L130.84,281.84L141.79,272.79L158.72,272.72L169.65,273.65L183.75,274.75L188.83,278.83L178.84,284.84L175.91,293.91L193.16,310.16L183.05,323.05L185.96,320.96L199.00,315.00L210.22,308.22 M198.08,309.08 M197.26,301.26L210.36,301.36L223.15,301.15L236.18,301.18L249.53,301.53L262.72,301.72L275.57,301.57L288.10,301.10L300.90,300.90L314.05,301.05L327.24,301.24 M326.63,300.63L313.72,313.72 M314.06,308.06L327.12,308.12L339.86,307.86L352.94,307.94L366.33,308.33L379.67,308.67L392.46,308.46L405.31,308.31L418.46,308.46L431.80,308.80L444.79,308.79L457.79,308.79L470.67,308.67L483.69,308.69L496.75,308.75L509.53,308.53L522.53,308.53L535.33,308.33L548.17,308.17L561.05,308.05L574.07,308.07L587.29,308.29L600.30,308.30L613.30,308.30L626.42,308.42L639.24,308.24L652.48,308.48L665.73,308.73L678.79,308.79 M687.63,309.63L676.53,323.53L689.47,328.47 M691.92,321.92L678.65,334.65L665.44,347.44L652.49,360.49L639.86,373.86 M652.22,373.22L665.38,360.38L678.28,347.28 M704.64,329.64L707.86,323.86L720.87,305.87L732.68,303.68L735.54,289.54L736.66,272.66L719.48,309.48L712.42,319.42L711.63,340.63L702.63,352.63L680.60,349.60L701.38,357.38L711.34,350.34L716.52,338.52L734.76,329.76L749.63,310.63L740.63,303.63L733.79,294.79L728.93,272.93L726.88,246.88L730.70,232.70L726.54,228.54L743.33,222.33L740.14,226.14L721.04,233.04L705.20,252.20L699.17,269.17L689.08,283.08L682.87,281.87L671.76,254.76L659.59,277.59L638.39,306.39L633.32,304.32L630.42,308.42L637.54,303.54 M638.75,294.75L626.08,308.08L613.36,321.36L600.76,334.76L587.99,347.99L575.20,361.20 M587.49,386.49L600.71,386.71 M600.78,399.78 M599.04,407.04L599.14,421.14L600.33,428.33L600.54,440.54 M586.60,443.60L599.44,443.44L612.51,443.51L625.53,443.53L638.57,443.57L651.98,443.98L664.96,443.96L677.89,443.89L691.11,444.11L704.47,444.47 M704.05,451.05L691.16,464.16 M703.72,463.72L690.86,463.86L677.93,463.93L664.78,463.78L651.85,463.85 M665.07,451.07L678.29,451.29L691.30,451.30L704.30,451.30 M705.35,458.35L692.20,458.20L678.92,457.92L665.53,457.53L652.22,457.22L639.28,457.28L626.44,457.44L613.65,457.65L601.04,458.04L588.20,458.20 M587.78,470.78L600.79,470.79L613.94,470.94L627.20,471.20L640.41,471.41L653.43,471.43L666.15,471.15L679.04,471.04L691.81,470.81L704.44,470.44 M705.76,465.76 M729.92,456.92 M730.07,451.07 M742.74,443.74L755.78,443.78L768.86,443.86L781.79,443.79L794.84,443.84 M795.20,438.20 M795.12,438.12 M795.84,431.84L782.74,431.74L769.85,431.85L757.15,432.15L744.13,432.13 M742.72,437.72L755.56,437.56 M757.10,439.10 M756.62,464.62 M756.69,483.69L769.65,483.65L782.69,483.69L795.46,483.46 M793.83,488.83 M796.20,491.20 M795.67,496.67 M794.63,502.63 M795.36,503.36 M795.01,509.01L782.40,509.40L769.75,509.75L757.00,510.00 M750.26,511.26L742.10,552.10L738.24,531.24L730.43,533.43L721.53,529.53L715.63,495.63L729.57,488.57L727.49,501.49L730.32,543.32L732.14,526.14L746.04,522.04L746.15,492.15L750.36,482.36L776.46,484.46L776.37,478.37L753.32,486.32L731.29,492.29L745.04,497.04L725.95,508.95L722.04,516.04L712.00,529.00L721.98,542.98L733.97,547.97L724.88,561.88L735.74,548.74L736.63,563.63L747.51,560.51L756.30,562.30L766.24,552.24L779.38,526.38L783.47,521.47L774.29,525.29L779.10,529.10L767.04,533.04L759.98,553.98L771.00,559.00 M755.40,560.40 M756.11,548.11L742.85,547.85L729.57,547.57L716.41,547.41L703.42,547.42 M716.81,560.81 M730.76,574.76 M742.60,586.60L730.06,587.06L717.19,587.19L704.24,587.24L691.35,587.35L678.53,587.53L665.62,587.62L652.54,587.54 M664.30,582.30L660.12,572.12L654.94,566.94L651.75,580.75L656.56,594.56L649.66,601.66L657.64,613.64L647.72,615.72L643.69,627.69 M640.72,621.72L653.49,621.49 M640.28,614.28L653.30,614.30L666.33,614.33L679.23,614.23 M678.41,607.41 M664.80,599.80 M638.69,599.69 M635.41,584.41 M625.36,586.36 M623.63,542.63L632.60,538.60L633.38,524.38L642.34,518.34L641.52,504.52L636.76,490.76 M626.42,509.42L613.47,509.47 M599.37,511.37L612.26,512.26L612.31,500.31L599.36,503.36L598.47,489.47L598.42,475.42 M584.16,480.16L584.35,494.35L584.37,508.37L584.22,522.22 M601.70,524.70L597.82,521.82L606.82,520.82L612.87,518.87L633.00,515.00L636.15,506.15L626.13,508.13L626.10,494.10L626.12,480.12L626.10,466.10L626.13,452.13L627.30,438.30 M633.73,437.73L633.79,451.79 M639.07,416.07L639.11,430.11L640.29,444.29L640.34,458.34L639.22,472.22L635.25,486.25L648.25,485.25L643.37,494.37L656.39,502.39L657.34,517.34 M680.97,503.97L669.98,495.98L671.06,509.06L664.18,504.18L666.27,506.27L674.36,514.36L678.14,517.14L687.23,526.23L690.15,524.15L702.86,522.86L701.82,536.82L703.96,550.96L708.04,549.04L708.14,560.14L717.18,560.18L746.04,570.04L723.34,576.34L714.52,589.52L719.51,594.51L705.49,600.49L715.46,609.46L720.34,612.34L710.04,618.04L723.88,615.88L737.75,620.75L720.71,628.71L701.95,636.95L707.24,647.24L708.46,659.46L707.57,671.57L701.87,681.87L694.66,671.66L702.48,678.48L710.28,697.28L720.15,712.15L722.05,720.05 M718.15,725.15 M718.18,712.18 M702.72,702.72 M703.72,690.72 M704.52,672.52 M717.24,665.24 M691.84,639.84 M690.36,632.36 M679.13,666.13 M679.08,679.08L666.23,679.23L653.35,679.35L640.46,679.46L627.68,679.68 M627.56,673.56 M639.30,685.30 M639.68,691.68 M651.43,697.43 M639.77,704.77L626.65,704.65L613.60,704.60 M626.88,711.88 M625.15,716.15 M651.26,716.26L664.30,716.30 M652.48,711.48 M664.32,690.32L677.45,690.45 M677.90,703.90 M690.83,710.83 M692.03,712.03 M690.66,716.66 M666.54,731.54 M666.36,673.36 M665.93,672.93 M652.75,665.75L639.73,665.73L626.57,665.57L613.77,665.77L600.99,665.99L587.99,665.99L574.90,665.90L561.72,665.72 M562.04,647.04 M521.94,638.94L508.77,638.77L495.48,638.48L482.41,638.41L469.59,638.59L456.70,638.70 M438.59,637.59L438.47,632.47L432.50,618.50L428.68,618.68L433.82,610.82L423.87,607.87L418.01,594.01L403.77,588.77L407.48,588.48L415.29,581.29L419.14,580.14L413.01,569.01L406.16,567.16L400.44,566.44L413.55,558.55L403.43,557.43L414.37,562.37 M405.48,574.48 M392.31,561.31 M433.00,589.00 M443.40,599.40 M431.30,633.30 M405.33,652.33 M380.58,647.58 M379.26,646.26 M379.71,665.71 M378.96,688.96L382.14,677.14L372.33,671.33L359.24,660.24L376.30,663.30L361.09,653.09L360.09,646.09L352.35,639.35L348.36,625.36L339.33,611.33L320.12,608.12L343.01,607.01L341.92,595.92L334.74,584.74L320.99,580.99L324.12,574.12L330.26,561.26L315.33,557.33L303.30,553.30L296.19,546.19L304.22,541.22L289.15,529.15L281.02,526.02L274.87,523.87 M302.90,549.90 M296.83,564.83L293.55,578.55 M300.85,586.85 M314.94,574.94 M341.18,575.18 M314.25,626.25 M289.08,614.08 M288.94,607.94 M287.88,606.88 M263.31,601.31 M248.40,603.40L246.30,617.30L251.39,631.39L254.43,645.43L246.42,660.42L250.62,683.62L252.67,697.67 M249.60,691.60 M237.25,693.25L228.09,688.09L231.87,701.87L233.83,715.83 M237.03,718.03 M261.66,729.66 M263.58,725.58 M289.45,738.45 M288.77,743.77 M295.53,751.53L294.70,765.70 M275.76,769.76L262.87,769.87 M259.62,788.62L254.41,773.41L261.31,766.31L251.37,764.37L243.44,738.44L236.36,694.36L221.45,719.45L214.78,696.78L215.84,674.84L210.81,665.81L196.92,673.92L191.00,689.00L185.88,678.88L177.85,673.85L163.96,680.96L150.03,667.03L135.80,658.80L135.45,672.45L134.47,664.47 M114.36,620.36L109.32,599.32L98.46,594.46L92.56,599.56L78.48,589.48L77.37,585.37 M80.20,587.20L93.31,587.31 M94.61,575.61 M80.91,561.91 M81.76,549.76 M82.01,537.01 M80.80,511.80L79.60,497.60L76.48,490.48 M80.92,483.92L93.72,483.72 M88.56,466.56L90.55,452.55 M80.58,470.58L67.61,470.61 M65.81,455.81 M68.65,445.65 M47.55,465.55L31.74,440.74L40.79,426.79L54.69,419.69L61.66,405.66L62.74,391.74L48.76,387.76L61.57,373.57L80.23,367.23L76.14,353.14L77.19,339.19L86.41,328.41L98.50,322.50L91.55,310.55L82.73,303.73L68.97,308.97L54.99,318.99L41.09,334.09L24.24,348.24L17.27,364.27 M6.17,402.17L9.18,388.18L11.24,374.24L25.15,360.15L40.06,346.06L47.02,332.02L57.89,318.89L72.75,304.75 M78.49,320.49L83.58,319.58L97.57,327.57 M94.56,328.56L107.84,328.84L120.98,328.98L133.98,328.98L146.83,328.83 M145.37,340.37L158.21,340.21L171.16,340.16L184.20,340.20 M184.43,327.43L197.63,327.63L210.80,327.80L223.89,327.89L236.84,327.84L249.99,327.99L263.03,328.03L275.94,327.94L288.76,327.76L301.59,327.59L314.27,327.27L327.50,327.50L340.61,327.61L353.75,327.75L367.03,328.03L380.07,328.07L393.06,328.06L405.72,327.72L418.72,327.72L431.98,327.98L444.91,327.91L458.03,328.03L470.78,327.78L483.55,327.55L496.34,327.34L509.14,327.14L522.23,327.23L535.37,327.37L548.64,327.64L561.91,327.91L575.07,328.07L587.83,327.83L600.73,327.73L613.36,327.36L625.77,326.77L638.41,326.41L651.44,326.44L664.65,326.65L677.86,326.86L691.00,327.00L703.97,326.97L716.89,326.89 M730.20,321.20 M731.62,296.62 M743.79,275.79 M703.84,274.84 M692.22,283.22L679.36,283.36L666.44,283.44 M677.91,294.91 M650.69,320.69L654.69,313.69L670.56,305.56L673.56,292.56L679.72,287.72L683.74,283.74L698.61,273.61L698.64,265.64L720.70,254.70L727.80,246.80L734.95,242.95L728.05,244.05L723.10,250.10L715.00,252.00L708.94,246.94L707.67,220.67L698.27,216.27L696.09,225.09L685.16,252.16L680.32,247.32L677.57,267.57L666.95,266.95L664.08,240.08L649.88,256.88L656.57,220.57L641.52,225.52L635.79,230.79L626.94,241.94L613.81,264.81L604.69,264.69L594.74,281.74L591.92,293.92L586.12,292.12L573.99,312.99L567.76,317.76L572.65,309.65L587.56,289.56L599.40,276.40L606.20,265.20L620.24,251.24L625.27,237.27L640.39,224.39L641.40,217.40L629.55,206.55L637.59,199.59L623.72,192.72L602.93,181.93L617.31,174.31L617.40,165.40L623.53,155.53L644.72,140.72L636.84,136.84L646.03,132.03L646.08,125.08L650.86,118.86L664.56,110.56L664.31,101.31L651.14,96.14L677.13,88.13L674.94,70.94L696.94,62.94L701.17,52.17L694.37,61.37L685.30,76.30L682.19,73.19L669.92,95.92L668.48,130.48L657.22,123.22L649.18,150.18L645.16,130.16L640.18,128.18L636.24,122.24L630.21,112.21L623.25,117.25L624.03,90.03L618.04,77.04L613.29,89.29L609.40,69.40L609.36,61.36L598.18,76.18L591.01,66.01L587.90,68.90L583.77,23.77L575.95,38.95L571.02,47.02L560.33,54.33L553.76,75.76L552.98,62.98L543.11,68.11L537.35,80.35L527.49,100.49L517.55,107.55L507.47,122.47L503.50,75.50L503.69,49.69L493.72,65.72L482.64,67.64L473.66,62.66L473.56,94.56L459.75,108.75L452.94,106.94L447.12,115.12L438.30,132.30L432.11,143.11L427.88,159.88L421.83,152.83L413.86,123.86L404.66,122.66L402.95,152.95L393.06,144.06L383.06,150.06L377.95,143.95L374.74,119.74L373.76,94.76L369.87,74.87L358.68,92.68L349.27,57.27L347.01,54.01L330.00,44.00L317.98,79.98L310.00,80.00L296.08,71.08L290.15,68.15L288.23,83.23L278.27,113.27L268.43,136.43L257.69,107.69L248.67,151.67L240.57,142.57L237.40,146.40L230.26,162.26L217.07,165.07L213.97,159.97L209.06,161.06L198.14,167.14L183.03,139.03L176.89,151.89L173.60,171.60L160.29,170.29L144.94,168.94L132.83,167.83L126.93,163.93L132.97,162.97 M180.26,148.26L198.05,119.05L205.96,112.96L189.01,112.01L183.17,114.17L193.23,98.23L188.18,91.18L185.05,89.05L197.08,74.08L199.29,60.29L182.52,65.52L198.79,55.79L210.81,52.81 M221.86,65.86 M231.20,56.20L206.29,70.29L199.69,75.69L197.95,89.95 M196.83,86.83 M209.18,105.18 M210.53,106.53L223.11,106.11 M210.27,113.27 M223.57,132.57 M236.29,93.29 M225.77,86.77L241.96,84.96L232.08,94.08L219.07,79.07L211.10,70.10L200.26,54.26L199.54,47.54L191.62,35.62 M183.48,66.48 M229.69,30.69L234.57,44.57L237.73,36.73L248.73,50.73L250.66,59.66L240.88,70.88L249.58,80.58L260.37,90.37L251.31,97.31L253.29,111.29L254.28,127.28L244.43,132.43L243.36,139.36L234.41,145.41L235.57,155.57L227.51,169.51L209.65,180.65L206.70,190.70 M184.22,152.22 M276.05,172.05 M315.23,185.23 M276.68,224.68 M277.16,232.16 M276.32,237.32 M262.61,249.61L249.50,249.50 M228.68,258.68L225.76,253.76L231.81,257.81L247.95,256.95L241.02,237.02L242.20,246.20L249.61,265.61L231.11,272.11L236.52,282.52L240.90,274.90L254.13,285.13L269.20,288.20L262.91,308.91L266.64,312.64L260.42,322.42L254.12,328.12L255.80,333.80L263.46,357.46L266.20,353.20L275.03,341.03L278.90,333.90L290.06,331.06L285.40,364.40L266.55,377.55L257.43,391.43L237.42,400.42L234.68,402.68 M264.14,394.14L277.14,394.14L289.99,393.99L302.86,393.86L315.76,393.76L328.59,393.59L340.92,392.92L353.21,392.21L365.64,391.64L378.16,391.16L390.81,390.81L404.13,391.13 M404.41,385.41L391.59,385.59L378.84,385.84L366.09,386.09L353.39,386.39L340.75,386.75L327.80,386.80L314.85,386.85L301.92,386.92L288.97,386.97L275.99,386.99 M289.48,374.48L302.53,374.53L315.53,374.53L328.48,374.48L341.37,374.37L353.94,373.94L366.70,373.70L379.43,373.43L392.31,373.31L405.42,373.42 M406.48,367.48 M406.42,354.42L393.71,367.71L381.15,381.15L368.47,394.47 M379.74,392.74L367.05,406.05 M359.41,413.41L355.58,427.58L350.58,432.58L353.36,447.36L357.19,459.19 M365.82,456.82 M366.39,451.39 M367.31,465.31 M366.21,477.21 M366.03,483.03 M365.57,489.57 M418.54,431.54 M418.42,425.42 M418.19,418.19L431.42,418.42L444.68,418.68L458.00,419.00 M484.13,419.13L497.13,419.13L509.85,418.85L522.86,418.86 M522.94,412.94L509.69,425.69 M511.13,427.13L524.11,427.11 M522.73,425.73 M521.80,430.80L508.68,430.68L495.82,430.82 M496.67,412.67L509.43,412.43L522.17,412.17 M522.04,405.04L508.81,404.81 M509.28,412.28L522.13,399.13 M522.70,399.70 M530.07,390.07L529.97,403.97L530.83,417.83L525.86,431.86L531.12,433.12L532.14,447.14 M522.04,438.04 M520.41,436.41 M549.55,387.55L562.34,387.34 M536.68,380.68L549.31,380.31L562.00,380.00L574.79,379.79L587.65,379.65L600.40,379.40L613.27,379.27L625.90,378.90L638.86,378.86L652.23,379.23L665.31,379.31L678.26,379.26L691.04,379.04L703.74,378.74L716.26,378.26L729.05,378.05L741.92,377.92L754.92,377.92L767.99,377.99 M773.13,386.13L781.20,377.20L778.91,395.91L781.64,400.64L787.42,398.42L787.12,412.12L786.80,425.80L786.46,439.46L786.20,453.20L786.03,467.03L785.90,480.90L771.06,497.06L787.40,505.40L764.55,510.55L769.43,522.43L769.42,536.42 M768.45,534.45L755.54,534.54 M749.44,538.44L754.44,553.44L755.26,538.26L755.35,532.35L767.58,523.58L786.49,545.49 M794.08,541.08 M795.19,542.19 M795.36,548.36 M794.12,554.12 M795.30,555.30 M795.16,561.16 M795.62,568.62 M795.98,568.98 M795.01,574.01 M794.06,580.06 M796.11,582.11 M796.35,588.35 M794.79,593.79 M794.99,593.99 M794.48,599.48 M795.71,607.71 M796.25,608.25 M794.21,612.21 M795.40,620.40 M795.99,620.99 M795.41,626.41 M795.01,633.01 M796.39,634.39 M795.73,639.73 M794.73,645.73 M795.14,646.14 M795.27,652.27 M795.69,659.69 M796.33,660.33 M794.94,664.94 M795.34,672.34 M795.58,672.58 M795.71,678.71 M794.88,684.88 M795.59,685.59 M796.12,692.12 M794.60,697.60 M796.26,699.26 M795.89,704.89 M795.58,711.58 M796.19,712.19 M794.29,716.29 M795.56,724.56 M795.69,724.69 M796.30,731.30 M795.28,737.28 M795.93,737.93 M795.02,743.02 M795.65,750.65 M796.75,751.75 M795.69,756.69 M795.27,763.27 M796.78,764.78 M795.43,769.43 M794.56,775.56 M794.94,775.94 M795.32,782.32 M794.77,788.77L781.51,801.51 M786.51,797.51L790.92,783.92L789.20,770.20L787.42,756.42L791.51,742.51L789.48,728.48L788.20,714.20L790.20,700.20L791.41,686.41L789.41,672.41L787.50,658.50L788.53,644.53L788.63,630.63L787.85,616.85L788.15,603.15L787.87,588.87L787.75,574.75L787.52,560.52L787.21,546.21L788.13,532.13 M795.04,529.04 M796.49,530.49 M795.23,535.23 M794.77,521.77L782.36,522.36L769.73,522.73L756.83,522.83L744.07,523.07 M744.18,517.18 M743.78,496.78L756.76,496.76L769.94,496.94 M757.55,491.55 M756.95,490.95L743.95,490.95 M743.77,481.77L757.50,476.50L759.22,468.22L750.92,476.92L741.55,487.55L748.29,501.29L728.21,510.21L745.25,516.25L752.20,524.20L724.17,530.17L737.10,533.10L739.13,544.13L737.17,555.17 M742.90,554.90 M743.81,555.81 M729.75,534.75 M716.27,495.27 M730.19,483.19 M678.05,490.05L664.98,489.98 M677.90,489.90 M625.91,521.91 M625.66,534.66 M586.75,430.75L599.92,430.92L612.99,430.99L626.10,431.10L639.39,431.39L652.57,431.57L665.71,431.71L678.71,431.71L691.74,431.74L704.70,431.70L717.51,431.51 M745.28,407.28L758.06,407.06L770.83,406.83L783.57,406.57L796.33,406.33 M795.82,399.82 M795.19,399.19 M795.79,392.79L782.81,392.81L769.47,392.47L756.20,392.20L743.19,392.19L730.24,392.24 M779.78,396.78L786.64,382.64L774.76,378.76L775.94,366.94L785.00,362.00L787.00,344.00L786.91,329.91L788.83,315.83L786.77,301.77L786.69,287.69L786.77,273.77L786.89,259.89L789.07,246.07L787.31,232.31L787.22,218.22L787.38,204.38L788.29,190.29L788.26,176.26L789.29,162.29L787.44,148.44L791.30,134.30L791.20,120.20L789.14,106.14L791.13,92.13L787.95,77.95L787.76,63.76L786.71,49.71L786.57,35.57L786.33,21.33L790.33,7.33 M794.27,8.27 M794.59,8.59 M796.58,3.58 M794.31,14.31 M794.77,21.77 M795.45,22.45 M795.91,28.91 M795.15,35.15 M795.75,35.75 M795.17,41.17 M795.37,48.37 M795.80,48.80 M794.04,53.04 M795.18,61.18 M795.22,61.22 M796.16,68.16 M795.44,74.44 M795.54,74.54 M795.35,80.35 M794.91,86.91 M797.35,89.35 M794.93,92.93 M795.57,100.57 M796.48,101.48 M795.44,106.44 M793.61,111.61 M795.92,113.92 M795.55,119.55 M796.16,127.16 M796.21,127.21 M797.18,134.18 M794.54,138.54 M795.94,139.94 M795.67,145.67 M795.55,152.55 M795.96,152.96 M795.60,158.60 M794.35,164.35 M795.71,165.71 M796.42,172.42 M794.64,177.64 M797.14,180.14 M795.66,184.66 M793.67,189.67 M795.34,191.34 M794.70,196.70 M794.41,203.41 M796.08,205.08 M795.16,210.16 M795.20,217.20 M796.26,218.26 M794.88,222.88 M794.72,229.72 M796.60,231.60 M793.64,234.64 M795.04,243.04 M796.54,244.54 M796.00,250.00 M794.67,255.67 M794.84,255.84 M795.71,262.71 M794.80,268.80 M796.05,270.05 M795.81,275.81 M793.65,280.65 M796.22,283.22 M796.58,289.58 M795.79,295.79 M796.28,296.28 M794.32,300.32 M794.74,307.74 M795.62,308.62 M795.94,314.94 M795.50,321.50 M795.78,321.78 M795.45,327.45 M795.14,334.14 M795.24,334.24 M794.87,339.87 M794.65,346.65 M795.53,347.53 M795.46,373.46 M795.48,373.48 M795.81,379.81 M794.99,385.99 M795.79,386.79 M796.12,413.12 M796.35,413.35 M794.67,417.67L781.91,417.91L769.32,418.32L756.62,418.62L743.85,418.85L731.18,419.18L718.11,419.11L705.29,419.29L692.48,419.48L679.72,419.72L666.76,419.76L653.73,419.73L640.59,419.59L627.22,419.22L613.84,418.84L600.72,418.72L587.83,418.83 M625.42,398.42 M535.00,347.00L548.23,334.23L561.03,321.03L573.62,307.62L586.12,294.12L599.01,281.01L612.07,268.07L625.31,255.31L638.49,242.49L651.51,229.51 M652.81,223.81L665.67,223.67 M656.97,219.97L654.25,208.25L667.24,200.24 M678.39,197.39 M677.62,183.62L664.59,183.59L651.74,183.74L638.68,183.68L625.45,183.45L612.39,183.39L599.46,183.46L586.87,183.87L574.12,184.12L561.14,184.14L548.18,184.18L535.53,184.53L522.55,184.55L509.52,184.52L496.44,184.44L483.30,184.30 M489.54,194.54L491.58,191.58L502.75,195.75L516.85,211.85L512.97,221.97L505.00,235.00L498.65,248.65L504.42,252.42 M510.32,250.32L523.39,250.39L536.60,250.60L549.55,250.55L562.35,250.35L575.25,250.25L587.99,249.99L600.89,249.89L613.85,249.85L626.77,249.77L639.45,249.45L652.71,249.71L666.00,250.00 M652.80,256.80 M639.19,243.19 M647.44,223.44L639.30,194.30L639.29,188.29L630.30,187.30L641.26,184.26L647.46,170.46 M639.54,178.54 M639.05,178.05 M638.35,190.35 M640.38,192.38 M651.84,196.84L639.25,197.25L626.43,197.43L613.46,197.46L600.74,197.74L588.01,198.01L575.04,198.04 M570.78,196.78L575.62,183.62L578.35,188.35L596.23,180.23L585.10,165.10L596.00,142.00L622.07,125.07L607.20,135.20L597.07,150.07L590.75,159.75L568.33,186.33L558.05,185.05L548.96,183.96L559.00,170.00 M561.38,171.38L548.30,184.30L535.56,197.56 M523.56,198.56L510.97,211.97L498.07,225.07 M496.51,230.51L483.74,230.74L470.82,230.82L457.87,230.87 M457.73,236.73L444.61,249.61L431.63,262.63 M432.72,270.72L445.37,270.37L457.90,269.90L470.51,269.51 M482.79,274.79L495.65,261.65L508.29,248.29L521.17,235.17L534.39,222.39 M535.85,210.85L548.79,197.79 M549.05,198.05L536.07,198.07L522.97,197.97L509.85,197.85 M510.73,192.73L523.57,192.57 M521.86,183.86L508.69,196.69L495.70,209.70 M496.36,217.36L509.28,217.28L522.01,217.01L534.94,216.94L547.90,216.90L560.65,216.65L573.53,216.53L586.67,216.67L599.57,216.57 M587.70,230.70 M573.48,222.48 M574.67,210.67L561.72,223.72L548.59,236.59 M549.37,244.37 M548.37,249.37L535.47,262.47L522.70,275.70L509.99,288.99L496.96,301.96 M494.90,306.90L508.25,294.25L521.50,281.50L534.48,268.48L547.44,255.44 M548.81,269.81 M521.17,274.17L534.38,274.38L547.82,274.82L561.01,275.01L573.85,274.85L586.85,274.85 M574.41,256.41L561.26,256.26L548.41,256.41L535.33,256.33L522.21,256.21L509.45,256.45 M508.73,235.73 M524.23,232.23L537.12,232.12L549.67,231.67L562.11,231.11 M561.03,210.03 M555.21,209.21L562.22,195.22L561.12,178.12L589.09,176.09L576.83,170.83L585.60,156.60L597.31,154.31L604.08,151.08L595.01,145.01L619.93,130.93L611.02,127.02L605.30,137.30L604.67,143.67L600.01,139.01L588.13,156.13L565.39,169.39L557.44,171.44L550.38,160.38L536.20,180.20 M534.98,177.98L522.03,178.03L509.04,178.04 M510.78,159.78L497.28,159.28L483.74,158.74L470.10,158.10L456.55,157.55L443.33,157.33L430.23,157.23L417.05,157.05L403.99,156.99L390.89,156.89 M391.60,157.60 M393.51,153.51 M379.47,178.47 M378.66,125.66 M365.64,86.64 M367.20,81.20 M419.37,75.37 M445.07,42.07 M431.56,28.56 M419.11,23.11 M418.97,15.97 M443.63,21.63 M393.08,3.08L380.25,3.25 M367.04,16.04 M275.87,54.87 M274.53,60.53 M248.88,60.88 M249.25,54.25 M274.55,105.55 M275.44,113.44 M299.91,104.91 M303.10,102.10 M443.90,131.90L456.64,131.64 M469.67,125.67 M458.40,153.40 M444.19,165.19 M443.21,177.21 M445.01,192.01 M431.96,197.96 M457.40,223.40L470.11,210.11L482.81,196.81 M470.40,197.40 M470.86,191.86 M484.14,211.14 M508.50,203.50L521.64,203.64L535.09,204.09L548.20,204.20 M548.79,191.79L561.73,191.73 M561.55,178.55 M547.62,164.62 M542.47,184.47L547.51,175.51L532.47,152.47L543.36,138.36 M535.38,132.38 M547.75,125.75 M560.34,111.34L570.33,97.33 M561.28,106.28 M601.05,81.05 M599.75,66.75L612.82,66.82L625.97,66.97L639.04,67.04L651.97,66.97 M656.63,78.63L663.55,68.55L656.53,67.53L672.55,60.55L666.49,86.49L661.45,69.45L655.14,69.14L650.08,35.08L642.91,57.91L642.60,29.60L634.48,44.48L629.72,22.72L616.78,8.78L606.57,10.57L598.17,22.17L587.02,16.02L579.01,6.01L573.11,9.11L562.05,4.05L547.91,10.91L551.66,9.66 M546.83,7.83 M549.33,3.33L536.19,3.19 M548.77,15.77L561.93,15.93L574.86,15.86L587.73,15.73L600.60,15.60L613.66,15.66 M612.62,8.62L599.79,8.79 M601.09,3.09 M601.12,16.12 M600.53,22.53 M600.45,28.45L613.30,28.30L626.22,28.22L638.95,27.95L651.56,27.56 M652.10,22.10 M652.56,15.56L665.70,15.70 M652.44,2.44L639.64,2.64L626.66,2.66 M626.51,35.51 M625.45,40.45 M627.46,62.46 M639.42,74.42 M639.36,87.36 M617.30,103.30L625.70,102.70L623.82,88.82L610.74,80.74L630.74,70.74L612.92,67.92L604.26,50.26L602.43,36.43 M601.39,29.39 M587.86,41.86 M587.27,54.27 M588.53,62.53 M574.76,22.76 M522.04,22.04 M497.02,140.02 M586.84,157.84 M586.54,164.54 M586.00,170.00 M588.36,179.36 M599.94,183.94 M587.97,191.97 M574.39,204.39L587.50,204.50L600.96,204.96L614.22,205.22L627.13,205.13 M626.32,217.32L613.07,230.07L600.28,243.28 M600.61,256.61 M627.59,218.59L640.40,218.40L653.23,218.23 M653.10,218.10 M652.52,204.52 M651.53,203.53 M703.81,201.81L698.90,189.90L712.67,186.67L705.50,189.50L725.44,201.44L733.49,194.49L728.61,199.61L716.87,209.87 M715.59,212.59 M703.93,196.93 M719.29,138.29L722.44,124.44 M678.10,67.10 M675.10,65.10L673.95,51.95L690.76,34.76L687.69,39.69L679.57,32.57L674.44,16.44L676.45,34.45L688.40,24.40 M677.64,40.64L664.71,40.71L651.88,40.88 M665.73,48.73 M703.62,47.62 M703.65,53.65 M600.13,139.13 M599.53,151.53 M472.01,238.01L458.91,250.91L446.05,264.05L433.02,277.02L419.66,289.66L406.25,302.25 M431.20,275.20L444.27,275.27L457.23,275.23L470.26,275.26L483.49,275.49L496.65,275.65 M497.33,289.33L484.56,302.56 M471.50,328.50 M469.82,333.82 M471.44,349.44L471.22,363.22L472.04,377.04L469.96,390.96 M471.25,393.25 M457.10,366.10L443.99,365.99L430.92,365.92L417.75,365.75L404.78,365.78L391.91,365.91L378.84,365.84L365.58,365.58L352.23,365.23L339.33,365.33L326.20,365.20L313.08,365.08L300.14,365.14L287.01,365.01 M287.97,359.97L300.81,359.81L313.65,359.65L326.69,359.69L339.83,359.83 M327.11,327.11 M326.56,294.56 M327.62,288.62 M315.14,276.14L302.43,276.43L289.71,276.71 M300.11,268.11L313.15,268.15 M313.53,274.53 M261.64,307.64 M236.23,308.23L223.13,308.13 M222.73,281.73 M209.52,261.52L196.76,261.76 M210.98,256.98 M185.07,250.07 M131.07,249.07L122.98,262.98L139.07,257.07L139.26,264.26L148.58,270.58L153.68,276.68L157.55,285.55L161.37,298.37L153.22,307.22 M171.77,343.77L167.88,350.88L178.94,349.94L192.96,344.96L206.94,343.94 M248.77,333.77 M263.01,354.01 M288.25,340.25 M221.86,462.86L221.83,476.83 M224.21,471.21 M223.59,483.59L236.67,483.67 M236.53,496.53 M275.61,574.61 M250.17,627.17 M236.97,652.97 M263.94,666.94 M307.24,681.24L304.33,695.33L311.14,693.14 M302.25,705.25 M326.63,729.63 M340.71,756.71 M379.53,756.53 M387.86,748.86L393.68,734.68 M392.76,743.76 M380.25,725.25 M379.49,717.49L366.41,717.41 M365.17,702.17L363.21,689.21L356.33,687.33 M379.46,704.46 M328.82,666.82 M209.73,621.73L225.80,614.80L228.92,599.92L218.64,595.64L209.31,588.31L209.06,574.06L200.86,583.86L202.68,583.68 M93.43,613.43 M93.82,626.82 M95.95,628.95L95.76,613.76L89.69,610.69L101.57,600.57L99.44,593.44L95.45,594.45L109.40,580.40L82.36,579.36L91.20,569.20L82.17,559.17L78.15,555.15L80.03,548.03L79.36,535.36L80.98,543.98L75.39,560.39L77.59,551.59L63.76,555.76 M67.55,509.55 M112.79,454.79L97.67,465.67L95.59,469.59L112.46,467.46L118.28,477.28L105.23,493.23L120.23,484.23L137.00,490.00 M105.67,373.67L97.73,368.73L117.79,369.79L103.84,372.84 M106.34,353.34L119.42,353.42 M124.01,348.01L123.21,362.21 M128.19,362.19L142.32,356.32L153.61,348.61L147.75,355.75L139.73,352.73L133.73,352.73L133.41,350.41L123.19,355.19L108.08,365.08L106.13,347.13L103.16,350.16 M2.83,301.83 M25.25,236.25L24.38,249.38L26.51,242.51L39.55,261.55L53.47,254.47L64.20,248.20L84.23,249.23L100.27,255.27L107.22,270.22L119.25,272.25L122.31,259.31L130.23,254.23L141.24,250.24L155.44,252.44L163.76,251.76L168.82,256.82L182.79,254.79L182.81,258.81L187.93,257.93L194.12,272.12L207.09,246.09L214.04,231.04L215.75,229.75L224.62,251.62L230.57,263.57L244.59,267.59L242.53,227.53L250.72,235.72L256.89,251.89L271.09,256.09L275.07,269.07L281.94,262.94L287.86,274.86L289.85,273.85L296.94,283.94L303.87,272.87L315.95,284.95L322.69,294.69L336.60,283.60L341.63,292.63L336.62,304.62L333.70,311.70L322.80,332.80L309.82,340.82L331.68,350.68L338.44,354.44L342.62,355.62L329.66,361.66L303.70,370.70L323.73,350.73L325.62,367.62L337.58,366.58L350.68,353.68L362.87,346.87L367.11,345.11L376.22,352.22L387.43,319.43L393.61,294.61L407.72,294.72L413.80,285.80L424.00,273.00L427.86,251.86L439.69,237.69L452.67,214.67L461.70,204.70L467.77,190.77L474.66,192.66L482.44,185.44L486.18,207.18L488.99,199.99L498.93,195.93L503.10,194.10L512.31,213.31L522.38,218.38L531.32,199.32L537.39,192.39L545.27,175.27L545.04,184.04L551.95,172.95L563.10,202.10L538.17,227.17L539.06,232.06L531.82,244.82L527.69,251.69L514.72,263.72L512.77,271.77L504.65,285.65L491.56,300.56L501.50,285.50L510.40,275.40L512.49,271.49L526.26,250.26L542.26,231.26L551.31,217.31L565.37,191.37L573.36,197.36L576.46,190.46L580.60,177.60L589.83,176.83L591.21,185.21L590.33,208.33L591.19,211.19L604.94,186.94L605.86,182.86L612.84,199.84L619.83,211.83L627.92,197.92L633.06,212.06L636.07,204.07L640.98,191.98L648.94,174.94L656.99,170.99L659.23,165.23L666.36,160.36L679.38,123.38L682.29,138.29L690.19,138.19L697.07,147.07L699.94,157.94L709.81,144.81L710.73,154.73L716.90,189.90L724.11,198.11L726.18,214.18L733.08,220.08L738.95,250.95L743.02,263.02L747.03,274.03L760.93,271.93L748.76,265.76L742.68,271.68L720.76,281.76L713.81,293.81L701.79,295.79L694.77,296.77L713.51,317.51L711.47,324.47L689.30,336.30L687.32,339.32L700.45,330.45L699.53,327.53L713.47,303.47L710.84,273.84L719.08,269.08L720.12,286.12L721.12,316.12L728.30,311.30L734.33,340.33L747.20,344.20L749.97,337.97L753.96,332.96L760.98,339.98L764.74,347.74L774.69,345.69L779.76,337.76L773.72,340.72L768.77,356.77 M789.55,426.55L789.61,440.61L789.77,454.77L789.73,468.73L789.57,482.57L789.50,496.50 M793.79,514.79 M794.77,515.77 M794.74,476.74 M794.69,476.69 M796.86,452.86 M796.30,452.30 M796.41,426.41 M796.15,426.15 M730.58,607.58 M730.83,607.83 M652.10,652.10L638.93,651.93 M535.38,724.38 M535.66,730.66 M510.67,757.67L497.74,757.74L484.45,757.45 M496.79,769.79 M536.87,803.87 M560.89,801.89 M444.42,802.42 M432.07,803.07 M418.84,802.84 M404.29,801.29 M393.38,803.38 M378.29,801.29 M367.75,803.75 M328.21,803.21 M327.71,795.71 M315.21,803.21 M287.92,801.92 M285.48,798.48L282.56,784.56L276.70,775.70L268.72,755.72L259.61,782.61L253.38,791.38L251.32,801.32L238.44,801.44L224.59,801.59L216.80,797.80L208.79,796.79L197.65,797.65L184.37,801.37L170.14,801.14L156.00,801.00L141.80,800.80L128.00,801.00L114.29,801.29L100.50,801.50L86.59,801.59L72.75,801.75L58.94,801.94L45.09,802.09L31.21,802.21L17.37,802.37L3.50,802.50 M3.20,803.20 M14.54,801.54 M27.67,801.67 M40.89,801.89 M55.26,803.26 M66.87,801.87 M80.27,802.27 M92.77,801.77 M106.89,802.89 M119.56,802.56 M133.49,803.49 M145.00,802.00 M159.12,803.12 M171.23,802.23 M185.16,770.16 M189.96,763.96L188.95,749.95 M196.45,716.45 M223.58,743.58 M223.80,802.80 M236.96,802.96 M247.82,800.82 M262.03,802.03 M275.71,802.71 M41.53,717.53 M18.23,594.23L9.15,566.15L5.95,551.95 M2.56,197.56 M2.43,197.43 M15.34,35.34 M509.32,373.32 M508.78,378.78 M757.48,803.48 M769.38,802.38 M795.63,789.63"/></svg>